<?xml version="1.0" encoding="utf-8"?>
<!-- Generator: Adobe Illustrator 26.0.3, SVG Export Plug-In . SVG Version: 6.00 Build 0)  -->
<svg version="1.1" xmlns="http://www.w3.org/2000/svg" xmlns:xlink="http://www.w3.org/1999/xlink" x="0px" y="0px"
	 viewBox="0 0 1920 1312" style="enable-background:new 0 0 1920 1312;" xml:space="preserve">
<style type="text/css">
	.st0{display:none;}
	.st1{display:inline;}
	.st2{fill:#F173FF;}
	.st3{fill:#FFFFFF;}
	
		.st4{clip-path:url(#SVGID_00000122000258997359064560000006255743602723742635_);fill:url(#SVGID_00000145750245611711006360000010013490596544787358_);}
</style>
<g id="Layer_2" class="st0">
	<g class="st1">
		<path class="st2" d="M809,577.5c-1.6,5.7-3.2,11.2-4.7,16.3l33.9-7.7c2.1-5.4,4.2-11,6.3-16.7L809,577.5z"/>
		<path class="st2" d="M882.9,406.7c3-28.4,2.8-54.9-1.8-76.1c-6.6-30-22.5-49.4-50.7-45.7c-3.5,0.8-5.8,4.4-5.1,7.9
			c0.3,1.2,1.1,2.2,2.5,3.1c6.2,3,9.6,10.2,12,20.8c4.1,18.8,3.6,47.4,0.4,80.8c-5.5,63.3-15.5,118-26.1,160.4l37.2-8.5
			C866.4,503.8,878.6,452.4,882.9,406.7z"/>
		<path class="st2" d="M745.9,373.1c-0.1-6.1-1.1-13.3-2.5-19.8c-5.7-25.9-22-49.5-68.5-39.3l-14,3.7
			c-49.8,15.2-89.4,119-91.5,165.7c-0.1,5,0.4,10.4,1.5,15.1c1.8,8.2,5.8,15.4,14.5,18.4c5.2,1.3,10.8,1.3,16.1,0.2
			c9.4-2.1,18.2-7.1,25.3-11.1c2.7-1.8,3.3-4.4,3-6.2c-0.6-2.9-2.9-4.9-6-4.9c-1.2,0.3-2.2-1.4-2.7-3.7
			c-4.6-21.2,25.1-127.7,49.3-149.7c2-2.3,4.8-3.5,7.1-4c2.9-0.6,5.6,0,6.3,3.6l0.3,1.2c2.9,60.7,3.1,163,13.7,242.3l62.3-14.2
			C753.6,506.5,748.7,421.3,745.9,373.1z"/>
		<path class="st2" d="M777.8,653.8c-2.9,0.6-5.7-6.2-8.5-19.1c-0.9-4.1-1.8-8.8-2.6-13.9l-59.7,13.6c2.4,9.8,5,18.7,8.1,26.3
			c8.8,23.4,41.9,22.3,60.2,18.3l7.5-2.3c12.8-4.3,30.2-31.8,47-70.4l-32,7.3C789,638.8,781.4,653,777.8,653.8z"/>
		<path class="st2" d="M762.2,588.2l-61.6,14.1c0.8,5,1.7,9.9,2.6,14.7L764,603C763.4,598.3,762.8,593.4,762.2,588.2z"/>
		<path class="st2" d="M930.5,437.9c3.9-0.9,7.1-2.6,7.6-5.2c1.8-8.1,4.8-27.1,6.3-32.1c0.8-1.2,0.4-2.7,0.2-3.6
			c-1.6-7.3-18-11.9-29.2-9.5c-5.4,1.2-9.4,3.6-9.9,8.3c-1.5,7-3.2,27.3-1.5,35.1C905.3,437.3,920.7,440,930.5,437.9z"/>
		<path class="st2" d="M1335.4,438.2c0.3-0.5,0.5-1,0.7-1.6l9.3-41.4c0.3,3.5,1,6.9,1.8,10.4c2,8.9,5.1,18.6,8.6,28.6l42.1-9.6
			c-3.3-8.8-6.4-17.7-8.4-26.7c-2.9-13.2-3.3-26.9,2.6-42c0.3-1.1,0.5-2.2,0.3-3.1c-0.5-2.4-3-4.5-6-3.8l-36.6,8
			c-8.1,1.8-19.2,57.8-22.8,74.1c-0.7,3.1-1.6,6.6-2.8,10.4l10.9-2.5C1335.3,438.6,1335.4,438.4,1335.4,438.2z"/>
		<path class="st2" d="M1134.6,503.1c-1.4,5.3-2.8,10.8-4.4,16.2l47.1-10.8c0.3-5,0.8-10.3,1.6-15.6L1134.6,503.1z"/>
		<path class="st2" d="M935.6,473.1l0.1-2.1c-1.6-7.3-18.3-11.3-30.1-8.8c-5.4,1.2-9.8,4.2-10.9,8.5c-2.4,14-6.4,41.9-8.5,70.7
			l43.1-9.8C931.8,503.4,934.9,478.4,935.6,473.1z"/>
		<path class="st2" d="M1331.6,460.6c-1.3,0.3-2.5,0.7-3.6,1.3c0.4-1.1,0.8-2.2,1.1-3.3l-11.6,2.7c-2,5.4-4.3,11.1-6.7,16.8
			l46.8-10.7C1352.1,462.6,1340.3,458.7,1331.6,460.6z"/>
		<path class="st2" d="M1207.5,430l3-0.2c5.7,0.3,8.8,5.2,10.3,12.1c1.6,7.2,1.4,15.9,0.8,22.9l42.1-9.6c2.7-23,6-42.9,7.3-50.4
			l0.1-2.1c-1.7-7.8-18.3-11.3-29.6-8.9c-5.9,1.3-9.9,3.7-11.5,8.1l-1.5,9.5c-7.9-8-19.1-10.1-31.8-7.4l-0.5,0.1
			c-31.8,7-51.3,42.4-58,79.6l44.2-10.1C1187.8,451.5,1196.6,432.3,1207.5,430z"/>
		<path class="st2" d="M1260.5,489.5c0.3-5.1,0.8-10.4,1.3-15.5l-43.4,9.9c-1.2,4.7-2.7,10.3-4.5,16.3L1260.5,489.5z"/>
		<path class="st2" d="M1367.7,513.1c-1.8,3.5-4.7,6.7-7.6,7.3c-1,0.2-2.1-0.1-3.1-0.3c-1.7-0.7-3.3-3.4-4-6.8
			c-1.5-6.9-0.6-17.9,1.9-26.9l-37.4,8.6c0.2,2.7,0.5,5.4,1.1,8c4.6,21,22.4,37,51.2,30.7c30.1-6.6,42.5-32.7,41.3-60.1l-40.8,9.3
			C1371.9,494.1,1371.8,504.4,1367.7,513.1z"/>
		<path class="st2" d="M933.4,626.6c-2.9,0.6-4.5-2.1-5.7-7.4c-1.7-7.6-2.1-20.1-1.7-34.7l-40.2,9.2c0.5,6.6,1.3,12.8,2.5,18.3
			c1.9,8.8,5.1,16.3,9.1,20.5c7.6,9.1,20.6,7.8,32.8,5.1l6.3-1.4c14.4-3.8,26.1-32.2,34.8-62.1l-11.2,2.6
			C952.3,601.7,942.8,624.2,933.4,626.6z"/>
		<path class="st2" d="M1110.4,571.6c-0.8,1.2-5.4,7.8-9.4,8.7c-0.5,0.1-1.3-1.3-1.8-3.7l-1.9-10.8c-0.6-5.9-0.9-12.8-0.8-20.4
			l-52.7,12.1c-6.1,15.8-13.8,30.2-21.1,32c-5.4,1.2-8.5-3.8-10.2-11.6c-0.8-3.7-1.3-8.1-1.5-12.9l-39.5,9c0.4,2.5,0.8,5.1,1.3,7.5
			c5.6,25.4,19.6,42.8,43.1,38.1l0.5-0.1c20.5-4.5,32.9-29.7,40.5-53.4c0.5,7,1.5,14,2.8,19.8c1.8,8.3,3.7,12.1,6.5,14.3
			c9.2,7.1,19.8,2.4,31.1-1.6c7.1-2.5,13.7-6.9,20.9-21.5c5.2-10.6,10.7-25,15.8-40.3l-9.8,2.3
			C1119.9,552.2,1115.2,564,1110.4,571.6z"/>
		<path class="st2" d="M1266.9,549.7c-2.4,0.5-3.9-3.8-5.4-10.6c-1.6-8.3-2-19.1-1.8-31l-52.6,12c-5.5,14-12,25.9-18.4,27.5
			c-4.9,1.1-8.4-3.3-10.2-11.6c-0.6-2.7-1-5.8-1.3-9.1l-39.6,9c0.2,1.3,0.4,2.5,0.7,3.7c5.6,25.4,19.6,42.8,43.1,38.1l1-0.2
			c19-4.2,30.5-26.6,37.4-48.6c0.8,6,1.4,11,2.4,15.8c1.8,8.3,3.9,11.5,7.9,15.7c7.6,9.1,16.5,3.8,28.7,1.2l10.5-2.4
			c13.1-3.5,30.7-32.5,44.8-63.7l-12.8,2.9C1289.1,524.7,1275.2,547.6,1266.9,549.7z"/>
		<path class="st2" d="M1042.4,471.6l0.5-0.1c7.3-1.6,11.2,4.2,13,12.5c1.3,5.7,1.5,12.5,1.4,18.4l43.2-9.9
			c6.1-53.1,17.4-110.9,18.6-122.1l-0.3-1.5c-1.5-6.8-20.1-9.9-33.3-7c-6.3,1.4-10.9,3.9-12,8.3c-2.3,12.8-7.6,44.6-11.9,81.4
			c-7.7-7-18.7-8.2-30.4-5.6l-0.5,0.1c-30.6,6.7-49.9,39.9-57.2,75.5l44.1-10.1C1023.1,491,1031.7,473.9,1042.4,471.6z"/>
		<path class="st2" d="M885.2,560.1c-0.2,5.2-0.3,10.3-0.3,15.3l41.8-9.6c0.3-5.1,0.6-10.3,1-15.5L885.2,560.1z"/>
		<path class="st2" d="M1361.6,451.2c1.6,4.8,3.1,9.5,4.4,14.2l42.2-9.6c-1.2-4.8-2.6-9.6-4.2-14.3L1361.6,451.2z"/>
		<path class="st2" d="M969.6,540.8c-1.2,5.2-2.5,10.6-4,16.2l45.9-10.5c0.4-5.1,1.1-10.4,2-15.7L969.6,540.8z"/>
		<path class="st2" d="M1097.3,526.9c0.3-5,0.7-10.2,1.2-15.5l-43.5,9.9c-1,4.4-2.5,10-4.4,16.3L1097.3,526.9z"/>
		<path class="st2" d="M971.3,574l0.2-0.1c0-0.2-0.1-0.3-0.1-0.5C971.4,573.6,971.3,573.8,971.3,574z"/>
	</g>
	<g class="st1">
		<path class="st2" d="M507.8,893.5l-53.7,12.3c-0.2,5.2-0.5,10.4-0.6,15.4l53.2-12.2C507.1,903.8,507.4,898.6,507.8,893.5z"/>
		<path class="st2" d="M455.6,996.9c0.5,2.5,1.1,4.9,2.1,6.6c6,12.8,23.1,11.7,37.2,8.6l6.1-1.3c3.7-0.8,5.5-4.4,4.8-7.5
			c-2.7-12.5-2.2-43-0.3-75.6l-52.6,12C452.5,964.9,453.1,985.3,455.6,996.9z"/>
		<path class="st2" d="M511,856.2c11.6,5.8,20.3,7.8,32.6,5.1l5.5-1.2c47.5-14.9,83.1-63.8,95.6-115.4c6.4-26.5,7.2-49.2,3.2-67.6
			c-13.6-62-79.7-82.2-161.4-64.9l-7.4,1.6c-71.8,15.7-136.7,47.9-182.5,108.7c-5.1,6.2-5.5,16-3.4,25.8c5,22.7,24.9,49.2,40.4,52.2
			l5.2,0.2c3.1-0.7,5.1-3.1,4.9-6.9c-1.1-81.4,91.8-141.6,168.5-158.4c9.2-2,17.9-3.3,26.2-3.8c37.9-3.1,55.2,14.3,60.4,38.2
			c6,27.6-3.4,63.7-15,90.1c-15.8,36.2-39.9,67.2-62.6,72.2l-8.2,0.5c5.2-52.6,10.4-108.3,18.3-160.2l0.1-2.6
			c-2.1-9.8-25-14.5-40.4-11.1c-7.4,1.6-13.1,4.8-13.9,10.1c-4.8,24.8-16.4,130.9-21.9,216.9c0,0.5,0,0.9-0.1,1.4l54.3-12.4
			C509.9,868.2,510.4,862,511,856.2z"/>
		<path class="st2" d="M1257.9,737.2l28.7-6.6c3.2-5.3,6.1-11.1,8.5-17.2l-22.8,5.2C1268.1,726.2,1263.2,732.9,1257.9,737.2z"/>
		<path class="st2" d="M775.6,922.3c-2.4,0.5-3.9-3.8-5.4-10.6c-2.1-10.8-2.2-26.8-1.4-44.3l-51.2,11.7c-5.8,15.9-13,30.3-20.1,32.1
			c-4.9,1.1-8.4-3.3-10.2-11.6c-0.8-3.8-1.3-8.3-1.5-13.3l-40,9.2c0.4,2.7,0.8,5.3,1.4,7.8c5.6,25.4,19.6,42.8,43.1,38.1l1-0.2
			c19-4.2,30.5-26.6,37.4-48.6c0.8,6,1.4,11,2.4,15.8c1.8,8.3,4.4,15.4,8.4,19.7c7.6,9.1,20.6,7.8,32.8,5.1l5.9-1.3
			c16.1-4.2,28.9-40.8,38.1-75.4l-11,2.5C797,889.3,786.1,919.7,775.6,922.3z"/>
		<path class="st2" d="M1016.5,727.9l3-0.2c5.7,0.3,8.8,5.2,10.3,12.1c1.1,4.9,1.3,10.4,1.2,15.7l43-9.8c2.4-20.1,4.9-36.6,6-43
			l0.1-2.1c-1.7-7.8-18.3-11.3-29.6-8.9c-5.9,1.3-9.9,3.7-11.5,8.1l-1.5,9.5c-7.9-8-19.1-10.1-31.8-7.4l-0.5,0.1
			c-29.6,6.5-48.6,37.7-56.5,72.1l44.7-10.2C998.8,745.2,1006.8,730,1016.5,727.9z"/>
		<path class="st2" d="M770,848.8c0.4-5.2,0.9-10.4,1.4-15.6l-43.2,9.9c-1,4.3-2.4,10-4.2,16.2L770,848.8z"/>
		<path class="st2" d="M645.1,862.1c-0.5,5.2-0.7,10.3-0.6,15.4l41.9-9.6c0.4-5.1,1.1-10.4,1.9-15.7L645.1,862.1z"/>
		<path class="st2" d="M814.3,823.4c-1.1,5-2.4,10.4-3.8,16.1l10.8-2.5c1.4-5.7,2.6-11.1,3.7-16.1L814.3,823.4z"/>
		<path class="st2" d="M1505.4,680.6l44.4-10.2c0.5-5.3,1-10.5,1.5-15.6l-42.5,9.7c-0.1,0.8-0.2,1.5-0.3,2.1
			C1508,669.6,1506.9,674.6,1505.4,680.6z"/>
		<path class="st2" d="M860.6,812.8c-0.5,5.2-0.8,10.3-1.1,15.5l41-9.4c0.5-5.4,1.1-10.7,1.7-15.6L860.6,812.8z"/>
		<path class="st2" d="M1070.5,780.1c0.4-5.2,0.9-10.4,1.4-15.6l-42.8,9.8c-0.8,3.9-2.2,9.6-4,16.2L1070.5,780.1z"/>
		<path class="st2" d="M716.2,793.6l3-0.2c5.7,0.3,8.8,5.2,10.3,12.1c1.3,5.8,1.4,12.6,1.1,18.6l42.7-9.8c2.5-21.4,5.2-39.3,6.4-46
			l0.1-2.1c-1.7-7.8-18.3-11.3-29.6-8.9c-5.9,1.3-9.9,3.7-11.5,8.1l-1.5,9.5c-7.9-8-19.1-10.1-31.8-7.4l-0.5,0.1
			c-30.5,6.7-49.7,39.6-57.1,75.2l44.5-10.2C697.7,812.6,706,795.8,716.2,793.6z"/>
		<path class="st2" d="M1197,751.1l44.5-10.2c0.6-5.1,1.5-10.5,2.7-15.9l-44,10.1c-0.2,1.3-0.3,2.6-0.5,3.9
			C1199,742.8,1198,746.9,1197,751.1z"/>
		<path class="st2" d="M1111.5,770.7l47.1-10.8c0.4-5.1,0.8-10.3,1.3-15.5l-44.6,10.2c0,0.1,0,0.3,0,0.4
			C1114.1,759.8,1112.8,765.1,1111.5,770.7z"/>
		<path class="st2" d="M1637.4,687.6c3,13.7,3.7,26.3-1.2,36.6c-1.8,3.5-4.7,6.7-7.6,7.3c-1,0.2-2.1-0.1-3.1-0.3
			c-1.7-0.7-3.3-3.4-4-6.8c-2.2-10.3,0.7-29.3,6.6-37.8c1.3-1.3,1.5-2.4,1.2-3.8c-0.7-3.4-5.8-7-12.1-9.3l-30.4,7
			c-8.6,32.6-20.5,68.5-31.9,71.3c-2.4,0.5-3.9-3.8-5.4-10.6c-2.4-12.4-2.2-31.6-1-52l-48.8,11.2c-6.2,18.8-14.7,38.3-23,40.4
			c-4.9,1.1-8.4-3.3-10.2-11.6c-1.2-5.6-1.7-12.8-1.5-20.9l-47.6,10.9c-4.5,17.2-9.8,35.3-15.6,48.7c-2.1,4.5-8.6,19.3-14.9,20.7
			l-1,0.2c-1,0.2-1.4-1.7-2-4.7l-1.6-9.9c-1.3-11.7-1.1-28.2-0.1-47l-51.9,11.9c-14,42.2-29,60.4-41.4,68.3
			c-3.7,1.8-7.5,3.2-10.4,3.8l-5.5,0.7c-16.9,0.1-26.4-17.8-30.5-36.3c-1.2-5.3-1.6-10.8-1.9-16l-48.2,11
			c-4.3,16.5-9.4,33.5-15,46.4c-2.1,4.5-8.6,19.3-14.9,20.7l-1,0.2c-1,0.2-1.4-1.7-2-4.7l-1.6-9.9c-1.2-11.2-1.1-26.9-0.2-44.8
			l-50.9,11.6c-8.5,31.2-19.8,63.6-30.6,66.4c-2.4,0.5-3.9-3.8-5.4-10.6c-2.2-11.4-2.2-28.6-1.3-47.3l-50.2,11.5
			c-6,17.1-13.7,33.4-21.2,35.3c-4.9,1.1-8.4-3.3-10.2-11.6c-1-4.5-1.5-10-1.6-16.2l-48,11c-5,20.9-9.3,35.6-13.3,45.6
			c-1.6,4.4-8.4,17.7-14.8,19.1c-2.4,0.5-4.7-0.5-6.7-4.7l-2.8-8.1c-2.4-11.1-2.5-26.9-1.5-43l-40.1,9.2
			c-0.1,12.6,0.7,24.4,2.8,34.1c1.7,7.8,4.7,14.3,8.2,18.7c8.3,9.9,25.5,6.7,37.2,4.1l4.9-1.1c8.8-1.9,14.9-6.8,22.2-24.8
			c4-9.8,8-23.6,12.7-43c0.2,0.9,0.3,1.8,0.5,2.7c5.6,25.4,19.6,42.8,43.1,38.1l1-0.2c19-4.2,30.5-26.6,37.4-48.6
			c0.8,6,1.4,11,2.4,15.8c1.8,8.3,4.4,15.4,8.4,19.7c7.6,9.1,20.6,7.8,32.8,5.1l5.9-1.3c15.3-4,27.7-37.5,36.8-70.5
			c0.6,10.2,1.7,19.5,3.4,27.4c1.8,8.3,4.4,15.4,8,20.2c7.1,9.2,18.7,8.2,30.4,5.6l6.8-1.5c10.1-2.7,18.1-17.8,21.8-26.8
			c5.9-12.9,11.1-28.9,15.4-44.7c0.2,1.3,0.5,2.6,0.7,3.8c6.7,30.8,27.2,51.9,69,44.2l5.4-1.2c4.9-1.1,10.6-2.8,16.6-6.2
			c14.5-8.9,31.5-28.6,46.8-75c0.5,12.1,1.7,23,3.7,32.2c1.8,8.3,4.4,15.4,8,20.2c7.1,9.2,18.7,8.2,30.4,5.6l6.8-1.5
			c10.1-2.7,18.1-17.8,21.8-26.8c5.8-12.6,10.9-28.2,15.1-43.7c0.3,1.6,0.6,3.3,0.9,4.9c5.6,25.4,19.6,42.8,43.1,38.1l1-0.2
			c19-4.2,30.5-26.6,37.4-48.6c0.8,6,1.4,11,2.4,15.8c1.8,8.3,4.4,15.4,8.4,19.7c7.6,9.1,20.6,7.8,32.8,5.1l5.9-1.3
			c11.6-3.1,21.6-23.1,29.6-47c4.7,20.8,22.5,36.6,51.1,30.3c35.6-7.8,46.4-42.9,39.3-75.1c-0.7-3.2-1.6-6.3-2.5-9.4l-42.4,9.7
			C1634.5,675.9,1636.1,681.8,1637.4,687.6z"/>
		<path class="st2" d="M1336,719.4l47.2-10.8c0.4-5.1,0.8-10.3,1.3-15.5l-44.7,10.2c0,0.7-0.1,1.4-0.1,2.1
			C1338.5,710.2,1337.3,714.9,1336,719.4z"/>
		<path class="st2" d="M1614,606.3c0.3,3.5,1,6.9,1.8,10.4c0.4,1.6,0.8,3.2,1.2,4.9l41.9-9.6c-0.3-1-0.5-2-0.8-3
			c-2.9-13.2-3.3-26.9,2.6-42c0.3-1.1,0.5-2.2,0.3-3.1c-0.5-2.4-3-4.5-6-3.8l-36.6,8c-6.2,1.4-14.2,34.8-19.2,57.6l11-2.5
			L1614,606.3z"/>
		<path class="st2" d="M1495.4,623l3-0.2c5.7,0.3,8.8,5.2,10.3,12.1c0.8,3.4,1.1,7.2,1.2,11l43.6-10c2.2-17.9,4.4-32.4,5.4-38.2
			l0.1-2.1c-1.7-7.8-18.3-11.3-29.6-8.9c-5.9,1.3-9.9,3.7-11.5,8.1l-1.5,9.5c-7.9-8-19.1-10.1-31.8-7.4l-0.5,0.1
			c-28.2,6.2-46.8,34.8-55.2,67.2l45-10.3C1479.2,637.7,1486.6,625,1495.4,623z"/>
		<path class="st2" d="M1422.1,699.7l44.2-10.1c0.6-5.3,1.5-10.6,2.6-15.8l-43.8,10c-0.3,2.3-0.6,4.5-0.8,6.8
			C1423.6,693.4,1422.9,696.5,1422.1,699.7z"/>
		<path class="st2" d="M942.5,809.3l44.4-10.1c0.5-5.2,1.2-10.5,2.2-15.7l-43.4,9.9c-0.1,1.1-0.2,2.2-0.3,3.3
			C944.3,801.1,943.4,805.3,942.5,809.3z"/>
		<path class="st2" d="M837.1,758.9c2.7,0.4,5.6-0.2,8-0.7c8.3-1.8,16.6-6.2,22.8-8.1c-1.1,10.5-3.4,26.3-5.4,43.8l41.9-9.6
			c1.9-16.1,3.4-26.9,1.8-34.5l-1.2-3.3c-4.7-12.3-19-18.9-31.2-16.2c-10.3,2.2-20.6,8.6-33.7,12c0.7-3.7,2.2-15.8,2.6-23.1l0.2-1.6
			c-0.9-3.9-7.6-4.5-13.5-3.2c-4.9,1.1-9.9,3.7-10.5,7.9c-1.1,6.9-1.9,14.7-0.4,21.6c1.2,5.4,4.2,9.8,9.3,12.3
			c-3.4,18.7-5.1,27.7-9.3,47.7l10.7-2.4C832.7,785.2,834.6,775.1,837.1,758.9z"/>
		<path class="st2" d="M1176.3,609.5l0.2-1.6c-1.5-6.8-19.4-11.6-32.1-8.8c-5.9,1.3-10.3,4.3-11.9,8.7
			c-2.4,12.5-12.5,71.5-16.3,128.2l45.4-10.4C1166.9,672.6,1174.9,619.3,1176.3,609.5z"/>
		<path class="st2" d="M1594.8,646.8c-0.9,4.3-2,9-3.2,14.1l10.7-2.4c1-4.2,1.9-8.2,2.7-11.9c0-0.1,0-0.2,0-0.3l0.9-3.9l-10.9,2.5
			c0,0.1-0.1,0.2-0.1,0.3C1594.7,645.8,1594.7,646.4,1594.8,646.8z"/>
		<path class="st2" d="M1254.9,758.5c3.6-0.8,7.2-2.4,10.7-4.7l-20.6,4.7C1248.3,759.3,1251.7,759.2,1254.9,758.5z"/>
		<path class="st2" d="M1400.8,560.3l0.2-1.6c-1.5-6.8-19.4-11.6-32.1-8.8c-5.9,1.3-10.3,4.3-11.9,8.7c-2.4,12.3-12.2,69.9-16.1,126
			l45.5-10.4C1391.6,622,1399.4,570,1400.8,560.3z"/>
		<path class="st2" d="M1251.3,702c3.4-7.9,14.5-31.8,25.7-34.3c1.5-0.3,2.4-0.5,4.1,0.1c1.7,0.7,3,1.9,3.6,4.8
			c1.2,5.5-0.3,15.2-3.7,25.6l19.6-4.5c1.6-9.1,1.9-18.1,0.4-26.2l-0.2-1c-4.1-18.6-21.2-24.5-39.9-20.9l-2,0.4
			c-30.5,6.7-47.8,39.4-55.2,69.9l46.3-10.6C1250.4,704.3,1250.8,703.1,1251.3,702z"/>
		<path class="st2" d="M1622.1,638.7c1.5,4.6,3.2,9.4,4.8,14.1l42.3-9.7c-1.7-4.7-3.5-9.4-5.1-14.1L1622.1,638.7z"/>
	</g>
	<g class="st1">
		<path class="st3" d="M783.2,583.5c-1.6,5.7-3.2,11.2-4.7,16.3l33.9-7.7c2.1-5.4,4.2-11,6.3-16.7L783.2,583.5z"/>
		<path class="st3" d="M857.2,412.7c3-28.4,2.8-54.9-1.9-76.1c-6.6-30-22.5-49.4-50.7-45.7c-3.5,0.8-5.8,4.4-5.1,7.9
			c0.3,1.2,1.1,2.2,2.5,3.1c6.2,3,9.6,10.2,12,20.8c4.1,18.8,3.6,47.4,0.4,80.8c-5.5,63.3-15.5,118-26.1,160.4l37.2-8.5
			C840.6,509.8,852.8,458.4,857.2,412.7z"/>
		<path class="st3" d="M720.2,379.1c-0.1-6.1-1.1-13.3-2.5-19.8c-5.7-25.9-22-49.5-68.5-39.3l-14,3.7
			c-49.8,15.2-89.4,119-91.5,165.7c-0.1,5,0.4,10.4,1.5,15.1c1.8,8.2,5.8,15.4,14.5,18.4c5.2,1.3,10.8,1.3,16.1,0.2
			c9.4-2.1,18.2-7.1,25.3-11.1c2.7-1.8,3.3-4.4,3-6.2c-0.6-2.9-2.9-4.9-6-4.9c-1.2,0.3-2.2-1.4-2.7-3.7
			c-4.6-21.2,25.1-127.7,49.3-149.7c2-2.3,4.8-3.5,7.1-4c2.9-0.6,5.6,0,6.3,3.6l0.3,1.2c2.9,60.7,3.1,163,13.7,242.3l62.3-14.2
			C727.9,512.5,722.9,427.3,720.2,379.1z"/>
		<path class="st3" d="M752,659.8c-2.9,0.6-5.7-6.2-8.5-19.1c-0.9-4.1-1.8-8.8-2.6-13.9l-59.7,13.6c2.4,9.8,5,18.7,8.1,26.3
			c8.8,23.4,41.9,22.3,60.2,18.3l7.5-2.3c12.8-4.3,30.2-31.8,47-70.4l-32,7.3C763.2,644.8,755.7,659,752,659.8z"/>
		<path class="st3" d="M736.4,594.2l-61.6,14.1c0.8,5,1.7,9.9,2.6,14.7l60.9-13.9C737.6,604.3,737,599.4,736.4,594.2z"/>
		<path class="st3" d="M904.7,443.9c3.9-0.9,7.1-2.6,7.6-5.2c1.8-8.1,4.8-27.1,6.3-32.1c0.8-1.2,0.4-2.7,0.2-3.6
			c-1.6-7.3-18-11.9-29.2-9.5c-5.4,1.2-9.4,3.6-9.9,8.3c-1.5,7-3.2,27.3-1.5,35.1C879.5,443.3,894.9,446,904.7,443.9z"/>
		<path class="st3" d="M1309.6,444.2c0.3-0.5,0.5-1,0.7-1.6l9.3-41.4c0.3,3.5,1,6.9,1.8,10.4c2,8.9,5.1,18.6,8.6,28.6l42.1-9.6
			c-3.3-8.8-6.4-17.7-8.4-26.7c-2.9-13.2-3.3-26.9,2.6-42c0.3-1.1,0.5-2.2,0.3-3.1c-0.5-2.4-3-4.5-6-3.8l-36.6,8
			c-8.1,1.8-19.2,57.8-22.8,74.1c-0.7,3.1-1.6,6.6-2.8,10.4l10.9-2.5C1309.5,444.6,1309.6,444.4,1309.6,444.2z"/>
		<path class="st3" d="M1108.8,509.1c-1.4,5.3-2.8,10.8-4.4,16.2l47.1-10.8c0.3-5,0.8-10.3,1.6-15.6L1108.8,509.1z"/>
		<path class="st3" d="M909.9,479.1l0.1-2.1c-1.6-7.3-18.3-11.3-30.1-8.8c-5.4,1.2-9.8,4.2-10.9,8.5c-2.4,14-6.4,41.9-8.5,70.7
			l43.1-9.8C906,509.4,909.1,484.4,909.9,479.1z"/>
		<path class="st3" d="M1305.9,466.6c-1.3,0.3-2.5,0.7-3.6,1.3c0.4-1.1,0.8-2.2,1.1-3.3l-11.6,2.7c-2,5.4-4.3,11.1-6.7,16.8
			l46.8-10.7C1326.3,468.6,1314.5,464.7,1305.9,466.6z"/>
		<path class="st3" d="M1181.8,436l3-0.2c5.7,0.3,8.8,5.2,10.3,12.1c1.6,7.2,1.4,15.9,0.8,22.9l42.1-9.6c2.7-23,6-42.9,7.3-50.4
			l0.1-2.1c-1.7-7.8-18.3-11.3-29.6-8.9c-5.9,1.3-9.9,3.7-11.5,8.1l-1.5,9.5c-7.9-8-19.1-10.1-31.8-7.4l-0.5,0.1
			c-31.8,7-51.3,42.4-58,79.6l44.2-10.1C1162,457.5,1170.8,438.3,1181.8,436z"/>
		<path class="st3" d="M1234.8,495.5c0.3-5.1,0.8-10.4,1.3-15.5l-43.4,9.9c-1.2,4.7-2.7,10.3-4.5,16.3L1234.8,495.5z"/>
		<path class="st3" d="M1341.9,519.1c-1.8,3.5-4.7,6.7-7.6,7.3c-1,0.2-2.1-0.1-3.1-0.3c-1.7-0.7-3.3-3.4-4-6.8
			c-1.5-6.9-0.6-17.9,1.9-26.9l-37.4,8.6c0.2,2.7,0.5,5.4,1.1,8c4.6,21,22.4,37,51.2,30.7c30.1-6.6,42.5-32.7,41.3-60.1l-40.8,9.3
			C1346.1,500.1,1346,510.4,1341.9,519.1z"/>
		<path class="st3" d="M907.6,632.6c-2.9,0.6-4.5-2.1-5.7-7.4c-1.7-7.6-2.1-20.1-1.7-34.7l-40.2,9.2c0.5,6.6,1.3,12.8,2.5,18.3
			c1.9,8.8,5.1,16.3,9.1,20.5c7.6,9.1,20.6,7.8,32.8,5.1l6.3-1.4c14.4-3.8,26.1-32.2,34.8-62.1l-11.2,2.6
			C926.6,607.7,917,630.2,907.6,632.6z"/>
		<path class="st3" d="M1084.6,577.6c-0.8,1.2-5.4,7.8-9.4,8.7c-0.5,0.1-1.3-1.3-1.8-3.7l-1.9-10.8c-0.6-5.9-0.9-12.8-0.8-20.4
			l-52.7,12.1c-6.1,15.8-13.8,30.2-21.1,32c-5.4,1.2-8.5-3.8-10.2-11.6c-0.8-3.7-1.3-8.1-1.5-12.9l-39.5,9c0.4,2.5,0.8,5.1,1.3,7.5
			c5.6,25.4,19.6,42.8,43.1,38.1l0.5-0.1c20.5-4.5,32.9-29.7,40.5-53.4c0.5,7,1.5,14,2.8,19.8c1.8,8.3,3.7,12.1,6.5,14.3
			c9.2,7.1,19.8,2.4,31.1-1.6c7.1-2.5,13.7-6.9,20.9-21.5c5.2-10.6,10.7-25,15.8-40.3l-9.8,2.3
			C1094.1,558.2,1089.4,570,1084.6,577.6z"/>
		<path class="st3" d="M1241.1,555.7c-2.4,0.5-3.9-3.8-5.4-10.6c-1.6-8.3-2-19.1-1.8-31l-52.6,12c-5.5,14-12,25.9-18.4,27.5
			c-4.9,1.1-8.4-3.3-10.2-11.6c-0.6-2.7-1-5.8-1.3-9.1l-39.6,9c0.2,1.3,0.4,2.5,0.7,3.7c5.6,25.4,19.6,42.8,43.1,38.1l1-0.2
			c19-4.2,30.5-26.6,37.4-48.6c0.8,6,1.4,11,2.4,15.8c1.8,8.3,3.9,11.5,7.9,15.7c7.6,9.1,16.5,3.8,28.7,1.2l10.5-2.4
			c13.1-3.5,30.7-32.5,44.8-63.7l-12.8,2.9C1263.4,530.7,1249.5,553.6,1241.1,555.7z"/>
		<path class="st3" d="M1016.7,477.6l0.5-0.1c7.3-1.6,11.2,4.2,13,12.5c1.3,5.7,1.5,12.5,1.4,18.4l43.2-9.9
			c6.1-53.1,17.4-110.9,18.6-122.1l-0.3-1.5c-1.5-6.8-20.1-9.9-33.3-7c-6.3,1.4-10.9,3.9-12,8.3c-2.3,12.8-7.6,44.6-11.9,81.4
			c-7.7-7-18.7-8.2-30.4-5.6l-0.5,0.1c-30.6,6.7-49.9,39.9-57.2,75.5l44.1-10.1C997.3,497,1006,479.9,1016.7,477.6z"/>
		<path class="st3" d="M859.4,566.1c-0.2,5.2-0.3,10.3-0.3,15.3l41.8-9.6c0.3-5.1,0.6-10.3,1-15.5L859.4,566.1z"/>
		<path class="st3" d="M1335.8,457.2c1.6,4.8,3.1,9.5,4.4,14.2l42.2-9.6c-1.2-4.8-2.6-9.6-4.2-14.3L1335.8,457.2z"/>
		<path class="st3" d="M943.9,546.8c-1.2,5.2-2.5,10.6-4,16.2l45.9-10.5c0.4-5.1,1.1-10.4,2-15.7L943.9,546.8z"/>
		<path class="st3" d="M1071.5,532.9c0.3-5,0.7-10.2,1.2-15.5l-43.5,9.9c-1,4.4-2.5,10-4.4,16.3L1071.5,532.9z"/>
		<path class="st3" d="M945.5,580l0.2-0.1c0-0.2-0.1-0.3-0.1-0.5C945.6,579.6,945.6,579.8,945.5,580z"/>
	</g>
	<g class="st1">
		<path class="st3" d="M482.1,899.5l-53.7,12.3c-0.2,5.2-0.5,10.4-0.6,15.4l53.2-12.2C481.3,909.8,481.7,904.6,482.1,899.5z"/>
		<path class="st3" d="M429.9,1002.9c0.5,2.5,1.1,4.9,2.1,6.6c6,12.8,23.1,11.7,37.2,8.6l6.1-1.3c3.7-0.8,5.5-4.4,4.8-7.5
			c-2.7-12.5-2.2-43-0.3-75.6l-52.6,12C426.7,970.9,427.3,991.3,429.9,1002.9z"/>
		<path class="st3" d="M485.2,862.2c11.6,5.8,20.3,7.8,32.6,5.1l5.5-1.2c47.5-14.9,83.1-63.8,95.6-115.4c6.4-26.5,7.2-49.2,3.2-67.6
			c-13.6-62-79.7-82.2-161.4-64.9l-7.4,1.6c-71.8,15.7-136.7,47.9-182.5,108.7c-5.1,6.2-5.5,16-3.4,25.8c5,22.7,24.9,49.2,40.4,52.2
			l5.2,0.2c3.1-0.7,5.1-3.1,4.9-6.9c-1.1-81.4,91.8-141.6,168.5-158.4c9.2-2,17.9-3.3,26.2-3.8c37.9-3.1,55.2,14.3,60.4,38.2
			c6,27.6-3.4,63.7-15,90.1c-15.8,36.2-39.9,67.2-62.6,72.2l-8.2,0.5c5.2-52.6,10.4-108.3,18.3-160.2l0.1-2.6
			c-2.1-9.8-25-14.5-40.4-11.1c-7.4,1.6-13.1,4.8-13.9,10.1c-4.8,24.8-16.4,130.9-21.9,216.9c0,0.5,0,0.9-0.1,1.4l54.3-12.4
			C484.1,874.2,484.7,868,485.2,862.2z"/>
		<path class="st3" d="M1232.1,743.2l28.7-6.6c3.2-5.3,6.1-11.1,8.5-17.2l-22.8,5.2C1242.3,732.2,1237.4,738.9,1232.1,743.2z"/>
		<path class="st3" d="M749.9,928.3c-2.4,0.5-3.9-3.8-5.4-10.6c-2.1-10.8-2.2-26.8-1.4-44.3l-51.2,11.7c-5.8,15.9-13,30.3-20.1,32.1
			c-4.9,1.1-8.4-3.3-10.2-11.6c-0.8-3.8-1.3-8.3-1.5-13.3l-40,9.2c0.4,2.7,0.8,5.3,1.4,7.8c5.6,25.4,19.6,42.8,43.1,38.1l1-0.2
			c19-4.2,30.5-26.6,37.4-48.6c0.8,6,1.4,11,2.4,15.8c1.8,8.3,4.4,15.4,8.4,19.7c7.6,9.1,20.6,7.8,32.8,5.1l5.9-1.3
			c16.1-4.2,28.9-40.8,38.1-75.4l-11,2.5C771.2,895.3,760.3,925.7,749.9,928.3z"/>
		<path class="st3" d="M990.7,733.9l3-0.2c5.7,0.3,8.8,5.2,10.3,12.1c1.1,4.9,1.3,10.4,1.2,15.7l43-9.8c2.4-20.1,4.9-36.6,6-43
			l0.1-2.1c-1.7-7.8-18.3-11.3-29.6-8.9c-5.9,1.3-9.9,3.7-11.5,8.1l-1.5,9.5c-7.9-8-19.1-10.1-31.8-7.4l-0.5,0.1
			c-29.6,6.5-48.6,37.7-56.5,72.1l44.7-10.2C973.1,751.2,981,736,990.7,733.9z"/>
		<path class="st3" d="M744.3,854.8c0.4-5.2,0.9-10.4,1.4-15.6l-43.2,9.9c-1,4.3-2.4,10-4.2,16.2L744.3,854.8z"/>
		<path class="st3" d="M619.3,868.1c-0.5,5.2-0.7,10.3-0.6,15.4l41.9-9.6c0.4-5.1,1.1-10.4,1.9-15.7L619.3,868.1z"/>
		<path class="st3" d="M788.5,829.4c-1.1,5-2.4,10.4-3.8,16.1l10.8-2.5c1.4-5.7,2.6-11.1,3.7-16.1L788.5,829.4z"/>
		<path class="st3" d="M1479.6,686.6l44.4-10.2c0.5-5.3,1-10.5,1.5-15.6l-42.5,9.7c-0.1,0.8-0.2,1.5-0.3,2.1
			C1482.3,675.6,1481.2,680.6,1479.6,686.6z"/>
		<path class="st3" d="M834.9,818.8c-0.5,5.2-0.8,10.3-1.1,15.5l41-9.4c0.5-5.4,1.1-10.7,1.7-15.6L834.9,818.8z"/>
		<path class="st3" d="M1044.7,786.1c0.4-5.2,0.9-10.4,1.4-15.6l-42.8,9.8c-0.8,3.9-2.2,9.6-4,16.2L1044.7,786.1z"/>
		<path class="st3" d="M690.5,799.6l3-0.2c5.7,0.3,8.8,5.2,10.3,12.1c1.3,5.8,1.4,12.6,1.1,18.6l42.7-9.8c2.5-21.4,5.2-39.3,6.4-46
			l0.1-2.1c-1.7-7.8-18.3-11.3-29.6-8.9c-5.9,1.3-9.9,3.7-11.5,8.1l-1.5,9.5c-7.9-8-19.1-10.1-31.8-7.4l-0.5,0.1
			c-30.5,6.7-49.7,39.6-57.1,75.2l44.5-10.2C672,818.6,680.3,801.8,690.5,799.6z"/>
		<path class="st3" d="M1171.3,757.1l44.5-10.2c0.6-5.1,1.5-10.5,2.7-15.9l-44,10.1c-0.2,1.3-0.3,2.6-0.5,3.9
			C1173.2,748.8,1172.3,752.9,1171.3,757.1z"/>
		<path class="st3" d="M1085.7,776.7l47.1-10.8c0.4-5.1,0.8-10.3,1.3-15.5l-44.6,10.2c0,0.1,0,0.3,0,0.4
			C1088.3,765.8,1087.1,771.1,1085.7,776.7z"/>
		<path class="st3" d="M1611.6,693.6c3,13.7,3.7,26.3-1.2,36.6c-1.8,3.5-4.7,6.7-7.6,7.3c-1,0.2-2.1-0.1-3.1-0.3
			c-1.7-0.7-3.3-3.4-4-6.8c-2.2-10.3,0.7-29.3,6.6-37.8c1.3-1.3,1.5-2.4,1.2-3.8c-0.7-3.4-5.8-7-12.1-9.3l-30.4,7
			c-8.6,32.6-20.5,68.5-31.9,71.3c-2.4,0.5-3.9-3.8-5.4-10.6c-2.4-12.4-2.2-31.6-1-52l-48.8,11.2c-6.2,18.8-14.7,38.3-23,40.4
			c-4.9,1.1-8.4-3.3-10.2-11.6c-1.2-5.6-1.7-12.8-1.5-20.9l-47.6,10.9c-4.5,17.2-9.8,35.3-15.6,48.7c-2.1,4.5-8.6,19.3-14.9,20.7
			l-1,0.2c-1,0.2-1.4-1.7-2-4.7l-1.6-9.9c-1.3-11.7-1.1-28.2-0.1-47l-51.9,11.9c-14,42.2-29,60.4-41.4,68.3
			c-3.7,1.8-7.5,3.2-10.4,3.8l-5.5,0.7c-16.9,0.1-26.4-17.8-30.5-36.3c-1.2-5.3-1.6-10.8-1.9-16l-48.2,11
			c-4.3,16.5-9.4,33.5-15,46.4c-2.1,4.5-8.6,19.3-14.9,20.7l-1,0.2c-1,0.2-1.4-1.7-2-4.7l-1.6-9.9c-1.2-11.2-1.1-26.9-0.2-44.8
			l-50.9,11.6c-8.5,31.2-19.8,63.6-30.6,66.4c-2.4,0.5-3.9-3.8-5.4-10.6c-2.2-11.4-2.2-28.6-1.3-47.3l-50.2,11.5
			c-6,17.1-13.7,33.4-21.2,35.3c-4.9,1.1-8.4-3.3-10.2-11.6c-1-4.5-1.5-10-1.6-16.2l-48,11c-5,20.9-9.3,35.6-13.3,45.6
			c-1.6,4.4-8.4,17.7-14.8,19.1c-2.4,0.5-4.7-0.5-6.7-4.7l-2.8-8.1c-2.4-11.1-2.5-26.9-1.5-43l-40.1,9.2
			c-0.1,12.6,0.7,24.4,2.8,34.1c1.7,7.8,4.7,14.3,8.2,18.7c8.3,9.9,25.5,6.7,37.2,4.1l4.9-1.1c8.8-1.9,14.9-6.8,22.2-24.8
			c4-9.8,8-23.6,12.7-43c0.2,0.9,0.3,1.8,0.5,2.7c5.6,25.4,19.6,42.8,43.1,38.1l1-0.2c19-4.2,30.5-26.6,37.4-48.6
			c0.8,6,1.4,11,2.4,15.8c1.8,8.3,4.4,15.4,8.4,19.7c7.6,9.1,20.6,7.8,32.8,5.1l5.9-1.3c15.3-4,27.7-37.5,36.8-70.5
			c0.6,10.2,1.7,19.5,3.4,27.4c1.8,8.3,4.4,15.4,8,20.2c7.1,9.2,18.7,8.2,30.4,5.6l6.8-1.5c10.1-2.7,18.1-17.8,21.8-26.8
			c5.9-12.9,11.1-28.9,15.4-44.7c0.2,1.3,0.5,2.6,0.7,3.8c6.7,30.8,27.2,51.9,69,44.2l5.4-1.2c4.9-1.1,10.6-2.8,16.6-6.2
			c14.5-8.9,31.5-28.6,46.8-75c0.5,12.1,1.7,23,3.7,32.2c1.8,8.3,4.4,15.4,8,20.2c7.1,9.2,18.7,8.2,30.4,5.6l6.8-1.5
			c10.1-2.7,18.1-17.8,21.8-26.8c5.8-12.6,10.9-28.2,15.1-43.7c0.3,1.6,0.6,3.3,0.9,4.9c5.6,25.4,19.6,42.8,43.1,38.1l1-0.2
			c19-4.2,30.5-26.6,37.4-48.6c0.8,6,1.4,11,2.4,15.8c1.8,8.3,4.4,15.4,8.4,19.7c7.6,9.1,20.6,7.8,32.8,5.1l5.9-1.3
			c11.6-3.1,21.6-23.1,29.6-47c4.7,20.8,22.5,36.6,51.1,30.3c35.6-7.8,46.4-42.9,39.3-75.1c-0.7-3.2-1.6-6.3-2.5-9.4l-42.4,9.7
			C1608.7,681.9,1610.4,687.8,1611.6,693.6z"/>
		<path class="st3" d="M1310.3,725.4l47.2-10.8c0.4-5.1,0.8-10.3,1.3-15.5l-44.7,10.2c0,0.7-0.1,1.4-0.1,2.1
			C1312.7,716.2,1311.5,720.9,1310.3,725.4z"/>
		<path class="st3" d="M1588.2,612.3c0.3,3.5,1,6.9,1.8,10.4c0.4,1.6,0.8,3.2,1.2,4.9l41.9-9.6c-0.3-1-0.5-2-0.8-3
			c-2.9-13.2-3.3-26.9,2.6-42c0.3-1.1,0.5-2.2,0.3-3.1c-0.5-2.4-3-4.5-6-3.8l-36.6,8c-6.2,1.4-14.2,34.8-19.2,57.6l11-2.5
			L1588.2,612.3z"/>
		<path class="st3" d="M1469.6,629l3-0.2c5.7,0.3,8.8,5.2,10.3,12.1c0.8,3.4,1.1,7.2,1.2,11l43.6-10c2.2-17.9,4.4-32.4,5.4-38.2
			l0.1-2.1c-1.7-7.8-18.3-11.3-29.6-8.9c-5.9,1.3-9.9,3.7-11.5,8.1l-1.5,9.5c-7.9-8-19.1-10.1-31.8-7.4l-0.5,0.1
			c-28.2,6.2-46.8,34.8-55.2,67.2l45-10.3C1453.4,643.7,1460.8,631,1469.6,629z"/>
		<path class="st3" d="M1396.4,705.7l44.2-10.1c0.6-5.3,1.5-10.6,2.6-15.8l-43.8,10c-0.3,2.3-0.6,4.5-0.8,6.8
			C1397.9,699.4,1397.1,702.5,1396.4,705.7z"/>
		<path class="st3" d="M916.7,815.3l44.4-10.1c0.5-5.2,1.2-10.5,2.2-15.7l-43.4,9.9c-0.1,1.1-0.2,2.2-0.3,3.3
			C918.5,807.1,917.6,811.3,916.7,815.3z"/>
		<path class="st3" d="M811.3,764.9c2.7,0.4,5.6-0.2,8-0.7c8.3-1.8,16.6-6.2,22.8-8.1c-1.1,10.5-3.4,26.3-5.4,43.8l41.9-9.6
			c1.9-16.1,3.4-26.9,1.8-34.5l-1.2-3.3c-4.7-12.3-19-18.9-31.2-16.2c-10.3,2.2-20.6,8.6-33.7,12c0.7-3.7,2.2-15.8,2.6-23.1l0.2-1.6
			c-0.9-3.9-7.6-4.5-13.5-3.2c-4.9,1.1-9.9,3.7-10.5,7.9c-1.1,6.9-1.9,14.7-0.4,21.6c1.2,5.4,4.2,9.8,9.3,12.3
			c-3.4,18.7-5.1,27.7-9.3,47.7l10.7-2.4C806.9,791.2,808.8,781.1,811.3,764.9z"/>
		<path class="st3" d="M1150.5,615.5l0.2-1.6c-1.5-6.8-19.4-11.6-32.1-8.8c-5.9,1.3-10.3,4.3-11.9,8.7
			c-2.4,12.5-12.5,71.5-16.3,128.2l45.4-10.4C1141.1,678.6,1149.1,625.3,1150.5,615.5z"/>
		<path class="st3" d="M1569,652.8c-0.9,4.3-2,9-3.2,14.1l10.7-2.4c1-4.2,1.9-8.2,2.7-11.9c0-0.1,0-0.2,0-0.3l0.9-3.9l-10.9,2.5
			c0,0.1-0.1,0.2-0.1,0.3C1569,651.8,1569,652.4,1569,652.8z"/>
		<path class="st3" d="M1229.2,764.5c3.6-0.8,7.2-2.4,10.7-4.7l-20.6,4.7C1222.6,765.3,1225.9,765.2,1229.2,764.5z"/>
		<path class="st3" d="M1375.1,566.3l0.2-1.6c-1.5-6.8-19.4-11.6-32.1-8.8c-5.9,1.3-10.3,4.3-11.9,8.7c-2.4,12.3-12.2,69.9-16.1,126
			l45.5-10.4C1365.9,628,1373.7,576,1375.1,566.3z"/>
		<path class="st3" d="M1225.5,708c3.4-7.9,14.5-31.8,25.7-34.3c1.5-0.3,2.4-0.5,4.1,0.1c1.7,0.7,3,1.9,3.6,4.8
			c1.2,5.5-0.3,15.2-3.7,25.6l19.6-4.5c1.6-9.1,1.9-18.1,0.4-26.2l-0.2-1c-4.1-18.6-21.2-24.5-39.9-20.9l-2,0.4
			c-30.5,6.7-47.8,39.4-55.2,69.9l46.3-10.6C1224.7,710.3,1225.1,709.1,1225.5,708z"/>
		<path class="st3" d="M1596.3,644.7c1.5,4.6,3.2,9.4,4.8,14.1l42.3-9.7c-1.7-4.7-3.5-9.4-5.1-14.1L1596.3,644.7z"/>
	</g>
</g>
<g id="Layer_1">
	<g id="Camada_2" class="st0">
		<g class="st1">
			<g>
				<g>
					<defs>
						<path id="SVGID_1_" d="M376.2,699.8L266,414h11.4l106.1,271.9L489.7,414h11.4L390.9,699.8h-7.3H376.2z M1212.7,699.8h-11.4
							L1311.5,414h7.3h7.3l110.2,285.8H1425l-38.9-99.6h-134.5L1212.7,699.8z M1254.8,592h128.1l-64.1-164.1L1254.8,592z
							 M1503,691.6V414h-8.2v277.6v6.3v1.8H1654v-8.2h-151V691.6z M266,744.1h1388v-8.2H266V744.1z M543.8,563.4
							c0,1.1,0.1,2.1,0.2,3.2c0.1,1.1,0.2,2.2,0.2,3.3c0.1,1.3,0.3,2.6,0.4,3.9c0.1,0.8,0.2,1.6,0.3,2.3c0.2,1.5,0.4,3,0.7,4.4
							c0.1,0.5,0.2,0.9,0.2,1.4c1.7,9.7,4.4,19.1,8,28c0.1,0.3,0.2,0.5,0.3,0.8c0.6,1.6,1.3,3.1,2,4.7c0.2,0.4,0.4,0.9,0.6,1.3
							c0.7,1.4,1.4,2.9,2.1,4.3c0.3,0.5,0.5,1.1,0.8,1.6c0.7,1.4,1.4,2.7,2.2,4c0.3,0.6,0.6,1.1,1,1.7c0.8,1.3,1.5,2.6,2.3,3.9
							c0.3,0.5,0.6,1,1,1.5c0.9,1.3,1.7,2.7,2.6,4c0,0.1,0.1,0.1,0.1,0.2l0,0l10-10l24.2-24.2c-30-46.4-24.5-109.2,16.3-150
							c7.2-7.2,15.2-13.3,23.6-18.3c13.6-4.9,28.3-7.6,43.6-7.6c71.2,0,129,57.8,129,129c0,15.4-2.7,30.2-7.7,43.9
							c-5,8.3-11,16.1-18.1,23.3c-41.3,41.3-105.2,46.3-152.1,15.1l-24.1,24.1l-10,10l0,0c0.4,0.3,0.8,0.5,1.1,0.8
							c1.1,0.8,2.2,1.5,3.3,2.3c0.7,0.5,1.5,1,2.2,1.4c1.1,0.7,2.2,1.4,3.4,2.1c0.7,0.4,1.5,0.9,2.2,1.3c1.2,0.7,2.3,1.3,3.5,2
							c0.6,0.3,1.3,0.7,1.9,1c1.3,0.7,2.7,1.4,4,2c0.2,0.1,0.5,0.2,0.7,0.3c4.5,2.1,9.1,3.9,13.8,5.6c0.2,0.1,0.3,0.1,0.5,0.2
							c0.8,0.3,1.5,0.5,2.3,0.8s1.6,0.5,2.4,0.8c0.1,0,0.2,0.1,0.4,0.1c1,0.3,1.9,0.6,2.9,0.8c0.2,0.1,0.5,0.1,0.7,0.2
							c1.7,0.5,3.4,0.9,5.1,1.3c0.4,0.1,0.8,0.2,1.2,0.3c1.6,0.4,3.3,0.7,4.9,1c0.5,0.1,1,0.2,1.5,0.3c1.6,0.3,3.2,0.5,4.8,0.8
							c0.6,0.1,1.2,0.2,1.8,0.2c1.5,0.2,3.1,0.4,4.6,0.5c0.7,0.1,1.3,0.1,2,0.2c2.3,0.2,4.6,0.3,7,0.4c1.3,0,2.6,0.1,3.9,0.1
							c0.2,0,0.5,0,0.7,0c0.8,0,1.5,0,2.3-0.1c1.3,0,2.5,0,3.8-0.1c1.1,0,2.1-0.1,3.2-0.2c1.2-0.1,2.4-0.2,3.5-0.3s2.2-0.2,3.3-0.3
							s2.3-0.3,3.4-0.4c1.1-0.1,2.2-0.3,3.3-0.5c1.2-0.2,2.4-0.4,3.6-0.6c1-0.2,2-0.3,3-0.6c2.1-0.4,4.2-0.9,6.3-1.5
							c0.4-0.1,0.8-0.2,1.2-0.3c1.8-0.5,3.6-1,5.4-1.5c0.5-0.1,1-0.3,1.4-0.5c1.7-0.6,3.5-1.1,5.2-1.7c0.4-0.1,0.7-0.3,1.1-0.4
							c0.9-0.3,1.8-0.7,2.8-1.1c0.9-0.4,1.8-0.7,2.7-1.1c0.2-0.1,0.4-0.2,0.6-0.2c16.4-7,31.8-17.1,45.2-30.4
							c1.3-1.3,2.4-2.6,3.6-3.9c0.5-0.5,0.9-1,1.4-1.5c1.3-1.5,2.7-3,3.9-4.5c0.3-0.4,0.6-0.8,0.9-1.2c2.3-2.9,4.5-5.8,6.6-8.8
							c0.4-0.6,0.8-1.2,1.3-1.8c1.1-1.6,2.1-3.2,3.1-4.8c0.4-0.7,0.8-1.4,1.2-2.1c1.5-2.6,3-5.3,4.4-8c0.6-1.2,1.2-2.3,1.7-3.5
							c0.6-1.3,1.2-2.7,1.8-4c0.7-1.7,1.4-3.4,2.1-5.2c0.4-1.1,0.9-2.3,1.3-3.4c0.8-2.4,1.6-4.7,2.3-7.2c0.3-0.9,0.5-1.8,0.8-2.7
							c0.6-2.2,1.2-4.5,1.7-6.8c0.1-0.6,0.3-1.3,0.4-1.9c0.6-2.9,1.1-5.8,1.6-8.8c0.1-0.6,0.1-1.1,0.2-1.7c0.3-2.4,0.6-4.8,0.8-7.3
							c0.1-0.8,0.1-1.7,0.2-2.5c0.2-2.5,0.3-5.1,0.3-7.6c0-0.5,0-0.9,0-1.4c0-0.1,0-0.3,0-0.4c0-2.9-0.1-5.7-0.3-8.5
							c0-0.7-0.1-1.4-0.2-2.1c-0.2-2.4-0.4-4.8-0.7-7.1c-0.1-0.7-0.2-1.5-0.3-2.2c-0.8-5.9-2-11.7-3.6-17.4
							c-0.2-0.9-0.5-1.8-0.8-2.8c-0.6-1.9-1.2-3.9-1.8-5.8c-0.2-0.7-0.4-1.5-0.7-2.2c0,0.1,0.1,0.3,0.1,0.4
							c-14.3-40.5-46.4-72.5-86.8-86.9c0.1,0,0.2,0,0.2,0.1c-0.2-0.1-0.4-0.1-0.6-0.2c-2.9-1-5.8-2-8.8-2.8c-0.1,0-0.2,0-0.2-0.1
							c-1.5-0.4-3.1-0.8-4.7-1.2c-0.3-0.1-0.6-0.1-0.9-0.2c-4.4-1-8.8-1.9-13.3-2.5c-0.4-0.1-0.8-0.1-1.3-0.2
							c-1.3-0.2-2.6-0.3-4-0.5c-1.3-0.1-2.7-0.2-4-0.3c-0.6,0-1.1-0.1-1.7-0.1c-2.9-0.2-5.7-0.3-8.7-0.3c-0.1,0-0.3,0-0.4,0
							c-0.5,0-1,0-1.5,0c-2.5,0-5,0.1-7.5,0.3c-0.9,0.1-1.8,0.1-2.7,0.2c-1.2,0.1-2.3,0.2-3.5,0.3c-1.2,0.1-2.3,0.3-3.5,0.4
							c-0.7,0.1-1.3,0.2-2,0.3c-2.9,0.4-5.8,0.9-8.7,1.6c-0.7,0.1-1.3,0.3-2,0.5c-2.3,0.5-4.5,1.1-6.7,1.7c-0.9,0.2-1.8,0.5-2.6,0.7
							c-2.6,0.8-5.2,1.6-7.7,2.5c-0.8,0.3-1.6,0.6-2.3,0.9c-2,0.8-4,1.6-6,2.5c-1.2,0.5-2.3,1-3.5,1.6c-1.6,0.7-3.1,1.5-4.6,2.3
							c-0.9,0.5-1.8,0.9-2.7,1.4s-1.8,1-2.7,1.5c-1.4,0.8-2.8,1.6-4.2,2.5c-1.3,0.8-2.7,1.7-4,2.6c-1.1,0.7-2.2,1.5-3.3,2.2
							c-1.1,0.8-2.1,1.5-3.2,2.3c-1.1,0.8-2.1,1.6-3.1,2.4s-2.1,1.6-3.1,2.5c-1.3,1.1-2.6,2.2-3.9,3.4c-0.9,0.8-1.7,1.6-2.5,2.3
							c-1.1,1-2.2,1.9-3.2,3c-17.6,17.6-29.5,38.5-36,60.8c0,0.1-0.1,0.2-0.1,0.3c-0.5,1.6-0.9,3.2-1.3,4.7
							c-0.1,0.2-0.1,0.4-0.2,0.6c-0.4,1.8-0.8,3.5-1.2,5.3c-0.1,0.5-0.2,1.1-0.3,1.7c-0.3,1.6-0.6,3.3-0.9,4.9
							c-0.1,0.7-0.2,1.4-0.3,2.1c-0.2,1.5-0.4,3.1-0.6,4.6c-0.1,0.7-0.2,1.5-0.2,2.2c-0.2,1.7-0.3,3.3-0.4,5c0,0.6-0.1,1.2-0.1,1.8
							c-0.1,2.3-0.2,4.6-0.2,6.9c0,0,0,0,0,0.1c0,0.2,0,0.4,0,0.6C543.6,559.5,543.7,561.5,543.8,563.4z M652,493l-49.9,13
							l40.5,49.4l-3.7,63.8l51.5-20.1v-14L652.3,600l2.9-49.4l-31.4-38.3l37.7-9.8L652,493z M732.8,489.9l-34.4-53.8l-31.5,49.1
							l8.6,8.6l22.9-35.8l26.7,41.7l47.9,12.5l-31.4,38.3l2.9,49.4L706.3,585v14l51.5,20.1l-3.8-63.8l40.5-49.4L732.8,489.9z
							 M1024.5,699.8c60.5,0,112.1-37.6,133-90.6h-12.3c-20.2,46.6-66.7,79.3-120.7,79.3C951.9,688.5,893,629.6,893,557
							s58.9-131.5,131.5-131.5c54.1,0,100.5,32.6,120.7,79.3h12.3c-20.9-53.1-72.5-90.6-133-90.6c-78.9,0-142.9,64-142.9,142.9
							S945.6,699.8,1024.5,699.8z"/>
					</defs>
					<clipPath id="SVGID_00000021840284090771945040000006463422485160162458_">
						<use xlink:href="#SVGID_1_"  style="overflow:visible;"/>
					</clipPath>
					
						<linearGradient id="SVGID_00000012473759336438822110000010516996135337259652_" gradientUnits="userSpaceOnUse" x1="499.6" y1="263.4" x2="1421.5" y2="1185.3" gradientTransform="matrix(1 0 0 -1 0 1312)">
						<stop  offset="0.2" style="stop-color:#E8308A"/>
						<stop  offset="0.5" style="stop-color:#E8E900"/>
						<stop  offset="0.8" style="stop-color:#2581C4"/>
					</linearGradient>
					
						<rect x="260.1" y="366.2" style="clip-path:url(#SVGID_00000021840284090771945040000006463422485160162458_);fill:url(#SVGID_00000012473759336438822110000010516996135337259652_);" width="1400.9" height="442.9"/>
				</g>
			</g>
			<g>
				<path class="st3" d="M1293.3,854.9c0,7.6-1.1,14-3.3,19.5c-2.2,5.4-5.3,9.9-9.4,13.4s-9,6.1-14.8,7.7
					c-5.8,1.6-12.3,2.5-19.6,2.5c-2.7,0-5.6-0.2-8.7-0.6c-3.1-0.4-6.3-1.1-9.6-2.2c-3.2-1.1-6.4-2.5-9.6-4.2c-3.1-1.8-6-4.1-8.5-6.9
					c-3.1-3.5-5.3-7.6-6.6-12.2c-1.3-4.6-2.1-9.8-2.3-15.6v-76h24.4v74.4c0,4,0.5,7.5,1.6,10.4s2.5,5.2,4.4,7.1
					c1.9,1.9,4,3.2,6.5,4.1c2.5,0.9,5.1,1.4,7.9,1.4c8.3,0,14.2-1.9,17.8-5.7c3.6-3.8,5.3-9.2,5.3-16.2v-75.5h24.4L1293.3,854.9
					L1293.3,854.9z"/>
				<path class="st3" d="M1383.6,894.9h-23.9v-94.3h-34.6v-20.3h93.2v20.3h-34.6L1383.6,894.9L1383.6,894.9z"/>
				<path class="st3" d="M1452.6,894.9h-25.2l40.9-114.6h27.6l40.4,114.6h-26l-7.3-23.6h-42.3L1452.6,894.9z M1467,851.5h29.2
					l-14.2-45.3h-0.3L1467,851.5z"/>
				<path class="st3" d="M1653.5,854.9c0,7.6-1.1,14-3.3,19.5c-2.2,5.4-5.3,9.9-9.4,13.4s-9,6.1-14.8,7.7
					c-5.8,1.6-12.3,2.5-19.6,2.5c-2.7,0-5.6-0.2-8.7-0.6c-3.1-0.4-6.3-1.1-9.6-2.2c-3.2-1.1-6.4-2.5-9.6-4.2c-3.1-1.8-6-4.1-8.5-6.9
					c-3.1-3.5-5.3-7.6-6.6-12.2c-1.3-4.6-2.1-9.8-2.3-15.6v-76h24.4v74.4c0,4,0.5,7.5,1.6,10.4s2.5,5.2,4.4,7.1
					c1.9,1.9,4,3.2,6.5,4.1c2.5,0.9,5.1,1.4,7.9,1.4c8.3,0,14.2-1.9,17.8-5.7c3.6-3.8,5.3-9.2,5.3-16.2v-75.5h24.4L1653.5,854.9
					L1653.5,854.9z"/>
			</g>
		</g>
	</g>
	<g>
		<path class="st3" d="M783,584.2c-1.6,5.7-3.2,11.2-4.7,16.3l33.9-7.7c2.1-5.4,4.2-11,6.3-16.7L783,584.2z"/>
		<path class="st3" d="M856.9,413.5c3-28.4,2.8-54.9-1.9-76.1c-6.6-30-22.5-49.4-50.7-45.7c-3.5,0.8-5.8,4.4-5.1,7.9
			c0.3,1.2,1.1,2.2,2.5,3.1c6.2,3,9.6,10.2,12,20.8c4.1,18.8,3.6,47.4,0.4,80.8c-5.5,63.3-15.5,118-26.1,160.4l37.2-8.5
			C840.4,510.5,852.6,459.1,856.9,413.5z"/>
		<path class="st3" d="M719.9,379.9c-0.1-6.1-1.1-13.3-2.5-19.8c-5.7-25.9-22-49.5-68.5-39.3l-14,3.7
			c-49.8,15.2-89.4,119-91.5,165.7c-0.1,5,0.4,10.4,1.5,15.1c1.8,8.2,5.8,15.4,14.5,18.4c5.2,1.3,10.8,1.3,16.1,0.2
			c9.4-2.1,18.2-7.1,25.3-11.1c2.7-1.8,3.3-4.4,3-6.2c-0.6-2.9-2.9-4.9-6-4.9c-1.2,0.3-2.2-1.4-2.7-3.7
			c-4.6-21.2,25.1-127.7,49.3-149.7c2-2.3,4.8-3.5,7.1-4c2.9-0.6,5.6,0,6.3,3.6l0.3,1.2c2.9,60.7,3.1,163,13.7,242.3l62.3-14.2
			C727.6,513.3,722.6,428.1,719.9,379.9z"/>
		<path class="st3" d="M751.7,660.6c-2.9,0.6-5.7-6.2-8.5-19.1c-0.9-4.1-1.8-8.8-2.6-13.9l-59.7,13.6c2.4,9.8,5,18.7,8.1,26.3
			c8.8,23.4,41.9,22.3,60.2,18.3l7.5-2.3c12.8-4.3,30.2-31.8,47-70.4l-32,7.3C763,645.5,755.4,659.8,751.7,660.6z"/>
		<path class="st3" d="M736.2,594.9L674.5,609c0.8,5,1.7,9.9,2.6,14.7l60.9-13.9C737.4,605.1,736.8,600.1,736.2,594.9z"/>
		<path class="st3" d="M904.5,444.6c3.9-0.9,7.1-2.6,7.6-5.2c1.8-8.1,4.8-27.1,6.3-32.1c0.8-1.2,0.4-2.7,0.2-3.6
			c-1.6-7.3-18-11.9-29.2-9.5c-5.4,1.2-9.4,3.6-9.9,8.3c-1.5,7-3.2,27.3-1.5,35.1C879.3,444,894.7,446.8,904.5,444.6z"/>
		<path class="st3" d="M1309.4,445c0.3-0.5,0.5-1,0.7-1.6l9.3-41.4c0.3,3.5,1,6.9,1.8,10.4c2,8.9,5.1,18.6,8.6,28.6l42.1-9.6
			c-3.3-8.8-6.4-17.7-8.4-26.7c-2.9-13.2-3.3-26.9,2.6-42c0.3-1.1,0.5-2.2,0.3-3.1c-0.5-2.4-3-4.5-6-3.8l-36.6,8
			c-8.1,1.8-19.2,57.8-22.8,74.1c-0.7,3.1-1.6,6.6-2.8,10.4l10.9-2.5C1309.3,445.4,1309.3,445.2,1309.4,445z"/>
		<path class="st3" d="M1108.6,509.8c-1.4,5.3-2.8,10.8-4.4,16.2l47.1-10.8c0.3-5,0.8-10.3,1.6-15.6L1108.6,509.8z"/>
		<path class="st3" d="M909.6,479.8l0.1-2.1c-1.6-7.3-18.3-11.3-30.1-8.8c-5.4,1.2-9.8,4.2-10.9,8.5c-2.4,14-6.4,41.9-8.5,70.7
			l43.1-9.8C905.8,510.1,908.9,485.2,909.6,479.8z"/>
		<path class="st3" d="M1305.6,467.3c-1.3,0.3-2.5,0.7-3.6,1.3c0.4-1.1,0.8-2.2,1.1-3.3l-11.6,2.7c-2,5.4-4.3,11.1-6.7,16.8
			l46.8-10.7C1326.1,469.3,1314.3,465.4,1305.6,467.3z"/>
		<path class="st3" d="M1181.5,436.7l3-0.2c5.7,0.3,8.8,5.2,10.3,12.1c1.6,7.2,1.4,15.9,0.8,22.9l42.1-9.6c2.7-23,6-42.9,7.3-50.4
			l0.1-2.1c-1.7-7.8-18.3-11.3-29.6-8.9c-5.9,1.3-9.9,3.7-11.5,8.1l-1.5,9.5c-7.9-8-19.1-10.1-31.8-7.4l-0.5,0.1
			c-31.8,7-51.3,42.4-58,79.6l44.2-10.1C1161.8,458.3,1170.6,439.1,1181.5,436.7z"/>
		<path class="st3" d="M1234.5,496.3c0.3-5.1,0.8-10.4,1.3-15.5l-43.4,9.9c-1.2,4.7-2.7,10.3-4.5,16.3L1234.5,496.3z"/>
		<path class="st3" d="M1341.6,519.8c-1.8,3.5-4.7,6.7-7.6,7.3c-1,0.2-2.1-0.1-3.1-0.3c-1.7-0.7-3.3-3.4-4-6.8
			c-1.5-6.9-0.6-17.9,1.9-26.9l-37.4,8.6c0.2,2.7,0.5,5.4,1.1,8c4.6,21,22.4,37,51.2,30.7c30.1-6.6,42.5-32.7,41.3-60.1l-40.8,9.3
			C1345.9,500.8,1345.8,511.1,1341.6,519.8z"/>
		<path class="st3" d="M907.4,633.3c-2.9,0.6-4.5-2.1-5.7-7.4c-1.7-7.6-2.1-20.1-1.7-34.7l-40.2,9.2c0.5,6.6,1.3,12.8,2.5,18.3
			c1.9,8.8,5.1,16.3,9.1,20.5c7.6,9.1,20.6,7.8,32.8,5.1l6.3-1.4c14.4-3.8,26.1-32.2,34.8-62.1l-11.2,2.6
			C926.3,608.4,916.8,630.9,907.4,633.3z"/>
		<path class="st3" d="M1084.4,578.4c-0.8,1.2-5.4,7.8-9.4,8.7c-0.5,0.1-1.3-1.3-1.8-3.7l-1.9-10.8c-0.6-5.9-0.9-12.8-0.8-20.4
			l-52.7,12.1c-6.1,15.8-13.8,30.2-21.1,32c-5.4,1.2-8.5-3.8-10.2-11.6c-0.8-3.7-1.3-8.1-1.5-12.9l-39.5,9c0.4,2.5,0.8,5.1,1.3,7.5
			c5.6,25.4,19.6,42.8,43.1,38.1l0.5-0.1c20.5-4.5,32.9-29.7,40.5-53.4c0.5,7,1.5,14,2.8,19.8c1.8,8.3,3.7,12.1,6.5,14.3
			c9.2,7.1,19.8,2.4,31.1-1.6c7.1-2.5,13.7-6.9,20.9-21.5c5.2-10.6,10.7-25,15.8-40.3l-9.8,2.3
			C1093.9,558.9,1089.2,570.7,1084.4,578.4z"/>
		<path class="st3" d="M1240.9,556.4c-2.4,0.5-3.9-3.8-5.4-10.6c-1.6-8.3-2-19.1-1.8-31l-52.6,12c-5.5,14-12,25.9-18.4,27.5
			c-4.9,1.1-8.4-3.3-10.2-11.6c-0.6-2.7-1-5.8-1.3-9.1l-39.6,9c0.2,1.3,0.4,2.5,0.7,3.7c5.6,25.4,19.6,42.8,43.1,38.1l1-0.2
			c19-4.2,30.5-26.6,37.4-48.6c0.8,6,1.4,11,2.4,15.8c1.8,8.3,3.9,11.5,7.9,15.7c7.6,9.1,16.5,3.8,28.7,1.2l10.5-2.4
			c13.1-3.5,30.7-32.5,44.8-63.7l-12.8,2.9C1263.1,531.4,1249.2,554.3,1240.9,556.4z"/>
		<path class="st3" d="M1016.4,478.3l0.5-0.1c7.3-1.6,11.2,4.2,13,12.5c1.3,5.7,1.5,12.5,1.4,18.4l43.2-9.9
			c6.1-53.1,17.4-110.9,18.6-122.1l-0.3-1.5c-1.5-6.8-20.1-9.9-33.3-7c-6.3,1.4-10.9,3.9-12,8.3c-2.3,12.8-7.6,44.6-11.9,81.4
			c-7.7-7-18.7-8.2-30.4-5.6l-0.5,0.1c-30.6,6.7-49.9,39.9-57.2,75.5l44.1-10.1C997.1,497.7,1005.7,480.6,1016.4,478.3z"/>
		<path class="st3" d="M859.2,566.8c-0.2,5.2-0.3,10.3-0.3,15.3l41.8-9.6c0.3-5.1,0.6-10.3,1-15.5L859.2,566.8z"/>
		<path class="st3" d="M1335.6,457.9c1.6,4.8,3.1,9.5,4.4,14.2l42.2-9.6c-1.2-4.8-2.6-9.6-4.2-14.3L1335.6,457.9z"/>
		<path class="st3" d="M943.6,547.5c-1.2,5.2-2.5,10.6-4,16.2l45.9-10.5c0.4-5.1,1.1-10.4,2-15.7L943.6,547.5z"/>
		<path class="st3" d="M1071.3,533.6c0.3-5,0.7-10.2,1.2-15.5L1029,528c-1,4.4-2.5,10-4.4,16.3L1071.3,533.6z"/>
		<path class="st3" d="M945.3,580.7l0.2-0.1c0-0.2-0.1-0.3-0.1-0.5C945.4,580.4,945.3,580.6,945.3,580.7z"/>
	</g>
	<g>
		<path class="st3" d="M481.8,900.2l-53.7,12.3c-0.2,5.2-0.5,10.4-0.6,15.4l53.2-12.2C481,910.5,481.4,905.3,481.8,900.2z"/>
		<path class="st3" d="M429.6,1003.6c0.5,2.5,1.1,4.9,2.1,6.6c6,12.8,23.1,11.7,37.2,8.6l6.1-1.3c3.7-0.8,5.5-4.4,4.8-7.5
			c-2.7-12.5-2.2-43-0.3-75.6l-52.6,12C426.5,971.6,427.1,992,429.6,1003.6z"/>
		<path class="st3" d="M485,862.9c11.6,5.8,20.3,7.8,32.6,5.1l5.5-1.2c47.5-14.9,83.1-63.8,95.6-115.4c6.4-26.5,7.2-49.2,3.2-67.6
			c-13.6-62-79.7-82.2-161.4-64.9l-7.4,1.6c-71.8,15.7-136.7,47.9-182.5,108.7c-5.1,6.2-5.5,16-3.4,25.8c5,22.7,24.9,49.2,40.4,52.2
			l5.2,0.2c3.1-0.7,5.1-3.1,4.9-6.9c-1.1-81.4,91.8-141.6,168.5-158.4c9.2-2,17.9-3.3,26.2-3.8c37.9-3.1,55.2,14.3,60.4,38.2
			c6,27.6-3.4,63.7-15,90.1c-15.8,36.2-39.9,67.2-62.6,72.2l-8.2,0.5c5.2-52.6,10.4-108.3,18.3-160.2l0.1-2.6
			c-2.1-9.8-25-14.5-40.4-11.1c-7.4,1.6-13.1,4.8-13.9,10.1c-4.8,24.8-16.4,130.9-21.9,216.9c0,0.5,0,0.9-0.1,1.4l54.3-12.4
			C483.9,874.9,484.4,868.7,485,862.9z"/>
		<path class="st3" d="M1231.9,744l28.7-6.6c3.2-5.3,6.1-11.1,8.5-17.2l-22.8,5.2C1242.1,733,1237.2,739.6,1231.9,744z"/>
		<path class="st3" d="M749.6,929c-2.4,0.5-3.9-3.8-5.4-10.6c-2.1-10.8-2.2-26.8-1.4-44.3l-51.2,11.7c-5.8,15.9-13,30.3-20.1,32.1
			c-4.9,1.1-8.4-3.3-10.2-11.6c-0.8-3.8-1.3-8.3-1.5-13.3l-40,9.2c0.4,2.7,0.8,5.3,1.4,7.8c5.6,25.4,19.6,42.8,43.1,38.1l1-0.2
			c19-4.2,30.5-26.6,37.4-48.6c0.8,6,1.4,11,2.4,15.8c1.8,8.3,4.4,15.4,8.4,19.7c7.6,9.1,20.6,7.8,32.8,5.1l5.9-1.3
			c16.1-4.2,28.9-40.8,38.1-75.4l-11,2.5C771,896,760.1,926.4,749.6,929z"/>
		<path class="st3" d="M990.5,734.6l3-0.2c5.7,0.3,8.8,5.2,10.3,12.1c1.1,4.9,1.3,10.4,1.2,15.7l43-9.8c2.4-20.1,4.9-36.6,6-43
			l0.1-2.1c-1.7-7.8-18.3-11.3-29.6-8.9c-5.9,1.3-9.9,3.7-11.5,8.1l-1.5,9.5c-7.9-8-19.1-10.1-31.8-7.4l-0.5,0.1
			c-29.6,6.5-48.6,37.7-56.5,72.1l44.7-10.2C972.8,751.9,980.8,736.7,990.5,734.6z"/>
		<path class="st3" d="M744,855.5c0.4-5.2,0.9-10.4,1.4-15.6l-43.2,9.9c-1,4.3-2.4,10-4.2,16.2L744,855.5z"/>
		<path class="st3" d="M619,868.8c-0.5,5.2-0.7,10.3-0.6,15.4l41.9-9.6c0.4-5.1,1.1-10.4,1.9-15.7L619,868.8z"/>
		<path class="st3" d="M788.3,830.1c-1.1,5-2.4,10.4-3.8,16.1l10.8-2.5c1.4-5.7,2.6-11.1,3.7-16.1L788.3,830.1z"/>
		<path class="st3" d="M1479.4,687.4l44.4-10.2c0.5-5.3,1-10.5,1.5-15.6l-42.5,9.7c-0.1,0.8-0.2,1.5-0.3,2.1
			C1482,676.3,1480.9,681.3,1479.4,687.4z"/>
		<path class="st3" d="M834.6,819.5c-0.5,5.2-0.8,10.3-1.1,15.5l41-9.4c0.5-5.4,1.1-10.7,1.7-15.6L834.6,819.5z"/>
		<path class="st3" d="M1044.5,786.8c0.4-5.2,0.9-10.4,1.4-15.6l-42.8,9.8c-0.8,3.9-2.2,9.6-4,16.2L1044.5,786.8z"/>
		<path class="st3" d="M690.2,800.3l3-0.2c5.7,0.3,8.8,5.2,10.3,12.1c1.3,5.8,1.4,12.6,1.1,18.6l42.7-9.8c2.5-21.4,5.2-39.3,6.4-46
			l0.1-2.1c-1.7-7.8-18.3-11.3-29.6-8.9c-5.9,1.3-9.9,3.7-11.5,8.1l-1.5,9.5c-7.9-8-19.1-10.1-31.8-7.4l-0.5,0.1
			c-30.5,6.7-49.7,39.6-57.1,75.2l44.5-10.2C671.7,819.4,680,802.5,690.2,800.3z"/>
		<path class="st3" d="M1171,757.9l44.5-10.2c0.6-5.1,1.5-10.5,2.7-15.9l-44,10.1c-0.2,1.3-0.3,2.6-0.5,3.9
			C1173,749.6,1172,753.6,1171,757.9z"/>
		<path class="st3" d="M1085.4,777.4l47.1-10.8c0.4-5.1,0.8-10.3,1.3-15.5l-44.6,10.2c0,0.1,0,0.3,0,0.4
			C1088,766.5,1086.8,771.8,1085.4,777.4z"/>
		<path class="st3" d="M1611.4,694.3c3,13.7,3.7,26.3-1.2,36.6c-1.8,3.5-4.7,6.7-7.6,7.3c-1,0.2-2.1-0.1-3.1-0.3
			c-1.7-0.7-3.3-3.4-4-6.8c-2.2-10.3,0.7-29.3,6.6-37.8c1.3-1.3,1.5-2.4,1.2-3.8c-0.7-3.4-5.8-7-12.1-9.3l-30.4,7
			c-8.6,32.6-20.5,68.5-31.9,71.3c-2.4,0.5-3.9-3.8-5.4-10.6c-2.4-12.4-2.2-31.6-1-52l-48.8,11.2c-6.2,18.8-14.7,38.3-23,40.4
			c-4.9,1.1-8.4-3.3-10.2-11.6c-1.2-5.6-1.7-12.8-1.5-20.9l-47.6,10.9c-4.5,17.2-9.8,35.3-15.6,48.7c-2.1,4.5-8.6,19.3-14.9,20.7
			l-1,0.2c-1,0.2-1.4-1.7-2-4.7l-1.6-9.9c-1.3-11.7-1.1-28.2-0.1-47l-51.9,11.9c-14,42.2-29,60.4-41.4,68.3
			c-3.7,1.8-7.5,3.2-10.4,3.8l-5.5,0.7c-16.9,0.1-26.4-17.8-30.5-36.3c-1.2-5.3-1.6-10.8-1.9-16l-48.2,11
			c-4.3,16.5-9.4,33.5-15,46.4c-2.1,4.5-8.6,19.3-14.9,20.7l-1,0.2c-1,0.2-1.4-1.7-2-4.7l-1.6-9.9c-1.2-11.2-1.1-26.9-0.2-44.8
			l-50.9,11.6c-8.5,31.2-19.8,63.6-30.6,66.4c-2.4,0.5-3.9-3.8-5.4-10.6c-2.2-11.4-2.2-28.6-1.3-47.3L993,816.9
			c-6,17.1-13.7,33.4-21.2,35.3c-4.9,1.1-8.4-3.3-10.2-11.6c-1-4.5-1.5-10-1.6-16.2l-48,11c-5,20.9-9.3,35.6-13.3,45.6
			c-1.6,4.4-8.4,17.7-14.8,19.1c-2.4,0.5-4.7-0.5-6.7-4.7l-2.8-8.1c-2.4-11.1-2.5-26.9-1.5-43l-40.1,9.2
			c-0.1,12.6,0.7,24.4,2.8,34.1c1.7,7.8,4.7,14.3,8.2,18.7c8.3,9.9,25.5,6.7,37.2,4.1l4.9-1.1c8.8-1.9,14.9-6.8,22.2-24.8
			c4-9.8,8-23.6,12.7-43c0.2,0.9,0.3,1.8,0.5,2.7c5.6,25.4,19.6,42.8,43.1,38.1l1-0.2c19-4.2,30.5-26.6,37.4-48.6
			c0.8,6,1.4,11,2.4,15.8c1.8,8.3,4.4,15.4,8.4,19.7c7.6,9.1,20.6,7.8,32.8,5.1l5.9-1.3c15.3-4,27.7-37.5,36.8-70.5
			c0.6,10.2,1.7,19.5,3.4,27.4c1.8,8.3,4.4,15.4,8,20.2c7.1,9.2,18.7,8.2,30.4,5.6l6.8-1.5c10.1-2.7,18.1-17.8,21.8-26.8
			c5.9-12.9,11.1-28.9,15.4-44.7c0.2,1.3,0.5,2.6,0.7,3.8c6.7,30.8,27.2,51.9,69,44.2l5.4-1.2c4.9-1.1,10.6-2.8,16.6-6.2
			c14.5-8.9,31.5-28.6,46.8-75c0.5,12.1,1.7,23,3.7,32.2c1.8,8.3,4.4,15.4,8,20.2c7.1,9.2,18.7,8.2,30.4,5.6l6.8-1.5
			c10.1-2.7,18.1-17.8,21.8-26.8c5.8-12.6,10.9-28.2,15.1-43.7c0.3,1.6,0.6,3.3,0.9,4.9c5.6,25.4,19.6,42.8,43.1,38.1l1-0.2
			c19-4.2,30.5-26.6,37.4-48.6c0.8,6,1.4,11,2.4,15.8c1.8,8.3,4.4,15.4,8.4,19.7c7.6,9.1,20.6,7.8,32.8,5.1l5.9-1.3
			c11.6-3.1,21.6-23.1,29.6-47c4.7,20.8,22.5,36.6,51.1,30.3c35.6-7.8,46.4-42.9,39.3-75.1c-0.7-3.2-1.6-6.3-2.5-9.4l-42.4,9.7
			C1608.5,682.6,1610.1,688.6,1611.4,694.3z"/>
		<path class="st3" d="M1310,726.1l47.2-10.8c0.4-5.1,0.8-10.3,1.3-15.5l-44.7,10.2c0,0.7-0.1,1.4-0.1,2.1
			C1312.5,716.9,1311.3,721.6,1310,726.1z"/>
		<path class="st3" d="M1588,613c0.3,3.5,1,6.9,1.8,10.4c0.4,1.6,0.8,3.2,1.2,4.9l41.9-9.6c-0.3-1-0.5-2-0.8-3
			c-2.9-13.2-3.3-26.9,2.6-42c0.3-1.1,0.5-2.2,0.3-3.1c-0.5-2.4-3-4.5-6-3.8l-36.6,8c-6.2,1.4-14.2,34.8-19.2,57.6l11-2.5L1588,613z
			"/>
		<path class="st3" d="M1469.4,629.8l3-0.2c5.7,0.3,8.8,5.2,10.3,12.1c0.8,3.4,1.1,7.2,1.2,11l43.6-10c2.2-17.9,4.4-32.4,5.4-38.2
			l0.1-2.1c-1.7-7.8-18.3-11.3-29.6-8.9c-5.9,1.3-9.9,3.7-11.5,8.1l-1.5,9.5c-7.9-8-19.1-10.1-31.8-7.4l-0.5,0.1
			c-28.2,6.2-46.8,34.8-55.2,67.2l45-10.3C1453.2,644.5,1460.6,631.7,1469.4,629.8z"/>
		<path class="st3" d="M1396.1,706.4l44.2-10.1c0.6-5.3,1.5-10.6,2.6-15.8l-43.8,10c-0.3,2.3-0.6,4.5-0.8,6.8
			C1397.6,700.1,1396.9,703.2,1396.1,706.4z"/>
		<path class="st3" d="M916.5,816.1l44.4-10.1c0.5-5.2,1.2-10.5,2.2-15.7l-43.4,9.9c-0.1,1.1-0.2,2.2-0.3,3.3
			C918.3,807.8,917.4,812,916.5,816.1z"/>
		<path class="st3" d="M811.1,765.7c2.7,0.4,5.6-0.2,8-0.7c8.3-1.8,16.6-6.2,22.8-8.1c-1.1,10.5-3.4,26.3-5.4,43.8l41.9-9.6
			c1.9-16.1,3.4-26.9,1.8-34.5l-1.2-3.3c-4.7-12.3-19-18.9-31.2-16.2c-10.3,2.2-20.6,8.6-33.7,12c0.7-3.7,2.2-15.8,2.6-23.1l0.2-1.6
			c-0.9-3.9-7.6-4.5-13.5-3.2c-4.9,1.1-9.9,3.7-10.5,7.9c-1.1,6.9-1.9,14.7-0.4,21.6c1.2,5.4,4.2,9.8,9.3,12.3
			c-3.4,18.7-5.1,27.7-9.3,47.7l10.7-2.4C806.7,791.9,808.6,781.8,811.1,765.7z"/>
		<path class="st3" d="M1150.3,616.2l0.2-1.6c-1.5-6.8-19.4-11.6-32.1-8.8c-5.9,1.3-10.3,4.3-11.9,8.7
			c-2.4,12.5-12.5,71.5-16.3,128.2l45.4-10.4C1140.9,679.4,1148.8,626,1150.3,616.2z"/>
		<path class="st3" d="M1568.8,653.6c-0.9,4.3-2,9-3.2,14.1l10.7-2.4c1-4.2,1.9-8.2,2.7-11.9c0-0.1,0-0.2,0-0.3l0.9-3.9l-10.9,2.5
			c0,0.1-0.1,0.2-0.1,0.3C1568.7,652.6,1568.7,653.1,1568.8,653.6z"/>
		<path class="st3" d="M1228.9,765.3c3.6-0.8,7.2-2.4,10.7-4.7l-20.6,4.7C1222.3,766,1225.7,766,1228.9,765.3z"/>
		<path class="st3" d="M1374.8,567.1l0.2-1.6c-1.5-6.8-19.4-11.6-32.1-8.8c-5.9,1.3-10.3,4.3-11.9,8.7c-2.4,12.3-12.2,69.9-16.1,126
			l45.5-10.4C1365.6,628.7,1373.4,576.8,1374.8,567.1z"/>
		<path class="st3" d="M1225.3,708.8c3.4-7.9,14.5-31.8,25.7-34.3c1.5-0.3,2.4-0.5,4.1,0.1c1.7,0.7,3,1.9,3.6,4.8
			c1.2,5.5-0.3,15.2-3.7,25.6l19.6-4.5c1.6-9.1,1.9-18.1,0.4-26.2l-0.2-1c-4.1-18.6-21.2-24.5-39.9-20.9l-2,0.4
			c-30.5,6.7-47.8,39.4-55.2,69.9l46.3-10.6C1224.4,711,1224.8,709.9,1225.3,708.8z"/>
		<path class="st3" d="M1596.1,645.4c1.5,4.6,3.2,9.4,4.8,14.1l42.3-9.7c-1.7-4.7-3.5-9.4-5.1-14.1L1596.1,645.4z"/>
	</g>
</g>
</svg>
