<?xml version="1.0" encoding="UTF-8"?>
<svg id="Layer_1" data-name="Layer 1" xmlns="http://www.w3.org/2000/svg" version="1.1" viewBox="0 0 500 500">
  <defs>
    <style>
      .cls-1 {
        fill: #0057ff;
        stroke-width: 0px;
      }
    </style>
  </defs>
  <path class="cls-1" d="M329.7,239.2c-2.1-1.8-4.4-3.1-6.9-3.9s-5-1.2-7.3-1.2c-7,0-12.3,2.1-16,6.2-3.7,4.1-6,9.9-6.8,17.3h45.3c-.4-4.5-1.4-8.2-2.9-11.2s-3.3-5.4-5.4-7.2Z"/>
  <path class="cls-1" d="M397.8,100.6h0s0,0,0,0c0,0,0,0,0,0h0c-10.3-10.1-24.5-16.5-40.1-16.5h-217.2c-15.7,0-30,6.4-40.3,16.7h0c-10.3,10.3-16.7,24.5-16.7,40.3v217.1c0,15.7,6.4,30,16.7,40.3h0c10.3,10.2,24.4,16.5,40.1,16.5h217.2c31.5,0,56.9-25.4,56.9-56.8v-217.2c0-15.7-6.5-30-16.7-40.3ZM282.3,177.4h67.2v24.2h-67.2v-24.2ZM247.5,296.8c-2.3,5.4-5.5,10-9.5,13.9-2.1,2.1-4.3,4-6.7,5.6-2.4,1.7-5.3,3.1-8.8,4.3-3.5,1.2-7.8,2.1-12.9,2.7-5.1.6-11.5.9-19.1.9h-16.4l-.2.2h-46.9v-150.3h73c9.2,0,16.8,1.3,22.8,3.9s10.7,5.8,14.1,9.6c3.4,3.8,5.8,8,7.2,12.4,1.4,4.5,2.1,8.6,2.1,12.6s-.7,9.9-2,13.5c-1.3,3.6-2.9,6.5-4.8,8.8-.8,1-1.6,1.8-2.5,2.6h0c-1.3,1.1-2.4,2-3.6,2.7-2.2,1.3-4,2.3-5.5,3.1,4.6,1.7,8.4,3.8,11.4,6.5,1.7,1.5,3.2,3.2,4.6,4.9h-.1c1,1.3,1.8,2.6,2.5,4,1.7,3.2,3,6.6,3.7,10.1.7,3.6,1,7.2,1,11,0,6-1.1,11.7-3.5,17ZM368,276.6h-76.4c.1,2.1.5,4.7,1,7.7.6,3.1,1.7,6.1,3.5,9,1.7,2.9,4.3,5.4,7.7,7.4s8.1,3,13.9,3,7.9-1,11.6-3,6.1-5.1,7.2-9.1h30.1c-2,6.7-4.7,12.3-8.3,16.8-3.6,4.5-7.6,8.2-12,11-4.5,2.8-9.2,4.8-14.1,6-5,1.2-9.8,1.8-14.5,1.8-7.8,0-15.1-1-21.9-3s-12.6-5.4-17.6-10.1-8.9-11-11.7-18.8c-2.9-7.8-4.3-17.4-4.3-28.9.3-2.3.4-5.2.8-8.8.3-3.6,1.1-7.5,2.4-11.7,1.3-4.2,3.1-8.4,5.4-12.7,2.4-4.3,5.5-8.1,9.5-11.5,4-3.4,8.9-6.2,14.6-8.4,5.8-2.2,12.7-3.2,20.8-3.2s11.2.8,17.4,2.4c6.1,1.6,11.8,4.7,16.9,9.2,5.2,4.5,9.4,10.8,12.9,18.7,3.4,7.9,5.1,18.3,5.1,31v5.2Z"/>
  <path class="cls-1" d="M217.7,267.9c-1.3-2.3-3-4.2-5.1-5.6-2.1-1.5-4.5-2.5-7.2-3.1-2.7-.6-5.5-.9-8.3-.9h-40v40.2h38.5c1.7,0,3.3-.1,4.8-.3l.2-.2c5.2-.5,9.5-2.2,12.8-4.9,3.7-3.1,5.8-7.8,6.2-14.2h0c0-.7,0-1.5,0-2.4,0-3.5-.6-6.3-1.9-8.6Z"/>
  <path class="cls-1" d="M209.7,228.9c4.1-2.5,6.3-6.7,6.4-12.4h0c0-.1,0-.2,0-.4,0-6.3-2.1-10.5-6.2-12.8-2.7-1.5-5.9-2.4-9.9-2.9h0c-2.2-.2-4.5-.4-6.9-.4h-36v32.8h36.8c6.3,0,11.5-1.3,15.8-3.9Z"/>
</svg>