<?xml version="1.0" encoding="utf-8"?>
<!-- Generator: Adobe Illustrator 26.0.3, SVG Export Plug-In . SVG Version: 6.00 Build 0)  -->
<svg version="1.1" id="Layer_1" xmlns="http://www.w3.org/2000/svg" xmlns:xlink="http://www.w3.org/1999/xlink" x="0px" y="0px"
	 viewBox="0 0 500 500" style="enable-background:new 0 0 500 500;" xml:space="preserve">
<style type="text/css">
	.st0{fill:#D51248;}
	.st1{fill:#FFCC07;}
	.st2{fill:#56B7E0;}
</style>
<polygon points="174.2,324.3 100.2,398.3 100.2,398.3 174.2,324.3 "/>
<polygon points="243.8,254.7 249,249.5 243.8,254.7 "/>
<polygon points="200.4,298.1 219.6,278.9 219.6,278.9 200.4,298.1 "/>
<path class="st0" d="M335.1,246.4c-1.5-3-3.3-5.4-5.4-7.2c-2.1-1.8-4.4-3.1-6.9-3.9c-2.5-0.8-5-1.2-7.3-1.2c-7,0-12.3,2.1-16,6.2
	c-3.7,4.1-6,9.9-6.8,17.3H338C337.6,253.1,336.6,249.4,335.1,246.4z"/>
<path class="st0" d="M357.6,415c31.5,0,56.9-25.5,56.9-56.9V140.9c0-15.7-6.4-30-16.7-40.3L321,177.5h2.1h6.6h19.8v24.1h-19.8h-6.6
	H297l-48,48l-5.2,5.2c1,1.2,1.8,2.5,2.5,3.9c1.7,3.2,3,6.6,3.7,10.1c0.7,3.6,1,7.2,1,11c0,6-1.1,11.7-3.5,17
	c-2.3,5.4-5.5,10-9.5,13.9c-2.1,2.1-4.3,4-6.7,5.6c-2.4,1.7-5.3,3.1-8.8,4.3c-3.5,1.2-7.8,2.1-12.9,2.7c-5.1,0.6-11.5,0.9-19.1,0.9
	h-16.4l-74,74c10.3,10.3,24.5,16.7,40.3,16.7H357.6z M263,257.6c0.3-3.6,1.1-7.5,2.4-11.7c1.3-4.2,3.1-8.4,5.4-12.7
	c2.4-4.3,5.5-8.1,9.5-11.5c4-3.4,8.9-6.2,14.6-8.4c5.8-2.2,12.7-3.2,20.8-3.2c5.4,0,11.2,0.8,17.4,2.4c6.1,1.6,11.8,4.7,16.9,9.2
	c5.2,4.5,9.4,10.8,12.9,18.7c3.4,7.9,5.1,18.3,5.1,31v5.2h-76.4c0.1,2.1,0.5,4.7,1,7.7c0.6,3.1,1.7,6.1,3.5,9
	c1.7,2.9,4.3,5.4,7.7,7.4c3.4,2,8.1,3,13.9,3c4,0,7.9-1,11.6-3c3.7-2,6.1-5.1,7.2-9.1h30.1c-2,6.7-4.7,12.3-8.3,16.8
	c-3.6,4.5-7.6,8.2-12,11c-4.5,2.8-9.2,4.8-14.1,6c-5,1.2-9.8,1.8-14.5,1.8c-7.8,0-15.1-1-21.9-3c-6.8-2-12.6-5.4-17.6-10.1
	c-5-4.7-8.9-11-11.7-18.8c-2.9-7.8-4.3-17.4-4.3-28.9C262.5,264.1,262.6,261.2,263,257.6z"/>
<path class="st0" d="M213.4,293.1c3.7-3.1,5.8-7.8,6.2-14.2l-19.1,19.1C205.8,297.5,210.1,295.8,213.4,293.1z"/>
<path class="st1" d="M357.6,84H140.4c-15.7,0-30,6.4-40.3,16.7l73.4,73.4H200c9.2,0,16.8,1.3,22.8,3.9c6,2.6,10.7,5.8,14.1,9.6
	c3.4,3.8,5.8,8,7.2,12.4c1.4,4.5,2.1,8.6,2.1,12.6c0,5.4-0.7,9.9-2,13.5c-1.3,3.6-2.9,6.5-4.8,8.8c-0.8,1-1.6,1.8-2.5,2.6l12,12
	l48-48h-14.6v-24.1H321l76.8-76.8C387.5,90.4,373.3,84,357.6,84z"/>
<path class="st1" d="M216.1,216.1c0-6.3-2.1-10.5-6.2-12.8c-2.7-1.5-6-2.4-10-2.9l16.1,16.1C216.1,216.4,216.1,216.3,216.1,216.1z"
	/>
<path class="st2" d="M233.4,240.2c-2.2,1.3-4,2.3-5.5,3.1c4.6,1.7,8.4,3.8,11.4,6.5c1.7,1.5,3.2,3.2,4.6,4.9l5.2-5.2l-12-12
	C235.8,238.5,234.6,239.5,233.4,240.2z"/>
<path class="st2" d="M127,324.3V174.1h46.6l-73.4-73.4c-10.3,10.3-16.7,24.5-16.7,40.3v217.1c0,15.7,6.4,30,16.7,40.3l74-74H127z"/>
<path class="st2" d="M217.7,267.9c-1.3-2.3-3-4.2-5.1-5.6c-2.1-1.5-4.5-2.5-7.2-3.1c-2.7-0.6-5.5-0.9-8.3-0.9h-40v40.2h38.5
	c1.7,0,3.3-0.1,4.8-0.3l19.1-19.1c0.1-0.8,0.1-1.7,0.1-2.6C219.6,273,219,270.2,217.7,267.9z"/>
<path class="st2" d="M193.1,200h-36v32.8h36.8c6.3,0,11.5-1.3,15.8-3.9c4.1-2.5,6.3-6.7,6.4-12.4l-16.1-16.1
	C197.8,200.2,195.5,200,193.1,200z"/>
<polygon class="st2" points="100.2,100.7 100.2,100.7 173.6,174.1 173.6,174.1 "/>
<polygon class="st2" points="237,237.5 249,249.5 237,237.5 "/>
<polygon class="st2" points="199.9,200.4 199.9,200.4 216.1,216.6 216.1,216.6 "/>
</svg>
