<?xml version="1.0" encoding="utf-8"?>
<!-- Generator: Adobe Illustrator 26.0.3, SVG Export Plug-In . SVG Version: 6.00 Build 0)  -->
<svg version="1.1" id="Layer_1" xmlns="http://www.w3.org/2000/svg" xmlns:xlink="http://www.w3.org/1999/xlink" x="0px" y="0px"
	 viewBox="0 0 500 500" style="enable-background:new 0 0 500 500;" xml:space="preserve">
<style type="text/css">
	.st0{fill:#FFFFFF;}
</style>
<g>
	<path class="st0" d="M329.7,239.2c-2.1-1.8-4.4-3.1-6.9-3.9s-5-1.2-7.3-1.2c-7,0-12.3,2.1-16,6.2c-3.7,4.1-6,9.9-6.8,17.3H338
		c-0.4-4.5-1.4-8.2-2.9-11.2S331.8,241,329.7,239.2z"/>
	<path class="st0" d="M397.8,100.6L397.8,100.6C387.5,90.4,373.3,84,357.6,84H140.4c-15.7,0-30,6.4-40.3,16.7l0.1,0.1
		C89.9,111,83.5,125.2,83.5,141v217.1c0,15.7,6.4,30,16.7,40.3l0.1-0.1c10.3,10.2,24.4,16.6,40.1,16.6h217.2v0.1
		c31.5,0,56.9-25.5,56.9-56.9V140.9C414.5,125.2,408.1,110.9,397.8,100.6z M282.3,177.5h67.2v24h-67.2V177.5z M247.5,296.8
		c-2.3,5.4-5.5,10-9.5,13.9c-2.1,2.1-4.3,4-6.7,5.6c-2.4,1.7-5.3,3.1-8.8,4.3s-7.8,2.1-12.9,2.7c-5.1,0.6-11.5,0.9-19.1,0.9h-16.4
		l-0.2,0.2H127v-0.1V174.1h46.5h0.1H200c9.2,0,16.8,1.3,22.8,3.9c6,2.6,10.7,5.8,14.1,9.6c3.4,3.8,5.8,8,7.2,12.4
		c1.4,4.5,2.1,8.6,2.1,12.6c0,5.4-0.7,9.9-2,13.5c-1.3,3.6-2.9,6.5-4.8,8.8c-0.8,1-1.5,1.9-2.4,2.7c-1.3,1-2.4,1.9-3.6,2.6
		c-2.2,1.3-4,2.3-5.5,3.1c4.6,1.7,8.4,3.8,11.4,6.5c1.7,1.5,3.2,3.2,4.6,4.9c1,1.2,1.7,2.6,2.4,4c1.7,3.2,3,6.6,3.7,10.1
		c0.7,3.6,1,7.2,1,11C251,285.8,249.9,291.5,247.5,296.8z M368,276.6h-76.4c0.1,2.1,0.5,4.7,1,7.7c0.6,3.1,1.7,6.1,3.5,9
		c1.7,2.9,4.3,5.4,7.7,7.4s8.1,3,13.9,3c4,0,7.9-1,11.6-3s6.1-5.1,7.2-9.1h30.1c-2,6.7-4.7,12.3-8.3,16.8c-3.6,4.5-7.6,8.2-12,11
		c-4.5,2.8-9.2,4.8-14.1,6c-5,1.2-9.8,1.8-14.5,1.8c-7.8,0-15.1-1-21.9-3s-12.6-5.4-17.6-10.1s-8.9-11-11.7-18.8
		c-2.9-7.8-4.3-17.4-4.3-28.9c0.3-2.3,0.4-5.2,0.8-8.8c0.3-3.6,1.1-7.5,2.4-11.7s3.1-8.4,5.4-12.7c2.4-4.3,5.5-8.1,9.5-11.5
		c4-3.4,8.9-6.2,14.6-8.4c5.8-2.2,12.7-3.2,20.8-3.2c5.4,0,11.2,0.8,17.4,2.4c6.1,1.6,11.8,4.7,16.9,9.2c5.2,4.5,9.4,10.8,12.9,18.7
		c3.4,7.9,5.1,18.3,5.1,31V276.6z"/>
	<path class="st0" d="M212.6,262.3c-2.1-1.5-4.5-2.5-7.2-3.1c-2.7-0.6-5.5-0.9-8.3-0.9h-40v40.2h38.5c1.7,0,3.3-0.1,4.8-0.3l0.2-0.2
		c5.2-0.5,9.5-2.2,12.8-4.9c3.7-3.1,5.8-7.8,6.2-14.2l-0.1,0.1c0.1-0.8,0.1-1.6,0.1-2.5c0-3.5-0.6-6.3-1.9-8.6
		S214.7,263.7,212.6,262.3z"/>
	<path class="st0" d="M209.7,228.9c4.1-2.5,6.3-6.7,6.4-12.4l-0.1-0.1c0.1-0.1,0.1-0.2,0.1-0.3c0-6.3-2.1-10.5-6.2-12.8
		c-2.7-1.5-5.9-2.4-9.9-2.9l0,0c-2.2-0.2-4.5-0.4-6.9-0.4h-36v32.8h36.8C200.2,232.8,205.4,231.5,209.7,228.9z"/>
</g>
</svg>
