<?xml version="1.0" encoding="UTF-8"?>
<svg id="Camada_1" data-name="Camada 1" xmlns="http://www.w3.org/2000/svg" version="1.1" viewBox="0 0 500 500">
  <defs>
    <style>
      .cls-1 {
        fill: #000;
      }

      .cls-1, .cls-2 {
        stroke-width: 0px;
      }

      .cls-2 {
        fill: #fff;
      }
    </style>
  </defs>
  <path class="cls-1" d="M150.4,110.8c40.3,30.3,83.7,91.6,99.6,124.6,15.9-32.9,59.3-94.3,99.6-124.6,29.1-21.8,76.2-38.7,76.2,15s-6.2,90.2-9.8,103.1c-12.6,44.9-58.3,56.3-99,49.4,71.1,12.1,89.2,52.2,50.1,92.3-74.2,76.1-106.6-19.1-115-43.5-1.5-4.5-2.2-6.6-2.2-4.8,0-1.8-.7.3-2.2,4.8-8.3,24.4-40.8,119.6-115,43.5-39.1-40.1-21-80.2,50.1-92.3-40.7,6.9-86.4-4.5-99-49.4-3.6-12.9-9.8-92.4-9.8-103.1,0-53.8,47.1-36.9,76.2-15h0Z"/>
  <path class="cls-1" d="M150.4,110.8c40.3,30.3,83.7,91.6,99.6,124.6,15.9-32.9,59.3-94.3,99.6-124.6,29.1-21.8,76.2-38.7,76.2,15s-6.2,90.2-9.8,103.1c-12.6,44.9-58.3,56.3-99,49.4,71.1,12.1,89.2,52.2,50.1,92.3-74.2,76.1-106.6-19.1-115-43.5-1.5-4.5-2.2-6.6-2.2-4.8,0-1.8-.7.3-2.2,4.8-8.3,24.4-40.8,119.6-115,43.5-39.1-40.1-21-80.2,50.1-92.3-40.7,6.9-86.4-4.5-99-49.4-3.6-12.9-9.8-92.4-9.8-103.1,0-53.8,47.1-36.9,76.2-15h0Z"/>
  <path class="cls-2" d="M150.4,110.8c40.3,30.3,83.7,91.6,99.6,124.6,15.9-32.9,59.3-94.3,99.6-124.6,29.1-21.8,76.2-38.7,76.2,15s-6.2,90.2-9.8,103.1c-12.6,44.9-58.3,56.3-99,49.4,71.1,12.1,89.2,52.2,50.1,92.3-74.2,76.1-106.6-19.1-115-43.5-1.5-4.5-2.2-6.6-2.2-4.8,0-1.8-.7.3-2.2,4.8-8.3,24.4-40.8,119.6-115,43.5-39.1-40.1-21-80.2,50.1-92.3-40.7,6.9-86.4-4.5-99-49.4-3.6-12.9-9.8-92.4-9.8-103.1,0-53.8,47.1-36.9,76.2-15h0Z"/>
</svg>