<?xml version="1.0" encoding="utf-8"?>
<!-- Generator: Adobe Illustrator 22.0.1, SVG Export Plug-In . SVG Version: 6.00 Build 0)  -->
<svg version="1.1" xmlns="http://www.w3.org/2000/svg" xmlns:xlink="http://www.w3.org/1999/xlink" x="0px" y="0px"
	 viewBox="0 0 500 500" style="enable-background:new 0 0 500 500;" xml:space="preserve">
<style type="text/css">
	.st0{fill:#D51248;}
	.st1{fill:#FFCC07;}
	.st2{fill:#56B7E0;}
</style>
<g id="Discord">
	<g>
		<path class="st0" d="M183.5,250.5c0-36.7,29.5-66.4,66.1-66.8V156c-51.9,0.4-93.8,42.5-93.8,94.5c0,52.1,42.1,94.3,94.2,94.5
			v-27.7C213.2,317.1,183.5,287.3,183.5,250.5z"/>
		<path class="st0" d="M111,250.5c0-76.7,62-138.9,138.6-139.3V84C158,84.4,83.8,158.8,83.8,250.5c0,91.8,74.4,166.3,166.2,166.5
			v-27.2C173.2,389.6,111,327.3,111,250.5z"/>
		<path class="st1" d="M344.8,250v-80.6h-27.7v14.2C300,166.6,276.4,156,250.3,156c-0.1,0-0.2,0-0.3,0v27.7c0.1,0,0.2,0,0.3,0
			c36.9,0,66.8,29.9,66.8,66.8h27.7C344.8,250.3,344.8,250.2,344.8,250C344.8,250,344.8,250,344.8,250z"/>
		<path class="st1" d="M250.3,84c-0.1,0-0.2,0-0.3,0v27.2c0.1,0,0.2,0,0.3,0c76.8,0,139.2,62.2,139.3,139.1v0.2h27.1v-5.7
			C413.7,155.5,340.4,84,250.3,84z"/>
		<path class="st1" d="M250,156c-0.1,0-0.2,0-0.4,0v27.7c0.1,0,0.2,0,0.4,0V156z"/>
		<path class="st1" d="M250,111.2V84c-0.1,0-0.2,0-0.4,0v27.2C249.7,111.2,249.9,111.2,250,111.2z"/>
		<path class="st2" d="M250.3,417c32.2,0,62.2-9.1,87.7-24.9c3.9-2.4,6.6-6.7,6.6-11.6c0-7.5-6.1-13.6-13.6-13.6c-2.6,0-5,0.7-7.1,2
			c-21.4,13.3-46.6,21-73.6,21c-0.1,0-0.2,0-0.3,0V417C250.1,417,250.2,417,250.3,417z"/>
		<path class="st2" d="M389.6,294.7c0,10.4-7,19.2-16.6,21.8c-1.9,0.5-4,0.8-6.1,0.8c-12.5,0-22.7-10.2-22.7-22.7
			c0-1.7,0.2-3.4,0.6-5v-39.2h-27.7c0,36.9-29.9,66.8-66.8,66.8c-0.1,0-0.2,0-0.3,0V345c0.1,0,0.2,0,0.3,0c28,0,53.2-12.2,70.5-31.5
			c5.9,14.5,18.4,25.5,33.8,29.5c4,1,8.1,1.5,12.4,1.5c9.3,0,18-2.5,25.4-7c14.6-8.7,24.4-24.6,24.4-42.8v-44.2h-27.1V294.7z"/>
	</g>
</g>
<g id="Camada_3">
</g>
</svg>
