<?xml version="1.0" encoding="UTF-8"?>
<svg id="Camada_1" data-name="Camada 1" xmlns="http://www.w3.org/2000/svg" version="1.1" viewBox="0 0 500 500">
  <defs>
    <style>
      .cls-1 {
        fill: #2dc9c9;
        stroke-width: 0px;
      }
    </style>
  </defs>
  <path class="cls-1" d="M409.4,174.6l-33.6-33.6v-35.8c0-7.6-5.5-14-12.8-15.3v-.3h-226v.3c-7.3,1.3-12.8,7.6-12.8,15.3v35.8l-33.6,33.6c-4.4,2.7-7.3,7.6-7.3,13.1s0,.2,0,.2h0v207.8c0,8.6,7,15.5,15.5,15.5h302.3c8.6,0,15.5-7,15.5-15.5v-208.1c0-5.5-2.9-10.4-7.3-13.1ZM385.6,380.3H114.4v-156.4l124.5,124.5h0c0,0,.1.1.2.2,6.1,6.1,15.9,6.1,22,0s.1-.1.2-.2h0s124.5-124.5,124.5-124.5v156.4ZM378.2,187.3l-2.4,2.4v-4.8l2.4,2.4ZM275.2,120.7h69.5v100.1l-94.7,94.7-94.7-94.7v-100.1h120ZM124.2,189.8l-2.4-2.4,2.4-2.4v4.8Z"/>
  <path class="cls-1" d="M203.4,213.2c2.8,6.4,6.7,12,11.5,16.6,4.9,4.7,10.5,8.3,17.1,11,6.5,2.6,15.2,4,22.7,4h4.7c1.5-2.1,22.6-10.2,21.4-12.5h-26.6c-5.9,0-11.4-.9-16.4-2.8-5-1.9-9.4-4.6-13-8-3.7-3.5-6.5-7.7-8.5-12.6-2-4.9-3.1-10.5-3.1-16.6s.9-11,2.8-16c1.9-4.9,4.5-9.1,7.8-12.7,3.4-3.6,7.4-6.4,12.2-8.4s10.1-3.1,15.9-3.1,10.2.8,14.7,2.3c4.5,1.5,8.5,3.7,11.8,6.7,3.3,2.9,5.9,6.5,7.8,10.8,1.9,4.3,2.8,9.3,2.8,14.9s-.4,7.2-1.3,10.3c-.8,3.1-1.9,5.8-3.3,8-1.3,2.2-2.8,4-4.4,5.2-1.6,1.2-3.1,1.9-4.6,1.9s-2.2-.5-2.1-1.5c0-1,.2-2.2.4-3.5l6.8-40.5h-13.2l-1.4,7.1c-2.1-2.9-4.6-4.9-7.5-6.2-2.9-1.3-6.1-1.9-9.6-1.9s-8.3.9-11.7,2.7c-3.5,1.8-6.4,4.2-8.9,7.1-2.4,3-4.3,6.4-5.7,10.2-1.3,3.8-2,7.8-2,11.9s.6,6.6,1.9,9.6c1.3,3,3,5.5,5.1,7.8,2.1,2.2,4.6,4,7.4,5.3,2.8,1.3,5.8,1.9,8.8,1.9s4.8-.6,7.2-1.8c2.4-1.2,4.5-2.8,6.4-4.7-.2,2.4.5,4.2,2.2,5.3,1.6,1.2,3.6,1.7,5.9,1.7s4-.4,6.2-1.1c2.2-.7,4.4-1.7,6.6-2.8,2.2-1.1,4.2-2.4,6.2-3.7s3.6-2.8,5-4.2c3.9-3.9,6.6-8.2,8.3-13,1.6-4.8,2.4-10,2.4-15.5s-1.4-12.1-4.2-17.3c-2.8-5.1-6.6-9.7-11.3-13.7-4.6-4-9.7-6.9-15.2-8.8-5.5-1.9-11.3-2.8-17.4-2.8s-14.3,1.3-20.7,4c-6.4,2.7-12,6.4-16.9,11.1-4.8,4.7-8.6,10.3-11.3,16.6-2.7,6.4-4.1,13.3-4.1,20.8s1.4,14.6,4.2,21ZM261,197.7c-.6,1.9-1.6,3.5-2.8,4.9-1.2,1.4-2.8,2.6-4.5,3.5-1.8.9-3.7,1.3-5.8,1.3-3.4,0-6-1.2-7.8-3.7-1.8-2.4-2.7-5.3-2.7-8.5s.3-3.5,1-5.3c.7-1.8,1.6-3.4,2.8-4.9,1.2-1.4,2.6-2.6,4.3-3.5,1.7-.9,3.5-1.3,5.4-1.3,3.4,0,6.1,1.1,8.1,3.3,2,2.2,3,5,3,8.5s-.3,3.8-1,5.7Z"/>
</svg>