<?xml version="1.0" encoding="utf-8"?>
<!-- Generator: Adobe Illustrator 26.0.3, SVG Export Plug-In . SVG Version: 6.00 Build 0)  -->
<svg version="1.1" id="Layer_1" xmlns="http://www.w3.org/2000/svg" xmlns:xlink="http://www.w3.org/1999/xlink" x="0px" y="0px"
	 viewBox="0 0 500 500" style="enable-background:new 0 0 500 500;" xml:space="preserve">
<style type="text/css">
	.st0{fill:#FFFFFF;}
</style>
<g>
	<path class="st0" d="M270.8,235.6c0-1.6-1.3-3-3-3c-0.6,0-1.1,0.2-1.5,0.4c-4.7,2.9-10.2,4.6-16,4.6c0,0,0,0-0.1,0v0
		c-16.7,0-30.3-13.6-30.3-30.4c0-16.7,13.5-30.3,30.2-30.4c0,0,0.1,0,0.1,0s0,0,0.1,0c16.7,0,30.3,13.6,30.4,30.3v0h0v9.6h0
		c0,2.3-1.5,4.2-3.6,4.7c-0.4,0.1-0.9,0.2-1.3,0.2c-2.7,0-4.9-2.2-4.9-4.9c0-0.4,0-0.7,0.1-1.1v-8.5c0,0,0-0.1,0-0.1v-17.6h-6v3.1
		c-3.7-3.7-8.9-6-14.6-6c0,0,0,0-0.1,0s0,0-0.1,0c-11.3,0.1-20.4,9.3-20.4,20.6c0,11.4,9.2,20.5,20.5,20.6c0,0,0,0,0.1,0
		c6.1,0,11.6-2.7,15.4-6.9c1.3,3.2,4,5.6,7.4,6.4c0.9,0.2,1.8,0.3,2.7,0.3c2,0,3.9-0.5,5.5-1.5c3.2-1.9,5.3-5.4,5.3-9.3v-9.6h0V206
		c-0.7-19.5-16.6-35-36.3-35c0,0,0,0-0.1,0s0,0-0.1,0c-20,0.1-36.1,16.3-36.1,36.3c0,20,16.2,36.2,36.2,36.3c0,0,0,0,0.1,0
		c7,0,13.6-2,19.1-5.4C270.3,237.6,270.8,236.7,270.8,235.6z M250.3,221.8C250.3,221.8,250.3,221.8,250.3,221.8L250.3,221.8
		c-8.1,0-14.6-6.5-14.6-14.5c0-8,6.4-14.5,14.4-14.6c0,0,0,0,0.1,0c0,0,0,0,0.1,0c8,0,14.5,6.5,14.6,14.5
		C264.8,215.3,258.3,221.8,250.3,221.8z"/>
	<path class="st0" d="M404,131.7v-0.2H96.4v0.3c-7,1.5-12.2,7.7-12.2,15.2c0,0.1,0,0.2,0,0.2h0v207.3c0,8.6,6.9,15.5,15.5,15.5
		h301.6c8.6,0,15.5-6.9,15.5-15.5V147C416.8,139.4,411.3,133,404,131.7z M362.5,162.5l-112,112l-112-112H362.5z M385.8,339.1H115.2
		V183l124.2,124.2l0,0c0.1,0.1,0.1,0.1,0.2,0.2c6.1,6.1,15.9,6.1,21.9,0c0.1-0.1,0.1-0.1,0.2-0.2l0,0L385.8,183V339.1z"/>
</g>
</svg>
