<?xml version="1.0" encoding="UTF-8"?>
<svg id="Camada_1" data-name="Camada 1" xmlns="http://www.w3.org/2000/svg" version="1.1" viewBox="0 0 500 500">
  <defs>
    <style>
      .cls-1 {
        fill: #0866ff;
        stroke-width: 0px;
      }
    </style>
  </defs>
  <path class="cls-1" d="M337.9,95.3c0-2.3-.6-3.1-3-3.5-10.2-1.3-20.4-2.4-30.6-3.3-13.6-1.1-26.9-.5-40,3.5-16.9,5.2-29.9,15.7-38.4,31.1-7,12.6-9.5,26.6-9.7,40.9-.3,14.6-.2,29.2,0,43.8,0,3.3-.6,4.5-4.3,4.5-13-.3-26,0-39,0s-9.5-1.9-9.5,9.5,0,18.9,0,28.3h0c0,5.6,0,11.9-.1,17.5,0,3.1.9,3.7,3.8,3.7,15-.1,29.9,0,44.9-.1,3,0,4,.6,4,3.9,0,47,0,94.1,0,141.1h63v-141.2c0-3,.7-3.8,3.7-3.7,13.5.2,27.1,0,40.6.2,3,0,3.8-1.1,4.2-3.7.8-5.7,1.8-11.9,2.7-17.6h-.1c1.1-7,2.2-14.1,3.3-21.1.6-4.1,1-8.3,1.8-12.4.7-3.2.2-4.4-3.5-4.4-16.4.2-32.9,0-49.3,0-2.4,0-3.5-.3-3.5-3.2.2-12.5,0-24.9,0-37.4.1-5.7,1.3-11.3,4.5-16.2,6.2-9.6,15.7-13,26.6-13.3,8.2-.2,16.4-.1,24.7,0,2.4,0,3.2-.6,3.2-3.1-.1-14.6-.1-29.2,0-43.8Z"/>
</svg>