<?xml version="1.0" encoding="utf-8"?>
<!-- Generator: Adobe Illustrator 22.0.1, SVG Export Plug-In . SVG Version: 6.00 Build 0)  -->
<svg version="1.1" id="Camada_1" xmlns="http://www.w3.org/2000/svg" xmlns:xlink="http://www.w3.org/1999/xlink" x="0px" y="0px"
	 viewBox="0 0 500 500" style="enable-background:new 0 0 500 500;" xml:space="preserve">
<style type="text/css">
	.st0{fill:#D51248;}
	.st1{fill:#FFCC07;}
	.st2{fill:#56B7E0;}
</style>
<g id="Facebook_C">
	<g>
		<path class="st0" d="M335.1,216.6c0.7-3.2,0.2-4.4-3.5-4.4c-16.4,0.2-32.9,0-49.3,0.1c-2.4,0-3.5-0.3-3.5-3.2
			c0.2-12.5,0-24.9,0.1-37.4c0.1-5.7,1.3-11.3,4.5-16.2c6.2-9.6,15.7-13,26.6-13.3c8.2-0.2,16.4-0.1,24.7,0c2.4,0,3.2-0.6,3.2-3.1
			c-0.1-14.6-0.1-29.2,0-43.8c0-2.3-0.6-3.1-3-3.5c-10.2-1.3-20.4-2.4-30.6-3.3c-13.6-1.1-26.9-0.5-40,3.5
			c-16.9,5.2-29.9,15.7-38.4,31.1c-7,12.6-9.5,26.6-9.7,40.9c-0.3,14.6-0.2,29.2,0,43.8c0,3.3-0.6,4.5-4.3,4.5
			c-13-0.3-26-0.1-39-0.1c-10.3,0-9.5-1.9-9.5,9.5c0,9.6,0.1,19.2,0.1,28.8H250v-0.4h80c1.1-7,2.2-14.1,3.3-21.1
			C333.9,224.9,334.3,220.7,335.1,216.6z"/>
		<path class="st1" d="M249.9,416.1c9.7,0,19.3,0,29,0c0-47.1,0-94.2,0-141.2c0-3,0.7-3.8,3.7-3.7c13.5,0.2,27.1,0,40.6,0.2
			c3,0,3.8-1.1,4.2-3.7c0.8-5.7,1.8-11.9,2.7-17.6h-80L249.9,416.1z"/>
		<path class="st2" d="M163.4,250c0,5.6,0,11.9-0.1,17.5c0,3.1,0.9,3.7,3.8,3.7c15-0.1,29.9,0,44.9-0.1c3,0,4,0.6,4,3.9
			c-0.1,47-0.1,94.1-0.1,141.1c11.3,0,22.6,0,33.9,0L250,250H163.4z"/>
	</g>
</g>
</svg>
