<?xml version="1.0" encoding="utf-8"?>
<!-- Generator: Adobe Illustrator 22.0.1, SVG Export Plug-In . SVG Version: 6.00 Build 0)  -->
<svg version="1.1" id="Camada_1" xmlns="http://www.w3.org/2000/svg" xmlns:xlink="http://www.w3.org/1999/xlink" x="0px" y="0px"
	 viewBox="0 0 500 500" style="enable-background:new 0 0 500 500;" xml:space="preserve">
<style type="text/css">
	.st0{fill:#56B7E0;}
	.st1{fill:#D51248;}
	.st2{fill:#FFCC07;}
</style>
<g id="FBGaming">
	<g>
		<path class="st0" d="M207.7,207.4l42.4,42.3l46-46c-25.9,0-51.8-0.1-77.7-0.2C213.2,203.6,209.7,204.8,207.7,207.4z"/>
		<path class="st0" d="M388.9,96.4c-92.3,0.3-184.7,0.1-277,0.2c-6.9,0-10.8,0.4-12.8,2.5l92.7,92.4c2.5-2.6,7.3-2.8,17-2.8
			c34.2,0,68.3,0,102.5,0l89.1-89.1C398,97.4,394.3,96.3,388.9,96.4z"/>
		<path class="st1" d="M205.5,216.9c0.3,21.3,0.5,42.7-0.1,64c-0.1,5,0.7,8.6,2.6,11.1l42.2-42.2l-42.4-42.3
			C206.1,209.6,205.4,212.7,205.5,216.9z"/>
		<path class="st1" d="M189.2,294.6c-0.2-28.7-0.1-57.4,0-86.1c0-9.5,0.1-14.4,2.5-16.9L99,99.1c-2.1,2.1-2.5,6-2.5,13
			c-0.1,46.2,0,92.3,0,138.5s0.1,92.3-0.1,138.5c0,5.1,0.7,8.9,3.1,11.3l92.5-92.5C189.7,305.7,189.3,301.7,189.2,294.6z"/>
		<path class="st2" d="M250.4,250l-42.3,42.1c2.3,2.7,6.3,3.9,12.2,3.8c26-0.5,52,0.2,78-0.2c10.6-0.2,14.5,4.2,14.4,14.5
			c-0.3,26,0.2,52-0.2,78c-0.2,10.7,3.4,15.7,14.7,15.4c20.6-0.5,41.1-0.5,61.7,0c11.4,0.3,14.9-4.8,14.7-15.4
			c-0.4-27.9-0.1-55.9-0.1-83.8c0-29.1-0.2-58.2,0.1-87.3c0.1-9.1-3.1-13.5-12.8-13.5c-31.5,0.1-63,0.2-94.6,0.1l-46,46L250.4,250z"
			/>
		<path class="st2" d="M109.5,403.5c57.8-0.2,115.6-0.2,173.4,0c10.3,0,13.5-4.7,13.4-14.3c-0.3-21.3-0.5-42.7,0.1-64
			c0.3-11.4-4.4-14.9-15.2-14.7c-25.2,0.5-50.4,0.2-75.6,0.1c-7,0-11.1-0.5-13.4-2.6l-92.6,92.3
			C101.5,402.5,104.7,403.6,109.5,403.5z"/>
		<path class="st2" d="M387.9,188.7c14.1,0,15.3-1.3,15.4-15.3c0.1-20.6-0.3-41.1,0.2-61.7c0.1-5.6-0.8-9.5-3.3-12l-89.1,89.1
			C336.8,188.7,362.4,188.7,387.9,188.7z"/>
		<path class="st2" d="M250.2,249.8L208,291.9c0.1,0.1,0.1,0.1,0.2,0.2l42.3-42.1L250.2,249.8z"/>
		<path class="st2" d="M192,307.9l-92.5,92.5l0,0l92.6-92.3C192.1,308,192.1,308,192,307.9z"/>
	</g>
</g>
</svg>
