<?xml version="1.0" encoding="utf-8"?>
<!-- Generator: Adobe Illustrator 22.0.1, SVG Export Plug-In . SVG Version: 6.00 Build 0)  -->
<svg version="1.1" id="Camada_1" xmlns="http://www.w3.org/2000/svg" xmlns:xlink="http://www.w3.org/1999/xlink" x="0px" y="0px"
	 viewBox="0 0 500 500" style="enable-background:new 0 0 500 500;" xml:space="preserve">
<style type="text/css">
	.st0{fill:#D51248;}
	.st1{fill:#FFCC07;}
	.st2{fill:#56B7E0;}
</style>
<g id="Instagram_C">
	<g>
		<path class="st0" d="M334.2,386.7c-12.7,1.6-25.6,2.1-38.4,2.1c-34.5,0.1-69,0.4-103.5-0.1c-13.5-0.2-27.2-0.7-40.3-5.8
			c-21.2-8.2-33.2-23.8-37.5-45.6c-3-14.8-2.9-29.8-3-44.8c-0.1-15.2,0-30.3,0-45.5c0.1,0,0.1,0,0.2,0c0-19.2-0.2-38.3,0.1-57.5
			c0.1-8.8,0.7-17.6,2.3-26.3c2.4-13.4,7.7-24.3,15.7-32.7l-22.3-22.3C95.1,121,86.8,137.9,83,158.4c-3,16-3,32.2-3.1,48.3
			c-0.3,42-1.8,84,1.7,125.9c1.2,14.8,5.3,29.1,12.9,41.7c14.4,23.8,35.8,37.8,63.3,42.7c20.3,3.6,40.8,3,61.2,3.6
			c26.5,0.9,53,0.6,79.5,0.1c14.1-0.3,28.3-0.6,42.3-2.8c20.8-3.4,38.3-11.5,51.9-24.9L370,370.3
			C360.8,379.1,348.7,384.8,334.2,386.7z"/>
		<path class="st0" d="M253.1,337.9c23.1-0.6,44.1-9.8,59.6-24.8l-22.9-22.9c-10.2,9.8-24,15.8-39.1,15.8
			c-30.6-0.1-56.2-25.6-56.1-56.1c0-15.2,5.9-28.8,15.5-39l-22.7-22.7C172,204,162.5,225.7,162.5,250
			C162.6,298,201.3,339.3,253.1,337.9z"/>
		<path class="st1" d="M315,79.1c-20.5-0.6-41-0.1-61.5-0.1v-0.1c-19.2,0-38.3-0.2-57.5,0.1c-12.3,0.2-24.7,0.6-36.8,2.9
			c-21.4,4-38.7,12.9-51.6,26.1l22.3,22.3c9.5-9.8,22.6-16,38.9-18.2c10.4-1.4,20.9-1.7,31.4-1.8c32.2-0.4,64.3-0.5,96.5,0
			c12.8,0.2,25.7,0.1,38.4,2.2c14.9,2.4,27,8.3,36,17.2l22.4-22.4c-6.2-6.1-13.4-11.4-21.8-15.9C353.9,81.9,334.5,79.6,315,79.1z"/>
		<path class="st1" d="M252,193.1c14.8,0.1,28.6,6.6,38.7,16.8l22.8-22.8c-16-16-38.2-25.6-62.3-25.4c-24.5-0.6-47.3,9.5-63.6,26.3
			l22.7,22.7C220.7,199.7,235.5,193,252,193.1z"/>
		<path class="st1" d="M341.8,137.8c-11.9,0-21.2,9.4-21.1,21.3c0,5.7,2.5,10.9,6.3,14.6l29.9-29.9C353.3,140,348,137.8,341.8,137.8
			z"/>
		<path class="st1" d="M129.9,130.3L107.6,108c-0.1,0.1-0.2,0.2-0.2,0.3l22.3,22.3C129.7,130.4,129.8,130.3,129.9,130.3z"/>
		<path class="st1" d="M210.2,210.6L187.6,188c-0.1,0.1-0.2,0.2-0.2,0.3l22.7,22.7C210.1,210.8,210.2,210.7,210.2,210.6z"/>
		<path class="st2" d="M388.2,168.6c2,17.2,2,34.6,2.1,51.9c0.1,22.3,0.7,44.7-0.2,67c-0.6,15.6,0.1,31.2-2.4,46.8
			c-2.4,14.7-8.5,27-17.8,36l22.7,22.7c7.3-7.2,13.5-16,18.4-26.4c7.5-15.8,9.9-32.9,10.3-50.1c1-40.5,0.4-81,0.3-121.4
			c0-14.2-0.9-28.3-4-42.2c-4-18.3-12-33.5-24.2-45.6L371,129.7C380.5,139.2,386.3,152.3,388.2,168.6z"/>
		<path class="st2" d="M307.3,249.2c-0.1,16.1-6.8,30.6-17.5,40.9l22.9,22.9c16.1-15.7,26.2-37.6,26.4-62.8
			c0.2-25.2-9.7-47.3-25.5-63.1l-22.8,22.8C300.9,220.2,307.3,234.2,307.3,249.2z"/>
		<path class="st2" d="M362.6,159c0-6.2-2.1-11.5-5.7-15.3L327,173.6c3.7,3.6,8.6,5.9,13.9,5.9C353.2,179.6,362.5,170.8,362.6,159z"
			/>
	</g>
</g>
</svg>
