<?xml version="1.0" encoding="UTF-8"?>
<svg id="Camada_1" data-name="Camada 1" xmlns="http://www.w3.org/2000/svg" version="1.1" viewBox="0 0 500 500">
  <defs>
    <style>
      .cls-1 {
        fill: #d51248;
        stroke-width: 0px;
      }
    </style>
  </defs>
  <g id="Instagram_C" data-name="Instagram C">
    <g>
      <path class="cls-1" d="M250.7,306c-30.6-.1-56.2-25.6-56.1-56.1,0-15.2,5.9-28.8,15.5-38.9h0c0-.2,0-.3,0-.4h0c10.4-10.9,25.2-17.6,41.7-17.5,14.8.1,28.6,6.6,38.7,16.8l22.8-22.8c-16-16-38.2-25.6-62.3-25.4-24.5-.6-47.3,9.5-63.6,26.3,0,0-.1.2-.2.2h0c-15.4,15.8-24.9,37.5-24.9,61.8.1,48,38.8,89.3,90.6,87.9,23.1-.6,44.1-9.8,59.6-24.8l-22.9-22.9c-10.2,9.8-24,15.8-39.1,15.8Z"/>
      <path class="cls-1" d="M421.6,195.1c0-14.2-.9-28.3-4-42.2-4-18.3-12-33.5-24.2-45.5h0c-6.2-6.2-13.4-11.5-21.8-16-17.8-9.5-37.2-11.8-56.7-12.3-20.5-.6-41,0-61.5,0h0c-19.2,0-38.3-.3-57.5,0-12.3.2-24.7.6-36.8,2.9-21.4,4-38.7,12.9-51.6,26.1,0,0-.2.2-.2.3h0c-12.3,12.8-20.6,29.7-24.4,50.1-3,16-3,32.2-3.1,48.3-.3,42-1.8,84,1.7,125.9,1.2,14.8,5.3,29.1,12.9,41.7,14.4,23.8,35.8,37.8,63.3,42.7,20.3,3.6,40.8,3,61.2,3.6,26.5.9,53,.6,79.5,0,14.1-.3,28.3-.6,42.3-2.8,20.8-3.4,38.3-11.5,51.9-24.9h0c7.3-7.2,13.5-16,18.4-26.4,7.5-15.8,9.9-32.9,10.3-50.1,1-40.5.4-81,.3-121.4ZM390.1,287.5c-.6,15.6,0,31.2-2.4,46.8-2.4,14.7-8.5,27-17.8,36h0c-9.2,8.8-21.3,14.5-35.7,16.4-12.7,1.6-25.6,2.1-38.4,2.1-34.5.1-69,.4-103.5,0-13.5-.2-27.2-.7-40.3-5.8-21.2-8.2-33.2-23.8-37.5-45.6-3-14.8-2.9-29.8-3-44.8,0-15.2,0-30.3,0-45.5h.2c0-19.2-.2-38.3,0-57.5.1-8.8.7-17.6,2.3-26.3,2.4-13.4,7.7-24.3,15.7-32.7h0c0-.1,0-.2.2-.2,9.5-9.8,22.6-16,38.9-18.2,10.4-1.4,20.9-1.7,31.4-1.8,32.2-.4,64.3-.5,96.5,0,12.8.2,25.7.1,38.4,2.2,14.9,2.4,27,8.3,35.9,17.2h0c9.5,9.5,15.3,22.6,17.2,38.9,2,17.2,2,34.6,2.1,51.9,0,22.3.7,44.7-.2,67Z"/>
      <path class="cls-1" d="M290.8,209.9c10.1,10.3,16.5,24.3,16.5,39.3,0,16.1-6.8,30.6-17.5,40.9l22.9,22.9c16.1-15.7,26.2-37.6,26.4-62.8.2-25.2-9.7-47.3-25.5-63.1l-22.8,22.8Z"/>
      <path class="cls-1" d="M356.8,143.8c-3.6-3.8-8.9-6-15-6-11.9,0-21.2,9.4-21.1,21.3,0,5.7,2.5,10.9,6.3,14.6h0c3.7,3.5,8.6,5.8,13.8,5.8,12.3,0,21.6-8.7,21.7-20.5,0-6.2-2.1-11.5-5.7-15.3h0Z"/>
    </g>
  </g>
</svg>