<?xml version="1.0" encoding="UTF-8"?>
<svg id="Layer_1" data-name="Layer 1" xmlns="http://www.w3.org/2000/svg" version="1.1" viewBox="0 0 500 500">
  <defs>
    <style>
      .cls-1 {
        fill: #fff;
        stroke-width: 0px;
      }
    </style>
  </defs>
  <path class="cls-1" d="M378.7,121.4c-46.2-8.1-217-18.6-258.7,17.4-23.2,20-32.9,98.7-10.7,158.5,22,59.3,70.4,92,136,92s94.2-29.3,111.4-53.8c11.1-15.7,17-31.5,20-41.9,8.1-1.3,19.2-3.9,30.4-9.6,20.3-10.1,44.5-31.6,44.5-76.1s-37.7-80.3-72.9-86.5ZM364.1,264h-13.1c0,.1-2,13.1-2,13.1-.5,3.3-13.8,81.5-103.8,81.5s-89-23.9-106.9-71.1c-21-55.3-7.5-117.3,1.6-125.4,8.9-7.7,41.1-16.4,104.7-17.8,6.1-.1,12.2-.2,18.2-.2,46.1,0,88.5,3.7,110.4,7.6h0c14.3,2.5,47.5,13,47.5,56.2s-50.9,56-56.6,56.1Z"/>
  <path class="cls-1" d="M277.4,179.9c-27.6,0-35.3,19.5-35.3,19.5,0,0-8.6-19.5-35.7-19.5s-41.2,20.4-41.2,45.2c0,48.7,54.5,77.9,71.7,86,3.3,1.5,7.1,1.5,10.3,0,17.4-7.9,72.6-36.9,72.6-84.2s-9-47-42.5-47Z"/>
  <path class="cls-1" d="M360.8,175.8c-4.7-.4-8.7,3.4-8.7,8.2v44.8c0,4.7,4,8.5,8.7,8.2,11.8-.9,31.6-6,31.6-30.6s-19.7-29.7-31.6-30.6Z"/>
</svg>