<?xml version="1.0" encoding="utf-8"?>
<!-- Generator: Adobe Illustrator 26.0.3, SVG Export Plug-In . SVG Version: 6.00 Build 0)  -->
<svg version="1.1" id="Layer_1" xmlns="http://www.w3.org/2000/svg" xmlns:xlink="http://www.w3.org/1999/xlink" x="0px" y="0px"
	 viewBox="0 0 500 500" style="enable-background:new 0 0 500 500;" xml:space="preserve">
<style type="text/css">
	.st0{fill:#D51248;}
	.st1{fill:#FFCC07;}
	.st2{fill:#56B7E0;}
</style>
<g>
	<path class="st0" d="M307.1,337.1v-30.5l-42.4-42.4c-0.8,3.7-1.1,7.8-1.1,12.3v60.6h-38.1V225l-33.8-33.8c-0.9,0.5-1.9,1.1-2.9,1.5
		c-3,1.3-6.2,1.9-9.5,1.9s-6.5-0.7-9.5-1.9c-3-1.3-5.7-3.1-8-5.4c-2.3-2.3-4.1-5.1-5.3-8.1c-1.2-3-1.8-6.3-1.7-9.5
		c0.1-4.2,1.3-8.3,3.4-11.9l-57.1-57.1c0,0,0,0,0,0c0,0,0,0,0,0C90.8,111,84.5,125.2,84.5,141v217.2c0,15.7,6.4,30,16.7,40.3
		c0,0,0,0,0,0c10.3,10.3,24.5,16.7,40.3,16.7h217.2c15.7,0,30-6.4,40.3-16.7l-61.3-61.3H307.1z M198.3,335.4h-38.1v0V210.4h38.1
		V335.4z"/>
	<path class="st1" d="M162.2,152.6c4.6-4.5,10.7-7,17.1-7c6.4,0,12.5,2.5,17.1,7c4.6,4.5,7.2,10.6,7.4,17c0.1,3.3-0.5,6.5-1.7,9.5
		c-1.2,3-3,5.8-5.3,8.1c-1.5,1.6-3.2,2.9-5.1,4l33.8,33.8v-13h35.3v17.8c4.1-8.3,13.5-15.9,27.3-18.4l110.7-110.7
		C388.5,90.4,374.3,84,358.6,84H141.4c-15.7,0-29.9,6.4-40.3,16.7l57.1,57.1C159.3,155.9,160.6,154.1,162.2,152.6z"/>
	<path class="st2" d="M415.5,141c0-15.7-6.4-30-16.7-40.3c0,0,0,0,0,0L288.2,211.3c3.2-0.6,6.7-0.9,10.5-0.9
		c37.6,0,46.5,20.3,46.5,57.6v69.1h-7.6l61.3,61.3c10.3-10.3,16.7-24.5,16.7-40.3V141z"/>
	<path class="st2" d="M289.1,243.3c-14,0-21.7,7.9-24.3,21l42.4,42.4v-30.1C307.1,255.2,302,243.3,289.1,243.3z"/>
</g>
</svg>
