<?xml version="1.0" encoding="UTF-8"?>
<svg id="Layer_1" data-name="Layer 1" xmlns="http://www.w3.org/2000/svg" version="1.1" viewBox="0 0 500 500">
  <defs>
    <style>
      .cls-1 {
        fill: #0a66c2;
        stroke-width: 0px;
      }
    </style>
  </defs>
  <path class="cls-1" d="M415.6,358.1v-217.1h-.1c0-15.7-6.4-30-16.7-40.3-10.3-10.3-24.5-16.7-40.2-16.7h-217.2c-15.7,0-29.9,6.4-40.3,16.7-10.3,10.3-16.6,24.5-16.6,40.3v217.2c0,15.7,6.4,30,16.7,40.3s24.5,16.7,40.3,16.7h217.2c15.7,0,30-6.4,40.3-16.7h-.1c0-.1,0-.1,0-.1,10.3-10.3,16.7-24.5,16.7-40.3ZM198.3,335.4h-38.1v-125h38.1v125ZM202.1,179.1c-1.2,3-3,5.8-5.3,8.1-1.5,1.6-3.2,2.9-5.1,4-.9.5-1.9,1.1-2.9,1.5-3,1.3-6.2,1.9-9.5,1.9s-6.5-.7-9.5-1.9c-3-1.3-5.7-3.1-8-5.4-2.3-2.3-4.1-5.1-5.3-8.1s-1.8-6.3-1.7-9.5c.1-4.2,1.3-8.3,3.4-11.9,1.1-1.9,2.4-3.7,4-5.2,4.6-4.5,10.7-7,17.1-7s12.5,2.5,17.1,7c4.6,4.5,7.2,10.6,7.4,17,.1,3.3-.5,6.5-1.7,9.5ZM345.2,337.1h-38.1v-30.4c0,0,0-30.1,0-30.1,0-21.4-5.2-33.3-18.1-33.3s-21.8,7.8-24.4,20.9c-.8,3.7-1.1,7.8-1.1,12.3v60.6h-38.1v-125.1h35.3v17.8c4.1-8.3,13.5-15.9,27.3-18.4h.1c3.2-.7,6.7-1,10.5-1,37.6,0,46.5,20.3,46.5,57.6v69.1Z"/>
</svg>