<?xml version="1.0" encoding="utf-8"?>
<!-- Generator: Adobe Illustrator 26.0.3, SVG Export Plug-In . SVG Version: 6.00 Build 0)  -->
<svg version="1.1" id="Layer_1" xmlns="http://www.w3.org/2000/svg" xmlns:xlink="http://www.w3.org/1999/xlink" x="0px" y="0px"
	 viewBox="0 0 500 500" style="enable-background:new 0 0 500 500;" xml:space="preserve">
<style type="text/css">
	.st0{fill:#FFFFFF;}
</style>
<path class="st0" d="M415.6,141h-0.1c0-15.7-6.4-30-16.7-40.3C388.5,90.4,374.3,84,358.6,84H141.4c-15.7,0-29.9,6.4-40.3,16.7
	C90.8,111,84.5,125.2,84.5,141v217.2c0,15.7,6.4,30,16.7,40.3s24.5,16.7,40.3,16.7h217.2c15.7,0,30-6.4,40.3-16.7l-0.1-0.1
	c10.3-10.3,16.7-24.5,16.7-40.3V141z M198.3,335.4L198.3,335.4h-38.1v-125h38.1V335.4z M202.1,179.1c-1.2,3-3,5.8-5.3,8.1
	c-1.5,1.6-3.2,2.9-5.1,4c-0.9,0.5-1.9,1.1-2.9,1.5c-3,1.3-6.2,1.9-9.5,1.9c-3.3,0-6.5-0.7-9.5-1.9c-3-1.3-5.7-3.1-8-5.4
	c-2.3-2.3-4.1-5.1-5.3-8.1s-1.8-6.3-1.7-9.5c0.1-4.2,1.3-8.3,3.4-11.9c1.1-1.9,2.4-3.7,4-5.2c4.6-4.5,10.7-7,17.1-7
	c6.4,0,12.5,2.5,17.1,7c4.6,4.5,7.2,10.6,7.4,17C203.9,172.9,203.3,176.1,202.1,179.1z M345.2,337.1h-7.6l0.1,0.1h-30.6v-0.1v-29.9
	l0-30.7c-0.1-21.4-5.2-33.3-18.1-33.3c-14,0-21.7,7.9-24.3,21c-0.8,3.7-1.1,7.8-1.1,12.3v60.6h-38.1V225v-13h35.3v17.8
	c4.1-8.3,13.5-15.9,27.3-18.4l0.1-0.1c3.2-0.6,6.7-0.9,10.5-0.9c37.6,0,46.5,20.3,46.5,57.6V337.1z"/>
</svg>
