<?xml version="1.0" encoding="UTF-8"?>
<svg id="Layer_1" data-name="Layer 1" xmlns="http://www.w3.org/2000/svg" version="1.1" viewBox="0 0 500 500">
  <defs>
    <style>
      .cls-1 {
        fill: #b7b7b7;
      }

      .cls-1, .cls-2 {
        opacity: .9;
      }

      .cls-1, .cls-2, .cls-3 {
        stroke-width: 0px;
      }

      .cls-2 {
        fill: #fff;
      }

      .cls-3 {
        fill: #848484;
      }
    </style>
  </defs>
  <path class="cls-2" d="M335.1,154.3c0,2.4,0,4.8-.4,7-12.2,85.1-88.9,88.2-88.9,88.2h-52.8c-3.5,0-6.5,2.3-7.4,5.6l-23,151.1c-.7,4.7,2.9,8.9,7.7,8.9h50.8c3.9,0,7.1-2.8,7.7-6.6l12.5-85.8c.6-3.8,3.8-6.6,7.7-6.6h52.8s76.7-3.1,88.9-88.2c3.6-25.4-16.8-61.8-55.5-73.5Z"/>
  <path class="cls-1" d="M208.2,150.4h100.4c9.6,0,18.4,1.4,26.5,3.9-.7-30.3-30.8-70.4-82.4-70.4h-100.4c-3.8,0-7.1,2.8-7.7,6.6l-37.8,249.2c-.7,4.7,2.9,8.9,7.7,8.9h50.8c3.9,0,6.7-2.8,7.2-6.6l12.9-85.8c0-.4.2-.7.3-1.1l14.9-98.1c.6-3.8,3.8-6.6,7.7-6.6Z"/>
  <path class="cls-3" d="M193.1,249.5h52.8s76.7-3.1,88.9-88.2c.3-2.3.4-4.6.4-7-8.1-2.5-16.9-3.9-26.5-3.9h-100.4c-3.8,0-7.1,2.8-7.7,6.6l-14.9,98.1c1-3.3,3.9-5.6,7.4-5.6Z"/>
</svg>