<?xml version="1.0" encoding="UTF-8"?>
<svg id="Camada_1" data-name="Camada 1" xmlns="http://www.w3.org/2000/svg" version="1.1" viewBox="0 0 500 500">
  <defs>
    <style>
      .cls-1 {
        fill: #32a9e1;
        stroke-width: 0px;
      }
    </style>
  </defs>
  <path class="cls-1" d="M422.3,107c-.4-.3-.7-.6-1.1-.9h0c0-.2-.2-.2-.3-.3-3.9-2.8-8-2.1-12.6-.4-107.8,40.2-215.6,80.3-323.4,120.5-7,2.6-9.9,6.3-9.7,12.1.3,5.6,3.2,8.9,10.1,11,24.3,7.6,48.6,15.2,72.9,22.6,3.8,1.2,5.8,3,7.1,7,.2.5.4,1.2.7,2.1,2.3,7.1,4.7,14.2,7.1,21.3,8.1,24.3,19.5,58.9,21.2,64.6,3.7,12.6,16,16.4,25.5,6.7,12.5-12.8,26-24.6,38.9-37,2.8-2.7,4.5-2.7,7.6-.4,25.1,18.6,50.4,37,75.6,55.5,3.6,2.7,7.4,4.4,11.5,4.6,9.5,0,14.8-5,17-15.4.9-4.3,1.9-8.7,2.8-13.1h0c17.2-82.3,34.5-164.7,51.8-247,1.1-5.1,1.4-9.6-2.8-13.5ZM360.4,161.5c-16.3,14.9-32.6,29.7-48.9,44.5-31.8,28.7-63.6,57.5-95.4,86.1-2.6,2.3-3.8,4.8-4,8.3-.4,5.4-1,10.9-1.5,16.3h-.1c-.9,9.2-1.8,18.2-2.7,27.3-.3,0-.6,0-.9,0-1-3.2-6.9-22.3-12.5-40.5-3.4-11.5-6.9-22.9-10.5-34.4-1.2-3.8,1.5-4.7,3.7-6.1,21.3-13.6,42.6-27.3,64-40.8,33.8-21.5,67.7-43,101.5-64.5,1.1-.7,2.2-1.3,3.2-2,2.2-1.4,4.5-2.2,6.2.3s-.6,3.9-2.1,5.4Z"/>
</svg>