<?xml version="1.0" encoding="utf-8"?>
<!-- Generator: Adobe Illustrator 26.0.3, SVG Export Plug-In . SVG Version: 6.00 Build 0)  -->
<svg version="1.1" xmlns="http://www.w3.org/2000/svg" xmlns:xlink="http://www.w3.org/1999/xlink" x="0px" y="0px"
	 viewBox="0 0 500 500" style="enable-background:new 0 0 500 500;" xml:space="preserve">
<style type="text/css">
	.st0{fill:#FFFFFF;}
	.st1{display:none;}
</style>
<g id="Threads">
	<path class="st0" d="M214.9,207.4l-27.2-18.5c0,0,20.2-33.5,65.3-33.5s78.5,23.7,78.5,90s-29,99.1-76.8,99.1s-70.1-29.3-70.1-61.1
		s24.4-60,83.8-60s121.1,25.5,121.1,98.4s-72.9,106.8-134.7,106.8S96.6,395.5,96.6,251S187.3,72.3,254.3,72.3
		s131.9,33.5,150.1,112.4c-7,2.4-30.7,8-30.7,8s-12-89-123.2-89S128.7,205.3,128.7,252.1s16.7,144.5,124.6,144.5
		s105.4-74.7,105.4-78.5s3.5-62.8-94.2-62.8c-64.2,0-60.7,56.5-10.5,56.5c37.7,0,46.4-28.3,46.4-65.3s-12.9-59.7-46.1-59.7
		S214.9,207.4,214.9,207.4z"/>
</g>
<g id="Camada_3" class="st1">
</g>
</svg>
