<?xml version="1.0" encoding="UTF-8"?>
<svg id="Camada_1" data-name="Camada 1" xmlns="http://www.w3.org/2000/svg" version="1.1" viewBox="0 0 500 500">
  <defs>
    <style>
      .cls-1 {
        fill: #c6c6c6;
      }

      .cls-1, .cls-2 {
        stroke-width: 0px;
      }

      .cls-2 {
        fill: #fff;
      }
    </style>
  </defs>
  <path class="cls-1" d="M341.6,178.2c9.9-7.3,16.9-15,20.3-26.2-8.5,4.1-16.4,7.8-24.8,10-3.5.9-6.1.7-9-1.9-12.3-10.8-27-14.1-42.8-11-24.4,4.8-40.1,26.6-37.9,52.4.5,5.8-1.2,6.4-6.1,5.9-13.4-1.5-26-4.6-38-9.5h-.1c-12-4.9-23.2-11.5-33.8-19.7-8-6.2-15-13.4-22.2-21.6-11.2,25.4-7,46.6,13.7,64.6-7.7.9-13.5-2.9-20.6-4.8,1.9,24.5,14.2,40.3,37.8,47.8-7,2.8-13.5,1.4-20.4,1.5,7.6,18.4,20.3,29.2,39.6,32.7h0c1.8.4,3.7.7,5.6.9-5.5,4.2-11.1,7.7-16.9,10.5h-.1c-16.2,8.1-33.6,11-52.5,10.1,1.2,1.2,1.4,1.5,1.7,1.7.8.6,1.6,1.1,2.5,1.6,8.1,4.3,16.2,7.8,24.3,10.7h0c35.4,12.2,71.4,10.4,106.8-7.4,14.5-7.3,26.8-16.1,36.9-26.4h0c23.6-23.7,36-55.4,38.7-92.3.6-8.5,2.1-14.6,9.3-19.7,5.5-3.9,10.1-9.3,14.3-16.9-9.1,3.4-16.7,5.7-26.3,6.7Z"/>
  <path class="cls-2" d="M279.6,226.9l114.2-132.6h-26.4l-99.5,115.6-78.6-114.9v-.7h-91l119.1,174.1-119.1,138.3h26.4l104.4-121.2,82.9,121.2h90.5l-123-179.8ZM323,386.2L136.1,114.8h41.8l186.9,271.3h-41.8Z"/>
</svg>