<?xml version="1.0" encoding="utf-8"?>
<!-- Generator: Adobe Illustrator 22.0.1, SVG Export Plug-In . SVG Version: 6.00 Build 0)  -->
<svg version="1.1" id="Camada_1" xmlns="http://www.w3.org/2000/svg" xmlns:xlink="http://www.w3.org/1999/xlink" x="0px" y="0px"
	 viewBox="0 0 500 500" style="enable-background:new 0 0 500 500;" xml:space="preserve">
<style type="text/css">
	.st0{fill:#56B7E0;}
	.st1{fill:#D51248;}
	.st2{fill:#FFCC07;}
</style>
<g id="Camada_2_1_">
	<g>
		<path class="st0" d="M261.4,98.1c41.4,0,82.7,0,124.1,0c5.7,0,5.7,0,5.7,5.8c0,54.4,0,108.9,0.1,163.3c0,3.1-0.9,5.5-3,7.7
			c-18.4,19.6-36.7,39.3-54.9,59c-2,2.1-4,3-6.9,3c-0.2,0-0.4,0-0.6,0l21.2,21.2C368,335.7,389,313.3,410,291
			c2.2-2.4,3.1-4.8,3.1-8.1C413,216,413,149.1,413,82.2c0-5.9,0-5.9-6-5.9c-48.6,0-97.3,0-145.9,0c-7.4,0-14.8,0-22.2,0V98
			C246.4,98.1,253.9,98.1,261.4,98.1z"/>
		<path class="st0" d="M239.6,206.4c0,13.3,0,26.6,0,39.9c0,2.5,0.6,3.8,3.4,3.7c5-0.2,9.9-0.1,14.9,0c2.4,0.1,3.4-0.7,3.4-3.3
			c-0.1-26.7-0.1-53.5,0-80.2c0-2.5-1-3.5-3.4-3.4c-4.7,0.1-9.4,0.1-14.2,0c-3.1-0.1-4.2,1-4.2,4.2
			C239.7,180.3,239.6,193.4,239.6,206.4z"/>
		<path class="st0" d="M309.2,250.1c4.2-0.3,8.5-0.2,12.7,0c3.3,0.2,4.4-1,4.4-4.3c-0.1-13.1-0.1-26.1-0.1-39.2c0-1,0-1.9,0-2.9
			c0-12.2,0-24.4,0-36.7c0-2.1-0.2-3.9-3-3.9c-5.2,0.1-10.4,0-15.6,0c-1.9,0-2.9,0.9-2.9,2.9c0,2.2,0,4.4,0,6.5
			c0,24.3,0.1,48.6-0.1,73C304.6,248.9,305.6,250.3,309.2,250.1z"/>
		<path class="st1" d="M114.4,76.3c-3.4,0-5.1,1-6.2,4.4c-3.1,9.7-6.3,19.4-9.5,29.1l32.8,32.8c0-12.9,0-25.9,0-38.8
			c0-5.6,0-5.6,5.5-5.6c34,0,68,0,102,0V76.4C197.4,76.4,155.9,76.4,114.4,76.3z"/>
		<path class="st2" d="M258.6,336.8c-3.3,0-6,0.8-8.7,2.8c-12.9,9.6-25.9,19-39,28.5c-0.9,0.7-1.8,2.1-3.1,1.4
			c-1.3-0.6-0.7-2.2-0.7-3.3c0-7.7,0-15.5,0-23.2c0-6,0-6.1-5.9-6.1c-21.4,0-42.8,0-64.2,0c-5.5,0-5.5,0-5.5-5.6
			c0-62.8,0-125.7,0-188.5l-32.8-32.9c-3.1,9.4-6.3,18.9-9.5,28.3c-0.7,2.2-1.2,4.4-1.2,6.7c0,76.7,0,153.4,0,230.1
			c0,5.2,0,5.2,5.3,5.2c25.3,0,50.6,0,75.9,0c5.5,0,5.5,0,5.5,5.4c0,11,0,22,0,33c0,4.9,0.1,5,4.8,5c11.6,0,23.2-0.1,34.8,0.1
			c2.6,0,4.5-0.8,6.4-2.7c12.2-12.3,24.5-24.5,36.6-36.8c2.7-2.8,5.5-4.1,9.5-4c18.4,0.2,36.8,0,55.2,0.1c3,0,5.2-0.9,7.3-3.1
			c5.9-6.3,11.8-12.7,17.8-19L325.9,337C303.4,336.9,281,336.9,258.6,336.8z"/>
		<path class="st2" d="M131.4,142.5l-32.8-32.8v0.1l32.8,32.9C131.4,142.7,131.4,142.6,131.4,142.5z"/>
	</g>
</g>
</svg>
