<?xml version="1.0" encoding="UTF-8"?>
<svg id="Camada_1" data-name="Camada 1" xmlns="http://www.w3.org/2000/svg" version="1.1" viewBox="0 0 500 500">
  <defs>
    <style>
      .cls-1 {
        fill: #d31313;
      }

      .cls-1, .cls-2, .cls-3 {
        stroke-width: 0px;
      }

      .cls-2 {
        fill: #1e73ba;
      }

      .cls-3 {
        fill: #fff;
      }
    </style>
  </defs>
  <path class="cls-1" d="M87.4,153.2c-15.3,1.4-29.7,2.7-44.1,4-3.5.3-7.1.7-10.6.4-2.9-.3-6-1.1-8.6-2.5-4.1-2.1-6-7.3-4.8-11,1.2-3.6,4.9-5.8,9.9-5.3,2.7.3,5.5,1,8,2.1,17.9,7.1,36.5,7,55.1,4.7,11.7-1.4,20.5-11.9,21-23.7.5-13,5.2-24.2,14.2-33.5,2.2-2.3,3-4.7,1.8-7.6-2.1-5.2-4.2-10.3-6.5-15.4-4.2-9.3-6.5-19-5.7-29.2.2-2.4.9-5.1,2.2-7.1,2.4-3.5,6.8-3,8.5.9,1,2.4,1.3,5.1,2,7.7,1.6,6,2.9,12.1,4.9,17.9,3.9,11.4,13.7,18.3,25.7,18.5,7.8.2,15.3,1.7,22.5,5,5.2,2.4,9.7.5,11.2-5.2,1.5-5.8,2.4-11.7,3.5-17.5.2-1.2.5-2.5.8-3.7.9-3,2.2-5.9,5.9-6.1,3.7-.2,6.2,1.9,7.8,5,2.2,4.3,1.8,8.7-.4,12.8-1.7,3.2-3.9,6.2-6,9.2-1.8,2.7-3.9,5.3-5.6,8.1-2,3.5-1.8,7.1.3,10.5,4.5,7.4,16.6,12.6,25.3,10.9,10-2,17.6-9.6,18.9-19.4.5-3.9.2-7.8.1-11.8-.2-7.8,1.4-15.1,4.8-22.1,2.5-4.9,6.6-5.7,10.7-2,4.1,3.7,5,8.7,3.9,13.7-1.3,6.2-3.1,12.3-5.4,18.1-2,5.2-5,9.9-7.6,14.9-2.4,4.5-1.1,6.6,4,7.6,4,.7,7.9,1.8,11.6,3.3,11.6,4.7,23.1,4.7,34.3-.8,12.5-6.1,24.8-12.7,37.3-19,3.1-1.6,6.6-2.7,10-3.6,3.2-.8,6.2.2,7.8,3.2,1.7,3.2.1,6.1-2.4,7.6-3.7,2.2-7.9,3.9-12,5.3-12.7,4-25.5,7.5-38.1,11.7-12.2,4-18.7,12.6-19.4,25.8-.5,8.7-4.3,16.5-9.9,23.1-4.8,5.7-3.9,12.8,5.2,14.6,6.2,1.3,12.8.6,19.3.7,3,0,6.1-.2,9.1.3,4.8.8,7.8,4.2,7.7,8.1,0,3.8-3.8,7.7-8.5,7.8-3.7,0-7.4-1.1-11.1-1.9-4.8-1.1-9.5-2.9-14.4-3.4-12.1-1.4-19.5,8.1-15.7,19.6,3.9,11.6,4.3,23.3.9,35.2-2.4,8.4-6.6,15.6-12.9,21.6-10.1,9.7-10.9,22.9-2.3,33.9,2.6,3.3,5.5,6.3,8,9.6,2.7,3.6,4.4,7.7,3.4,12.5-.8,3.7-2.9,6.3-6.7,6.9-4,.6-6.9-1.5-8-5.1-2-6.5-3.6-13.2-5.1-19.8-1.7-7.7-3.2-15.4-4.7-23.1-.8-3.9-2.9-5.8-6.9-7.1-6.3-2-12.6-4.6-18.5-7.6-8.9-4.6-17.8-6.2-27.5-2.8-6.2,2.2-10.1,6.2-11.2,12.6-.8,4.4-1.3,8.8-2.2,13.1-.9,4.4-2.9,8.4-6.9,11-3.7,2.4-8.2,2.1-10.9-.5-2.7-2.6-3-6.4-.3-10.4,2.4-3.7,5.3-7.1,7.8-10.8.7-1,1.3-3,.8-3.6-.7-.9-2.5-1.4-3.8-1.3-7.1.6-14.2.9-21.1,2.3-18.1,3.7-32.2,13.6-42.5,29-3.5,5.3-6.9,10.6-10.9,15.5-2.2,2.7-5.3,4.8-8.3,6.4-1.5.8-4.5.4-5.8-.7-1.3-1.1-2-3.9-1.6-5.7.5-2.3,2-4.7,3.7-6.5,5.1-5.4,10.4-10.7,15.9-15.9,12.9-12.1,21.4-27.3,28.7-43.1,2.2-4.7,1.5-9.6-2.3-13.4-4.1-4.3-9.5-5.4-14.7-3.1-3.8,1.7-7,4.8-10.1,7.7-3,2.9-5.2,6.5-8.1,9.5-3.4,3.5-6.8,3.2-9.7-.4-3.3-4-3.2-8.6.5-11.3,1.2-.9,2.6-1.5,3.9-2.3,11.8-6.9,18.1-17.2,18.3-30.8,0-9.8,3.4-18,10.4-24.8,2.3-2.2,4.7-4.3,6.6-6.8,2-2.5,4-5.3,5.3-8.2,2.3-5.3.2-9.2-5.4-10-8.4-1.3-16.8-2-24.4-2.9Z"/>
  <path class="cls-2" d="M341.6,178.2c9.9-7.3,16.9-15,20.3-26.2-8.5,4.1-16.4,7.8-24.8,10-3.5.9-6.1.7-9-1.9-12.3-10.8-27-14.1-42.8-11-24.4,4.8-40.1,26.6-37.9,52.4.5,5.8-1.2,6.4-6.1,5.9-13.4-1.5-26-4.6-38-9.5h-.1c-12-4.9-23.2-11.5-33.8-19.7-8-6.2-15-13.4-22.2-21.6-11.2,25.4-7,46.6,13.7,64.6-7.7.9-13.5-2.9-20.6-4.8,1.9,24.5,14.2,40.3,37.8,47.8-7,2.8-13.5,1.4-20.4,1.5,7.6,18.4,20.3,29.2,39.6,32.7h0c1.8.4,3.7.7,5.6.9-5.5,4.2-11.1,7.7-16.9,10.5h-.1c-16.2,8.1-33.6,11-52.5,10.1,1.2,1.2,1.4,1.5,1.7,1.7.8.6,1.6,1.1,2.5,1.6,8.1,4.3,16.2,7.8,24.3,10.7h0c35.4,12.2,71.4,10.4,106.8-7.4,14.5-7.3,26.8-16.1,36.9-26.4h0c23.6-23.7,36-55.4,38.7-92.3.6-8.5,2.1-14.6,9.3-19.7,5.5-3.9,10.1-9.3,14.3-16.9-9.1,3.4-16.7,5.7-26.3,6.7Z"/>
  <path class="cls-3" d="M279.6,226.9l114.2-132.6h-26.4l-99.5,115.6-78.6-114.9v-.7h-91l119.1,174.1-119.1,138.3h26.4l104.4-121.2,82.9,121.2h90.5l-123-179.8ZM323,386.2L136.1,114.8h41.8l186.9,271.3h-41.8Z"/>
  <g>
    <path class="cls-1" d="M153.9,390.1l35.5-9.6c4.6-1.2,9-1.9,13.4-2s8.4.6,12,2c3.7,1.4,6.9,3.7,9.6,6.8,2.7,3.1,4.8,7.2,6.2,12.2s1.2,5.8,1.2,8.2c0,2.4-.4,4.6-1.3,6.6-.8,2-2.1,3.8-3.7,5.5-1.7,1.7-3.7,3.3-6.2,5l.2.6c.9.4,1.9.8,3,1.3,1.1.5,2.1,1.2,3.2,2.2l24.6,21.5-33.9,9.1-19.8-22.5h-.5c0,.1,7,26.1,7,26.1l-28.7,7.7-21.8-80.8ZM192.3,418.1l2-.5c1.2-.3,2.4-.7,3.5-1.2s2.1-1,2.9-1.7c.8-.7,1.4-1.6,1.6-2.6.3-1,.2-2.3-.2-3.8s-1-2.7-1.7-3.5c-.7-.8-1.6-1.3-2.6-1.5-1-.3-2.1-.3-3.3-.2-1.2.2-2.4.4-3.7.8l-2.3.6,3.7,13.7Z"/>
    <path class="cls-1" d="M265.6,419.2c1.9-.5,3.9-.7,6-.6,2.1,0,4,.5,5.9,1.3,1.8.8,3.4,1.9,4.8,3.3,1.4,1.4,2.4,3.2,2.9,5.4s.6,4.2.1,6.1-1.3,3.6-2.5,5.1c-1.2,1.5-2.7,2.8-4.5,4s-3.6,2-5.5,2.5-3.9.7-6,.6c-2.1,0-4-.5-5.8-1.2-1.8-.7-3.4-1.8-4.8-3.1s-2.3-3.2-2.9-5.3-.6-4.2-.2-6.1,1.3-3.7,2.5-5.3c1.2-1.6,2.7-2.9,4.4-4.1,1.8-1.1,3.6-1.9,5.5-2.5Z"/>
    <path class="cls-1" d="M279.9,356.2l29.4-7.9,21.8,80.8-29.4,7.9-21.8-80.8Z"/>
    <path class="cls-1" d="M353.4,395.6c1.9-.5,3.9-.7,6-.6,2.1,0,4,.5,5.9,1.3,1.8.8,3.4,1.9,4.8,3.3s2.4,3.2,2.9,5.4.6,4.2.1,6.1c-.5,1.9-1.3,3.6-2.5,5.1-1.2,1.5-2.7,2.8-4.5,4s-3.6,2-5.5,2.5-3.9.7-6,.6c-2.1,0-4-.5-5.8-1.2s-3.4-1.8-4.8-3.1-2.3-3.2-2.9-5.3-.6-4.2-.2-6.1,1.3-3.7,2.5-5.3c1.2-1.6,2.7-2.9,4.4-4.1,1.8-1.1,3.6-1.9,5.5-2.5Z"/>
    <path class="cls-1" d="M367.4,332.6l37.2-10c4.7-1.3,9.2-1.8,13.6-1.7,4.3.1,8.3,1,11.9,2.7,3.6,1.7,6.7,4.2,9.4,7.4,2.6,3.3,4.6,7.4,6,12.4s1.5,8,1.1,11.7c-.4,3.6-1.4,6.9-3,9.8-1.7,2.9-4,5.5-7,7.6-3,2.1-6.5,3.8-10.6,4.9l-15,4,6.6,24.3-28.3,7.6-21.8-80.8ZM405.5,361.1l2.9-.8c1.3-.3,2.6-.8,3.8-1.3s2.3-1.1,3.2-1.9c.9-.8,1.5-1.8,1.9-2.9.4-1.1.4-2.5,0-4.2s-1.1-2.7-2-3.4c-.9-.7-2-1.1-3.1-1.3-1.2-.2-2.4-.1-3.7.1-1.3.2-2.6.5-3.8.8l-2.8.8,3.8,14Z"/>
    <path class="cls-1" d="M461.5,366.5c1.9-.5,3.9-.7,6-.6,2.1,0,4,.5,5.9,1.3,1.8.8,3.4,1.9,4.8,3.3s2.4,3.2,2.9,5.4.6,4.2.1,6.1-1.3,3.6-2.5,5.1c-1.2,1.5-2.7,2.8-4.5,4s-3.6,2-5.5,2.5-3.9.7-6,.6c-2.1,0-4-.5-5.8-1.2s-3.4-1.8-4.8-3.1c-1.4-1.4-2.3-3.2-2.9-5.3s-.6-4.2-.2-6.1,1.3-3.7,2.5-5.3c1.2-1.6,2.7-2.9,4.4-4.1,1.8-1.1,3.6-1.9,5.5-2.5Z"/>
  </g>
</svg>