<?xml version="1.0" encoding="utf-8"?>
<!-- Generator: Adobe Illustrator 22.0.1, SVG Export Plug-In . SVG Version: 6.00 Build 0)  -->
<svg version="1.1" xmlns="http://www.w3.org/2000/svg" xmlns:xlink="http://www.w3.org/1999/xlink" x="0px" y="0px"
	 viewBox="0 0 500 500" style="enable-background:new 0 0 500 500;" xml:space="preserve">
<style type="text/css">
	.st0{display:none;}
	.st1{display:inline;fill:#D51248;}
	.st2{display:inline;fill:#FFCC07;}
	.st3{display:inline;fill:#56B7E0;}
	.st4{display:inline;fill:#FFFFFF;}
	.st5{display:inline;}
	.st6{fill:#FFFFFF;}
	.st7{fill:#D51248;}
	.st8{fill:#FFCC07;}
	.st9{fill:#56B7E0;}
</style>
<g id="Camada_1" class="st0">
	<g id="Camada_13">
		<polygon class="st1" points="0,0 500,500 0,500 		"/>
		<polygon class="st2" points="500,0 249.8,250.3 -0.3,0.3 		"/>
		<polygon class="st3" points="500,0 500,500 250,250 		"/>
	</g>
	<g id="Burguer">
		<path class="st4" d="M381.1,281H118.9c-17.1,0-31-13.9-31-31l0,0c0-17.1,13.9-31,31-31h262.2c17.1,0,31,13.9,31,31l0,0
			C412.1,267.1,398.2,281,381.1,281z"/>
		<path class="st4" d="M381.1,179.7H118.9c-17.1,0-31-13.9-31-31l0,0c0-17.1,13.9-31,31-31h262.2c17.1,0,31,13.9,31,31l0,0
			C412.1,165.8,398.2,179.7,381.1,179.7z"/>
		<path class="st4" d="M381.1,382.3H118.9c-17.1,0-31-13.9-31-31l0,0c0-17.1,13.9-31,31-31h262.2c17.1,0,31,13.9,31,31l0,0
			C412.1,368.4,398.2,382.3,381.1,382.3z"/>
	</g>
	<g id="X">
		
			<rect x="220" y="93.6" transform="matrix(0.7071 -0.7071 0.7071 0.7071 -103.5863 249.9805)" class="st4" width="59.9" height="312.8"/>
		
			<rect x="93.6" y="219.7" transform="matrix(0.7071 -0.7071 0.7071 0.7071 -103.3003 249.9016)" class="st4" width="312.8" height="59.9"/>
	</g>
	<g id="_x3E_">
		<path class="st4" d="M381.6,232.5L381.6,232.5c-2.8-4-6.4-7.2-10.4-9.4L161.9,77.8c-13.9-9.6-32.9-6.2-42.5,7.7l0,0
			c-9.6,13.9-6.2,32.9,7.7,42.5l175.7,122L127.1,372c-13.9,9.6-17.3,28.7-7.7,42.5l0,0c9.6,13.9,28.7,17.3,42.5,7.7l209.2-145.3
			c4-2.2,7.6-5.3,10.4-9.4l0,0c3.7-5.4,5.5-11.5,5.5-17.5C387.1,243.9,385.3,237.8,381.6,232.5z"/>
	</g>
	<g id="_x3C_">
		<path class="st4" d="M118.2,232.5L118.2,232.5c2.8-4,6.4-7.2,10.4-9.4L337.9,77.8c13.9-9.6,32.9-6.2,42.5,7.7l0,0
			c9.6,13.9,6.2,32.9-7.7,42.5L197,250l175.7,122c13.9,9.6,17.3,28.7,7.7,42.5l0,0c-9.6,13.9-28.7,17.3-42.5,7.7L128.7,276.9
			c-4-2.2-7.6-5.3-10.4-9.4l0,0c-3.7-5.4-5.5-11.5-5.5-17.5C112.8,243.9,114.5,237.8,118.2,232.5z"/>
	</g>
	<g id="Instagram">
		<g class="st5">
			<path class="st6" d="M253.5,79c20.5,0,41-0.4,61.5,0.1c19.6,0.5,38.9,2.8,56.6,12.3c24.9,13.3,40,34,46,61.4
				c3,13.9,3.9,28,4,42.2c0.1,40.5,0.7,81-0.3,121.4c-0.4,17.2-2.8,34.3-10.3,50.1c-14.1,29.8-38.3,46.1-70.3,51.4
				c-14,2.3-28.2,2.6-42.3,2.8c-26.5,0.5-53,0.8-79.5-0.1c-20.4-0.7-40.9-0.1-61.2-3.6c-27.5-4.9-49-18.9-63.3-42.7
				c-7.6-12.6-11.7-26.9-12.9-41.7c-3.5-41.9-2-83.9-1.7-125.9c0.1-16.1,0.2-32.3,3.1-48.3c7.8-42,34.2-68.8,76.4-76.6
				c12.2-2.3,24.5-2.7,36.8-2.9C215.2,78.7,234.3,78.9,253.5,79C253.5,78.9,253.5,78.9,253.5,79z M111.6,247.1c-0.1,0-0.1,0-0.2,0
				c0,15.2-0.1,30.3,0,45.5c0.1,15,0,30,3,44.8c4.4,21.7,16.3,37.3,37.5,45.6c13.1,5.1,26.8,5.6,40.3,5.8c34.5,0.5,69,0.3,103.5,0.1
				c12.8-0.1,25.6-0.5,38.4-2.1c29.4-3.8,48.8-23.3,53.5-52.4c2.5-15.6,1.8-31.2,2.4-46.8c0.9-22.3,0.3-44.6,0.2-67
				c-0.1-17.3-0.1-34.7-2.1-51.9c-3.6-31.6-22.3-51.2-53.2-56.2c-12.7-2-25.6-2-38.4-2.2c-32.1-0.5-64.3-0.4-96.5,0
				c-10.4,0.1-21,0.4-31.4,1.8c-30.2,4-49.6,21.9-54.8,51.2c-1.5,8.7-2.2,17.5-2.3,26.3C111.5,208.7,111.6,227.9,111.6,247.1z"/>
			<path class="st6" d="M251.2,161.7c47.9-0.3,88.2,37.8,87.9,88.5c-0.3,49.4-38.7,86.4-86,87.7c-51.8,1.4-90.5-39.9-90.6-87.9
				C162.4,199.8,203.5,160.6,251.2,161.7z M194.5,249.8c-0.1,30.4,25.5,56,56.1,56.1c31.1,0.1,56.5-25.3,56.7-56.7
				c0.1-29.9-25.5-55.9-55.2-56.1C220.1,192.9,194.6,218.1,194.5,249.8z"/>
			<path class="st6" d="M362.6,159c-0.1,11.8-9.4,20.6-21.6,20.5c-10.9-0.1-20.1-9.4-20.2-20.5c-0.1-11.9,9.3-21.3,21.1-21.3
				C354.2,137.8,362.7,146.5,362.6,159z"/>
		</g>
	</g>
	<g id="Instagram_C">
		<g class="st5">
			<path class="st7" d="M334.2,386.7c-12.7,1.6-25.6,2.1-38.4,2.1c-34.5,0.1-69,0.4-103.5-0.1c-13.5-0.2-27.2-0.7-40.3-5.8
				c-21.2-8.2-33.2-23.8-37.5-45.6c-3-14.8-2.9-29.8-3-44.8c-0.1-15.2,0-30.3,0-45.5c0.1,0,0.1,0,0.2,0c0-19.2-0.2-38.3,0.1-57.5
				c0.1-8.8,0.7-17.6,2.3-26.3c2.4-13.4,7.7-24.3,15.7-32.7l-22.3-22.3C95.1,121,86.8,137.9,83,158.4c-3,16-3,32.2-3.1,48.3
				c-0.3,42-1.8,84,1.7,125.9c1.2,14.8,5.3,29.1,12.9,41.7c14.4,23.8,35.8,37.8,63.3,42.7c20.3,3.6,40.8,3,61.2,3.6
				c26.5,0.9,53,0.6,79.5,0.1c14.1-0.3,28.3-0.6,42.3-2.8c20.8-3.4,38.3-11.5,51.9-24.9L370,370.3
				C360.8,379.1,348.7,384.8,334.2,386.7z"/>
			<path class="st7" d="M253.1,337.9c23.1-0.6,44.1-9.8,59.6-24.8l-22.9-22.9c-10.2,9.8-24,15.8-39.1,15.8
				c-30.6-0.1-56.2-25.6-56.1-56.1c0-15.2,5.9-28.8,15.5-39l-22.7-22.7C172,204,162.5,225.7,162.5,250
				C162.6,298,201.3,339.3,253.1,337.9z"/>
			<path class="st8" d="M315,79.1c-20.5-0.6-41-0.1-61.5-0.1v-0.1c-19.2,0-38.3-0.2-57.5,0.1c-12.3,0.2-24.7,0.6-36.8,2.9
				c-21.4,4-38.7,12.9-51.6,26.1l22.3,22.3c9.5-9.8,22.6-16,38.9-18.2c10.4-1.4,20.9-1.7,31.4-1.8c32.2-0.4,64.3-0.5,96.5,0
				c12.8,0.2,25.7,0.1,38.4,2.2c14.9,2.4,27,8.3,36,17.2l22.4-22.4c-6.2-6.1-13.4-11.4-21.8-15.9C353.9,81.9,334.5,79.6,315,79.1z"
				/>
			<path class="st8" d="M252,193.1c14.8,0.1,28.6,6.6,38.7,16.8l22.8-22.8c-16-16-38.2-25.6-62.3-25.4c-24.5-0.6-47.3,9.5-63.6,26.3
				l22.7,22.7C220.7,199.7,235.5,193,252,193.1z"/>
			<path class="st8" d="M341.8,137.8c-11.9,0-21.2,9.4-21.1,21.3c0,5.7,2.5,10.9,6.3,14.6l29.9-29.9
				C353.3,140,348,137.8,341.8,137.8z"/>
			<path class="st8" d="M129.9,130.3L107.6,108c-0.1,0.1-0.2,0.2-0.2,0.3l22.3,22.3C129.7,130.4,129.8,130.3,129.9,130.3z"/>
			<path class="st8" d="M210.2,210.6L187.6,188c-0.1,0.1-0.2,0.2-0.2,0.3l22.7,22.7C210.1,210.8,210.2,210.7,210.2,210.6z"/>
			<path class="st9" d="M388.2,168.6c2,17.2,2,34.6,2.1,51.9c0.1,22.3,0.7,44.7-0.2,67c-0.6,15.6,0.1,31.2-2.4,46.8
				c-2.4,14.7-8.5,27-17.8,36l22.7,22.7c7.3-7.2,13.5-16,18.4-26.4c7.5-15.8,9.9-32.9,10.3-50.1c1-40.5,0.4-81,0.3-121.4
				c0-14.2-0.9-28.3-4-42.2c-4-18.3-12-33.5-24.2-45.6L371,129.7C380.5,139.2,386.3,152.3,388.2,168.6z"/>
			<path class="st9" d="M307.3,249.2c-0.1,16.1-6.8,30.6-17.5,40.9l22.9,22.9c16.1-15.7,26.2-37.6,26.4-62.8
				c0.2-25.2-9.7-47.3-25.5-63.1l-22.8,22.8C300.9,220.2,307.3,234.2,307.3,249.2z"/>
			<path class="st9" d="M362.6,159c0-6.2-2.1-11.5-5.7-15.3L327,173.6c3.7,3.6,8.6,5.9,13.9,5.9C353.2,179.6,362.5,170.8,362.6,159z
				"/>
		</g>
	</g>
	<g id="Twitter">
		<path class="st4" d="M399.1,141.1c16.2-11.9,27.6-24.4,33.1-42.7c-13.8,6.7-26.7,12.8-40.5,16.3c-5.7,1.5-9.9,1.1-14.7-3.1
			c-20.1-17.7-44.1-23-69.8-17.9c-39.8,7.9-65.4,43.4-61.9,85.5c0.8,9.4-1.9,10.5-10,9.7c-21.9-2.4-42.6-7.6-62.2-15.5
			c-19.5-7.9-37.8-18.6-55.1-32c-13-10.1-24.4-21.9-36.3-35.3c-18.2,41.4-11.4,76,22.4,105.4c-12.6,1.5-22.1-4.8-33.6-7.8
			c3.1,40,23.1,65.7,61.6,78c-11.5,4.5-22.1,2.3-33.3,2.5c12.4,30,33.2,47.6,64.6,53.4c2.9,0.5,6,1,9.1,1.3
			c-9,6.8-18.1,12.5-27.6,17.1c-26.6,13.1-55,18-85.9,16.5c1.9,1.9,2.3,2.4,2.8,2.8c1.3,0.9,2.6,1.8,4,2.6
			c13.2,7,26.4,12.8,39.7,17.5c57.8,20,116.5,17.1,174.4-11.9c23.7-11.9,43.7-26.3,60.3-43.1c0.1-0.1,0.2-0.2,0.2-0.3
			c38.5-38.9,58.5-90.2,63-150.6c1-13.7,3.6-23.8,15.2-32c9-6.4,16.5-15.1,23.4-27.5C427.2,135.6,414.9,139.3,399.1,141.1z"/>
	</g>
	<g id="Twitter_C" class="st5">
		<g>
			<path class="st9" d="M418.6,157.5c9-6.4,16.5-15.1,23.4-27.5c-14.9,5.6-27.2,9.3-42.9,11c16.2-11.9,27.6-24.4,33.1-42.7
				c-13.8,6.7-26.7,12.8-40.5,16.3c-5.7,1.5-9.9,1.1-14.7-3.1c-20.1-17.7-44.1-23-69.8-17.9c-39.8,7.9-65.4,43.4-61.9,85.5
				c0.8,9.4-1.9,10.5-10,9.7c-21.9-2.4-42.6-7.6-62.2-15.5l77.3,77.3l89.9,89.9c38.5-38.9,58.8-90.5,63.2-150.8
				C404.5,175.8,407,165.8,418.6,157.5z"/>
			<path class="st8" d="M163.3,337.6c2.9,0.5,6,1,9.1,1.3c-9,6.8-18.1,12.5-27.6,17.1l-39.3,39.3c57.8,20,116.5,17.1,174.4-11.9
				c23.7-11.9,43.7-26.3,60.3-43.1l-89.9-89.9L163.3,337.6z"/>
			<path class="st7" d="M173.1,173.2c-19.5-7.9-37.8-18.6-55.1-32c-13-10.1-24.4-21.9-36.3-35.3c-18.2,41.4-11.4,76,22.4,105.4
				c-12.6,1.5-22.1-4.8-33.6-7.8c3.1,40,23.1,65.7,61.6,78c-11.5,4.5-22.1,2.3-33.3,2.5c12.4,30,33.2,47.6,64.6,53.4l87.1-87.1
				L173.1,173.2z"/>
			<path class="st7" d="M59,372.5c1.9,1.9,2.3,2.4,2.8,2.8c1.3,0.9,2.6,1.8,4,2.6c13.2,7,26.4,12.8,39.7,17.5l39.3-39.3
				C118.3,369.2,89.9,374,59,372.5z"/>
		</g>
	</g>
	<g id="Facebook">
		<path class="st4" d="M337.9,95.3c0-2.3-0.6-3.1-3-3.5c-10.2-1.3-20.4-2.4-30.6-3.3c-13.6-1.1-26.9-0.5-40,3.5
			c-16.9,5.2-29.9,15.7-38.4,31.1c-7,12.6-9.5,26.6-9.7,40.9c-0.3,14.6-0.2,29.2,0,43.8c0,3.3-0.6,4.5-4.3,4.5
			c-13-0.3-26-0.1-39-0.1c-10.3,0-9.5-1.9-9.5,9.5c0,9.5,0.1,19.1,0.1,28.6c0,5.5,0,11.6-0.1,17.1c0,3.1,0.9,3.7,3.8,3.7
			c15-0.1,29.9,0,44.9-0.1c3,0,4,0.6,4,3.9C216,321.9,216,369,216,416c11.3,0,22.6,0,33.9,0c9.7,0,19.3,0,29,0
			c0-47.1,0-94.2,0-141.2c0-3,0.7-3.8,3.7-3.7c13.5,0.2,27.1,0,40.6,0.2c3,0,3.8-1.1,4.2-3.7c0.8-5.6,1.8-11.8,2.7-17.4
			c1.1-7,2.2-14,3.3-21.1c0.6-4.2,1-8.4,1.9-12.6c0.7-3.2,0.2-4.4-3.5-4.4c-16.4,0.2-32.9,0-49.3,0.1c-2.4,0-3.5-0.3-3.5-3.2
			c0.2-12.5,0-24.9,0.1-37.4c0.1-5.7,1.3-11.3,4.5-16.2c6.2-9.6,15.7-13,26.6-13.3c8.2-0.2,16.4-0.1,24.7,0c2.4,0,3.2-0.6,3.2-3.1
			C337.8,124.5,337.8,109.9,337.9,95.3z"/>
	</g>
	<g id="Facebook_C">
		<g class="st5">
			<path class="st7" d="M335.1,216.6c0.7-3.2,0.2-4.4-3.5-4.4c-16.4,0.2-32.9,0-49.3,0.1c-2.4,0-3.5-0.3-3.5-3.2
				c0.2-12.5,0-24.9,0.1-37.4c0.1-5.7,1.3-11.3,4.5-16.2c6.2-9.6,15.7-13,26.6-13.3c8.2-0.2,16.4-0.1,24.7,0c2.4,0,3.2-0.6,3.2-3.1
				c-0.1-14.6-0.1-29.2,0-43.8c0-2.3-0.6-3.1-3-3.5c-10.2-1.3-20.4-2.4-30.6-3.3c-13.6-1.1-26.9-0.5-40,3.5
				c-16.9,5.2-29.9,15.7-38.4,31.1c-7,12.6-9.5,26.6-9.7,40.9c-0.3,14.6-0.2,29.2,0,43.8c0,3.3-0.6,4.5-4.3,4.5
				c-13-0.3-26-0.1-39-0.1c-10.3,0-9.5-1.9-9.5,9.5c0,9.6,0.1,19.2,0.1,28.8H250v-0.4h80c1.1-7,2.2-14.1,3.3-21.1
				C333.9,224.9,334.3,220.7,335.1,216.6z"/>
			<path class="st8" d="M249.9,416.1c9.7,0,19.3,0,29,0c0-47.1,0-94.2,0-141.2c0-3,0.7-3.8,3.7-3.7c13.5,0.2,27.1,0,40.6,0.2
				c3,0,3.8-1.1,4.2-3.7c0.8-5.7,1.8-11.9,2.7-17.6h-80L249.9,416.1z"/>
			<path class="st9" d="M163.4,250c0,5.6,0,11.9-0.1,17.5c0,3.1,0.9,3.7,3.8,3.7c15-0.1,29.9,0,44.9-0.1c3,0,4,0.6,4,3.9
				c-0.1,47-0.1,94.1-0.1,141.1c11.3,0,22.6,0,33.9,0L250,250H163.4z"/>
		</g>
	</g>
</g>
<g id="Camada_2">
	<g>
		<path class="st9" d="M261.4,98.1c41.4,0,82.7,0,124.1,0c5.7,0,5.7,0,5.7,5.8c0,54.4,0,108.9,0.1,163.3c0,3.1-0.9,5.5-3,7.7
			c-18.4,19.6-36.7,39.3-54.9,59c-2,2.1-4,3-6.9,3c-0.2,0-0.4,0-0.6,0l21.2,21.2c20.9-22.4,41.9-44.8,62.9-67.1
			c2.2-2.4,3.1-4.8,3.1-8.1c-0.1-66.9-0.1-133.8-0.1-200.7c0-5.9,0-5.9-6-5.9c-48.6,0-97.3,0-145.9,0c-7.4,0-14.8,0-22.2,0v21.7
			C246.4,98.1,253.9,98.1,261.4,98.1z"/>
		<path class="st9" d="M239.6,206.4c0,13.3,0,26.6,0,39.9c0,2.5,0.6,3.8,3.4,3.7c5-0.2,9.9-0.1,14.9,0c2.4,0.1,3.4-0.7,3.4-3.3
			c-0.1-26.7-0.1-53.5,0-80.2c0-2.5-1-3.5-3.4-3.4c-4.7,0.1-9.4,0.1-14.2,0c-3.1-0.1-4.2,1-4.2,4.2
			C239.7,180.3,239.6,193.4,239.6,206.4z"/>
		<path class="st9" d="M309.2,250.1c4.2-0.3,8.5-0.2,12.7,0c3.3,0.2,4.4-1,4.4-4.3c-0.1-13.1-0.1-26.1-0.1-39.2c0-1,0-1.9,0-2.9
			c0-12.2,0-24.4,0-36.7c0-2.1-0.2-3.9-3-3.9c-5.2,0.1-10.4,0-15.6,0c-1.9,0-2.9,0.9-2.9,2.9c0,2.2,0,4.4,0,6.5
			c0,24.3,0.1,48.6-0.1,73C304.6,248.9,305.6,250.3,309.2,250.1z"/>
		<path class="st7" d="M114.4,76.3c-3.4,0-5.1,1-6.2,4.4c-3.1,9.7-6.3,19.4-9.5,29.1l32.8,32.8c0-12.9,0-25.9,0-38.8
			c0-5.6,0-5.6,5.5-5.6c34,0,68,0,102,0V76.4C197.4,76.4,155.9,76.4,114.4,76.3z"/>
		<path class="st8" d="M258.6,336.8c-3.3,0-6,0.8-8.7,2.8c-12.9,9.6-25.9,19-39,28.5c-0.9,0.7-1.8,2.1-3.1,1.4
			c-1.3-0.6-0.7-2.2-0.7-3.3c0-7.7,0-15.5,0-23.2c0-6,0-6.1-5.9-6.1c-21.4,0-42.8,0-64.2,0c-5.5,0-5.5,0-5.5-5.6
			c0-62.8,0-125.7,0-188.5l-32.8-32.9c-3.1,9.4-6.3,18.9-9.5,28.3c-0.7,2.2-1.2,4.4-1.2,6.7c0,76.7,0,153.4,0,230.1
			c0,5.2,0,5.2,5.3,5.2c25.3,0,50.6,0,75.9,0c5.5,0,5.5,0,5.5,5.4c0,11,0,22,0,33c0,4.9,0.1,5,4.8,5c11.6,0,23.2-0.1,34.8,0.1
			c2.6,0,4.5-0.8,6.4-2.7c12.2-12.3,24.5-24.5,36.6-36.8c2.7-2.8,5.5-4.1,9.5-4c18.4,0.2,36.8,0,55.2,0.1c3,0,5.2-0.9,7.3-3.1
			c5.9-6.3,11.8-12.7,17.8-19l-21.2-21.2C303.4,336.9,281,336.9,258.6,336.8z"/>
		<path class="st8" d="M131.4,142.5l-32.8-32.8c0,0,0,0.1,0,0.1l32.8,32.9C131.4,142.7,131.4,142.6,131.4,142.5z"/>
	</g>
</g>
</svg>
