<?xml version="1.0" encoding="utf-8"?>
<!-- Generator: Adobe Illustrator 22.0.1, SVG Export Plug-In . SVG Version: 6.00 Build 0)  -->
<svg version="1.1" id="Camada_1" xmlns="http://www.w3.org/2000/svg" xmlns:xlink="http://www.w3.org/1999/xlink" x="0px" y="0px"
	 viewBox="0 0 500 500" style="enable-background:new 0 0 500 500;" xml:space="preserve">
<style type="text/css">
	.st0{fill:#56B7E0;}
	.st1{fill:#D51248;}
	.st2{fill:#FFCC07;}
</style>
<g>
	<path class="st0" d="M187.1,118.1c29-13.7,59.5-18.1,90.9-11c54.9,12.4,91,45.9,109,99.1c4.7,13.9,6.5,28.3,6.5,43
		c-0.5,37.7-13.3,70.5-39.1,98.1c-1.2,1.3-2.4,2.5-3.6,3.7l19.9,19.9c33.3-33.5,49.7-74.7,50.6-122.6c0.1-14.3-1.7-28.4-5.2-42.2
		c-10.2-39.8-31.8-72.4-65-96.6c-39.4-28.7-83.4-39.1-131.6-30.6c-29.9,5.3-56.9,17.3-80.4,36.7c-4.4,3.6-8.5,7.3-12.4,11.3
		l19.8,19.8C158,135.1,171.5,125.5,187.1,118.1z"/>
	<path class="st1" d="M86.3,191.4c-7.8,22.3-10.9,45.2-9.3,68.8c1.7,24.2,8.1,47.2,19.3,68.8c2,3.9,2.7,8,1.5,12.4
		c-3.8,14-7.5,28.1-11.3,42.1c-3.3,12.1-7.3,25.2-10.5,37.2c-0.5,2-0.6,2.9,0.1,3.2l40.2-40.2c-0.6-0.4-0.5-1.3-0.1-2.9
		c3.1-11.5,5.6-23.2,9.6-34.5c3.3-9.5,2.3-18.6-2.7-27.3c-10-17.5-16.2-36.3-18.1-56.3c-2.3-24.2,1.2-47.7,10.9-70.1
		c7.7-17.7,17.9-33.1,30.6-46l-19.8-19.8C108.5,145,95.1,166.6,86.3,191.4z"/>
	<path class="st1" d="M207.8,242.3c-3.6-5.9-3.3-7.9,1.3-13.3c3.1-3.6,6.2-7.1,8.4-11.4c0,0,0,0,0-0.1c1.3-2.7,2.1-5.5,1-8.5
		c-4.3-11.6-9.1-23.1-14.3-34.4c-0.8-1.6-1.7-3.1-3.3-4c-6.4-3.6-18-2-23.3,3.1c-0.6,0.6-1.2,1.2-1.8,1.8
		c-15.5,16.3-18.5,39.6-7.4,60.4c10.9,20.3,24.7,38.5,41.5,54.1l20.4-20.4C221.7,261.9,214.2,252.7,207.8,242.3z"/>
	<path class="st2" d="M260.2,392.6c-28.8,2.6-55.8-3.6-80.9-17.7c-6.5-3.6-12.5-4.3-19.6-2.2c-13.5,4-27.2,7.1-40.8,10.8
		c-1.3,0.4-2.2,0.4-2.6,0.1l-40.2,40.2c0.5,0.2,1.4,0.1,2.9-0.2c0.5-0.1,0.9-0.3,1.4-0.4c25.4-6.6,51.5-14.1,76.9-20.7
		c5.3-1.4,10.3-1.6,15.5,0.9c33,16,67.7,21.3,103.9,15.5c33.5-5.4,63.2-19.4,88.2-42.5c2-1.9,4-3.8,5.9-5.7l-19.9-19.9
		C326,375.8,295.7,389.5,260.2,392.6z"/>
	<path class="st2" d="M329.9,286.6c-10.3-4.9-20.4-9.9-30.7-14.8c-5-2.4-7.2-1.9-10.8,2.4c-2.2,2.6-4.3,5.2-6.4,7.8
		c-1.4,1.8-2.9,3.6-4.3,5.4c-4.8,5.9-6.7,6.4-13.7,3.5c-12.7-5.3-23.9-12.5-33.7-21.3l-20.4,20.4c2.4,2.2,4.9,4.4,7.4,6.5
		c18.7,15.7,39.5,27.6,63.7,32.7c11,2.3,21.7,2.6,32.4-1.7c3.3-1.3,6.3-3.1,9-5.2c8.1-6.3,13.1-15.9,13.3-27
		C336.9,291.2,334.1,288.6,329.9,286.6z"/>
	<path class="st2" d="M116.4,383.6l-40.2,40.2c0,0,0,0,0,0L116.4,383.6C116.4,383.6,116.4,383.6,116.4,383.6z"/>
	<path class="st2" d="M230.3,269.7l-20.4,20.4c0,0,0,0,0,0L230.3,269.7C230.3,269.7,230.3,269.7,230.3,269.7z"/>
</g>
</svg>
