<?xml version="1.0" encoding="UTF-8"?>
<svg id="Camada_1" data-name="Camada 1" xmlns="http://www.w3.org/2000/svg" version="1.1" viewBox="0 0 500 500">
  <defs>
    <style>
      .cls-1 {
        fill: #25d366;
        stroke-width: 0px;
      }
    </style>
  </defs>
  <path class="cls-1" d="M421.3,248.3c.1-14.3-1.7-28.4-5.2-42.2-10.2-39.8-31.8-72.4-65-96.6-39.4-28.7-83.4-39.1-131.6-30.6-29.9,5.3-56.9,17.3-80.4,36.7-4.4,3.6-8.5,7.3-12.3,11.3h0c-18.2,18.1-31.6,39.7-40.4,64.5-7.8,22.3-10.9,45.2-9.3,68.8,1.7,24.2,8.1,47.2,19.3,68.8,2,3.9,2.7,8,1.5,12.4-3.8,14-7.5,28.1-11.3,42.1-3.3,12.1-7.3,25.2-10.5,37.2-.5,2-.6,2.9,0,3.2h0c.5,0,1.4,0,2.8-.3.5-.1.9-.3,1.4-.4,25.4-6.6,51.5-14.1,76.9-20.7,5.3-1.4,10.3-1.6,15.5.9,33,16,67.7,21.3,103.9,15.5,33.5-5.4,63.2-19.4,88.2-42.5,1.9-1.9,3.9-3.7,5.7-5.6h0c33.3-33.4,49.7-74.6,50.6-122.5ZM260.2,392.6c-28.8,2.6-55.8-3.6-80.9-17.7-6.5-3.6-12.5-4.3-19.6-2.2-13.5,4-27.2,7.1-40.8,10.8-1.3.4-2.2.4-2.6.1h0c-.5-.4-.4-1.3,0-2.8,3.1-11.5,5.6-23.2,9.6-34.5,3.3-9.5,2.3-18.6-2.7-27.3-10-17.5-16.2-36.3-18.1-56.3-2.3-24.2,1.2-47.7,10.9-70.1,7.7-17.7,17.9-33.1,30.6-45.9h0c11.5-11.6,25-21.2,40.6-28.6,29-13.7,59.5-18.1,90.9-11,54.9,12.4,91,45.9,109,99.1,4.7,13.9,6.5,28.3,6.5,43-.5,37.7-13.3,70.5-39.1,98.1-1.2,1.2-2.3,2.4-3.5,3.5h0c-24.9,25-55.2,38.7-90.7,41.8Z"/>
  <path class="cls-1" d="M329.9,286.6c-10.3-4.9-20.4-9.9-30.7-14.8-5-2.4-7.2-1.9-10.8,2.4-2.2,2.6-4.3,5.2-6.4,7.8-1.4,1.8-2.9,3.6-4.3,5.4-4.8,5.9-6.7,6.4-13.7,3.5-12.7-5.3-23.9-12.5-33.7-21.3h0c-8.6-7.7-16.1-16.9-22.5-27.3-3.6-5.9-3.3-7.9,1.3-13.3,3.1-3.6,6.2-7.1,8.4-11.4h0c1.3-2.8,2.1-5.6,1-8.6-4.3-11.6-9.1-23.1-14.3-34.4-.8-1.6-1.7-3.1-3.3-4-6.4-3.6-18-2-23.3,3.1-.6.6-1.2,1.2-1.8,1.8-15.5,16.3-18.5,39.6-7.4,60.4,10.9,20.3,24.7,38.5,41.5,54.1,2.4,2.2,4.9,4.4,7.4,6.5,18.7,15.7,39.5,27.6,63.7,32.7,11,2.3,21.7,2.6,32.4-1.7,3.3-1.3,6.3-3.1,9-5.2,8.1-6.3,13.1-15.9,13.3-27,1.2-4.1-1.6-6.7-5.8-8.7Z"/>
</svg>