<?xml version="1.0" encoding="utf-8"?>
<!-- Generator: Adobe Illustrator 22.0.1, SVG Export Plug-In . SVG Version: 6.00 Build 0)  -->
<svg version="1.1" id="Camada_1" xmlns="http://www.w3.org/2000/svg" xmlns:xlink="http://www.w3.org/1999/xlink" x="0px" y="0px"
	 viewBox="0 0 500 500" style="enable-background:new 0 0 500 500;" xml:space="preserve">
<style type="text/css">
	.st0{fill:#D60D47;}
	.st1{fill:#FFCC00;}
	.st2{fill:#56B7E0;}
</style>
<g>
	<path class="st0" d="M306.5,248.8c3.9,2.2,3.9,2.3,0,4.5c-30.3,17.4-60.6,34.8-90.9,52.3c-2.6,1.5-2.9,1.3-2.9-1.6
		c0-5.2,0-10.3,0-15.5l-90.8,90.8c7.9,0.9,15.8,1.5,23.7,1.9c17.3,1,34.5,1.8,51.8,2.1c17.7,0.4,35.3,1,53,0.7
		c10.2-0.2,20.5-0.2,30.7-0.4c23.7-0.4,47.4-1,71-2.3c12.5-0.7,25-1.7,37.4-3.4c16-2.1,28.7-9.3,37.3-23.3
		c4.8-7.8,6.4-16.7,7.8-25.5c2.2-13.3,3.2-26.7,4-40.1c0.8-13.5,1.3-27.1,1.2-40.6c-0.1-15.4-0.5-30.9-1.8-46.3
		c-1.1-12.8-2.3-25.5-5.1-38c-4.7-21-17.4-34.2-38.5-38.8c-5.4-1.2-10.8-1.9-16.3-2.4L272.1,229C283.6,235.6,295,242.2,306.5,248.8z
		"/>
	<path class="st1" d="M212.7,250.9c0-12.4,0-24.9,0-37.3l-91-91c-3.6,0.4-7.3,0.8-10.9,1.3c-21.7,3-36.2,14.8-42.8,35.8
		c-2,6.5-2.8,13.2-3.7,19.9c-1.5,11-2.2,22-2.9,33.1c-0.8,13.5-1.3,27.1-1.2,40.6c0.1,12.6,0.5,25.2,1.3,37.8
		c1,15.2,2.2,30.3,5.1,45.2c4.4,22.7,19.9,37.6,42.5,41.1c4.3,0.7,8.5,1.2,12.8,1.7l90.8-90.8C212.7,275.9,212.7,263.4,212.7,250.9z
		"/>
	<path class="st2" d="M320.3,119.2c-15.9-0.6-31.8-1-47.8-1.1c-17.9-0.2-35.9-0.1-53.8,0.2c-23.5,0.5-47,0.9-70.5,2.3
		c-8.8,0.5-17.7,1.1-26.5,2l91,91c0-5,0-10.1,0-15.1c0-3.6,0.2-3.7,3.2-1.9c18.7,10.8,37.5,21.6,56.2,32.4l106.2-106.2
		c-1.5-0.2-2.9-0.3-4.4-0.4C356.1,120.6,338.2,119.8,320.3,119.2z"/>
</g>
</svg>
