<?xml version="1.0" encoding="utf-8"?>
<!-- Generator: Adobe Illustrator 22.0.1, SVG Export Plug-In . SVG Version: 6.00 Build 0)  -->
<svg version="1.1" id="Camada_1" xmlns="http://www.w3.org/2000/svg" xmlns:xlink="http://www.w3.org/1999/xlink" x="0px" y="0px"
	 viewBox="0 0 1920 1312" style="enable-background:new 0 0 1920 1312;" xml:space="preserve">
<style type="text/css">
	.st0{fill:#FFFFFF;}
	.st1{opacity:0.5;}
	.st2{opacity:0.5;fill:#FFFFFF;enable-background:new    ;}
</style>
<g id="Manavic">
	<g>
		<g>
			<path class="st0" d="M971,639.9L971,639.9c79.2-0.6,232-76.4,232-242.5c0-95.6-78.1-132.5-91.4-168.5s6.2-71.9,6.2-71.9
				c-73,97.6,61.7,115.1,61.7,241.5c0,156.2-160.6,219.8-209,219.8l0,0c-72.6,0.4-134.1,65-134.1,137.7
				c0,57.1,36.3,105.7,87.1,124.1h89.7c50.8-18.4,87-67,87-124.1c0-54-23.6-95.2-68.8-119.5c-11.2,5-21.9,6.7-32,8.9
				c43.7,13.1,78.4,56.5,78.4,110c0,47.4-30.1,87.8-72.3,103H931c-42.2-15.2-72.3-55.6-72.3-103C858.7,694.8,910.5,639.9,971,639.9z
				"/>
		</g>
	</g>
	<polygon class="st0" points="968.2,600 1006.6,561.7 968.2,468.5 968.2,467.3 967.9,467.9 967.7,467.3 967.7,468.5 929.3,561.7 
		967.7,600 967.7,600.5 967.9,600.3 968.2,600.5 	"/>
	<g>
		<path class="st0" d="M756.5,398.6c0-126.4,134.6-143.9,61.7-241.5c0,0,19.5,36,6.2,71.9S733,302,733,397.5
			C733,528.6,827.7,602,906.8,628c11.4-6.5,23.7-11.3,36.5-13.9C880.3,600.4,756.5,536.1,756.5,398.6z"/>
	</g>
	<path class="st0" d="M850.1,231.3c0,0-3.1,27.6-48,89.7s-21.2,167.1,13.7,192.5c0,0-31.5-108.2,13.7-161
		C859.7,316.3,843.9,264.2,850.1,231.3z"/>
	<path class="st0" d="M866.9,323.2c0,0,1,23.6-29.7,81.8s3.8,143.1,37.4,159.5c0,0-41.7-86.4-9.5-136.9
		C886.5,393.1,865.9,351.6,866.9,323.2z"/>
	<path class="st0" d="M1085.9,231.3c0,0,3.1,27.6,48,89.7s21.2,167.1-13.7,192.5c0,0,31.5-108.2-13.7-161
		C1076.3,316.3,1092,264.2,1085.9,231.3z"/>
	<path class="st0" d="M1069.1,323.2c0,0-1,23.6,29.7,81.8s-3.8,143.1-37.4,159.5c0,0,41.7-86.4,9.5-136.9
		C1049.5,393.1,1070,351.6,1069.1,323.2z"/>
	<g>
		<path class="st0" d="M671.2,934.8l23.1,124.7h-18.5l-12.1-69.1l-33.5,71.3L597,990.3l-12.1,69.1h-18.5l23.1-124.7l40.8,85.8
			L671.2,934.8z"/>
		<path class="st0" d="M861,1059.6h-17.2V932.7l80.5,96.3v-94.1h17.2v124.7h-16.6L861,981V1059.6z"/>
		<path class="st0" d="M1154.7,934.9h18.9l-50.6,125l-50.6-125h18.9l31.8,78.1L1154.7,934.9z"/>
		<path class="st0" d="M1205.5,934.6l9.1,124.5v0.2h-18.2v-0.2L1205.5,934.6z"/>
		<path class="st0" d="M1303.9,1042.1c7.2,0,13.9-1.7,20-5.2s11-8.1,14.9-13.8l14.8,11c-5.7,7.7-12.8,13.8-21.3,18.3
			c-8.6,4.5-18,6.8-28.3,6.8c-8.5,0-16.5-1.6-24-4.9s-14-7.7-19.5-13.3c-5.5-5.6-9.9-12.2-13.2-19.7c-3.2-7.5-4.8-15.6-4.8-24.2
			c0-8.6,1.6-16.7,4.8-24.2c3.2-7.5,7.6-14.1,13.2-19.7c5.5-5.6,12.1-10,19.5-13.3c7.5-3.3,15.5-4.9,24-4.9
			c10.3,0,19.7,2.3,28.3,6.8c8.5,4.5,15.7,10.6,21.3,18.3l-14.8,11c-3.9-5.8-8.8-10.4-14.9-13.8c-6.1-3.5-12.7-5.2-20-5.2
			c-5.9,0-11.4,1.2-16.6,3.6c-5.2,2.4-9.7,5.6-13.5,9.7c-3.9,4.1-6.9,8.8-9.2,14.3c-2.3,5.4-3.4,11.3-3.4,17.5s1.1,12.1,3.4,17.5
			s5.3,10.2,9.2,14.3c3.8,4.1,8.4,7.3,13.5,9.7C1292.5,1040.9,1298,1042.1,1303.9,1042.1z"/>
	</g>
	<g class="st1">
		<path class="st0" d="M1053.4,703.6c0.5,0,0,0,0.5,0H1053.4z"/>
		<path class="st0" d="M1053.2,702.2c-35.5,0.5-48.5,7.6-80.1,16.5c-28.2,7.9-63.2-1.3-90.8-16.5c0,0-50.3,98.1,52.5,147.5h31.9h2.1
			h31.9C1096.3,803.7,1060.2,717.1,1053.2,702.2z M1038.3,734.9c-4.1,0-7.4-3.3-7.4-7.4c0-4.1,3.3-7.4,7.4-7.4s7.4,3.3,7.4,7.4
			C1045.8,731.6,1042.4,734.9,1038.3,734.9z"/>
	</g>
	<path class="st2" d="M1053.2,702.2c-27.6,15.1-66.2,25-90.8,16.5c-19.4-6.7-49.8-30.1-80.1-16.5l0,0c-7,13.3-43,101.6,52.5,147.5
		h31.9h2.1h31.9C1103.5,800.3,1053.2,702.2,1053.2,702.2z M1038.3,734.9c-4.1,0-7.4-3.3-7.4-7.4c0-4.1,3.3-7.4,7.4-7.4
		s7.4,3.3,7.4,7.4C1045.8,731.6,1042.4,734.9,1038.3,734.9z"/>
	<g>
		<polygon class="st0" points="1016.3,934.6 965.5,1059.1 984,1059.1 994.1,1033.3 994,1033.3 1016.3,976.2 1038.5,1033.3 
			1038.5,1033.3 1044.7,1049.3 1044.8,1049.3 1048.6,1059.1 1067.1,1059.1 		"/>
	</g>
	<g>
		<polygon class="st0" points="769,934.6 718.2,1059.1 736.7,1059.1 746.8,1033.3 746.8,1033.3 769,976.2 791.3,1033.3 
			791.2,1033.3 797.5,1049.3 797.6,1049.3 801.3,1059.1 819.8,1059.1 		"/>
	</g>
	<g>
		<path class="st0" d="M589.1,1106.6c3.3,0,6.5,0.7,9.4,2s5.4,3.1,7.6,5.3c2.2,2.3,3.9,4.9,5.1,7.9c1.3,3,1.9,6.2,1.9,9.6
			s-0.6,6.6-1.8,9.6s-2.9,5.6-5,7.8c-2.1,2.2-4.7,4-7.6,5.3c-2.9,1.3-6.1,2-9.5,2h-17.3v-49.6L589.1,1106.6L589.1,1106.6z
			 M588.3,1149.8c2.5,0,4.8-0.5,7-1.5c2.1-1,3.9-2.3,5.5-4c1.5-1.7,2.7-3.6,3.6-5.9c0.9-2.2,1.3-4.6,1.3-7.1s-0.4-4.9-1.3-7.1
			c-0.9-2.2-2.1-4.2-3.6-5.9c-1.6-1.7-3.4-3-5.5-4s-4.4-1.5-6.9-1.5H579v36.8h9.3V1149.8z"/>
		<path class="st0" d="M735.7,1148.9h22v7.1h-29.2v-49.4h28.7v7h-21.6v7.8v4v4.9H755v6.8h-19.4L735.7,1148.9L735.7,1148.9z"/>
		<path class="st0" d="M900.4,1131.5c0.3,0.2,0.6,0.5,0.9,0.8c0.3,0.3,0.5,0.6,0.7,0.8c1,1.3,1.8,2.7,2.4,4.3s0.9,3.2,0.9,4.9
			c0,0.4,0,0.7-0.1,0.9c-0.1,2.5-0.9,4.8-2.3,6.8c-1.3,1.9-2.9,3.4-4.9,4.5s-4.2,1.7-6.6,1.7H887c-2.4,0-4.6-0.6-6.6-1.7
			s-3.6-2.6-4.9-4.5c-0.4-0.5-0.7-1.2-1.1-1.9l6.3-4.9c0.1,0.9,0.4,1.7,0.8,2.4c0.4,0.7,1,1.4,1.6,2s1.4,1,2.2,1.3s1.7,0.5,2.6,0.5
			h2.7c1.8,0,3.4-0.6,4.8-1.8c1.4-1.2,2.2-2.7,2.4-4.4c0-0.2,0-0.4,0-0.5c0-0.2,0-0.4,0-0.5c0-1-0.2-1.9-0.5-2.8
			c-0.4-0.9-0.9-1.6-1.5-2.3c-0.6-0.7-1.4-1.2-2.2-1.6c-0.9-0.4-1.8-0.6-2.7-0.7H887h-0.3c-1.7,0-3.2-0.4-4.7-1s-2.8-1.4-4-2.5
			c-0.6-0.4-1.2-1-1.6-1.6c-1-1.3-1.8-2.7-2.4-4.3c-0.6-1.6-0.9-3.2-0.9-4.9v-0.9c0.2-2.6,1-4.8,2.4-6.8c1.3-1.9,2.9-3.4,4.9-4.5
			s4.2-1.7,6.6-1.7h4.4c2.4,0,4.7,0.6,6.7,1.7s3.6,2.6,4.9,4.5c0.1,0.2,0.3,0.5,0.4,0.7c0.2,0.3,0.3,0.5,0.4,0.7l-6.2,4.8
			c-0.4-1.6-1.3-3-2.6-4.1s-2.8-1.6-4.5-1.6H888c-0.9,0-1.8,0.2-2.6,0.5s-1.6,0.8-2.2,1.3c-0.6,0.6-1.2,1.2-1.6,2
			c-0.4,0.8-0.7,1.6-0.8,2.4c0,0.2-0.1,0.4-0.1,0.5c0,0.2,0,0.4,0,0.5c0,1,0.2,1.9,0.5,2.8c0.4,0.9,0.9,1.6,1.5,2.3
			c0.6,0.7,1.4,1.2,2.2,1.6c0.9,0.4,1.8,0.6,2.7,0.7h3.9h0.3c1.7,0,3.2,0.4,4.7,1C897.9,1129.6,899.2,1130.4,900.4,1131.5z"/>
		<path class="st0" d="M1020.8,1106.6h7.2v49.6h-7.2V1106.6z"/>
		<path class="st0" d="M1192.5,1130c0,0.4,0,0.9,0,1.4c0,0.6,0,1.2-0.1,1.8c0,0.6-0.1,1.2-0.2,1.8c-0.4,3-1.3,5.8-2.7,8.3
			c-1.4,2.6-3.2,4.8-5.3,6.7c-2.1,1.9-4.6,3.4-7.3,4.5c-2.7,1.1-5.7,1.6-8.8,1.6c-3.4,0-6.6-0.7-9.6-2s-5.6-3.1-7.8-5.3
			c-2.2-2.2-4-4.8-5.2-7.8c-1.3-3-1.9-6.2-1.9-9.6s0.6-6.6,1.9-9.6s3-5.6,5.2-7.8c2.2-2.2,4.8-4,7.8-5.3s6.2-2,9.6-2
			c2.6,0,5,0.4,7.3,1.1s4.4,1.8,6.4,3.1c1.9,1.4,3.7,3,5.2,4.8c1.5,1.9,2.7,3.9,3.7,6.1h-8.3c-1.5-2.5-3.5-4.6-6-6.1
			s-5.3-2.3-8.3-2.3c-2.3,0-4.6,0.5-6.6,1.4c-2.1,0.9-3.9,2.2-5.4,3.9c-1.5,1.6-2.7,3.5-3.7,5.7c-0.9,2.2-1.4,4.5-1.4,7
			s0.5,4.8,1.4,7s2.1,4.1,3.7,5.7c1.5,1.6,3.3,2.9,5.4,3.9c2.1,0.9,4.3,1.4,6.6,1.4c2,0,4-0.4,5.8-1.1s3.5-1.7,5-3s2.7-2.8,3.7-4.6
			c1-1.8,1.7-3.7,2.1-5.7h-17.3v-6.4h17.4h7.6C1192.5,1129.1,1192.5,1129.6,1192.5,1130z"/>
		<path class="st0" d="M1314.8,1156.3h-6.8v-50.5l32,38.3v-37.5h6.8v49.6h-6.6l-25.4-31.3V1156.3z"/>
	</g>
</g>
</svg>
