<?xml version="1.0" encoding="utf-8"?>
<!-- Generator: Adobe Illustrator 22.0.1, SVG Export Plug-In . SVG Version: 6.00 Build 0)  -->
<svg version="1.1" id="Camada_1" xmlns="http://www.w3.org/2000/svg" xmlns:xlink="http://www.w3.org/1999/xlink" x="0px" y="0px"
	 viewBox="0 0 1920 1312" style="enable-background:new 0 0 1920 1312;" xml:space="preserve">
<style type="text/css">
	.st0{fill:#E0A726;}
	.st1{opacity:0.5;}
	.st2{fill:#4381C2;}
	.st3{opacity:0.5;fill:#4381C2;enable-background:new    ;}
	.st4{fill:#FFFFFF;}
</style>
<g id="Manavic_C">
	<g>
		<g>
			<path class="st0" d="M971,639.3L971,639.3c79.2-0.6,232-76.4,232-242.5c0-95.6-78.1-132.5-91.4-168.5c-13.4-36,6.2-71.9,6.2-71.9
				c-73,97.6,61.7,115.1,61.7,241.5c0,156.2-160.6,219.8-209,219.8l0,0c-72.6,0.4-134.1,65-134.1,137.7
				c0,57.1,36.3,105.7,87.1,124.1h89.7c50.8-18.4,87-67,87-124.1c0-54-23.6-95.2-68.8-119.5c-11.2,5-21.9,6.7-32,8.9
				c43.7,13.1,78.4,56.5,78.4,110c0,47.4-30.1,87.8-72.3,103H931c-42.2-15.2-72.3-55.6-72.3-103C858.7,694.2,910.5,639.3,971,639.3z
				"/>
		</g>
	</g>
	<polygon class="st0" points="968.3,599.4 1006.6,561.1 968.3,467.9 968.3,466.7 968,467.3 967.8,466.7 967.8,467.9 929.4,561.1 
		967.8,599.4 967.8,599.9 968,599.7 968.3,599.9 	"/>
	<g>
		<path class="st0" d="M756.6,398c0-126.4,134.6-143.9,61.7-241.5c0,0,19.5,36,6.2,71.9s-91.4,73-91.4,168.5
			c0,131.1,94.7,204.5,173.8,230.5c11.4-6.5,23.7-11.3,36.5-13.9C880.4,599.7,756.6,535.5,756.6,398z"/>
	</g>
	<path class="st0" d="M850.1,230.7c0,0-3.1,27.6-48,89.7s-21.2,167.1,13.7,192.5c0,0-31.5-108.2,13.7-161
		C859.7,315.6,844,263.6,850.1,230.7z"/>
	<path class="st0" d="M866.9,322.5c0,0,1,23.6-29.7,81.8s3.8,143.1,37.4,159.5c0,0-41.7-86.4-9.5-136.9
		C886.5,392.4,865.9,351,866.9,322.5z"/>
	<path class="st0" d="M1085.9,230.7c0,0,3.1,27.6,48,89.7s21.2,167.1-13.7,192.5c0,0,31.5-108.2-13.7-161
		C1076.3,315.6,1092.1,263.6,1085.9,230.7z"/>
	<path class="st0" d="M1069.1,322.5c0,0-1,23.6,29.7,81.8s-3.8,143.1-37.4,159.5c0,0,41.7-86.4,9.5-136.9
		C1049.5,392.4,1070.1,351,1069.1,322.5z"/>
	<g>
		<path class="st0" d="M671.3,934.1l23.1,124.7h-18.5l-12.1-69.1l-33.5,71.3L597,989.7l-12.1,69.1h-18.5l23.1-124.7l40.8,85.8
			L671.3,934.1z"/>
		<path class="st0" d="M861,1059h-17.2V932.1l80.5,96.3v-94.1h17.2V1059h-16.6L861,980.3V1059z"/>
		<path class="st0" d="M1154.8,934.3h18.9l-50.6,125l-50.6-125h18.9l31.8,78.1L1154.8,934.3z"/>
		<path class="st0" d="M1205.5,934l9.1,124.5v0.2h-18.2v-0.2L1205.5,934z"/>
		<path class="st0" d="M1303.9,1041.5c7.2,0,13.9-1.7,20-5.2s11-8.1,14.9-13.8l14.8,11c-5.7,7.7-12.8,13.8-21.3,18.3
			c-8.6,4.5-18,6.8-28.3,6.8c-8.5,0-16.5-1.6-24-4.9s-14-7.7-19.5-13.3c-5.5-5.6-9.9-12.2-13.2-19.7c-3.2-7.5-4.8-15.6-4.8-24.2
			c0-8.6,1.6-16.7,4.8-24.2c3.2-7.5,7.6-14.1,13.2-19.7c5.5-5.6,12.1-10,19.5-13.3c7.5-3.3,15.5-4.9,24-4.9
			c10.3,0,19.7,2.3,28.3,6.8c8.6,4.5,15.7,10.6,21.3,18.3l-14.8,11c-3.9-5.8-8.8-10.4-14.9-13.8c-6.1-3.5-12.7-5.2-20-5.2
			c-5.9,0-11.4,1.2-16.6,3.6c-5.2,2.4-9.7,5.6-13.5,9.7c-3.9,4.1-6.9,8.8-9.2,14.3c-2.3,5.4-3.4,11.3-3.4,17.5s1.1,12.1,3.4,17.5
			s5.3,10.2,9.2,14.3c3.8,4.1,8.4,7.3,13.5,9.7C1292.5,1040.3,1298,1041.5,1303.9,1041.5z"/>
	</g>
	<g class="st1">
		<path class="st2" d="M1053.4,703c0.5,0,0,0,0.5,0C1054,703,1053.4,703,1053.4,703z"/>
		<path class="st2" d="M1053.3,701.6c-35.5,0.5-48.5,7.6-80.1,16.5c-28.2,7.9-63.2-1.3-90.8-16.5c0,0-50.3,98.1,52.5,147.5h31.9h2.1
			h31.9C1096.3,803.1,1060.2,716.5,1053.3,701.6z M1038.4,734.3c-4.1,0-7.4-3.3-7.4-7.4c0-4.1,3.3-7.4,7.4-7.4s7.4,3.3,7.4,7.4
			S1042.5,734.3,1038.4,734.3z"/>
	</g>
	<path class="st3" d="M1053.3,701.6c-27.6,15.1-66.2,25-90.8,16.5c-19.4-6.7-49.8-30.1-80.1-16.5l0,0c-7,13.3-43,101.6,52.5,147.5
		h31.9h2.1h31.9C1103.6,799.6,1053.3,701.6,1053.3,701.6z M1038.4,734.3c-4.1,0-7.4-3.3-7.4-7.4c0-4.1,3.3-7.4,7.4-7.4
		s7.4,3.3,7.4,7.4S1042.5,734.3,1038.4,734.3z"/>
	<g>
		<polygon class="st0" points="1016.3,934 965.6,1058.5 984.1,1058.5 994.1,1032.7 994.1,1032.7 1016.3,975.6 1038.6,1032.7 
			1038.6,1032.7 1044.8,1048.6 1044.9,1048.6 1048.6,1058.5 1067.1,1058.5 		"/>
	</g>
	<g>
		<polygon class="st0" points="769.1,934 718.3,1058.5 736.8,1058.5 746.9,1032.7 746.8,1032.7 769.1,975.6 791.3,1032.7 
			791.3,1032.7 797.5,1048.6 797.6,1048.6 801.4,1058.5 819.9,1058.5 		"/>
	</g>
	<g>
		<path class="st0" d="M589.1,1105.9c3.3,0,6.5,0.7,9.4,2s5.4,3.1,7.6,5.3c2.2,2.3,3.9,4.9,5.1,7.9c1.3,3,1.9,6.2,1.9,9.6
			s-0.6,6.6-1.8,9.6s-2.9,5.6-5,7.8c-2.1,2.2-4.7,4-7.6,5.3c-2.9,1.3-6.1,2-9.5,2h-17.3v-49.6L589.1,1105.9L589.1,1105.9z
			 M588.3,1149.1c2.5,0,4.8-0.5,7-1.5c2.1-1,3.9-2.3,5.5-4c1.5-1.7,2.7-3.6,3.6-5.9c0.9-2.2,1.3-4.6,1.3-7.1s-0.4-4.9-1.3-7.1
			c-0.9-2.2-2.1-4.2-3.6-5.9c-1.6-1.7-3.4-3-5.5-4s-4.4-1.5-6.9-1.5h-9.3v36.8h9.2V1149.1z"/>
		<path class="st0" d="M735.8,1148.3h22v7.1h-29.2V1106h28.7v7h-21.6v7.8v4v4.9h19.4v6.8h-19.4L735.8,1148.3L735.8,1148.3z"/>
		<path class="st0" d="M900.5,1130.8c0.3,0.2,0.6,0.5,0.9,0.8c0.3,0.3,0.5,0.6,0.7,0.8c1,1.3,1.8,2.7,2.4,4.3s0.9,3.2,0.9,4.9
			c0,0.4,0,0.7-0.1,0.9c-0.1,2.5-0.9,4.8-2.3,6.8c-1.3,1.9-2.9,3.4-4.9,4.5s-4.2,1.7-6.6,1.7H887c-2.4,0-4.6-0.6-6.6-1.7
			s-3.6-2.6-4.9-4.5c-0.4-0.5-0.7-1.2-1.1-1.9l6.3-4.9c0.1,0.9,0.4,1.7,0.8,2.4c0.4,0.7,1,1.4,1.6,2s1.4,1,2.2,1.3s1.7,0.5,2.6,0.5
			h2.7c1.8,0,3.4-0.6,4.8-1.8c1.4-1.2,2.2-2.7,2.4-4.4c0-0.2,0-0.4,0-0.5c0-0.2,0-0.4,0-0.5c0-1-0.2-1.9-0.5-2.8
			c-0.4-0.9-0.9-1.6-1.5-2.3c-0.6-0.7-1.4-1.2-2.2-1.6c-0.9-0.4-1.8-0.6-2.7-0.7H887h-0.3c-1.7,0-3.2-0.4-4.7-1s-2.8-1.4-4-2.5
			c-0.6-0.4-1.2-1-1.6-1.6c-1-1.3-1.8-2.7-2.4-4.3c-0.6-1.6-0.9-3.2-0.9-4.9v-0.9c0.2-2.6,1-4.8,2.4-6.8c1.3-1.9,2.9-3.4,4.9-4.5
			s4.2-1.7,6.6-1.7h4.4c2.4,0,4.7,0.6,6.7,1.7s3.6,2.6,4.9,4.5c0.1,0.2,0.3,0.5,0.4,0.7c0.2,0.3,0.3,0.5,0.4,0.7l-6.2,4.8
			c-0.4-1.6-1.3-3-2.6-4.1s-2.8-1.6-4.5-1.6H888c-0.9,0-1.8,0.2-2.6,0.5s-1.6,0.8-2.2,1.3c-0.6,0.6-1.2,1.2-1.6,2
			c-0.4,0.8-0.7,1.6-0.8,2.4c0,0.2-0.1,0.4-0.1,0.5c0,0.2,0,0.4,0,0.5c0,1,0.2,1.9,0.5,2.8c0.4,0.9,0.9,1.6,1.5,2.3
			c0.6,0.7,1.4,1.2,2.2,1.6c0.9,0.4,1.8,0.6,2.7,0.7h3.9h0.3c1.7,0,3.2,0.4,4.7,1C898,1129,899.3,1129.8,900.5,1130.8z"/>
		<path class="st0" d="M1020.9,1105.9h7.2v49.6h-7.2L1020.9,1105.9L1020.9,1105.9z"/>
		<path class="st0" d="M1192.6,1129.4c0,0.4,0,0.9,0,1.4c0,0.6,0,1.2-0.1,1.8c0,0.6-0.1,1.2-0.2,1.8c-0.4,3-1.3,5.8-2.7,8.3
			c-1.4,2.6-3.2,4.8-5.3,6.7c-2.1,1.9-4.6,3.4-7.3,4.5c-2.7,1.1-5.7,1.6-8.8,1.6c-3.4,0-6.6-0.7-9.6-2s-5.6-3.1-7.8-5.3
			c-2.2-2.2-4-4.8-5.2-7.8c-1.3-3-1.9-6.2-1.9-9.6s0.6-6.6,1.9-9.6s3-5.6,5.2-7.8s4.8-4,7.8-5.3s6.2-2,9.6-2c2.6,0,5,0.4,7.3,1.1
			s4.4,1.8,6.4,3.1c1.9,1.4,3.7,3,5.2,4.8c1.5,1.9,2.7,3.9,3.7,6.1h-8.3c-1.5-2.5-3.5-4.6-6-6.1s-5.3-2.3-8.3-2.3
			c-2.3,0-4.6,0.5-6.6,1.4c-2.1,0.9-3.9,2.2-5.4,3.9c-1.5,1.6-2.7,3.5-3.7,5.7s-1.4,4.5-1.4,7s0.5,4.8,1.4,7s2.1,4.1,3.7,5.7
			c1.5,1.6,3.3,2.9,5.4,3.9c2.1,0.9,4.3,1.4,6.6,1.4c2,0,4-0.4,5.8-1.1s3.5-1.7,5-3s2.7-2.8,3.7-4.6c1-1.8,1.7-3.7,2.1-5.7h-17.3
			v-6.4h17.4h7.6C1192.5,1128.5,1192.5,1128.9,1192.6,1129.4z"/>
		<path class="st0" d="M1314.9,1155.6h-6.8v-50.5l32,38.3V1106h6.8v49.6h-6.6l-25.4-31.3V1155.6z"/>
	</g>
	<circle class="st4" cx="1038.4" cy="726.9" r="7.4"/>
</g>
</svg>
