<?xml version="1.0" encoding="utf-8"?>
<!-- Generator: Adobe Illustrator 26.0.3, SVG Export Plug-In . SVG Version: 6.00 Build 0)  -->
<svg version="1.1" id="Layer_1" xmlns="http://www.w3.org/2000/svg" xmlns:xlink="http://www.w3.org/1999/xlink" x="0px" y="0px"
	 viewBox="0 0 1920 1312" style="enable-background:new 0 0 1920 1312;" xml:space="preserve">
<style type="text/css">
	.st0{fill:#EC1A3B;}
	.st1{fill:#00AABC;}
	.st2{fill:#FFCB31;}
</style>
<g id="Layer_40">
	<circle class="st0" cx="1184.5" cy="476" r="124.1"/>
	<g>
		<path class="st1" d="M774.5,874.4c34.6-14.8,57.4-43.1,57.4-85.7V788c0-27.5-8.4-49-24.7-65c-18.7-19.1-48.2-30.3-90.9-30.3h-40.9
			h-77.3h-48.5v0.5l18,36.3l63.9,9.1c47.9,6.9,67.2,65.7,32.6,99.6l-46.1,45.2l15.3,88.1h32.5h9.7v-71.1l0,0l16.7-18.6l59.7,89.7
			H841L774.5,874.4z"/>
	</g>
	<path class="st2" d="M624.1,786.6l-89.7-12.8l-40.1-80.8c-5.3-10.7-20.7-10.7-26.1,0l-40.1,80.8l-89.7,12.8
		c-11.9,1.7-16.7,16.3-8.1,24.7l64.7,63.3l-15.5,89.2c-2.1,11.8,10.4,21,21,15.3l80.3-42l0.2,0.2l0.2-0.2l80.3,42
		c10.7,5.6,23.1-3.5,21-15.3l-15.5-89.2l65-63.3C640.8,803,636.1,788.3,624.1,786.6z"/>
	<g>
		<path class="st1" d="M381.3,336.6h223.2L575,404.3H458.7v47.4H555l-27.1,64.1h-69.2v99.6h-77.3V336.6z"/>
		<path class="st1" d="M637,336.6h76.2l117.9,278.9h-82.9l-20.3-49.8H620.3l-19.9,49.8h-81.3L637,336.6z M705.6,505.5l-31.1-79.3
			l-31.5,79.3H705.6z"/>
		<path class="st1" d="M743.3,336.6h92l63.3,176.5L962,336.6h90.4L934.5,615.5h-73.3L743.3,336.6z"/>
		<g>
			<polygon class="st1" points="830.1,692.7 858.1,760.4 920.7,760.4 920.7,971.6 998,971.6 998,760.4 1088.6,760.4 1088.6,692.7 
							"/>
		</g>
		<path class="st1" d="M1184.7,330.9c-86.1,0-150.6,65-150.6,145.1v0.8c0,80.1,63.7,144.2,149.9,144.2c86.1,0,150.6-65,150.6-145.1
			v-0.8C1334.5,395.1,1270.8,330.9,1184.7,330.9z M1278.4,468.1c0,51.8-93.9,93.9-93.9,93.9s-93.9-42-93.9-93.9c0-0.5,0-0.9,0-1.3
			c0-0.2,0-0.5,0-0.7c0-0.8,0.1-1.5,0.2-2.3c0-0.1,0-0.2,0-0.2c1.4-28,24.4-50.3,52.7-50.3c16.5,0,31.3,7.7,41.1,19.6
			c9.7-11.9,24.4-19.6,41.1-19.6c28.3,0,51.3,22.3,52.7,50.3c0,0.1,0,0.2,0,0.2c0,0.8,0.2,1.5,0.2,2.3c0,0.2,0,0.5,0,0.7
			C1278.3,467.2,1278.4,467.6,1278.4,468.1z"/>
		<g>
			<path class="st1" d="M1483.5,517.3c34.6-14.8,57.4-43.1,57.4-85.7v-0.8c0-27.5-8.4-49-24.7-65c-18.7-19.1-48.2-30.3-90.9-30.3
				h-118.8v1.2c39,33.8,62.8,83,62.8,138.3v1c0,55-23.8,104.2-62.8,138.3v0.2h77.8v-71.1l0,0l16.7-18.6l59.7,89.7h89.4L1483.5,517.3
				z"/>
		</g>
	</g>
	<g>
		<path class="st1" d="M1490.8,797.9c-38.7-8.7-48.2-14.3-48.2-27.1v-0.8c0-10,9.2-17.9,27.9-17.9c24.7,0,52.6,9.6,78,27.5
			l26.3-63.6c-27.9-18.4-61.2-28.1-102.4-28.1c-67,0-107.9,37.4-107.9,89.2v0.8c0,57.4,45.8,74.1,105.2,87.6
			c37.9,8.7,47,15.2,47,26.7v0.8c0,12-11.1,19.1-31.9,19.1c-32.2,0-62.8-11.5-90.2-33.3l-26.5,64.2c32.1,22,72.2,33.3,114.1,33.3
			c67.7,0,112.7-33.9,112.7-90.9v-0.8C1594.8,832.6,1555,811.9,1490.8,797.9z"/>
	</g>
	<polygon class="st1" points="1189.1,905.9 1189.1,861.7 1299,861.7 1297.9,800.7 1189.1,800.7 1189.1,758.5 1338.8,758.5 
		1338.8,692.7 1119.1,692.7 1119.2,692.9 1119.2,971.6 1173.9,971.6 1189.1,971.6 1310.4,971.6 1337.3,905.9 	"/>
</g>
</svg>
