<?xml version="1.0" encoding="utf-8"?>
<!-- Generator: Adobe Illustrator 26.0.3, SVG Export Plug-In . SVG Version: 6.00 Build 0)  -->
<svg version="1.1" id="Layer_1" xmlns="http://www.w3.org/2000/svg" xmlns:xlink="http://www.w3.org/1999/xlink" x="0px" y="0px"
	 viewBox="0 0 1920 1312" style="enable-background:new 0 0 1920 1312;" xml:space="preserve">
<style type="text/css">
	.st0{fill:#FFFFFF;}
</style>
<g id="Layer_39">
	<g>
		<path class="st0" d="M774,874.9c34.6-14.8,57.4-43.1,57.4-85.7v-0.8c0-27.5-8.4-49-24.7-65c-18.7-19.1-48.2-30.3-90.9-30.3h-40.9
			h-77.3h-48.5v0.5l18,36.3l63.9,9.1c47.9,6.9,67.2,65.7,32.6,99.6L617.4,884l15.3,88.1h32.5h9.7v-71.1l0,0l16.7-18.6l59.7,89.7
			h89.2L774,874.9z"/>
	</g>
	<path class="st0" d="M623.6,787.1l-89.7-12.8l-40.1-80.8c-5.3-10.7-20.7-10.7-26.1,0l-40.1,80.8l-89.7,12.8
		c-11.9,1.7-16.7,16.3-8.1,24.7l64.7,63.3l-15.5,89.2c-2.1,11.8,10.4,21,21,15.3l80.3-42l0.2,0.2l0.2-0.2l80.3,42
		c10.7,5.6,23.1-3.5,21-15.3l-15.5-89.2l64.7-63.3C640.3,803.5,635.6,788.8,623.6,787.1z"/>
	<g>
		<path class="st0" d="M380.8,337.1H604l-29.5,67.7H458.2v47.4h96.3l-27.1,64.1h-69.2v99.6h-77.3V337.1z"/>
		<path class="st0" d="M636.5,337.1h76.2L830.6,616h-82.9l-20.3-49.8H619.8L599.9,616h-81.3L636.5,337.1z M705.1,506l-31.1-79.3
			L642.6,506H705.1z"/>
		<path class="st0" d="M742.8,337.1h92l63.3,176.5L961.5,337h90.4L934,616h-73.3L742.8,337.1z"/>
		<g>
			<polygon class="st0" points="829.6,693.2 857.6,760.9 920.2,760.9 920.2,972.1 997.5,972.1 997.5,760.9 1088.1,760.9 
				1088.1,693.2 			"/>
		</g>
		<path class="st0" d="M1184.2,331.4c-86.1,0-150.6,65-150.6,145.1v0.8c0,80.1,63.7,144.2,149.9,144.2c86.1,0,150.6-65,150.6-145.1
			v-0.8C1334,395.6,1270.3,331.4,1184.2,331.4z M1277.9,468.6c0,51.8-93.9,93.9-93.9,93.9s-93.9-42-93.9-93.9c0-0.5,0-0.9,0-1.3
			c0-0.2,0-0.5,0-0.7c0-0.8,0.1-1.5,0.2-2.3c0-0.1,0-0.2,0-0.2c1.4-28,24.4-50.3,52.7-50.3c16.5,0,31.3,7.7,41.1,19.6
			c9.7-11.9,24.4-19.6,41.1-19.6c28.3,0,51.3,22.3,52.7,50.3c0,0.1,0,0.2,0,0.2c0,0.8,0.2,1.5,0.2,2.3c0,0.2,0,0.5,0,0.7
			C1277.8,467.7,1277.9,468.1,1277.9,468.6z"/>
		<g>
			<path class="st0" d="M1483,517.8c34.6-14.8,57.4-43.1,57.4-85.7v-0.8c0-27.5-8.4-49-24.7-65c-18.7-19.1-48.2-30.3-90.9-30.3H1306
				v1.2c39,33.8,62.8,83,62.8,138.3v1c0,55-23.8,104.2-62.8,138.3v0.2h77.8v-71.1l0,0l16.7-18.6l59.7,89.7h89.2L1483,517.8z"/>
		</g>
	</g>
	<g>
		<path class="st0" d="M1490.3,798.4c-38.7-8.7-48.2-14.3-48.2-27.1v-0.8c0-10,9.2-17.9,27.9-17.9c24.7,0,52.6,9.6,78,27.5
			l26.3-63.6c-27.9-18.4-61.2-28.1-102.4-28.1c-67,0-107.9,37.4-107.9,89.2v0.8c0,57.4,45.8,74.1,105.2,87.6
			c37.9,8.7,47,15.2,47,26.7v0.8c0,12-11.1,19.1-31.9,19.1c-32.2,0-62.8-11.5-90.2-33.3l-26.5,64.2c32.1,22,72.2,33.3,114.1,33.3
			c67.7,0,112.7-33.9,112.7-90.9v-0.8C1594.3,833.1,1554.5,812.4,1490.3,798.4z"/>
	</g>
	<polygon class="st0" points="1188.6,906.4 1188.6,862.2 1298.5,862.2 1297.4,801.2 1188.6,801.2 1188.6,759 1338.3,759 
		1338.3,693.2 1118.6,693.2 1118.7,693.4 1118.7,972.1 1173.4,972.1 1188.6,972.1 1309.9,972.1 1336.8,906.4 	"/>
</g>
</svg>
