<?xml version="1.0" encoding="utf-8"?>
<!-- Generator: Adobe Illustrator 26.0.3, SVG Export Plug-In . SVG Version: 6.00 Build 0)  -->
<svg version="1.1" id="Layer_1" xmlns="http://www.w3.org/2000/svg" xmlns:xlink="http://www.w3.org/1999/xlink" x="0px" y="0px"
	 viewBox="0 0 1920 1312" style="enable-background:new 0 0 1920 1312;" xml:space="preserve">
<style type="text/css">
	.st0{fill:#FFFFFF;}
</style>
<g id="Layer_39">
	<g>
		<path class="st0" d="M719.5,939c44.8-19.1,74.2-55.7,74.2-110.8v-1c0-35.6-10.8-63.4-32-84c-24.2-24.7-62.3-39.2-117.5-39.2h-52.9
			h-100h-62.7v0.7l23.3,47l82.6,11.8c62,8.9,86.9,85,42.1,128.8L517,950.7l19.8,114h42h12.6v-91.9l0,0l21.6-24.1l77.2,116h115.4
			L719.5,939z"/>
	</g>
	<path class="st0" d="M525,825.4l-116-16.6l-51.8-104.5c-6.9-13.9-26.8-13.9-33.7,0l-51.8,104.5l-116,16.6
		c-15.4,2.2-21.6,21.1-10.5,32l83.7,81.9l-20,115.4c-2.7,15.3,13.4,27.1,27.2,19.8l103.8-54.3l0.3,0.2l0.3-0.2l103.8,54.3
		c13.8,7.2,29.9-4.5,27.2-19.8l-20-115.4l83.7-81.9C546.6,846.6,540.5,827.6,525,825.4z"/>
	<g>
		<path class="st0" d="M211,243.4h288.6L461.5,331H311v61.3h124.6l-35.1,82.9H311V604H211V243.4z"/>
		<path class="st0" d="M541.7,243.4h98.5l152.5,360.7H685.5l-26.3-64.4H520.1l-25.8,64.4H389.2L541.7,243.4z M630.4,461.9
			l-40.2-102.5l-40.7,102.5H630.4z"/>
		<path class="st0" d="M679.1,243.4h119L880,471.6l81.9-228.3h116.9L926.4,604.1h-94.8L679.1,243.4z"/>
		<g>
			<polygon class="st0" points="791.4,704 827.6,791.6 908.5,791.6 908.5,1064.7 1008.5,1064.7 1008.5,791.6 1125.7,791.6 
				1125.7,704 			"/>
		</g>
		<path class="st0" d="M1249.9,236.1c-111.3,0-194.8,84-194.8,187.6v1c0,103.6,82.4,186.5,193.8,186.5c111.3,0,194.8-84,194.8-187.6
			v-1C1443.7,319.1,1361.3,236.1,1249.9,236.1z M1371.1,413.5c0,67-121.4,121.4-121.4,121.4s-121.4-54.3-121.4-121.4
			c0-0.6,0-1.1,0-1.7c0-0.3,0-0.6,0-0.9c0-1,0.1-2,0.2-3c0-0.1,0-0.2,0-0.3c1.8-36.2,31.5-65,68.1-65c21.4,0,40.5,9.9,53.1,25.3
			c12.5-15.4,31.6-25.3,53.1-25.3c36.6,0,66.4,28.8,68.1,65c0,0.1,0,0.2,0,0.3c0,1,0.2,2,0.2,3c0,0.3,0,0.6,0,0.9
			C1371,412.4,1371.1,412.9,1371.1,413.5z"/>
		<g>
			<path class="st0" d="M1636.4,477.1c44.8-19.1,74.2-55.7,74.2-110.8v-1c0-35.6-10.8-63.4-32-84c-24.2-24.7-62.3-39.2-117.5-39.2
				h-153.6v1.6c50.4,43.7,81.2,107.3,81.2,178.8v1.3c0,71.1-30.8,134.8-81.2,178.8v0.2h100.6v-91.9l0,0l21.6-24.1l77.2,116h115.4
				L1636.4,477.1z"/>
		</g>
	</g>
	<g>
		<path class="st0" d="M1645.8,840.1c-50-11.3-62.3-18.5-62.3-35v-1c0-12.9,11.9-23.2,36.1-23.2c31.9,0,68,12.4,100.9,35.5l34-82.2
			c-36.1-23.8-79.2-36.3-132.4-36.3c-86.6,0-139.6,48.4-139.6,115.4v1c0,74.2,59.2,95.8,136,113.3c49,11.3,60.8,19.6,60.8,34.5v1
			c0,15.5-14.4,24.7-41.2,24.7c-41.6,0-81.2-14.9-116.7-43.1l-34.3,83c41.5,28.5,93.4,43.1,147.5,43.1
			c87.6,0,145.8-43.8,145.8-117.5v-1C1780.3,884.9,1728.8,858.1,1645.8,840.1z"/>
	</g>
	<polygon class="st0" points="1255.6,979.7 1255.6,922.5 1397.8,922.5 1396.4,843.7 1255.6,843.7 1255.6,789.1 1449.3,789.1 
		1449.3,704 1165.1,704 1165.2,704.2 1165.2,1064.7 1236,1064.7 1255.6,1064.7 1412.5,1064.7 1447.3,979.7 	"/>
</g>
</svg>
