<?xml version="1.0" encoding="utf-8"?>
<!-- Generator: Adobe Illustrator 22.0.1, SVG Export Plug-In . SVG Version: 6.00 Build 0)  -->
<svg version="1.1" xmlns="http://www.w3.org/2000/svg" xmlns:xlink="http://www.w3.org/1999/xlink" x="0px" y="0px"
	 viewBox="0 0 1920 1312" style="enable-background:new 0 0 1920 1312;" xml:space="preserve">
<style type="text/css">
	.st0{fill:#FFFFFF;}
	.st1{opacity:0.4;fill:url(#SVGID_1_);enable-background:new    ;}
	.st2{opacity:0.4;fill:url(#SVGID_2_);enable-background:new    ;}
	.st3{opacity:0.4;fill:url(#SVGID_3_);enable-background:new    ;}
	.st4{opacity:0.4;fill:url(#SVGID_4_);enable-background:new    ;}
	.st5{opacity:0.4;fill:url(#SVGID_5_);enable-background:new    ;}
	.st6{opacity:0.4;fill:url(#SVGID_6_);enable-background:new    ;}
	.st7{opacity:0.4;fill:url(#SVGID_7_);enable-background:new    ;}
	.st8{opacity:0.4;fill:url(#SVGID_8_);enable-background:new    ;}
</style>
<g id="Camada_2">
</g>
<g id="Camada_1">
	<g id="Camada_2_1_">
		<rect x="1125" y="346.2" class="st0" width="82.3" height="528.1"/>
		<rect x="610" y="346.2" class="st0" width="82.3" height="528.1"/>
		<rect x="733.2" y="346.2" class="st0" width="82.3" height="528.1"/>
		<rect x="1248.3" y="346.2" class="st0" width="82.3" height="528.1"/>
		<rect x="1248.6" y="346.2" class="st0" width="453.2" height="82.3"/>
		<rect x="1248.7" y="793.1" class="st0" width="453.2" height="82.3"/>
		<polygon class="st0" points="1207.4,874.3 1104.6,874.3 733.2,398.8 733.2,346.2 816.1,346.2 		"/>
		<g>
			<polygon class="st0" points="1638.9,598.8 1026,598.8 1078,668.8 1638.9,668.8 			"/>
			<polygon class="st0" points="774.6,598.8 774.6,668.8 967.8,668.8 913.3,598.8 			"/>
		</g>
		<polygon class="st0" points="692.3,874.3 588.9,874.3 218.1,398.8 218.1,346.2 300.4,346.2 		"/>
		<rect x="218.1" y="346.2" class="st0" width="82.3" height="528.1"/>
	</g>
	<g id="Camada_3">
		
			<linearGradient id="SVGID_1_" gradientUnits="userSpaceOnUse" x1="815.9398" y1="-536.2177" x2="877.7692" y2="-536.2177" gradientTransform="matrix(1 0 0 1 0 1170.2677)">
			<stop  offset="0" style="stop-color:#1D1D1B"/>
			<stop  offset="1" style="stop-color:#1D1D1B;stop-opacity:0"/>
		</linearGradient>
		<rect x="816.1" y="598.8" class="st1" width="61.9" height="70.6"/>
		
			<linearGradient id="SVGID_2_" gradientUnits="userSpaceOnUse" x1="1026.1063" y1="-536.5177" x2="1096.5424" y2="-536.5177" gradientTransform="matrix(1 0 0 1 0 1170.2677)">
			<stop  offset="0" style="stop-color:#1D1D1B"/>
			<stop  offset="1" style="stop-color:#1D1D1B;stop-opacity:0"/>
		</linearGradient>
		<polygon class="st2" points="1078,668.8 1096.6,668.8 1096.6,598.8 1026,598.8 		"/>
		
			<linearGradient id="SVGID_3_" gradientUnits="userSpaceOnUse" x1="2452.9861" y1="-577.4955" x2="2515.9502" y2="-577.4955" gradientTransform="matrix(0 -1 1 0 1743.7205 3051.4971)">
			<stop  offset="0" style="stop-color:#1D1D1B"/>
			<stop  offset="1" style="stop-color:#1D1D1B;stop-opacity:0"/>
		</linearGradient>
		<polygon class="st3" points="1207.4,598.8 1207.4,535.7 1125,535.7 1125,598.8 		"/>
		
			<linearGradient id="SVGID_4_" gradientUnits="userSpaceOnUse" x1="2094.9285" y1="-1010.2267" x2="2224.9285" y2="-1010.2267" gradientTransform="matrix(0 -1 1 0 1661.4017 2969.1785)">
			<stop  offset="0" style="stop-color:#1D1D1B"/>
			<stop  offset="1" style="stop-color:#1D1D1B;stop-opacity:0"/>
		</linearGradient>
		<polygon class="st4" points="692.3,874.3 692.3,744.3 610,744.3 610,762.9 		"/>
		
			<linearGradient id="SVGID_5_" gradientUnits="userSpaceOnUse" x1="94.0409" y1="454.6193" x2="216.2301" y2="454.6193" gradientTransform="matrix(0.7071 0.7071 -0.7071 0.7071 515.465 -1.8826)">
			<stop  offset="0" style="stop-color:#1D1D1B"/>
			<stop  offset="1" style="stop-color:#1D1D1B;stop-opacity:0"/>
		</linearGradient>
		<polygon class="st5" points="300.4,504.7 306.6,512.1 374.1,445.3 300.4,346.2 		"/>
		
			<linearGradient id="SVGID_6_" gradientUnits="userSpaceOnUse" x1="2452.9861" y1="-453.9455" x2="2515.9502" y2="-453.9455" gradientTransform="matrix(0 -1 1 0 1743.7205 3051.4971)">
			<stop  offset="0" style="stop-color:#1D1D1B"/>
			<stop  offset="1" style="stop-color:#1D1D1B;stop-opacity:0"/>
		</linearGradient>
		<polygon class="st6" points="1331.3,598.8 1331.3,535.7 1248.3,535.7 1248.3,598.8 		"/>
		
			<linearGradient id="SVGID_7_" gradientUnits="userSpaceOnUse" x1="1213.9568" y1="624.7462" x2="1276.921" y2="624.7462" gradientTransform="matrix(0 1 -1 0 1914.5212 -545.0083)">
			<stop  offset="0" style="stop-color:#1D1D1B"/>
			<stop  offset="1" style="stop-color:#1D1D1B;stop-opacity:0"/>
		</linearGradient>
		<polygon class="st7" points="1248.3,668.8 1248.3,731.9 1331.3,731.9 1331.3,668.8 		"/>
		
			<linearGradient id="SVGID_8_" gradientUnits="userSpaceOnUse" x1="1213.9568" y1="748.2961" x2="1276.921" y2="748.2961" gradientTransform="matrix(0 1 -1 0 1914.5212 -545.0083)">
			<stop  offset="0" style="stop-color:#1D1D1B"/>
			<stop  offset="1" style="stop-color:#1D1D1B;stop-opacity:0"/>
		</linearGradient>
		<polygon class="st8" points="1125,668.8 1125,731.9 1207.4,731.9 1207.4,668.8 		"/>
		<g>
			<path class="st0" d="M261.3,964.7l-3.1-8.7h-21.3l-3.1,8.7h-12l19.5-49.5h13.2l19.5,49.5H261.3z M247,925.7l-7.5,21h15.7
				L247,925.7z"/>
			<path class="st0" d="M509.1,939.9c0-15.5,12-25.4,27-25.4c10.6,0,16.9,5,20.7,11.1l-8.8,5c-2.5-3.7-6.9-6.2-12-6.2
				c-9.4,0-15.7,6.8-15.7,16.1c0,9.3,6.9,16.1,15.7,16.1c4.4,0,8.8-1.9,10.6-3.7v-6.2h-13.2v-9.3h23.8v19.2
				c-5.1,5.6-12.6,9.3-21.3,9.3C521.1,965.3,509.1,955.4,509.1,939.9z"/>
			<path class="st0" d="M801.5,964.7v-49.5h35.8v9.3h-25.1V935h24.4v9.3h-24.4v11.1h25.1v9.3H801.5L801.5,964.7z"/>
			<path class="st0" d="M1115.8,964.7l-23.8-32.2v32.2h-10.6v-49.5h11.2l23.2,31v-31h10.6v49.5H1115.8z"/>
			<path class="st0" d="M1369.9,939.9c0-15.5,12-25.4,27-25.4c11.2,0,17.5,5.6,20.7,12.4l-9.4,4.3c-1.9-3.7-6.9-7.4-12-7.4
				c-9.4,0-15.7,6.8-15.7,16.1c0,9.3,6.9,16.1,15.7,16.1c5.1,0,9.4-3.1,12-7.4l9.4,4.3c-3.7,6.2-10,12.4-20.7,12.4
				C1381.8,965.3,1369.9,955.4,1369.9,939.9z"/>
			<path class="st0" d="M1672.3,964.7v-20.4l-19.5-29.1h12l12.6,19.8l12.6-19.8h12l-19.5,29.1v20.4H1672.3z"/>
		</g>
	</g>
</g>
</svg>
