<?xml version="1.0" encoding="utf-8"?>
<!-- Generator: Adobe Illustrator 22.0.1, SVG Export Plug-In . SVG Version: 6.00 Build 0)  -->
<svg version="1.1" id="Camada_1" xmlns="http://www.w3.org/2000/svg" xmlns:xlink="http://www.w3.org/1999/xlink" x="0px" y="0px"
	 viewBox="0 0 1920 1312" style="enable-background:new 0 0 1920 1312;" xml:space="preserve">
<style type="text/css">
	.st0{fill:#FFFFFF;}
	.st1{opacity:0.4;fill:url(#SVGID_1_);enable-background:new    ;}
	.st2{opacity:0.4;fill:url(#SVGID_2_);enable-background:new    ;}
	.st3{opacity:0.4;fill:url(#SVGID_3_);enable-background:new    ;}
	.st4{opacity:0.4;fill:url(#SVGID_4_);enable-background:new    ;}
	.st5{opacity:0.4;fill:url(#SVGID_5_);enable-background:new    ;}
	.st6{opacity:0.4;fill:url(#SVGID_6_);enable-background:new    ;}
	.st7{opacity:0.4;fill:url(#SVGID_7_);enable-background:new    ;}
	.st8{opacity:0.4;fill:url(#SVGID_8_);enable-background:new    ;}
</style>
<g id="Camada_2_1_">
	<rect x="1134.8" y="344.2" class="st0" width="82.3" height="528.1"/>
	<rect x="619.8" y="344.2" class="st0" width="82.3" height="528.1"/>
	<rect x="743" y="344.2" class="st0" width="82.3" height="528.1"/>
	<rect x="1237.6" y="344.2" class="st0" width="82.3" height="528.1"/>
	<rect x="1237.9" y="344.2" class="st0" width="453.2" height="82.3"/>
	<rect x="1238" y="791.1" class="st0" width="453.2" height="82.3"/>
	<polygon class="st0" points="1217.2,872.3 1114.4,872.3 743,396.8 743,344.2 825.9,344.2 	"/>
	<g>
		<polygon class="st0" points="1628.2,596.8 1035.8,596.8 1087.8,666.8 1628.2,666.8 		"/>
		<polygon class="st0" points="784.4,596.8 784.4,666.8 977.6,666.8 923.1,596.8 		"/>
	</g>
	<polygon class="st0" points="702.1,872.3 598.7,872.3 227.9,396.8 227.9,344.2 310.2,344.2 	"/>
	<rect x="227.9" y="344.2" class="st0" width="82.3" height="528.1"/>
</g>
<g id="Camada_3">
	
		<linearGradient id="SVGID_1_" gradientUnits="userSpaceOnUse" x1="825.7147" y1="679.9159" x2="887.5442" y2="679.9159" gradientTransform="matrix(1 0 0 -1 0 1312)">
		<stop  offset="0" style="stop-color:#1D1D1B"/>
		<stop  offset="1" style="stop-color:#1D1D1B;stop-opacity:0"/>
	</linearGradient>
	<rect x="825.9" y="596.8" class="st1" width="61.9" height="70.6"/>
	
		<linearGradient id="SVGID_2_" gradientUnits="userSpaceOnUse" x1="1035.8813" y1="680.2254" x2="1106.3174" y2="680.2254" gradientTransform="matrix(1 0 0 -1 0 1312)">
		<stop  offset="0" style="stop-color:#1D1D1B"/>
		<stop  offset="1" style="stop-color:#1D1D1B;stop-opacity:0"/>
	</linearGradient>
	<polygon class="st2" points="1087.8,666.8 1106.4,666.8 1106.4,596.8 1035.8,596.8 	"/>
	
		<linearGradient id="SVGID_3_" gradientUnits="userSpaceOnUse" x1="1038.936" y1="461.4473" x2="1101.9003" y2="461.4473" gradientTransform="matrix(0 -1 -1 0 1637.4528 1635.4972)">
		<stop  offset="0" style="stop-color:#1D1D1B"/>
		<stop  offset="1" style="stop-color:#1D1D1B;stop-opacity:0"/>
	</linearGradient>
	<polygon class="st3" points="1217.2,596.8 1217.2,533.7 1134.8,533.7 1134.8,596.8 	"/>
	
		<linearGradient id="SVGID_4_" gradientUnits="userSpaceOnUse" x1="680.8953" y1="894.1946" x2="810.9" y2="894.1946" gradientTransform="matrix(0 -1 -1 0 1555.134 1553.1785)">
		<stop  offset="0" style="stop-color:#1D1D1B"/>
		<stop  offset="1" style="stop-color:#1D1D1B;stop-opacity:0"/>
	</linearGradient>
	<polygon class="st4" points="702.1,872.3 702.1,742.3 619.8,742.3 619.8,760.9 	"/>
	
		<linearGradient id="SVGID_5_" gradientUnits="userSpaceOnUse" x1="268.8842" y1="454.7749" x2="391.0172" y2="454.7749" gradientTransform="matrix(0.7071 0.7071 0.7071 -0.7071 -241.3931 515.5899)">
		<stop  offset="0" style="stop-color:#1D1D1B"/>
		<stop  offset="1" style="stop-color:#1D1D1B;stop-opacity:0"/>
	</linearGradient>
	<polygon class="st5" points="310.2,502.7 316.4,510.1 383.9,443.3 310.2,344.2 	"/>
	
		<linearGradient id="SVGID_6_" gradientUnits="userSpaceOnUse" x1="1038.936" y1="358.3723" x2="1101.9003" y2="358.3723" gradientTransform="matrix(0 -1 -1 0 1637.4528 1635.4972)">
		<stop  offset="0" style="stop-color:#1D1D1B"/>
		<stop  offset="1" style="stop-color:#1D1D1B;stop-opacity:0"/>
	</linearGradient>
	<polygon class="st6" points="1320.6,596.8 1320.6,533.7 1237.6,533.7 1237.6,596.8 	"/>
	
		<linearGradient id="SVGID_7_" gradientUnits="userSpaceOnUse" x1="964.0067" y1="922.2916" x2="1026.9709" y2="922.2916" gradientTransform="matrix(0 1 1 0 356.7889 -297.0083)">
		<stop  offset="0" style="stop-color:#1D1D1B"/>
		<stop  offset="1" style="stop-color:#1D1D1B;stop-opacity:0"/>
	</linearGradient>
	<polygon class="st7" points="1237.6,666.8 1237.6,729.9 1320.6,729.9 1320.6,666.8 	"/>
	
		<linearGradient id="SVGID_8_" gradientUnits="userSpaceOnUse" x1="964.0067" y1="819.2166" x2="1026.9709" y2="819.2166" gradientTransform="matrix(0 1 1 0 356.7889 -297.0083)">
		<stop  offset="0" style="stop-color:#1D1D1B"/>
		<stop  offset="1" style="stop-color:#1D1D1B;stop-opacity:0"/>
	</linearGradient>
	<polygon class="st8" points="1134.8,666.8 1134.8,729.9 1217.2,729.9 1217.2,666.8 	"/>
	<g>
		<path class="st0" d="M270.6,962.7l-3.1-8.7h-21l-3.1,8.7h-11.8l19.2-49.5h13l19.2,49.5H270.6z M256.4,923.7l-7.4,21h15.5
			L256.4,923.7z"/>
		<path class="st0" d="M515.1,937.9c0-15.5,11.8-25.4,26.6-25.4c10.5,0,16.7,5,20.4,11.1l-8.7,5c-2.5-3.7-6.8-6.2-11.8-6.2
			c-9.3,0-15.5,6.8-15.5,16.1c0,9.3,6.8,16.1,15.5,16.1c4.3,0,8.7-1.9,10.5-3.7v-6.2h-13v-9.3h23.5v19.2c-5,5.6-12.4,9.3-21,9.3
			C526.9,963.3,515.1,953.4,515.1,937.9z"/>
		<path class="st0" d="M803.6,962.7v-49.5h35.3v9.3h-24.8V933h24.1v9.3h-24.1v11.1h24.8v9.3H803.6z"/>
		<path class="st0" d="M1113.8,962.7l-23.5-32.2v32.2h-10.5v-49.5h11.1l22.9,31v-31h10.5v49.5H1113.8z"/>
		<path class="st0" d="M1364.5,937.9c0-15.5,11.8-25.4,26.6-25.4c11.1,0,17.3,5.6,20.4,12.4l-9.3,4.3c-1.9-3.7-6.8-7.4-11.8-7.4
			c-9.3,0-15.5,6.8-15.5,16.1s6.8,16.1,15.5,16.1c5,0,9.3-3.1,11.8-7.4l9.3,4.3c-3.7,6.2-9.9,12.4-20.4,12.4
			C1376.3,963.3,1364.5,953.4,1364.5,937.9z"/>
		<path class="st0" d="M1662.9,962.7v-20.4l-19.2-29.1h11.8l12.4,19.8l12.4-19.8h11.8l-19.2,29.1v20.4H1662.9z"/>
	</g>
</g>
</svg>
