<?xml version="1.0" encoding="utf-8"?>
<!-- Generator: Adobe Illustrator 22.0.1, SVG Export Plug-In . SVG Version: 6.00 Build 0)  -->
<svg version="1.1" id="Camada_1" xmlns="http://www.w3.org/2000/svg" xmlns:xlink="http://www.w3.org/1999/xlink" x="0px" y="0px"
	 viewBox="0 0 1920 1312" style="enable-background:new 0 0 1920 1312;" xml:space="preserve">
<style type="text/css">
	.st0{fill:#E6B84C;}
</style>
<path class="st0" d="M725.5,336.7h211.4c-12.8,2.3-23.6,11.8-32.3,28.4c-8.7,16.6-13.1,40-13.1,70.3V838h117.9
	c45.4,0,76.4-4.7,93-14c16.6-9.3,32.7-28.2,48.5-56.7l-23.6,151.1H729.9c11.7-2.3,21.3-12.8,28.8-31.4c7.6-18.6,11.3-44.3,11.3-76.9
	V435.4C770.1,379,755.2,346.1,725.5,336.7z"/>
<path class="st0" d="M959.3,949.9c-26.8,0-52.6-3.6-77.3-10.2h-54.8h-15.7c44.3,23,94.5,36.1,147.8,36.1
	c53.4,0,103.6-13.1,147.9-36.1h-70.8C1011.8,946.3,986,949.9,959.3,949.9z"/>
<g>
	<path class="st0" d="M664.1,654.8c0-80.6,32.3-153.5,84.7-206.7v-35.4c-67.7,58.9-110.4,145.5-110.4,242.1
		c0,90.5,37.5,172.2,97.7,230.5c5.5-6.9,8.9-16.1,10.9-25.7C695.7,806.6,664.1,734.4,664.1,654.8z"/>
</g>
<g>
	<path class="st0" d="M978,334.4c-15.3,4.4-34.4,12.4-47.2,26.6c9.4-0.9,18.9-1.4,28.5-1.4c163,0,295.2,132.1,295.2,295.2
		c0,88.7-39.2,168.2-101.1,222.3l-5.2,37.2c80-58.4,132.1-152.8,132.1-259.4C1280.2,483.9,1146.6,344.1,978,334.4z"/>
</g>
</svg>
