<?xml version="1.0" encoding="utf-8"?>
<!-- Generator: Adobe Illustrator 22.0.1, SVG Export Plug-In . SVG Version: 6.00 Build 0)  -->
<svg version="1.1" id="Camada_1" xmlns="http://www.w3.org/2000/svg" xmlns:xlink="http://www.w3.org/1999/xlink" x="0px" y="0px"
	 viewBox="0 0 1920 1312" style="enable-background:new 0 0 1920 1312;" xml:space="preserve">
<style type="text/css">
	.st0{fill:#FFFFFF;}
</style>
<g id="Camada_17">
	<g>
		<g>
			<path class="st0" d="M1133.2,570.4v177.1c0,8.7-3.1,11.6-12.1,11.6h-30.2c-9,0-11.9-2.9-11.9-11.6v-40.3
				c0-18.6-1.4-36.4,9.3-73.9l0,0c-2.8,9.3-13,35-18.9,46.5l-16,31.9c-3.1,5.7-5.9,8.2-13.6,8.2h-13c-7.6,0-10.4-1.9-13.5-8.2
				l-18.9-31.9c-6-10.7-13.6-36.6-16.4-46.5l0,0c10.2,40.6,8.8,54.7,8.8,74.1v40.1c0,8.7-3.1,11.6-12.2,11.6h-29.9
				c-9,0-12.1-2.9-12.1-11.6V570.4c0-9.1,3.1-11.9,12.1-11.9h27.7c9.9,0,12.7,1.7,16.7,8.7l43.8,91.6l44.7-91.4c4-7.6,6.4-9,15.8-9
				h27.6C1130.1,558.4,1133.2,561.3,1133.2,570.4z"/>
			<path class="st0" d="M1220.7,499.2l14.4,16.3c4.8,5.6,5.1,8.8-1.7,11.3l-51,15.8c-6.8,2-10.1,2.6-13-1.4l-7.8-9.3
				c-4.3-5.4-4.3-7.9,0.8-10.8l39.8-22.8C1208.6,494.7,1215.1,492.9,1220.7,499.2z"/>
			<path class="st0" d="M1158.3,558.7h31c8.4,0,11.3,2.8,11.3,11.3v177.6c0,8.4-2.9,11.3-11.3,11.3h-31c-8.4,0-11.2-2.9-11.2-11.3
				V570.1C1147,561.5,1149.8,558.7,1158.3,558.7z"/>
			<path class="st0" d="M1399.4,558.7h31c8.4,0,11.3,2.8,11.3,11.3v177.6c0,8.4-2.9,11.3-11.3,11.3h-31c-8.5,0-11.3-2.9-11.3-11.3
				V570.1C1388.2,561.5,1390.9,558.7,1399.4,558.7z"/>
			<path class="st0" d="M1374.3,637.7V680c0,48.5-31,79-86.5,79h-62.1c-9.1,0-12.2-3.2-12.2-11.9V570.6c0-8.7,3.1-11.8,12.2-11.8
				h62.1C1343.3,558.7,1374.3,588.9,1374.3,637.7z M1285.8,608.1h-16.4v101.5h16.4c22.9,0,34.9-10.4,34.9-30.5v-40.6
				C1320.7,618.5,1308.7,608.1,1285.8,608.1z"/>
			<path class="st0" d="M1629.9,759h-29.6c-14.7,0-18.9-3.2-21.2-11.9l-6.5-20.3h-53.9l-6.5,20.3c-2.8,8.7-6.5,11.9-20.6,11.9h-31.2
				c-8.8,0-10.4-4-7.6-11.6l64.8-178.8c2.9-8.2,6.5-9.9,14.7-9.9h25.8c8.2,0,11.8,2,14.6,9.3l65.2,179.4
				C1640.9,755,1638.3,759,1629.9,759z M1545.9,610L1545.9,610c0,0,0.3,20.3-5.3,39.2l-8.6,33.3h26.8l-8-33
				C1545.1,630.4,1545.9,610,1545.9,610z"/>
			<path class="st0" d="M1721.9,554.5c41.7,0,65.4,12.4,78.6,39.5c3.9,8.2,1.7,12.4-6.8,15.8l-28.2,12.2c-7.6,3.4-10.7,2.3-15.2-6
				c-5.4-10.7-15.5-14.6-28.4-14.6c-19.2,0-26.8,4.8-26.8,14.6c0,12.1,16.7,14.7,37,17.2c32.7,4.5,75,12.4,75,65.7
				c0,41.4-37.5,64.3-87.4,64.3c-42,0-71.3-14.4-82-43.7c-3.1-8.4-0.6-12.4,7.6-15.5l26.5-9.5c8.5-2.8,12.4-2,16.7,6.2
				c5,9.9,16.1,14.9,31.8,14.9c18.9,0,30.2-4,30.2-16c0-11-14.4-14.1-33-16.7c-33-4.5-79.2-10.5-79.2-65.2
				C1638.1,580.5,1668,554.5,1721.9,554.5z"/>
			<rect x="355.4" y="558.3" class="st0" width="26" height="200.8"/>
			<path class="st0" d="M583.4,570.3v176.8c0,8.8-3.1,11.9-11.9,11.9h-30c-8.7,0-11.9-3.1-11.9-11.9v-65h-53.8v65
				c0,8.8-2.8,11.9-11.9,11.9h-29.7c-9.1,0-12.2-3.1-12.2-11.9V570.3c0-9,3.1-12.2,12.2-12.2H464c9,0,11.9,3.1,11.9,12.2v62.4h53.8
				v-62.4c0-9,3.1-12.2,11.9-12.2h30C580.3,558.1,583.4,561.3,583.4,570.3z"/>
			<path class="st0" d="M677,554.2c55.7,0,80.1,32.7,80.1,81.6v50.8c0,48.9-24.5,76.6-80.1,76.6c-55.9,0-80.6-30.2-80.6-79.1v-50.8
				C596.3,584.4,621.1,554.2,677,554.2z M677,603.6c-19.8,0-26.9,9.3-26.9,27.1v55.9c0,17.8,7.1,27.1,26.9,27.1
				c19.5,0,26.8-6.8,26.8-24.7v-55.9C703.8,615.4,696.5,603.6,677,603.6z"/>
			<path class="st0" d="M919.7,570.3v25.5c0,9-3.1,12.1-12.1,12.1H866v139.2c0,8.8-3.1,11.9-12.2,11.9H824
				c-9.1,0-11.9-3.1-11.9-11.9V607.8h-41.9c-9.1,0-11.9-3.1-11.9-12.1v-25.5c0-8.7,2.8-11.8,11.9-11.8h137.2
				C916.6,558.4,919.7,561.5,919.7,570.3z"/>
		</g>
		<g>
			<g>
				<path class="st0" d="M213.6,592c-36.7,0-66.4,29.7-66.4,66.4s29.7,66.4,66.4,66.4s66.4-29.7,66.4-66.4
					C280.1,621.8,250.3,592,213.6,592z M239,661.5l-32.1,32.1c-2.3,2.3-3.9,2.3-6.3-0.1l0.1-70.4c2.3-2.3,3.9-2.3,6.2,0.1l32,32
					C241.3,657.6,241.3,659.3,239,661.5z"/>
				<path class="st0" d="M290.3,606.7c-7.8-9-19-17.5-23.9-22.2c-4.6-4.3-9.8-11-9.8-17.1c-6.2-2.6-13.1-5.1-20.5-6.9
					c6-12.7,17.7-49.9-20.6-96.9c0,0,4,10.8,4,35.4c0,21.4-21.2,47.9-34.5,62.2c7.8-14.3,9.1-40.8-20.4-66.3c0,0,9.4,9.4,9.4,33.9
					c0,19.5-38.7,50.3-54.4,93.8c-3.5,9.2-5.7,19.1-6.3,29.5c0,0.2,0,0.3,0,0.5c-0.1,1.9-0.2,3.8-0.2,5.7
					c0,55.6,45.1,100.6,100.6,100.6c54.3,0,98.5-43,100.5-96.7C314.2,638.2,296.3,612.8,290.3,606.7z M213.6,739
					c-44.5,0-80.5-36.1-80.5-80.5c0-44.5,36.1-80.5,80.5-80.5c44.5,0,80.5,36.1,80.5,80.5C294.2,702.9,258.1,739,213.6,739z"/>
				<path class="st0" d="M308.7,625.5c0,0-5.5-22.4-18.6-37.2s-12.1-34-12.1-34c0.2-8,6.8-14.8,14.8-14.8c8.2,0,14.8,6.6,14.8,14.8
					c0,1.2-0.2,2.4-0.5,3.6c2.2-3.6,3.5-7.8,3.5-12.4c0-13.1-10.6-23.8-23.8-23.8c-1,0-1.9,0.1-2.9,0.2
					c-19.2,1.9-23.6,22.9-23.6,29.2c0,12.5,3.4,19.7,27.3,43.4C297.8,604.6,301.8,609.8,308.7,625.5z"/>
			</g>
			<g>
				<g>
					<g>
						<path id="SVGID_83_" class="st0" d="M213.7,592c-36.7,0-66.4,29.7-66.4,66.4s29.7,66.4,66.4,66.4s66.4-29.7,66.4-66.4
							C280.1,621.8,250.4,592,213.7,592z M239.1,661.5L207,693.6c-2.3,2.3-3.9,2.3-6.3-0.1l0.1-70.4c2.3-2.3,3.9-2.3,6.2,0.1l32,32
							C241.3,657.6,241.3,659.3,239.1,661.5z"/>
					</g>
				</g>
				<g>
					<g>
						<path id="SVGID_85_" class="st0" d="M290.4,606.7c-7.8-9-19-17.5-23.9-22.2c-4.6-4.3-9.8-11-9.8-17.1
							c-6.2-2.6-13.1-5.1-20.5-6.9c6-12.7,17.7-49.9-20.6-96.9c0,0,4,10.8,4,35.4c0,21.4-21.2,47.9-34.5,62.2
							c7.8-14.3,9.1-40.8-20.4-66.3c0,0,9.4,9.4,9.4,33.9c0,19.5-38.7,50.3-54.4,93.8c-3.5,9.2-5.7,19.1-6.3,29.5c0,0.2,0,0.3,0,0.5
							c-0.1,1.9-0.2,3.8-0.2,5.7c0,55.6,45.1,100.6,100.6,100.6c54.3,0,98.5-43,100.5-96.7C314.2,638.2,296.4,612.8,290.4,606.7z
							 M213.7,739c-44.5,0-80.5-36.1-80.5-80.5c0-44.5,36.1-80.5,80.5-80.5s80.5,36.1,80.5,80.5S258.2,739,213.7,739z"/>
					</g>
				</g>
				<g>
					<g>
						<path id="SVGID_87_" class="st0" d="M308.7,625.5c0,0-5.5-22.4-18.6-37.2s-12.1-34-12.1-34c0.2-8,6.8-14.8,14.8-14.8
							c8.2,0,14.8,6.6,14.8,14.8c0,1.2-0.2,2.4-0.5,3.6c2.2-3.6,3.5-7.8,3.5-12.4c0-13.1-10.6-23.8-23.8-23.8c-1,0-1.9,0.1-2.9,0.2
							c-19.2,1.9-23.6,22.9-23.6,29.2c0,12.5,3.4,19.7,27.3,43.4C297.9,604.6,301.9,609.8,308.7,625.5z"/>
					</g>
				</g>
			</g>
		</g>
	</g>
</g>
</svg>
