<?xml version="1.0" encoding="utf-8"?>
<!-- Generator: Adobe Illustrator 22.0.1, SVG Export Plug-In . SVG Version: 6.00 Build 0)  -->
<svg version="1.1" id="Camada_1" xmlns="http://www.w3.org/2000/svg" xmlns:xlink="http://www.w3.org/1999/xlink" x="0px" y="0px"
	 viewBox="0 0 500 500" style="enable-background:new 0 0 500 500;" xml:space="preserve">
<style type="text/css">
	.st0{display:none;}
	.st1{display:inline;}
	.st2{fill:#56B7E0;}
	.st3{fill:none;}
	.st4{fill:#D51248;}
	.st5{fill:#FFCC07;}
	.st6{fill:#E52629;}
	.st7{display:inline;fill:#D51248;}
	.st8{display:inline;fill:#FFCC07;}
	.st9{display:inline;fill:#56B7E0;}
	.st10{display:inline;fill:#FFFFFF;}
	.st11{fill:#FFFFFF;}
	.st12{fill:#FEFFFF;}
</style>
<g id="Camada_12" class="st0">
	<g class="st1">
		<path class="st2" d="M54.7,596.2l28.9-16.6v64.7H54.7V596.2z"/>
		<path class="st3" d="M271.4,573.8c-7.3,0-13,2.2-17.1,6.6c-4,4.4-6.1,10.1-6.1,17.2c0,7.1,2,12.8,6.1,17.2c4,4.4,9.7,6.6,17.1,6.6
			s13-2.2,17.1-6.6c4-4.4,6.1-10.1,6.1-17.2c0-7.1-2-12.8-6.1-17.2C284.4,576,278.7,573.8,271.4,573.8z"/>
		<path class="st2" d="M500.5,507.9h77l-47,27v15.6h31.2v27.8h-31.2v66.2h-30.1L500.5,507.9L500.5,507.9z"/>
		<path class="st4" d="M54.7,533.4L83.6,550v29.6l-28.9,16.6C54.7,596.2,54.7,533.4,54.7,533.4z"/>
		<path class="st4" d="M393.2,650.9l-10.8,5.7l2.1-12l-8.7-8.5l12.1-1.8l5.4-10.9l5.4,10.9l12.1,1.8l-8.7,8.5l2.1,12L393.2,650.9
			L393.2,650.9z"/>
		<path class="st3" d="M288.5,580.3c-4-4.4-9.7-6.6-17.1-6.6s-13,2.2-17.1,6.6c-4,4.4-6.1,10.1-6.1,17.2c0,7.1,2,12.8,6.1,17.2
			c2.2,2.4,5,4.1,8.3,5.2l31.6-18.1c0.2-1.4,0.3-2.7,0.3-4.2C294.5,590.4,292.5,584.7,288.5,580.3z"/>
		<path class="st5" d="M254.3,614.6c-4-4.4-6.1-10.1-6.1-17.2c0-7.1,2-12.8,6.1-17.2c4-4.4,9.7-6.6,17.1-6.6s13,2.2,17.1,6.6
			c4,4.4,6.1,10.1,6.1,17.2c0,1.5-0.1,2.9-0.3,4.2l27.9-16c-0.7-2.9-1.5-5.8-2.7-8.4c-2.7-6-6.4-11.2-11.1-15.5s-10.2-7.6-16.6-9.9
			c-6.4-2.3-13.1-3.5-20.3-3.5c-7.2,0-14,1.2-20.3,3.5c-6.4,2.3-11.9,5.6-16.6,9.9c-4.7,4.3-8.4,9.5-11.1,15.5c-2.7,6-4,12.8-4,20.2
			c0,7.5,1.3,14.2,4,20.2s6.4,11.2,11.1,15.5c0.6,0.6,1.3,1.1,1.9,1.6l26.2-15C259.4,618.7,256.6,617.1,254.3,614.6L254.3,614.6z"/>
		<path class="st4" d="M271.4,646.6c7.2,0,14-1.2,20.3-3.5c6.4-2.3,11.9-5.6,16.6-9.9c4.7-4.3,8.4-9.5,11.1-15.5s4-12.8,4-20.2
			c0-4-0.4-7.9-1.3-11.8l-27.9,16c-0.7,5.1-2.6,9.5-5.8,12.9c-4,4.4-9.7,6.6-17.1,6.6c-3.3,0-6.2-0.5-8.8-1.4l-26.2,15
			c4.3,3.5,9.1,6.3,14.6,8.3C257.4,645.5,264.2,646.6,271.4,646.6L271.4,646.6z"/>
		<path class="st5" d="M173.2,597.5c0-7.1,2-12.8,6.1-17.2c4-4.4,9.7-6.6,17.1-6.6c3,0,5.7,0.7,8.3,2s4.6,3.1,6,5.1l19.1-20
			c-4.5-4.6-9.8-7.9-15.9-9.7c-6.1-1.9-11.9-2.8-17.4-2.8c-7.2,0-14,1.2-20.3,3.5c-6.4,2.3-11.9,5.6-16.6,9.9
			c-4.7,4.3-8.4,9.5-11.1,15.5c-1.2,2.6-2.1,5.4-2.7,8.3l27.9,16C173.3,600.3,173.2,598.9,173.2,597.5L173.2,597.5z"/>
		<path class="st6" d="M229,633.4l-24.7-14.2l0,0L229,633.4L229,633.4z"/>
		<path class="st2" d="M159.4,633.2c4.7,4.3,10.2,7.6,16.6,9.9c6.4,2.3,13.1,3.5,20.3,3.5c5.5,0,11.3-0.9,17.4-2.8
			c6.1-1.9,11.4-5.1,15.9-9.7l-0.6-0.7l-24.7-14.2c-2.2,1.3-4.9,2-8,2c-7.3,0-13-2.2-17.1-6.6c-3.2-3.5-5.1-7.9-5.8-13.1l-27.9-16
			c-0.9,3.9-1.3,7.9-1.3,11.9c0,7.5,1.3,14.2,4,20.2C151,623.8,154.7,628.9,159.4,633.2L159.4,633.2z"/>
		<path class="st5" d="M116.5,568.9l-0.2-18.5H87.4v1.8L116.5,568.9z"/>
		<path class="st4" d="M496.7,644.3l-29-16.9L430.2,606v38.3H496.7L496.7,644.3z"/>
		<path class="st4" d="M50.8,531.6l-26-14.9l-32.4,87.7l-35.9-96.5h-34.3L-21.5,640l36.4-20.9L50.8,531.6z"/>
		<path class="st2" d="M4.4,644.3L14.8,619l-36.4,20.9l1.9,4.4L4.4,644.3L4.4,644.3z"/>
		<path class="st4" d="M87.4,552.2v25.2l21.9-12.6L87.4,552.2z"/>
		<path class="st2" d="M90,631.4c1.7,3.6,4.1,6.5,7.2,8.8s6.7,3.9,10.8,4.9c4.1,1,8.6,1.5,13.5,1.5c3.3,0,6.7-0.2,10.2-0.6
			c3.4-0.4,6.8-1.2,10-2.3v-24.1c-1.3,1.2-3.2,1.9-5.7,2.2s-4.5,0.5-6.1,0.5c-3.1,0-5.6-0.4-7.4-1.3c-1.9-0.8-3.2-2-4.1-3.6
			c-0.9-1.5-1.5-3.4-1.7-5.5c-0.3-2.1-0.4-4.5-0.4-7l0.2-21.6h25.3l-32.4-18.6l-21.9,12.6v40.9C87.4,623.4,88.3,627.8,90,631.4z"/>
		<path class="st4" d="M358.4,564.9l-31.1,17.9v61.5h28.9v-39.1c0-4.6,0.3-8.9,0.8-12.7c0.5-3.9,1.6-7.2,3.4-9.9
			c1.7-2.8,4.2-4.9,7.4-6.5c1.9-0.9,4.2-1.5,6.9-1.9L358.4,564.9L358.4,564.9z"/>
		<path class="st5" d="M380.9,573.8c2.2,0,4.3,0.2,6.3,0.5s4,0.8,6.1,1.4v-26.4c-1.4-0.4-3-1.6-4.7-1.7l-30.1,17.3l16.3,9.3
			C376.7,573.9,378.8,573.8,380.9,573.8z"/>
		<path class="st5" d="M460.3,623.3V506.5l-30.1,17.2V606L460.3,623.3L460.3,623.3z"/>
	</g>
</g>
<g id="Camada_13" class="st0">
	<polygon class="st7" points="0,0 500,500 0,500 	"/>
	<polygon class="st8" points="500,0 249.8,250.3 -0.3,0.3 	"/>
	<polygon class="st9" points="500,0 500,500 250,250 	"/>
</g>
<g id="Burguer" class="st0">
	<path class="st10" d="M381.1,281H118.9c-17.1,0-31-13.9-31-31l0,0c0-17.1,13.9-31,31-31h262.2c17.1,0,31,13.9,31,31l0,0
		C412.1,267.1,398.2,281,381.1,281z"/>
	<path class="st10" d="M381.1,179.7H118.9c-17.1,0-31-13.9-31-31l0,0c0-17.1,13.9-31,31-31h262.2c17.1,0,31,13.9,31,31l0,0
		C412.1,165.8,398.2,179.7,381.1,179.7z"/>
	<path class="st10" d="M381.1,382.3H118.9c-17.1,0-31-13.9-31-31l0,0c0-17.1,13.9-31,31-31h262.2c17.1,0,31,13.9,31,31l0,0
		C412.1,368.4,398.2,382.3,381.1,382.3z"/>
</g>
<g id="X" class="st0">
	
		<rect x="220" y="93.6" transform="matrix(0.7071 -0.7071 0.7071 0.7071 -103.5863 249.9805)" class="st10" width="59.9" height="312.8"/>
	
		<rect x="93.6" y="219.7" transform="matrix(0.7071 -0.7071 0.7071 0.7071 -103.3003 249.9016)" class="st10" width="312.8" height="59.9"/>
</g>
<g id="_x3E_" class="st0">
	<path class="st10" d="M381.6,232.5L381.6,232.5c-2.8-4-6.4-7.2-10.4-9.4L161.9,77.8c-13.9-9.6-32.9-6.2-42.5,7.7l0,0
		c-9.6,13.9-6.2,32.9,7.7,42.5l175.7,122L127.1,372c-13.9,9.6-17.3,28.7-7.7,42.5l0,0c9.6,13.9,28.7,17.3,42.5,7.7l209.2-145.3
		c4-2.2,7.6-5.3,10.4-9.4l0,0c3.7-5.4,5.5-11.5,5.5-17.5C387.1,243.9,385.3,237.8,381.6,232.5z"/>
</g>
<g id="_x3C_" class="st0">
	<path class="st10" d="M118.2,232.5L118.2,232.5c2.8-4,6.4-7.2,10.4-9.4L337.9,77.8c13.9-9.6,32.9-6.2,42.5,7.7l0,0
		c9.6,13.9,6.2,32.9-7.7,42.5L197,250l175.7,122c13.9,9.6,17.3,28.7,7.7,42.5l0,0c-9.6,13.9-28.7,17.3-42.5,7.7L128.7,276.9
		c-4-2.2-7.6-5.3-10.4-9.4l0,0c-3.7-5.4-5.5-11.5-5.5-17.5C112.8,243.9,114.5,237.8,118.2,232.5z"/>
</g>
<g id="Instagram" class="st0">
	<g class="st1">
		<path class="st11" d="M253.5,79c20.5,0,41-0.4,61.5,0.1c19.6,0.5,38.9,2.8,56.6,12.3c24.9,13.3,40,34,46,61.4
			c3,13.9,3.9,28,4,42.2c0.1,40.5,0.7,81-0.3,121.4c-0.4,17.2-2.8,34.3-10.3,50.1c-14.1,29.8-38.3,46.1-70.3,51.4
			c-14,2.3-28.2,2.6-42.3,2.8c-26.5,0.5-53,0.8-79.5-0.1c-20.4-0.7-40.9-0.1-61.2-3.6c-27.5-4.9-49-18.9-63.3-42.7
			c-7.6-12.6-11.7-26.9-12.9-41.7c-3.5-41.9-2-83.9-1.7-125.9c0.1-16.1,0.2-32.3,3.1-48.3c7.8-42,34.2-68.8,76.4-76.6
			c12.2-2.3,24.5-2.7,36.8-2.9C215.2,78.7,234.3,78.9,253.5,79C253.5,78.9,253.5,78.9,253.5,79z M111.6,247.1c-0.1,0-0.1,0-0.2,0
			c0,15.2-0.1,30.3,0,45.5c0.1,15,0,30,3,44.8c4.4,21.7,16.3,37.3,37.5,45.6c13.1,5.1,26.8,5.6,40.3,5.8c34.5,0.5,69,0.3,103.5,0.1
			c12.8-0.1,25.6-0.5,38.4-2.1c29.4-3.8,48.8-23.3,53.5-52.4c2.5-15.6,1.8-31.2,2.4-46.8c0.9-22.3,0.3-44.6,0.2-67
			c-0.1-17.3-0.1-34.7-2.1-51.9c-3.6-31.6-22.3-51.2-53.2-56.2c-12.7-2-25.6-2-38.4-2.2c-32.1-0.5-64.3-0.4-96.5,0
			c-10.4,0.1-21,0.4-31.4,1.8c-30.2,4-49.6,21.9-54.8,51.2c-1.5,8.7-2.2,17.5-2.3,26.3C111.5,208.7,111.6,227.9,111.6,247.1z"/>
		<path class="st11" d="M251.2,161.7c47.9-0.3,88.2,37.8,87.9,88.5c-0.3,49.4-38.7,86.4-86,87.7c-51.8,1.4-90.5-39.9-90.6-87.9
			C162.4,199.8,203.5,160.6,251.2,161.7z M194.5,249.8c-0.1,30.4,25.5,56,56.1,56.1c31.1,0.1,56.5-25.3,56.7-56.7
			c0.1-29.9-25.5-55.9-55.2-56.1C220.1,192.9,194.6,218.1,194.5,249.8z"/>
		<path class="st11" d="M362.6,159c-0.1,11.8-9.4,20.6-21.6,20.5c-10.9-0.1-20.1-9.4-20.2-20.5c-0.1-11.9,9.3-21.3,21.1-21.3
			C354.2,137.8,362.7,146.5,362.6,159z"/>
	</g>
</g>
<g id="Instagram_C" class="st0">
	<g class="st1">
		<path class="st4" d="M334.2,386.7c-12.7,1.6-25.6,2.1-38.4,2.1c-34.5,0.1-69,0.4-103.5-0.1c-13.5-0.2-27.2-0.7-40.3-5.8
			c-21.2-8.2-33.2-23.8-37.5-45.6c-3-14.8-2.9-29.8-3-44.8c-0.1-15.2,0-30.3,0-45.5c0.1,0,0.1,0,0.2,0c0-19.2-0.2-38.3,0.1-57.5
			c0.1-8.8,0.7-17.6,2.3-26.3c2.4-13.4,7.7-24.3,15.7-32.7l-22.3-22.3C95.1,121,86.8,137.9,83,158.4c-3,16-3,32.2-3.1,48.3
			c-0.3,42-1.8,84,1.7,125.9c1.2,14.8,5.3,29.1,12.9,41.7c14.4,23.8,35.8,37.8,63.3,42.7c20.3,3.6,40.8,3,61.2,3.6
			c26.5,0.9,53,0.6,79.5,0.1c14.1-0.3,28.3-0.6,42.3-2.8c20.8-3.4,38.3-11.5,51.9-24.9L370,370.3
			C360.8,379.1,348.7,384.8,334.2,386.7z"/>
		<path class="st4" d="M253.1,337.9c23.1-0.6,44.1-9.8,59.6-24.8l-22.9-22.9c-10.2,9.8-24,15.8-39.1,15.8
			c-30.6-0.1-56.2-25.6-56.1-56.1c0-15.2,5.9-28.8,15.5-39l-22.7-22.7C172,204,162.5,225.7,162.5,250
			C162.6,298,201.3,339.3,253.1,337.9z"/>
		<path class="st5" d="M315,79.1c-20.5-0.6-41-0.1-61.5-0.1v-0.1c-19.2,0-38.3-0.2-57.5,0.1c-12.3,0.2-24.7,0.6-36.8,2.9
			c-21.4,4-38.7,12.9-51.6,26.1l22.3,22.3c9.5-9.8,22.6-16,38.9-18.2c10.4-1.4,20.9-1.7,31.4-1.8c32.2-0.4,64.3-0.5,96.5,0
			c12.8,0.2,25.7,0.1,38.4,2.2c14.9,2.4,27,8.3,36,17.2l22.4-22.4c-6.2-6.1-13.4-11.4-21.8-15.9C353.9,81.9,334.5,79.6,315,79.1z"/>
		<path class="st5" d="M252,193.1c14.8,0.1,28.6,6.6,38.7,16.8l22.8-22.8c-16-16-38.2-25.6-62.3-25.4c-24.5-0.6-47.3,9.5-63.6,26.3
			l22.7,22.7C220.7,199.7,235.5,193,252,193.1z"/>
		<path class="st5" d="M341.8,137.8c-11.9,0-21.2,9.4-21.1,21.3c0,5.7,2.5,10.9,6.3,14.6l29.9-29.9C353.3,140,348,137.8,341.8,137.8
			z"/>
		<path class="st5" d="M129.9,130.3L107.6,108c-0.1,0.1-0.2,0.2-0.2,0.3l22.3,22.3C129.7,130.4,129.8,130.3,129.9,130.3z"/>
		<path class="st5" d="M210.2,210.6L187.6,188c-0.1,0.1-0.2,0.2-0.2,0.3l22.7,22.7C210.1,210.8,210.2,210.7,210.2,210.6z"/>
		<path class="st2" d="M388.2,168.6c2,17.2,2,34.6,2.1,51.9c0.1,22.3,0.7,44.7-0.2,67c-0.6,15.6,0.1,31.2-2.4,46.8
			c-2.4,14.7-8.5,27-17.8,36l22.7,22.7c7.3-7.2,13.5-16,18.4-26.4c7.5-15.8,9.9-32.9,10.3-50.1c1-40.5,0.4-81,0.3-121.4
			c0-14.2-0.9-28.3-4-42.2c-4-18.3-12-33.5-24.2-45.6L371,129.7C380.5,139.2,386.3,152.3,388.2,168.6z"/>
		<path class="st2" d="M307.3,249.2c-0.1,16.1-6.8,30.6-17.5,40.9l22.9,22.9c16.1-15.7,26.2-37.6,26.4-62.8
			c0.2-25.2-9.7-47.3-25.5-63.1l-22.8,22.8C300.9,220.2,307.3,234.2,307.3,249.2z"/>
		<path class="st2" d="M362.6,159c0-6.2-2.1-11.5-5.7-15.3L327,173.6c3.7,3.6,8.6,5.9,13.9,5.9C353.2,179.6,362.5,170.8,362.6,159z"
			/>
	</g>
</g>
<g id="Twitter" class="st0">
	<g class="st1">
		<path class="st12" d="M166.3,345.9c-39.3-4.1-64.8-23.6-79.4-59c12.2-0.3,23.5,2.1,36-2.7c-41.6-13.3-63.1-41-66.5-84.2
			c12.4,3.3,22.7,10,36.3,8.4c-36.5-31.7-43.8-69-24.2-113.7c12.8,14.4,25.1,27.2,39.1,38C145,161.6,187,178.9,234.1,184
			c8.6,0.9,11.6-0.3,10.7-10.4c-3.7-45.4,23.9-83.7,66.8-92.2c27.7-5.5,53.6,0.1,75.3,19.3c5.2,4.6,9.7,5,15.9,3.4
			c15-3.8,28.8-10.4,43.7-17.6c-5.9,19.8-18.2,33.3-35.7,46.1c17-1.9,30.3-5.9,46.3-11.9c-7.4,13.4-15.5,22.8-25.2,29.7
			c-12.5,8.9-15.3,19.7-16.4,34.6c-6.9,93.3-48.3,166.6-133.2,209.1c-76.9,38.5-155,34.4-231-6c-1.5-0.8-2.9-1.8-4.4-2.8
			c-0.5-0.4-0.9-0.9-3-3C89.1,384.3,129.3,373.9,166.3,345.9z"/>
	</g>
</g>
<g id="Twitter_C" class="st0">
	<g class="st1">
		<path class="st2" d="M418.6,157.5c9-6.4,16.5-15.1,23.4-27.5c-14.9,5.6-27.2,9.3-42.9,11c16.2-11.9,27.6-24.4,33.1-42.7
			c-13.8,6.7-26.7,12.8-40.5,16.3c-5.7,1.5-9.9,1.1-14.7-3.1c-20.1-17.7-44.1-23-69.8-17.9c-39.8,7.9-65.4,43.4-61.9,85.5
			c0.8,9.4-1.9,10.5-10,9.7c-21.9-2.4-42.6-7.6-62.2-15.5l77.3,77.3l0.3-0.3l89.9,89.9c38.5-38.9,58.5-90.2,63-150.6
			C404.5,175.8,407,165.8,418.6,157.5z"/>
		<path class="st5" d="M163.3,337.6L144.8,356c9.4-4.7,18.6-10.3,27.6-17.1C169.3,338.6,166.2,338.1,163.3,337.6z"/>
		<path class="st5" d="M163.3,337.6c2.9,0.5,6,1,9.1,1.3c-9,6.8-18.1,12.5-27.6,17.1l-39.3,39.3c57.8,20,116.5,17.1,174.4-11.9
			c23.7-11.9,43.7-26.3,60.3-43.1l-89.9-89.9L163.3,337.6z"/>
		<path class="st5" d="M250.4,250.5l89.9,89.9c0.1-0.1,0.2-0.2,0.2-0.3l-89.9-89.9L250.4,250.5z"/>
		<path class="st4" d="M173.1,173.2c-19.5-7.9-37.8-18.6-55.1-32c-13-10.1-24.4-21.9-36.3-35.3c-18.2,41.4-11.4,76,22.4,105.4
			c-12.6,1.5-22.1-4.8-33.6-7.8c3.1,40,23.1,65.7,61.6,78c-11.5,4.5-22.1,2.3-33.3,2.5c12.4,30,33.2,47.6,64.6,53.4l87.1-87.1
			L173.1,173.2z"/>
		<path class="st4" d="M59,372.5c1.9,1.9,2.3,2.4,2.8,2.8c1.3,0.9,2.6,1.8,4,2.6c13.2,7,26.4,12.8,39.7,17.5l39.3-39.3
			C118.3,369.2,89.9,374,59,372.5z"/>
	</g>
</g>
<g id="Facebook" class="st0">
	<path class="st10" d="M337.9,95.3c0-2.3-0.6-3.1-3-3.5c-10.2-1.3-20.4-2.4-30.6-3.3c-13.6-1.1-26.9-0.5-40,3.5
		c-16.9,5.2-29.9,15.7-38.4,31.1c-7,12.6-9.5,26.6-9.7,40.9c-0.3,14.6-0.2,29.2,0,43.8c0,3.3-0.6,4.5-4.3,4.5c-13-0.3-26-0.1-39-0.1
		c-10.3,0-9.5-1.9-9.5,9.5c0,9.5,0.1,19.1,0.1,28.6c0,5.5,0,11.6-0.1,17.1c0,3.1,0.9,3.7,3.8,3.7c15-0.1,29.9,0,44.9-0.1
		c3,0,4,0.6,4,3.9C216,321.9,216,369,216,416c11.3,0,22.6,0,33.9,0c9.7,0,19.3,0,29,0c0-47.1,0-94.2,0-141.2c0-3,0.7-3.8,3.7-3.7
		c13.5,0.2,27.1,0,40.6,0.2c3,0,3.8-1.1,4.2-3.7c0.8-5.6,1.8-11.8,2.7-17.4c1.1-7,2.2-14,3.3-21.1c0.6-4.2,1-8.4,1.9-12.6
		c0.7-3.2,0.2-4.4-3.5-4.4c-16.4,0.2-32.9,0-49.3,0.1c-2.4,0-3.5-0.3-3.5-3.2c0.2-12.5,0-24.9,0.1-37.4c0.1-5.7,1.3-11.3,4.5-16.2
		c6.2-9.6,15.7-13,26.6-13.3c8.2-0.2,16.4-0.1,24.7,0c2.4,0,3.2-0.6,3.2-3.1C337.8,124.5,337.8,109.9,337.9,95.3z"/>
</g>
<g id="Facebook_C" class="st0">
	<g class="st1">
		<path class="st4" d="M335.1,216.6c0.7-3.2,0.2-4.4-3.5-4.4c-16.4,0.2-32.9,0-49.3,0.1c-2.4,0-3.5-0.3-3.5-3.2
			c0.2-12.5,0-24.9,0.1-37.4c0.1-5.7,1.3-11.3,4.5-16.2c6.2-9.6,15.7-13,26.6-13.3c8.2-0.2,16.4-0.1,24.7,0c2.4,0,3.2-0.6,3.2-3.1
			c-0.1-14.6-0.1-29.2,0-43.8c0-2.3-0.6-3.1-3-3.5c-10.2-1.3-20.4-2.4-30.6-3.3c-13.6-1.1-26.9-0.5-40,3.5
			c-16.9,5.2-29.9,15.7-38.4,31.1c-7,12.6-9.5,26.6-9.7,40.9c-0.3,14.6-0.2,29.2,0,43.8c0,3.3-0.6,4.5-4.3,4.5
			c-13-0.3-26-0.1-39-0.1c-10.3,0-9.5-1.9-9.5,9.5c0,9.6,0.1,19.2,0.1,28.8H250v-0.4h80c1.1-7,2.2-14.1,3.3-21.1
			C333.9,224.9,334.3,220.7,335.1,216.6z"/>
		<path class="st5" d="M249.9,416.1c9.7,0,19.3,0,29,0c0-47.1,0-94.2,0-141.2c0-3,0.7-3.8,3.7-3.7c13.5,0.2,27.1,0,40.6,0.2
			c3,0,3.8-1.1,4.2-3.7c0.8-5.7,1.8-11.9,2.7-17.6h-80L249.9,416.1z"/>
		<path class="st2" d="M163.4,250c0,5.6,0,11.9-0.1,17.5c0,3.1,0.9,3.7,3.8,3.7c15-0.1,29.9,0,44.9-0.1c3,0,4,0.6,4,3.9
			c-0.1,47-0.1,94.1-0.1,141.1c11.3,0,22.6,0,33.9,0L250,250H163.4z"/>
	</g>
</g>
<g id="Telegram" class="st0">
	<g class="st1">
		<path class="st4" d="M200.7,156c-0.9,0-1.8,0-2.7,0c0,0.7,0.1,1.3,0.1,2C199,157.3,199.9,156.7,200.7,156z"/>
		<path class="st4" d="M183.9,269.2c-1.2-3.8,1.5-4.7,3.7-6.1c21.3-13.6,42.6-27.3,64-40.8c33.8-21.5,67.7-43,101.5-64.5
			c1.1-0.7,2.2-1.3,3.2-2c2.2-1.4,4.5-2.2,6.2,0.3s-0.6,3.9-2.1,5.4c-16.3,14.9-32.6,29.7-48.9,44.5c-31.8,28.7-63.6,57.5-95.4,86.1
			c-2.6,2.3-3.8,4.8-4,8.3c-0.4,5.5-1,11-1.5,16.5l56.1-56.1l-0.3-0.3L421,105.8c-3.9-2.8-8-2.1-12.6-0.4
			C300.6,145.6,192.8,185.7,85,225.9c-7,2.6-9.9,6.3-9.7,12.1c0.3,5.6,3.2,8.9,10.1,11c24.3,7.6,48.6,15.2,72.9,22.6
			c3.8,1.2,5.8,3,7.1,7c6.8,20.8,14,41.6,20.7,62.4l15-15C195.5,307,189.8,288.1,183.9,269.2z M338.6,156c0.8,1.6,0,2.2-1.4,2.4
			c-1.9,0.2-3.4-0.3-4-2.4C335,156,336.8,156,338.6,156z"/>
		<path class="st4" d="M337.2,158.4c1.4-0.1,2.3-0.8,1.4-2.4c-1.8,0-3.6,0-5.4,0C333.7,158.1,335.3,158.6,337.2,158.4z"/>
		<path class="st5" d="M373.3,367.5c17.2-82.3,34.5-164.7,51.8-247c1.1-5.1,1.4-9.6-2.8-13.5c-0.4-0.3-0.7-0.6-1.1-0.9L266.6,260.7
			L373.3,367.5z"/>
		<path class="st5" d="M266.3,260.5l0.3,0.3L421.3,106c-0.1-0.1-0.2-0.1-0.3-0.2L266.3,260.5z"/>
		<path class="st2" d="M210.5,316.8c-0.9,9.1-1.8,18.1-2.7,27.2c-0.3,0-0.6,0.1-0.9,0.1c-1.9-6-3.7-12.1-5.5-18.1l-15,15
			c2.8,8.5,5.5,17.1,8,25.6c3.7,12.6,16,16.4,25.5,6.7c12.5-12.8,26-24.6,38.9-37c2.8-2.7,4.5-2.7,7.6-0.4
			c25.1,18.6,50.4,37,75.6,55.5c3.6,2.7,7.4,4.4,11.5,4.6c9.5,0,14.8-5,17-15.4c0.9-4.4,1.9-8.8,2.8-13.3L266.6,260.7L210.5,316.8z"
			/>
	</g>
</g>
<g id="Discord">
	<g>
		<path class="st4" d="M396.4,145.6c0-0.1-0.1-0.1-0.1-0.2C396.2,145.5,396.2,145.6,396.4,145.6z"/>
		<path class="st4" d="M98.5,145.5v0.1c0.2,0.1,0.3,0,0.3-0.2C98.7,145.3,98.6,145.4,98.5,145.5z"/>
		<path class="st5" d="M430.8,168.4c-4.8-11.9-10.1-23.6-16.1-34.9c-0.4-0.8-0.9-1.5-1.7-2c-20.2-14.9-42.4-25.9-66.7-32.4
			c-10.6-2.9-21.4-4.8-32.4-5.4c-1.3-0.1-2.7-0.3-3.9,0c-1.2,0.3-1.7,1.8-2.6,2.7c-0.6,0.7-1.2,1.3-1.8,2c-0.3,0.3-0.6,0.6-0.6,1.1
			c0.6,0.4,1.4,0.5,2.1,0.7c19.4,6,38.2,13.5,56.1,23.1c10.7,5.8,21.1,12.3,30.6,19.9c0.9,0.7,1.8,1.3,2.5,2.2l0,0l0,0
			c0,0.1,0.1,0.1,0.1,0.2c-0.2,0-0.2,0-0.1-0.2l0,0l0,0c-0.6,0.2-1.1-0.3-1.5-0.5c-13-6.9-26.5-12.9-40.4-17.8
			c-19.5-7-39.5-11.9-59.9-14.9c-12.1-1.8-24.2-2.8-36.4-3c-7.9-0.2-15.7-0.1-23.6,0.3c-4.5,0.3-9,0.6-13.4,1
			c-5.9,0.6-11.7,1.3-17.6,2c-14.7,1.8-29.3,4.7-43.5,8.8c-20.5,5.8-40.2,13.9-59.2,23.4c-0.6,0.3-1.1,0.8-1.9,0.8l0,0l0,0
			c0,0.2-0.1,0.2-0.3,0.2v-0.1c0.1-0.1,0.2-0.2,0.3-0.1l0,0l0,0c0-0.6,0.6-0.8,0.9-1.1c3-2.5,6.1-4.9,9.3-7.2
			c14.2-10.1,29.6-18.1,45.6-25c12.5-5.4,25.4-9.9,38.4-13.7c0.6-0.2,1.2-0.2,1.7-0.8c-0.8-1-1.7-1.8-2.4-2.8
			c-0.8-1.1-1.7-1.4-3.1-1.4c-8.5,0.3-16.9,1.5-25.2,3.3c-27.9,6-53.1,17.9-76.1,34.6c-0.7,0.5-1.2,1.1-1.6,1.9
			c-1.1,2.2-2.3,4.4-3.4,6.6c-10.8,22.1-19.7,44.9-27.1,68.3c-6.6,20.9-11.9,42.1-15.7,63.5h103c-0.1-9,2.4-17.3,7.8-25
			c5.7-8.1,13.4-13.4,23.2-15.3c12.1-2.2,22.8,0.9,31.8,9.1c8,7.4,12.2,16.7,12.9,27.5c0.1,0.8,0.1,1.6,0.1,2.4c0,0.3,0,0.6,0,1
			c0,0.1,0,0.2,0,0.2h31.5v-0.4H279c0.1-10,3.1-19,9.4-26.8c6.4-7.9,14.7-12.6,24.9-13.6c10.8-1,20.2,2.3,28.2,9.7
			c7.5,7,11.7,15.7,13,25.9c0.2,1.6,0.3,3.2,0.3,4.9h105.9c-1.3-7.3-2.8-14.5-4.4-21.7C450.1,221.9,441.5,194.8,430.8,168.4z"/>
		<path class="st4" d="M396.3,145.4L396.3,145.4L396.3,145.4L396.3,145.4L396.3,145.4z"/>
		<path class="st4" d="M98.8,145.4L98.8,145.4L98.8,145.4L98.8,145.4L98.8,145.4z"/>
		<path class="st2" d="M354.8,271.8c-0.2,11.7-4,22.1-12.4,30.4c-8,7.8-17.7,11.4-28.8,10.4c-9.8-0.9-17.9-5.4-24.3-12.8
			c-6.6-7.7-10-16.7-10.2-26.8c0-0.4,0-0.8,0-1.2h-28.5v99.9c5.8,0.1,11.7,0,17.5-0.4c8.5-0.5,17-1.4,25.5-2.7
			c13.2-2.1,26.2-5.3,38.9-9.2c7.6-2.4,15-5.3,22.5-8.2c11-4.2,21.5-9.2,31.6-15.2c3.2-1.9,6.4-3.9,9.6-5.9c0.1-0.1,0.3-0.2,0.4,0
			c0,0-0.1,0.1-0.2,0.2c-0.8,1.6-2,2.9-3.1,4.2c-6.9,8.3-15.1,15.2-24.1,21.1c-11.5,7.6-24,13.2-37.3,17.1c-0.7,0.2-1.4,0.2-2,0.8
			c0.4,0.5,0.8,1,1.1,1.4c3.9,4.7,7.8,9.5,11.7,14.2c3.5,4.3,7.1,8.5,10.6,12.8c0.7,0.9,1.4,1.3,2.6,1.1c0.3,0,0.5,0,0.8,0
			c10.3-0.5,20.5-1.8,30.6-4c20.5-4.7,39.3-13,56-26c9-7,17-14.9,23.5-24.2c0.7-1,1-2,1-3.2c-0.1-8.9-0.4-17.8-1-26.7
			c-0.7-9.3-1.6-18.6-2.8-27.9c-0.9-6.5-1.9-12.9-3-19.3L354.8,271.8L354.8,271.8z"/>
		<path class="st5" d="M445.5,357.7c-0.1-0.3-0.3-0.1-0.5,0c0.1,0.1,0.2,0.2,0.3,0.3C445.4,357.9,445.5,357.7,445.5,357.7z"/>
		<path class="st5" d="M279,271.5h-28.5v0.4H279C279,271.7,279,271.6,279,271.5z"/>
		<path class="st5" d="M354.8,271.8h106c0-0.1,0-0.2-0.1-0.4H354.8C354.8,271.6,354.8,271.7,354.8,271.8z"/>
		<path class="st2" d="M107.3,330C107.3,330,107.2,330.1,107.3,330c0,0.1,0,0.1,0.1,0.1C107.2,330,107.5,329.9,107.3,330z"/>
		<path class="st2" d="M107.4,330.1L107.4,330.1L107.4,330.1L107.4,330.1L107.4,330.1z"/>
		<path class="st4" d="M219,271.8c-0.1,9.2-2.6,17.8-8,25.3c-5.7,7.8-13.2,13-22.7,14.9c-11.1,2.2-21.2-0.4-30-7.6
			c-8.2-6.7-13-15.6-14.6-26.1c-0.3-2.2-0.5-4.4-0.5-6.6h-103c-2.4,13.3-4.1,26.7-5.3,40.2c-1,11.3-1.4,22.5-1.6,33.8
			c0,1.1,0.3,2,0.9,2.9c3.2,4.6,6.7,8.9,10.6,13c13.8,14.3,30.2,24.6,48.7,31.7c10.8,4.1,22,6.9,33.5,8.5c6.1,0.9,12.3,1.4,18.4,1.7
			c0.9,0,1.6-0.2,2.2-0.9c7.8-9.4,15.5-18.8,23.1-28.3c0.3-0.3,0.6-0.7,0.7-1.1c-0.5-0.4-1-0.5-1.5-0.6c-6.2-1.9-12.3-4.3-18.1-7
			c-13.9-6.5-26.5-15-37.2-26.2c-2.6-2.8-5.2-5.6-7.2-8.8c-0.1-0.2-0.2-0.3-0.1-0.5l0,0l0,0c-0.1,0.1-0.1,0.1-0.2,0c0,0,0,0,0.1-0.1
			c0.2-0.1-0.1,0,0.1,0.1l0,0l0,0c0.1,0.1,0.2,0.2,0.4,0.2c3.6,2,7.1,4.2,10.7,6.2c4.4,2.3,8.7,4.8,13.2,6.9
			c20.4,9.7,41.6,17,63.6,21.9c15.4,3.4,31,5.5,46.7,6.2c2.9,0.1,5.7,0.2,8.6,0.2v-99.9L219,271.8L219,271.8z M59.4,358.2
			c-0.1-0.2-0.3-0.4-0.1-0.6l0,0l0,0c-0.1,0.1-0.2,0.1-0.2,0c0,0,0-0.1,0.1-0.1h0.1l0,0c0,0-0.1,0.1,0.1,0.1l0,0l0,0l0,0l0,0l0,0
			l0,0c0.2,0.1,0.3,0.2,0.5,0.3C59.7,358,59.5,358.1,59.4,358.2z"/>
		<path class="st2" d="M59.3,357.5L59.3,357.5L59.3,357.5z"/>
		<path class="st2" d="M59.2,357.4L59.2,357.4L59.2,357.4z"/>
		<path class="st2" d="M59.3,357.5L59.3,357.5L59.3,357.5L59.3,357.5z"/>
		<path class="st2" d="M59.2,357.4L59.2,357.4c-0.1,0.1-0.2,0.1-0.2,0.1c0.1,0.1,0.1,0.1,0.2,0C59.1,357.5,59.2,357.4,59.2,357.4z"
			/>
		<path class="st2" d="M59.3,357.5L59.3,357.5L59.3,357.5L59.3,357.5z"/>
		<path class="st2" d="M59.4,358.2c0.1-0.1,0.3-0.2,0.4-0.3c-0.2-0.1-0.3-0.2-0.5-0.3C59.1,357.7,59.2,358,59.4,358.2z"/>
		<path class="st2" d="M59.3,357.5L59.3,357.5L59.3,357.5L59.3,357.5z"/>
	</g>
</g>
<g id="Camada_3">
</g>
</svg>
