<?xml version="1.0" encoding="utf-8"?>
<!-- Generator: Adobe Illustrator 22.0.1, SVG Export Plug-In . SVG Version: 6.00 Build 0)  -->
<svg version="1.1" id="Camada_1" xmlns="http://www.w3.org/2000/svg" xmlns:xlink="http://www.w3.org/1999/xlink" x="0px" y="0px"
	 viewBox="0 0 500 500" style="enable-background:new 0 0 500 500;" xml:space="preserve">
<style type="text/css">
	.st0{display:none;}
	.st1{display:inline;}
	.st2{fill:#56B7E0;}
	.st3{fill:none;}
	.st4{fill:#D51248;}
	.st5{fill:#FFCC07;}
	.st6{fill:#E52629;}
	.st7{display:inline;fill:#FFFFFF;}
</style>
<g id="Camada_12" class="st0">
	<g class="st1">
		<path class="st2" d="M54.7,596.2l28.9-16.6v64.7H54.7V596.2z"/>
		<path class="st3" d="M271.4,573.8c-7.3,0-13,2.2-17.1,6.6c-4,4.4-6.1,10.1-6.1,17.2c0,7.1,2,12.8,6.1,17.2c4,4.4,9.7,6.6,17.1,6.6
			s13-2.2,17.1-6.6c4-4.4,6.1-10.1,6.1-17.2c0-7.1-2-12.8-6.1-17.2C284.4,576,278.7,573.8,271.4,573.8z"/>
		<path class="st2" d="M500.5,507.9h77l-47,27v15.6h31.2v27.8h-31.2v66.2h-30.1L500.5,507.9L500.5,507.9z"/>
		<path class="st4" d="M54.7,533.4L83.6,550v29.6l-28.9,16.6C54.7,596.2,54.7,533.4,54.7,533.4z"/>
		<path class="st4" d="M393.2,650.9l-10.8,5.7l2.1-12l-8.7-8.5l12.1-1.8l5.4-10.9l5.4,10.9l12.1,1.8l-8.7,8.5l2.1,12L393.2,650.9
			L393.2,650.9z"/>
		<path class="st3" d="M288.5,580.3c-4-4.4-9.7-6.6-17.1-6.6s-13,2.2-17.1,6.6c-4,4.4-6.1,10.1-6.1,17.2c0,7.1,2,12.8,6.1,17.2
			c2.2,2.4,5,4.1,8.3,5.2l31.6-18.1c0.2-1.4,0.3-2.7,0.3-4.2C294.5,590.4,292.5,584.7,288.5,580.3z"/>
		<path class="st5" d="M254.3,614.6c-4-4.4-6.1-10.1-6.1-17.2c0-7.1,2-12.8,6.1-17.2c4-4.4,9.7-6.6,17.1-6.6s13,2.2,17.1,6.6
			c4,4.4,6.1,10.1,6.1,17.2c0,1.5-0.1,2.9-0.3,4.2l27.9-16c-0.7-2.9-1.5-5.8-2.7-8.4c-2.7-6-6.4-11.2-11.1-15.5s-10.2-7.6-16.6-9.9
			c-6.4-2.3-13.1-3.5-20.3-3.5c-7.2,0-14,1.2-20.3,3.5c-6.4,2.3-11.9,5.6-16.6,9.9c-4.7,4.3-8.4,9.5-11.1,15.5c-2.7,6-4,12.8-4,20.2
			c0,7.5,1.3,14.2,4,20.2s6.4,11.2,11.1,15.5c0.6,0.6,1.3,1.1,1.9,1.6l26.2-15C259.4,618.7,256.6,617.1,254.3,614.6L254.3,614.6z"/>
		<path class="st4" d="M271.4,646.6c7.2,0,14-1.2,20.3-3.5c6.4-2.3,11.9-5.6,16.6-9.9c4.7-4.3,8.4-9.5,11.1-15.5s4-12.8,4-20.2
			c0-4-0.4-7.9-1.3-11.8l-27.9,16c-0.7,5.1-2.6,9.5-5.8,12.9c-4,4.4-9.7,6.6-17.1,6.6c-3.3,0-6.2-0.5-8.8-1.4l-26.2,15
			c4.3,3.5,9.1,6.3,14.6,8.3C257.4,645.5,264.2,646.6,271.4,646.6L271.4,646.6z"/>
		<path class="st5" d="M173.2,597.5c0-7.1,2-12.8,6.1-17.2c4-4.4,9.7-6.6,17.1-6.6c3,0,5.7,0.7,8.3,2s4.6,3.1,6,5.1l19.1-20
			c-4.5-4.6-9.8-7.9-15.9-9.7c-6.1-1.9-11.9-2.8-17.4-2.8c-7.2,0-14,1.2-20.3,3.5c-6.4,2.3-11.9,5.6-16.6,9.9
			c-4.7,4.3-8.4,9.5-11.1,15.5c-1.2,2.6-2.1,5.4-2.7,8.3l27.9,16C173.3,600.3,173.2,598.9,173.2,597.5L173.2,597.5z"/>
		<path class="st6" d="M229,633.4l-24.7-14.2l0,0L229,633.4L229,633.4z"/>
		<path class="st2" d="M159.4,633.2c4.7,4.3,10.2,7.6,16.6,9.9c6.4,2.3,13.1,3.5,20.3,3.5c5.5,0,11.3-0.9,17.4-2.8
			c6.1-1.9,11.4-5.1,15.9-9.7l-0.6-0.7l-24.7-14.2c-2.2,1.3-4.9,2-8,2c-7.3,0-13-2.2-17.1-6.6c-3.2-3.5-5.1-7.9-5.8-13.1l-27.9-16
			c-0.9,3.9-1.3,7.9-1.3,11.9c0,7.5,1.3,14.2,4,20.2C151,623.8,154.7,628.9,159.4,633.2L159.4,633.2z"/>
		<path class="st5" d="M116.5,568.9l-0.2-18.5H87.4v1.8L116.5,568.9z"/>
		<path class="st4" d="M496.7,644.3l-29-16.9L430.2,606v38.3H496.7L496.7,644.3z"/>
		<path class="st4" d="M50.8,531.6l-26-14.9l-32.4,87.7l-35.9-96.5h-34.3L-21.5,640l36.4-20.9L50.8,531.6z"/>
		<path class="st2" d="M4.4,644.3L14.8,619l-36.4,20.9l1.9,4.4L4.4,644.3L4.4,644.3z"/>
		<path class="st4" d="M87.4,552.2v25.2l21.9-12.6L87.4,552.2z"/>
		<path class="st2" d="M90,631.4c1.7,3.6,4.1,6.5,7.2,8.8s6.7,3.9,10.8,4.9c4.1,1,8.6,1.5,13.5,1.5c3.3,0,6.7-0.2,10.2-0.6
			c3.4-0.4,6.8-1.2,10-2.3v-24.1c-1.3,1.2-3.2,1.9-5.7,2.2s-4.5,0.5-6.1,0.5c-3.1,0-5.6-0.4-7.4-1.3c-1.9-0.8-3.2-2-4.1-3.6
			c-0.9-1.5-1.5-3.4-1.7-5.5c-0.3-2.1-0.4-4.5-0.4-7l0.2-21.6h25.3l-32.4-18.6l-21.9,12.6v40.9C87.4,623.4,88.3,627.8,90,631.4z"/>
		<path class="st4" d="M358.4,564.9l-31.1,17.9v61.5h28.9v-39.1c0-4.6,0.3-8.9,0.8-12.7c0.5-3.9,1.6-7.2,3.4-9.9
			c1.7-2.8,4.2-4.9,7.4-6.5c1.9-0.9,4.2-1.5,6.9-1.9L358.4,564.9L358.4,564.9z"/>
		<path class="st5" d="M380.9,573.8c2.2,0,4.3,0.2,6.3,0.5s4,0.8,6.1,1.4v-26.4c-1.4-0.4-3-1.6-4.7-1.7l-30.1,17.3l16.3,9.3
			C376.7,573.9,378.8,573.8,380.9,573.8z"/>
		<path class="st5" d="M460.3,623.3V506.5l-30.1,17.2V606L460.3,623.3L460.3,623.3z"/>
	</g>
</g>
<g id="Burguer" class="st0">
	<path class="st7" d="M381.1,281H118.9c-17.1,0-31-13.9-31-31l0,0c0-17.1,13.9-31,31-31h262.2c17.1,0,31,13.9,31,31l0,0
		C412.1,267.1,398.2,281,381.1,281z"/>
	<path class="st7" d="M381.1,179.7H118.9c-17.1,0-31-13.9-31-31l0,0c0-17.1,13.9-31,31-31h262.2c17.1,0,31,13.9,31,31l0,0
		C412.1,165.8,398.2,179.7,381.1,179.7z"/>
	<path class="st7" d="M381.1,382.3H118.9c-17.1,0-31-13.9-31-31l0,0c0-17.1,13.9-31,31-31h262.2c17.1,0,31,13.9,31,31l0,0
		C412.1,368.4,398.2,382.3,381.1,382.3z"/>
</g>
<g id="X" class="st0">
	
		<rect x="220" y="93.6" transform="matrix(0.7071 -0.7071 0.7071 0.7071 -103.5856 249.954)" class="st7" width="59.9" height="312.8"/>
	
		<rect x="93.6" y="219.7" transform="matrix(0.7071 -0.7071 0.7071 0.7071 -103.3082 249.9003)" class="st7" width="312.8" height="59.9"/>
</g>
<g id="_x3E_" class="st0">
	<path class="st7" d="M381.6,232.5L381.6,232.5c-2.8-4-6.4-7.2-10.4-9.4L161.9,77.8c-13.9-9.6-32.9-6.2-42.5,7.7l0,0
		c-9.6,13.9-6.2,32.9,7.7,42.5l175.7,122L127.1,372c-13.9,9.6-17.3,28.7-7.7,42.5l0,0c9.6,13.9,28.7,17.3,42.5,7.7l209.2-145.3
		c4-2.2,7.6-5.3,10.4-9.4l0,0c3.7-5.4,5.5-11.5,5.5-17.5C387.1,243.9,385.3,237.8,381.6,232.5z"/>
</g>
<g id="_x3C_" class="st0">
	<path class="st7" d="M118.2,232.5L118.2,232.5c2.8-4,6.4-7.2,10.4-9.4L337.9,77.8c13.9-9.6,32.9-6.2,42.5,7.7l0,0
		c9.6,13.9,6.2,32.9-7.7,42.5L197,250l175.7,122c13.9,9.6,17.3,28.7,7.7,42.5l0,0c-9.6,13.9-28.7,17.3-42.5,7.7L128.7,276.9
		c-4-2.2-7.6-5.3-10.4-9.4l0,0c-3.7-5.4-5.5-11.5-5.5-17.5C112.8,243.9,114.5,237.8,118.2,232.5z"/>
</g>
<g>
	<path class="st5" d="M413.2,143.9c-4.9-9.1-10.2-18-15.9-26.6c-27.2-13.1-56.4-22.7-87-28.1l-10.5,22.5l-0.2,0.5
		c-3.1-0.4-6.1-0.9-9.2-1.2c-10.2-1.2-20.6-1.9-31.1-2.2c-2.9-0.1-5.8-0.1-8.7-0.1c-2.9,0-5.9,0-8.7,0.1c-10.5,0.3-20.8,1-31.1,2.2
		c-3.1,0.3-6.1,0.7-9.2,1.2l-0.2-0.5l-10.5-22.5c-30.6,5.4-59.8,15-87,28.1c-5.6,8.6-10.9,17.5-15.9,26.6c-1.6,2.9-3.2,5.9-4.7,8.8
		c-17.9,34.8-30.7,72.7-37.4,112.6h97.3c0-24.1,16.9-43.7,37.7-43.7c20.8,0,37.7,19.6,37.7,43.7h32h32c0-24.1,16.9-43.7,37.7-43.7
		c20.8,0,37.7,19.6,37.7,43.7h97.3c-6.8-39.9-19.6-77.7-37.4-112.6C416.3,149.8,414.8,146.8,413.2,143.9z"/>
	<path class="st2" d="M320.3,309c-20.8,0-37.7-19.6-37.7-43.7h-32V370c24.1,0,47.5-2.8,70-8.1c14-3.3,27.6-7.5,40.7-12.6
		c2.2,1.6,4.3,3.2,6.6,4.8c-13.9,5.8-28.2,10.5-43,14.2l28.3,42.4c21.9-7,42.8-16.3,62.5-27.5c15.7-8.9,30.6-19.1,44.6-30.4
		c0.4-7.2,0.6-14.4,0.6-21.7c0-12.1-0.6-24.1-1.6-36c-0.2-2.2-0.4-4.5-0.7-6.7c-0.8-7.8-1.9-15.6-3.2-23.2H358
		C358,289.5,341.1,309,320.3,309z"/>
	<path class="st4" d="M218.6,265.3c0,24.1-16.9,43.7-37.7,43.7c-20.8,0-37.7-19.6-37.7-43.7H45.9c-1.3,7.7-2.4,15.4-3.2,23.3
		c-0.3,2.2-0.5,4.5-0.7,6.7c-1.1,11.8-1.6,23.8-1.6,35.9c0,7.3,0.2,14.5,0.6,21.7c14,11.3,28.9,21.5,44.6,30.4
		c19.7,11.2,40.6,20.4,62.5,27.5l28.3-42.4c-14.8-3.7-29.2-8.4-43-14.2c2.2-1.6,4.4-3.2,6.6-4.8c13.1,5.1,26.7,9.4,40.7,12.6
		c22.5,5.3,45.9,8.1,70,8.1c0,0,0,0,0,0V265.3H218.6z"/>
</g>
</svg>
