<?xml version="1.0" encoding="utf-8"?>
<!-- Generator: Adobe Illustrator 22.0.1, SVG Export Plug-In . SVG Version: 6.00 Build 0)  -->
<svg version="1.1" xmlns="http://www.w3.org/2000/svg" xmlns:xlink="http://www.w3.org/1999/xlink" x="0px" y="0px"
	 viewBox="0 0 500 500" style="enable-background:new 0 0 500 500;" xml:space="preserve">
<style type="text/css">
	.st0{display:none;}
	.st1{display:inline;fill:#1D1D1B;}
	.st2{display:inline;}
	.st3{fill:none;}
	.st4{fill:#FFFFFF;}
	.st5{display:inline;fill:#FFCC00;}
	.st6{display:inline;fill:#D60D47;}
	.st7{fill:#56B7E0;}
	.st8{fill:#D60D47;}
	.st9{fill:#FFCC00;}
	.st10{display:inline;fill:#56B7E0;}
	.st11{display:inline;fill:#FFFFFF;}
	.st12{opacity:0.5;fill:#FFFFFF;}
</style>
<g id="Camada_1" class="st0">
	<rect class="st1" width="500" height="500"/>
</g>
<g id="Ilustrações2" class="st0">
	<g class="st2">
		<path class="st3" d="M356.6,105.5c0.4,0.8,1.3,1.3,2,2c1,1.1,2.5,1.7,3.6,2.8c0.2,0.2,0.3,0.4,0.5,0.6c0.1,0.1,0.3,0.2,0.5,0.1
			c0.1-0.1,0-0.3-0.1-0.4c-0.3-0.5-0.7-0.9-1.2-1.3c-0.4-0.2-0.9-0.5-0.8-0.9c0.1-1-0.6-1.2-1.3-1.5c0.2,0.3,0.5,0.6,0.7,0.8
			c-2.1-1.1-3.3-3.3-5.4-4.3C355.5,104.1,356.1,104.7,356.6,105.5z"/>
		<path class="st3" d="M369.6,138.5c0.1-0.6-0.9-2.5-1.5-2.5c-1.1,0-1.9-0.5-2.7-1.1c0.9,1.6,2.7,2.3,3.8,3.7
			C369.3,138.8,369.5,138.7,369.6,138.5z"/>
		<path class="st3" d="M347.7,98.2c1.6,1.6,3.5,2.7,5.4,3.8C351.7,100.2,349.7,99.1,347.7,98.2z"/>
		<path class="st3" d="M370.4,117.6c-0.6-0.7-1.7-1.2-1.4-2.5c0-0.3,0-0.9-0.2-1.1c-0.6-0.6-1.2-1.3-2-1.7c-0.2-0.1-0.4-0.2-0.5,0
			c-0.1,0.2,0.1,0.4,0.2,0.5c0.3,0.4,0.8,0.8,1,1.4c-0.7-0.4-1.1-0.9-1.4-1.5c-0.1-0.2-0.4-0.5-0.7-0.3c-0.3,0.1-0.2,0.3-0.1,0.6
			c0,0.1,0.1,0.3-0.1,0.4c-0.2,0.1-0.3-0.1-0.4-0.2c-0.4-0.6-0.7-1.3-1.1-1.9c-0.1,1.2,0.3,2,1.4,2.5c0.5,0.2,1.2,0.7,1.4,1.3
			c0.6,1.5,1.9,2,3.1,2.8c0.3,0.2,0.9,0.1,0.7,0.8c-0.1,0.3,0.3,0.5,0.6,0.6c0.1,0.1,0.3,0.1,0.4-0.1c0.2-0.3,0.1-0.6-0.1-0.9
			C370.9,117.9,370.6,117.8,370.4,117.6z"/>
		<path class="st3" d="M366.2,117.5c-1.5-1.1-2.8-2.4-4.1-3.7c-0.8-0.8-1.6-1.5-2.9-1.9c-0.8-0.2-1.6-0.8-2-1.8
			c0-0.1-0.2-0.2-0.3-0.3c-1-0.4-1.4-1.9-2.8-1.7c-0.1-1-0.7-1-1.4-0.6c-0.2,0.1-0.4-0.2-0.6,0.1c0,0.2,0.1,0.2,0.2,0.3
			c2.9,1.8,5.4,4,7.9,6.2c0.2,0.2,0.4,0.4,0.6,0.5c2.4,1.1,3.9,3.4,5.9,5c0.2,0.2,0.4,0.4,0.6,0.2c0.2-0.2,0.3-0.5,0.2-0.7
			C367.1,118.5,366.7,117.9,366.2,117.5z"/>
		<path class="st3" d="M361.3,129.2c-0.3,0.2-0.5-0.2-0.8,0.1c0.8,0.8,1.8,1.3,2.5,2.1c0.6,0.8,1.4,1.3,2.6,1.3
			c-0.5-0.5-0.9-0.9-1.5-1.2c-1-0.6-1.8-1.5-2.2-2.6c-0.1-0.2-0.2-0.4-0.5-0.5c-0.5-0.1-0.6-0.5-0.8-0.9c-0.2-0.6-0.7-0.9-1.2-1.1
			C360.2,127.3,360.7,128.3,361.3,129.2z"/>
		<g>
			<path class="st4" d="M183.4,106.6c-0.3-2.7-1.1-2.4-3-1.5c-12.3,5.9-24,12.8-35.6,19.9c-27.3,16.6-54.3,33.5-81,51
				c-9.3,6.1-19.2,11.5-26.5,20.3c-0.3,0.8-0.6,1.6-1,2.4c0.5,3.7,1.7,4.8,5.4,4.9c2.8,0.1,5.6-0.5,8.2-1.5c5.3-2,10.6-4,15.8-6.3
				c40.9-17.9,81.5-36.3,122.1-54.7c3.1-1.4,6.3-2.9,9.6-4.4c-1.7-1.7-3.3-3.1-4.6-4.8C187.5,124.4,184.3,115.9,183.4,106.6z"/>
			<path class="st4" d="M251.2,81.2c-2,0.6-3.7,1.1-5.4,1.6c-15.3,4.4-30.6,8.8-45.8,13.2c-1.4,0.4-2.9,0.9-3.5,2.2
				c-0.9,2-2.4,2.3-4.3,2.1c-1-0.1-2,0.1-3,0c-2.1-0.3-2.6,0.6-2.4,2.5c0.9,7.8,2.9,15.3,6.4,22.3c1.6,3.2,3.8,6,6.4,8.4
				c3.3,3,3.3,2.9,6.2-0.4c1.4-1.6,2.2-3.7,4.4-4.4c2.2-0.6,4-1.7,5.9-2.9c5.4-3.4,10.7-6.7,16.1-10.1c8.7-5.4,17.4-10.8,26.1-16.1
				c1-0.6,1.9-1,0.5-2.3C254.4,93,251.9,87.6,251.2,81.2z M249.9,98.9c-1.2,0.9-2.5,1.8-3.8,2.6c-10.6,6.6-21.8,11.9-32.4,18.3
				c-0.9,0.6-1.8,0.8-3.2,0.1c-0.8-0.5-1.5-1.5-1.6-2.8c-0.2-1.3,0.6-2,1.7-2.5c11.4-6.1,22.8-12.3,34.1-18.4
				c1.1-0.6,2.3-1.1,3.6-1.1c1.1-0.1,2,0.2,2.5,1.4C251.1,97.4,250.8,98.2,249.9,98.9z"/>
			<path class="st4" d="M382.1,118.2c-1.1-0.8-1.7-2-2.6-2.9c-2.4-2.6-5-5-7.7-7.2c-2.3-2-4.7-3.8-7-5.8c-3.6-3.1-7.6-5.7-11.5-8.5
				c-3.2-2.3-6.4-4.7-9.8-6.8c-2.3-1.4-4.3-3.2-6.5-4.8c-1.4-1-3-1.6-4.4-2.6c-3.5-2.5-7.2-4.6-10.9-6.7c-2.2-1.3-4.4-2.6-6.7-3.9
				c-3.1-1.7-6.3-3.3-9.7-4.4c-2.2-0.7-4.5-1-6.6-1.9c-1.5-0.6-3-1-4.6-1.3c-1.6-0.5-3.1-1-4.5-1.4c-8.7-2.3-17.1-2-25,2.7
				c-4.8,2.9-8.2,6.9-8.7,12.7c-0.6,6.5,0.9,12.4,4.9,17.6c5.2,6.7,16.1,10.8,24.7,5c1.6-1.1,3.3-2,4.9-3c1.2,0.6,2.3,1.1,3.5,1.7
				c3.9,2.1,7.9,3.9,11.8,6c3.4,1.8,6.7,3.8,10,5.8c2.5,1.6,5.1,3.2,7.5,4.9c4,3,8.1,5.8,12.2,8.7c1.5,1,3.3,1.5,4.7,2.5
				c0.8,0.6,1.7,1.2,2.7,1.5c1.8,0.6,3.6,1.5,5.1,2.7c0.2,0.2,0.5,0.3,0.7,0.4c1.2,0.6,2.5,1.3,3.7,2c0.5,0.3,0.8,0.9,1.4,1.2
				c1.1,0.4,2.2,0.9,3.2,1.6c3.9,2.7,8.1,5,11.8,8.1c1.6,1.4,3.5,2.4,5.2,3.5c0,0,0.1-0.1,0.2-0.1c-0.5-0.7-1-1.3-1.7-1.9
				c1.5,0.5,2.7,1.3,3.9,2c0.3,0.1,0.7,0.5,0.9,0.1c0.2-0.3-0.2-0.5-0.4-0.7c-0.6-0.7-1.6-1.2-1.8-2.2c0.3-0.1,0.5,0.4,0.8,0.1
				c0.1-0.1,0-0.2,0-0.3c-0.4-0.5-0.8-1-1.2-1.4c-0.3-0.3-0.3-1.1-1.1-0.7c-0.1,0-0.5-0.5-0.8-0.8c0.3-0.3,0.6,0.4,0.8-0.1
				c0.2-0.5-0.4-0.3-0.5-0.4c-0.2-0.2-0.4-0.4-0.5-0.7c0-0.1-0.1-0.2-0.2-0.1c-0.1,0.2,0.3,0.5-0.2,0.8c-0.7-1.1-1.8-1.8-1.9-3.3
				c0.3,0.1,0.5,0.1,0.7,0.2c-0.4-1.1-0.6-2.3-1.9-2.8c-0.1,0-0.2-0.2-0.2-0.3c0.1-0.7-0.4-0.9-0.9-1.2c-0.1,0.3,0.4,0.4,0.2,0.7
				c-0.2,0.5-0.2,0.5,0.2,0.7c0.6,0.3,1.3,0.6,1.6,1.2c0.2,0.4,0.8,0.9-0.3,0.9c-0.3,0-0.1,0.2-0.1,0.3c0.1,0.2,0.3,0.3,0,0.5
				c-0.2,0.1-0.4,0-0.5-0.2c-0.2-0.4-0.7-0.8-0.1-1.3c0.2-0.2,0-0.4-0.2-0.5c-1.1-0.4-1.7-1.2-2.4-2.1c-0.4-0.6-0.3-1.3-0.8-1.8
				c-0.3-0.3-0.4-0.6-0.8,0c-0.4,0.7-1,0.7-1.6,0c-0.2-0.3-0.4-0.5-0.8-0.9c0.5,0.3,0.7,0.5,0.9,0.6c0.2,0.2,0.5,0.3,0.8,0.1
				c0.3-0.3-0.3-0.4-0.2-0.8c0.1-0.2-0.2-0.5-0.4-0.4c-0.9,0.4-1.1-0.4-1.5-0.8c0.2-0.2,0.5-0.1,0.7-0.4c-0.5,0-0.7-0.2-0.9-0.6
				c-0.5-1-1.3-1.6-2.2-2.1c-0.4-0.2-1.1-0.8-1.5-0.3c-0.6,0.6-1.3,0.1-1.3,0c-0.1-1-1.5-1.4-1.3-2.5c0-0.2-0.4-0.5-0.1-0.7
				c0.3-0.2,0.7,0.1,0.9,0.3c1.8,1.2,3.9,2.1,5.5,3.6c0.3,0.3,0.8-0.1,0.9,0.3c0.3,1.2,1.3,1.5,2.1,2c0.9,0.5,2,1.1,2.6,1.9
				c1,1.5,2.5,2.4,3.7,3.7c0.2,0.3,1,0.4,0.6,0.8c-0.3,0.3-0.4-0.5-0.8-0.5c0,0-0.1,0-0.2,0.1c0.2,0.7,0.7,1,1.4,1.3
				c-0.2-0.6-0.1-0.9,0.6-0.7c0.5,0.2,1.3,0.2,0.8,1.2c-0.1,0.2,0.1,0.3,0.3,0.4c0.4,0.2,0.5,0.6,0.7,0.9c0.6,1.1,1.8,1.6,2.8,2.3
				c-0.1-0.4-0.4-0.6-0.8-0.8c-0.5-0.2-0.9-0.7-0.9-1c0.1-0.8-0.4-1.2-0.8-1.6c-0.1-0.1-0.2-0.3-0.1-0.4c0.1-0.2,0.3-0.1,0.5-0.1
				c0.4,0.2,0.8,0.3,1.1,0.6c0.5,0.5,0.9,0.7,1.7,0.3c-0.9-0.1-0.8-1-1.3-1.4c-1-0.8-2.1-1.7-2.5-3c-0.1-0.2-0.3-0.5-0.5-0.6
				c-0.5-0.1-0.9-0.3-1.1-0.8c-0.1-0.2-0.1-0.3-0.1-0.4c0.1-0.3,0.3-0.1,0.4,0c1.4,0.5,2.3,1.6,2.8,2.8c0.5,1,1.1,0.5,1.6,0.9
				c-0.1-0.4-0.3-0.6-0.6-0.9c-0.6-0.7-1.8-1-1.3-2.3c0,0-0.1-0.1-0.2-0.2c-0.2,0.2,0,0.6-0.3,0.5c-0.3,0-0.4-0.5-0.3-0.7
				c0.3-0.5,0-0.6-0.4-0.7c-0.7,0-0.9-0.4-0.6-1.2c-0.8,0.7-1.1,0-1.4-0.4c-0.5-0.5-0.8-1-1.6-0.9c-0.4,0-0.6-0.4-0.7-0.7
				c-0.2-0.4-0.1-1.1-0.7-1.3c-0.9-0.3-1-1.2-1.6-1.8c0.5-0.1,0.7,0.1,0.9,0.3c0.7,0.6,1.4,1.2,2.1,1.9c0.2,0.2,0.7,0.3,0.6,0.7
				c-0.1,0.4-0.6,0-0.8,0.3c0.6,0,1,0.5,1.7,0.7c-0.2-0.3-0.7-0.5-0.4-0.8c0.3-0.2,0.5,0,0.8,0.2c0.9,0.6,1.5,1.3,2.2,2.1
				c1.2,1.4,2.9,2.3,3.9,3.9c-0.3-0.4,0.2-1-0.2-1.3c-1.4-0.8-2.3-2.1-3.5-3.2c-0.5-0.4-0.9-0.9-1.2-1.5c0.3-0.2,0.6,0.2,0.6,0
				c0.1-0.9,0.5-0.3,0.6-0.1c0.8,1.6,2.3,2.5,3.4,3.7c0.2,0.2,0.3,0.4,0.6,0.4c0.9,0.1,1.6,0.6,2.1,1.3c0.3,0.4,0.9,0.3,1.2,0.1
				c0.4-0.1,0.4-0.5,0.1-0.9c-0.2-0.3,0.1-0.4,0.3-0.6c0.3-0.3,0.1-0.7-0.1-0.9c-0.4-0.4-0.7-1.3-1.3-1.1c-0.7,0.2-0.8-0.1-1-0.5
				c-0.3-0.5-0.5-1.1-1.3-1.1c-0.5,0-0.7-0.3-0.6-0.8c0.1-0.5-0.1-0.8-0.7-0.9c-0.2,0-0.4-0.1-0.4-0.3c0-0.2,0.2-0.2,0.4-0.2
				c0.3,0,0.5-0.1,0.6-0.4c0.1-0.3-0.2-0.4-0.4-0.6c-0.9-0.7-1.7-1.4-2.4-2.2c-1.1-1.2-2.2-2.5-3.8-3.1c-0.3-0.1-0.5-0.6-0.3-1.1
				c0.8,0.6,1.4,1.5,2.4,1.6c-0.2,1.2,1.8,0.5,1.5,1.7c1-0.1,1.3,0.8,1.9,1.4c0.1-0.2,0-0.3-0.1-0.4c-1.1-1.1-1.7-2.6-3.3-3.5
				c-1.2-0.7-1.9-2.2-2.8-3.3c-0.4-0.5-0.6-1-1.4-1.1c-0.4,0-0.8-0.2-0.9-0.6c-0.5-1.9-2.8-1.7-3.8-3c0-0.1-0.2-0.1-0.3,0
				c-0.6,0.5-0.7,0-0.9-0.4c-0.1-0.2-0.2-0.4-0.4-0.6c-1.3-0.9-2.3-2.3-3.6-3.2c-0.5-0.3-1-0.7-1.4-1.2c-1.2-1.4-2.5-2.6-4.2-3.4
				c-0.6-0.3-1.2-0.7-1.8-0.9c-0.6-0.3-0.8-1-1.5-1.3c-1.4-0.6-2.6-1.6-3.8-2.5c-2.5-2.1-5.2-3.8-7.9-5.6c-0.4-0.3-0.9-0.4-1.3-0.6
				c-0.3-0.2-0.3-0.9-1-0.7c-0.1,0-0.2-0.2-0.1-0.3c0.1-0.2,0.2-0.2,0.4-0.2c0.5,0.1,1.1,0.3,1.4,0.7c1,1.3,2.7,1.3,3.7,2.6
				c3.2,1.4,5.7,3.8,8.6,5.6c1,0.6,1.8,1.4,2.8,2c0.8,0.5,1.8,0.9,2.5,1.5c1.9,1.6,4.2,2.8,6.1,4.4c0.2,0.2,0.5,0.4,0.9,0.2
				c-1-0.8-1.9-1.6-2.9-2.4c-2-1.6-4-3.2-6-4.8c-0.6-0.4-1.3-0.5-1.8-1c-1.2-1.2-2.6-2-3.9-3c-0.9-0.7-1.8-1.3-2.7-1.9
				c-0.2-0.1-0.4-0.3-0.3-0.6c0.1-0.2,0.4-0.3,0.7-0.2c0.3,0.1,0.5,0.2,0.4,0.6c-0.2,0.4,0.1,0.6,0.4,0.7c0.8,0.3,1.3,0.9,2,1.3
				c0.2,0.1,0.3,0.3,0.5,0.1c0.4-0.4,0.7-0.3,0.7,0.3c0,0.4,0.3,0.6,0.6,0.7c0.1,0.1,0.4,0.2,0.4,0c0.2-0.8,0.5-0.2,0.7-0.1
				c0.3,0.3,0.7,0.5,1.1,0.7c0.6,0.4,1.2,0.7,1.6,1.4c0.3,0.6,0.6,1,1.2,1.3c0.9,0.6,1.7,1.3,2.6,1.9c2.1,1.3,3.7,3.3,6.3,3.9
				c1.1,0.2,1.9,1.3,3,1.8c0.1,0,0.1,0.2,0.1,0.3c-0.1,0.2-0.2,0.2-0.4,0.1c-0.2-0.1-0.4-0.3-0.6-0.4c-0.2-0.1-0.6-0.1-0.5,0.3
				c0.2,0.5,0.6,1.1,1.2,1c0.9-0.1,1.6,0.1,2.4,0.4c0.4,0.2,1.1,0.5,0.9,0.9c-0.2,0.6-0.8,0.2-1.2,0c-0.1,0-0.2-0.1-0.4,0.1
				c0.9,0.8,1.5,1.9,3,2.2c-0.4-0.8-1.2-1-1.5-1.7c0.9-0.1,1.3,0.5,1.8,0.9c1.1,0.9,2.2,1.8,3.4,2.7c0.1,0.1,0.3,0.3,0.2,0.5
				c-0.1,0.2-0.3,0.1-0.5,0.1c-0.4-0.1-0.7,0.3-0.7,0.5c-0.1,0.3,0.3,0.4,0.6,0.5c0.5,0,0.8,0.2,1.1,0.5c0.2,0.2,0.5,0.3,0.9,0.1
				c-0.4-0.4-0.7-0.7-1.2-1.2c1,0.3,1.8,0.6,2.2,1.3c0.8,1.2,2.1,2,3.1,3c0.2,0.2,0.5,0.5,0.8,0.2
				C382.7,118.7,382.3,118.4,382.1,118.2z M283.1,90.1c-0.1,0.1-0.2,0.2-0.3,0.2c-1.6,1.3-3.3,2.6-5.2,3.4c-2.4,1-4.7,0.9-6.6-1
				c-1.9-1.9-2.2-4.3-1.3-6.8c1.1-3,3.5-5,6.1-6.5c2-1.1,4-1.9,6.2-2.5c1-0.3,2.1-0.5,3.1-0.7c8-1.4,16.1-1,24.2,0
				C299.3,78.5,291.1,84,283.1,90.1z M368.1,136c0.6,0,1.6,1.9,1.5,2.5c-0.1,0.3-0.3,0.3-0.4,0.1c-1.1-1.4-2.9-2.1-3.8-3.7
				C366.2,135.5,367,136,368.1,136z M360.8,127.6c0.1,0.4,0.3,0.7,0.8,0.9c0.3,0.1,0.4,0.3,0.5,0.5c0.4,1.1,1.2,2,2.2,2.6
				c0.5,0.3,1,0.8,1.5,1.2c-1.2,0-1.9-0.5-2.6-1.3c-0.7-0.9-1.8-1.3-2.5-2.1c0.2-0.3,0.5,0.1,0.8-0.1c-0.6-0.9-1.1-1.9-1.8-2.8
				C360.1,126.7,360.6,127,360.8,127.6z M339.3,97.6c5.5,2.1,10.6,8.7,11.7,9.2c-1.3-0.5-12.6-8-12.9-8.6
				C338.1,98.2,339.3,97.6,339.3,97.6z M363.5,111.2c0.4,0.6,0.6,1.3,1.1,1.9c0.1,0.2,0.2,0.3,0.4,0.2c0.2-0.1,0.1-0.3,0.1-0.4
				c0-0.2-0.1-0.5,0.1-0.6c0.3-0.1,0.6,0.1,0.7,0.3c0.3,0.6,0.7,1.1,1.4,1.5c-0.3-0.6-0.7-1-1-1.4c-0.1-0.1-0.3-0.3-0.2-0.5
				c0.1-0.2,0.3-0.1,0.5,0c0.8,0.4,1.4,1,2,1.7c0.2,0.2,0.3,0.8,0.2,1.1c-0.2,1.3,0.8,1.8,1.4,2.5c0.2,0.3,0.6,0.4,0.7,0.7
				c0.1,0.3,0.2,0.6,0.1,0.9c-0.1,0.2-0.3,0.2-0.4,0.1c-0.3-0.2-0.7-0.3-0.6-0.6c0.2-0.7-0.4-0.6-0.7-0.8c-1.2-0.7-2.6-1.2-3.1-2.8
				c-0.2-0.5-0.8-1-1.4-1.3C363.9,113.3,363.4,112.4,363.5,111.2z M360.4,107.8c-0.2-0.3-0.5-0.6-0.7-0.8c0.7,0.2,1.4,0.5,1.3,1.5
				c0,0.4,0.5,0.7,0.8,0.9c0.5,0.3,0.9,0.7,1.2,1.3c0.1,0.1,0.2,0.3,0.1,0.4c-0.2,0.2-0.3,0.1-0.5-0.1c-0.2-0.2-0.3-0.4-0.5-0.6
				c-1.1-1.1-2.6-1.7-3.6-2.8c-0.6-0.7-1.6-1.2-2-2c-0.4-0.8-1.1-1.4-1.6-2.1C357.1,104.5,358.3,106.6,360.4,107.8z M356.9,109.8
				c0.1,0.1,0.3,0.2,0.3,0.3c0.3,1,1.2,1.6,2,1.8c1.2,0.3,2.1,1.1,2.9,1.9c1.3,1.3,2.7,2.5,4.1,3.7c0.5,0.4,0.9,1,1.3,1.6
				c0.1,0.2,0.1,0.5-0.2,0.7c-0.3,0.2-0.4,0-0.6-0.2c-2-1.6-3.4-3.9-5.9-5c-0.2-0.1-0.4-0.3-0.6-0.5c-2.5-2.3-5.1-4.4-7.9-6.2
				c-0.1-0.1-0.2-0.1-0.2-0.3c0.2-0.2,0.4,0,0.6-0.1c0.7-0.3,1.3-0.3,1.4,0.6C355.5,108,355.9,109.4,356.9,109.8z M353.1,102
				c-1.9-1.2-3.9-2.2-5.4-3.8C349.7,99.1,351.7,100.2,353.1,102z M345.8,120c-0.4-0.3-0.8-0.6-1.1-1.3c1.4,0.6,2.9,1.4,2.9,2.6
				c-0.5,0.1-0.4-0.7-1.2-0.5c2.2,1.6,4.2,2.9,6.5,4.1c-1-1.7-1.1-1.8-2.7-2.3c-0.7-0.2-1.1-0.7-1.2-1.5c-0.1-0.4,0.2-0.5,0.5-0.6
				c-1.5-0.3-1.8-1.9-3-2.8c0.1,0.7,0.6,0.8,0.6,1.3c-0.5-0.2-0.8-0.5-0.9-0.9c-0.1-0.2-0.2-0.5,0.1-0.7c0.2-0.2,0.4,0,0.7,0
				c0.7,0.2,1.2,0.5,1.3,1.3c0.1,0.5,0.6,0.8,1.3,0.8c-0.1-0.4-0.7-0.5-0.6-0.9c0.4,0.1,0.6,0.7,1.3,0.4c0.3-0.1,1.2,0.5,1.2,1
				c-0.1,0.8,0.1,1.1,0.6,1.4c1.2,0.9,2.5,1.8,3.6,3c-0.3,0.2-0.4-0.3-0.7-0.1c0.3,0.3,0.6,0.5,0.8,0.8c1.2,2.1,3.5,3.1,5.3,4.6
				c0.3,0.2,0.3,0.2,0.2,1.2c-1.5-2-3.5-3.1-5.3-4.4c0.3,0.9,1.1,1.2,1.7,1.8c0.3,0.2,0.7,0.5,0.5,0.8c-0.2,0.4-0.8,0.4-1.2,0.1
				c-0.6-0.6-1.4-0.8-2.2-0.9c-1.1-0.1-1.4-1.3-2.2-1.7c-1.6-0.8-2.6-2.3-4.3-2.9c-0.4-0.2-0.6-0.6-1-0.9c-1.3-1-2.8-1.8-3.8-3.1
				c-0.1-0.1-0.2-0.3-0.4-0.3c-1.9-0.3-2.9-2-4.4-2.9c-0.3-0.2-0.5-0.3-0.9-0.4c-1.5-0.3-1.9-0.6-2.4-2c0.7,0.6,1.7,0.6,2.4,1
				c1,0.6,2,1.3,3,1.8c0.3,0.1,0.6,0.7,1,0.1c0.1-0.1,1.1,0.4,1.3,1c0.3,0.8,0.8,1.2,1.5,1.5c0.4,0.1,0.7,0.3,0.9,0.7
				c0.1,0.1,0.2,0.4,0.4,0.2C346.1,120.4,345.9,120.2,345.8,120z"/>
		</g>
	</g>
</g>
<g id="Ilustrações" class="st0">
	<polygon class="st5" points="500,0 250,250 500,500 	"/>
	<polygon class="st6" points="0,0 500,500 0.1,500 	"/>
	<g class="st2">
		<path class="st7" d="M78.9,457.7v-33.9h10.3v33.9H78.9z"/>
		<path class="st7" d="M94.6,457.7v-33.9h10.3v24.9h12.8v8.9H94.6z"/>
		<path class="st7" d="M120.8,443.8v-20h10.4v19.6c0,3.3,2.1,5.8,6.3,5.8c4.2,0,6.3-2.6,6.3-5.8v-19.6h10.4v19.9
			c0,8.4-5.3,14.6-16.7,14.6S120.8,452.2,120.8,443.8z"/>
		<path class="st7" d="M157.1,452.9l5.3-7.6c2.5,2.4,6.3,4.4,10.9,4.4c1.9,0,3.8-0.5,3.8-1.8c0-3.2-18.9,0.1-18.9-13.3
			c0-5.7,4.8-11.2,14.1-11.2c5.5,0,10.5,1.6,14.4,4.7l-5.5,7.3c-2.9-2.2-6.8-3.4-10-3.4c-2,0-2.6,0.7-2.6,1.5
			c0,3.2,18.8,0.5,18.8,13c0,7.5-5.5,11.8-14.6,11.8C165.7,458.3,160.7,456.2,157.1,452.9z"/>
		<path class="st7" d="M197.1,457.7v-24.9H188v-8.9h28.4v8.9h-9v24.9H197.1z"/>
		<path class="st7" d="M238.7,457.7L234,447h-3.7v10.7H220v-33.9h18.1c7.9,0,12.2,5.3,12.2,11.6c0,5.8-3.4,8.9-6.1,10.3l6.1,12
			H238.7z M239.9,435.4c0-1.8-1.6-2.6-3.4-2.6h-6.2v5.3h6.2C238.3,438.1,239.9,437.3,239.9,435.4z"/>
		<path class="st7" d="M277,457.7l-1.2-4h-12.2l-1.2,4h-11.6l12.5-33.9h12.9l12.5,33.9H277z M269.7,433.9l-3.4,10.9h6.7L269.7,433.9
			z"/>
		<path class="st7" d="M299.4,465.9l1.6-3.3c1.3,0.9,2.8,1.5,4.2,1.5c1.1,0,2.1-0.4,2.1-1.2c0-0.6-0.4-0.9-1.1-0.9
			c-0.6,0-1,0.3-1.3,0.6l-3-1.7l1.1-2.9c-9.2-1.1-15.9-7.8-15.9-17.3c0-10.5,8-17.5,18.6-17.5c8.9,0,13.4,5.2,15.4,9.8l-8.8,4.1
			c-0.9-2.6-3.5-4.9-6.5-4.9c-4.9,0-8.2,3.8-8.2,8.5c0,4.7,3.3,8.5,8.2,8.5c3,0,5.7-2.3,6.5-4.9l8.8,4.1c-1.9,4.3-6.1,9.4-14.2,9.8
			l-0.7,1.6c0.5-0.3,1.1-0.5,1.7-0.5c1.8,0,3.5,1.5,3.5,3.7c0,2.9-2.7,4.5-6,4.5C302.8,467.7,300.5,466.8,299.4,465.9z"/>
		<path class="st7" d="M322.5,440.8c0-10.4,8.1-17.5,18.5-17.5s18.5,7.1,18.5,17.5c0,10.4-8.1,17.5-18.5,17.5
			S322.5,451.2,322.5,440.8z M338.2,418.7c-0.7,0-1.2,0.6-1.2,1.9h-4.5c0-4.7,2.1-6.8,6-6.8c3.1,0,4.2,2.2,5.6,2.2
			c0.7,0,1.2-0.6,1.2-1.9h4.5c0,4.7-2.1,6.8-6,6.8C340.6,420.9,339.5,418.7,338.2,418.7z M349.2,440.8c0-4.7-3.2-8.5-8.1-8.5
			s-8.1,3.8-8.1,8.5c0,4.7,3.2,8.5,8.1,8.5S349.2,445.5,349.2,440.8z"/>
		<path class="st7" d="M363.2,457.7v-33.9h25.7v8.9h-15.4v3.4h15.1v8.9h-15.1v3.7h15.4v8.9H363.2z"/>
		<path class="st7" d="M390.9,452.9l5.3-7.6c2.5,2.4,6.3,4.4,10.9,4.4c1.9,0,3.8-0.5,3.8-1.8c0-3.2-18.9,0.1-18.9-13.3
			c0-5.7,4.8-11.2,14.1-11.2c5.5,0,10.5,1.6,14.4,4.7l-5.5,7.3c-2.9-2.2-6.8-3.4-10-3.4c-2,0-2.6,0.7-2.6,1.5
			c0,3.2,18.8,0.5,18.8,13c0,7.5-5.5,11.8-14.6,11.8C399.4,458.3,394.5,456.2,390.9,452.9z"/>
	</g>
</g>
<g id="Editorial2">
	<g>
		<path class="st4" d="M62.9,175.9c19.1-7.8,38.2-15.5,57.3-23.3c1.3-0.1,2.7-0.2,4-0.3c2.3,0,4.5,0.7,6.8,1.1
			c0.4,0.3,0.8,0.3,1.2,0.3c1.8,0.6,3.6,1.3,5.3,1.9c2.8,1.1,5.7,2.3,8.5,3.4c1.6,0.7,3.3,1.4,4.9,2.1c0.5,0.3,1,0.6,1.6,0.6
			c1.7,0.7,3.4,1.4,5,2.1c0.5,0.4,1.1,0.6,1.7,0.7c1.7,0.7,3.3,1.4,5,2.1c0.5,0.4,1.1,0.6,1.7,0.7c1.5,0.6,3,1.3,4.5,1.9
			c0.7,0.3,1.5,0.6,2.2,1c1.5,0.6,3,1.3,4.5,1.9c0.6,0.5,1.3,0.8,2,1c1.7,0.9,3.4,1.9,5.1,2.8c0.2,0.1,0.4,0.3,0.6,0.4
			c1.8,1.3,3.5,2.7,5,4.2c0.5,0.8,1.1,1.6,1.6,2.4c0.4,0.8,0.7,1.7,1.1,2.5c11.7,28.8,23.4,57.7,35.2,86.5c1.9,4.5,3.5,9.1,3.6,14
			l0,0c-0.1,0.2-0.2,0.5,0,0.7c-0.1,3.8-1,7.4-2.3,10.9c-0.1,0.3-0.3,0.7-0.4,1c-1.9,3.4-4.2,6.4-7,9.1c-2,1.3-3.9,2.6-5.9,4
			c-1.1,0.5-2.1,0.9-3.2,1.4c-1.6,0.6-3.2,1.3-4.8,1.9c-1.6,0.7-3.2,1.3-4.8,2c-1.6,0.6-3.2,1.3-4.8,1.9c-1.6,0.7-3.2,1.3-4.8,2
			c-1.6,0.6-3.2,1.3-4.8,1.9c-1.6,0.7-3.2,1.3-4.8,2c-1.6,0.6-3.2,1.3-4.8,1.9c-1.6,0.7-3.2,1.3-4.8,2c-1.6,0.6-3.2,1.3-4.8,1.9
			c-1.6,0.7-3.2,1.3-4.8,2c-1.6,0.6-3.2,1.3-4.8,1.9c-1.6,0.7-3.2,1.3-4.8,2c-1.6,0.6-3.2,1.3-4.8,1.9c-1.6,0.7-3.2,1.3-4.8,2
			c-1.6,0.6-3.2,1.3-4.8,1.9c-1.6,0.7-3.2,1.3-4.8,2c-1.6,0.5-3.3,1.1-4.9,1.6c-1.6,0.2-3.1,0.4-4.7,0.6c-1.2,0-2.4,0-3.6,0
			c-0.7-0.1-1.4-0.2-2.1-0.2c-4.6-0.8-8.9-2.6-12.8-5.3c-0.3-0.5-0.7-0.7-1.2-0.9c-1-0.9-1.9-1.8-2.9-2.8c-1-1.3-1.9-2.6-2.9-3.9
			c-0.8-1.5-1.7-3-2.5-4.6c-0.5-1.7-1.2-3.3-2-4.8c-0.7-1.6-1.3-3.2-2-4.8c-0.5-1.7-1.2-3.3-2-4.8c-0.7-1.6-1.3-3.2-2-4.8
			c-0.5-1.7-1.2-3.3-2-4.8c-0.7-1.6-1.3-3.2-2-4.8c-0.5-1.7-1.2-3.3-2-4.8c-0.7-1.6-1.3-3.2-2-4.8c-0.5-1.7-1.2-3.3-2-4.8
			c-0.7-1.6-1.3-3.2-2-4.8c-0.5-1.7-1.2-3.3-2-4.8c-0.7-1.6-1.3-3.2-2-4.8c-0.5-1.7-1.2-3.3-2-4.8c-0.7-1.6-1.3-3.2-2-4.8
			c-0.5-1.7-1.2-3.3-2-4.8c-0.7-1.6-1.3-3.2-2-4.8c-0.5-1.7-1.2-3.3-2-4.8c-0.7-1.6-1.3-3.2-2-4.8c-0.5-1.7-1.2-3.3-2-4.8
			c-0.7-1.6-1.3-3.2-2-4.8c-0.5-1.7-1.2-3.3-2-4.8c-0.7-1.6-1.3-3.2-2-4.8c-0.5-1.7-1.2-3.3-2-4.8c-0.7-1.6-1.3-3.2-2-4.8
			c-0.6-1.4-1.1-2.8-1.7-4.2c-0.4-1.9-0.9-3.9-1.3-5.8c0-1.7-0.1-3.4-0.1-5.1c0.2-0.5,0.2-1.1,0.2-1.6c0.3-1.5,0.7-3,1-4.6
			c0.4-1.2,0.9-2.3,1.3-3.5c0.5-0.9,0.9-1.9,1.4-2.8c0.6-1,1.3-2,1.9-3c1.6-1.6,3.1-3.4,4.9-4.8C60.3,177.7,61.8,177.1,62.9,175.9z
			 M81.7,183.6c-1.6,0.7-3.2,1.3-4.8,2c-1.6,0.6-3.2,1.3-4.8,1.9c-0.6,0.3-1.3,0.5-1.9,0.8c-0.1,0-0.2,0-0.3,0.2
			c-2.7,1.6-4.8,3.7-5.9,6.7c-0.5,1-1,2-1,3.1c-0.4,1.1-0.5,2.2-0.2,3.3c-0.2,0.2-0.2,0.3-0.1,0.5c0.1,0.3,0.1,0.5,0.2,0.8
			c0.1,1.5,0.5,2.8,1.1,4.1c15.7,38.6,31.4,77.3,47.2,115.9c0.4,0.9,0.7,1.8,1.3,2.6c0.2,0.3,0.3,0.6,0.5,0.9
			c0.1,0.3,0.2,0.4,0.5,0.4c0.1,0.7,0.7,1,1.1,1.5c1.4,1.4,2.9,2.7,5,3.3c0.1,0.1,0.3,0.1,0.4,0.2c1.7,0.7,3.4,1.1,5.2,0.8
			c1.5,0.2,2.8-0.2,4.2-0.7l0.2,0l0.1-0.1c0.3-0.1,0.7-0.3,1-0.4c1.6-0.6,3.2-1.3,4.8-1.9c1.6-0.7,3.2-1.3,4.8-2
			c1.6-0.6,3.2-1.3,4.8-1.9c1.6-0.7,3.2-1.3,4.8-2c1.6-0.6,3.2-1.3,4.8-1.9c1.6-0.7,3.2-1.3,4.8-2c1.6-0.6,3.2-1.3,4.8-1.9
			c1.6-0.7,3.2-1.3,4.8-2c1.6-0.6,3.2-1.3,4.8-1.9c1.6-0.7,3.2-1.3,4.8-2c1.6-0.6,3.2-1.3,4.8-1.9c1.6-0.7,3.2-1.3,4.8-2
			c1.6-0.6,3.2-1.3,4.8-1.9c1.6-0.7,3.2-1.3,4.8-2c1.6-0.6,3.2-1.3,4.8-1.9c1.6-0.7,3.2-1.3,4.8-2c2-0.6,3.8-1.6,5.2-3.1
			c1.5-1,2.4-2.4,3.2-3.9c0.1-0.3,0.3-0.6,0.4-0.9c1.8-3.9,1.5-7.9-0.1-11.8c-11.3-27.8-22.6-55.6-33.9-83.3
			c-0.3-0.8-0.7-1.6-1.2-2.3c-1.3-1.9-3-2.9-5.4-2.5c-2.1-0.1-4,0.5-5.9,1.4c-1.7,0.5-3.3,1.1-4.8,1.9c-1.6,0.7-3.2,1.3-4.8,2
			c-1.7,0.5-3.3,1.2-4.8,2c-1.6,0.7-3.2,1.3-4.8,2c-1.6,0.6-3.2,1.2-4.8,1.9c-0.1,0-0.2,0-0.3,0.1c-1.8,0.3-3.5,0-5.2-0.7
			c-0.6-0.6-1.3-1.1-1.9-1.7c-1.1-1.3-1.3-3-2.2-4.5c-0.6-1.6-1.3-3.2-1.9-4.8c-0.7-1.6-1.3-3.2-2-4.8c-0.6-1.6-1.3-3.2-1.9-4.8
			c-0.7-1.6-1.3-3.2-2-4.8c-0.5-1.7-1.5-3.1-2.3-4.7c-0.5-1-1.1-1.9-1.9-2.6c-1.2-1.1-2.5-2.1-4.3-1.7c-0.2-0.2-0.4-0.1-0.6,0
			c-1.3,0.5-2.6,1-3.9,1.6c-1.6,0.6-3.2,1.3-4.8,1.9c-1.6,0.7-3.2,1.3-4.8,2c-1.6,0.6-3.2,1.3-4.8,1.9c-1.6,0.7-3.2,1.3-4.8,2
			c-1.6,0.6-3.2,1.3-4.8,1.9c-1.6,0.7-3.2,1.3-4.8,2C84.9,182.3,83.3,182.9,81.7,183.6z"/>
		<path class="st4" d="M98.1,237.7c0.6-0.2,1.3-0.4,1.9-0.7c21.2-8.6,42.5-17.3,63.7-25.9c2.8-1.1,5.5-1.5,8.1,0.5
			c1,0.8,1.7,1.8,2.3,2.9c1.1,4,0.1,6.7-3.4,9.1c-0.8,0.3-1.7,0.7-2.5,1c-20.7,8.4-41.3,16.8-62,25.2c-0.6,0.2-1.1,0.5-1.7,0.8
			c-0.3,0.1-0.6,0.2-0.9,0.3c-4.3,0.7-6.6-0.3-8.9-4.1C93.6,243,94.7,239.9,98.1,237.7z"/>
		<path class="st4" d="M192,263.2c0.3,0.2,0.6,0.3,0.9,0.5c0.5,0.5,1,1,1.5,1.5c0.2,0.2,0.3,0.4,0.5,0.6c0.2,0.5,0.5,1,0.7,1.6
			c0.8,3.7-0.3,6.6-3.6,8.6c-1.6,0.7-3.2,1.3-4.8,2c-1.6,0.6-3.2,1.3-4.8,1.9c-1.6,0.7-3.2,1.3-4.8,2c-1.6,0.6-3.2,1.3-4.8,1.9
			c-1.6,0.7-3.2,1.3-4.8,2c-1.6,0.6-3.2,1.3-4.8,1.9c-1.6,0.7-3.2,1.3-4.8,2c-1.6,0.6-3.2,1.3-4.8,1.9c-1.6,0.7-3.2,1.3-4.8,2
			c-1.6,0.6-3.2,1.3-4.8,1.9c-1.6,0.7-3.2,1.3-4.8,2c-1.6,0.6-3.2,1.3-4.8,1.9c-1.6,0.7-3.2,1.3-4.8,2c-1.6,0.6-3.2,1.3-4.8,1.9
			c-3.8,0.9-6.5-0.5-8.6-3.6c-0.6-1.7-0.8-3.5-0.3-5.3c0.6-1.9,1.9-3.2,3.5-4.3c1.6-0.7,3.2-1.3,4.8-2c1.6-0.6,3.2-1.3,4.8-1.9
			c1.6-0.7,3.2-1.3,4.8-2c1.6-0.6,3.2-1.3,4.8-1.9c1.6-0.7,3.2-1.3,4.8-2c1.6-0.6,3.2-1.3,4.8-1.9c1.6-0.7,3.2-1.3,4.8-2
			c1.6-0.6,3.2-1.3,4.8-1.9c1.6-0.7,3.2-1.3,4.8-2c1.6-0.6,3.2-1.3,4.8-1.9c1.6-0.7,3.2-1.3,4.8-2c1.6-0.6,3.2-1.3,4.8-1.9
			c1.6-0.7,3.2-1.3,4.8-2c1.6-0.6,3.2-1.3,4.8-1.9C188.4,262.4,190.2,262.5,192,263.2z"/>
		<path class="st4" d="M106.3,274.6c-0.7-1-1.2-2-1.3-3.2c-0.2-1.2,0.1-2.3,0.2-3.4c0.7-1.5,1.7-2.8,3-3.8c0.2-0.1,0.3-0.2,0.5-0.3
			c1.7-0.5,3.3-1.2,4.8-2c1.6-0.7,3.2-1.3,4.8-2c1.7-0.5,3.3-1.2,4.8-2c1.6-0.7,3.2-1.3,4.8-2c1.7-0.5,3.3-1.2,4.8-2
			c1.6-0.7,3.2-1.3,4.8-2c1.7-0.5,3.3-1.2,4.8-2c1.6-0.7,3.2-1.3,4.8-2c1.7-0.5,3.3-1.2,4.8-2c1.6-0.7,3.2-1.3,4.8-2
			c1.7-0.5,3.3-1.2,4.8-2c0.7-0.2,1.3-0.4,2-0.6c0.9,0,1.8-0.1,2.7-0.1c2,0.5,3.6,1.6,4.8,3.2c0.4,0.9,0.7,1.8,1.1,2.7
			c0.1,2-0.3,4-1.5,5.7c-1,1-1.9,2.2-3.5,2.3c-1.8,0.7-3.6,1.5-5.4,2.2c-1.4,0.6-2.8,1.1-4.2,1.7c-1.8,0.7-3.6,1.5-5.4,2.2
			c-1.4,0.6-2.8,1.1-4.2,1.7c-1.8,0.7-3.6,1.5-5.4,2.2c-1.4,0.6-2.8,1.1-4.2,1.7c-1.8,0.7-3.6,1.5-5.4,2.2c-1.4,0.6-2.8,1.1-4.2,1.7
			c-1.8,0.7-3.6,1.5-5.4,2.2c-1.4,0.6-2.8,1.1-4.2,1.7c-1.7,0.7-3.4,1.4-5.1,2.1c-1.8,0.6-3.5,0.2-5.2-0.3
			C108,276.1,107,275.5,106.3,274.6z"/>
	</g>
</g>
<g id="Editorial">
	<polygon class="st8" points="500,500 0,0 500,0 	"/>
	<polygon class="st7" points="250,250 500,500 0,500 	"/>
	<g>
		<path class="st9" d="M120.1,458v-33.9h25.7v8.9h-15.4v3.4h15.1v8.9h-15.1v3.7h15.4v8.9H120.1z"/>
		<path class="st9" d="M150.4,458v-33.9h15.1c10.7,0,18.6,6.1,18.6,16.9c0,10.8-7.9,17-18.5,17H150.4z M173.7,441.1
			c0-4.6-2.6-8-8.1-8h-4.9v16h4.9C170.6,449.1,173.7,445.4,173.7,441.1z"/>
		<path class="st9" d="M187.8,458v-33.9H198V458H187.8z"/>
		<path class="st9" d="M210.8,458v-24.9h-9.1v-8.9H230v8.9h-9V458H210.8z"/>
		<path class="st9" d="M230.9,441.1c0-10.4,8.1-17.5,18.5-17.5s18.5,7.1,18.5,17.5c0,10.4-8.1,17.5-18.5,17.5
			S230.9,451.5,230.9,441.1z M257.5,441.1c0-4.7-3.2-8.5-8.1-8.5s-8.1,3.8-8.1,8.5c0,4.7,3.2,8.5,8.1,8.5S257.5,445.9,257.5,441.1z"
			/>
		<path class="st9" d="M290.2,458l-4.7-10.7h-3.7V458h-10.3v-33.9h18.1c7.9,0,12.2,5.3,12.2,11.6c0,5.8-3.4,8.9-6.1,10.3l6.1,12
			H290.2z M291.4,435.8c0-1.8-1.6-2.6-3.4-2.6h-6.2v5.3h6.2C289.8,438.5,291.4,437.6,291.4,435.8z"/>
		<path class="st9" d="M306,458v-33.9h10.3V458H306z"/>
		<path class="st9" d="M344.3,458l-1.2-4h-12.2l-1.2,4h-11.6l12.5-33.9h12.9l12.5,33.9H344.3z M337,434.2l-3.4,10.9h6.7L337,434.2z"
			/>
		<path class="st9" d="M357.8,458v-33.9H368v24.9h12.8v8.9H357.8z"/>
	</g>
</g>
<g id="Camada_9" class="st0">
	<g class="st2">
		<path class="st4" d="M367.4,167.2l-12.9,14.1c-1.4,1.6-1.4,4,0.2,5.4l1.6,1.5c0.8,0.7,1.2,1.8,1.2,2.8v22.1c0,1.3,0.7,2.6,1.8,3.3
			h0c2.6,1.7,6-0.2,6-3.3v-23.8v-4.6c0-7.9,10.1-8.1,10.1,0.4v4.2v23.5c0,3.1,3.5,5,6.1,3.2l0,0c1.1-0.7,1.7-1.9,1.7-3.2V191
			c0-1.1,0.4-2.1,1.2-2.8l1.6-1.5c1.5-1.5,1.6-3.9,0.2-5.4l-12.9-14.1C371.6,165.6,368.9,165.6,367.4,167.2z"/>
		<g>
			<path class="st4" d="M372.9,234.6c-0.7,1.4-1.3,2.6-1.9,3.8c-3.7,7.6-7.4,15.1-11.1,22.7c-1.3,2.7-2.6,5.3-4,8
				c-1,2-2.7,3.1-5,3.3c-4.7,0.3-9.4,0.6-14.1,0.9c-4.8,0.3-9.6,0.6-14.5,0.9c-4.1,0.3-8.2,0.5-12.3,0.8c-4.3,0.3-8.5,0.5-12.8,0.8
				c-1.9,0.1-3.7,0.3-5.6,0.3c-4.5,0.1-7.5-4.5-5.4-8.5c3-5.9,6.1-11.8,9.1-17.7c2.5-4.8,5-9.6,7.4-14.5c1.2-2.5,3-3.7,5.8-4.1
				c4.8-0.6,9.7-1.4,14.5-2.1c6.9-1,13.8-2,20.7-3c8.8-1.3,17.7-2.5,26.5-3.9c2.7-0.4,5.2,0.3,7.7,0.8c8.8,1.9,17.7,3.9,26.5,5.8
				c11.1,2.4,22.2,4.9,33.4,7.2c2.3,0.5,3.9,1.7,4.9,3.9c1.6,3.9,3.3,7.7,4.9,11.5c2.3,5.4,4.6,10.8,6.8,16.2
				c0.8,1.9,1.6,3.9,2.4,5.8c0.9,2.1,0.9,4.2-0.5,6.1c-1.4,1.9-3.4,2.6-5.7,2.3c-4.4-0.6-8.7-1.2-13.1-1.8
				c-4.1-0.6-8.2-1.2-12.3-1.8c-3-0.4-6-0.8-9.1-1.2c-4.4-0.6-8.7-1.2-13.1-1.8c-3.6-0.5-7.1-1-10.7-1.5c-2.3-0.3-4-1.4-4.9-3.6
				c-1.8-4.3-3.5-8.7-5.3-13c-2.9-7-5.7-14-8.6-20.9C373.4,235.9,373.2,235.3,372.9,234.6z M293.6,269c1.3-0.1,2.5-0.1,3.8-0.2
				c3.5-0.2,7-0.5,10.6-0.7c4.3-0.3,8.5-0.5,12.8-0.8c4.7-0.3,9.5-0.6,14.2-0.9c4.2-0.3,8.5-0.6,12.7-0.7c1.7-0.1,2.9-0.4,3.4-2.3
				c0.1-0.3,0.3-0.5,0.4-0.7c2-4.1,4-8.1,6-12.2c3.2-6.5,6.3-13,9.5-19.5c0.1-0.2,0.4-0.5,0.2-0.8c-0.2-0.2-0.5-0.1-0.7,0
				c-8.1,1.2-16.2,2.3-24.2,3.5c-10.5,1.5-21,3.1-31.5,4.6c-1,0.1-1.6,0.5-1.9,1.4c-0.2,0.6-0.6,1.1-0.9,1.7
				c-4.3,8.4-8.6,16.8-12.9,25.2C294.4,267.3,294,268.1,293.6,269z M449.8,274.8c-1-2.3-1.8-4.3-2.7-6.4c-3.5-8.2-7-16.5-10.5-24.7
				c-0.2-0.4-0.4-0.6-0.9-0.7c-4.4-0.9-8.8-1.9-13.2-2.8c-9.1-2-18.3-3.9-27.4-5.9c-5-1.1-10-2.2-15.1-3.3c-0.3-0.1-0.6-0.2-0.9,0.1
				c-0.2,0.3,0.1,0.5,0.2,0.8c1.2,2.9,2.4,5.8,3.5,8.6c3.5,8.5,7,17.1,10.5,25.6c0.3,0.7,0.7,1,1.5,1.1c3.8,0.5,7.6,1,11.3,1.5
				c3.6,0.5,7.1,1,10.7,1.5c3,0.4,5.9,0.8,8.9,1.2c2.6,0.4,5.1,0.7,7.7,1.1c3.3,0.5,6.6,0.9,9.9,1.4
				C445.5,274.2,447.5,274.5,449.8,274.8z"/>
			<path class="st4" d="M374.2,291.3c-0.5,13.3-1,26.7-1.5,40c0,1.2,0,1.4,1.3,1.2c2.7-0.4,5.4-0.9,8.1-1.3
				c11.4-1.9,22.9-3.7,34.3-5.6c5.4-0.9,10.8-1.8,16.2-2.7c0.8-0.1,1.1-0.5,1.2-1.3c0.2-3.9,0.4-7.7,0.6-11.6
				c0.4-6.5,0.8-13,1.3-19.5c0.2-2.1,0.3-4.2,0.3-6.3c0-0.7,0.2-1,1-0.9c1.8,0.3,3.6,0.5,5.5,0.7c0.5,0.1,0.6,0.2,0.6,0.7
				c-0.3,4.2-0.5,8.4-0.8,12.6c0,0.3-0.1,0.6-0.1,0.8c-0.2,4-0.4,7.9-0.7,11.9c-0.3,4.5-0.5,8.9-0.8,13.4c-0.2,3.5-2.1,5.6-5.6,6.2
				c-10.5,1.7-20.9,3.4-31.4,5.1c-7.3,1.2-14.5,2.4-21.8,3.6c-2.4,0.4-4.8,0.9-7.3,1.1c-2.6,0.3-5.3,0.1-7.9-0.3
				c-7-1.3-13.8-3.1-20.7-4.6c-10.3-2.3-20.5-4.7-30.7-7.1c-4.1-0.9-8.1-1.9-12.2-2.8c-2.8-0.7-4.6-3.1-4.6-6.3
				c0-3.4,0.1-6.8,0.2-10.3c0.1-7,0.2-13.9,0.2-20.9c0-2.4,0.1-4.7,0.1-7.1c0-0.6,0.2-0.8,0.8-0.8c1.8,0,3.5-0.1,5.3-0.1
				c0.7,0,0.9,0.3,0.9,0.9c0,1.6-0.1,3.2-0.1,4.8c0,3.2-0.1,6.4-0.1,9.6c0,7.5,0,15-0.2,22.5c0,0.7,0.3,0.9,0.9,1.1
				c8.8,2,17.5,4,26.3,6.1c7,1.6,14,3.3,21,4.9c3.7,0.9,7.4,1.7,11.1,2.6c0.5,0.1,0.7,0,0.7-0.5c0-0.2,0-0.3,0-0.5
				c0.6-15.2,1.1-30.5,1.7-45.7c0.4-11.3,0.8-22.5,1.2-33.8c0-1.3,0.1-1.3,1.4-1.3c1.6,0.1,3.2,0.2,4.7,0.2c0.8,0,0.9,0.3,0.9,1
				c-0.4,9.4-0.7,18.8-1.1,28.1C374.5,283.2,374.4,287.2,374.2,291.3C374.2,291.3,374.2,291.3,374.2,291.3z"/>
			<path class="st4" d="M328.8,310.5c-0.1,2-0.2,4-0.2,6c0,0.7-0.2,0.9-1,0.7c-5.1-1.2-10.2-2.5-15.2-3.6c-0.9-0.2-1.2-0.6-1.2-1.5
				c0.2-3.8,0.3-7.6,0.4-11.4c0-1.3,0.1-1.3,1.3-1c5.1,1.2,10.2,2.4,15.2,3.6c0.7,0.2,0.9,0.5,0.8,1.1
				C328.9,306.5,328.9,308.5,328.8,310.5z"/>
		</g>
	</g>
</g>
<g id="Embalagens" class="st0">
	<polygon class="st10" points="0,0 500,500 0,500 	"/>
	<polygon class="st5" points="250,250 500,0 0,0 	"/>
	<g class="st2">
		<path class="st8" d="M79.5,458v-33.9h25.7v8.9H89.7v3.4h15.1v8.9H89.7v3.7h15.4v8.9H79.5z"/>
		<path class="st8" d="M139.7,458v-20.4l-7.6,20.4h-4.6l-7.6-20.4V458h-10.3v-33.9h14.2l5.9,16.2l5.9-16.2h14.2V458H139.7z"/>
		<path class="st8" d="M155.4,458v-33.9H176c7,0,10.1,4.7,10.1,8.6c0,4.2-2.5,7.1-5.8,7.8c3.7,0.6,6.4,3.9,6.4,8.3
			c0,4.7-3.2,9.2-10,9.2H155.4z M175.6,434.6c0-1.2-1-1.9-2-1.9h-7.9v4h7.9C174.7,436.7,175.6,435.9,175.6,434.6z M176.3,447.4
			c0-1.2-0.9-2.2-2.4-2.2h-8.2v4.3h8.2C175.4,449.5,176.3,448.7,176.3,447.4z"/>
		<path class="st8" d="M213.4,458l-1.2-4H200l-1.2,4h-11.6l12.5-33.9h12.9L225,458H213.4z M206.1,434.2l-3.4,10.9h6.7L206.1,434.2z"
			/>
		<path class="st8" d="M226.8,458v-33.9h10.3v24.9h12.8v8.9H226.8z"/>
		<path class="st8" d="M276.6,458l-1.2-4h-12.2l-1.2,4h-11.6l12.5-33.9h12.9l12.5,33.9H276.6z M269.3,434.2l-3.4,10.9h6.7
			L269.3,434.2z"/>
		<path class="st8" d="M286.7,441.1c0-10.9,8.4-17.5,18.6-17.5c8.1,0,12.7,4.5,14.9,8.8l-8.6,4.4c-1-2.1-3.2-4.2-6.2-4.2
			c-4.9,0-8.2,3.8-8.2,8.5c0,4.7,3.3,8.5,8.2,8.5c1.9,0,4.2-0.7,5.3-1.5v-1.2h-6.3v-8.9h16.5v13.9c-3.8,4.2-8.8,6.9-15.5,6.9
			C295.1,458.7,286.7,452,286.7,441.1z"/>
		<path class="st8" d="M325.4,458v-33.9h25.7v8.9h-15.4v3.4h15.1v8.9h-15.1v3.7h15.4v8.9H325.4z"/>
		<path class="st8" d="M378.4,458l-12.5-17.2V458h-10.3v-33.9h10.6l11.8,16v-16h10.3V458H378.4z"/>
		<path class="st8" d="M391.2,453.3l5.3-7.6c2.5,2.4,6.3,4.4,10.9,4.4c1.9,0,3.8-0.5,3.8-1.8c0-3.2-18.9,0.1-18.9-13.3
			c0-5.7,4.8-11.2,14.1-11.2c5.5,0,10.5,1.6,14.4,4.7l-5.5,7.3c-2.9-2.2-6.8-3.4-10-3.4c-2,0-2.6,0.7-2.6,1.5
			c0,3.2,18.8,0.5,18.8,13c0,7.5-5.5,11.8-14.6,11.8C399.7,458.7,394.8,456.5,391.2,453.3z"/>
	</g>
</g>
<g id="Marcas2" class="st0">
	<polygon class="st11" points="336.2,353.9 310.2,337.9 282.3,350.3 289.4,320.7 269.1,298 299.5,295.6 314.8,269.2 326.4,297.4 
		356.2,303.8 333,323.6 	"/>
	<polygon class="st11" points="142.2,437.3 137.7,377.1 85.7,346.7 141.5,323.9 154.3,265 193.3,311 253.3,305 221.5,356.3 
		245.8,411.5 187.2,397.2 	"/>
	<polygon class="st11" points="317.7,370 338,377.3 355.5,364.7 354.9,386.3 372.3,399.1 351.6,405.1 344.8,425.6 332.7,407.8 
		311.1,407.7 324.3,390.6 	"/>
</g>
<g id="Marcas" class="st0">
	<polygon class="st5" points="0,500 500,0 0,0 	"/>
	<polygon class="st10" points="250,250 500,0 500,500 	"/>
	<g class="st2">
		<path class="st8" d="M165.5,458v-20.4l-7.6,20.4h-4.6l-7.6-20.4V458h-10.3v-33.9h14.2l5.9,16.2l5.9-16.2h14.2V458H165.5z"/>
		<path class="st8" d="M203.8,458l-1.2-4h-12.2l-1.2,4h-11.6l12.5-33.9H203l12.5,33.9H203.8z M196.5,434.2l-3.4,10.9h6.7
			L196.5,434.2z"/>
		<path class="st8" d="M235.9,458l-4.7-10.7h-3.7V458h-10.3v-33.9h18.1c7.9,0,12.2,5.3,12.2,11.6c0,5.8-3.4,8.9-6.1,10.3l6.1,12
			H235.9z M237.1,435.8c0-1.8-1.6-2.6-3.4-2.6h-6.2v5.3h6.2C235.5,438.5,237.1,437.6,237.1,435.8z"/>
		<path class="st8" d="M249.9,441.1c0-10.5,8-17.5,18.6-17.5c8.9,0,13.4,5.2,15.4,9.8l-8.8,4.1c-0.9-2.6-3.5-4.9-6.5-4.9
			c-4.9,0-8.2,3.8-8.2,8.5c0,4.7,3.3,8.5,8.2,8.5c3,0,5.7-2.3,6.5-4.9l8.8,4.1c-2,4.5-6.5,9.9-15.4,9.9
			C257.9,458.7,249.9,451.5,249.9,441.1z"/>
		<path class="st8" d="M309.2,458l-1.2-4h-12.2l-1.2,4h-11.6l12.5-33.9h12.9l12.5,33.9H309.2z M301.9,434.2l-3.4,10.9h6.7
			L301.9,434.2z"/>
		<path class="st8" d="M320,453.3l5.3-7.6c2.5,2.4,6.3,4.4,10.9,4.4c1.9,0,3.8-0.5,3.8-1.8c0-3.2-18.9,0.1-18.9-13.3
			c0-5.7,4.8-11.2,14.1-11.2c5.5,0,10.5,1.6,14.4,4.7l-5.5,7.3c-2.9-2.2-6.8-3.4-10-3.4c-2,0-2.6,0.7-2.6,1.5
			c0,3.2,18.8,0.5,18.8,13c0,7.5-5.5,11.8-14.6,11.8C328.6,458.7,323.6,456.5,320,453.3z"/>
	</g>
</g>
<g id="Promocional2" class="st0">
	<g class="st2">
		<path class="st4" d="M278.3,305.5c-8.3,0.7-16.3-4-23.3,4.6c-5.7,6.9-16,5.1-19.8-3.5c-6.2-14.2-11.1-29-13.8-44.3
			c-1.7-9.6,5.7-16,15.3-13.6c4.4,1.1,7.3,0,10.7-2.4c29.3-20.8,58.7-41.5,88.1-62.1c3.7-2.6,6.4-5.6,7.8-10.1
			c2.1-6.9,7.4-10.5,14.5-11c6.8-0.4,12,2.8,15.2,8.8c1.6,2.9,2.8,6.1,3.8,9.3c11,34.5,21.8,69,32.7,103.5c1.2,3.7,2.3,7.4,2.2,11.4
			c-0.3,12.1-12.6,20.5-22.8,14.3c-7.5-4.6-14.8-5.1-22.8-5c-9.3,0.2-18.6,0.1-27.9,0c-4.6,0-8,1.5-9.8,6c-1.6,4.1-2.9,7.1,3.8,7.7
			c7.1,0.6,10.8,5.7,9.1,12.5c-4.3,17.6-4.6,36.2-12.3,53c-0.5,1.1-0.4,2.5-0.5,3.8c-1.7,12.6-3,13.5-15.3,14.5
			c-6.7,0.5-13.2,2.4-19.8,3.4c-14.4,2-28.8,2.7-43-1.7c-3.4-1.1-6.6-0.4-9.8,0.6c-10.3,3.3-20.7,6.4-31,9.9
			c-4.7,1.6-7.4,0.3-8.8-4.4c-4.4-14.1-8.9-28.1-13.4-42.1c-1.6-4.8-0.4-7.6,4.8-9.3c11-3.6,21.8-8,32.8-11.6
			c5.7-1.8,8.7-6.3,12.2-10.3c4.9-5.7,9.6-11.5,14.2-17.4c5.8-7.6,12.6-13,22.9-11.6C275.5,308.7,277.3,308.8,278.3,305.5z
			 M385.3,235.6C385.3,235.6,385.4,235.6,385.3,235.6c-2.5-7.9-4.9-15.8-7.4-23.6c-3.6-11.3-7.1-22.7-10.9-33.9
			c-1.4-4.2-4.4-7.1-9.3-6.5c-4.4,0.5-7.1,3.1-7.4,7.6c-0.2,3.4-1.9,5.6-4.6,7.6c-33.4,23.5-66.7,47-100,70.5
			c-3.1,2.2-5.6,3.6-9.5,0.6c-3.9-3-8.2,0-6.8,4.8c3.8,13.4,8,26.7,12.7,39.8c1.3,3.6,6.1,6.2,7.8,0.8c1.9-6.4,5.8-6.1,10.5-6
			c6.5,0.1,12.9,0.1,19.4,0c4.8-0.1,8.2,1.1,7.7,6.8c-0.4,3.8,1.1,6,5.2,5.6c6.3-0.5,10.7,2.4,14.6,7c4.1,4.8,8.7,3.7,11.4-2
			c1.5-3.3,3.3-6.5,4.2-10c1.5-5.8,5.1-7.4,10.8-7.3c15.5,0.3,31,0.1,46.4,0.1c2.9,0,5.7,0,7.8,2.4c3.3,3.8,7.3,6.3,12.1,3
			c5-3.4,3.9-8.4,2.3-13.3C396.7,271.6,391,253.6,385.3,235.6z M289.3,398.9c-12-4.6-12.5-5.4-11.2-17.6c0.1-1.2,0-2.5-0.2-3.8
			c-1.5-12.4-4.4-24.6-2.1-37.2c0.8-4.3,2.5-7.8,5.6-10.7c1.5-1.4,3.2-1.6,4.9-0.2c1.6,1.2,2.8,3,1.4,4.6
			c-7.5,8.7,1.2,14.7,3.4,21.7c0.8,2.5,3.5,3,5.9,2.7c3-0.4,3.4-2.8,3.3-5.2c-0.2-9.8-0.5-19.6-0.7-29.4c-0.1-3.2-1.2-5.6-4.7-5.9
			c-16.1-1.6-32.9-5.4-42.6,13.5c-1.3,2.4-4,4.1-5.5,6.5c-7.5,12.6-18.8,19.2-32.8,22.2c-4,0.9-7.9,2.5-11.9,3.6
			c-5.5,1.4-6.8,4.5-5,9.8c3,8.8,5.8,17.6,8.3,26.6c1.6,5.7,4.6,6.6,9.8,4.8c8.3-2.9,16.7-5.4,25.1-8c3-0.9,5.9-1.8,9.1-0.6
			C261.8,400.9,274.7,400.2,289.3,398.9z M312.4,327.5c-3.8-0.1-4.5,2.1-4.2,5c0.3,3.4-1.1,7.7,4.4,8.3c4.8,0.5,9.7,1.2,14.6,0.9
			c7-0.4,5.2-6.6,5.9-10.6c0.8-4.7-3.1-4.5-6.2-4.4C321.9,326.9,317,327.2,312.4,327.5z M289.3,367.5c-3,0.7-4.3,1.5-4.4,3.3
			c-0.2,2.5,1.4,4.1,3.6,4.3c10.8,0.9,21.6,1.6,32.3,2.1c2.6,0.1,3.9-2.1,4.2-4.7c0.2-1.8-0.6-3.3-2.4-3.4
			C311.1,368.5,299.5,368,289.3,367.5z M320.4,387.4c-0.6-0.5-1.2-1.6-2-1.6c-9.9-0.7-19.9-1.4-29.9-1.9c-1.6-0.1-2.9,1.3-2.9,3
			c0,1.9,1.5,2.6,3.1,2.8c8.8,1.6,17.6,3.5,26.5,4.8C320.3,395.3,320,391.1,320.4,387.4z M329.3,353.1c-0.5-2.5-2.1-3.1-4-3.3
			c-4.1-0.3-8.2-0.5-12.3-0.7c-3.4-0.2-4.7,1.7-4.6,4.7c0.1,2.7-0.5,6.1,3.5,6.6c3.8,0.4,7.7,0.4,11.5,0.5
			C329.3,361,328.7,356.5,329.3,353.1z"/>
		<path class="st4" d="M435.3,153c1,2.1-0.2,3.4-1.6,4.7c-12.6,11.8-25.2,23.5-37.8,35.3c-1.8,1.6-3.6,3.1-6,0.8
			c-2.6-2.5-1.5-4.6,0.6-6.5c12.6-11.7,25.3-23.4,37.9-35.1C431.1,149.6,433.4,149.6,435.3,153z"/>
		<path class="st4" d="M416.1,263.4c0.9,0,2.2,0,3.4,0.2c16.1,2.2,32.2,4.3,48.2,6.6c2.6,0.4,6.2,0.3,5.6,4.6
			c-0.6,4-3.8,3.6-6.6,3.2c-16.3-2.3-32.6-4.6-48.9-7.1c-2.2-0.3-4.9-0.6-4.6-3.9C413.3,265.4,413.9,264.1,416.1,263.4z"/>
		<path class="st4" d="M429.2,225.3c-7.1,2.3-14.3,4.5-21.4,6.7c-2.5,0.8-5.2,1.7-6.4-1.9c-1.4-4,1.4-5,4.2-5.9
			c14.5-4.6,29-9.2,43.6-13.7c2.5-0.8,5.2-1.5,6.5,1.9c1.4,4-1.4,5-4.2,5.9C444,220.6,436.6,223,429.2,225.3z"/>
		<path class="st4" d="M303.3,254.9c-13.1,4.1-26.1,8.3-39.2,12.3c-4.2,1.3-8.5,3.1-10.9-3.1c-2-5.1-2.2-9,3.3-12.5
			c25.2-16.2,50.2-32.7,75.1-49.3c4.8-3.2,7.6-3.4,9.3,2.9c2.5,9,5.3,17.8,8.4,26.6c2.1,5.9,0.1,8.5-5.5,10.2
			C330.3,246.3,316.8,250.6,303.3,254.9z M262.4,257.7c0.2,0.5,0.4,0.9,0.7,1.4c20.8-6.6,41.7-13,62.5-19.8
			c17.1-5.6,17.3-1.2,10.5-22.1c-0.1-0.2-0.2-0.5-0.3-0.7c-1.3-3.8-3.5-4.8-7-2.4c-5.6,3.7-11.3,7.3-16.9,11
			C295.4,235.9,278.9,246.8,262.4,257.7z"/>
	</g>
</g>
<g id="Promocional" class="st0">
	<polygon class="st5" points="250,250 0,0 500,0 	"/>
	<polygon class="st6" points="250,250 0,0 0,500 	"/>
	<g class="st2">
		<path class="st7" d="M61.4,460.4v-33.9h18.1c7.9,0,12.2,5.3,12.2,11.6c0,6.3-4.3,11.6-12.2,11.6h-7.8v10.7H61.4z M81.3,438.2
			c0-1.8-1.4-2.7-3.1-2.7h-6.5v5.3h6.5C79.9,440.8,81.3,440,81.3,438.2z"/>
		<path class="st7" d="M113.6,460.4l-4.7-10.7h-3.7v10.7H95v-33.9h18.1c7.9,0,12.2,5.3,12.2,11.6c0,5.8-3.4,8.9-6.1,10.3l6.1,12
			H113.6z M114.9,438.2c0-1.8-1.6-2.6-3.4-2.6h-6.2v5.3h6.2C113.2,440.8,114.9,440,114.9,438.2z"/>
		<path class="st7" d="M127.6,443.5c0-10.4,8.1-17.5,18.5-17.5s18.5,7.1,18.5,17.5c0,10.4-8.1,17.5-18.5,17.5
			S127.6,453.9,127.6,443.5z M154.3,443.5c0-4.7-3.2-8.5-8.1-8.5s-8.1,3.8-8.1,8.5c0,4.7,3.2,8.5,8.1,8.5S154.3,448.3,154.3,443.5z"
			/>
		<path class="st7" d="M198.3,460.4v-20.4l-7.6,20.4h-4.6l-7.6-20.4v20.4h-10.3v-33.9h14.2l5.9,16.2l5.9-16.2h14.2v33.9H198.3z"/>
		<path class="st7" d="M212.2,443.5c0-10.4,8.1-17.5,18.5-17.5s18.5,7.1,18.5,17.5c0,10.4-8.1,17.5-18.5,17.5
			S212.2,453.9,212.2,443.5z M238.8,443.5c0-4.7-3.2-8.5-8.1-8.5s-8.1,3.8-8.1,8.5c0,4.7,3.2,8.5,8.1,8.5S238.8,448.3,238.8,443.5z"
			/>
		<path class="st7" d="M251.1,443.5c0-10.5,8-17.5,18.6-17.5c8.9,0,13.4,5.2,15.4,9.8l-8.8,4.1c-0.9-2.6-3.5-4.9-6.5-4.9
			c-4.9,0-8.2,3.8-8.2,8.5c0,4.7,3.3,8.5,8.2,8.5c3,0,5.7-2.3,6.5-4.9l8.8,4.1c-2,4.5-6.5,9.9-15.4,9.9
			C259.1,461.1,251.1,453.9,251.1,443.5z"/>
		<path class="st7" d="M288.3,460.4v-33.9h10.3v33.9H288.3z"/>
		<path class="st7" d="M302.2,443.5c0-10.4,8.1-17.5,18.5-17.5s18.5,7.1,18.5,17.5c0,10.4-8.1,17.5-18.5,17.5
			S302.2,453.9,302.2,443.5z M328.8,443.5c0-4.7-3.2-8.5-8.1-8.5c-4.9,0-8.1,3.8-8.1,8.5c0,4.7,3.2,8.5,8.1,8.5
			C325.6,452,328.8,448.3,328.8,443.5z"/>
		<path class="st7" d="M365.6,460.4l-12.5-17.2v17.2h-10.3v-33.9h10.6l11.8,16v-16h10.3v33.9H365.6z"/>
		<path class="st7" d="M403.6,460.4l-1.2-4h-12.2l-1.2,4h-11.6l12.5-33.9h12.9l12.5,33.9H403.6z M396.3,436.6l-3.4,10.9h6.7
			L396.3,436.6z"/>
		<path class="st7" d="M417,460.4v-33.9h10.3v24.9h12.8v8.9H417z"/>
	</g>
</g>
<g id="Contato2" class="st0">
	<g class="st2">
		<path class="st4" d="M80.9,311.9C64.6,253.8,48.3,195.7,32,137.6c2.1-13.8,10.8-20.7,23.8-24.4C129.6,92.8,203.3,72.1,277,51.2
			c13.1-3.7,24-2.3,33,8.4c13.6,48.6,27.3,97.2,40.9,145.8c-1.7,3.2-4.1,5.6-8.1,5.1c-4.1-0.5-5.5-3.6-6.4-7.1
			c-0.5-2.1-1.2-4.1-1.7-6.2c-11.2-39.7-22.3-79.4-33.5-119.2c-0.5-1.9-0.2-5-2.9-5.1c-2.1-0.1-2.5,2.6-3.5,4.2
			c-15.9,27.3-31.8,54.7-47.6,82.1c-4.2,7.3-4.2,7.4,2.8,11.7c33.2,20.7,66.5,41.3,99.7,62c7.8,4.8,8.4,9.9,2.1,16.6
			c-4.3,4.6-9.8,6.6-15.7,8.3c-74.3,20.8-148.6,41.6-222.9,62.7C100.4,324.1,89.7,322.2,80.9,311.9z M283.9,65.1
			C208.3,86.3,132.8,107.5,57,128.8c1.5,3,4.2,3.6,6.4,4.7c43.2,23.5,86.4,47,129.6,70.5c8.9,4.8,8.9,4.8,14.1-4
			c24.9-42.9,49.8-85.8,74.7-128.7C282.7,69.6,284.4,68,283.9,65.1z M220.2,275.1c36.4-10.2,72.9-20.4,109.3-30.7
			c1.9-0.5,5-0.2,5.2-2.8c0.2-1.9-2.5-2.7-4.1-3.7c-30-18.6-60-37.2-89.9-55.9c-3.8-2.4-5.9-2-8.1,2c-6.3,11.4-12.9,22.6-19.6,33.9
			c-5,8.4-7.5,9.2-16,4.6c-11.5-6.2-23-12.4-34.3-18.8c-3.9-2.2-5.9-1.7-8,2.4c-15.8,31.5-31.8,63-47.7,94.5
			c-0.8,1.7-2.7,3.7-1.6,5.3c1.5,2.1,4,0.2,5.9-0.3C147.7,295.4,183.9,285.2,220.2,275.1z M91.8,297.4c2.3-1.8,3-4.1,4-6.1
			c15.2-29.9,30.1-59.9,45.5-89.7c2.9-5.6,2.4-8.2-3.4-11.3c-27.9-14.8-55.6-30.1-83.4-45.1c-1.8-1-3.9-3.4-5.7-2.1
			c-2.4,1.7-0.2,4.3,0.4,6.4c13.2,47.3,26.5,94.6,39.8,141.9C89.6,293.3,89.6,295.6,91.8,297.4z"/>
	</g>
</g>
<g id="Contato" class="st0">
	<polygon class="st6" points="250,250 500,500 0,500 	"/>
	<polygon class="st10" points="250,250 500,500 500,0 	"/>
	<g class="st2">
		<path class="st9" d="M130.7,441.1c0-10.5,8-17.5,18.6-17.5c8.9,0,13.4,5.2,15.4,9.8l-8.8,4.1c-0.9-2.6-3.5-4.9-6.5-4.9
			c-4.9,0-8.2,3.8-8.2,8.5c0,4.7,3.3,8.5,8.2,8.5c3,0,5.7-2.3,6.5-4.9l8.8,4.1c-2,4.5-6.5,9.9-15.4,9.9
			C138.7,458.7,130.7,451.5,130.7,441.1z"/>
		<path class="st9" d="M166.1,441.1c0-10.4,8.1-17.5,18.5-17.5s18.5,7.1,18.5,17.5c0,10.4-8.1,17.5-18.5,17.5
			S166.1,451.5,166.1,441.1z M192.7,441.1c0-4.7-3.2-8.5-8.1-8.5c-4.9,0-8.1,3.8-8.1,8.5c0,4.7,3.2,8.5,8.1,8.5
			C189.5,449.6,192.7,445.9,192.7,441.1z"/>
		<path class="st9" d="M229.5,458L217,440.9V458h-10.3v-33.9h10.6l11.8,16v-16h10.3V458H229.5z"/>
		<path class="st9" d="M252.1,458v-24.9H243v-8.9h28.4v8.9h-9V458H252.1z"/>
		<path class="st9" d="M294.6,458l-1.2-4h-12.2l-1.2,4h-11.6l12.5-33.9h12.9l12.5,33.9H294.6z M287.3,434.2l-3.4,10.9h6.7
			L287.3,434.2z"/>
		<path class="st9" d="M312.3,458v-24.9h-9.1v-8.9h28.4v8.9h-9V458H312.3z"/>
		<path class="st9" d="M332.4,441.1c0-10.4,8.1-17.5,18.5-17.5s18.5,7.1,18.5,17.5c0,10.4-8.1,17.5-18.5,17.5
			S332.4,451.5,332.4,441.1z M359,441.1c0-4.7-3.2-8.5-8.1-8.5c-4.9,0-8.1,3.8-8.1,8.5c0,4.7,3.2,8.5,8.1,8.5
			C355.8,449.6,359,445.9,359,441.1z"/>
	</g>
</g>
<g id="Camada_3">
	<path class="st12" d="M0,0v500h500V0H0z M479.5,479.5h-459v-459h459V479.5z"/>
</g>
</svg>
