<?xml version="1.0" encoding="utf-8"?>
<!-- Generator: Adobe Illustrator 22.0.1, SVG Export Plug-In . SVG Version: 6.00 Build 0)  -->
<svg version="1.1" id="Camada_1" xmlns="http://www.w3.org/2000/svg" xmlns:xlink="http://www.w3.org/1999/xlink" x="0px" y="0px"
	 viewBox="0 0 900.9 157.9" style="enable-background:new 0 0 900.9 157.9;" xml:space="preserve">
<style type="text/css">
	.st0{fill:#FFCC00;}
	.st1{clip-path:url(#SVGID_2_);}
	.st2{fill:#FFFFFF;}
	.st3{fill:#56B7E0;}
</style>
<polygon class="st0" points="165.7,-7.4 475.4,-7.4 299.7,168.3 -10.4,168.3 "/>
<g>
	<defs>
		<polygon id="SVGID_1_" points="165.7,-7.4 475.4,-7.4 299.7,168.3 -10.4,168.3 		"/>
	</defs>
	<clipPath id="SVGID_2_">
		<use xlink:href="#SVGID_1_"  style="overflow:visible;"/>
	</clipPath>
	<g class="st1">
		<path class="st2" d="M209.2,146.3c0.5,0.2,1,0.2,1.6,0.1c0.8-0.2,1.4-0.7,1.8-1.3c0.4-0.7,0.9-2-0.1-3.6
			c-3.6-7.6-7.2-15.1-10.7-22.7c-4-8.4-7.9-16.8-11.9-25.1c-1.1-2.3-2.9-2.5-3.9-2.5c-1.3,0.1-3.4-1.8-3.9-3.7
			c-0.5-2.2,0.4-4.4,2.3-5.6c1.9-1.2,4.3-1.1,6.1,0.4c1.7,1.4,2.3,3.7,1.6,5.7c0,0.1,0,0.1-0.1,0.2c-2,2.4-0.8,4.9-0.4,5.8
			c5.3,11.1,10.6,22.4,15.8,33.3c2.1,4.5,4.3,9,6.4,13.5c0,0,0,0.1,0,0.1c0.2,0.5,0.6,1.4,1.6,2.1c1.3,0.9,3,0.5,3.9-0.7
			c0.8-1.1,0.7-2.3,0.7-2.7c0,0,0-0.1,0-0.1c0.4-20.3,1-36.9,2-52.3c0.5-7.1,1.1-15.5,2.3-23.8c0.4-3-1.7-4.2-2.7-4.5c0,0,0,0-0.1,0
			c-4.5-1.5-8.9-3.3-13.3-5.4c-7.8-3.6-13.5-7.6-18-12.4c-2.8-3-5.2-6.5-7.2-10.6c-1-2.1-3-2.7-5.1-1.7c-10.5,5-20.2,9.6-29.6,14
			c-2.1,1-2.9,3-1.9,5.2c4.1,8.7,5.1,18.1,3,28.7c-0.9,4.4-2.1,8.9-3.7,13.8c-0.2,0.5-0.3,1-0.5,1.5c-0.4,1.3-0.8,2.5-1.3,3.7
			c-0.7,2-0.1,3.8,1.7,4.9c7.8,4.7,15.4,10.1,22.4,15.1c7.5,5.4,15.3,11.2,23,17.2c3.6,2.8,7.3,5.7,10.9,8.5
			c1.9,1.5,3.8,2.9,5.6,4.4c0.2,0.2,0.5,0.3,0.6,0.5c0.1,0,0.1,0.1,0.2,0.2C208.7,146.1,208.9,146.2,209.2,146.3z M185.1,96.7
			c3.9,8.2,7.7,16.3,11.6,24.5c2.1,4.5,4.2,9,6.4,13.4c-2.8-2.2-5.7-4.4-8.5-6.6c-7.8-6-15.6-11.8-23.2-17.3
			c-6.8-4.9-14-10-21.6-14.7c0.3-0.9,0.6-1.8,0.9-2.7c0.2-0.5,0.3-1,0.5-1.5c1.7-5.1,3-9.9,3.9-14.5c2.2-11.2,1.3-21.2-2.7-30.6
			c8.5-4,17.2-8.1,26.5-12.6c2.1,4,4.5,7.4,7.3,10.4c5,5.4,11.3,9.7,19.8,13.7c4.1,1.9,8.4,3.7,12.6,5.2c-1.1,8.1-1.7,16.2-2.2,23.1
			c-0.8,12.9-1.4,26.6-1.8,42.6c-0.7-1.5-1.4-3-2.1-4.5c-5.2-10.9-10.5-22.2-15.8-33.3c0,0,0-0.1,0-0.1c0.4-0.5,0.5-1,0.6-1.3
			c0,0,0-0.1,0-0.1c1.6-4.2,0.3-9.1-3.2-12c-3.6-3-8.7-3.3-12.7-0.8c-3.8,2.4-5.7,7.1-4.7,11.5C177.4,92.3,181,96.2,185.1,96.7z
			 M192.2,87.7C192.2,87.7,192.2,87.7,192.2,87.7C192.2,87.7,192.2,87.7,192.2,87.7z"/>
		<path class="st2" d="M140.3,42.2c0.1,0,0.3,0.1,0.4,0.1c1.3,0.2,2.3-0.3,2.7-0.5c0,0,0.1,0,0.1,0l2.2-1c7-3.3,14.2-6.7,21.3-10.1
			c1.9-0.9,3.8-1.8,5.6-2.7c2.7-1.3,5.5-2.6,8.2-3.9c2.1-1,2.9-2.9,2-5.1c-1.5-3.9-3.1-7.9-4.6-11.8c-0.5-1.4-1.1-2.8-1.6-4.2
			l-3-7.7c-1.8-4.7-3.7-9.5-5.5-14.2l-0.4-0.9c-1.8-4.7-3.7-9.6-5.6-14.5c-0.5-1.3-1.4-1.9-2-2.2c-1.4-0.6-2.6,0-3.1,0.3l-0.9,0.4
			c-6.1,2.9-12.4,6-18.6,8.9c-4.4,2.1-8.9,4.2-13.3,6.4c-3.3,1.6-6.6,3.1-9.9,4.7c-0.5,0.2-0.9,0.4-1.3,0.7
			c-0.6,0.3-1.1,0.6-1.7,0.8c-1.4,0.6-1.9,1.5-2.1,2.2c-0.3,1-0.2,2,0.4,3.1c1.1,1.9,2.2,3.9,3.3,5.7c0.7,1.1,1.3,2.3,2,3.4
			c4.1,7.1,8.3,14.2,12.4,21.4c1.4,2.4,2.8,4.8,4.1,7.1c1.6,2.8,3.3,5.6,4.9,8.5c0.3,0.5,0.6,1,0.9,1.5c0.3,0.6,0.7,1.2,1,1.8l0,0.1
			c0.2,0.4,0.7,1.2,1.7,1.7C140.1,42.1,140.2,42.1,140.3,42.2z M177.1,19.5c-2.3,1.1-4.6,2.2-6.9,3.3c-1.8,0.9-3.7,1.8-5.6,2.7
			c-7.1,3.4-14.3,6.8-21.3,10.1l-0.9,0.4c-0.1-0.1-0.1-0.2-0.2-0.3c-0.3-0.5-0.6-1.1-0.9-1.6c-1.6-2.8-3.3-5.6-4.9-8.5
			c-1.4-2.4-2.8-4.8-4.1-7.1c-4.1-7.1-8.3-14.2-12.4-21.4c-0.7-1.1-1.3-2.3-2-3.4c-0.8-1.3-1.5-2.7-2.3-4c0,0,0,0,0.1,0
			c0.4-0.2,0.8-0.4,1.2-0.6c3.3-1.6,6.6-3.1,9.9-4.7c4.5-2.1,8.9-4.2,13.4-6.4c5.9-2.8,11.9-5.7,17.7-8.5c1.6,4.2,3.2,8.4,4.8,12.5
			l0.4,0.9c1.8,4.7,3.7,9.5,5.5,14.2l3,7.7c0.5,1.4,1.1,2.8,1.6,4.2C174.4,12.5,175.7,16,177.1,19.5z"/>
	</g>
</g>
<path class="st2" d="M193.6,133.5l-11,18.8h59.5l-11-18.8H193.6z M230.6,149.2h-36.4l5.5-12.7h25.4L230.6,149.2z"/>
<rect x="230.6" y="139.8" class="st2" width="256.1" height="3.9"/>
<polygon class="st3" points="906,168.3 248.7,168.3 424.4,-7.6 906,-7.7 "/>
<g>
	<path class="st2" d="M502.2,97.2l-1.3-4.1h-12.3l-1.3,4.1h-11.8l12.6-34.3h13l12.6,34.3H502.2z M494.8,73.1l-3.4,11.1h6.7
		L494.8,73.1z"/>
	<path class="st2" d="M534.7,97.2L530,86.4h-3.8v10.8h-10.4V62.9h18.3c8,0,12.3,5.3,12.3,11.8c0,5.9-3.5,9.1-6.2,10.4l6.2,12.2
		H534.7z M536,74.7c0-1.8-1.7-2.7-3.4-2.7h-6.3v5.5h6.3C534.3,77.3,536,76.5,536,74.7z"/>
	<path class="st2" d="M557.5,97.2V72h-9.2v-9.1H577V72h-9.1v25.2H557.5z"/>
	<path class="st2" d="M580.8,97.2V62.9h26V72h-15.7v3.4h15.3v9.1h-15.3v3.8h15.7v9.1h-26V97.2L580.8,97.2z"/>
	<path class="st2" d="M633.4,97.2l-12.6-34.3h11.8L640,86l7.4-23.1h11.8l-12.6,34.3H633.4z"/>
	<path class="st2" d="M660.8,97.2V62.9h26V72h-15.7v3.4h15.3v9.1h-15.3v3.8h15.7v9.1h-26V97.2L660.8,97.2z"/>
	<path class="st2" d="M698.9,97.2V72h-9.2v-9.1h28.7V72h-9.1v25.2H698.9z"/>
	<path class="st2" d="M719.2,80.1c0-10.5,8.1-17.8,18.8-17.8c10.6,0,18.8,7.1,18.8,17.8s-8.1,17.8-18.8,17.8
		C727.3,97.9,719.2,90.6,719.2,80.1z M746.1,80.1c0-4.8-3.2-8.5-8.3-8.5s-8.3,3.8-8.3,8.5c0,4.8,3.2,8.5,8.3,8.5
		C742.8,88.7,746.1,84.9,746.1,80.1z"/>
	<path class="st2" d="M779.2,97.2l-4.8-10.8h-3.8v10.8h-10.4V62.9h18.3c8,0,12.3,5.3,12.3,11.8c0,5.9-3.5,9.1-6.2,10.4l6.2,12.2
		H779.2z M780.3,74.7c0-1.8-1.7-2.7-3.4-2.7h-6.3v5.5h6.3C778.8,77.3,780.3,76.5,780.3,74.7z"/>
	<path class="st2" d="M795.2,97.2V62.9h10.4v34.3H795.2z"/>
	<path class="st2" d="M833.9,97.2l-1.3-4.1h-12.3l-1.3,4.1h-11.8L820,62.9h13l12.6,34.3H833.9z M826.5,73.1l-3.4,11.1h6.7
		L826.5,73.1z"/>
	<path class="st2" d="M847.5,97.2V62.9h10.4v25.2h13v9.1H847.5z"/>
</g>
</svg>
