<?xml version="1.0" encoding="utf-8"?>
<!-- Generator: Adobe Illustrator 22.0.1, SVG Export Plug-In . SVG Version: 6.00 Build 0)  -->
<svg version="1.1" id="Camada_1" xmlns="http://www.w3.org/2000/svg" xmlns:xlink="http://www.w3.org/1999/xlink" x="0px" y="0px"
	 viewBox="0 0 903.9 157.9" style="enable-background:new 0 0 903.9 157.9;" xml:space="preserve">
<style type="text/css">
	.st0{fill:#56B7E0;}
	.st1{fill:#D60D47;}
	.st2{fill:#FFCC00;}
	.st3{clip-path:url(#SVGID_2_);fill:#FFFFFF;}
</style>
<rect y="0" class="st0" width="903.8" height="158"/>
<polygon class="st1" points="0,0 530.9,0 372.9,158 0,158 "/>
<g>
	<path class="st2" d="M32,79c0-10.5,8-17.5,18.6-17.5c8.9,0,13.4,5.2,15.4,9.8l-8.8,4.1c-0.9-2.6-3.5-4.9-6.5-4.9
		c-4.9,0-8.2,3.8-8.2,8.5s3.3,8.5,8.2,8.5c3,0,5.7-2.3,6.5-4.9l8.8,4.1c-2,4.5-6.5,9.9-15.4,9.9C40,96.6,32,89.4,32,79z"/>
	<path class="st2" d="M67.4,79c0-10.4,8.1-17.5,18.5-17.5s18.5,7.1,18.5,17.5s-8.1,17.5-18.5,17.5S67.4,89.4,67.4,79z M94,79
		c0-4.7-3.2-8.5-8.1-8.5s-8.1,3.8-8.1,8.5s3.2,8.5,8.1,8.5S94,83.8,94,79z"/>
	<path class="st2" d="M130.8,95.9l-12.5-17.1v17.1H108V62h10.6l11.8,16V62h10.3v33.9H130.8z"/>
	<path class="st2" d="M153.4,95.9V71h-9.1v-8.9h28.4V71h-9v24.9H153.4z"/>
	<path class="st2" d="M195.9,95.9l-1.2-4h-12.2l-1.2,4h-11.6L182.2,62h12.9l12.5,33.9H195.9z M188.6,72.1L185.2,83h6.7L188.6,72.1z"
		/>
	<path class="st2" d="M213.6,95.9V71h-9.1v-8.9h28.4V71h-9v24.9H213.6z"/>
	<path class="st2" d="M233.7,79c0-10.4,8.1-17.5,18.5-17.5c10.4,0,18.5,7.1,18.5,17.5s-8.1,17.5-18.5,17.5S233.7,89.4,233.7,79z
		 M260.3,79c0-4.7-3.2-8.5-8.1-8.5s-8.1,3.8-8.1,8.5s3.2,8.5,8.1,8.5C257.1,87.5,260.3,83.8,260.3,79z"/>
</g>
<g>
	<g>
		<defs>
			<rect id="SVGID_1_" x="638.7" y="0" width="265.2" height="158"/>
		</defs>
		<clipPath id="SVGID_2_">
			<use xlink:href="#SVGID_1_"  style="overflow:visible;"/>
		</clipPath>
		<path class="st3" d="M908.4,118.7c-3.4-27-6.9-54-10.3-81c-1.4-11.8-2.8-23.6-4.2-35.5c-0.1-0.2-0.2-0.3-0.3-0.5V1.6
			c-4.8-7.8-11.7-9.7-20.5-8.6c-24.7,3.2-49.4,6.4-74.1,9.6c-24.7,2.9-49.5,5.9-74.2,8.7c-8.7,1.1-15,4.6-17.8,13.3v0.1
			c-0.1,0.2-0.1,0.4-0.2,0.6c1.5,11.8,3,23.6,4.5,35.4c3.2,27,6.4,54,9.7,81.1c1.5,2.5,3.3,4.3,5.2,5.8c0.8,0.9,2.1,1.7,3.7,2.4
			c3.8,1.7,7.6,1.5,11.5,1c24.9-3.2,49.8-6.3,74.7-9.5c24.9-3,49.8-5.9,74.7-8.9c4-0.5,7.7-1.2,10.9-3.8c1.4-1.1,2.4-2.2,3-3.3
			C906.3,123.7,907.5,121.5,908.4,118.7z M888.6,122.7c-24.5,3.1-48.8,6.2-73.2,9.3c-0.2,0-0.3,0-0.5,0.1c-0.2,0-0.3,0-0.5,0.1
			c-24.4,2.9-48.8,5.8-73.2,8.7c-0.9,0.1-2,0.6-2.9,0.4c-0.1-0.1-0.1-0.2-0.2-0.3c-0.6-1.1,0.8-2.3,1.5-3.3
			c13.3-18.8,26.6-37.6,39.8-56.4c1.1-1.6,2.1-2.3,3.4-2c0.5,0.2,1,0.5,1.7,1c6.6,5.3,13.4,10.4,20.2,15.6c2.7,2,4.4,2.9,6,2.5
			c1.7-0.1,3.1-1.3,5.2-3.9c5.3-6.6,10.7-13.3,15.8-20c0.5-0.6,0.9-1.1,1.4-1.4c1.1-0.6,2.3-0.2,3.8,1.1
			c17.4,15.1,34.8,30.1,52.3,45.1c0.9,0.8,2.6,1.6,2.3,2.8c0,0.1-0.1,0.2-0.1,0.3C890.6,122.7,889.4,122.5,888.6,122.7z
			 M898.3,108.5c0.1,1.3,0.7,2.7-0.2,4.3c-1.8-0.5-2.8-1.7-4-2.6c-16.6-14.2-33.1-28.4-50-42.4c-2.7-2.2-3.3-3.8-1.8-6.2
			c0.3-0.4,0.7-0.9,1.1-1.4c13-16.1,26-32.2,38.9-48.2c0.8-0.9,1.3-2.6,2.7-2.4c0.6,0.1,0.9,0.4,1.1,0.8c0.2,0.8,0,1.8,0.1,2.6
			c0.7,5.6,1.4,11.3,2.2,16.9c2.5,21.2,5,42.3,7.6,63.4c0.1,1.4,0.4,2.8,0.5,4.2c0.1,1.3,0.4,2.5,0.9,3.4
			C897.7,103.5,898,106,898.3,108.5z M876.2,3.3c-0.3,1.8-1.6,2.8-2.6,3.9c-16.4,20.6-32.8,41.2-49.3,61.8c-3.6,4.5-7.3,9-10.9,13.5
			c-2,2.5-3.1,3.7-4.2,4c-1.2,0.1-2.5-0.9-5.1-2.8c-4.6-3.5-9.2-6.9-13.8-10.4c-20.9-16-41.9-32-62.8-48c-1.2-0.8-2.7-1.5-3.4-3.1
			c25.3-3.2,50.7-6.4,76-9.6C825.5,9.3,850.9,6.3,876.2,3.3z M728.2,129.4c-0.3-2.5-0.6-5-0.9-7.5c0.3-1.1,0.3-2.3,0.1-3.5
			c-0.2-1.4-0.3-2.8-0.6-4.2c-2.6-21.1-5.3-42.2-8-63.3c-0.7-5.6-1.3-11.3-2-16.9c-0.1-0.8-0.5-1.7-0.5-2.6c0.1-0.4,0.3-0.8,0.9-1.1
			c1.2-0.6,2.2,0.9,3.2,1.6c16.5,12.4,33,24.8,49.4,37.2c0.5,0.4,1,0.8,1.4,1.1c2,2,1.8,3.7-0.3,6.5c-12.9,17.7-25.5,35.5-38.3,53.2
			c-0.8,1.2-1.5,2.6-3.2,3.5C728.2,132.2,728.4,130.7,728.2,129.4z"/>
	</g>
</g>
</svg>
