<?xml version="1.0" encoding="utf-8"?>
<!-- Generator: Adobe Illustrator 22.0.1, SVG Export Plug-In . SVG Version: 6.00 Build 0)  -->
<svg version="1.1" id="Camada_1" xmlns="http://www.w3.org/2000/svg" xmlns:xlink="http://www.w3.org/1999/xlink" x="0px" y="0px"
	 viewBox="0 0 900.9 157.9" style="enable-background:new 0 0 900.9 157.9;" xml:space="preserve">
<style type="text/css">
	.st0{fill:#56B7E0;}
	.st1{fill:#FFFFFF;}
	.st2{fill:none;stroke:#000000;stroke-miterlimit:10;}
	.st3{fill:#FFCC00;}
</style>
<polygon class="st0" points="732.4,168 422.8,168 598.5,-7.7 908.6,-7.7 "/>
<path class="st1" d="M742.9,120.8c-1.4-11.3-2.9-22.6-4.3-34c-1.4-11.3-2.9-22.6-4.3-33.9l-0.2-1.6c-1.1-9.4-2.2-18.7-3.3-28.1
	l0-0.4l-0.2-0.4c0,0,0,0,0,0l-0.4-0.7c-4.2-6.8-10.4-9.5-19.5-8.3l-62.1,8c-6.6,0.8-13.2,1.6-19.9,2.3c-13.9,1.6-28.3,3.4-42.4,5
	c-9.1,1.1-14.4,5.2-16.9,12.8l-0.1,0.3c0,0,0,0.1,0,0.1l-0.2,0.5l3.9,30.4c2.6,22.3,5.4,45.3,8.1,68l0.1,0.5l0.3,0.4
	c1.2,2,2.7,3.8,4.8,5.4c0.9,0.9,2.1,1.7,3.8,2.4c2.3,1,4.6,1.3,6.7,1.3c1.5,0,2.9-0.1,4.2-0.3c10.4-1.3,20.9-2.7,31.3-4
	c10.4-1.3,20.9-2.6,31.3-4c10.4-1.3,20.9-2.5,31.3-3.7c10.4-1.2,20.9-2.5,31.3-3.7c3.5-0.4,7.1-1.1,10.3-3.7c1.3-1.1,2.3-2.1,3-3.2
	c1.5-1.7,2.6-3.8,3.4-6.4l0.2-0.5L742.9,120.8z M668.2,77.9c-1.5,1.9-3,3.8-4.5,5.6c-1.5,1.9-3.1,3.8-4.6,5.7
	c-0.4,0.5-1.5,1.8-2,2.3c-0.5-0.3-1.4-0.9-2.2-1.5l-0.3-0.2c-1.9-1.5-3.9-2.9-5.8-4.4c-1.9-1.4-3.9-2.9-5.8-4.4
	c-8.8-6.7-17.5-13.4-26.3-20.1c-8.4-6.4-16.7-12.8-25.1-19.2l58.5-7.4c19.5-2.5,39.3-4.9,58.6-7.2C695.4,43.8,681.8,60.9,668.2,77.9
	z M634.3,91c0.2-0.3,0.4-0.5,0.5-0.6c0.1,0.1,0.3,0.2,0.4,0.3c4.3,3.5,8.8,6.9,13.2,10.2l3.8,2.9c2.2,1.6,4.4,3,6.8,2.5
	c2.5-0.2,4.3-2.2,5.8-4.1l0.8-1c4.2-5.2,8.4-10.5,12.5-15.8c0.1-0.1,0.2-0.2,0.3-0.4c0.1,0.1,0.3,0.2,0.6,0.5
	c13.8,12,28.2,24.4,42.7,36.8c-12.9,1.6-25.8,3.3-38.6,4.9l-20.7,2.6c-0.2,0-0.4,0-0.7,0.1c-0.1,0-0.3,0.1-0.5,0.1l-59.4,7.1
	C612.5,122,623.5,106.4,634.3,91z M687.1,74.5c0.2-0.3,0.5-0.7,0.8-1c10.7-13.2,21.3-26.4,31.9-39.5l0,0.1c0.5,4.2,1.1,8.6,1.7,12.7
	c2,17,4.1,35.1,6.4,53.1c0,0.6,0.1,1.2,0.2,1.9c0.1,0.5,0.2,1.1,0.2,1.6c0.1,1.3,0.4,2.4,0.8,3.4c0.2,1.7,0.4,3.3,0.6,4.9l-5.2-4.4
	c-11.8-10.1-24-20.6-36.3-30.8C686.7,75.4,686.7,75.2,687.1,74.5z M591.1,120.5c-0.1-0.4-0.1-0.7-0.1-1.1c-0.1-0.8-0.2-1.6-0.4-2.5
	c-2.2-17.7-4.5-35.6-6.7-53c-0.3-2.3-0.6-4.7-0.8-7.1c-0.2-2-0.5-4-0.7-6c13.5,10.2,27.1,20.4,40.5,30.5c0.4,0.3,0.8,0.6,1.1,0.9
	c0.5,0.5,0.6,0.7-0.6,2.3c-6.3,8.6-12.5,17.3-18.6,25.8c-4.3,6.1-8.7,12.1-13.1,18.2l-0.6-4.6C591.3,122.8,591.3,121.7,591.1,120.5z
	"/>
<polygon class="st3" points="-7.8,-7.6 649.5,-7.6 473.7,168.2 -7.8,168.3 "/>
<g>
	<path class="st1" d="M30.9,79.5c0-10.6,8.1-17.6,18.7-17.6c9,0,13.5,5.2,15.5,9.9l-8.9,4.1c-0.9-2.6-3.5-4.9-6.5-4.9
		c-4.9,0-8.3,3.8-8.3,8.6c0,4.7,3.3,8.6,8.3,8.6c3,0,5.7-2.3,6.5-4.9l8.9,4.1c-2,4.5-6.5,10-15.5,10C39,97.2,30.9,90,30.9,79.5z"/>
	<path class="st1" d="M66.6,79.5c0-10.5,8.2-17.6,18.6-17.6s18.6,7.2,18.6,17.6s-8.2,17.6-18.6,17.6S66.6,90,66.6,79.5z M93.3,79.5
		c0-4.7-3.2-8.6-8.2-8.6S77,74.7,77,79.5c0,4.7,3.2,8.6,8.2,8.6S93.3,84.3,93.3,79.5z"/>
	<path class="st1" d="M130.4,96.5l-12.6-17.2v17.2h-10.4V62.4h10.7L130,78.5V62.4h10.4v34.1H130.4z"/>
	<path class="st1" d="M153.2,96.5V71.4H144v-9h28.6v9h-9.1v25.1H153.2z"/>
	<path class="st1" d="M196,96.5l-1.2-4h-12.3l-1.2,4h-11.7l12.6-34.1h13l12.6,34.1H196z M188.6,72.5l-3.4,11h6.7L188.6,72.5z"/>
	<path class="st1" d="M213.8,96.5V71.4h-9.2v-9h28.6v9h-9.1v25.1H213.8z"/>
	<path class="st1" d="M234.1,79.5c0-10.5,8.2-17.6,18.6-17.6s18.6,7.2,18.6,17.6s-8.2,17.6-18.6,17.6
		C242.2,97.1,234.1,90,234.1,79.5z M260.9,79.5c0-4.7-3.2-8.6-8.2-8.6s-8.2,3.8-8.2,8.6c0,4.7,3.2,8.6,8.2,8.6
		C257.6,88,260.9,84.3,260.9,79.5z"/>
</g>
</svg>
