<?xml version="1.0" encoding="utf-8"?>
<!-- Generator: Adobe Illustrator 22.0.1, SVG Export Plug-In . SVG Version: 6.00 Build 0)  -->
<svg version="1.1" id="Camada_1" xmlns="http://www.w3.org/2000/svg" xmlns:xlink="http://www.w3.org/1999/xlink" x="0px" y="0px"
	 viewBox="0 0 900.9 157.9" style="enable-background:new 0 0 900.9 157.9;" xml:space="preserve">
<style type="text/css">
	.st0{fill:#FFCC00;}
	.st1{clip-path:url(#SVGID_2_);}
	.st2{fill:#FFFFFF;}
	.st3{fill:none;stroke:#000000;stroke-miterlimit:10;}
	.st4{fill:#56B7E0;}
</style>
<polygon class="st0" points="165.7,-7.4 475.4,-7.4 299.7,168.3 -10.4,168.3 "/>
<g>
	<defs>
		<polygon id="SVGID_1_" points="166,-7.7 467.9,-7.7 299.9,168.4 -10.4,168.3 		"/>
	</defs>
	<clipPath id="SVGID_2_">
		<use xlink:href="#SVGID_1_"  style="overflow:visible;"/>
	</clipPath>
	<g class="st1">
		<path class="st2" d="M152.7,37.4l36.9,129c1.6,5.5,7.3,8.7,12.8,7.1l95.5-27.3c5.5-1.6,8.7-7.3,7.1-12.8l-28.3-98.9
			c-0.8-2.9-2.9-5.3-5.6-6.5L228,7.8c-2.3-1.1-4.8-1.3-7.2-0.6l-60.9,17.4C154.3,26.2,151.1,31.9,152.7,37.4z M281.9,138.3
			l-70.1,20.1c-5.5,1.6-11.2-1.6-12.8-7.1L168.7,45.4c-1.6-5.5,1.6-11.2,7.1-12.8L218,20.5c5.6-1.6,11.3,1.7,12.9,7.2l1,3.8
			c1.5,5.6,7.3,8.8,12.9,7.2l8.1-2.3c5.5-1.6,11.2,1.6,12.8,7.1l23.4,81.9C290.6,131,287.4,136.7,281.9,138.3z"/>
		<path class="st2" d="M257.9,71.6l-61.7,17.7c-2.1,0.6-4.2-0.6-4.8-2.7l-1.2-4.4c-0.6-2.1,0.6-4.2,2.7-4.8l61.7-17.7
			c2.1-0.6,4.2,0.6,4.8,2.7l1.2,4.4C261.2,68.8,260,71,257.9,71.6z"/>
		<path class="st2" d="M253.5,97.9l-50.6,14.5c-2.1,0.6-4.3-0.6-4.9-2.7l-1.3-4.4c-0.6-2.1,0.6-4.3,2.7-4.9L250,85.8
			c2.1-0.6,4.3,0.6,4.9,2.7l1.3,4.4C256.8,95.1,255.6,97.3,253.5,97.9z"/>
		<path class="st2" d="M271.7,117.2L209.3,135c-2.1,0.6-4.3-0.6-4.9-2.7l-1.3-4.4c-0.6-2.1,0.6-4.3,2.7-4.9l62.4-17.8
			c2.1-0.6,4.3,0.6,4.9,2.7l1.3,4.4C275,114.4,273.8,116.6,271.7,117.2z"/>
	</g>
</g>
<polygon class="st4" points="906,168.3 248.7,168.3 424.4,-7.6 906,-7.7 "/>
<g>
	<path class="st2" d="M611.4,96.6V62.8H637v8.9h-15.3v3.4h15V84h-15v3.7H637v8.9L611.4,96.6L611.4,96.6z"/>
	<path class="st2" d="M641.6,96.6V62.8h15c10.7,0,18.5,6.1,18.5,16.8s-7.9,16.9-18.4,16.9H641.6z M664.8,79.8c0-4.6-2.6-8-8.1-8
		h-4.9v15.9h4.9C661.7,87.7,664.8,84.1,664.8,79.8z"/>
	<path class="st2" d="M678.9,96.6V62.8H689v33.8H678.9z"/>
	<path class="st2" d="M701.8,96.6V71.8h-9.1v-8.9h28.2v8.9h-9v24.8H701.8z"/>
	<path class="st2" d="M721.8,79.8c0-10.4,8.1-17.4,18.4-17.4s18.4,7.1,18.4,17.4s-8.1,17.4-18.4,17.4
		C729.8,97.2,721.8,90.1,721.8,79.8z M748.3,79.8c0-4.7-3.2-8.5-8.1-8.5c-4.9,0-8.1,3.8-8.1,8.5s3.2,8.5,8.1,8.5
		S748.3,84.6,748.3,79.8z"/>
	<path class="st2" d="M780.8,96.6L776.2,86h-3.7v10.7h-10.3V62.8h18c7.9,0,12.2,5.3,12.2,11.6c0,5.8-3.4,8.9-6.1,10.3l6.1,12H780.8z
		 M782,74.5c0-1.8-1.6-2.6-3.4-2.6h-6.2v5.3h6.2C780.4,77.2,782,76.3,782,74.5z"/>
	<path class="st2" d="M796.6,96.6V62.8h10.3v33.8H796.6z"/>
	<path class="st2" d="M834.7,96.6l-1.2-4h-12.2l-1.2,4h-11.6l12.4-33.8h12.8l12.4,33.8H834.7z M827.4,72.9l-3.4,10.9h6.7L827.4,72.9
		z"/>
	<path class="st2" d="M848.2,96.6V62.8h10.2v24.8h12.7v8.9L848.2,96.6L848.2,96.6z"/>
</g>
</svg>
