<?xml version="1.0" encoding="utf-8"?>
<!-- Generator: Adobe Illustrator 22.0.1, SVG Export Plug-In . SVG Version: 6.00 Build 0)  -->
<svg version="1.1" id="Camada_1" xmlns="http://www.w3.org/2000/svg" xmlns:xlink="http://www.w3.org/1999/xlink" x="0px" y="0px"
	 viewBox="0 0 903.9 157.9" style="enable-background:new 0 0 903.9 157.9;" xml:space="preserve">
<style type="text/css">
	.st0{fill:#D60D47;}
	.st1{fill:#FFCC00;}
	.st2{clip-path:url(#SVGID_2_);}
	.st3{fill:#FFFFFF;}
</style>
<rect x="0" y="0" class="st0" width="903.8" height="158"/>
<polygon class="st1" points="0,0 373,-0.1 531,158 0,158 "/>
<g>
	<path class="st1" d="M612.3,95.9V62H638v8.9h-15.4v3.4h15.1v8.9h-15.1v3.7H638v8.9h-25.7V95.9z"/>
	<path class="st1" d="M642.6,95.9V62h15.1c10.7,0,18.6,6.1,18.6,16.9s-7.9,17-18.5,17H642.6z M665.9,79c0-4.6-2.6-8-8.1-8h-4.9v16
		h4.9C662.8,87,665.9,83.3,665.9,79z"/>
	<path class="st1" d="M680,95.9V62h10.2v33.9H680z"/>
	<path class="st1" d="M703,95.9V71h-9.1v-8.9h28.3V71h-9v24.9H703z"/>
	<path class="st1" d="M723.1,79c0-10.4,8.1-17.5,18.5-17.5c10.4,0,18.5,7.1,18.5,17.5s-8.1,17.5-18.5,17.5
		C731.2,96.5,723.1,89.4,723.1,79z M749.7,79c0-4.7-3.2-8.5-8.1-8.5c-4.9,0-8.1,3.8-8.1,8.5s3.2,8.5,8.1,8.5
		C746.5,87.5,749.7,83.8,749.7,79z"/>
	<path class="st1" d="M782.4,95.9l-4.7-10.7H774v10.7h-10.3V62h18.1c7.9,0,12.2,5.3,12.2,11.6c0,5.8-3.4,8.9-6.1,10.3l6.1,12H782.4z
		 M783.6,73.7c0-1.8-1.6-2.6-3.4-2.6H774v5.3h6.2C782,76.4,783.6,75.5,783.6,73.7z"/>
	<path class="st1" d="M798.2,95.9V62h10.3v33.9H798.2z"/>
	<path class="st1" d="M836.5,95.9l-1.2-4h-12.2l-1.2,4h-11.6L822.8,62h12.9l12.5,33.9H836.5z M829.2,72.1L825.8,83h6.7L829.2,72.1z"
		/>
	<path class="st1" d="M850,95.9V62h10.2v24.9H873v8.9h-23V95.9z"/>
</g>
<g>
	<defs>
		<rect id="SVGID_1_" x="0" width="297" height="157.9"/>
	</defs>
	<clipPath id="SVGID_2_">
		<use xlink:href="#SVGID_1_"  style="overflow:visible;"/>
	</clipPath>
	<g id="Editorial2" class="st2">
		<g>
			<path class="st3" d="M45,11.6C62.5,4.5,80-2.6,97.5-9.7c1.2-0.1,2.5-0.2,3.7-0.3c2.1,0,4.1,0.6,6.2,1c0.4,0.3,0.7,0.3,1.1,0.3
				c1.6,0.5,3.3,1.2,4.9,1.7c2.6,1,5.2,2.1,7.8,3.1c1.5,0.6,3,1.3,4.5,1.9c0.5,0.3,0.9,0.5,1.5,0.5c1.6,0.6,3.1,1.3,4.6,1.9
				c0.5,0.4,1,0.5,1.6,0.6c1.6,0.6,3,1.3,4.6,1.9c0.5,0.4,1,0.5,1.6,0.6c1.4,0.5,2.7,1.2,4.1,1.7c0.6,0.3,1.4,0.5,2,0.9
				c1.4,0.5,2.7,1.2,4.1,1.7c0.5,0.5,1.2,0.7,1.8,0.9c1.6,0.8,3.1,1.7,4.7,2.6c0.2,0.1,0.4,0.3,0.5,0.4c1.6,1.2,3.2,2.5,4.6,3.8
				c0.5,0.7,1,1.5,1.5,2.2c0.4,0.7,0.6,1.6,1,2.3c10.7,26.4,21.4,52.9,32.3,79.3c1.7,4.1,3.2,8.3,3.3,12.8l0,0
				c-0.1,0.2-0.2,0.5,0,0.6c-0.1,3.5-0.9,6.8-2.1,10c-0.1,0.3-0.3,0.6-0.4,0.9c-1.7,3.1-3.8,5.9-6.4,8.3c-1.8,1.2-3.6,2.4-5.4,3.7
				c-1,0.5-1.9,0.8-2.9,1.3c-1.5,0.5-2.9,1.2-4.4,1.7c-1.5,0.6-2.9,1.2-4.4,1.8c-1.5,0.5-2.9,1.2-4.4,1.7c-1.5,0.6-2.9,1.2-4.4,1.8
				c-1.5,0.5-2.9,1.2-4.4,1.7c-1.5,0.6-2.9,1.2-4.4,1.8c-1.5,0.5-2.9,1.2-4.4,1.7c-1.5,0.6-2.9,1.2-4.4,1.8
				c-1.5,0.5-2.9,1.2-4.4,1.7c-1.5,0.6-2.9,1.2-4.4,1.8c-1.5,0.5-2.9,1.2-4.4,1.7c-1.5,0.6-2.9,1.2-4.4,1.8
				c-1.5,0.5-2.9,1.2-4.4,1.7c-1.5,0.6-2.9,1.2-4.4,1.8c-1.5,0.5-2.9,1.2-4.4,1.7c-1.5,0.6-2.9,1.2-4.4,1.8c-1.5,0.5-3,1-4.5,1.5
				c-1.5,0.2-2.8,0.4-4.3,0.5c-1.1,0-2.2,0-3.3,0c-0.6-0.1-1.3-0.2-1.9-0.2c-4.2-0.7-8.2-2.4-11.7-4.9c-0.3-0.5-0.6-0.6-1.1-0.8
				c-0.9-0.8-1.7-1.6-2.7-2.6c-0.9-1.2-1.7-2.4-2.7-3.6c-0.7-1.4-1.6-2.7-2.3-4.2c-0.5-1.6-1.1-3-1.8-4.4c-0.6-1.5-1.2-2.9-1.8-4.4
				c-0.5-1.6-1.1-3-1.8-4.4c-0.6-1.5-1.2-2.9-1.8-4.4c-0.5-1.6-1.1-3-1.8-4.4c-0.6-1.5-1.2-2.9-1.8-4.4c-0.5-1.6-1.1-3-1.8-4.4
				c-0.6-1.5-1.2-2.9-1.8-4.4c-0.5-1.6-1.1-3-1.8-4.4c-0.6-1.5-1.2-2.9-1.8-4.4c-0.5-1.6-1.1-3-1.8-4.4c-0.6-1.5-1.2-2.9-1.8-4.4
				c-0.5-1.6-1.1-3-1.8-4.4c-0.6-1.5-1.2-2.9-1.8-4.4c-0.5-1.6-1.1-3-1.8-4.4c-0.6-1.5-1.2-2.9-1.8-4.4c-0.5-1.6-1.1-3-1.8-4.4
				c-0.6-1.5-1.2-2.9-1.8-4.4c-0.5-1.6-1.1-3-1.8-4.4c-0.6-1.5-1.2-2.9-1.8-4.4c-0.5-1.6-1.1-3-1.8-4.4c-0.6-1.5-1.2-2.9-1.8-4.4
				c-0.5-1.6-1.1-3-1.8-4.4c-0.6-1.5-1.2-2.9-1.8-4.4c-0.5-1.3-1-2.6-1.6-3.8c-0.4-1.7-0.8-3.6-1.2-5.3c0-1.6-0.1-3.1-0.1-4.7
				c0.2-0.5,0.2-1,0.2-1.5c0.3-1.4,0.6-2.7,0.9-4.2c0.4-1.1,0.8-2.1,1.2-3.2c0.5-0.8,0.8-1.7,1.3-2.6c0.5-0.9,1.2-1.8,1.7-2.7
				c1.5-1.5,2.8-3.1,4.5-4.4C42.6,13.3,44,12.7,45,11.6z M62.2,18.7c-1.5,0.6-2.9,1.2-4.4,1.8c-1.5,0.5-2.9,1.2-4.4,1.7
				c-0.5,0.3-1.2,0.5-1.7,0.7c-0.1,0-0.2,0-0.3,0.2C49,24.6,47,26.6,46,29.3c-0.5,0.9-0.9,1.8-0.9,2.8c-0.4,1-0.5,2-0.2,3
				c-0.2,0.2-0.2,0.3-0.1,0.5c0.1,0.3,0.1,0.5,0.2,0.7c0.1,1.4,0.5,2.6,1,3.8C60.4,75.5,74.8,111,89.3,146.4
				c0.4,0.8,0.6,1.6,1.2,2.4c0.2,0.3,0.3,0.5,0.5,0.8c0.1,0.3,0.2,0.4,0.5,0.4c0.1,0.6,0.6,0.9,1,1.4c1.3,1.3,2.7,2.5,4.6,3
				c0.1,0.1,0.3,0.1,0.4,0.2c1.6,0.6,3.1,1,4.8,0.7c1.4,0.2,2.6-0.2,3.8-0.6h0.2l0.1-0.1c0.3-0.1,0.6-0.3,0.9-0.4
				c1.5-0.5,2.9-1.2,4.4-1.7c1.5-0.6,2.9-1.2,4.4-1.8c1.5-0.5,2.9-1.2,4.4-1.7c1.5-0.6,2.9-1.2,4.4-1.8c1.5-0.5,2.9-1.2,4.4-1.7
				c1.5-0.6,2.9-1.2,4.4-1.8c1.5-0.5,2.9-1.2,4.4-1.7c1.5-0.6,2.9-1.2,4.4-1.8c1.5-0.5,2.9-1.2,4.4-1.7c1.5-0.6,2.9-1.2,4.4-1.8
				c1.5-0.5,2.9-1.2,4.4-1.7c1.5-0.6,2.9-1.2,4.4-1.8c1.5-0.5,2.9-1.2,4.4-1.7c1.5-0.6,2.9-1.2,4.4-1.8c1.5-0.5,2.9-1.2,4.4-1.7
				c1.5-0.6,2.9-1.2,4.4-1.8c1.8-0.5,3.5-1.5,4.8-2.8c1.4-0.9,2.2-2.2,2.9-3.6c0.1-0.3,0.3-0.5,0.4-0.8c1.6-3.6,1.4-7.2-0.1-10.8
				c-10.4-25.5-20.7-51-31.1-76.4c-0.3-0.7-0.6-1.5-1.1-2.1c-1.2-1.7-2.7-2.7-4.9-2.3c-1.9-0.1-3.7,0.5-5.4,1.3
				c-1.6,0.5-3,1-4.4,1.7c-1.5,0.6-2.9,1.2-4.4,1.8c-1.6,0.5-3,1.1-4.4,1.8c-1.5,0.6-2.9,1.2-4.4,1.8c-1.5,0.5-2.9,1.1-4.4,1.7
				c-0.1,0-0.2,0-0.3,0.1c-1.6,0.3-3.2,0-4.8-0.6c-0.5-0.5-1.2-1-1.7-1.6c-1-1.2-1.2-2.7-2-4.1c-0.5-1.5-1.2-2.9-1.7-4.4
				c-0.6-1.5-1.2-2.9-1.8-4.4c-0.5-1.5-1.2-2.9-1.7-4.4c-0.6-1.5-1.2-2.9-1.8-4.4c-0.5-1.6-1.4-2.8-2.1-4.3c-0.5-0.9-1-1.7-1.7-2.4
				c-1.1-1-2.3-1.9-3.9-1.6c-0.2-0.2-0.4-0.1-0.5,0c-1.2,0.5-2.4,0.9-3.6,1.5c-1.5,0.5-2.9,1.2-4.4,1.7c-1.5,0.6-2.9,1.2-4.4,1.8
				c-1.5,0.5-2.9,1.2-4.4,1.7c-1.5,0.6-2.9,1.2-4.4,1.8c-1.5,0.5-2.9,1.2-4.4,1.7c-1.5,0.6-2.9,1.2-4.4,1.8
				C65.2,17.5,63.7,18,62.2,18.7z"/>
			<path class="st3" d="M77.3,68.3c0.5-0.2,1.2-0.4,1.7-0.6c19.4-7.9,39-15.9,58.4-23.7c2.6-1,5-1.4,7.4,0.5
				c0.9,0.7,1.6,1.6,2.1,2.7c1,3.7,0.1,6.1-3.1,8.3c-0.7,0.3-1.6,0.6-2.3,0.9c-19,7.7-37.9,15.4-56.8,23.1c-0.5,0.2-1,0.5-1.6,0.7
				c-0.3,0.1-0.5,0.2-0.8,0.3c-3.9,0.6-6-0.3-8.2-3.8C73.1,73.1,74.2,70.3,77.3,68.3z"/>
			<path class="st3" d="M163.3,91.6c0.3,0.2,0.5,0.3,0.8,0.5c0.5,0.5,0.9,0.9,1.4,1.4c0.2,0.2,0.3,0.4,0.5,0.5
				c0.2,0.5,0.5,0.9,0.6,1.5c0.7,3.4-0.3,6-3.3,7.9c-1.5,0.6-2.9,1.2-4.4,1.8c-1.5,0.5-2.9,1.2-4.4,1.7c-1.5,0.6-2.9,1.2-4.4,1.8
				c-1.5,0.5-2.9,1.2-4.4,1.7c-1.5,0.6-2.9,1.2-4.4,1.8c-1.5,0.5-2.9,1.2-4.4,1.7c-1.5,0.6-2.9,1.2-4.4,1.8
				c-1.5,0.5-2.9,1.2-4.4,1.7c-1.5,0.6-2.9,1.2-4.4,1.8c-1.5,0.5-2.9,1.2-4.4,1.7c-1.5,0.6-2.9,1.2-4.4,1.8
				c-1.5,0.5-2.9,1.2-4.4,1.7c-1.5,0.6-2.9,1.2-4.4,1.8c-1.5,0.5-2.9,1.2-4.4,1.7c-3.5,0.8-6-0.5-7.9-3.3c-0.5-1.6-0.7-3.2-0.3-4.9
				c0.5-1.7,1.7-2.9,3.2-3.9c1.5-0.6,2.9-1.2,4.4-1.8c1.5-0.5,2.9-1.2,4.4-1.7c1.5-0.6,2.9-1.2,4.4-1.8c1.5-0.5,2.9-1.2,4.4-1.7
				c1.5-0.6,2.9-1.2,4.4-1.8c1.5-0.5,2.9-1.2,4.4-1.7c1.5-0.6,2.9-1.2,4.4-1.8c1.5-0.5,2.9-1.2,4.4-1.7c1.5-0.6,2.9-1.2,4.4-1.8
				c1.5-0.5,2.9-1.2,4.4-1.7c1.5-0.6,2.9-1.2,4.4-1.8c1.5-0.5,2.9-1.2,4.4-1.7c1.5-0.6,2.9-1.2,4.4-1.8c1.5-0.5,2.9-1.2,4.4-1.7
				C160,90.9,161.7,91,163.3,91.6z"/>
			<path class="st3" d="M84.8,102.1c-0.6-0.9-1.1-1.8-1.2-2.9c-0.2-1.1,0.1-2.1,0.2-3.1c0.6-1.4,1.6-2.6,2.7-3.5
				c0.2-0.1,0.3-0.2,0.5-0.3c1.6-0.5,3-1.1,4.4-1.8c1.5-0.6,2.9-1.2,4.4-1.8c1.6-0.5,3-1.1,4.4-1.8c1.5-0.6,2.9-1.2,4.4-1.8
				c1.6-0.5,3-1.1,4.4-1.8c1.5-0.6,2.9-1.2,4.4-1.8c1.6-0.5,3-1.1,4.4-1.8c1.5-0.6,2.9-1.2,4.4-1.8c1.6-0.5,3-1.1,4.4-1.8
				c1.5-0.6,2.9-1.2,4.4-1.8c1.6-0.5,3-1.1,4.4-1.8c0.6-0.2,1.2-0.4,1.8-0.5c0.8,0,1.6-0.1,2.5-0.1c1.8,0.5,3.3,1.5,4.4,2.9
				c0.4,0.8,0.6,1.6,1,2.5c0.1,1.8-0.3,3.7-1.4,5.2c-0.9,0.9-1.7,2-3.2,2.1c-1.6,0.6-3.3,1.4-4.9,2c-1.3,0.5-2.6,1-3.8,1.6
				c-1.6,0.6-3.3,1.4-4.9,2c-1.3,0.5-2.6,1-3.8,1.6c-1.6,0.6-3.3,1.4-4.9,2c-1.3,0.5-2.6,1-3.8,1.6c-1.6,0.6-3.3,1.4-4.9,2
				c-1.3,0.5-2.6,1-3.8,1.6c-1.6,0.6-3.3,1.4-4.9,2c-1.3,0.5-2.6,1-3.8,1.6c-1.6,0.6-3.1,1.3-4.7,1.9c-1.6,0.5-3.2,0.2-4.8-0.3
				C86.3,103.5,85.4,102.9,84.8,102.1z"/>
		</g>
	</g>
</g>
</svg>
