<?xml version="1.0" encoding="utf-8"?>
<!-- Generator: Adobe Illustrator 22.0.1, SVG Export Plug-In . SVG Version: 6.00 Build 0)  -->
<svg version="1.1" id="Camada_1" xmlns="http://www.w3.org/2000/svg" xmlns:xlink="http://www.w3.org/1999/xlink" x="0px" y="0px"
	 viewBox="0 0 903.9 157.9" style="enable-background:new 0 0 903.9 157.9;" xml:space="preserve">
<style type="text/css">
	.st0{fill:#D60D47;}
	.st1{fill:#FFCC00;}
	.st2{clip-path:url(#SVGID_2_);}
	.st3{fill:#FFFFFF;}
</style>
<rect x="0" y="0" class="st0" width="903.8" height="158"/>
<polygon class="st1" points="0,0 373,-0.1 531,158 0,158 "/>
<g>
	<path class="st1" d="M612.3,95.9V62H638v8.9h-15.4v3.4h15.1v8.9h-15.1v3.7H638v8.9h-25.7V95.9z"/>
	<path class="st1" d="M642.6,95.9V62h15.1c10.7,0,18.6,6.1,18.6,16.9s-7.9,17-18.5,17H642.6z M665.9,79c0-4.6-2.6-8-8.1-8h-4.9v16
		h4.9C662.8,87,665.9,83.3,665.9,79z"/>
	<path class="st1" d="M680,95.9V62h10.2v33.9H680z"/>
	<path class="st1" d="M703,95.9V71h-9.1v-8.9h28.3V71h-9v24.9H703z"/>
	<path class="st1" d="M723.1,79c0-10.4,8.1-17.5,18.5-17.5c10.4,0,18.5,7.1,18.5,17.5s-8.1,17.5-18.5,17.5
		C731.2,96.5,723.1,89.4,723.1,79z M749.7,79c0-4.7-3.2-8.5-8.1-8.5c-4.9,0-8.1,3.8-8.1,8.5s3.2,8.5,8.1,8.5
		C746.5,87.5,749.7,83.8,749.7,79z"/>
	<path class="st1" d="M782.4,95.9l-4.7-10.7H774v10.7h-10.3V62h18.1c7.9,0,12.2,5.3,12.2,11.6c0,5.8-3.4,8.9-6.1,10.3l6.1,12H782.4z
		 M783.6,73.7c0-1.8-1.6-2.6-3.4-2.6H774v5.3h6.2C782,76.4,783.6,75.5,783.6,73.7z"/>
	<path class="st1" d="M798.2,95.9V62h10.3v33.9H798.2z"/>
	<path class="st1" d="M836.5,95.9l-1.2-4h-12.2l-1.2,4h-11.6L822.8,62h12.9l12.5,33.9H836.5z M829.2,72.1L825.8,83h6.7L829.2,72.1z"
		/>
	<path class="st1" d="M850,95.9V62h10.2v24.9H873v8.9h-23V95.9z"/>
</g>
<g>
	<defs>
		<rect id="SVGID_1_" x="0" width="290.8" height="157.9"/>
	</defs>
	<clipPath id="SVGID_2_">
		<use xlink:href="#SVGID_1_"  style="overflow:visible;"/>
	</clipPath>
	<g class="st2">
		<path class="st3" d="M30.9,24.5l33.6,134.1c2,8.1,10.2,13,18.3,11l98.3-24.6c8.1-2,13-10.2,11-18.3l-28.8-115
			c-1.4-5.5-4.7-10.3-9.4-13.4l-15.3-10.4c-4.1-2.8-9.1-3.7-13.9-2.5L41.9,6.2C33.8,8.2,28.9,16.4,30.9,24.5z M162.8,134.8L94.2,152
			c-8.1,2-16.3-2.9-18.3-11L49.3,34.7c-2-8.1,2.9-16.3,11-18.3l49.1-12.3c3.5-0.9,7.1,1.3,8,4.9l3,13.1c0.9,3.8,4.7,6.1,8.5,5.2
			l11.8-3c5.2-1.3,10.5,1.9,11.8,7.1l21.3,85.1C175.8,124.6,170.9,132.8,162.8,134.8z"/>
		<path class="st3" d="M141.8,61.8L78.3,77.7c-3.6,0.9-7.3-1.3-8.3-4.9l0,0c-0.9-3.6,1.3-7.3,4.9-8.3l63.5-15.9
			c3.6-0.9,7.3,1.3,8.3,4.9v0C147.6,57.1,145.4,60.8,141.8,61.8z"/>
		<path class="st3" d="M154.2,111.2l-63.5,15.9c-3.6,0.9-7.3-1.3-8.3-4.9v0c-0.9-3.6,1.3-7.3,4.9-8.3L150.8,98
			c3.6-0.9,7.3,1.3,8.3,4.9v0C160,106.6,157.8,110.3,154.2,111.2z"/>
		<path class="st3" d="M130.4,90.9l-45.9,11.5c-3.6,0.9-7.3-1.3-8.3-4.9l0,0c-0.9-3.6,1.3-7.3,4.9-8.3l45.9-11.5
			c3.6-0.9,7.3,1.3,8.3,4.9v0C136.3,86.2,134.1,89.9,130.4,90.9z"/>
	</g>
</g>
</svg>
