<?xml version="1.0" encoding="utf-8"?>
<!-- Generator: Adobe Illustrator 22.0.1, SVG Export Plug-In . SVG Version: 6.00 Build 0)  -->
<svg version="1.1" id="Camada_1" xmlns="http://www.w3.org/2000/svg" xmlns:xlink="http://www.w3.org/1999/xlink" x="0px" y="0px"
	 viewBox="0 0 900.9 157.9" style="enable-background:new 0 0 900.9 157.9;" xml:space="preserve">
<style type="text/css">
	.st0{fill:#FFCC00;}
	.st1{fill:none;stroke:#000000;stroke-miterlimit:10;}
	.st2{fill:#D60D47;}
	.st3{fill:#FFFFFF;}
</style>
<polygon class="st0" points="732.4,168 422.8,168 598.5,-7.7 908.6,-7.7 "/>
<polygon class="st2" points="-7.8,-7.6 649.5,-7.6 473.7,168.2 -7.8,168.3 "/>
<g>
	<path class="st3" d="M681.7,19.4c0.3,0.3,0.4,0.8,0.3,1.2l-2.1,18.2c-0.2,1.6,0.5,3.2,1.7,4.2c0.7,0.6,1.6,1,2.6,1.1
		c0.8,0.1,1.6,0,2.3-0.3c1.6-0.7,2.7-2.2,2.9-3.9l2.3-19.6l0.5-3.8c0.2-1.5,0.8-2.5,1.8-2.9c0.8-0.3,1.7-0.2,2.3,0.3
		c0.9,0.7,1.3,2,1.1,3.6l-2.7,22.9c-0.2,1.8,0.6,3.5,2.1,4.5c1.5,1,3.4,1.1,4.9,0.3c1.4-0.7,2.4-2,2.6-3.7l2.1-18
		c0.1-0.5,0.3-0.9,0.6-1l1.7-1.2c2-1.6,2.4-4.4,1-6.6l-9.3-12.9l-0.1-0.1c-1.8-2.1-5-2.5-7.1-0.8l-12.1,10.5c-2,1.8-2.2,4.7-0.5,6.6
		L681.7,19.4z"/>
	<path class="st3" d="M759.3,98.3c-0.3-0.8-0.5-1.6-0.7-2.5c-0.2-0.9-0.5-1.7-0.7-2.5l-0.4-1.4c-1.2-4.2-2.4-8.5-3.7-12.7
		c-0.4-1.6-0.9-3.1-1.4-4.7c-0.5-1.8-1-3.5-1.6-5.3c-0.7-2.3-2.2-3.9-4.6-4.7c-5.2-1.7-10.4-3.5-15.5-5.2c-3.8-1.3-7.6-2.6-11.5-3.9
		c-4.9-1.6-9.7-3.3-14.6-5c-2.3-0.8-4.5-1.6-6.8-2.3l-0.9-0.3c-1.8-0.6-3.7-1.2-6-1.2c-3.7,0.1-7.4,0.2-11.1,0.3
		c-3.7,0.1-7.4,0.2-11.1,0.3c-6.1,0.1-12.2,0.3-17.4,0.5l-1.1,0c-3.6,0.1-7.3,0.3-11,0.3c-2.9,0.1-4.9,1.2-6.4,3.5
		c-2.4,3.7-4.9,7.5-7.5,11.3c-1.8,2.8-3.7,5.6-5.5,8.3c-1.2,1.8-2.5,3.7-3.7,5.5c-1.3,1.9-1.5,4.2-0.5,6.3c1,2.1,3,3.4,5.3,3.6
		c1.1,0.1,2.2,0.2,3.3,0.2c0.4,0,0.9,0,1.4,0.1c-0.1,0.6-0.2,1.2-0.3,1.8c-0.4,2.6-0.8,5.1-0.9,6.1c-0.4,2.9-0.7,5.8-1.1,8.6
		c-0.4,2.9-0.7,5.7-1.1,8.6c-0.1,1.1-0.3,2.1-0.4,3.2c-0.2,1.8-0.5,3.6-0.7,5.4c-0.4,3.4,1.2,6.1,4.3,7.3c1.6,0.6,3.3,1.1,4.9,1.7
		c1.6,0.6,3.3,1.2,4.9,1.7c9.7,3.5,17.5,6.3,24.7,8.8c2.4,0.8,4.8,1.7,7.2,2.5c3.1,1.1,6.3,2.3,9.6,3.3c1.5,0.4,3.2,0.8,5,1
		c0.6,0.1,1.3,0.1,1.9,0.1c1.5,0.1,2.9,0,4.3-0.1c0.7,0,1.3-0.1,2-0.1c6.3-0.3,12.5-0.6,18.3-0.9l26.5-1.3c3.7-0.3,5.9-2.3,6.6-5.9
		c0.5-2.4,0.9-4.7,1.2-7c0.2-1.4,0.5-2.7,0.7-4.1c0.7-3.6,1.3-7.1,1.7-9.8l0-0.2l0,0c0-0.1,0.1-0.3,0.1-0.4c0.3-1.5,0.8-4.1,1.3-6.9
		c0.3-1.6,0.6-3.3,0.9-4.8c1.5,0.4,2.9,0.8,4.4,1.1c0.4,0.1,0.7,0.2,1.1,0.2c2,0.2,3.9-0.5,5.3-2C759.6,103,760,100.8,759.3,98.3z
		 M632,106.1c0.2-1.5,0.3-2.9,0.5-4.4c0.2-1.8,0.4-3.7,0.7-5.5c0.1-0.8,0.2-1.6,0.3-2.4c0.1-0.6,0.4-3,0.8-5c0.1-0.5,0.2-1,0.2-1.5
		c0.6,0,1.2,0.1,1.9,0.1c1.7,0.1,3.4,0.2,5.1,0.2c1.7,0.1,3.4,0.2,5.1,0.3c2.2,0.1,4.4,0.2,6.6,0.3c1.8,0.1,3.6,0.2,5.4,0.3
		l11.8,0.6c2.5,0,4.5-1,5.7-3c1.4-2.1,2.7-4.2,4-6.3c1.2-1.8,2.3-3.6,3.5-5.5c0.6-0.9,1.2-1.8,1.8-2.7c-0.3,1.9-0.6,3.9-0.9,5.9
		c-1.3,8.5-2.6,17-3.3,21.7c-1,6.3-1.9,12.5-2.9,18.8c-0.9,6-1.8,11.9-2.7,17.9c-1.1-0.4-2.1-0.8-3.2-1.1c-1.5-0.5-3-1-4.5-1.6
		c-2.8-1-5.6-2-8.5-3c-2.8-1-5.6-2-8.4-3c-7.2-2.6-14-5-20.8-7.4C630.9,115.2,631.5,110.6,632,106.1z M676.7,69.2
		c-2,3.1-4.1,6.3-6.1,9.4c-0.1,0.1-0.3,0.4-0.5,0.8c-0.2,0.5-0.3,0.7-1.5,0.6c-3-0.2-6.1-0.4-9-0.5l-1.6-0.1c-2-0.1-4-0.2-6-0.3
		c-1.9-0.1-3.9-0.2-5.8-0.3c-2.3-0.1-4.6-0.2-6.8-0.3c-1.3-0.1-2.5-0.1-3.8-0.2c-1.4-0.1-2.8-0.1-4.2-0.2c-1.5-0.1-3-0.1-4.6-0.2
		c-0.1,0-0.3,0-0.4,0c2.1-3.2,4.2-6.3,6.3-9.5c2.2-3.3,4.4-6.5,6.5-9.7c0.1-0.1,0.2-0.3,0.3-0.4c0.2-0.3,0.5-0.6,0.7-1.1
		c0.1-0.1,0.1-0.2,0.1-0.2c0,0,0.1,0,0.3,0c5.8-0.1,11.6-0.3,17.3-0.5c3.1-0.1,6.1-0.2,9.2-0.3c6-0.2,12.2-0.4,18.3-0.6
		C682.4,60.2,679.5,64.8,676.7,69.2z M686.8,121.9c0.8-5.5,1.7-11,2.5-16.4c0.6-3.5,1-6.9,1.3-10c0.4-2.4,1-6.3,1.7-10.8
		c0.6-4.1,1.3-8.7,2-13c0.1,0.4,0.3,0.9,0.4,1.3c0.5,1.9,1,3.7,1.6,5.6c0.5,1.8,1,3.7,1.6,5.6c0.5,1.9,1,3.8,1.6,5.6
		c0.7,2.4,2.4,3.9,4.8,4.5c1.5,0.4,2.9,0.8,4.4,1.1c1.4,0.4,2.9,0.7,4.4,1.1c1.8,0.5,3.6,0.9,5.3,1.4c1.8,0.5,3.5,0.9,5.3,1.4
		c1.8,0.5,3.5,0.9,5.3,1.3l2.1,0.5c2.5,0.7,5.1,1.4,7.8,2.1c-0.5,2.7-1.1,5.8-1.3,7c-1.1,5.3-2,10.8-3,16c-0.3,1.9-0.7,3.8-1,5.7
		c-0.2,1.2-0.4,2.3-0.6,3.5l-13.4,0.7c-5.1,0.3-10.2,0.5-15.3,0.7c-4.5,0.2-9.1,0.4-13.5,0.6c-1.2,0-2.4,0.1-3.5,0.1
		c-0.8,0-1.7,0.1-2.6,0.1C685.2,132.5,686,127.2,686.8,121.9z M739.1,93.9c-0.8-0.2-1.6-0.4-2.3-0.6c-1.3-0.3-2.6-0.7-4-1l-7.2-1.8
		c-1.5-0.4-2.9-0.8-4.4-1.1c-1.4-0.4-2.9-0.7-4.4-1.1c-1.1-0.3-2.2-0.6-3.3-0.8c-2-0.5-3.9-1-6-1.5c-2.1-7.4-4.2-14.8-6.3-22.1
		c-0.5-1.8-1-3.7-1.6-5.6c0.7,0.2,1.4,0.5,2.1,0.7c2.7,0.9,5.5,1.9,8.2,2.8c3.7,1.3,7.4,2.5,11.1,3.8c3.7,1.2,7.3,2.5,11,3.8
		c1.8,0.6,3.5,1.2,5.3,1.8c1.7,0.6,3.4,1.2,5.1,1.7c1,3.4,2.1,6.9,3.1,10.4c1.1,3.6,2.1,7.2,3.2,10.7l0.4,1.4c0.2,0.5,0.3,1,0.5,1.5
		c-0.9-0.2-1.7-0.4-2.5-0.7c-1.3-0.4-2.7-0.7-4-1.1C741.8,94.6,740.4,94.2,739.1,93.9z"/>
	<path class="st3" d="M653.6,116.7c0.8-0.5,0.9-1.3,0.9-1.6l0.1-0.9c0.2-1.3,0.4-2.6,0.6-3.9l0,0c0.3-1.9,0.5-3.6,0.6-5.1
		c0.2-1.2-0.3-2-1.5-2.5l-0.1-0.1c-4-1.4-8.1-2.9-12.2-4.3c-0.6-0.3-1.4-0.6-2.3-0.2c-0.8,0.5-1,1.4-1.1,2c-0.4,3.1-0.9,6.2-1.4,9.3
		l0,0.1l0,0.1c-0.1,1.9,1,2.6,1.9,2.9c2.8,0.9,5.7,2,8.4,3c1.2,0.5,2.5,0.9,3.8,1.4c0.2,0.1,0.4,0.1,0.7,0.2
		C652.7,117,653.1,116.9,653.6,116.7z"/>
</g>
<g>
	<path class="st3" d="M30,97V63.4h25.5v8.8H40.1v3.4h15v8.8h-15v3.7h15.3v8.8L30,97L30,97L30,97z"/>
	<path class="st3" d="M89.8,97V76.8L82.2,97h-4.6l-7.5-20.3V97H59.9V63.4H74l5.9,16.1l5.9-16.1h14.1V97H89.8z"/>
	<path class="st3" d="M105.3,97V63.4h20.4c6.9,0,10,4.7,10,8.5c0,4.2-2.5,7-5.8,7.7c3.7,0.6,6.4,3.9,6.4,8.2c0,4.7-3.2,9.1-9.9,9.1
		C126.5,97,105.3,97,105.3,97z M125.4,73.8c0-1.2-1-1.9-2-1.9h-7.8v4h7.8C124.5,75.9,125.4,75.1,125.4,73.8z M126.1,86.5
		c0-1.2-0.9-2.2-2.4-2.2h-8.1v4.3h8.1C125.2,88.6,126.1,87.8,126.1,86.5z"/>
	<path class="st3" d="M162.9,97l-1.2-4h-12.1l-1.2,4h-11.5l12.4-33.7h12.8L174.4,97H162.9z M155.7,73.4l-3.4,10.8h6.7L155.7,73.4z"
		/>
	<path class="st3" d="M176.2,97V63.4h10.2v24.7h12.7v8.8L176.2,97L176.2,97z"/>
	<path class="st3" d="M225.7,97l-1.2-4h-12.1l-1.2,4h-11.5l12.4-33.7h12.8L237.3,97H225.7z M218.4,73.4L215,84.2h6.7L218.4,73.4z"/>
	<path class="st3" d="M235.7,80.2c0-10.8,8.3-17.4,18.5-17.4c8,0,12.6,4.5,14.8,8.7l-8.5,4.4c-1-2.1-3.2-4.2-6.2-4.2
		c-4.9,0-8.1,3.8-8.1,8.4s3.3,8.4,8.1,8.4c1.9,0,4.2-0.7,5.3-1.5V86h-6.3v-8.8h16.4V91c-3.8,4.2-8.7,6.8-15.4,6.8
		C244,97.7,235.7,91.1,235.7,80.2z"/>
	<path class="st3" d="M274.1,97V63.4h25.5v8.8h-15.3v3.4h15v8.8h-15v3.7h15.3v8.8L274.1,97L274.1,97z"/>
	<path class="st3" d="M326.7,97l-12.4-17.1V97h-10.2V63.4h10.5l11.7,15.9V63.4h10.2V97C336.5,97,326.7,97,326.7,97z"/>
	<path class="st3" d="M339.4,92.3l5.3-7.5c2.5,2.4,6.3,4.4,10.8,4.4c1.9,0,3.8-0.5,3.8-1.8c0-3.2-18.8,0.1-18.8-13.2
		c0-5.7,4.8-11.1,14-11.1c5.5,0,10.4,1.6,14.3,4.7l-5.5,7.2c-2.9-2.2-6.8-3.4-9.9-3.4c-2,0-2.6,0.7-2.6,1.5
		c0,3.2,18.7,0.5,18.7,12.9c0,7.4-5.5,11.7-14.5,11.7C347.9,97.7,343,95.5,339.4,92.3z"/>
</g>
</svg>
