<?xml version="1.0" encoding="utf-8"?>
<!-- Generator: Adobe Illustrator 22.0.1, SVG Export Plug-In . SVG Version: 6.00 Build 0)  -->
<svg version="1.1" id="Camada_1" xmlns="http://www.w3.org/2000/svg" xmlns:xlink="http://www.w3.org/1999/xlink" x="0px" y="0px"
	 viewBox="0 0 903.9 157.9" style="enable-background:new 0 0 903.9 157.9;" xml:space="preserve">
<style type="text/css">
	.st0{fill:#56B7E0;}
	.st1{fill:#FFCC00;}
	.st2{fill:#FFFFFF;}
	.st3{clip-path:url(#SVGID_2_);}
</style>
<rect y="-0.1" class="st0" width="903.8" height="158"/>
<polygon class="st1" points="903.9,157.9 372.9,157.9 530.9,-0.1 903.9,-0.1 "/>
<g>
	<path class="st2" d="M531.5,95.7V61.8h25.7v8.9h-15.5v3.4h15.1V83h-15.1v3.7h15.4v8.9L531.5,95.7L531.5,95.7L531.5,95.7z"/>
	<path class="st2" d="M591.7,95.7V75.3l-7.6,20.4h-4.6l-7.6-20.4v20.4h-10.3V61.8h14.2l5.9,16.2l5.9-16.2h14.2v33.9H591.7z"/>
	<path class="st2" d="M607.4,95.7V61.8H628c7,0,10.1,4.7,10.1,8.6c0,4.2-2.5,7.1-5.8,7.8c3.7,0.6,6.4,3.9,6.4,8.3
		c0,4.7-3.2,9.2-10,9.2C628.7,95.7,607.4,95.7,607.4,95.7z M627.6,72.3c0-1.2-1-1.9-2-1.9h-7.9v4h7.9
		C626.7,74.4,627.6,73.6,627.6,72.3z M628.3,85.1c0-1.2-0.9-2.2-2.4-2.2h-8.2v4.3h8.2C627.4,87.2,628.3,86.4,628.3,85.1z"/>
	<path class="st2" d="M665.4,95.7l-1.2-4H652l-1.2,4h-11.6l12.5-33.9h12.9L677,95.7H665.4z M658.1,71.9l-3.4,10.9h6.7L658.1,71.9z"
		/>
	<path class="st2" d="M678.8,95.7V61.8h10.3v24.9h12.8v8.9L678.8,95.7L678.8,95.7z"/>
	<path class="st2" d="M728.6,95.7l-1.2-4h-12.2l-1.2,4h-11.6l12.5-33.9h12.9l12.5,33.9H728.6z M721.3,71.9l-3.4,10.9h6.7L721.3,71.9
		z"/>
	<path class="st2" d="M738.7,78.8c0-10.9,8.4-17.5,18.6-17.5c8.1,0,12.7,4.5,14.9,8.8l-8.6,4.4c-1-2.1-3.2-4.2-6.2-4.2
		c-4.9,0-8.2,3.8-8.2,8.5s3.3,8.5,8.2,8.5c1.9,0,4.2-0.7,5.3-1.5v-1.2h-6.3v-8.9h16.5v13.9c-3.8,4.2-8.8,6.9-15.5,6.9
		C747.1,96.4,738.7,89.7,738.7,78.8z"/>
	<path class="st2" d="M777.4,95.7V61.8h25.7v8.9h-15.4v3.4h15.1V83h-15.1v3.7h15.4v8.9L777.4,95.7L777.4,95.7z"/>
	<path class="st2" d="M830.4,95.7l-12.5-17.2v17.2h-10.3V61.8h10.6l11.8,16v-16h10.3v33.9C840.3,95.7,830.4,95.7,830.4,95.7z"/>
	<path class="st2" d="M843.2,91l5.3-7.6c2.5,2.4,6.3,4.4,10.9,4.4c1.9,0,3.8-0.5,3.8-1.8c0-3.2-18.9,0.1-18.9-13.3
		c0-5.7,4.8-11.2,14.1-11.2c5.5,0,10.5,1.6,14.4,4.7l-5.5,7.3c-2.9-2.2-6.8-3.4-10-3.4c-2,0-2.6,0.7-2.6,1.5c0,3.2,18.8,0.5,18.8,13
		c0,7.5-5.5,11.8-14.6,11.8C851.7,96.4,846.8,94.2,843.2,91z"/>
</g>
<g>
	<g>
		<defs>
			<rect id="SVGID_1_" y="-0.1" width="337" height="158"/>
		</defs>
		<clipPath id="SVGID_2_">
			<use xlink:href="#SVGID_1_"  style="overflow:visible;"/>
		</clipPath>
		<g id="Camada_9" class="st3">
			<g>
				<path class="st2" d="M125.1-22.2l-16.6,10.3c-1.8,1.2-2.5,3.5-1.3,5.4l1.2,1.9c0.6,0.9,0.7,2.1,0.4,3.1l-6.1,21.7
					c-0.4,1.3,0,2.7,0.9,3.7l0,0c2.1,2.4,6,1.5,6.8-1.6L117-1l1.3-4.5c2.2-7.8,12.2-5.2,9.8,3.2l-1.2,4.1l-6.5,23.1
					c-0.9,3,2.1,5.9,5.1,4.8l0,0c1.3-0.4,2.2-1.4,2.6-2.7l6-21.4c0.3-1.1,1-2,2-2.4l2-1c1.9-1.1,2.6-3.4,1.7-5.3L131-20.5
					C129.7-22.6,127-23.3,125.1-22.2z"/>
				<g>
					<path class="st2" d="M111.9,45.6c-1.1,1.2-2,2.2-2.9,3.2c-5.7,6.5-11.4,12.8-17.2,19.3c-2,2.3-4,4.5-6.1,6.8
						c-1.5,1.7-3.5,2.3-5.8,1.9c-4.7-1-9.4-2-14.1-3c-4.8-1-9.6-2.1-14.5-3.1c-4.1-0.8-8.2-1.8-12.3-2.6c-4.3-0.9-8.5-1.9-12.8-2.7
						c-1.9-0.4-3.7-0.7-5.6-1.2c-4.5-1.1-6.1-6.5-3-9.8c4.6-5,9.3-9.9,13.8-14.9c3.8-4,7.6-8.1,11.3-12.2c1.9-2.1,4-2.8,6.8-2.4
						c4.9,0.7,9.9,1.3,14.8,1.9c7.1,0.9,14.1,1.8,21.2,2.8c9,1.1,18.1,2.4,27.1,3.5c2.8,0.4,5,1.7,7.4,2.9c8.1,4.3,16.3,8.7,24.5,13
						c10.3,5.4,20.5,10.9,30.9,16.3c2.1,1.1,3.4,2.7,3.7,5.2c0.5,4.3,1.1,8.5,1.6,12.7c0.8,5.9,1.5,11.9,2.2,17.8
						c0.3,2.1,0.5,4.3,0.8,6.4c0.3,2.3-0.3,4.4-2.2,5.9s-4.1,1.6-6.2,0.7c-4.2-1.8-8.2-3.6-12.4-5.4c-3.9-1.7-7.7-3.4-11.6-5.2
						c-2.8-1.2-5.7-2.4-8.6-3.7c-4.2-1.8-8.2-3.6-12.4-5.4c-3.4-1.5-6.7-2.9-10.1-4.4c-2.2-0.9-3.5-2.5-3.8-4.9
						c-0.6-4.7-1-9.5-1.6-14.2c-0.9-7.7-1.7-15.3-2.7-22.9C112.1,47,112,46.4,111.9,45.6z M24.5,57.6c1.3,0.3,2.5,0.6,3.8,0.9
						c3.5,0.8,7,1.4,10.6,2.2c4.3,0.9,8.5,1.9,12.8,2.7c4.7,1,9.5,2,14.2,3c4.2,0.9,8.5,1.8,12.7,2.8c1.7,0.4,3,0.4,4-1.3
						c0.2-0.3,0.4-0.4,0.6-0.6c3.1-3.5,6.2-6.9,9.3-10.3c4.9-5.5,9.8-11,14.7-16.6c0.2-0.2,0.5-0.4,0.4-0.7s-0.5-0.2-0.7-0.2
						c-8.3-1.1-16.6-2.2-24.8-3.2c-10.7-1.4-21.5-2.7-32.2-4.2c-1-0.2-1.7,0.1-2.3,0.9c-0.4,0.5-0.9,0.9-1.4,1.4
						c-6.5,7.1-13.1,14.1-19.6,21.2C25.7,56.1,25.1,56.8,24.5,57.6z M176.5,106.4c-0.3-2.5-0.6-4.7-0.9-7c-1.2-9-2.3-18.2-3.5-27.2
						c-0.1-0.4-0.2-0.7-0.7-0.9c-4.1-2.1-8.1-4.3-12.2-6.4c-8.4-4.5-16.9-8.9-25.3-13.4c-4.6-2.5-9.2-4.9-13.9-7.4
						c-0.3-0.2-0.5-0.4-0.9-0.1c-0.3,0.2,0,0.5,0,0.8c0.4,3.2,0.8,6.4,1.1,9.4c1.1,9.3,2.2,18.7,3.3,28.1c0.1,0.8,0.4,1.2,1.2,1.5
						c3.6,1.5,7.2,3.1,10.7,4.6c3.4,1.5,6.7,2.9,10.1,4.4c2.8,1.2,5.6,2.4,8.4,3.6c2.4,1.1,4.8,2.1,7.3,3.2c3.1,1.4,6.2,2.7,9.3,4.1
						C172.4,104.6,174.3,105.4,176.5,106.4z"/>
					<path class="st2" d="M97.6,101.7c-4.2,12.9-8.3,26-12.5,38.9c-0.3,1.2-0.4,1.4,0.9,1.5c2.8,0.4,5.6,0.6,8.3,1
						c11.7,1.3,23.5,2.7,35.3,4c5.6,0.6,11.1,1.2,16.7,1.8c0.8,0.1,1.2-0.2,1.5-0.9c1.3-3.8,2.5-7.5,3.8-11.2
						c2.2-6.3,4.4-12.6,6.7-18.8c0.8-2,1.5-4,2-6.1c0.2-0.7,0.5-0.9,1.2-0.6c1.7,0.8,3.4,1.5,5.2,2.2c0.5,0.2,0.5,0.4,0.4,0.9
						c-1.5,4-2.8,8.1-4.3,12.2c-0.1,0.3-0.3,0.6-0.3,0.8c-1.3,3.9-2.6,7.7-4,11.5c-1.5,4.3-2.9,8.6-4.5,13c-1.2,3.4-3.6,4.9-7.2,4.6
						c-10.8-1.2-21.5-2.4-32.3-3.6c-7.5-0.8-14.9-1.6-22.4-2.5c-2.5-0.3-5-0.4-7.5-0.9c-2.6-0.4-5.2-1.4-7.7-2.5
						c-6.5-3.2-12.7-6.9-19.1-10.2c-9.5-5.1-18.9-10.3-28.2-15.5c-3.8-2-7.4-4.1-11.2-6.1c-2.6-1.5-3.7-4.3-2.8-7.5
						c0.9-3.3,2-6.7,3-10.1c2-6.9,4-13.6,6-20.5c0.7-2.4,1.4-4.6,2.1-7c0.2-0.6,0.4-0.7,1-0.6c1.8,0.5,3.5,0.9,5.2,1.4
						c0.7,0.2,0.8,0.5,0.6,1.1c-0.4,1.6-1,3.1-1.4,4.7c-0.9,3.1-1.9,6.3-2.7,9.4c-2.1,7.4-4.1,14.8-6.4,22.1c-0.2,0.7,0,1,0.6,1.3
						c8.1,4.4,16.1,8.8,24.2,13.3c6.4,3.5,12.9,7.1,19.3,10.6c3.4,1.9,6.8,3.7,10.2,5.6c0.5,0.2,0.7,0.2,0.8-0.3
						c0.1-0.2,0.1-0.3,0.1-0.5c4.8-14.8,9.5-29.7,14.3-44.5c3.5-11,7-21.9,10.5-32.9c0.4-1.3,0.5-1.3,1.7-0.9
						c1.5,0.5,3.1,1.1,4.6,1.5c0.8,0.2,0.8,0.5,0.6,1.2c-3,9.1-5.9,18.3-8.8,27.3C100.1,93.8,98.9,97.8,97.6,101.7L97.6,101.7z"/>
					<path class="st2" d="M47.6,108.1c-0.7,1.9-1.3,3.9-1.9,5.8c-0.2,0.7-0.4,0.8-1.2,0.4c-4.7-2.6-9.3-5.3-14-7.7
						c-0.8-0.4-1-0.9-0.8-1.8c1.2-3.7,2.4-7.4,3.5-11.1c0.4-1.3,0.5-1.3,1.6-0.6c4.7,2.6,9.4,5.2,14,7.7c0.6,0.4,0.7,0.7,0.5,1.3
						C48.8,104.2,48.3,106.1,47.6,108.1z"/>
				</g>
			</g>
		</g>
	</g>
</g>
</svg>
