<?xml version="1.0" encoding="utf-8"?>
<!-- Generator: Adobe Illustrator 22.0.1, SVG Export Plug-In . SVG Version: 6.00 Build 0)  -->
<svg version="1.1" id="Camada_1" xmlns="http://www.w3.org/2000/svg" xmlns:xlink="http://www.w3.org/1999/xlink" x="0px" y="0px"
	 viewBox="0 0 900.9 157.9" style="enable-background:new 0 0 900.9 157.9;" xml:space="preserve">
<style type="text/css">
	.st0{fill:#FFFFFF;}
</style>
<g>
	<defs>
		<polygon id="SVGID_1_" points="908.7,-7.7 427.1,-7.6 426.9,-7.4 168.4,-7.4 -7.7,168.3 302.4,168.3 302.4,168.2 908.7,168.2 		
			"/>
	</defs>
	<clipPath id="SVGID_2_">
		<use xlink:href="#SVGID_1_"  style="overflow:visible;"/>
	</clipPath>
	<g style="clip-path:url(#SVGID_2_);">
		
			<image style="overflow:visible;" width="1920" height="1080" xlink:href="../Ilustrações/fanarts/finished/Sailor-Moon.jpg"  transform="matrix(0.5643 0 0 0.5643 -174.7499 -241.4062)">
		</image>
	</g>
</g>
<g>
	<path class="st0" d="M643.4,97V63.2H669v8.9h-15.3v3.3h15v8.9h-15v12.5h-10.2L643.4,97L643.4,97z"/>
	<path class="st0" d="M693.2,97l-1.2-4h-12.1l-1.2,4h-11.5l12.4-33.7h12.8L704.7,97H693.2z M686,73.3l-3.3,10.8h6.6L686,73.3z"/>
	<path class="st0" d="M729.3,97l-12.4-17.1V97h-10.2V63.2h10.4l11.8,15.9V63.2h10.2V97H729.3z"/>
	<path class="st0" d="M766.9,97l-1.2-4h-12.1l-1.2,4h-11.5l12.4-33.7H766L778.3,97H766.9z M759.6,73.3l-3.3,10.8h6.6L759.6,73.3z"/>
	<path class="st0" d="M798.7,97L794,86.3h-3.7V97h-10.2V63.2h18c7.9,0,12.1,5.2,12.1,11.5c0,5.8-3.5,8.9-6,10.2l6,12h-11.5V97z
		 M799.9,74.8c0-1.7-1.6-2.7-3.3-2.7h-6.2v5.3h6.2C798.4,77.4,799.9,76.6,799.9,74.8z"/>
	<path class="st0" d="M821,97V72.1h-9.1v-8.9h28.2v8.9h-8.9v24.7H821V97z"/>
	<path class="st0" d="M840.9,92.2l5.3-7.6c2.5,2.5,6.3,4.4,10.8,4.4c1.9,0,3.7-0.5,3.7-1.7c0-3.2-18.7,0-18.7-13.2
		c0-5.6,4.7-11.1,14-11.1c5.5,0,10.4,1.5,14.3,4.7l-5.5,7.2c-2.9-2.2-6.7-3.3-9.9-3.3c-2,0-2.7,0.7-2.7,1.5
		c0,3.2,18.7,0.4,18.7,12.9c0,7.5-5.5,11.6-14.6,11.6C849.2,97.5,844.4,95.4,840.9,92.2z"/>
</g>
</svg>
