<?xml version="1.0" encoding="utf-8"?>
<!-- Generator: Adobe Illustrator 22.0.1, SVG Export Plug-In . SVG Version: 6.00 Build 0)  -->
<svg version="1.1" id="Camada_1" xmlns="http://www.w3.org/2000/svg" xmlns:xlink="http://www.w3.org/1999/xlink" x="0px" y="0px"
	 viewBox="0 0 903.9 157.9" style="enable-background:new 0 0 903.9 157.9;" xml:space="preserve">
<style type="text/css">
	.st0{fill:#D60D47;}
	.st1{fill:#FFCC00;}
	.st2{fill:#FFFFFF;}
	.st3{clip-path:url(#SVGID_2_);}
	.st4{fill:#636363;}
	.st5{fill:#787878;}
	.st6{fill:#505050;}
	.st7{fill:#959595;}
	.st8{fill:#797979;}
	.st9{fill:#B3B3B3;}
	.st10{fill:#DCDCDC;}
	.st11{fill:#9F9F9F;}
	.st12{fill:#CDCDCD;}
	.st13{fill:#D4D4D4;}
	.st14{fill:#9E9E9E;}
	.st15{fill:#7C7C7C;}
	.st16{fill:#ECECEC;}
</style>
<rect x="0" y="0" class="st0" width="903.8" height="158"/>
<polygon class="st1" points="0,0 373,-0.1 531,158 0,158 "/>
<g>
	<path class="st2" d="M30.4,95.4v-33h25v8.7H40.4v3.2h14.7v8.7H40.4v12.2H30.4z"/>
	<path class="st2" d="M79.1,95.4l-1.2-3.9H66.1l-1.2,3.9H53.6l12.1-33h12.5l12.1,33H79.1z M72,72.2l-3.2,10.6h6.5L72,72.2z"/>
	<path class="st2" d="M114.4,95.4l-12.1-16.7v16.7h-10v-33h10.2L114,78V62.4h10v33H114.4z"/>
	<path class="st2" d="M151.2,95.4l-1.2-3.9h-11.8l-1.2,3.9h-11.3l12.1-33h12.5l12.1,33H151.2z M144.1,72.2l-3.2,10.6h6.5L144.1,72.2
		z"/>
	<path class="st2" d="M182.3,95.4L177.7,85h-3.6v10.4h-10v-33h17.6c7.7,0,11.8,5.1,11.8,11.3c0,5.7-3.4,8.7-5.9,10l5.9,11.7H182.3z
		 M183.5,73.7c0-1.7-1.6-2.6-3.2-2.6h-6.1v5.2h6.1C182,76.3,183.5,75.5,183.5,73.7z"/>
	<path class="st2" d="M204.2,95.4V71.1h-8.9v-8.7h27.6v8.7h-8.7v24.2H204.2z"/>
	<path class="st2" d="M223.6,90.7l5.2-7.4c2.4,2.4,6.2,4.3,10.6,4.3c1.9,0,3.6-0.5,3.6-1.7c0-3.1-18.3,0-18.3-12.9
		c0-5.5,4.6-10.9,13.7-10.9c5.4,0,10.2,1.5,14,4.6l-5.4,7c-2.8-2.2-6.6-3.2-9.7-3.2c-2,0-2.6,0.7-2.6,1.5c0,3.1,18.3,0.4,18.3,12.6
		c0,7.3-5.4,11.4-14.3,11.4C231.8,95.9,227.1,93.9,223.6,90.7z"/>
</g>
<g>
	<defs>
		<rect id="SVGID_1_" x="654.4" y="0" width="249.5" height="158.1"/>
	</defs>
	<clipPath id="SVGID_2_">
		<use xlink:href="#SVGID_1_"  style="overflow:visible;"/>
	</clipPath>
	<g id="Camada_9" class="st3">
		<rect x="820.2" y="38.1" class="st4" width="7.4" height="7.3"/>
		<rect x="820.2" y="45.3" class="st4" width="7.4" height="7.3"/>
		<rect x="827.5" y="45.3" class="st4" width="7.4" height="7.3"/>
		<rect x="849.5" y="45.3" class="st5" width="7.4" height="7.3"/>
		<rect x="812.8" y="52.6" class="st4" width="7.4" height="7.3"/>
		<rect x="820.2" y="52.6" class="st4" width="7.4" height="7.3"/>
		<rect x="849.5" y="52.6" class="st5" width="7.4" height="7.3"/>
		<rect x="805.5" y="59.9" class="st4" width="7.4" height="7.3"/>
		<rect x="812.8" y="59.9" class="st4" width="7.4" height="7.3"/>
		<rect x="761.5" y="67.2" class="st4" width="7.4" height="7.3"/>
		<rect x="798.2" y="67.2" class="st4" width="7.4" height="7.3"/>
		<rect x="805.5" y="67.2" class="st4" width="7.4" height="7.3"/>
		<rect x="849.5" y="67.2" class="st5" width="7.4" height="7.3"/>
		<rect x="768.9" y="74.5" class="st4" width="7.4" height="7.3"/>
		<rect x="776.2" y="74.5" class="st4" width="7.4" height="7.3"/>
		<rect x="783.5" y="74.5" class="st4" width="7.4" height="7.3"/>
		<rect x="790.9" y="74.5" class="st4" width="7.4" height="7.3"/>
		<rect x="798.2" y="74.5" class="st6" width="7.4" height="7.3"/>
		<rect x="805.5" y="74.5" class="st5" width="7.4" height="7.3"/>
		<rect x="849.5" y="74.5" class="st5" width="7.4" height="7.3"/>
		<rect x="790.9" y="81.7" width="7.4" height="7.3"/>
		<rect x="798.2" y="81.7" class="st5" width="7.4" height="7.3"/>
		<rect x="805.5" y="81.7" class="st6" width="7.4" height="7.3"/>
		<rect x="812.8" y="81.7" class="st7" width="7.4" height="7.3"/>
		<rect x="842.2" y="81.7" class="st7" width="7.4" height="7.3"/>
		<rect x="768.9" y="88.9" class="st4" width="7.4" height="7.3"/>
		<rect x="798.2" y="88.9" class="st7" width="7.4" height="7.3"/>
		<rect x="805.5" y="88.9" class="st7" width="7.4" height="7.3"/>
		<rect x="812.8" y="88.9" class="st7" width="7.4" height="7.3"/>
		<rect x="820.2" y="88.9" class="st7" width="7.4" height="7.3"/>
		<rect x="827.5" y="88.9" class="st7" width="7.4" height="7.3"/>
		<rect x="834.8" y="88.9" class="st7" width="7.4" height="7.3"/>
		<rect x="842.2" y="88.9" class="st5" width="7.4" height="7.3"/>
		<rect x="805.5" y="96.2" class="st7" width="7.4" height="7.3"/>
		<rect x="812.8" y="96.2" class="st8" width="7.4" height="7.3"/>
		<rect x="820.2" y="96.2" class="st8" width="7.4" height="7.3"/>
		<rect x="768.9" y="103.5" class="st4" width="7.4" height="7.3"/>
		<rect x="776.2" y="103.5" class="st8" width="7.4" height="7.3"/>
		<rect x="783.5" y="103.5" class="st4" width="7.4" height="7.3"/>
		<rect x="805.5" y="103.5" class="st9" width="7.4" height="7.3"/>
		<rect x="776.2" y="110.8" class="st4" width="7.4" height="7.3"/>
		<rect x="878.8" y="110.8" class="st4" width="7.4" height="7.3"/>
		<rect x="798.2" y="118.1" class="st7" width="7.4" height="7.3"/>
		<rect x="820.2" y="118.1" class="st7" width="7.4" height="7.3"/>
		<rect x="827.5" y="118.1" class="st5" width="7.4" height="7.3"/>
		<rect x="834.8" y="118.1" class="st5" width="7.4" height="7.3"/>
		<rect x="878.8" y="118.1" class="st4" width="7.4" height="7.3"/>
		<rect x="783.5" y="125.4" class="st9" width="7.4" height="7.3"/>
		<rect x="790.9" y="125.4" class="st7" width="7.4" height="7.3"/>
		<rect x="798.2" y="125.4" class="st8" width="7.4" height="7.3"/>
		<rect x="805.5" y="125.4" class="st8" width="7.4" height="7.3"/>
		<rect x="820.2" y="125.4" class="st4" width="7.4" height="7.3"/>
		<rect x="827.5" y="125.4" class="st10" width="7.4" height="7.3"/>
		<rect x="834.8" y="125.4" class="st5" width="7.4" height="7.3"/>
		<rect x="856.8" y="125.4" class="st4" width="7.4" height="7.3"/>
		<rect x="864.2" y="125.4" class="st4" width="7.4" height="7.3"/>
		<rect x="878.8" y="125.4" class="st4" width="7.4" height="7.3"/>
		<rect x="776.2" y="132.6" class="st9" width="7.4" height="7.3"/>
		<rect x="783.5" y="132.6" class="st7" width="7.4" height="7.3"/>
		<rect x="812.8" y="132.6" class="st8" width="7.4" height="7.3"/>
		<rect x="827.5" y="132.6" class="st4" width="7.4" height="7.3"/>
		<rect x="834.8" y="132.6" class="st7" width="7.4" height="7.3"/>
		<rect x="856.8" y="132.6" class="st4" width="7.4" height="7.3"/>
		<rect x="864.2" y="132.6" class="st4" width="7.4" height="7.3"/>
		<rect x="754.2" y="139.8" class="st11" width="7.4" height="7.3"/>
		<rect x="761.5" y="139.8" class="st11" width="7.4" height="7.3"/>
		<rect x="768.9" y="139.8" class="st11" width="7.4" height="7.3"/>
		<rect x="776.2" y="139.8" class="st11" width="7.4" height="7.3"/>
		<rect x="783.5" y="139.8" class="st7" width="7.4" height="7.3"/>
		<rect x="812.8" y="139.8" class="st7" width="7.4" height="7.3"/>
		<rect x="746.9" y="147.1" class="st11" width="7.4" height="7.3"/>
		<rect x="754.2" y="147.1" class="st11" width="7.4" height="7.3"/>
		<rect x="761.5" y="147.1" class="st11" width="7.4" height="7.3"/>
		<rect x="768.9" y="147.1" class="st12" width="7.4" height="7.3"/>
		<rect x="776.2" y="147.1" class="st11" width="7.4" height="7.3"/>
		<rect x="783.5" y="147.1" class="st11" width="7.4" height="7.3"/>
		<rect x="746.9" y="154.4" class="st13" width="7.4" height="7.3"/>
		<rect x="754.2" y="154.4" class="st13" width="7.4" height="7.3"/>
		<rect x="761.5" y="154.4" class="st13" width="7.4" height="7.3"/>
		<rect x="768.9" y="154.4" class="st11" width="7.4" height="7.3"/>
		<rect x="776.2" y="154.4" class="st11" width="7.4" height="7.3"/>
		<rect x="783.5" y="154.4" class="st11" width="7.4" height="7.3"/>
		<rect x="790.9" y="154.4" class="st11" width="7.4" height="7.3"/>
		<rect x="798.2" y="154.4" class="st11" width="7.4" height="7.3"/>
		<rect x="827.5" y="52.6" class="st9" width="7.4" height="7.3"/>
		<rect x="820.2" y="59.9" class="st9" width="7.4" height="7.3"/>
		<rect x="812.8" y="67.2" class="st9" width="7.4" height="7.3"/>
		<rect x="820.2" y="67.2" class="st9" width="7.4" height="7.3"/>
		<rect x="812.8" y="74.5" class="st9" width="7.4" height="7.3"/>
		<rect x="842.2" y="74.5" class="st9" width="7.4" height="7.3"/>
		<rect x="783.5" y="81.7" class="st9" width="7.4" height="7.3"/>
		<rect x="834.8" y="81.7" class="st9" width="7.4" height="7.3"/>
		<rect x="790.9" y="88.9" class="st9" width="7.4" height="7.3"/>
		<rect x="790.9" y="118.1" class="st9" width="7.4" height="7.3"/>
		<rect x="812.8" y="16.3" class="st10" width="7.4" height="7.3"/>
		<rect x="820.2" y="16.3" class="st10" width="7.4" height="7.3"/>
		<rect x="827.5" y="23.5" class="st16" width="7.4" height="7.3"/>
		<rect x="834.8" y="23.5" class="st10" width="7.4" height="7.3"/>
		<rect x="827.5" y="30.8" class="st10" width="7.4" height="7.3"/>
		<rect x="827.5" y="38.1" class="st10" width="7.4" height="7.3"/>
		<rect x="827.5" y="59.9" class="st10" width="7.4" height="7.3"/>
		<rect x="834.8" y="59.9" class="st10" width="7.4" height="7.3"/>
		<rect x="842.2" y="59.9" class="st10" width="7.4" height="7.3"/>
		<rect x="827.5" y="67.2" class="st10" width="7.4" height="7.3"/>
		<rect x="834.8" y="67.2" class="st16" width="7.4" height="7.3"/>
		<rect x="842.2" y="67.2" class="st10" width="7.4" height="7.3"/>
		<rect x="820.2" y="74.5" class="st10" width="7.4" height="7.3"/>
		<rect x="827.5" y="74.5" class="st10" width="7.4" height="7.3"/>
		<rect x="834.8" y="74.5" class="st10" width="7.4" height="7.3"/>
		<rect x="820.2" y="81.7" class="st10" width="7.4" height="7.3"/>
		<rect x="827.5" y="81.7" class="st10" width="7.4" height="7.3"/>
		<rect x="798.2" y="96.2" class="st10" width="7.4" height="7.3"/>
		<rect x="790.9" y="103.5" class="st10" width="7.4" height="7.3"/>
		<rect x="798.2" y="103.5" class="st10" width="7.4" height="7.3"/>
		<rect x="783.5" y="110.8" class="st10" width="7.4" height="7.3"/>
		<rect x="790.9" y="110.8" class="st10" width="7.4" height="7.3"/>
		<rect x="798.2" y="110.8" class="st9" width="7.4" height="7.3"/>
		<rect x="776.2" y="118.1" class="st10" width="7.4" height="7.3"/>
		<rect x="783.5" y="118.1" class="st10" width="7.4" height="7.3"/>
		<rect x="768.9" y="125.4" class="st10" width="7.4" height="7.3"/>
		<rect x="776.2" y="125.4" class="st10" width="7.4" height="7.3"/>
		<rect x="768.9" y="132.6" class="st10" width="7.4" height="7.3"/>
		<rect x="820.2" y="23.5" width="7.4" height="7.3"/>
		<rect x="820.2" y="30.8" width="7.4" height="7.3"/>
		<rect x="834.8" y="30.8" width="7.4" height="7.3"/>
		<rect x="834.8" y="38.1" width="7.4" height="7.3"/>
		<rect x="768.9" y="16.3" class="st8" width="7.4" height="7.3"/>
		<rect x="783.5" y="16.3" class="st8" width="7.4" height="7.3"/>
		<rect x="827.5" y="16.3" class="st8" width="7.4" height="7.3"/>
		<rect x="812.8" y="45.3" class="st8" width="7.4" height="7.3"/>
		<rect x="754.2" y="52.6" class="st8" width="7.4" height="7.3"/>
		<rect x="805.5" y="52.6" class="st8" width="7.4" height="7.3"/>
		<rect x="842.2" y="52.6" class="st8" width="7.4" height="7.3"/>
		<rect x="754.2" y="59.9" class="st8" width="7.4" height="7.3"/>
		<rect x="761.5" y="59.9" class="st8" width="7.4" height="7.3"/>
		<rect x="798.2" y="59.9" class="st8" width="7.4" height="7.3"/>
		<rect x="768.9" y="67.2" class="st8" width="7.4" height="7.3"/>
		<rect x="776.2" y="67.2" class="st8" width="7.4" height="7.3"/>
		<rect x="783.5" y="67.2" class="st8" width="7.4" height="7.3"/>
		<rect x="790.9" y="67.2" class="st8" width="7.4" height="7.3"/>
		<rect x="761.5" y="74.5" class="st8" width="7.4" height="7.3"/>
		<rect x="761.5" y="81.7" class="st8" width="7.4" height="7.3"/>
		<rect x="768.9" y="81.7" class="st8" width="7.4" height="7.3"/>
		<rect x="761.5" y="88.9" class="st8" width="7.4" height="7.3"/>
		<rect x="739.5" y="96.2" class="st8" width="7.4" height="7.3"/>
		<rect x="746.9" y="103.5" class="st8" width="7.4" height="7.3"/>
		<rect x="754.2" y="103.5" class="st8" width="7.4" height="7.3"/>
		<rect x="871.5" y="103.5" class="st8" width="7.4" height="7.3"/>
		<rect x="761.5" y="110.8" class="st8" width="7.4" height="7.3"/>
		<rect x="768.9" y="110.8" class="st8" width="7.4" height="7.3"/>
		<rect x="827.5" y="110.8" class="st8" width="7.4" height="7.3"/>
		<rect x="834.8" y="110.8" class="st8" width="7.4" height="7.3"/>
		<rect x="842.2" y="110.8" class="st8" width="7.4" height="7.3"/>
		<rect x="849.5" y="118.1" class="st8" width="7.4" height="7.3"/>
		<rect x="856.8" y="118.1" class="st8" width="7.4" height="7.3"/>
		<rect x="849.5" y="125.4" class="st8" width="7.4" height="7.3"/>
		<rect x="842.2" y="132.6" class="st8" width="7.4" height="7.3"/>
		<rect x="871.5" y="132.6" class="st8" width="7.4" height="7.3"/>
		<rect x="842.2" y="139.8" class="st8" width="7.4" height="7.3"/>
		<rect x="805.5" y="154.4" class="st8" width="7.4" height="7.3"/>
		<rect x="827.5" y="154.4" class="st8" width="7.4" height="7.3"/>
		<rect x="842.2" y="154.4" class="st8" width="7.4" height="7.3"/>
		<rect x="776.2" y="9" class="st7" width="7.4" height="7.3"/>
		<rect x="783.5" y="9" class="st7" width="7.4" height="7.3"/>
		<rect x="790.9" y="9" class="st7" width="7.4" height="7.3"/>
		<rect x="820.2" y="9" class="st7" width="7.4" height="7.3"/>
		<rect x="827.5" y="9" class="st7" width="7.4" height="7.3"/>
		<rect x="776.2" y="16.3" class="st7" width="7.4" height="7.3"/>
		<rect x="790.9" y="16.3" class="st7" width="7.4" height="7.3"/>
		<rect x="798.2" y="16.3" class="st7" width="7.4" height="7.3"/>
		<rect x="805.5" y="16.3" class="st7" width="7.4" height="7.3"/>
		<rect x="834.8" y="16.3" class="st7" width="7.4" height="7.3"/>
		<rect x="842.2" y="16.3" class="st7" width="7.4" height="7.3"/>
		<rect x="761.5" y="23.5" class="st7" width="7.4" height="7.3"/>
		<rect x="768.9" y="23.5" class="st7" width="7.4" height="7.3"/>
		<rect x="776.2" y="23.5" class="st7" width="7.4" height="7.3"/>
		<rect x="783.5" y="23.5" class="st7" width="7.4" height="7.3"/>
		<rect x="790.9" y="23.5" class="st7" width="7.4" height="7.3"/>
		<rect x="798.2" y="23.5" class="st7" width="7.4" height="7.3"/>
		<rect x="805.5" y="23.5" class="st7" width="7.4" height="7.3"/>
		<rect x="812.8" y="23.5" class="st7" width="7.4" height="7.3"/>
		<rect x="842.2" y="23.5" class="st7" width="7.4" height="7.3"/>
		<rect x="849.5" y="23.5" class="st7" width="7.4" height="7.3"/>
		<rect x="754.2" y="30.8" class="st7" width="7.4" height="7.3"/>
		<rect x="761.5" y="30.8" class="st7" width="7.4" height="7.3"/>
		<rect x="768.9" y="30.8" class="st7" width="7.4" height="7.3"/>
		<rect x="776.2" y="30.8" class="st7" width="7.4" height="7.3"/>
		<rect x="783.5" y="30.8" class="st7" width="7.4" height="7.3"/>
		<rect x="790.9" y="30.8" class="st7" width="7.4" height="7.3"/>
		<rect x="798.2" y="30.8" class="st7" width="7.4" height="7.3"/>
		<rect x="805.5" y="30.8" class="st7" width="7.4" height="7.3"/>
		<rect x="812.8" y="30.8" class="st7" width="7.4" height="7.3"/>
		<rect x="842.2" y="30.8" class="st7" width="7.4" height="7.3"/>
		<rect x="849.5" y="30.8" class="st7" width="7.4" height="7.3"/>
		<rect x="754.2" y="38.1" class="st7" width="7.4" height="7.3"/>
		<rect x="761.5" y="38.1" class="st7" width="7.4" height="7.3"/>
		<rect x="768.9" y="38.1" class="st7" width="7.4" height="7.3"/>
		<rect x="776.2" y="38.1" class="st7" width="7.4" height="7.3"/>
		<rect x="783.5" y="38.1" class="st7" width="7.4" height="7.3"/>
		<rect x="790.9" y="38.1" class="st7" width="7.4" height="7.3"/>
		<rect x="798.2" y="38.1" class="st7" width="7.4" height="7.3"/>
		<rect x="805.5" y="38.1" class="st7" width="7.4" height="7.3"/>
		<rect x="812.8" y="38.1" class="st7" width="7.4" height="7.3"/>
		<rect x="842.2" y="38.1" class="st7" width="7.4" height="7.3"/>
		<rect x="849.5" y="38.1" class="st7" width="7.4" height="7.3"/>
		<rect x="754.2" y="45.3" class="st7" width="7.4" height="7.3"/>
		<rect x="761.5" y="45.3" class="st7" width="7.4" height="7.3"/>
		<rect x="768.9" y="45.3" class="st7" width="7.4" height="7.3"/>
		<rect x="776.2" y="45.3" class="st7" width="7.4" height="7.3"/>
		<rect x="783.5" y="45.3" class="st7" width="7.4" height="7.3"/>
		<rect x="790.9" y="45.3" class="st7" width="7.4" height="7.3"/>
		<rect x="798.2" y="45.3" class="st7" width="7.4" height="7.3"/>
		<rect x="805.5" y="45.3" class="st7" width="7.4" height="7.3"/>
		<rect x="834.8" y="45.3" class="st7" width="7.4" height="7.3"/>
		<rect x="842.2" y="45.3" class="st7" width="7.4" height="7.3"/>
		<rect x="761.5" y="52.6" class="st7" width="7.4" height="7.3"/>
		<rect x="768.9" y="52.6" class="st7" width="7.4" height="7.3"/>
		<rect x="776.2" y="52.6" class="st7" width="7.4" height="7.3"/>
		<rect x="783.5" y="52.6" class="st7" width="7.4" height="7.3"/>
		<rect x="790.9" y="52.6" class="st7" width="7.4" height="7.3"/>
		<rect x="798.2" y="52.6" class="st7" width="7.4" height="7.3"/>
		<rect x="834.8" y="52.6" class="st7" width="7.4" height="7.3"/>
		<rect x="768.9" y="59.9" class="st7" width="7.4" height="7.3"/>
		<rect x="776.2" y="59.9" class="st7" width="7.4" height="7.3"/>
		<rect x="783.5" y="59.9" class="st7" width="7.4" height="7.3"/>
		<rect x="790.9" y="59.9" class="st7" width="7.4" height="7.3"/>
		<rect x="746.9" y="74.5" class="st7" width="7.4" height="7.3"/>
		<rect x="754.2" y="74.5" class="st7" width="7.4" height="7.3"/>
		<rect x="739.5" y="81.7" class="st7" width="7.4" height="7.3"/>
		<rect x="746.9" y="81.7" class="st7" width="7.4" height="7.3"/>
		<rect x="754.2" y="81.7" class="st7" width="7.4" height="7.3"/>
		<rect x="739.5" y="88.9" class="st7" width="7.4" height="7.3"/>
		<rect x="746.9" y="88.9" class="st7" width="7.4" height="7.3"/>
		<rect x="754.2" y="88.9" class="st7" width="7.4" height="7.3"/>
		<rect x="746.9" y="96.2" class="st7" width="7.4" height="7.3"/>
		<rect x="754.2" y="96.2" class="st7" width="7.4" height="7.3"/>
		<rect x="761.5" y="96.2" class="st7" width="7.4" height="7.3"/>
		<rect x="761.5" y="103.5" class="st7" width="7.4" height="7.3"/>
		<rect x="812.8" y="103.5" class="st7" width="7.4" height="7.3"/>
		<rect x="820.2" y="103.5" class="st7" width="7.4" height="7.3"/>
		<rect x="827.5" y="103.5" class="st7" width="7.4" height="7.3"/>
		<rect x="834.8" y="103.5" class="st7" width="7.4" height="7.3"/>
		<rect x="842.2" y="103.5" class="st7" width="7.4" height="7.3"/>
		<rect x="849.5" y="103.5" class="st7" width="7.4" height="7.3"/>
		<rect x="856.8" y="103.5" class="st7" width="7.4" height="7.3"/>
		<rect x="864.2" y="103.5" class="st7" width="7.4" height="7.3"/>
		<rect x="805.5" y="110.8" class="st7" width="7.4" height="7.3"/>
		<rect x="812.8" y="110.8" class="st7" width="7.4" height="7.3"/>
		<rect x="820.2" y="110.8" class="st7" width="7.4" height="7.3"/>
		<rect x="849.5" y="110.8" class="st7" width="7.4" height="7.3"/>
		<rect x="856.8" y="110.8" class="st7" width="7.4" height="7.3"/>
		<rect x="864.2" y="110.8" class="st7" width="7.4" height="7.3"/>
		<rect x="871.5" y="110.8" class="st7" width="7.4" height="7.3"/>
		<rect x="805.5" y="118.1" class="st7" width="7.4" height="7.3"/>
		<rect x="812.8" y="118.1" class="st7" width="7.4" height="7.3"/>
		<rect x="864.2" y="118.1" class="st7" width="7.4" height="7.3"/>
		<rect x="871.5" y="118.1" class="st7" width="7.4" height="7.3"/>
		<rect x="812.8" y="125.4" class="st7" width="7.4" height="7.3"/>
		<rect x="871.5" y="125.4" class="st7" width="7.4" height="7.3"/>
		<rect x="790.9" y="132.6" class="st7" width="7.4" height="7.3"/>
		<rect x="798.2" y="132.6" class="st7" width="7.4" height="7.3"/>
		<rect x="805.5" y="132.6" class="st7" width="7.4" height="7.3"/>
		<rect x="820.2" y="132.6" class="st7" width="7.4" height="7.3"/>
		<rect x="790.9" y="139.8" class="st7" width="7.4" height="7.3"/>
		<rect x="798.2" y="139.8" class="st7" width="7.4" height="7.3"/>
		<rect x="805.5" y="139.8" class="st7" width="7.4" height="7.3"/>
		<rect x="820.2" y="139.8" class="st7" width="7.4" height="7.3"/>
		<rect x="827.5" y="139.8" class="st7" width="7.4" height="7.3"/>
		<rect x="834.8" y="139.8" class="st7" width="7.4" height="7.3"/>
		<rect x="790.9" y="147.1" class="st7" width="7.4" height="7.3"/>
		<rect x="798.2" y="147.1" class="st7" width="7.4" height="7.3"/>
		<rect x="805.5" y="147.1" class="st7" width="7.4" height="7.3"/>
		<rect x="812.8" y="147.1" class="st7" width="7.4" height="7.3"/>
		<rect x="820.2" y="147.1" class="st7" width="7.4" height="7.3"/>
		<rect x="827.5" y="147.1" class="st7" width="7.4" height="7.3"/>
		<rect x="834.8" y="147.1" class="st7" width="7.4" height="7.3"/>
		<rect x="842.2" y="147.1" class="st7" width="7.4" height="7.3"/>
		<rect x="812.8" y="154.4" class="st7" width="7.4" height="7.3"/>
		<rect x="820.2" y="154.4" class="st7" width="7.4" height="7.3"/>
		<rect x="834.8" y="154.4" class="st7" width="7.4" height="7.3"/>
	</g>
</g>
</svg>
