<?xml version="1.0" encoding="utf-8"?>
<!-- Generator: Adobe Illustrator 22.0.1, SVG Export Plug-In . SVG Version: 6.00 Build 0)  -->
<svg version="1.1" id="Camada_1" xmlns="http://www.w3.org/2000/svg" xmlns:xlink="http://www.w3.org/1999/xlink" x="0px" y="0px"
	 viewBox="0 0 900.9 157.9" style="enable-background:new 0 0 900.9 157.9;" xml:space="preserve">
<style type="text/css">
	.st0{fill:#D60D47;}
	.st1{clip-path:url(#SVGID_2_);}
	.st2{fill:none;}
	.st3{fill:#FFFFFF;}
	.st4{fill:#56B7E0;}
</style>
<polygon class="st0" points="732.4,168 422.8,168 598.5,-7.7 908.6,-7.7 "/>
<g>
	<g>
		<defs>
			<polygon id="SVGID_1_" points="590.7,0.4 900,0.8 742.4,158.3 432.4,158.3 			"/>
		</defs>
		<clipPath id="SVGID_2_">
			<use xlink:href="#SVGID_1_"  style="overflow:visible;"/>
		</clipPath>
		<g id="Ilustrações2_1_" class="st1">
			<g>
				<path class="st2" d="M634.2,129c-0.9-0.6-2.2-0.5-3.4-0.7c-1.7-0.4-3.6-0.1-5.5-0.4c-0.3-0.1-0.5-0.1-0.8-0.3
					c-0.1,0-0.4,0-0.6,0.3c0,0.1,0.2,0.2,0.4,0.5c0.7,0.4,1.4,0.4,2,0.6c0.4-0.1,1.3-0.1,1.4,0.3c0.6,1.1,1.4,0.9,2.3,0.6
					c-0.3-0.2-0.8-0.3-1.3-0.4c2.8-0.2,5.6,1.3,8.3,0.8C636.2,129.8,635.2,129.5,634.2,129z"/>
				<path class="st2" d="M598.9,103.9c0.4,0.8,2.6,2,3.2,1.5c1.1-0.7,2.2-0.8,3.5-0.7c-2-1-4.2-0.5-6.3-1.2
					C599.1,103.5,599,103.6,598.9,103.9z"/>
				<path class="st2" d="M648.1,130.5c-2.6-0.5-5.3-0.5-8.1-0.4C642.6,131.1,645.5,131,648.1,130.5z"/>
				<path class="st2" d="M611.9,125.7c1,0.3,2.6,0.1,3.1,1.6c0.2,0.2,0.7,0.9,1,0.9c1,0.3,2,0.6,3.1,0.4c0.3-0.1,0.4-0.1,0.6-0.3
					c-0.1-0.3-0.4-0.5-0.6-0.4c-0.5-0.1-1.4-0.3-1.9-0.7c1,0,1.8,0.1,2.3,0.6c0.2,0.1,0.7,0.4,1-0.1c0.2-0.3,0-0.4-0.4-0.8
					c0-0.1-0.3-0.2-0.1-0.4c0.1-0.2,0.3-0.1,0.4-0.1c0.8,0.3,1.6,1,2.4,1.2c-0.8-1.2-1.7-1.8-3.1-1.6c-0.5,0.2-1.7,0.1-2.3-0.5
					c-1.6-1.1-3.3-0.8-5-0.8c-0.4,0-1,0.6-1.3-0.4c-0.1-0.3-0.7-0.4-1-0.3c-0.1,0-0.3,0.1-0.5,0.4c0,0.4,0.4,0.8,0.7,0.8
					C611.3,125.7,611.6,125.7,611.9,125.7z"/>
				<path class="st2" d="M616.3,123.1c2.2,0.2,4.5,0.7,6.6,1c1.4,0.3,2.6,0.4,4.2,0.1c0.9-0.4,2.2-0.4,3.4,0.6c0,0.1,0.3,0.1,0.4,0
					c1.2-0.2,2.8,1.1,4,0c0.8,0.9,1.4,0.4,1.8-0.4c0.1-0.2,0.4-0.1,0.6-0.5c-0.2-0.1-0.2-0.1-0.3-0.2c-4.2,0.1-8.1-0.5-12.2-1.1
					c-0.3-0.1-0.6-0.2-1-0.1c-3.3,0.5-6.3-0.9-9.3-1.2c-0.3-0.1-0.6-0.2-0.8,0.2c-0.1,0.3,0,0.6,0.4,0.9
					C614.7,122.6,615.6,123.1,616.3,123.1z"/>
				<path class="st2" d="M613.5,107.9c0.2-0.3,0.5-0.2,0.8-0.7c-1.4-0.3-2.8-0.1-3.9-0.5c-1.3-0.4-2.3-0.5-3.6,0.5
					c0.8,0.2,1.5,0.3,2.3,0.3c1.4,0,2.8,0.3,4,1.3c0.2,0.1,0.5,0.1,0.8,0.2c0.6-0.3,1,0.1,1.4,0.3c0.6,0.5,1.4,0.4,2,0.4
					C616,109.1,614.8,108.4,613.5,107.9z"/>
				<g>
					<path class="st3" d="M810.4,12.9c2.2,2.5,2.8,1.6,4.1-0.3c8.7-14.1,16.1-29,23.2-43.9c16.8-35.1,33.1-70.3,48.8-105.9
						c5.5-12.3,12.1-24.5,13.5-38.3c-0.2-1.1-0.4-2-0.5-3c-3-3.5-5-3.7-8.8-1.5c-3,1.7-5.3,4.1-7.3,7c-4.2,5.5-8.1,11.2-12,16.9
						c-30.1,45.3-59.3,91.2-88.6,136.9c-2.3,3.6-4.5,7.2-7,10.8c2.8,0.6,5.5,0.9,7.9,1.9C794.3-2.5,803.2,4,810.4,12.9z"/>
					<path class="st3" d="M757.9,83.7c1.6-1.9,3-3.5,4.5-5.2c12.8-14.7,25.4-29.3,37.9-43.8c1.2-1.4,2.5-2.9,2.1-4.7
						c-0.3-2.6,0.9-3.9,2.9-4.9c1.1-0.6,1.9-1.4,3.1-1.9c2.3-1.1,2.2-2.4,0.7-4.1c-6-7.3-13.1-13.7-21.3-18.5
						c-3.8-2.2-7.8-3.6-12.1-4.3c-5.3-0.9-5.3-0.8-6.1,4.5c-0.4,2.6,0.1,5.3-1.6,7.4c-1.8,2.1-2.9,4.5-4.2,7c-3.3,7-6.5,14-9.8,21
						c-5.2,11.3-10.6,22.6-16,33.7c-0.7,1.2-1.2,2.4,1,2.6C746.7,74,753,77.8,757.9,83.7z M747.5,64.8c0.6-1.8,1.3-3.4,2.1-5.2
						c6.5-13.9,14.3-26.7,21.1-40.2c0.5-1.2,1.3-2,3.2-2.2c1.1,0,2.5,0.6,3.4,1.9c1.1,1.3,0.7,2.4-0.1,3.6
						c-7.7,13.8-15.1,27.6-22.7,41.4c-0.7,1.2-1.7,2.7-2.9,3.4c-1,0.9-2.1,1.1-3.4,0.3C747.2,67.2,747.1,66.3,747.5,64.8z"/>
					<path class="st3" d="M599.7,133c1.6,0.1,3,1,4.6,1.3c4.2,1.1,8.3,1.8,12.6,2.2c3.6,0.5,7.3,0.9,10.9,1.3
						c5.7,0.7,11.5,0.7,17.4,1.1c4.9,0.3,9.7,0.5,14.4,0.4c3.3-0.1,6.5,0.4,9.8,0.6c2,0,4.1-0.3,6.2-0.2c5.1,0.2,10.4-0.1,15.6-0.5
						c3.1-0.2,6.2-0.2,9.5-0.5c4.3-0.2,8.5-0.9,12.9-1.9c2.7-0.8,5.3-2,7.9-2.5c2-0.4,3.8-1,5.6-1.6c2-0.6,3.8-1,5.6-1.5
						c10.4-3.5,18.8-9.2,23.6-19.5c3-6.2,3.7-12.5,0.5-18.8c-3.8-7-9.1-12.1-16.7-14.6c-9.8-3.4-23.5-0.5-28.6,11.4
						c-1,2.2-2,4.2-2.9,6.3c-1.5,0.2-3.1,0.3-4.6,0.5c-5.3,0.5-10.6,1.4-16.1,1.7c-4.7,0.3-9.4,0.6-14.1,0.8
						c-3.6-0.1-7.3,0.1-10.9-0.2c-6.2-0.5-12.2-0.6-18.3-0.7c-2.2-0.1-4.3,0.5-6.5,0.6c-1.3-0.1-2.6-0.1-3.8,0.4
						c-2.3,0.7-4.7,0.8-7,0.7c-0.3-0.1-0.6,0-1,0c-1.5,0.2-3.5,0.4-5.2,0.5c-0.6,0-1.4-0.3-2.3-0.3c-1.4,0.3-2.9,0.5-4.4,0.4
						c-5.8-0.2-11.6,0.2-17.4-0.4c-2.6-0.4-5.1-0.2-7.7-0.1c0,0,0,0.1-0.1,0.2c1,0.4,1.9,0.7,3,0.9c-1.9,0.5-3.6,0.5-5.3,0.5
						c-0.3,0.1-1-0.1-1,0.6c0,0.4,0.6,0.4,0.9,0.5c1,0.3,2.5,0.1,3.2,1.1c-0.2,0.3-0.8-0.2-0.9,0.5c0,0.1,0.2,0.1,0.2,0.2
						c0.7,0.4,1.6,0.4,2.2,0.7c0.4,0,1,0.9,1.6,0c0.1,0,0.8,0.2,1.4,0.3c0,0.4-0.9,0-0.8,0.7c0.2,0.5,0.6,0,0.8,0.2
						c0.3,0.1,0.6,0.2,1,0.4c0,0.1,0.2,0.1,0.3-0.1c-0.1-0.3-0.7-0.4-0.4-0.9c1.3,0.6,3.1,0.7,4.1,2.1c-0.3,0.1-0.6,0.3-0.9,0.4
						c1.1,0.8,2.2,2,3.8,1.6c0.1,0,0.3,0.1,0.3,0.2c0.4,0.8,0.9,0.6,1.8,0.6c-0.1-0.3-0.6-0.2-0.6-0.7c-0.2-0.5-0.2-0.5-0.6-0.7
						c-0.9,0-1.7,0.2-2.5-0.1c-0.5-0.1-1.4-0.3-0.2-1.1c0.2-0.2-0.1-0.3-0.1-0.3c-0.2-0.1-0.4,0-0.3-0.6c0.1-0.2,0.4-0.2,0.5-0.2
						c0.5,0.1,1.3,0.4,0.9,1.2c-0.1,0.3,0.2,0.4,0.6,0.4c1.4-0.3,2.6,0.1,3.8,0.6c0.8,0.3,1.2,1.2,2,1.3c0.4,0,0.8,0.3,0.9-0.5
						c0-1,0.4-1.4,1.7-0.9c0.3,0.2,0.7,0.4,1.4,0.3c-0.6,0-1-0.1-1.3-0.1c-0.3-0.1-0.6,0-0.9,0.5c0,0.4,0.5,0.1,0.8,0.6
						c0.1,0.3,0.6,0.4,0.6,0.2c0.6-0.9,1.4-0.3,2-0.1c-0.1,0.3-0.5,0.4-0.5,0.9c0.6-0.3,0.9-0.4,1.3,0.1c1.1,0.7,2.4,0.7,3.7,0.7
						c0.4-0.1,1.6,0.1,1.8-0.7c0.3-1,1.2-0.9,1.2-0.9c0.8,0.9,2.4,0.4,3,1.7c0.2,0.1,0.7,0.4,0.6,0.7c-0.2,0.3-0.8,0.4-1.1,0.2
						c-2.6-0.1-5.3,0.5-8-0.1c-0.4,0-0.8,0.7-1.1,0.2c-1.1-1-2.3-0.6-3.5-0.7c-1.3,0.1-2.8,0.2-3.8-0.3c-2-0.9-4.1-0.7-6.2-1.4
						c-0.3-0.2-1.2,0.2-1.3-0.4c0-0.4,0.7,0.4,1.1,0c0,0,0.1,0,0.1-0.2c-0.6-0.7-1.4-0.4-2.3-0.5c0.6,0.5,0.7,0.8-0.1,1.2
						c-0.5,0.2-1.4,0.6-1.6-0.5c-0.1-0.3-0.3-0.2-0.5-0.1c-0.4,0.1-0.8-0.3-1.4-0.4c-1.2-0.7-3-0.4-4.5-0.4c0.4,0.5,0.8,0.3,1.4,0.3
						c0.5-0.2,1.5,0.1,1.6,0.4c0.5,0.9,1.1,1,1.8,1.1c0.1,0,0.3,0.2,0.4,0.5c0.1,0.3-0.2,0.3-0.5,0.4c-0.4,0.1-1.1,0.2-1.5,0.2
						c-0.8-0.2-1.5-0.1-1.9,0.8c1-0.6,1.6,0.4,2.2,0.7c1.6,0.1,3.2,0.2,4.6,1.4c0.2,0.1,0.7,0.4,0.8,0.3c0.6-0.3,1.1-0.2,1.6,0.1
						c0.2,0.1,0.3,0.2,0.4,0.5c0.1,0.3-0.2,0.3-0.4,0.2c-1.8,0.4-3.3,0-4.7-1.1c-1.1-0.7-1.4,0.1-2.2,0.2c0.4,0.5,0.7,0.5,1.2,0.5
						c1,0.3,2.6-0.2,2.9,1.5c0,0,0.1,0,0.3,0.1c0.1-0.3-0.5-0.6,0-0.6c0.2-0.2,0.7,0.4,0.7,0.5c0,0.6,0.5,0.6,0.9,0.5
						c0.7-0.5,1.2-0.2,1.4,0.9c0.4-1.3,1.1-0.7,1.6-0.5c0.8,0.2,1.6,0.4,2.2-0.2c0.4-0.2,0.9,0,1.2,0.2c0.5,0.1,0.9,1,1.6,1
						c1.1-0.2,1.9,0.6,2.9,0.9c-0.5,0.4-0.8,0.4-1.1,0.2c-1.2-0.1-2.3-0.3-3.5-0.6c-0.3-0.1-1,0.1-1-0.3s0.6-0.5,0.6-0.8
						c-0.6,0.5-1.4,0.1-2.2,0.5c0.3,0.2,1,0.1,0.9,0.6c-0.2,0.3-0.6,0.3-0.9,0.4c-1.3-0.1-2.4-0.3-3.7-0.7c-2.2-0.7-4.6-0.4-6.4-1.3
						c0.5,0.1,0.3,1.2,1.1,1.3c1.8-0.1,3.8,0.6,5.6,0.8c0.8,0.2,1.5,0.3,2.3,0.8c-0.2,0.3-0.8,0.2-0.6,0.5c0.6,1-0.4,0.7-0.6,0.5
						c-1.8-1.1-4-1-5.9-1.5c-0.3-0.1-0.5-0.1-0.9,0c-1,0.6-2,0.4-3,0c-0.5-0.1-1.1,0.2-1.2,0.8c-0.5,0.4-0.2,0.8,0.6,1
						c0.3,0.2,0.1,0.4,0,0.9c0,0.4,0.4,0.8,0.7,0.8c0.6,0.2,1.6,1,2.1,0.3c0.7-0.6,0.9-0.5,1.4-0.1c0.7,0.4,1.2,0.8,2.1,0.3
						c0.6-0.3,1-0.1,1.3,0.4c0.3,0.6,0.7,0.8,1.4,0.4c0.1-0.2,0.4-0.1,0.6,0c0.2,0.1-0.1,0.3-0.1,0.5c-0.2,0.2-0.5,0.4-0.3,0.8
						c0.1,0.3,0.5,0.1,0.8,0.3c1.5,0.1,2.7,0.2,3.9,0.6c1.9,0.6,3.9,1,5.9,0.8c0.3-0.1,0.8,0.3,1,0.9c-1.3-0.1-2.3-0.6-3.5,0
						c-0.5-1.3-2.1,0.6-2.7-0.7c-0.9,0.8-1.8,0.1-2.9-0.2c0.1,0.3,0.2,0.2,0.4,0.5c1.9,0.5,3.5,1.4,5.7,1.4c1.7-0.1,3.5,1,5,1.4
						c0.7,0.4,1.2,0.7,2.1,0.3c0.4-0.2,0.9-0.4,1.3,0.1c1.7,1.5,4,0,5.9,0.4c0,0.1,0.3-0.1,0.2-0.2c0.3-0.8,0.7-0.5,1.2-0.2
						c0.2,0.1,0.5,0.1,0.8,0.3c1.9,0,3.8,0.8,5.8,0.9c0.6,0,1.4,0,2.3,0.3c2.2,0.7,4.2,1.1,6.6,0.7c0.9,0,1.7-0.1,2.6-0.2
						c0.9,0,1.6,0.4,2.4,0.3c1.8-0.4,3.7-0.2,5.7,0.1c3.9,0.5,7.8,0.5,11.7,0.5c0.6,0,1.2-0.2,1.7-0.2c0.4,0,0.9,0.7,1.4,0
						c0.1,0,0.3,0.1,0.3,0.2c0.1,0.3-0.1,0.3-0.1,0.5c-0.6,0.3-1.3,0.4-1.8,0.2c-1.9-0.7-3.6,0.5-5.4-0.3c-4.1,0.8-8.3-0.2-12.5-0.1
						c-1.4,0-2.8-0.2-4.2-0.2c-1.1,0-2.6,0.2-3.4,0.1c-3-0.3-6.1-0.1-9.2-0.5c-0.3-0.1-0.8-0.2-1,0.4c1.6,0.1,3,0.3,4.6,0.4
						c3.1,0.3,6.2,0.6,9.4,0.9c0.9,0,1.6-0.3,2.6-0.2c2,0.4,4.1,0.2,6,0.4c1.5,0.1,2.8,0.1,4.1,0.1c0.3-0.1,0.6,0,0.7,0.5
						c0.1,0.3-0.3,0.5-0.7,0.6c-0.3,0.1-0.5,0.2-0.8-0.3c-0.1-0.4-0.5-0.6-0.9-0.5c-1.1,0.2-1.9,0-2.9,0c-0.3,0.1-0.4,0-0.6,0.3
						c-0.2,0.6-0.5,0.7-1,0.1c-0.2-0.4-0.7-0.5-1-0.3c-0.1,0-0.4,0.1-0.4,0.2c0.4,0.9-0.4,0.6-0.7,0.6c-0.4,0-1-0.1-1.6,0
						c-0.9,0-1.7,0.1-2.6-0.4c-0.7-0.5-1.2-0.7-2-0.6c-1.3-0.1-2.7-0.2-3.8-0.3c-3,0-5.9-1-9,0.2c-1.3,0.5-2.8-0.1-4.3,0.1
						c-0.1,0-0.2-0.1-0.3-0.2c-0.1-0.3,0.1-0.3,0.5-0.4c0.3-0.1,0.6,0,0.9,0c0.3-0.1,0.8-0.4,0.4-0.7c-0.6-0.4-1.2-0.7-2-0.3
						c-0.8,0.7-1.7,0.9-2.8,1.3c-0.4,0.1-1.4,0.1-1.5-0.3c-0.2-0.8,0.6-0.8,1.2-0.8c0.1,0,0.3-0.1,0.5-0.4c-1.5-0.1-2.8-1.1-4.6-0.3
						c0.9,0.6,2,0.3,2.7,0.7c-0.8,0.7-1.6,0.3-2.6,0.2c-1.8-0.1-3.4-0.4-5.2-0.5c-0.1,0-0.4,0-0.6-0.4c-0.1-0.4,0.2-0.3,0.5-0.4
						c0.4-0.1,0.5-0.7,0.4-1c-0.1-0.3-0.5-0.1-1-0.1c-0.6,0.3-0.9,0.4-1.4,0.1c-0.3-0.1-0.6,0-1,0.6c0.6,0.2,1.2,0.2,2,0.4
						c-1.2,0.3-2.3,0.7-3.1,0.2c-1.6-0.5-3.5-0.7-5.2-0.9c-0.3-0.1-0.8-0.2-0.9,0.4C598.7,132.9,599.4,132.8,599.7,133z M719.5,96
						c0-0.1,0.1-0.3,0.2-0.3c0.7-2.4,1.6-4.8,3.1-6.8c1.9-2.6,4.3-4.1,7.4-3.3c3.3,0.8,5,2.9,5.8,6.1c0.8,3.8-0.2,7.4-1.9,10.7
						c-1.3,2.5-2.9,4.6-4.7,6.7c-0.7,0.9-1.9,2-2.8,2.8c-7.1,6.8-15.7,11.6-24.7,16.2C710.6,118.6,715.3,107.4,719.5,96z
						 M602.2,105.4c-0.6,0.5-2.9-0.9-3.2-1.5c-0.1-0.3,0-0.4,0.5-0.4c2.1,0.7,4.4,0.2,6.3,1.2C604.5,104.6,603.3,104.7,602.2,105.4z
						 M615.2,109.3c-0.4-0.5-0.7-0.5-1.4-0.3c-0.3,0.1-0.6,0-0.8-0.2c-1.1-0.8-2.5-1.3-4-1.3c-0.6,0-1.6-0.1-2.3-0.3
						c1.2-0.8,2.2-0.8,3.6-0.5c1.4,0.4,2.8,0.1,3.9,0.5c0,0.4-0.6,0.3-0.8,0.7c1.2,0.5,2.4,1.2,3.7,1.7
						C616.5,109.7,615.7,109.6,615.2,109.3z M657.1,125.6c-7.1,1.5-16.6-2-18.1-1.7c1.6-0.3,18.1-0.2,18.8,0.1L657.1,125.6z
						 M623.3,127.6c-0.8-0.3-1.5-1-2.4-1.2c-0.2-0.1-0.3-0.2-0.4,0.1c-0.1,0.3,0.1,0.3,0.1,0.4c0.2,0.1,0.4,0.5,0.4,0.8
						c-0.2,0.3-0.8,0.4-1,0.1c-0.7-0.5-1.3-0.6-2.3-0.6c0.7,0.5,1.4,0.4,1.9,0.7c0.1,0,0.4,0,0.6,0.4c0.1,0.3-0.2,0.3-0.6,0.3
						c-1.1,0-2,0-3.1-0.4c-0.3-0.1-0.8-0.6-1-0.9c-0.6-1.4-2-1.3-3.1-1.6c-0.3-0.2-0.9,0-1.2-0.2c-0.3-0.2-0.6-0.5-0.7-0.8
						c-0.1-0.3,0.2-0.3,0.5-0.4c0.4,0,1-0.1,1,0.3c0.4,0.9,0.8,0.3,1.3,0.4c1.7-0.1,3.4-0.6,5,0.8c0.6,0.4,1.6,0.4,2.3,0.5
						C621.5,125.8,622.6,126.4,623.3,127.6z M628.8,129c0.3,0.2,0.8,0.3,1.3,0.4c-0.9,0.4-1.8,0.4-2.3-0.6c-0.2-0.4-1-0.4-1.4-0.3
						c-0.6,0-1.5-0.1-2-0.6c-0.1,0-0.3-0.2-0.4-0.5c0.1-0.3,0.2-0.3,0.6-0.3c0.4,0,0.5,0.1,0.8,0.3c1.9,0.5,3.9,0,5.5,0.4
						c1,0.3,2.5,0.1,3.4,0.7c0.9,0.6,2.1,0.7,3.1,1.1C634.3,130.3,631.6,128.9,628.8,129z M631,124.8c-0.1,0-0.4,0-0.4,0
						c-0.9-0.7-2.3-0.8-3.4-0.6c-1.5,0.4-2.8,0.2-4.2-0.1c-2.2-0.5-4.4-0.9-6.6-1c-0.8-0.2-1.6-0.4-2.4-0.7
						c-0.2-0.1-0.4-0.5-0.4-0.9c0.2-0.3,0.4-0.2,0.8-0.2c3.1,0.3,6.1,1.7,9.3,1.2c0.3-0.1,0.6,0,1,0.1c4.1,0.7,8.1,1.1,12.2,1.1
						c0.1,0,0.3-0.1,0.3,0.2c-0.1,0.3-0.4,0.2-0.6,0.5c-0.5,0.7-1.2,1.2-1.8,0.4C633.7,125.6,632.2,124.4,631,124.8z M640.1,130.2
						c2.7-0.1,5.5-0.3,8.1,0.4C645.5,131,642.6,131.1,640.1,130.2z M635.6,107c0.6,0,1.3,0.1,2,0.6c-1.8,0.4-3.9,0.6-4.7-0.8
						c0.5-0.4,0.9,0.5,1.5-0.3c-3.2-0.1-6.2-0.1-9.3,0.1c2.2,1.1,2.3,1.1,4.2,0.5c0.9-0.4,1.6,0,2.3,0.8c0.4,0.5,0.2,0.5-0.1,1
						c1.8-0.7,3,0.9,5,0.8c-0.6-0.7-1.3-0.4-1.5-1c0.5-0.2,1.1,0,1.5,0.3c0.2,0.1,0.6,0.4,0.4,0.8c-0.1,0.3-0.4,0.2-0.7,0.5
						c-0.9,0.4-1.5,0.3-2.2-0.5c-0.4-0.5-1.3-0.4-1.8,0.1c0.4,0.5,1,0.1,1.2,0.5c-0.4,0.1-1-0.3-1.6,0.5c-0.2,0.3-1.5,0.3-2-0.3
						c-0.5-0.9-0.9-1-1.5-1.2c-1.8-0.1-3.7-0.2-5.7-0.7c0.2-0.3,0.6,0,0.8-0.4c-0.4,0-1-0.1-1.4-0.3c-2.7-1.4-5.6-0.8-8.5-1.3
						c-0.4,0-0.4,0-1-1c2.9,1,5.6,0.8,8.3,0.9c-0.9-0.7-1.9-0.6-2.8-0.6c-0.4,0-1-0.1-1-0.4c-0.1-0.4,0.6-0.9,1-0.9
						c1,0.3,1.8-0.1,2.9-0.5c1.1-0.6,2.3,0.5,3.4,0.3c2.2-0.4,4.1,0.6,6.2,0.1c0.4-0.1,1,0.3,1.7,0.2c2,0.3,4,0,5.9,0.8
						c0.1,0,0.3,0.2,0.6,0c2.2-0.9,4.3,0,6.4,0c0.4,0,0.6,0,1.2-0.2c1.8-0.7,2.4-0.7,3.8,0.5c-1.2-0.1-2.2,0.5-3,0.5
						c-1.4,0-2.9,0-4.3,0.1c-0.3,0.1-1-0.3-1.1,0.6c0,0.1-1.4,0.3-2-0.3c-0.8-0.6-1.6-0.5-2.5-0.6c-0.4,0.1-1,0.1-1.5-0.1
						c-0.1,0-0.5-0.1-0.4,0.1C634.9,106.9,635.3,106.9,635.6,107z"/>
				</g>
			</g>
		</g>
	</g>
</g>
<polygon class="st4" points="-7.8,-7.6 649.5,-7.6 473.7,168.2 -7.8,168.3 "/>
<g>
	<path class="st3" d="M31.2,97.4V63.7h10.3v33.7H31.2z"/>
	<path class="st3" d="M46.8,97.4V63.7H57v24.8h12.7v8.9H46.8L46.8,97.4z"/>
	<path class="st3" d="M72.9,83.6V63.7h10.4v19.5c0,3.3,2.1,5.8,6.3,5.8c4.2,0,6.3-2.6,6.3-5.8V63.7h10.4v19.8
		c0,8.4-5.3,14.5-16.6,14.5S72.9,91.9,72.9,83.6z"/>
	<path class="st3" d="M109,92.6l5.3-7.6c2.5,2.4,6.3,4.4,10.8,4.4c1.9,0,3.8-0.5,3.8-1.8c0-3.2-18.8,0.1-18.8-13.2
		c0-5.7,4.8-11.1,14-11.1c5.5,0,10.5,1.6,14.3,4.7l-5.5,7.3c-2.9-2.2-6.8-3.4-10-3.4c-2,0-2.6,0.7-2.6,1.5c0,3.2,18.7,0.5,18.7,12.9
		c0,7.5-5.5,11.7-14.5,11.7C117.5,98,112.6,95.9,109,92.6z"/>
	<path class="st3" d="M148.8,97.4V72.6h-9.1v-8.9H168v8.9h-9v24.8C159,97.4,148.8,97.4,148.8,97.4z"/>
	<path class="st3" d="M190.2,97.4l-4.7-10.6h-3.7v10.6h-10.3V63.7h18c7.9,0,12.1,5.3,12.1,11.5c0,5.8-3.4,8.9-6.1,10.3l6.1,11.9
		H190.2z M191.4,75.2c0-1.8-1.6-2.6-3.4-2.6h-6.2v5.3h6.2C189.8,77.9,191.4,77.1,191.4,75.2z"/>
	<path class="st3" d="M228.3,97.4l-1.2-4H215l-1.2,4h-11.5l12.4-33.7h12.8L240,97.4H228.3z M221.1,73.7l-3.4,10.8h6.7L221.1,73.7z"
		/>
	<path class="st3" d="M250.6,105.6l1.6-3.3c1.3,0.9,2.8,1.5,4.2,1.5c1.1,0,2.1-0.4,2.1-1.2c0-0.6-0.4-0.9-1.1-0.9
		c-0.6,0-1,0.3-1.3,0.6l-3-1.7l1.1-2.9c-9.2-1.1-15.8-7.8-15.8-17.2c0-10.5,8-17.4,18.5-17.4c8.9,0,13.3,5.2,15.3,9.8l-8.8,4.1
		c-0.9-2.6-3.5-4.9-6.5-4.9c-4.9,0-8.2,3.8-8.2,8.5s3.3,8.5,8.2,8.5c3,0,5.7-2.3,6.5-4.9l8.8,4.1c-1.9,4.3-6.1,9.4-14.1,9.8
		l-0.7,1.6c0.5-0.3,1.1-0.5,1.7-0.5c1.8,0,3.5,1.5,3.5,3.7c0,2.9-2.7,4.5-6,4.5C254,107.4,251.7,106.5,250.6,105.6z"/>
	<path class="st3" d="M273.6,80.6c0-10.4,8.1-17.4,18.4-17.4s18.4,7.1,18.4,17.4S302.4,98,292,98S273.6,90.9,273.6,80.6z
		 M289.2,58.6c-0.7,0-1.2,0.6-1.2,1.9h-4.5c0-4.7,2.1-6.8,6-6.8c3.1,0,4.2,2.2,5.6,2.2c0.7,0,1.2-0.6,1.2-1.9h4.5
		c0,4.7-2.1,6.8-6,6.8C291.6,60.8,290.5,58.6,289.2,58.6z M300.2,80.6c0-4.7-3.2-8.5-8.1-8.5s-8.1,3.8-8.1,8.5s3.2,8.5,8.1,8.5
		S300.2,85.3,300.2,80.6z"/>
	<path class="st3" d="M314.1,97.4V63.7h25.6v8.9h-15.3V76h15v8.9h-15v3.7h15.3v8.9L314.1,97.4L314.1,97.4L314.1,97.4z"/>
	<path class="st3" d="M341.7,92.6L347,85c2.5,2.4,6.3,4.4,10.8,4.4c1.9,0,3.8-0.5,3.8-1.8c0-3.2-18.8,0.1-18.8-13.2
		c0-5.7,4.8-11.1,14-11.1c5.5,0,10.5,1.6,14.3,4.7l-5.5,7.3c-2.9-2.2-6.8-3.4-10-3.4c-2,0-2.6,0.7-2.6,1.5c0,3.2,18.7,0.5,18.7,12.9
		c0,7.5-5.5,11.7-14.5,11.7C350.1,98,345.3,95.9,341.7,92.6z"/>
</g>
</svg>
