<?xml version="1.0" encoding="utf-8"?>
<!-- Generator: Adobe Illustrator 22.0.1, SVG Export Plug-In . SVG Version: 6.00 Build 0)  -->
<svg version="1.1" id="Camada_1" xmlns="http://www.w3.org/2000/svg" xmlns:xlink="http://www.w3.org/1999/xlink" x="0px" y="0px"
	 viewBox="0 0 903.9 157.9" style="enable-background:new 0 0 903.9 157.9;" xml:space="preserve">
<style type="text/css">
	.st0{fill:#D60D47;}
	.st1{fill:#FFCC00;}
	.st2{fill:#FFFFFF;}
	.st3{clip-path:url(#SVGID_2_);}
	.st4{fill:none;}
</style>
<rect x="0" y="0" class="st0" width="903.8" height="158"/>
<polygon class="st1" points="0,0 373,-0.1 452,78.9 373,158 0,158 "/>
<g>
	<path class="st2" d="M33.4,96V62.1h10.3V96H33.4z"/>
	<path class="st2" d="M49.1,96V62.1h10.3V87h12.8v8.9H49.1V96z"/>
	<path class="st2" d="M75.3,82.1v-20h10.4v19.6c0,3.3,2.1,5.8,6.3,5.8s6.3-2.6,6.3-5.8V62.1h10.4V82c0,8.4-5.3,14.6-16.7,14.6
		S75.3,90.5,75.3,82.1z"/>
	<path class="st2" d="M111.6,91.2l5.3-7.6c2.5,2.4,6.3,4.4,10.9,4.4c1.9,0,3.8-0.5,3.8-1.8c0-3.2-18.9,0.1-18.9-13.3
		c0-5.7,4.8-11.2,14.1-11.2c5.5,0,10.5,1.6,14.4,4.7l-5.5,7.3c-2.9-2.2-6.8-3.4-10-3.4c-2,0-2.6,0.7-2.6,1.5c0,3.2,18.8,0.5,18.8,13
		c0,7.5-5.5,11.8-14.6,11.8C120.2,96.6,115.2,94.5,111.6,91.2z"/>
	<path class="st2" d="M151.6,96V71.1h-9.1v-8.9h28.4v8.9h-9V96H151.6z"/>
	<path class="st2" d="M193.2,96l-4.7-10.7h-3.7V96h-10.3V62.1h18.1c7.9,0,12.2,5.3,12.2,11.6c0,5.8-3.4,8.9-6.1,10.3l6.1,12H193.2z
		 M194.4,73.7c0-1.8-1.6-2.6-3.4-2.6h-6.2v5.3h6.2C192.8,76.4,194.4,75.6,194.4,73.7z"/>
	<path class="st2" d="M231.5,96l-1.2-4h-12.2l-1.2,4h-11.6l12.5-33.9h12.9L243.2,96H231.5z M224.2,72.2l-3.4,10.9h6.7L224.2,72.2z"
		/>
	<path class="st2" d="M253.9,104.2l1.6-3.3c1.3,0.9,2.8,1.5,4.2,1.5c1.1,0,2.1-0.4,2.1-1.2c0-0.6-0.4-0.9-1.1-0.9
		c-0.6,0-1,0.3-1.3,0.6l-3-1.7l1.1-2.9c-9.2-1.1-15.9-7.8-15.9-17.3c0-10.5,8-17.5,18.6-17.5c8.9,0,13.4,5.2,15.4,9.8l-8.8,4.1
		c-0.9-2.6-3.5-4.9-6.5-4.9c-4.9,0-8.2,3.8-8.2,8.5s3.3,8.5,8.2,8.5c3,0,5.7-2.3,6.5-4.9l8.8,4.1c-1.9,4.3-6.1,9.4-14.2,9.8
		l-0.7,1.6c0.5-0.3,1.1-0.5,1.7-0.5c1.8,0,3.5,1.5,3.5,3.7c0,2.9-2.7,4.5-6,4.5C257.3,106,255,105.1,253.9,104.2z"/>
	<path class="st2" d="M277,79.1c0-10.4,8.1-17.5,18.5-17.5S314,68.7,314,79.1s-8.1,17.5-18.5,17.5S277,89.5,277,79.1z M292.7,57
		c-0.7,0-1.2,0.6-1.2,1.9H287c0-4.7,2.1-6.8,6-6.8c3.1,0,4.2,2.2,5.6,2.2c0.7,0,1.2-0.6,1.2-1.9h4.5c0,4.7-2.1,6.8-6,6.8
		C295.1,59.2,294,57,292.7,57z M303.7,79.1c0-4.7-3.2-8.5-8.1-8.5s-8.1,3.8-8.1,8.5s3.2,8.5,8.1,8.5S303.7,83.8,303.7,79.1z"/>
	<path class="st2" d="M317.7,96V62.1h25.7V71H328v3.4h15.1v8.9H328V87h15.4v8.9h-25.7V96z"/>
	<path class="st2" d="M345.4,91.2l5.3-7.6c2.5,2.4,6.3,4.4,10.9,4.4c1.9,0,3.8-0.5,3.8-1.8c0-3.2-18.9,0.1-18.9-13.3
		c0-5.7,4.8-11.2,14.1-11.2c5.5,0,10.5,1.6,14.4,4.7l-5.5,7.3c-2.9-2.2-6.8-3.4-10-3.4c-2,0-2.6,0.7-2.6,1.5c0,3.2,18.8,0.5,18.8,13
		c0,7.5-5.5,11.8-14.6,11.8C353.9,96.6,349,94.5,345.4,91.2z"/>
</g>
<g>
	<defs>
		<rect id="SVGID_1_" x="625.9" y="0" width="278" height="158"/>
	</defs>
	<clipPath id="SVGID_2_">
		<use xlink:href="#SVGID_1_"  style="overflow:visible;"/>
	</clipPath>
	<g id="Ilustrações2" class="st3">
		<g>
			<path class="st4" d="M712.4,117.7c-0.5-0.5-1.3-0.6-2-0.9c-1-0.5-2.3-0.5-3.4-1c-0.2-0.1-0.3-0.2-0.5-0.3c-0.1,0-0.3-0.1-0.4,0.1
				c0,0.1,0.1,0.2,0.2,0.3c0.4,0.3,0.8,0.5,1.2,0.6c0.3,0,0.8,0.1,0.8,0.4c0.2,0.8,0.8,0.7,1.4,0.7c-0.2-0.2-0.5-0.3-0.7-0.4
				c1.8,0.2,3.3,1.5,5.1,1.6C713.6,118.4,713,118.1,712.4,117.7z"/>
			<path class="st4" d="M693.7,97.3c0.1,0.5,1.4,1.6,1.8,1.4c0.8-0.3,1.5-0.2,2.3,0c-1.1-0.9-2.6-0.9-3.8-1.6
				C693.8,97,693.7,97.1,693.7,97.3z"/>
			<path class="st4" d="M720.9,120.5c-1.6-0.7-3.3-1-5-1.3C717.4,120.1,719.2,120.4,720.9,120.5z"/>
			<path class="st4" d="M698.9,112.7c0.6,0.3,1.6,0.4,1.7,1.4c0.1,0.2,0.3,0.7,0.5,0.7c0.6,0.3,1.2,0.6,1.9,0.7c0.2,0,0.3,0,0.4-0.1
				c0-0.2-0.2-0.3-0.3-0.3c-0.3-0.2-0.8-0.4-1.1-0.7c0.6,0.1,1.1,0.3,1.4,0.7c0.1,0.1,0.4,0.3,0.6,0c0.2-0.2,0.1-0.3-0.1-0.5
				c0-0.1-0.2-0.2,0-0.3c0.1-0.1,0.2,0,0.3,0c0.5,0.3,0.9,0.8,1.3,1.1c-0.3-0.9-0.8-1.4-1.7-1.4c-0.4,0-1.1-0.2-1.4-0.6
				c-0.9-0.9-1.9-0.9-3-1.2c-0.3-0.1-0.7,0.2-0.7-0.4c0-0.2-0.4-0.3-0.6-0.3c-0.1,0-0.2,0-0.3,0.2c-0.1,0.3,0.1,0.5,0.3,0.6
				C698.5,112.6,698.7,112.6,698.9,112.7z"/>
			<path class="st4" d="M702,111.6c1.4,0.4,2.7,1,4,1.5c0.8,0.4,1.6,0.6,2.6,0.6c0.6-0.1,1.4,0.1,2,0.8c0,0.1,0.2,0.1,0.3,0.1
				c0.8,0,1.6,1,2.5,0.5c0.4,0.7,0.8,0.5,1.2,0c0.1-0.1,0.3,0,0.4-0.2c-0.1-0.1-0.1-0.1-0.2-0.2c-2.6-0.5-5-1.4-7.5-2.3
				c-0.2-0.1-0.4-0.2-0.6-0.2c-2.1-0.1-3.8-1.4-5.7-2c-0.2-0.1-0.4-0.2-0.5,0c-0.1,0.2-0.1,0.4,0.1,0.6
				C701.1,111.1,701.6,111.5,702,111.6z"/>
			<path class="st4" d="M702.3,101.7c0.2-0.2,0.4,0,0.6-0.3c-0.8-0.4-1.7-0.4-2.4-0.8c-0.7-0.4-1.4-0.6-2.3-0.2
				c0.5,0.2,0.9,0.4,1.4,0.5c0.9,0.2,1.7,0.6,2.3,1.3c0.1,0.1,0.3,0.2,0.5,0.2c0.4-0.1,0.6,0.2,0.8,0.4c0.3,0.4,0.8,0.5,1.2,0.5
				C703.7,102.8,703,102.2,702.3,101.7z"/>
			<g>
				<path class="st2" d="M838.1,68.4c1,1.9,1.5,1.4,2.6,0.3c7.3-7.7,13.9-16,20.3-24.4c15.2-19.7,30.1-39.6,44.7-59.8
					c5.1-7,10.8-13.7,13.6-22.2c0-0.7,0-1.3,0.1-2c-1.4-2.6-2.6-3-5.3-2.1c-2.1,0.7-3.9,1.9-5.5,3.4c-3.3,2.9-6.6,5.9-9.7,9
					C874-5,849.6,19.8,825.2,44.5c-1.9,1.9-3.8,3.9-5.8,5.9c1.7,0.8,3.3,1.3,4.7,2.2C830.1,56.6,834.8,61.9,838.1,68.4z"/>
				<path class="st2" d="M795.9,105.8c1.3-1,2.4-1.8,3.5-2.7c9.9-7.5,19.8-15,29.6-22.4c0.9-0.7,1.9-1.5,1.9-2.6
					c0.1-1.7,1.1-2.3,2.5-2.7c0.8-0.2,1.4-0.6,2.2-0.8c1.6-0.4,1.7-1.2,1-2.5c-2.8-5.4-6.4-10.3-10.9-14.4c-2.1-1.9-4.4-3.3-7-4.3
					c-3.2-1.3-3.2-1.2-4.4,2c-0.6,1.6-0.6,3.3-2,4.4c-1.4,1.1-2.4,2.4-3.5,3.8c-3,4-5.9,7.9-8.9,11.9c-4.8,6.4-9.6,12.7-14.5,19
					c-0.6,0.7-1.1,1.3,0.3,1.8C790.2,98.2,793.6,101.4,795.9,105.8z M791.9,92.6c0.6-1,1.3-2,2-3c5.9-7.8,12.5-14.8,18.5-22.4
					c0.5-0.7,1.1-1.1,2.3-1c0.7,0.1,1.5,0.7,1.9,1.6c0.5,0.9,0.1,1.6-0.5,2.3c-6.6,7.6-13.1,15.3-19.7,22.9
					c-0.6,0.7-1.4,1.4-2.3,1.8c-0.8,0.4-1.5,0.4-2.2-0.3C791.4,94,791.4,93.4,791.9,92.6z"/>
				<path class="st2" d="M690.3,115.6c1,0.3,1.8,1,2.7,1.4c2.5,1.2,5,2.2,7.6,3.1c2.2,0.8,4.5,1.5,6.7,2.3c3.5,1.2,7.1,2,10.7,3
					c3,0.8,6,1.6,9,2.2c2.1,0.4,4,1.1,6.1,1.7c1.3,0.3,2.6,0.3,3.9,0.7c3.2,0.8,6.5,1.3,9.8,1.8c2,0.3,3.9,0.7,6,1
					c2.7,0.4,5.5,0.6,8.3,0.5c1.8-0.1,3.6-0.5,5.3-0.5c1.3,0,2.5-0.1,3.7-0.3c1.3-0.1,2.5-0.1,3.7-0.2c7-0.8,13-3.3,17.4-9
					c2.7-3.5,4-7.3,2.8-11.7c-1.4-4.9-4.1-8.8-8.5-11.4c-5.7-3.4-14.7-3.4-19.4,3.3c-0.9,1.2-1.8,2.4-2.7,3.6c-1-0.1-2-0.2-3-0.3
					c-3.4-0.4-6.8-0.6-10.3-1.1c-3-0.4-5.9-0.9-8.9-1.4c-2.3-0.5-4.6-0.9-6.8-1.5c-3.8-1.1-7.5-2-11.3-2.9c-1.4-0.3-2.8-0.2-4.1-0.5
					c-0.8-0.2-1.6-0.4-2.4-0.3c-1.5,0.1-3-0.1-4.5-0.5c-0.2-0.1-0.4-0.1-0.6-0.1c-1-0.1-2.2-0.2-3.3-0.4c-0.4-0.1-0.8-0.4-1.4-0.5
					c-0.9,0-1.9,0-2.8-0.3c-3.6-0.9-7.3-1.4-10.9-2.6c-1.6-0.6-3.2-0.8-4.8-1.1c0,0,0,0.1-0.1,0.1c0.6,0.4,1.1,0.7,1.8,0.9
					c-1.2,0.1-2.3-0.2-3.4-0.4c-0.2,0-0.6-0.2-0.7,0.2c-0.1,0.3,0.3,0.3,0.5,0.4c0.6,0.3,1.5,0.4,1.9,1.1c-0.2,0.2-0.5-0.2-0.6,0.2
					c0,0.1,0.1,0.1,0.1,0.2c0.4,0.3,0.9,0.5,1.3,0.7c0.3,0.1,0.5,0.7,1,0.2c0.1,0,0.5,0.2,0.8,0.4c-0.1,0.3-0.5-0.1-0.6,0.3
					c0,0.4,0.4,0.1,0.5,0.2c0.2,0.1,0.4,0.2,0.6,0.4c0,0.1,0.1,0.1,0.2,0c0-0.2-0.4-0.3-0.1-0.6c0.8,0.6,1.8,0.8,2.3,1.9
					c-0.2,0-0.4,0.1-0.6,0.1c0.6,0.7,1.1,1.5,2.2,1.5c0.1,0,0.2,0.1,0.2,0.2c0.1,0.5,0.5,0.5,1,0.6c0-0.2-0.4-0.2-0.3-0.5
					c0-0.4,0-0.4-0.3-0.5c-0.5-0.1-1.1-0.1-1.5-0.4c-0.3-0.2-0.8-0.4,0-0.7c0.2-0.1,0-0.2,0-0.2c-0.1-0.1-0.3-0.1-0.1-0.4
					c0.1-0.1,0.3-0.1,0.4,0c0.3,0.2,0.7,0.4,0.4,0.9c-0.1,0.2,0.1,0.3,0.3,0.3c0.9,0,1.6,0.4,2.3,0.9c0.5,0.3,0.6,0.9,1.1,1.1
					c0.3,0.1,0.5,0.3,0.6-0.2c0.1-0.6,0.5-0.8,1.2-0.4c0.2,0.2,0.4,0.3,0.8,0.4c-0.4-0.1-0.6-0.2-0.8-0.2c-0.2-0.1-0.4-0.1-0.6,0.2
					c-0.1,0.3,0.3,0.2,0.4,0.5c0,0.2,0.3,0.3,0.4,0.2c0.5-0.5,0.9,0,1.3,0.2c-0.1,0.2-0.3,0.2-0.4,0.5c0.4-0.1,0.6-0.1,0.8,0.2
					c0.6,0.6,1.4,0.8,2.2,0.9c0.3,0,1,0.3,1.2-0.2c0.3-0.6,0.9-0.4,0.9-0.4c0.4,0.7,1.5,0.6,1.6,1.5c0.1,0.1,0.4,0.3,0.3,0.5
					c-0.2,0.2-0.5,0.1-0.7,0c-1.6-0.4-3.4-0.4-5-1.1c-0.3-0.1-0.6,0.3-0.7,0c-0.6-0.8-1.4-0.7-2.1-0.9c-0.8-0.1-1.8-0.2-2.4-0.7
					c-1.1-0.8-2.5-1-3.7-1.7c-0.2-0.2-0.8,0-0.7-0.4c0.1-0.3,0.4,0.3,0.7,0.1c0,0,0.1,0,0.1-0.1c-0.3-0.5-0.8-0.5-1.4-0.6
					c0.3,0.4,0.3,0.6-0.2,0.7c-0.4,0-1,0.2-0.9-0.6c0-0.2-0.2-0.2-0.3-0.2c-0.3,0-0.5-0.3-0.8-0.5c-0.7-0.6-1.8-0.7-2.7-0.9
					c0.2,0.3,0.5,0.3,0.8,0.4c0.4,0,0.9,0.3,0.9,0.5c0.2,0.6,0.6,0.8,1,0.9c0.1,0,0.2,0.2,0.2,0.3c0,0.2-0.2,0.2-0.3,0.2
					c-0.3,0-0.7,0-1-0.1c-0.5-0.2-0.9-0.3-1.3,0.3c0.7-0.2,0.9,0.5,1.3,0.7c1,0.3,2,0.6,2.7,1.5c0.1,0.1,0.4,0.3,0.5,0.3
					c0.4-0.1,0.7,0,1,0.3c0.1,0.1,0.2,0.2,0.2,0.3c0,0.2-0.2,0.2-0.3,0.1c-1.2,0-2.1-0.5-2.8-1.3c-0.6-0.6-0.9-0.1-1.4-0.2
					c0.2,0.3,0.4,0.4,0.7,0.5c0.6,0.3,1.6,0.2,1.6,1.3c0,0,0.1,0,0.2,0.1c0.1-0.2-0.2-0.4,0.1-0.4c0.2-0.1,0.4,0.3,0.4,0.4
					c-0.1,0.4,0.2,0.4,0.5,0.4c0.5-0.2,0.8,0,0.8,0.7c0.4-0.7,0.8-0.3,1.1-0.1c0.5,0.2,0.9,0.5,1.4,0.2c0.3-0.1,0.5,0.1,0.7,0.3
					c0.3,0.2,0.4,0.8,0.9,0.8c0.7,0,1.1,0.6,1.7,0.9c-0.3,0.2-0.5,0.1-0.7,0c-0.7-0.2-1.4-0.5-2.1-0.8c-0.2-0.1-0.6,0-0.6-0.3
					c0-0.3,0.4-0.2,0.5-0.4c-0.4,0.2-0.9-0.1-1.4,0c0.2,0.2,0.6,0.2,0.5,0.5c-0.2,0.2-0.4,0.1-0.6,0.1c-0.8-0.2-1.5-0.5-2.2-0.9
					c-1.3-0.7-2.8-0.9-3.9-1.7c0.3,0.2,0.1,0.8,0.5,0.9c1.2,0.2,2.3,0.9,3.4,1.3c0.5,0.2,0.9,0.4,1.3,0.8c-0.2,0.2-0.5,0-0.4,0.2
					c0.2,0.7-0.3,0.4-0.4,0.2c-1-0.9-2.4-1.2-3.5-1.7c-0.2-0.1-0.3-0.2-0.5-0.1c-0.7,0.2-1.3,0-1.9-0.4c-0.3-0.2-0.7,0-0.9,0.3
					c-0.3,0.2-0.2,0.5,0.2,0.7c0.2,0.2,0,0.3-0.1,0.5c-0.1,0.3,0.1,0.5,0.3,0.6c0.4,0.2,0.9,0.8,1.3,0.4c0.5-0.3,0.6-0.2,0.9,0.1
					c0.4,0.3,0.7,0.7,1.3,0.4c0.4-0.1,0.6,0,0.7,0.4s0.3,0.6,0.8,0.5c0.1-0.1,0.3,0,0.4,0.1c0.1,0.1-0.1,0.2-0.2,0.3
					c-0.2,0.1-0.3,0.2-0.3,0.5c0,0.2,0.3,0.2,0.5,0.3c0.9,0.3,1.6,0.5,2.4,0.9c1.1,0.6,2.3,1.2,3.6,1.2c0.2,0,0.5,0.3,0.5,0.7
					c-0.8-0.2-1.4-0.7-2.2-0.5c-0.2-0.9-1.4,0.1-1.6-0.8c-0.7,0.4-1.2-0.2-1.8-0.5c0,0.2,0.1,0.2,0.2,0.3c1.1,0.5,2,1.4,3.4,1.6
					c1.1,0.2,2,1.1,3,1.6c0.4,0.3,0.7,0.6,1.3,0.4c0.3-0.1,0.6-0.1,0.8,0.2c0.9,1.2,2.5,0.5,3.6,1.1c0,0.1,0.2,0,0.2-0.1
					c0.3-0.5,0.5-0.2,0.8,0c0.1,0.1,0.3,0.2,0.5,0.3c1.2,0.3,2.3,1,3.5,1.3c0.4,0.1,0.9,0.2,1.4,0.5c1.3,0.7,2.5,1.2,4,1.3
					c0.5,0.1,1.1,0.2,1.6,0.2c0.5,0.1,0.9,0.5,1.5,0.5c1.2,0,2.3,0.4,3.5,0.8c2.4,0.8,4.8,1.3,7.3,1.9c0.4,0.1,0.8,0,1.1,0.1
					c0.3,0.1,0.5,0.6,0.9,0.2c0.1,0,0.2,0.1,0.2,0.2c0,0.2-0.1,0.2-0.2,0.3c-0.4,0.1-0.9,0.1-1.2-0.1c-1.1-0.7-2.3-0.2-3.4-0.9
					c-2.7-0.1-5.2-1.2-7.8-1.7c-0.9-0.2-1.7-0.5-2.6-0.7c-0.7-0.1-1.6-0.2-2.2-0.4c-1.8-0.6-3.8-0.9-5.7-1.5
					c-0.2-0.1-0.5-0.2-0.7,0.1c1,0.3,1.8,0.6,2.8,0.9c1.9,0.6,3.8,1.2,5.7,1.8c0.5,0.1,1.1,0,1.6,0.2c1.2,0.5,2.5,0.7,3.7,1.1
					c0.9,0.3,1.7,0.4,2.5,0.6c0.2,0,0.4,0.1,0.4,0.4c0,0.2-0.2,0.3-0.5,0.3c-0.2,0-0.4,0-0.5-0.3c0-0.3-0.2-0.4-0.5-0.4
					c-0.7,0-1.2-0.3-1.8-0.4c-0.2,0-0.3-0.1-0.4,0.1c-0.2,0.4-0.4,0.4-0.6,0c-0.1-0.3-0.4-0.4-0.6-0.3c-0.1,0-0.3,0-0.3,0.1
					c0.1,0.6-0.3,0.3-0.5,0.3c-0.3-0.1-0.6-0.2-1-0.2c-0.5-0.1-1.1-0.2-1.6-0.6c-0.4-0.4-0.7-0.6-1.2-0.6c-0.8-0.2-1.6-0.5-2.4-0.7
					c-1.9-0.4-3.6-1.4-5.7-1.1c-0.9,0.2-1.7-0.4-2.7-0.5c-0.1,0-0.1-0.1-0.2-0.2c0-0.2,0.1-0.2,0.3-0.2c0.2,0,0.4,0.1,0.5,0.1
					c0.2,0,0.5-0.1,0.3-0.4c-0.3-0.3-0.7-0.6-1.2-0.4c-0.6,0.3-1.2,0.4-1.9,0.4c-0.3,0-0.9-0.1-0.9-0.4c0-0.5,0.5-0.4,0.9-0.3
					c0.1,0,0.2,0,0.3-0.2c-0.9-0.3-1.6-1-2.8-0.8c0.5,0.5,1.2,0.4,1.6,0.8c-0.6,0.3-1.1,0-1.6-0.2c-1.1-0.3-2.1-0.7-3.2-1
					c-0.1,0-0.3-0.1-0.3-0.3c0-0.2,0.2-0.2,0.3-0.2c0.3,0,0.4-0.4,0.4-0.6c0-0.2-0.3-0.2-0.6-0.2c-0.4,0.1-0.6,0.1-0.9-0.1
					c-0.2-0.1-0.4-0.1-0.7,0.2c0.4,0.2,0.7,0.3,1.2,0.5c-0.8,0.1-1.5,0.1-2-0.3c-0.9-0.6-2.1-0.9-3.1-1.3c-0.2-0.1-0.5-0.2-0.6,0.1
					C689.7,115.4,690.1,115.5,690.3,115.6z M770.2,108.3c0-0.1,0.1-0.2,0.2-0.2c0.8-1.4,1.7-2.8,2.8-3.9c1.5-1.4,3.2-2,5.1-1.1
					c1.9,0.9,2.8,2.5,2.8,4.6c0,2.5-1.1,4.6-2.6,6.4c-1.1,1.4-2.4,2.5-3.8,3.6c-0.6,0.5-1.4,1-2.1,1.4c-5.4,3.3-11.4,5.2-17.6,6.8
					C761.6,121.3,766.1,115,770.2,108.3z M695.5,98.7c-0.4,0.2-1.7-0.9-1.8-1.4c0-0.2,0.1-0.3,0.3-0.2c1.2,0.7,2.7,0.7,3.8,1.6
					C697,98.5,696.3,98.4,695.5,98.7z M703.1,102.8c-0.2-0.3-0.4-0.4-0.8-0.4c-0.2,0-0.4-0.1-0.5-0.2c-0.6-0.7-1.4-1.1-2.3-1.3
					c-0.4-0.1-1-0.3-1.4-0.5c0.9-0.3,1.5-0.2,2.3,0.2c0.8,0.5,1.7,0.4,2.4,0.8c-0.1,0.3-0.4,0.1-0.6,0.3c0.7,0.5,1.3,1.1,2.1,1.5
					C703.9,103.2,703.4,103.1,703.1,102.8z M727.2,118.6c-4.6,0-10.1-3.4-11.1-3.4c1.1,0,11.4,2.3,11.8,2.6L727.2,118.6z
					 M705.8,115.4c-0.5-0.3-0.8-0.8-1.3-1.1c-0.1-0.1-0.2-0.2-0.3,0s0,0.2,0,0.3c0.1,0.1,0.2,0.3,0.1,0.5c-0.2,0.2-0.5,0.1-0.6,0
					c-0.4-0.4-0.8-0.6-1.4-0.7c0.4,0.4,0.8,0.5,1.1,0.7c0.1,0,0.3,0.1,0.3,0.3c0,0.2-0.2,0.2-0.4,0.1c-0.7-0.1-1.3-0.3-1.9-0.7
					c-0.2-0.1-0.4-0.5-0.5-0.7c-0.2-1-1.1-1.1-1.7-1.4c-0.2-0.2-0.5-0.1-0.7-0.3s-0.3-0.4-0.3-0.6c0-0.2,0.2-0.2,0.3-0.2
					c0.3,0.1,0.6,0,0.6,0.3c0.1,0.6,0.5,0.3,0.7,0.4c1.1,0.2,2.2,0.1,3,1.2c0.3,0.3,0.9,0.5,1.4,0.6
					C704.9,114,705.5,114.5,705.8,115.4z M709,117c0.2,0.2,0.5,0.3,0.7,0.4c-0.6,0.1-1.2,0-1.4-0.7c-0.1-0.3-0.6-0.4-0.8-0.4
					c-0.4-0.1-0.9-0.3-1.2-0.6c-0.1,0-0.2-0.2-0.2-0.3c0.1-0.2,0.2-0.2,0.4-0.1c0.2,0.1,0.3,0.2,0.5,0.3c1.1,0.5,2.4,0.5,3.4,1
					c0.6,0.3,1.5,0.4,2,0.9c0.5,0.5,1.2,0.7,1.8,1.1C712.3,118.5,710.8,117.3,709,117z M711,114.6c-0.1,0-0.3-0.1-0.3-0.1
					c-0.5-0.6-1.3-0.8-2-0.8c-1,0.1-1.8-0.2-2.6-0.6c-1.3-0.6-2.7-1.1-4-1.5c-0.5-0.2-0.9-0.5-1.4-0.8c-0.1-0.1-0.2-0.3-0.1-0.6
					c0.2-0.2,0.3-0.1,0.5,0c1.9,0.6,3.6,1.9,5.7,2c0.2,0,0.4,0.1,0.6,0.2c2.5,1,4.9,1.8,7.5,2.3c0.1,0,0.2,0,0.2,0.2
					c-0.1,0.2-0.3,0.1-0.4,0.2c-0.4,0.4-0.9,0.6-1.2,0C712.5,115.5,711.8,114.6,711,114.6z M715.9,119.2c1.7,0.3,3.5,0.5,5,1.3
					C719.2,120.4,717.4,120.1,715.9,119.2z M716.2,104.1c0.4,0.1,0.8,0.2,1.2,0.6c-1.2,0-2.5-0.2-2.8-1.1c0.3-0.2,0.5,0.4,1,0
					c-2-0.5-3.9-0.9-5.9-1.2c1.2,1,1.3,1,2.6,0.9c0.6-0.1,1,0.2,1.3,0.8c0.2,0.3,0,0.4-0.2,0.6c1.2-0.2,1.8,0.9,3,1.2
					c-0.3-0.5-0.7-0.4-0.8-0.8c0.4,0,0.7,0.1,0.9,0.4c0.1,0.1,0.3,0.3,0.1,0.5c-0.1,0.2-0.3,0.1-0.5,0.2c-0.6,0.1-1,0-1.3-0.6
					c-0.2-0.3-0.7-0.4-1.2-0.2c0.2,0.3,0.6,0.2,0.7,0.5c-0.3,0-0.6-0.3-1.1,0.1c-0.2,0.2-1,0-1.2-0.4c-0.2-0.6-0.4-0.8-0.8-0.9
					c-1.1-0.3-2.3-0.6-3.5-1.2c0.2-0.2,0.4,0.1,0.5-0.1c-0.3-0.1-0.6-0.2-0.8-0.4c-1.5-1.2-3.4-1.3-5.1-1.9
					c-0.3-0.1-0.3-0.1-0.5-0.8c1.7,1,3.4,1.3,5.1,1.7c-0.5-0.6-1.1-0.6-1.7-0.8c-0.3-0.1-0.6-0.2-0.6-0.4c0-0.3,0.5-0.5,0.8-0.4
					c0.6,0.3,1.2,0.2,1.9,0c0.8-0.2,1.4,0.6,2.1,0.6c1.4,0.1,2.5,0.9,3.9,0.9c0.3,0,0.6,0.3,1,0.4c1.2,0.4,2.5,0.5,3.6,1.2
					c0.1,0,0.2,0.2,0.4,0.1c1.5-0.3,2.7,0.6,4,0.9c0.3,0.1,0.4,0.1,0.8,0c1.2-0.2,1.6-0.1,2.3,0.8c-0.7-0.2-1.4,0-2-0.1
					c-0.9-0.2-1.8-0.4-2.7-0.5c-0.2,0-0.6-0.3-0.8,0.2c0,0.1-0.9,0-1.2-0.4c-0.4-0.5-0.9-0.6-1.5-0.7c-0.3,0-0.6,0-0.9-0.3
					c-0.1,0-0.3-0.2-0.3,0C715.8,103.9,716,104,716.2,104.1z"/>
			</g>
		</g>
	</g>
</g>
</svg>
