<?xml version="1.0" encoding="utf-8"?>
<!-- Generator: Adobe Illustrator 22.0.1, SVG Export Plug-In . SVG Version: 6.00 Build 0)  -->
<svg version="1.1" id="Camada_1" xmlns="http://www.w3.org/2000/svg" xmlns:xlink="http://www.w3.org/1999/xlink" x="0px" y="0px"
	 viewBox="0 0 900.9 157.9" style="enable-background:new 0 0 900.9 157.9;" xml:space="preserve">
<style type="text/css">
	.st0{fill:#D60D47;}
	.st1{clip-path:url(#SVGID_2_);}
	.st2{fill:none;}
	.st3{fill:#FFFFFF;}
	.st4{fill:none;stroke:#000000;stroke-miterlimit:10;}
	.st5{fill:#56B7E0;}
</style>
<polygon class="st0" points="732.4,168 422.8,168 598.5,-7.7 908.6,-7.7 "/>
<g>
	<defs>
		<polygon id="SVGID_1_" points="590.7,0.4 900,0.8 742.4,158.3 432.4,158.3 		"/>
	</defs>
	<clipPath id="SVGID_2_">
		<use xlink:href="#SVGID_1_"  style="overflow:visible;"/>
	</clipPath>
	<g id="Ilustrações2_1_" class="st1">
		<g>
			<path class="st2" d="M759.9,108c0.5-0.6,1.4-0.8,2.2-1.2c1.1-0.6,2.5-0.8,3.7-1.4c0.2-0.1,0.3-0.2,0.5-0.4c0.1,0,0.3-0.1,0.5,0.1
				c0,0.1-0.1,0.2-0.2,0.4c-0.4,0.4-0.9,0.6-1.3,0.8c-0.3,0-0.9,0.2-0.9,0.5c-0.2,0.9-0.8,0.9-1.5,0.9c0.2-0.2,0.5-0.4,0.8-0.5
				c-2,0.4-3.6,2-5.6,2.2C758.7,108.9,759.3,108.5,759.9,108z"/>
			<path class="st2" d="M779.3,83.5c-0.1,0.6-1.4,1.9-1.9,1.7c-0.9-0.3-1.7-0.1-2.6,0.2c1.2-1.1,2.8-1.2,4.1-2.1
				C779.1,83.2,779.2,83.3,779.3,83.5z"/>
			<path class="st2" d="M750.6,111.8c1.7-0.9,3.6-1.4,5.5-1.9C754.5,111.1,752.5,111.6,750.6,111.8z"/>
			<path class="st2" d="M774.7,101.2c-0.6,0.4-1.8,0.6-1.8,1.7c-0.1,0.2-0.3,0.8-0.5,0.8c-0.6,0.4-1.3,0.8-2.1,0.9
				c-0.2,0-0.3,0-0.5-0.1c0-0.2,0.2-0.4,0.3-0.4c0.3-0.2,0.9-0.5,1.2-0.9c-0.7,0.2-1.2,0.4-1.5,0.9c-0.1,0.1-0.4,0.4-0.7,0.1
				c-0.2-0.2-0.1-0.3,0.1-0.6c0-0.1,0.2-0.2,0-0.3c-0.1-0.1-0.2,0-0.3,0c-0.5,0.4-0.9,1-1.4,1.3c0.3-1,0.8-1.6,1.8-1.7
				c0.4,0,1.2-0.3,1.5-0.8c0.9-1.1,2.1-1.2,3.3-1.6c0.3-0.1,0.8,0.2,0.8-0.5c0-0.2,0.4-0.4,0.6-0.4c0.1,0,0.2,0,0.4,0.2
				c0.1,0.3-0.1,0.6-0.3,0.7C775.1,101.1,774.9,101.1,774.7,101.2z"/>
			<path class="st2" d="M771.1,100.3c-1.5,0.6-3,1.4-4.4,2c-0.9,0.5-1.7,0.8-2.9,0.9c-0.7-0.1-1.6,0.2-2.2,1.1
				c0,0.1-0.2,0.1-0.3,0.1c-0.9,0.1-1.7,1.3-2.8,0.8c-0.4,0.8-0.9,0.6-1.3,0.1c-0.1-0.1-0.3,0-0.5-0.2c0.1-0.1,0.1-0.1,0.2-0.2
				c2.9-0.8,5.5-2,8.2-3.2c0.2-0.1,0.4-0.3,0.7-0.3c2.4-0.3,4.2-1.9,6.2-2.7c0.2-0.1,0.4-0.3,0.6,0c0.1,0.2,0.1,0.4-0.1,0.7
				C772.1,99.6,771.6,100.1,771.1,100.3z"/>
			<path class="st2" d="M770,89.2c-0.2-0.2-0.4,0-0.7-0.3c0.9-0.5,1.9-0.6,2.6-1.1c0.8-0.5,1.5-0.8,2.6-0.4c-0.5,0.3-1,0.5-1.5,0.7
				c-1,0.3-1.9,0.8-2.5,1.7c-0.1,0.1-0.3,0.2-0.5,0.3c-0.5-0.1-0.7,0.3-0.9,0.5c-0.3,0.5-0.9,0.6-1.3,0.7
				C768.5,90.5,769.2,89.8,770,89.2z"/>
			<g>
				<path class="st3" d="M614.5,63.1c-1,2.2-1.6,1.7-2.9,0.6c-8.9-8-17-16.8-24.9-25.7C568,17.1,549.6-4,531.5-25.5
					c-6.3-7.4-13.3-14.5-17.1-23.8c-0.1-0.8-0.1-1.5-0.3-2.2c1.4-3,2.7-3.6,5.8-2.8c2.4,0.6,4.5,1.8,6.5,3.4c4,3,7.9,6.1,11.7,9.3
					c30,25.3,59.5,51.2,89,76.9c2.3,2,4.6,4.1,7,6.1c-1.8,1-3.6,1.7-5.1,2.9C622.5,49.2,617.7,55.5,614.5,63.1z"/>
				<path class="st3" d="M665.1,101.6c-1.5-1-2.8-1.8-4.2-2.7c-11.8-7.6-23.5-15.2-35.1-22.7c-1.1-0.7-2.3-1.5-2.4-2.8
					c-0.3-1.9-1.4-2.5-3-2.8c-0.9-0.2-1.6-0.6-2.5-0.7c-1.8-0.3-2-1.2-1.3-2.7c2.7-6.3,6.3-12.1,11-17.1c2.2-2.3,4.7-4.1,7.5-5.4
					c3.5-1.7,3.5-1.6,5.1,1.9c0.8,1.7,1,3.7,2.6,4.8c1.7,1.1,2.9,2.5,4.3,4c3.7,4.2,7.3,8.4,11,12.6c5.9,6.8,11.9,13.5,17.9,20.1
					c0.7,0.7,1.3,1.4-0.2,2C670.9,92.6,667.3,96.5,665.1,101.6z M668.5,86.4c-0.8-1.1-1.6-2.1-2.5-3.2c-7.3-8.3-15.3-15.6-22.7-23.6
					c-0.6-0.7-1.3-1.1-2.7-0.9c-0.8,0.2-1.6,0.9-2,2c-0.5,1.1,0,1.8,0.8,2.5c8.1,8,16,16.1,24.1,24.1c0.7,0.7,1.7,1.5,2.7,1.8
					c0.9,0.4,1.7,0.3,2.4-0.5C669.2,88,669.1,87.3,668.5,86.4z"/>
				<path class="st3" d="M784.6,103.8c-1.1,0.4-1.9,1.3-2.9,1.8c-2.7,1.6-5.4,2.9-8.3,4.1c-2.4,1.1-4.9,2.1-7.3,3.1
					c-3.8,1.6-7.8,2.8-11.8,4.3c-3.3,1.2-6.6,2.3-9.9,3.2c-2.3,0.6-4.4,1.6-6.7,2.4c-1.4,0.4-2.9,0.6-4.3,1.1
					c-3.5,1.2-7.2,2-10.9,2.8c-2.2,0.5-4.3,1.1-6.7,1.6c-3,0.7-6.1,1.1-9.3,1.3c-2,0-4.1-0.3-6-0.1c-1.5,0.1-2.8,0.1-4.2,0
					c-1.5,0-2.8,0.1-4.2,0.1c-7.9-0.3-14.9-2.6-20.3-8.7c-3.3-3.7-5.1-7.9-4.1-12.9c1.2-5.6,3.9-10.2,8.6-13.5
					c6.1-4.3,16.2-5.1,22.1,2.1c1.1,1.3,2.2,2.5,3.3,3.8c1.1-0.2,2.2-0.4,3.3-0.6c3.8-0.7,7.6-1.2,11.5-2.1c3.3-0.7,6.6-1.5,9.9-2.3
					c2.5-0.8,5.1-1.4,7.5-2.3c4.2-1.6,8.3-2.9,12.5-4.2c1.5-0.5,3.1-0.5,4.6-0.9c0.9-0.3,1.8-0.6,2.7-0.5c1.7,0,3.4-0.4,5-0.9
					c0.2-0.1,0.4-0.1,0.7-0.2c1.1-0.2,2.5-0.4,3.7-0.7c0.4-0.1,0.9-0.5,1.5-0.7c1-0.1,2.1-0.2,3.1-0.6c4-1.3,8.1-2.2,12-3.8
					c1.7-0.8,3.5-1.2,5.3-1.6c0,0,0,0.1,0.1,0.1c-0.6,0.5-1.2,0.9-1.9,1.2c1.4,0,2.6-0.4,3.8-0.7c0.2,0,0.7-0.3,0.8,0.2
					c0.1,0.3-0.3,0.4-0.5,0.5c-0.6,0.4-1.7,0.6-2,1.4c0.2,0.2,0.5-0.3,0.7,0.2c0,0.1-0.1,0.1-0.1,0.2c-0.4,0.4-1,0.6-1.4,0.9
					c-0.3,0.1-0.5,0.8-1.1,0.3c-0.1,0-0.5,0.3-0.9,0.5c0.1,0.3,0.6-0.2,0.7,0.3c0,0.4-0.4,0.1-0.5,0.3c-0.2,0.1-0.4,0.3-0.6,0.5
					c0,0.1-0.1,0.1-0.2,0c0-0.2,0.4-0.4,0.1-0.7c-0.8,0.7-2,1.1-2.4,2.3c0.2,0,0.5,0.1,0.7,0.1c-0.6,0.8-1.1,1.8-2.3,1.9
					c-0.1,0-0.2,0.1-0.2,0.2c-0.1,0.6-0.5,0.6-1.1,0.8c0-0.2,0.4-0.3,0.3-0.6c0-0.4,0-0.4,0.3-0.6c0.6-0.2,1.2-0.2,1.7-0.6
					c0.3-0.2,0.9-0.5-0.1-0.8c-0.2-0.1,0-0.2,0-0.2c0.1-0.1,0.3-0.1,0.1-0.5c-0.1-0.1-0.3-0.1-0.4,0c-0.3,0.2-0.8,0.5-0.4,1
					c0.1,0.2-0.1,0.3-0.3,0.4c-1,0.1-1.8,0.6-2.5,1.2c-0.5,0.4-0.6,1.1-1.1,1.3c-0.3,0.1-0.5,0.4-0.7-0.2c-0.2-0.7-0.6-0.9-1.4-0.3
					c-0.2,0.2-0.4,0.4-0.9,0.5c0.4-0.1,0.7-0.3,0.9-0.3c0.2-0.1,0.4-0.1,0.7,0.2c0.1,0.3-0.3,0.2-0.4,0.6c0,0.2-0.3,0.4-0.4,0.3
					c-0.6-0.5-1,0.1-1.4,0.3c0.1,0.2,0.4,0.2,0.5,0.5c-0.5-0.1-0.7-0.1-0.9,0.3c-0.6,0.7-1.5,1-2.4,1.2c-0.3,0-1.1,0.4-1.4-0.1
					c-0.4-0.6-1-0.4-1-0.4c-0.4,0.8-1.6,0.8-1.7,1.8c-0.1,0.1-0.4,0.4-0.3,0.6c0.2,0.2,0.6,0.1,0.8-0.1c1.8-0.6,3.8-0.7,5.5-1.7
					c0.3-0.1,0.7,0.3,0.8-0.1c0.6-0.9,1.5-0.9,2.3-1.2c0.9-0.2,2-0.4,2.6-1c1.2-1,2.7-1.3,4-2.2c0.2-0.2,0.9-0.1,0.8-0.5
					c-0.1-0.3-0.4,0.4-0.8,0.2c0,0-0.1,0-0.1-0.1c0.3-0.6,0.9-0.6,1.5-0.8c-0.3,0.5-0.3,0.7,0.3,0.8c0.4,0,1.1,0.1,1-0.7
					c0-0.2,0.2-0.2,0.3-0.2c0.3,0,0.5-0.4,0.9-0.6c0.7-0.7,2-0.9,3-1.2c-0.2,0.4-0.5,0.4-0.9,0.5c-0.4,0-1,0.4-1,0.6
					c-0.2,0.7-0.6,0.9-1,1.1c-0.1,0-0.2,0.2-0.2,0.4c0,0.2,0.2,0.2,0.4,0.2c0.3,0,0.8-0.1,1.1-0.2c0.5-0.3,1-0.4,1.5,0.2
					c-0.8-0.2-1,0.6-1.4,0.9c-1.1,0.4-2.2,0.8-2.9,1.9c-0.1,0.1-0.4,0.4-0.5,0.4c-0.5-0.1-0.8,0.1-1.1,0.4c-0.1,0.1-0.2,0.2-0.2,0.4
					c0,0.2,0.2,0.2,0.3,0.1c1.3-0.1,2.3-0.7,3-1.7c0.6-0.7,1-0.2,1.6-0.3c-0.2,0.4-0.4,0.5-0.7,0.6c-0.6,0.4-1.8,0.4-1.7,1.6
					c0,0-0.1,0-0.2,0.1c-0.1-0.2,0.2-0.5-0.1-0.4c-0.2-0.1-0.4,0.4-0.4,0.5c0.1,0.4-0.2,0.5-0.5,0.5c-0.6-0.2-0.9,0.1-0.8,0.9
					c-0.5-0.8-0.9-0.3-1.2,0c-0.5,0.3-1,0.6-1.6,0.3c-0.3-0.1-0.6,0.2-0.8,0.4c-0.3,0.2-0.4,0.9-0.9,1c-0.8,0.1-1.2,0.8-1.8,1.2
					c0.4,0.2,0.6,0.1,0.8-0.1c0.8-0.3,1.5-0.7,2.3-1.1c0.2-0.1,0.7-0.1,0.6-0.4s-0.5-0.2-0.6-0.4c0.5,0.2,1-0.2,1.6-0.1
					c-0.2,0.2-0.7,0.3-0.5,0.6c0.2,0.2,0.5,0.1,0.7,0.1c0.9-0.3,1.6-0.7,2.4-1.2c1.4-0.9,3.1-1.2,4.2-2.2c-0.3,0.2,0,0.9-0.5,1.1
					c-1.3,0.3-2.5,1.2-3.7,1.7c-0.5,0.3-1,0.5-1.4,1c0.2,0.2,0.6,0,0.5,0.2c-0.2,0.8,0.4,0.4,0.5,0.2c1-1.1,2.6-1.5,3.8-2.2
					c0.2-0.1,0.3-0.2,0.6-0.2c0.8,0.2,1.5-0.1,2.1-0.6c0.3-0.2,0.8-0.1,1,0.3c0.4,0.2,0.3,0.5-0.2,0.8c-0.2,0.2,0,0.3,0.2,0.6
					c0.1,0.3-0.1,0.6-0.3,0.7c-0.4,0.3-0.9,1-1.4,0.6c-0.6-0.3-0.7-0.2-1,0.2c-0.4,0.4-0.7,0.8-1.4,0.6c-0.5-0.1-0.7,0.1-0.8,0.5
					c-0.1,0.5-0.3,0.7-0.9,0.6c-0.1-0.1-0.3,0-0.4,0.1c-0.1,0.1,0.1,0.2,0.2,0.3c0.2,0.1,0.4,0.2,0.4,0.5c0,0.2-0.3,0.2-0.5,0.4
					c-1,0.4-1.8,0.7-2.6,1.2c-1.2,0.8-2.5,1.5-3.9,1.7c-0.2,0-0.5,0.4-0.5,0.8c0.9-0.3,1.5-0.9,2.4-0.7c0.1-1,1.6,0,1.7-1
					c0.8,0.4,1.3-0.3,2-0.7c0,0.2-0.1,0.2-0.2,0.4c-1.2,0.7-2.1,1.7-3.7,2.1c-1.2,0.3-2.2,1.4-3.2,2c-0.4,0.4-0.7,0.7-1.4,0.6
					c-0.3-0.1-0.7-0.1-0.9,0.3c-0.9,1.4-2.8,0.8-4,1.5c0,0.1-0.2,0-0.2-0.1c-0.4-0.5-0.6-0.2-0.9,0.1c-0.1,0.1-0.3,0.2-0.5,0.4
					c-1.3,0.4-2.5,1.3-3.8,1.8c-0.4,0.1-1,0.3-1.5,0.7c-1.4,0.9-2.7,1.6-4.4,1.8c-0.6,0.2-1.2,0.3-1.8,0.4c-0.6,0.2-1,0.6-1.6,0.7
					c-1.3,0.1-2.6,0.6-3.9,1.2c-2.6,1.1-5.3,1.9-8,2.7c-0.4,0.1-0.9,0.1-1.2,0.2c-0.3,0.1-0.5,0.7-1,0.3c-0.1,0-0.2,0.1-0.2,0.2
					c0,0.2,0.1,0.2,0.2,0.3c0.5,0.1,1,0,1.3-0.2c1.2-0.9,2.6-0.4,3.7-1.3c3-0.3,5.7-1.8,8.6-2.6c1-0.3,1.9-0.7,2.9-1
					c0.8-0.2,1.8-0.4,2.4-0.6c2-0.8,4.2-1.3,6.3-2.2c0.2-0.1,0.5-0.3,0.8,0.1c-1.1,0.4-2,0.8-3.1,1.2c-2.1,0.8-4.2,1.7-6.3,2.5
					c-0.6,0.2-1.2,0.1-1.8,0.4c-1.3,0.7-2.8,1-4.1,1.5c-1,0.4-1.9,0.6-2.8,0.9c-0.2,0-0.4,0.1-0.4,0.5c0,0.2,0.3,0.3,0.6,0.3
					c0.2,0,0.4,0,0.5-0.4c0-0.3,0.2-0.5,0.5-0.5c0.8-0.1,1.3-0.4,2-0.6c0.2,0,0.3-0.1,0.5,0.1c0.3,0.4,0.5,0.4,0.7-0.1
					c0.1-0.3,0.4-0.5,0.6-0.4c0.1,0,0.3,0,0.3,0.1c-0.1,0.7,0.4,0.3,0.6,0.3c0.3-0.1,0.7-0.3,1.1-0.3c0.6-0.2,1.2-0.3,1.7-0.8
					c0.4-0.5,0.7-0.7,1.3-0.8c0.9-0.3,1.8-0.7,2.6-1c2.1-0.6,3.9-1.9,6.3-1.7c1,0.1,1.9-0.6,3-0.8c0.1,0,0.1-0.1,0.2-0.2
					c0-0.2-0.1-0.2-0.4-0.2c-0.2,0-0.4,0.1-0.6,0.2c-0.2,0-0.6-0.1-0.4-0.4c0.3-0.4,0.7-0.7,1.3-0.6c0.7,0.3,1.4,0.3,2.2,0.3
					c0.3,0,1-0.2,1-0.5c0-0.6-0.6-0.4-1-0.3c-0.1,0-0.2,0-0.4-0.2c1-0.4,1.7-1.3,3.1-1.1c-0.5,0.6-1.3,0.6-1.7,1
					c0.7,0.3,1.2-0.1,1.8-0.4c1.2-0.4,2.3-1,3.5-1.4c0.1,0,0.3-0.1,0.3-0.4s-0.2-0.2-0.4-0.2c-0.3,0-0.5-0.4-0.5-0.6
					c0-0.2,0.3-0.2,0.7-0.3c0.5,0.1,0.7,0.1,1-0.2c0.2-0.1,0.4-0.1,0.8,0.2c-0.4,0.3-0.8,0.4-1.3,0.7c0.9,0,1.7,0,2.2-0.5
					c1-0.7,2.3-1.2,3.4-1.7c0.2-0.1,0.5-0.3,0.7,0.1C785.3,103.5,784.8,103.6,784.6,103.8z M694.2,102.3c0-0.1-0.1-0.2-0.2-0.2
					c-1-1.5-2.1-3-3.5-4.1c-1.8-1.4-3.8-2-5.8-0.8c-2.1,1.2-2.9,3-2.8,5.4c0.2,2.8,1.6,5.1,3.5,7c1.4,1.5,2.9,2.6,4.6,3.7
					c0.7,0.5,1.7,1,2.5,1.4c6.3,3.3,13.2,4.9,20.4,6.2C704.9,116.2,699.4,109.4,694.2,102.3z M777.3,85.2c0.5,0.2,1.8-1.2,1.9-1.7
					c0-0.2-0.1-0.3-0.4-0.2c-1.3,0.9-3,1-4.1,2.1C775.6,85.1,776.4,84.9,777.3,85.2z M769.1,90.5c0.2-0.4,0.4-0.5,0.9-0.5
					c0.2,0,0.4-0.1,0.5-0.3c0.6-0.8,1.5-1.4,2.5-1.7c0.4-0.1,1.1-0.4,1.5-0.7c-1-0.3-1.7-0.1-2.6,0.4c-0.9,0.6-1.9,0.6-2.6,1.1
					c0.1,0.3,0.5,0.1,0.7,0.3c-0.7,0.6-1.4,1.3-2.2,1.9C768.3,91,768.8,90.8,769.1,90.5z M743.4,110.2c5.2-0.4,11.1-4.7,12.2-4.8
					c-1.2,0.1-12.6,3.5-13,3.9L743.4,110.2z M767.2,104.8c0.5-0.4,0.8-1,1.4-1.3c0.1-0.1,0.2-0.2,0.3,0c0.1,0.2,0,0.2,0,0.3
					c-0.1,0.1-0.2,0.4-0.1,0.6c0.2,0.2,0.6,0.1,0.7-0.1c0.4-0.5,0.8-0.7,1.5-0.9c-0.4,0.5-0.9,0.6-1.2,0.9c-0.1,0-0.3,0.1-0.3,0.4
					c0,0.2,0.2,0.2,0.5,0.1c0.8-0.2,1.4-0.4,2.1-0.9c0.2-0.1,0.4-0.6,0.5-0.8c0.1-1.1,1.1-1.3,1.8-1.7c0.2-0.2,0.6-0.2,0.8-0.4
					c0.2-0.2,0.3-0.5,0.3-0.7c0-0.2-0.2-0.2-0.4-0.2c-0.3,0.1-0.7,0.1-0.6,0.4c-0.1,0.7-0.5,0.4-0.8,0.5c-1.2,0.3-2.5,0.3-3.3,1.6
					c-0.3,0.4-1,0.6-1.5,0.8C768.1,103.2,767.4,103.8,767.2,104.8z M763.7,106.9c-0.2,0.2-0.5,0.4-0.8,0.5c0.7,0.1,1.3-0.1,1.5-0.9
					c0.1-0.3,0.6-0.5,0.9-0.5c0.4-0.1,1-0.4,1.3-0.8c0.1,0,0.2-0.2,0.2-0.4c-0.1-0.2-0.2-0.2-0.5-0.1s-0.3,0.2-0.5,0.4
					c-1.2,0.7-2.7,0.8-3.7,1.4c-0.6,0.4-1.7,0.6-2.2,1.2c-0.5,0.6-1.3,0.9-1.9,1.4C760.1,108.9,761.7,107.4,763.7,106.9z
					 M761.3,104.4c0.1,0,0.3-0.1,0.3-0.1c0.5-0.7,1.4-1,2.2-1.1c1.1,0,2-0.4,2.9-0.9c1.4-0.8,2.9-1.5,4.4-2c0.5-0.3,1-0.6,1.5-1
					c0.1-0.1,0.2-0.4,0.1-0.7c-0.2-0.2-0.3-0.1-0.6,0c-2.1,0.8-3.9,2.4-6.2,2.7c-0.2,0-0.4,0.1-0.7,0.3c-2.7,1.3-5.4,2.4-8.2,3.2
					c-0.1,0-0.2,0-0.2,0.2c0.1,0.2,0.3,0.1,0.5,0.2c0.5,0.4,1.1,0.6,1.3-0.1C759.6,105.5,760.4,104.4,761.3,104.4z M756.1,110
					c-1.9,0.5-3.9,0.9-5.5,1.9C752.5,111.6,754.5,111.1,756.1,110z M754.5,93c-0.4,0.1-0.9,0.3-1.3,0.8c1.3-0.1,2.8-0.4,3.1-1.5
					c-0.4-0.2-0.5,0.5-1.1,0.1c2.2-0.7,4.3-1.3,6.5-1.8c-1.3,1.2-1.4,1.2-2.8,1.2c-0.7-0.1-1.1,0.3-1.4,1c-0.2,0.4,0,0.4,0.3,0.7
					c-1.4-0.1-1.9,1.2-3.3,1.6c0.3-0.6,0.8-0.5,0.8-1c-0.4,0-0.8,0.2-1,0.5c-0.1,0.1-0.3,0.4-0.1,0.6c0.1,0.2,0.3,0.1,0.6,0.2
					c0.7,0.1,1.1-0.1,1.4-0.8c0.2-0.4,0.8-0.5,1.3-0.3c-0.2,0.4-0.7,0.3-0.7,0.6c0.3,0,0.6-0.4,1.2,0c0.2,0.2,1.1-0.1,1.3-0.6
					c0.2-0.7,0.4-0.9,0.8-1.1c1.2-0.4,2.5-0.9,3.8-1.6c-0.2-0.2-0.4,0.1-0.6-0.1c0.3-0.1,0.7-0.3,0.9-0.5c1.6-1.5,3.7-1.7,5.6-2.6
					c0.3-0.1,0.3-0.1,0.5-0.9c-1.8,1.3-3.7,1.7-5.6,2.3c0.5-0.7,1.2-0.8,1.8-1c0.3-0.1,0.7-0.3,0.6-0.5c0-0.3-0.6-0.5-0.9-0.4
					c-0.6,0.4-1.3,0.3-2.1,0.2c-0.9-0.2-1.5,0.8-2.3,0.9c-1.6,0.2-2.7,1.2-4.3,1.3c-0.3,0-0.6,0.4-1.1,0.5c-1.3,0.6-2.8,0.8-3.9,1.7
					c-0.1,0-0.2,0.2-0.4,0.1c-1.7-0.2-3,0.9-4.4,1.3c-0.3,0.1-0.4,0.1-0.9,0.1c-1.4-0.1-1.8,0-2.5,1.1c0.8-0.3,1.6-0.1,2.2-0.3
					c1-0.3,2-0.6,3-0.8c0.2,0,0.6-0.4,0.9,0.2c0,0.1,1-0.1,1.3-0.6c0.4-0.6,1-0.7,1.6-0.9c0.3,0,0.7-0.1,1-0.4c0.1,0,0.3-0.2,0.3,0
					C755,92.8,754.7,92.9,754.5,93z"/>
			</g>
		</g>
	</g>
</g>
<polygon class="st5" points="-7.8,-7.6 649.5,-7.6 473.7,168.2 -7.8,168.3 "/>
<g>
	<path class="st3" d="M31.2,97.4V63.7h10.3v33.7H31.2z"/>
	<path class="st3" d="M46.8,97.4V63.7H57v24.8h12.7v8.9L46.8,97.4L46.8,97.4z"/>
	<path class="st3" d="M72.9,83.6V63.7h10.4v19.5c0,3.3,2.1,5.8,6.3,5.8c4.2,0,6.3-2.6,6.3-5.8V63.7h10.4v19.8
		c0,8.4-5.3,14.5-16.6,14.5S72.9,91.9,72.9,83.6z"/>
	<path class="st3" d="M109,92.6l5.3-7.6c2.5,2.4,6.3,4.4,10.8,4.4c1.9,0,3.8-0.5,3.8-1.8c0-3.2-18.8,0.1-18.8-13.2
		c0-5.7,4.8-11.1,14-11.1c5.5,0,10.5,1.6,14.3,4.7l-5.5,7.3c-2.9-2.2-6.8-3.4-10-3.4c-2,0-2.6,0.7-2.6,1.5c0,3.2,18.7,0.5,18.7,12.9
		c0,7.5-5.5,11.7-14.5,11.7C117.5,98,112.6,95.9,109,92.6z"/>
	<path class="st3" d="M148.8,97.4V72.6h-9.1v-8.9H168v8.9h-9v24.8H148.8z"/>
	<path class="st3" d="M190.2,97.4l-4.7-10.6h-3.7v10.6h-10.3V63.7h18c7.9,0,12.1,5.3,12.1,11.5c0,5.8-3.4,8.9-6.1,10.3l6.1,11.9
		H190.2z M191.4,75.2c0-1.8-1.6-2.6-3.4-2.6h-6.2v5.3h6.2C189.8,77.9,191.4,77.1,191.4,75.2z"/>
	<path class="st3" d="M228.3,97.4l-1.2-4H215l-1.2,4h-11.5l12.4-33.7h12.8L240,97.4H228.3z M221.1,73.7l-3.4,10.8h6.7L221.1,73.7z"
		/>
	<path class="st3" d="M250.6,105.6l1.6-3.3c1.3,0.9,2.8,1.5,4.2,1.5c1.1,0,2.1-0.4,2.1-1.2c0-0.6-0.4-0.9-1.1-0.9
		c-0.6,0-1,0.3-1.3,0.6l-3-1.7l1.1-2.9c-9.2-1.1-15.8-7.8-15.8-17.2c0-10.5,8-17.4,18.5-17.4c8.9,0,13.3,5.2,15.3,9.8l-8.8,4.1
		c-0.9-2.6-3.5-4.9-6.5-4.9c-4.9,0-8.2,3.8-8.2,8.5c0,4.7,3.3,8.5,8.2,8.5c3,0,5.7-2.3,6.5-4.9l8.8,4.1c-1.9,4.3-6.1,9.4-14.1,9.8
		l-0.7,1.6c0.5-0.3,1.1-0.5,1.7-0.5c1.8,0,3.5,1.5,3.5,3.7c0,2.9-2.7,4.5-6,4.5C254,107.4,251.7,106.5,250.6,105.6z"/>
	<path class="st3" d="M273.6,80.6c0-10.4,8.1-17.4,18.4-17.4s18.4,7.1,18.4,17.4S302.4,98,292,98S273.6,90.9,273.6,80.6z
		 M289.2,58.6c-0.7,0-1.2,0.6-1.2,1.9h-4.5c0-4.7,2.1-6.8,6-6.8c3.1,0,4.2,2.2,5.6,2.2c0.7,0,1.2-0.6,1.2-1.9h4.5
		c0,4.7-2.1,6.8-6,6.8C291.6,60.8,290.5,58.6,289.2,58.6z M300.2,80.6c0-4.7-3.2-8.5-8.1-8.5s-8.1,3.8-8.1,8.5
		c0,4.7,3.2,8.5,8.1,8.5S300.2,85.3,300.2,80.6z"/>
	<path class="st3" d="M314.1,97.4V63.7h25.6v8.9h-15.3v3.4h15v8.9h-15v3.7h15.3v8.9L314.1,97.4L314.1,97.4L314.1,97.4z"/>
	<path class="st3" d="M341.7,92.6l5.3-7.6c2.5,2.4,6.3,4.4,10.8,4.4c1.9,0,3.8-0.5,3.8-1.8c0-3.2-18.8,0.1-18.8-13.2
		c0-5.7,4.8-11.1,14-11.1c5.5,0,10.5,1.6,14.3,4.7l-5.5,7.3c-2.9-2.2-6.8-3.4-10-3.4c-2,0-2.6,0.7-2.6,1.5c0,3.2,18.7,0.5,18.7,12.9
		c0,7.5-5.5,11.7-14.5,11.7C350.1,98,345.3,95.9,341.7,92.6z"/>
</g>
</svg>
