<?xml version="1.0" encoding="utf-8"?>
<!-- Generator: Adobe Illustrator 22.0.1, SVG Export Plug-In . SVG Version: 6.00 Build 0)  -->
<svg version="1.1" xmlns="http://www.w3.org/2000/svg" xmlns:xlink="http://www.w3.org/1999/xlink" x="0px" y="0px"
	 viewBox="0 0 900.9 157.9" style="enable-background:new 0 0 900.9 157.9;" xml:space="preserve">
<style type="text/css">
	.st0{fill:#D60D47;}
	.st1{fill:#56B7E0;}
	.st2{fill:#FFFFFF;}
</style>
<g id="Camada_1">
	<polygon class="st0" points="598.7,-7.4 908.3,-7.4 732.6,168.3 422.5,168.3 	"/>
	<polygon class="st1" points="-5.1,-7.7 652.2,-7.7 476.4,168.1 -5.1,168.2 	"/>
	<g>
		<path class="st2" d="M30.9,96.5V64.1h9.8v23.8H53v8.6H30.9z"/>
		<path class="st2" d="M56.8,96.5V64.1h9.8v32.4H56.8z"/>
		<path class="st2" d="M80.3,96.5L68.4,64.1h11.1l7,21.8l7-21.8h11.1L92.7,96.5H80.3z"/>
		<path class="st2" d="M124,96.5l-4.5-10.2H116v10.2h-9.8V64.1h17.3c7.5,0,11.6,5,11.6,11.1c0,5.5-3.3,8.6-5.8,9.8l5.8,11.5H124z
			 M125.2,75.2c0-1.7-1.6-2.5-3.2-2.5h-5.9v5.2h5.9C123.6,77.7,125.2,76.9,125.2,75.2z"/>
		<path class="st2" d="M137.4,80.2c0-9.9,7.7-16.8,17.7-16.8c10,0,17.7,6.7,17.7,16.8S165.1,97,155.1,97
			C145,97,137.4,90.3,137.4,80.2z M162.9,80.2c0-4.5-3-8.1-7.8-8.1s-7.8,3.6-7.8,8.1c0,4.5,3,8.1,7.8,8.1
			C159.8,88.4,162.9,84.8,162.9,80.2z"/>
		<path class="st2" d="M173.8,91.8l5.2-7.3c2.4,2.4,6.1,4.2,10.4,4.2c1.8,0,3.6-0.5,3.6-1.7c0-3-18,0-18-12.7
			c0-5.4,4.5-10.7,13.5-10.7c5.3,0,10,1.5,13.7,4.5l-5.3,6.9c-2.8-2.1-6.5-3.2-9.5-3.2c-2,0-2.5,0.7-2.5,1.5c0,3,18,0.4,18,12.4
			c0,7.1-5.3,11.2-14,11.2C181.9,97,177.3,95,173.8,91.8z"/>
	</g>
</g>
<g id="Camada_2">
	<g>
		<path class="st2" d="M690.9,70.5l-12.1-3.3c-2-0.5-4,0.6-4.6,2.6l-16.3,59c-0.5,2,0.6,4,2.6,4.6l12.1,3.3c2,0.5,4-0.6,4.6-2.6
			l16.3-59C694,73.1,692.9,71.1,690.9,70.5z"/>
		<path class="st2" d="M639.9,24.3c-4.5-2.8-10.3,0.2-10.8,5.5c-1.8,21.9-6,55.5-6.8,61.8c-0.1,0.7,0.1,1.3,0.5,1.9l29,34.7
			c1.3,1.5,3.7,1,4.2-0.9l16.8-60.9c0.1-0.5,0.1-1.1-0.1-1.6C670.9,60.3,660.6,37,639.9,24.3z"/>
		<path class="st2" d="M746.4,53.7c-24.3,0.3-45.1,14.9-49,17.9c-0.4,0.3-0.7,0.8-0.9,1.3l-16.8,60.9c-0.5,1.9,1.3,3.6,3.1,2.9
			l42.7-14.9c0.6-0.2,1.2-0.7,1.4-1.3c2.6-5.9,16.2-36.9,25.9-56.6C755.2,59.2,751.7,53.7,746.4,53.7z"/>
		<path class="st2" d="M741.1,48.3c1.1-0.1,1.9,1.1,1.4,2.2c-0.5,1.1,0.3,2.3,1.5,2.2l1.5-0.2c0.4,0,0.7-0.2,1-0.5
			c0.8-1,1.5-2.2,1.9-3.2c0,0,0,0,0,0l1.3-3.4c0.4-1-0.3-2-1.4-2c-3,0-6,0.1-8.9,0.5c0.5-0.9,0.9-2,1.1-2.8c0,0,0,0,0,0l0.8-3.6
			c0.2-1-0.6-1.9-1.6-1.8c-25.6,3-44.1,21.8-49.9,28.3l-6.6-1.8c-1.6-8.5-7.9-34.2-28.3-49.9c-0.8-0.6-2-0.3-2.3,0.7l-1.1,3.5
			c0,0,0,0,0,0c-0.2,0.8-0.5,1.9-0.5,3c-2.3-1.8-4.7-3.5-7.3-5c-0.9-0.5-2,0-2.2,1l-0.6,3.6c0,0,0,0,0,0c-0.1,1-0.2,2.4,0,3.7
			c0.1,0.4,0.3,0.7,0.6,1l1.2,0.9c0.9,0.7,2.3,0.1,2.4-1.1l0,0c0.1-1.1,1.4-1.8,2.3-1.1c7.1,4.8,18.7,16,27.6,40.9
			c0,0.1,0,0.1,0.1,0.2c0.1,0.6,0.6,1.1,1.2,1.3l18.3,5.1c0.5,0.2,1.1,0,1.5-0.3c0.1-0.1,0.3-0.1,0.4-0.2
			C716.8,52.4,732.5,48.7,741.1,48.3z M654.5,22.2c0.3-0.2,0.5-0.5,0.5-0.9v0c0.2-1.1,1.6-1.6,2.4-0.8c6,5.4,15.3,16.9,21,39.8
			C676.3,53.8,669.4,35.7,654.5,22.2z M694.9,64.9c16.6-16.8,30.5-21.9,38.4-23.4c1.1-0.2,2,0.9,1.7,2v0c-0.1,0.4-0.1,0.7,0,1
			C715.2,48.3,700,60.4,694.9,64.9z"/>
	</g>
</g>
</svg>
