<?xml version="1.0" encoding="utf-8"?>
<!-- Generator: Adobe Illustrator 22.0.1, SVG Export Plug-In . SVG Version: 6.00 Build 0)  -->
<svg version="1.1" id="Camada_1" xmlns="http://www.w3.org/2000/svg" xmlns:xlink="http://www.w3.org/1999/xlink" x="0px" y="0px"
	 viewBox="0 0 1338.5 157.9" style="enable-background:new 0 0 1338.5 157.9;" xml:space="preserve">
<style type="text/css">
	.st0{fill:#E6B84C;}
	.st1{fill:#1C304C;}
	.st2{fill:#FFFFFF;}
</style>
<polygon class="st0" points="1170,168 860.4,168 1035.2,-6.6 1345.3,-6.6 "/>
<polygon class="st1" points="-7.8,-6.6 1087.1,-6.6 911.3,169.1 -7.8,169.3 "/>
<g>
	<g>
		<path class="st0" d="M239.3,67.9c-0.6-1.1-1.5-1.9-2.6-2.2h26.5V76c-0.5-1.9-1.4-3.1-2.6-4c-1.1-0.7-2.6-1.1-4.5-1.1h-7.4v11.2
			h6.4c2.5,0,4-0.6,4.6-2v9.2c-0.1-0.5-0.5-1-1.2-1.4c-0.7-0.4-1.9-0.6-3.2-0.6h-6.5v11.6h8c2.5,0,4.2-0.4,5.6-1.2
			c1.2-0.7,2.5-2.2,3.5-4.2l-1.9,10.9h-26.7c0.5-0.1,1-0.4,1.5-0.9c0.5-0.5,0.9-1.2,1.2-2.1c0.4-1,0.5-2.2,0.5-3.9V72.2
			C240.3,70.5,239.9,69.1,239.3,67.9z"/>
		<path class="st0" d="M291.9,65.7l12.9,31.6c1.6,4.2,3.5,6.6,5.5,7.2h-15.7c0.6-0.1,1.1-0.4,1.5-0.9c0.4-0.5,0.6-1.1,0.6-1.9
			c0-0.6-0.7-2.7-2.1-6.5h-14.7c-1.2,3.2-1.7,5.4-1.7,6.2c0,0.9,0.2,1.6,0.7,2.1s1,0.7,1.6,0.9h-13.1c0.7-0.1,1.6-0.9,2.6-2.1
			c1-1.2,1.9-3.1,2.9-5.4L285,65.7C285,65.7,291.9,65.7,291.9,65.7z M287,75.8l-5.4,14.4h11L287,75.8z"/>
		<path class="st0" d="M335.1,89.6c-0.4-0.7-0.7-1.4-1.2-1.7c-0.5-0.4-1-0.6-1.6-0.7h14.6c-0.5,0.1-1,0.4-1.5,0.7
			c-0.5,0.4-0.9,1-1.2,1.7c-0.2,0.7-0.5,1.7-0.5,2.9v10.6c-3.9,1.5-8.5,2.4-13.9,2.4c-3.9,0-7.4-0.9-10.2-2.5c-3-1.6-5.2-4-7-7
			c-1.6-3-2.5-6.4-2.5-10c0-4,0.9-7.6,2.7-10.9c1.7-3.2,4.4-5.7,7.7-7.6c3.4-1.9,7.2-2.7,11.6-2.7c4.5,0,8.2,0.7,11.2,2.4v10.1
			c-1.1-2.1-2.6-3.7-4.7-4.9c-2.1-1.1-4.5-1.7-7.1-1.7c-3.7,0-6.7,1.4-9.1,4s-3.5,6.1-3.5,10.4s1.1,7.6,3.5,10.5
			c2.4,2.9,5.2,4.1,8.9,4.1c1.2,0,2.7-0.2,4.4-0.7v-6.2C335.6,91.3,335.4,90.3,335.1,89.6z"/>
		<path class="st0" d="M350.2,65.7h14.4c-0.5,0.1-0.9,0.4-1.4,0.7c-0.5,0.5-0.9,1.1-1.1,2c-0.2,0.9-0.5,2.1-0.5,3.5v18.7
			c0,3.2,0.6,5.6,2,6.9c1.4,1.4,3.4,2,6.1,2c2.9,0,4.9-0.7,6-2.2c1.1-1.5,1.7-3.7,1.7-6.6V72.2c0-3.9-1.1-6-3.4-6.6h13.7
			c-1,0.1-1.7,0.9-2.4,2c-0.6,1.1-0.9,2.7-0.9,4.6v18.4c0,9.9-5.1,14.9-15.2,14.9c-5.6,0-9.6-1.1-12.2-3.5
			c-2.5-2.4-3.7-5.9-3.7-10.6V72.2C353.2,68.5,352.2,66.2,350.2,65.7z"/>
		<path class="st0" d="M393.4,67.9c-0.6-1.1-1.5-1.9-2.6-2.2h26.5V76c-0.5-1.9-1.4-3.1-2.6-4c-1.1-0.7-2.6-1.1-4.5-1.1h-7.4v11.2
			h6.4c2.5,0,4-0.6,4.6-2v9.2c-0.1-0.5-0.5-1-1.2-1.4c-0.7-0.4-1.9-0.6-3.2-0.6h-6.5v11.6h8c2.5,0,4.2-0.4,5.6-1.2
			c1.2-0.7,2.5-2.2,3.5-4.2l-1.9,10.9h-26.6c0.5-0.1,1-0.4,1.5-0.9c0.5-0.5,0.9-1.2,1.2-2.1c0.4-1,0.5-2.2,0.5-3.9V72.2
			C394.4,70.5,394,69.1,393.4,67.9z"/>
		<path class="st0" d="M446.3,99.9c-3.5-3.6-5.2-8.4-5.2-14.2c0-3.9,0.9-7.4,2.6-10.6c1.7-3.2,4.1-5.7,7.4-7.5
			c3.1-1.9,6.6-2.7,10.5-2.7c5.6,0,10.1,1.9,13.6,5.5c3.5,3.6,5.2,8.4,5.2,14.2c0,5.9-1.9,10.9-5.6,14.9s-8.6,6-14.5,6
			C454.4,105.4,449.8,103.6,446.3,99.9z M468.9,95.7c1.9-2.4,2.9-5.6,2.9-9.6c0-4.6-1.1-8.2-3.2-11.1c-2.1-2.9-5-4.2-8.6-4.2
			c-3.1,0-5.6,1.1-7.5,3.5c-1.9,2.4-2.9,5.6-2.9,9.6c0,4.7,1,8.5,3.1,11.2c2.1,2.9,5,4.2,8.7,4.2C464.5,99.4,467,98.2,468.9,95.7z"
			/>
		<path class="st0" d="M487,67.7c-0.6-1.1-1.5-1.7-2.6-2h26.5V76c-0.7-1.9-1.7-3.1-2.9-3.9c-1.1-0.7-2.6-1.1-4.4-1.1h-7.2v11.2h6.2
			c1.4,0,2.5-0.2,3.2-0.6c0.7-0.4,1.2-0.9,1.4-1.5v9.6c-0.1-0.6-0.6-1.1-1.4-1.5c-0.9-0.4-1.9-0.6-3.2-0.6h-6.4v10.6
			c0,1.9,0.2,3.4,0.9,4.5c0.6,1.1,1.2,1.7,2.1,1.9h-14.5c1-0.1,1.7-0.7,2.4-1.9c0.6-1.1,0.9-2.6,0.9-4.6v-26
			C488,70.2,487.6,68.9,487,67.7z"/>
		<path class="st0" d="M532.5,49.1h20.1c-1.2,0.2-2.2,1.1-3.1,2.7c-0.9,1.6-1.2,3.9-1.2,6.7v38.3h11.2c4.4,0,7.2-0.5,8.9-1.4
			s3.1-2.7,4.6-5.4l-2.2,14.4h-37.8c1.1-0.2,2-1.2,2.7-3c0.7-1.7,1.1-4.2,1.1-7.4V58.5C536.7,53.1,535.2,50,532.5,49.1z"/>
		<path class="st0" d="M579.4,67.9c-0.6-1.1-1.5-1.9-2.6-2.2h26.5V76c-0.5-1.9-1.4-3.1-2.6-4c-1.1-0.7-2.6-1.1-4.5-1.1h-7.4v11.2
			h6.4c2.5,0,4-0.6,4.6-2v9.2c-0.1-0.5-0.5-1-1.2-1.4c-0.7-0.4-1.9-0.6-3.2-0.6h-6.5v11.6h8c2.5,0,4.2-0.4,5.6-1.2
			c1.2-0.7,2.5-2.2,3.5-4.2l-1.9,10.9h-26.6c0.5-0.1,1-0.4,1.5-0.9c0.5-0.5,0.9-1.2,1.2-2.1c0.4-1,0.5-2.2,0.5-3.9V72.2
			C580.4,70.5,580,69.1,579.4,67.9z"/>
		<path class="st0" d="M633.3,89.6c-0.4-0.7-0.7-1.4-1.2-1.7s-1-0.6-1.6-0.7h14.6c-0.5,0.1-1,0.4-1.5,0.7c-0.5,0.4-0.9,1-1.2,1.7
			c-0.2,0.7-0.5,1.7-0.5,2.9v10.6c-3.9,1.5-8.5,2.4-13.9,2.4c-3.9,0-7.4-0.9-10.2-2.5c-3-1.6-5.2-4-7-7c-1.6-3-2.5-6.4-2.5-10
			c0-4,0.9-7.6,2.7-10.9c1.7-3.2,4.4-5.7,7.7-7.6c3.4-1.9,7.2-2.7,11.6-2.7c4.5,0,8.2,0.7,11.2,2.4v10.1c-1.1-2.1-2.6-3.7-4.7-4.9
			c-2.1-1.1-4.5-1.7-7.1-1.7c-3.7,0-6.7,1.4-9.1,4s-3.5,6.1-3.5,10.4s1.1,7.6,3.5,10.5c2.2,2.7,5.2,4.1,8.9,4.1
			c1.2,0,2.7-0.2,4.4-0.7v-6.2C634,91.3,633.7,90.3,633.3,89.6z"/>
		<path class="st0" d="M651.1,67.9c-0.6-1.1-1.5-1.9-2.6-2.2h26.5V76c-0.5-1.9-1.4-3.1-2.6-4c-1.1-0.7-2.6-1.1-4.5-1.1h-7.4v11.2
			h6.4c2.5,0,4-0.6,4.6-2v9.2c-0.1-0.5-0.5-1-1.2-1.4c-0.7-0.4-1.9-0.6-3.2-0.6h-6.5v11.6h8c2.5,0,4.2-0.4,5.6-1.2
			c1.2-0.7,2.5-2.2,3.5-4.2l-1.9,10.9h-26.6c0.5-0.1,1-0.4,1.5-0.9c0.5-0.5,0.9-1.2,1.2-2.1c0.4-1,0.5-2.2,0.5-3.9V72.2
			C652.1,70.5,651.7,69.1,651.1,67.9z"/>
		<path class="st0" d="M683.3,69.5c-0.6-0.9-1.2-1.7-2.1-2.4c-0.9-0.7-1.6-1.1-2.2-1.4h12.4l18.4,23V72.1c0-1.4-0.1-2.5-0.4-3.4
			c-0.2-0.9-0.6-1.5-1-2c-0.4-0.5-1-0.7-1.7-1.1h12.6c-0.9,0.1-1.6,0.7-2.2,1.9c-0.6,1.1-0.9,2.6-0.9,4.5v32.5h-6.1
			c-1.4-3.5-3.5-6.9-6.2-10.2l-13-15.9v19.7c0,1.5,0.1,2.6,0.5,3.5c0.4,0.9,0.7,1.6,1.4,2c0.6,0.5,1.1,0.7,1.6,0.7h-13
			c0.5-0.1,1-0.4,1.5-0.9c0.5-0.5,0.9-1.1,1.1-2c0.2-0.9,0.4-2,0.4-3.5V72.6C684.2,71.3,683.9,70.3,683.3,69.5z"/>
		<path class="st0" d="M725.4,67.9c-0.6-1.1-1.5-1.9-2.7-2.2h18c6,0,10.9,1.7,14.5,5.2c3.7,3.5,5.5,8.1,5.5,13.9
			c0,6-1.9,10.7-5.6,14.4c-3.7,3.6-8.7,5.4-15.1,5.4h-16.7c1-0.1,1.7-0.9,2.4-2.1s0.9-3,0.9-5.1v-25C726.2,70.5,726,69.1,725.4,67.9
			z M748.7,95.2c2.1-2.6,3.1-6,3.1-10.1c0-4.5-1.1-8-3.5-10.5c-2.4-2.5-5.5-3.6-9.7-3.6h-4v28.2h5.7
			C743.8,99.2,746.7,97.8,748.7,95.2z"/>
		<path class="st0" d="M777.5,99.6c1.7,0,3.4-0.4,4.6-1.1c1.2-0.7,1.9-1.9,1.9-3.2c0-1.2-0.5-2.4-1.5-3.4c-1-1-2.6-2.1-5-3.2
			c-4.6-2.1-7.7-4-9.2-5.9c-1.5-1.7-2.2-3.9-2.2-6.2c0-3.5,1.2-6.4,3.9-8.4c2.5-2.1,5.9-3.1,10.1-3.1c1.9,0,3.6,0.2,5.4,0.7
			c1.7,0.5,3.1,1.1,4.1,1.9v9.2c-1-1.7-2.5-3.2-4.4-4.5c-1.9-1.1-3.7-1.7-5.7-1.7c-2,0-3.4,0.4-4.4,1.2c-1,0.9-1.4,1.9-1.4,3
			c0,1.1,0.5,2.1,1.4,3c0.9,0.9,3,2.1,6.2,3.6c4.2,2,7.1,3.9,8.6,5.7c1.5,1.9,2.2,4.1,2.2,6.6c0,3.5-1.2,6.4-4,8.5
			c-2.6,2.1-6.2,3.2-10.9,3.2c-4.5,0-8.2-1-11.5-2.9v-11C768.2,96.9,772.2,99.6,777.5,99.6z"/>
		<path class="st0" d="M193.4,49.4h20.1c-1.2,0.2-2.2,1.1-3.1,2.7c-0.9,1.6-1.2,3.9-1.2,6.7v38.3h11.2c4.4,0,7.2-0.5,8.9-1.4
			c1.6-0.9,3.1-2.7,4.6-5.4l-2.2,14.4h-37.8c1.1-0.2,2-1.2,2.7-3s1.1-4.2,1.1-7.4V58.7C197.6,53.4,196.1,50.2,193.4,49.4z"/>
	</g>
	<path class="st0" d="M215.6,107.7c-2.5,0-5-0.4-7.4-1H203h-1.5c4.2,2.2,9,3.5,14.1,3.5c5.1,0,9.9-1.2,14.1-3.5h-6.7
		C220.6,107.4,218.1,107.7,215.6,107.7z"/>
	<g>
		<path class="st0" d="M187.5,79.6c0-7.6,3.1-14.6,8.1-19.7v-3.4c-6.5,5.7-10.6,14-10.6,23.1c0,8.6,3.6,16.4,9.4,22
			c0.5-0.6,0.9-1.5,1-2.5C190.5,94.1,187.5,87.2,187.5,79.6z"/>
	</g>
	<g>
		<path class="st0" d="M217.3,49.1c-1.5,0.4-3.2,1.1-4.5,2.5c0.9-0.1,1.7-0.1,2.7-0.1c9.9,0,18.5,5,23.5,12.6h2.9
			C236.9,55.6,227.8,49.7,217.3,49.1z"/>
		<path class="st0" d="M234.1,100.8l-0.5,3.5c1.7-1.4,3.5-2.9,5-4.5v-4C237.2,97.7,235.7,99.3,234.1,100.8z"/>
	</g>
</g>
<g>
	<polygon class="st2" points="1127.3,69.9 1126.1,73.1 1126.1,65.2 1121.6,68.3 1116.9,89.7 1121.8,97.5 1123.2,88.9 1123.2,108 
		1129.4,100.9 1127.9,70.6 	"/>
	<polygon class="st2" points="1130,85.8 1130.6,94.4 1133,91 1131.5,85.1 	"/>
	<path class="st2" d="M1159.7,55.3c-2.6,0.6-3.9,0.6-4.6,0.6c-0.7-1.1-2-1.9-3.4-1.9c-2.3,0-4.1,1.8-4.1,4.1c0,0.1,0,0.2,0,0.4
		l-2.9,1c-0.4-0.4-0.9-0.6-1.5-0.6c-1.1,0-2,0.8-2.2,1.9l-5.5,1.9c-0.3-0.6-0.6-1.1-1-1.6l3.8-1.4l-0.4-1c0,0-0.5,0-0.8-0.1
		c-0.6-0.2-1.1-0.5-1.6-0.9c-2.9-3-6.9-4.8-11.4-4.8c-8.8,0-15.9,7.1-15.9,15.9c0,1.1,0.1,2.2,0.3,3.2l-1.7,0.6
		c-0.8-0.9-2.1-1.3-3.3-0.9c-1.4,0.4-2.2,1.7-2.2,3.1c-0.5,0.4-1.6,1.2-3.8,2.2c2.4-0.5,3.7-0.5,4.3-0.5c0.8,1.1,2.2,1.7,3.5,1.2
		c1.4-0.4,2.2-1.8,2.2-3.1l3.1-1.1c-0.5-1.4-0.8-3-0.8-4.6c0-7.9,6.4-14.2,14.2-14.2c4.4,0,8.3,2,11,5.1l-1.3,0.5
		c-2.4-2.6-5.8-4.3-9.6-4.3c-7.1,0-12.9,5.8-12.9,12.9c0,4.7,2.5,8.8,6.2,11l0.6-2.7l0,0l0.3-1.5c-2-1.7-3.2-4.1-3.2-6.9
		c0-5,4-9,9-9s9,4,9,9c0,2.9-1.4,5.6-3.6,7.2l0.6,2.6l0,0l0.3,1.4c3.9-2.2,6.6-6.4,6.6-11.3c0-1.5-0.3-2.9-0.7-4.2l5.3-1.8
		c0.4,0.4,0.9,0.6,1.5,0.6c1.1,0,2-0.8,2.2-1.9l2.9-1c0.7,1.1,2,1.8,3.4,1.8c2.3,0,4.1-1.8,4.1-4.1c0-0.1,0-0.2,0-0.3
		C1156.3,57.3,1157.3,56.4,1159.7,55.3z M1105.2,76.5c-1.1,0.4-2.3-0.3-2.6-1.4c-0.3-1.1,0.3-2.3,1.4-2.6c1.1-0.4,2.3,0.3,2.6,1.4
		C1106.9,75,1106.3,76.2,1105.2,76.5z M1131.2,77.8l-0.3-1.3c2.2-1.9,3.7-4.7,3.7-7.9c0-5.7-4.6-10.4-10.4-10.4s-10.4,4.6-10.4,10.4
		c0,3,1.3,5.7,3.3,7.6l-0.3,1.3c-2.6-2.1-4.2-5.3-4.2-8.9c0-6.4,5.2-11.5,11.5-11.5s11.6,5.2,11.6,11.6
		C1135.7,72.4,1134,75.7,1131.2,77.8z M1143.3,62c-0.6,0-1-0.4-1-1s0.4-1,1-1s1,0.4,1,1S1143.8,62,1143.3,62z M1151.8,60.8
		c-1.5,0-2.8-1.2-2.8-2.8c0-1.5,1.2-2.8,2.8-2.8s2.8,1.2,2.8,2.8C1154.6,59.6,1153.3,60.8,1151.8,60.8z"/>
</g>
<g>
	<path class="st2" d="M1170.9,79.2c1.6,1.9,2.5,2.5,2.5,2.5l3.8-3.8c0,0-0.9-1.7-2.2-2.8L1170.9,79.2z"/>
	<path class="st2" d="M1195.1,79.2c-1.6,1.9-2.5,2.5-2.5,2.5l-3.8-3.8c0,0,0.9-1.7,2.2-2.8L1195.1,79.2z"/>
	<path class="st2" d="M1168.5,76.4c0,0-2.4-11.5,11.2-18.4C1175.9,58,1163.3,64.5,1168.5,76.4z"/>
	<path class="st2" d="M1179.6,91.9c0-4.7-15-13.6-15-21.5c0-9.2,9.7-10.5,9.7-14.3c0-1.3-0.5-2.3-0.5-2.3c0,6.5-16.5,5.1-16.5,19
		c0,12,12.4,15.4,16.1,15.7S1179.6,91.9,1179.6,91.9z"/>
	<path class="st2" d="M1178.7,84c0,0,2.8,4.3,2.4,10.7C1182.9,91.4,1182.5,87.2,1178.7,84z"/>
	<path class="st2" d="M1186.3,58c13.6,6.9,11.2,18.4,11.2,18.4C1202.8,64.5,1190.2,58,1186.3,58z"/>
	<path class="st2" d="M1192.1,53.9c0,0-0.5,0.9-0.5,2.3c0,3.8,9.7,5,9.7,14.3c0,7.9-15,16.8-15,21.5c0,0,2.5-3.1,6.2-3.4
		s16.1-3.7,16.1-15.7C1208.6,59,1192.1,60.4,1192.1,53.9z"/>
	<polygon class="st2" points="1182.9,100.9 1172.4,90.3 1162.4,87.4 1166.9,89.9 1182.9,106 1199,89.9 1203.5,87.4 1193.5,90.3 	"/>
	<path class="st2" d="M1184.8,94.6c-0.3-6.4,2.4-10.7,2.4-10.7C1183.4,87.2,1183.1,91.4,1184.8,94.6z"/>
	<path class="st2" d="M1172.6,70.4c7.5,5.1,10.4,15.4,10.4,15.4s2.9-10.3,10.4-15.4c0,0-3.1-5.8-5.6-5.8s-4.8,5.8-4.8,5.8
		s-2.3-5.8-4.8-5.8S1172.6,70.4,1172.6,70.4z M1183,73.2c0,0,0,4.8,0,6.9c-2.8-7.5-7.5-10-7.5-10s0.9-2.8,2.9-2.8
		S1183,73.2,1183,73.2z"/>
</g>
<path class="st2" d="M1090.6,81c-3.6-3.6-7.1-5.7-10.1-7c1-2.8,1.8-6.3,1.8-10.7c-4.3,0-7.9,0.8-10.7,1.8c-1.3-3-3.4-6.5-7-10.1
	c-3.6,3.6-5.7,7.1-7,10.1c-2.8-1-6.3-1.8-10.7-1.8c0,4.3,0.8,7.9,1.8,10.7c-3,1.3-6.5,3.4-10.1,7c3.6,3.6,7.1,5.7,10.1,7
	c-1,2.8-1.8,6.3-1.8,10.7c4.3,0,7.9-0.8,10.7-1.8c1.3,3,3.4,6.5,7,10.1c3.6-3.6,5.7-7.1,7-10.1c2.8,1,6.3,1.8,10.7,1.8
	c0-4.3-0.8-7.9-1.8-10.7C1083.5,86.7,1087.1,84.6,1090.6,81z M1072.6,88.6l-7.3-7.3h21.2C1080.4,87.4,1074.2,88.4,1072.6,88.6z
	 M1086.6,80.7h-21.2l7.3-7.3C1074.2,73.6,1080.4,74.7,1086.6,80.7z M1079.8,66c0,2.9-0.4,5.3-1,7.4c-3.1-1.1-5.2-1.2-5.2-1.2
	s-0.1-2.1-1.2-5.2C1074.4,66.4,1076.9,66,1079.8,66z M1072.3,73.1l-7.3,7.3V59.1C1071,65.3,1072.1,71.5,1072.3,73.1z M1064.4,59.1
	v21.2l-7.3-7.3C1057.3,71.5,1058.4,65.3,1064.4,59.1z M1057,66.9c-1.1,3.1-1.2,5.2-1.2,5.2s-2.1,0.1-5.2,1.2c-0.6-2.1-1-4.5-1-7.4
	C1052.5,66,1055,66.4,1057,66.9z M1056.7,73.5l7.3,7.3h-21.2C1049,74.7,1055.2,73.6,1056.7,73.5z M1042.8,81.3h21.2l-7.3,7.3
	C1055.2,88.4,1049,87.4,1042.8,81.3z M1049.6,96.1c0-2.9,0.4-5.3,1-7.4c3.1,1.1,5.2,1.2,5.2,1.2s0.1,2.1,1.2,5.2
	C1055,95.7,1052.5,96.1,1049.6,96.1z M1057.1,89l7.3-7.3v21.2C1058.4,96.7,1057.3,90.5,1057.1,89z M1065,102.9V81.7l7.3,7.3
	C1072.1,90.5,1071,96.7,1065,102.9z M1072.4,95.1c1.1-3.1,1.2-5.2,1.2-5.2s2.1-0.1,5.2-1.2c0.6,2.1,1,4.5,1,7.4
	C1076.9,96.1,1074.4,95.7,1072.4,95.1z"/>
</svg>
