<?xml version="1.0" encoding="utf-8"?>
<!-- Generator: Adobe Illustrator 22.0.1, SVG Export Plug-In . SVG Version: 6.00 Build 0)  -->
<svg version="1.1" id="Camada_1" xmlns="http://www.w3.org/2000/svg" xmlns:xlink="http://www.w3.org/1999/xlink" x="0px" y="0px"
	 viewBox="0 0 900.9 157.9" style="enable-background:new 0 0 900.9 157.9;" xml:space="preserve">
<style type="text/css">
	.st0{fill:#E6B84C;}
	.st1{fill:#1C304C;}
	.st2{fill:#FFFFFF;}
</style>
<polygon class="st0" points="732.4,168 422.8,168 598.5,-7.7 908.6,-7.7 "/>
<polygon class="st1" points="-7.8,-7.6 649.5,-7.6 473.7,168.2 -7.8,168.3 "/>
<g>
	<g>
		<path class="st0" d="M64.5,70.2c-0.5-0.9-1.2-1.5-2.1-1.8h21.2v8.3c-0.4-1.5-1.1-2.5-2.1-3.2c-0.9-0.6-2.1-0.9-3.6-0.9H72v9h5.1
			c2,0,3.2-0.5,3.7-1.6v7.4c-0.1-0.4-0.4-0.8-1-1.1c-0.6-0.3-1.5-0.5-2.6-0.5H72v9.3h6.4c2,0,3.4-0.3,4.5-1c1-0.6,2-1.8,2.8-3.4
			l-1.5,8.7H62.8c0.4-0.1,0.8-0.3,1.2-0.7c0.4-0.4,0.7-1,1-1.7c0.3-0.8,0.4-1.8,0.4-3.1V73.7C65.3,72.3,65,71.2,64.5,70.2z"/>
		<path class="st0" d="M106.6,68.5l10.3,25.3c1.3,3.4,2.8,5.3,4.4,5.8h-12.6c0.5-0.1,0.9-0.3,1.2-0.7c0.3-0.4,0.5-0.9,0.5-1.5
			c0-0.5-0.6-2.2-1.7-5.2H96.9c-1,2.6-1.4,4.3-1.4,5c0,0.7,0.2,1.3,0.6,1.7c0.4,0.4,0.8,0.6,1.3,0.7H86.9c0.6-0.1,1.3-0.7,2.1-1.7
			c0.8-1,1.5-2.5,2.3-4.3l9.8-25.1H106.6z M102.7,76.6l-4.3,11.5h8.8L102.7,76.6z"/>
		<path class="st0" d="M141.2,87.6c-0.3-0.6-0.6-1.1-1-1.4c-0.4-0.3-0.8-0.5-1.3-0.6h11.7c-0.4,0.1-0.8,0.3-1.2,0.6
			c-0.4,0.3-0.7,0.8-1,1.4c-0.2,0.6-0.4,1.4-0.4,2.3v8.5c-3.1,1.2-6.8,1.9-11.1,1.9c-3.1,0-5.9-0.7-8.2-2c-2.4-1.3-4.2-3.2-5.6-5.6
			c-1.3-2.4-2-5.1-2-8c0-3.2,0.7-6.1,2.2-8.7c1.4-2.6,3.5-4.6,6.2-6.1c2.7-1.5,5.8-2.2,9.3-2.2c3.6,0,6.6,0.6,9,1.9v8.1
			c-0.9-1.7-2.1-3-3.8-3.9c-1.7-0.9-3.6-1.4-5.7-1.4c-3,0-5.4,1.1-7.3,3.2c-1.9,2.1-2.8,4.9-2.8,8.3c0,3.4,0.9,6.1,2.8,8.4
			s4.2,3.3,7.1,3.3c1,0,2.2-0.2,3.5-0.6v-5C141.6,89,141.5,88.2,141.2,87.6z"/>
		<path class="st0" d="M153.3,68.5h11.5c-0.4,0.1-0.7,0.3-1.1,0.6c-0.4,0.4-0.7,0.9-0.9,1.6c-0.2,0.7-0.4,1.7-0.4,2.8v15
			c0,2.6,0.5,4.5,1.6,5.5c1.1,1.1,2.7,1.6,4.9,1.6c2.3,0,3.9-0.6,4.8-1.8c0.9-1.2,1.4-3,1.4-5.3V73.7c0-3.1-0.9-4.8-2.7-5.3h11
			c-0.8,0.1-1.4,0.7-1.9,1.6c-0.5,0.9-0.7,2.2-0.7,3.7v14.7c0,7.9-4.1,11.9-12.2,11.9c-4.5,0-7.7-0.9-9.8-2.8c-2-1.9-3-4.7-3-8.5
			V73.7C155.7,70.7,154.9,68.9,153.3,68.5z"/>
		<path class="st0" d="M187.9,70.2c-0.5-0.9-1.2-1.5-2.1-1.8h21.2v8.3c-0.4-1.5-1.1-2.5-2.1-3.2c-0.9-0.6-2.1-0.9-3.6-0.9h-5.9v9
			h5.1c2,0,3.2-0.5,3.7-1.6v7.4c-0.1-0.4-0.4-0.8-1-1.1c-0.6-0.3-1.5-0.5-2.6-0.5h-5.2v9.3h6.4c2,0,3.4-0.3,4.5-1
			c1-0.6,2-1.8,2.8-3.4l-1.5,8.7h-21.3c0.4-0.1,0.8-0.3,1.2-0.7c0.4-0.4,0.7-1,1-1.7c0.3-0.8,0.4-1.8,0.4-3.1V73.7
			C188.7,72.3,188.4,71.2,187.9,70.2z"/>
		<path class="st0" d="M230.3,95.9c-2.8-2.9-4.2-6.7-4.2-11.4c0-3.1,0.7-5.9,2.1-8.5c1.4-2.6,3.3-4.6,5.9-6c2.5-1.5,5.3-2.2,8.4-2.2
			c4.5,0,8.1,1.5,10.9,4.4c2.8,2.9,4.2,6.7,4.2,11.4c0,4.7-1.5,8.7-4.5,11.9c-3,3.2-6.9,4.8-11.6,4.8
			C236.8,100.3,233.1,98.8,230.3,95.9z M248.4,92.5c1.5-1.9,2.3-4.5,2.3-7.7c0-3.7-0.9-6.6-2.6-8.9s-4-3.4-6.9-3.4
			c-2.5,0-4.5,0.9-6,2.8c-1.5,1.9-2.3,4.5-2.3,7.7c0,3.8,0.8,6.8,2.5,9c1.7,2.3,4,3.4,7,3.4C244.9,95.5,246.9,94.5,248.4,92.5z"/>
		<path class="st0" d="M262.9,70.1c-0.5-0.9-1.2-1.4-2.1-1.6H282v8.2c-0.6-1.5-1.4-2.5-2.3-3.1c-0.9-0.6-2.1-0.9-3.5-0.9h-5.8v9h5
			c1.1,0,2-0.2,2.6-0.5c0.6-0.3,1-0.7,1.1-1.2v7.7c-0.1-0.5-0.5-0.9-1.1-1.2c-0.7-0.3-1.5-0.5-2.6-0.5h-5.1v8.5
			c0,1.5,0.2,2.7,0.7,3.6c0.5,0.9,1,1.4,1.7,1.5h-11.6c0.8-0.1,1.4-0.6,1.9-1.5c0.5-0.9,0.7-2.1,0.7-3.7V73.6
			C263.7,72.1,263.4,71,262.9,70.1z"/>
		<path class="st0" d="M299.3,55.2h16.1c-1,0.2-1.8,0.9-2.5,2.2c-0.7,1.3-1,3.1-1,5.4v30.7h9c3.5,0,5.8-0.4,7.1-1.1
			c1.3-0.7,2.5-2.2,3.7-4.3l-1.8,11.5h-30.3c0.9-0.2,1.6-1,2.2-2.4c0.6-1.4,0.9-3.4,0.9-5.9V62.7C302.7,58.4,301.5,55.9,299.3,55.2z
			"/>
		<path class="st0" d="M336.9,70.2c-0.5-0.9-1.2-1.5-2.1-1.8h21.2v8.3c-0.4-1.5-1.1-2.5-2.1-3.2c-0.9-0.6-2.1-0.9-3.6-0.9h-5.9v9
			h5.1c2,0,3.2-0.5,3.7-1.6v7.4c-0.1-0.4-0.4-0.8-1-1.1c-0.6-0.3-1.5-0.5-2.6-0.5h-5.2v9.3h6.4c2,0,3.4-0.3,4.5-1
			c1-0.6,2-1.8,2.8-3.4l-1.5,8.7h-21.3c0.4-0.1,0.8-0.3,1.2-0.7c0.4-0.4,0.7-1,1-1.7c0.3-0.8,0.4-1.8,0.4-3.1V73.7
			C337.7,72.3,337.4,71.2,336.9,70.2z"/>
		<path class="st0" d="M380.1,87.6c-0.3-0.6-0.6-1.1-1-1.4s-0.8-0.5-1.3-0.6h11.7c-0.4,0.1-0.8,0.3-1.2,0.6c-0.4,0.3-0.7,0.8-1,1.4
			c-0.2,0.6-0.4,1.4-0.4,2.3v8.5c-3.1,1.2-6.8,1.9-11.1,1.9c-3.1,0-5.9-0.7-8.2-2c-2.4-1.3-4.2-3.2-5.6-5.6c-1.3-2.4-2-5.1-2-8
			c0-3.2,0.7-6.1,2.2-8.7c1.4-2.6,3.5-4.6,6.2-6.1c2.7-1.5,5.8-2.2,9.3-2.2c3.6,0,6.6,0.6,9,1.9v8.1c-0.9-1.7-2.1-3-3.8-3.9
			c-1.7-0.9-3.6-1.4-5.7-1.4c-3,0-5.4,1.1-7.3,3.2c-1.9,2.1-2.8,4.9-2.8,8.3c0,3.4,0.9,6.1,2.8,8.4c1.8,2.2,4.2,3.3,7.1,3.3
			c1,0,2.2-0.2,3.5-0.6v-5C380.6,89,380.4,88.2,380.1,87.6z"/>
		<path class="st0" d="M394.3,70.2c-0.5-0.9-1.2-1.5-2.1-1.8h21.2v8.3c-0.4-1.5-1.1-2.5-2.1-3.2c-0.9-0.6-2.1-0.9-3.6-0.9h-5.9v9
			h5.1c2,0,3.2-0.5,3.7-1.6v7.4c-0.1-0.4-0.4-0.8-1-1.1c-0.6-0.3-1.5-0.5-2.6-0.5h-5.2v9.3h6.4c2,0,3.4-0.3,4.5-1
			c1-0.6,2-1.8,2.8-3.4l-1.5,8.7h-21.3c0.4-0.1,0.8-0.3,1.2-0.7c0.4-0.4,0.7-1,1-1.7c0.3-0.8,0.4-1.8,0.4-3.1V73.7
			C395.1,72.3,394.8,71.2,394.3,70.2z"/>
		<path class="st0" d="M420.1,71.5c-0.5-0.7-1-1.4-1.7-1.9c-0.7-0.6-1.3-0.9-1.8-1.1h9.9l14.7,18.4V73.6c0-1.1-0.1-2-0.3-2.7
			c-0.2-0.7-0.5-1.2-0.8-1.6c-0.3-0.4-0.8-0.6-1.4-0.9h10.1c-0.7,0.1-1.3,0.6-1.8,1.5c-0.5,0.9-0.7,2.1-0.7,3.6v26h-4.9
			c-1.1-2.8-2.8-5.5-5-8.2L426,78.6v15.8c0,1.2,0.1,2.1,0.4,2.8c0.3,0.7,0.6,1.3,1.1,1.6c0.5,0.4,0.9,0.6,1.3,0.6h-10.4
			c0.4-0.1,0.8-0.3,1.2-0.7c0.4-0.4,0.7-0.9,0.9-1.6c0.2-0.7,0.3-1.6,0.3-2.8V74C420.8,73,420.6,72.2,420.1,71.5z"/>
		<path class="st0" d="M453.8,70.2c-0.5-0.9-1.2-1.5-2.2-1.8h14.4c4.8,0,8.7,1.4,11.6,4.2c3,2.8,4.4,6.5,4.4,11.1
			c0,4.8-1.5,8.6-4.5,11.5c-3,2.9-7,4.3-12.1,4.3H452c0.8-0.1,1.4-0.7,1.9-1.7c0.5-1,0.7-2.4,0.7-4.1V73.7
			C454.5,72.3,454.3,71.2,453.8,70.2z M472.5,92.1c1.7-2.1,2.5-4.8,2.5-8.1c0-3.6-0.9-6.4-2.8-8.4c-1.9-2-4.4-2.9-7.8-2.9h-3.2v22.6
			h4.6C468.6,95.3,470.9,94.2,472.5,92.1z"/>
		<path class="st0" d="M495.6,95.6c1.4,0,2.7-0.3,3.7-0.9c1-0.6,1.5-1.5,1.5-2.6c0-1-0.4-1.9-1.2-2.7c-0.8-0.8-2.1-1.7-4-2.6
			c-3.7-1.7-6.2-3.2-7.4-4.7c-1.2-1.4-1.8-3.1-1.8-5c0-2.8,1-5.1,3.1-6.7c2-1.7,4.7-2.5,8.1-2.5c1.5,0,2.9,0.2,4.3,0.6
			c1.4,0.4,2.5,0.9,3.3,1.5v7.4c-0.8-1.4-2-2.6-3.5-3.6c-1.5-0.9-3-1.4-4.6-1.4c-1.6,0-2.7,0.3-3.5,1c-0.8,0.7-1.1,1.5-1.1,2.4
			c0,0.9,0.4,1.7,1.1,2.4c0.7,0.7,2.4,1.7,5,2.9c3.4,1.6,5.7,3.1,6.9,4.6c1.2,1.5,1.8,3.3,1.8,5.3c0,2.8-1,5.1-3.2,6.8
			c-2.1,1.7-5,2.6-8.7,2.6c-3.6,0-6.6-0.8-9.2-2.3v-8.8C488.1,93.5,491.3,95.6,495.6,95.6z"/>
		<path class="st0" d="M27.7,55.4h16.1c-1,0.2-1.8,0.9-2.5,2.2c-0.7,1.3-1,3.1-1,5.4v30.7h9c3.5,0,5.8-0.4,7.1-1.1
			c1.3-0.7,2.5-2.2,3.7-4.3l-1.8,11.5H28c0.9-0.2,1.6-1,2.2-2.4c0.6-1.4,0.9-3.4,0.9-5.9V62.9C31.1,58.6,29.9,56.1,27.7,55.4z"/>
	</g>
	<path class="st0" d="M45.5,102.1c-2,0-4-0.3-5.9-0.8h-4.2h-1.2c3.4,1.8,7.2,2.8,11.3,2.8c4.1,0,7.9-1,11.3-2.8h-5.4
		C49.5,101.9,47.5,102.1,45.5,102.1z"/>
	<g>
		<path class="st0" d="M23,79.6c0-6.1,2.5-11.7,6.5-15.8v-2.7C24.3,65.7,21,72.3,21,79.6c0,6.9,2.9,13.1,7.5,17.6
			c0.4-0.5,0.7-1.2,0.8-2C25.4,91.2,23,85.7,23,79.6z"/>
	</g>
	<g>
		<path class="st0" d="M46.9,55.2c-1.2,0.3-2.6,0.9-3.6,2c0.7-0.1,1.4-0.1,2.2-0.1c7.9,0,14.8,4,18.8,10.1h2.3
			C62.6,60.4,55.3,55.7,46.9,55.2z"/>
		<path class="st0" d="M60.3,96.6l-0.4,2.8c1.4-1.1,2.8-2.3,4-3.6v-3.2C62.8,94.1,61.6,95.4,60.3,96.6z"/>
	</g>
</g>
<g>
	<polygon class="st2" points="694.6,69.9 693.4,73.1 693.4,65.2 688.9,68.3 684.2,89.7 689.1,97.5 690.5,88.9 690.5,108 
		696.7,100.9 695.2,70.6 	"/>
	<polygon class="st2" points="697.3,85.8 697.9,94.4 700.3,91 698.8,85.1 	"/>
	<path class="st2" d="M727,55.3c-2.6,0.6-3.9,0.6-4.6,0.6c-0.7-1.1-2-1.9-3.4-1.9c-2.3,0-4.1,1.8-4.1,4.1c0,0.1,0,0.2,0,0.4l-2.9,1
		c-0.4-0.4-0.9-0.6-1.5-0.6c-1.1,0-2,0.8-2.2,1.9l-5.5,1.9c-0.3-0.6-0.6-1.1-1-1.6l3.8-1.4l-0.4-1c0,0-0.5,0-0.8-0.1
		c-0.6-0.2-1.1-0.5-1.6-0.9c-2.9-3-6.9-4.8-11.4-4.8c-8.8,0-15.9,7.1-15.9,15.9c0,1.1,0.1,2.2,0.3,3.2l-1.7,0.6
		c-0.8-0.9-2.1-1.3-3.3-0.9c-1.4,0.4-2.2,1.7-2.2,3.1c-0.5,0.4-1.6,1.2-3.8,2.2c2.4-0.5,3.7-0.5,4.3-0.5c0.8,1.1,2.2,1.7,3.5,1.2
		c1.4-0.4,2.2-1.8,2.2-3.1l3.1-1.1c-0.5-1.4-0.8-3-0.8-4.6c0-7.9,6.4-14.2,14.2-14.2c4.4,0,8.3,2,11,5.1l-1.3,0.5
		c-2.4-2.6-5.8-4.3-9.6-4.3c-7.1,0-12.9,5.8-12.9,12.9c0,4.7,2.5,8.8,6.2,11l0.6-2.7l0,0l0.3-1.5c-2-1.7-3.2-4.1-3.2-6.9
		c0-5,4-9,9-9s9,4,9,9c0,2.9-1.4,5.6-3.6,7.2l0.6,2.6l0,0l0.3,1.4c3.9-2.2,6.6-6.4,6.6-11.3c0-1.5-0.3-2.9-0.7-4.2l5.3-1.8
		c0.4,0.4,0.9,0.6,1.5,0.6c1.1,0,2-0.8,2.2-1.9l2.9-1c0.7,1.1,2,1.8,3.4,1.8c2.3,0,4.1-1.8,4.1-4.1c0-0.1,0-0.2,0-0.3
		C723.6,57.3,724.6,56.4,727,55.3z M672.5,76.5c-1.1,0.4-2.3-0.3-2.6-1.4s0.3-2.3,1.4-2.6c1.1-0.4,2.3,0.3,2.6,1.4
		C674.2,75,673.6,76.2,672.5,76.5z M698.5,77.8l-0.3-1.3c2.2-1.9,3.7-4.7,3.7-7.9c0-5.7-4.6-10.4-10.4-10.4s-10.4,4.6-10.4,10.4
		c0,3,1.3,5.7,3.3,7.6l-0.3,1.3c-2.6-2.1-4.2-5.3-4.2-8.9c0-6.4,5.2-11.5,11.5-11.5S703,62.3,703,68.7
		C703,72.4,701.3,75.7,698.5,77.8z M710.6,62c-0.6,0-1-0.4-1-1c0-0.6,0.4-1,1-1s1,0.4,1,1C711.6,61.6,711.1,62,710.6,62z
		 M719.1,60.8c-1.5,0-2.8-1.2-2.8-2.8c0-1.5,1.2-2.8,2.8-2.8s2.8,1.2,2.8,2.8C721.9,59.6,720.6,60.8,719.1,60.8z"/>
</g>
<g>
	<path class="st2" d="M738.2,79.2c1.6,1.9,2.5,2.5,2.5,2.5l3.8-3.8c0,0-0.9-1.7-2.2-2.8L738.2,79.2z"/>
	<path class="st2" d="M762.4,79.2c-1.6,1.9-2.5,2.5-2.5,2.5l-3.8-3.8c0,0,0.9-1.7,2.2-2.8L762.4,79.2z"/>
	<path class="st2" d="M735.8,76.4c0,0-2.4-11.5,11.2-18.4C743.2,58,730.6,64.5,735.8,76.4z"/>
	<path class="st2" d="M746.9,91.9c0-4.7-15-13.6-15-21.5c0-9.2,9.7-10.5,9.7-14.3c0-1.3-0.5-2.3-0.5-2.3c0,6.5-16.5,5.1-16.5,19
		c0,12,12.4,15.4,16.1,15.7S746.9,91.9,746.9,91.9z"/>
	<path class="st2" d="M746,84c0,0,2.8,4.3,2.4,10.7C750.2,91.4,749.8,87.2,746,84z"/>
	<path class="st2" d="M753.6,58c13.6,6.9,11.2,18.4,11.2,18.4C770.1,64.5,757.5,58,753.6,58z"/>
	<path class="st2" d="M759.4,53.9c0,0-0.5,0.9-0.5,2.3c0,3.8,9.7,5,9.7,14.3c0,7.9-15,16.8-15,21.5c0,0,2.5-3.1,6.2-3.4
		c3.7-0.3,16.1-3.7,16.1-15.7C775.9,59,759.4,60.4,759.4,53.9z"/>
	<polygon class="st2" points="750.2,100.9 739.7,90.3 729.7,87.4 734.2,89.9 750.2,106 766.3,89.9 770.8,87.4 760.8,90.3 	"/>
	<path class="st2" d="M752.1,94.6c-0.3-6.4,2.4-10.7,2.4-10.7C750.7,87.2,750.4,91.4,752.1,94.6z"/>
	<path class="st2" d="M739.9,70.4c7.5,5.1,10.4,15.4,10.4,15.4s2.9-10.3,10.4-15.4c0,0-3.1-5.8-5.6-5.8c-2.5,0-4.8,5.8-4.8,5.8
		s-2.3-5.8-4.8-5.8C743,64.6,739.9,70.4,739.9,70.4z M750.3,73.2c0,0,0,4.8,0,6.9c-2.8-7.5-7.5-10-7.5-10s0.9-2.8,2.9-2.8
		S750.3,73.2,750.3,73.2z"/>
</g>
<path class="st2" d="M657.9,81c-3.6-3.6-7.1-5.7-10.1-7c1-2.8,1.8-6.3,1.8-10.7c-4.3,0-7.9,0.8-10.7,1.8c-1.3-3-3.4-6.5-7-10.1
	c-3.6,3.6-5.7,7.1-7,10.1c-2.8-1-6.3-1.8-10.7-1.8c0,4.3,0.8,7.9,1.8,10.7c-3,1.3-6.5,3.4-10.1,7c3.6,3.6,7.1,5.7,10.1,7
	c-1,2.8-1.8,6.3-1.8,10.7c4.3,0,7.9-0.8,10.7-1.8c1.3,3,3.4,6.5,7,10.1c3.6-3.6,5.7-7.1,7-10.1c2.8,1,6.3,1.8,10.7,1.8
	c0-4.3-0.8-7.9-1.8-10.7C650.8,86.7,654.4,84.6,657.9,81z M639.9,88.6l-7.3-7.3h21.2C647.7,87.4,641.5,88.4,639.9,88.6z M653.9,80.7
	h-21.2l7.3-7.3C641.5,73.6,647.7,74.7,653.9,80.7z M647.1,66c0,2.9-0.4,5.3-1,7.4c-3.1-1.1-5.2-1.2-5.2-1.2s-0.1-2.1-1.2-5.2
	C641.7,66.4,644.2,66,647.1,66z M639.6,73.1l-7.3,7.3V59.1C638.3,65.3,639.4,71.5,639.6,73.1z M631.7,59.1v21.2l-7.3-7.3
	C624.6,71.5,625.7,65.3,631.7,59.1z M624.3,66.9c-1.1,3.1-1.2,5.2-1.2,5.2s-2.1,0.1-5.2,1.2c-0.6-2.1-1-4.5-1-7.4
	C619.8,66,622.3,66.4,624.3,66.9z M624,73.5l7.3,7.3h-21.2C616.3,74.7,622.5,73.6,624,73.5z M610.1,81.3h21.2l-7.3,7.3
	C622.5,88.4,616.3,87.4,610.1,81.3z M616.9,96.1c0-2.9,0.4-5.3,1-7.4c3.1,1.1,5.2,1.2,5.2,1.2s0.1,2.1,1.2,5.2
	C622.3,95.7,619.8,96.1,616.9,96.1z M624.4,89l7.3-7.3v21.2C625.7,96.7,624.6,90.5,624.4,89z M632.3,102.9V81.7l7.3,7.3
	C639.4,90.5,638.3,96.7,632.3,102.9z M639.7,95.1c1.1-3.1,1.2-5.2,1.2-5.2s2.1-0.1,5.2-1.2c0.6,2.1,1,4.5,1,7.4
	C644.2,96.1,641.7,95.7,639.7,95.1z"/>
</svg>
