<?xml version="1.0" encoding="utf-8"?>
<!-- Generator: Adobe Illustrator 22.0.1, SVG Export Plug-In . SVG Version: 6.00 Build 0)  -->
<svg version="1.1" id="Camada_1" xmlns="http://www.w3.org/2000/svg" xmlns:xlink="http://www.w3.org/1999/xlink" x="0px" y="0px"
	 viewBox="0 0 1338.5 157.9" style="enable-background:new 0 0 1338.5 157.9;" xml:space="preserve">
<style type="text/css">
	.st0{fill:#E6B84C;}
	.st1{fill:#1C304C;}
	.st2{fill:#FFFFFF;}
</style>
<polygon class="st0" points="1170,168 860.4,168 1036.1,-7.7 1346.2,-7.7 "/>
<polygon class="st1" points="-7.8,-6.6 1087.1,-6.6 911.3,169.1 -7.8,169.3 "/>
<g>
	<g>
		<path class="st0" d="M297.1,70.2c-0.5-0.9-1.2-1.5-2.1-1.8h21.2v8.3c-0.4-1.5-1.1-2.5-2.1-3.2c-0.9-0.6-2.1-0.9-3.6-0.9h-5.9v9
			h5.1c2,0,3.2-0.5,3.7-1.6v7.4c-0.1-0.4-0.4-0.8-1-1.1c-0.6-0.3-1.5-0.5-2.6-0.5h-5.2v9.3h6.4c2,0,3.4-0.3,4.5-1
			c1-0.6,2-1.8,2.8-3.4l-1.5,8.7h-21.4c0.4-0.1,0.8-0.3,1.2-0.7c0.4-0.4,0.7-1,1-1.7c0.3-0.8,0.4-1.8,0.4-3.1V73.7
			C297.9,72.3,297.6,71.2,297.1,70.2z"/>
		<path class="st0" d="M339.2,68.5l10.3,25.3c1.3,3.4,2.8,5.3,4.4,5.8h-12.6c0.5-0.1,0.9-0.3,1.2-0.7c0.3-0.4,0.5-0.9,0.5-1.5
			c0-0.5-0.6-2.2-1.7-5.2h-11.8c-1,2.6-1.4,4.3-1.4,5s0.2,1.3,0.6,1.7c0.4,0.4,0.8,0.6,1.3,0.7h-10.5c0.6-0.1,1.3-0.7,2.1-1.7
			s1.5-2.5,2.3-4.3l9.8-25.1C333.7,68.5,339.2,68.5,339.2,68.5z M335.3,76.6L331,88.1h8.8L335.3,76.6z"/>
		<path class="st0" d="M373.8,87.6c-0.3-0.6-0.6-1.1-1-1.4c-0.4-0.3-0.8-0.5-1.3-0.6h11.7c-0.4,0.1-0.8,0.3-1.2,0.6
			c-0.4,0.3-0.7,0.8-1,1.4c-0.2,0.6-0.4,1.4-0.4,2.3v8.5c-3.1,1.2-6.8,1.9-11.1,1.9c-3.1,0-5.9-0.7-8.2-2c-2.4-1.3-4.2-3.2-5.6-5.6
			c-1.3-2.4-2-5.1-2-8c0-3.2,0.7-6.1,2.2-8.7c1.4-2.6,3.5-4.6,6.2-6.1s5.8-2.2,9.3-2.2c3.6,0,6.6,0.6,9,1.9v8.1
			c-0.9-1.7-2.1-3-3.8-3.9s-3.6-1.4-5.7-1.4c-3,0-5.4,1.1-7.3,3.2c-1.9,2.1-2.8,4.9-2.8,8.3s0.9,6.1,2.8,8.4s4.2,3.3,7.1,3.3
			c1,0,2.2-0.2,3.5-0.6v-5C374.2,89,374.1,88.2,373.8,87.6z"/>
		<path class="st0" d="M385.9,68.5h11.5c-0.4,0.1-0.7,0.3-1.1,0.6c-0.4,0.4-0.7,0.9-0.9,1.6c-0.2,0.7-0.4,1.7-0.4,2.8v15
			c0,2.6,0.5,4.5,1.6,5.5c1.1,1.1,2.7,1.6,4.9,1.6c2.3,0,3.9-0.6,4.8-1.8c0.9-1.2,1.4-3,1.4-5.3V73.7c0-3.1-0.9-4.8-2.7-5.3h11
			c-0.8,0.1-1.4,0.7-1.9,1.6s-0.7,2.2-0.7,3.7v14.7c0,7.9-4.1,11.9-12.2,11.9c-4.5,0-7.7-0.9-9.8-2.8c-2-1.9-3-4.7-3-8.5V73.7
			C388.3,70.7,387.5,68.9,385.9,68.5z"/>
		<path class="st0" d="M420.5,70.2c-0.5-0.9-1.2-1.5-2.1-1.8h21.2v8.3c-0.4-1.5-1.1-2.5-2.1-3.2c-0.9-0.6-2.1-0.9-3.6-0.9H428v9h5.1
			c2,0,3.2-0.5,3.7-1.6v7.4c-0.1-0.4-0.4-0.8-1-1.1c-0.6-0.3-1.5-0.5-2.6-0.5H428v9.3h6.4c2,0,3.4-0.3,4.5-1c1-0.6,2-1.8,2.8-3.4
			l-1.5,8.7h-21.3c0.4-0.1,0.8-0.3,1.2-0.7c0.4-0.4,0.7-1,1-1.7c0.3-0.8,0.4-1.8,0.4-3.1V73.7C421.3,72.3,421,71.2,420.5,70.2z"/>
		<path class="st0" d="M462.9,95.9c-2.8-2.9-4.2-6.7-4.2-11.4c0-3.1,0.7-5.9,2.1-8.5c1.4-2.6,3.3-4.6,5.9-6c2.5-1.5,5.3-2.2,8.4-2.2
			c4.5,0,8.1,1.5,10.9,4.4s4.2,6.7,4.2,11.4c0,4.7-1.5,8.7-4.5,11.9c-3,3.2-6.9,4.8-11.6,4.8C469.4,100.3,465.7,98.8,462.9,95.9z
			 M481,92.5c1.5-1.9,2.3-4.5,2.3-7.7c0-3.7-0.9-6.6-2.6-8.9s-4-3.4-6.9-3.4c-2.5,0-4.5,0.9-6,2.8s-2.3,4.5-2.3,7.7
			c0,3.8,0.8,6.8,2.5,9c1.7,2.3,4,3.4,7,3.4C477.5,95.5,479.5,94.5,481,92.5z"/>
		<path class="st0" d="M495.5,70.1c-0.5-0.9-1.2-1.4-2.1-1.6h21.2v8.2c-0.6-1.5-1.4-2.5-2.3-3.1c-0.9-0.6-2.1-0.9-3.5-0.9H503v9h5
			c1.1,0,2-0.2,2.6-0.5s1-0.7,1.1-1.2v7.7c-0.1-0.5-0.5-0.9-1.1-1.2c-0.7-0.3-1.5-0.5-2.6-0.5h-5.1v8.5c0,1.5,0.2,2.7,0.7,3.6
			s1,1.4,1.7,1.5h-11.6c0.8-0.1,1.4-0.6,1.9-1.5s0.7-2.1,0.7-3.7V73.6C496.3,72.1,496,71,495.5,70.1z"/>
		<path class="st0" d="M531.9,55.2H548c-1,0.2-1.8,0.9-2.5,2.2c-0.7,1.3-1,3.1-1,5.4v30.7h9c3.5,0,5.8-0.4,7.1-1.1
			c1.3-0.7,2.5-2.2,3.7-4.3l-1.8,11.5h-30.3c0.9-0.2,1.6-1,2.2-2.4s0.9-3.4,0.9-5.9V62.7C535.3,58.4,534.1,55.9,531.9,55.2z"/>
		<path class="st0" d="M569.5,70.2c-0.5-0.9-1.2-1.5-2.1-1.8h21.2v8.3c-0.4-1.5-1.1-2.5-2.1-3.2c-0.9-0.6-2.1-0.9-3.6-0.9H577v9h5.1
			c2,0,3.2-0.5,3.7-1.6v7.4c-0.1-0.4-0.4-0.8-1-1.1c-0.6-0.3-1.5-0.5-2.6-0.5H577v9.3h6.4c2,0,3.4-0.3,4.5-1c1-0.6,2-1.8,2.8-3.4
			l-1.5,8.7h-21.3c0.4-0.1,0.8-0.3,1.2-0.7c0.4-0.4,0.7-1,1-1.7c0.3-0.8,0.4-1.8,0.4-3.1V73.7C570.3,72.3,570,71.2,569.5,70.2z"/>
		<path class="st0" d="M612.7,87.6c-0.3-0.6-0.6-1.1-1-1.4c-0.4-0.3-0.8-0.5-1.3-0.6h11.7c-0.4,0.1-0.8,0.3-1.2,0.6
			c-0.4,0.3-0.7,0.8-1,1.4c-0.2,0.6-0.4,1.4-0.4,2.3v8.5c-3.1,1.2-6.8,1.9-11.1,1.9c-3.1,0-5.9-0.7-8.2-2c-2.4-1.3-4.2-3.2-5.6-5.6
			c-1.3-2.4-2-5.1-2-8c0-3.2,0.7-6.1,2.2-8.7c1.4-2.6,3.5-4.6,6.2-6.1s5.8-2.2,9.3-2.2c3.6,0,6.6,0.6,9,1.9v8.1
			c-0.9-1.7-2.1-3-3.8-3.9c-1.7-0.9-3.6-1.4-5.7-1.4c-3,0-5.4,1.1-7.3,3.2s-2.8,4.9-2.8,8.3s0.9,6.1,2.8,8.4
			c1.8,2.2,4.2,3.3,7.1,3.3c1,0,2.2-0.2,3.5-0.6v-5C613.2,89,613,88.2,612.7,87.6z"/>
		<path class="st0" d="M626.9,70.2c-0.5-0.9-1.2-1.5-2.1-1.8H646v8.3c-0.4-1.5-1.1-2.5-2.1-3.2c-0.9-0.6-2.1-0.9-3.6-0.9h-5.9v9h5.1
			c2,0,3.2-0.5,3.7-1.6v7.4c-0.1-0.4-0.4-0.8-1-1.1c-0.6-0.3-1.5-0.5-2.6-0.5h-5.2v9.3h6.4c2,0,3.4-0.3,4.5-1c1-0.6,2-1.8,2.8-3.4
			l-1.5,8.7h-21.3c0.4-0.1,0.8-0.3,1.2-0.7c0.4-0.4,0.7-1,1-1.7c0.3-0.8,0.4-1.8,0.4-3.1V73.7C627.7,72.3,627.4,71.2,626.9,70.2z"/>
		<path class="st0" d="M652.7,71.5c-0.5-0.7-1-1.4-1.7-1.9c-0.7-0.6-1.3-0.9-1.8-1.1h9.9l14.7,18.4V73.6c0-1.1-0.1-2-0.3-2.7
			c-0.2-0.7-0.5-1.2-0.8-1.6s-0.8-0.6-1.4-0.9h10.1c-0.7,0.1-1.3,0.6-1.8,1.5s-0.7,2.1-0.7,3.6v26H674c-1.1-2.8-2.8-5.5-5-8.2
			l-10.4-12.7v15.8c0,1.2,0.1,2.1,0.4,2.8c0.3,0.7,0.6,1.3,1.1,1.6c0.5,0.4,0.9,0.6,1.3,0.6H651c0.4-0.1,0.8-0.3,1.2-0.7
			c0.4-0.4,0.7-0.9,0.9-1.6c0.2-0.7,0.3-1.6,0.3-2.8V74C653.4,73,653.2,72.2,652.7,71.5z"/>
		<path class="st0" d="M686.4,70.2c-0.5-0.9-1.2-1.5-2.2-1.8h14.4c4.8,0,8.7,1.4,11.6,4.2c3,2.8,4.4,6.5,4.4,11.1
			c0,4.8-1.5,8.6-4.5,11.5s-7,4.3-12.1,4.3h-13.4c0.8-0.1,1.4-0.7,1.9-1.7s0.7-2.4,0.7-4.1v-20C687.1,72.3,686.9,71.2,686.4,70.2z
			 M705.1,92.1c1.7-2.1,2.5-4.8,2.5-8.1c0-3.6-0.9-6.4-2.8-8.4s-4.4-2.9-7.8-2.9h-3.2v22.6h4.6C701.2,95.3,703.5,94.2,705.1,92.1z"
			/>
		<path class="st0" d="M728.2,95.6c1.4,0,2.7-0.3,3.7-0.9s1.5-1.5,1.5-2.6c0-1-0.4-1.9-1.2-2.7c-0.8-0.8-2.1-1.7-4-2.6
			c-3.7-1.7-6.2-3.2-7.4-4.7c-1.2-1.4-1.8-3.1-1.8-5c0-2.8,1-5.1,3.1-6.7c2-1.7,4.7-2.5,8.1-2.5c1.5,0,2.9,0.2,4.3,0.6
			s2.5,0.9,3.3,1.5v7.4c-0.8-1.4-2-2.6-3.5-3.6c-1.5-0.9-3-1.4-4.6-1.4c-1.6,0-2.7,0.3-3.5,1c-0.8,0.7-1.1,1.5-1.1,2.4
			s0.4,1.7,1.1,2.4c0.7,0.7,2.4,1.7,5,2.9c3.4,1.6,5.7,3.1,6.9,4.6c1.2,1.5,1.8,3.3,1.8,5.3c0,2.8-1,5.1-3.2,6.8
			c-2.1,1.7-5,2.6-8.7,2.6c-3.6,0-6.6-0.8-9.2-2.3v-8.8C720.7,93.5,723.9,95.6,728.2,95.6z"/>
		<path class="st0" d="M260.3,55.4h16.1c-1,0.2-1.8,0.9-2.5,2.2c-0.7,1.3-1,3.1-1,5.4v30.7h9c3.5,0,5.8-0.4,7.1-1.1
			c1.3-0.7,2.5-2.2,3.7-4.3l-1.8,11.5h-30.3c0.9-0.2,1.6-1,2.2-2.4c0.6-1.4,0.9-3.4,0.9-5.9V62.9C263.7,58.6,262.5,56.1,260.3,55.4z
			"/>
	</g>
	<path class="st0" d="M278.1,102.1c-2,0-4-0.3-5.9-0.8H268h-1.2c3.4,1.8,7.2,2.8,11.3,2.8s7.9-1,11.3-2.8H284
		C282.1,101.9,280.1,102.1,278.1,102.1z"/>
	<g>
		<path class="st0" d="M255.6,79.6c0-6.1,2.5-11.7,6.5-15.8v-2.7c-5.2,4.6-8.5,11.2-8.5,18.5c0,6.9,2.9,13.1,7.5,17.6
			c0.4-0.5,0.7-1.2,0.8-2C258,91.2,255.6,85.7,255.6,79.6z"/>
	</g>
	<g>
		<path class="st0" d="M279.5,55.2c-1.2,0.3-2.6,0.9-3.6,2c0.7-0.1,1.4-0.1,2.2-0.1c7.9,0,14.8,4,18.8,10.1h2.3
			C295.2,60.4,287.9,55.7,279.5,55.2z"/>
		<path class="st0" d="M292.9,96.6l-0.4,2.8c1.4-1.1,2.8-2.3,4-3.6v-3.2C295.4,94.1,294.2,95.4,292.9,96.6z"/>
	</g>
</g>
<g>
	<polygon class="st2" points="1127.3,69.9 1126.1,73.1 1126.1,65.2 1121.6,68.3 1116.9,89.7 1121.8,97.5 1123.2,88.9 1123.2,108 
		1129.4,100.9 1127.9,70.6 	"/>
	<polygon class="st2" points="1130,85.8 1130.6,94.4 1133,91 1131.5,85.1 	"/>
	<path class="st2" d="M1159.7,55.3c-2.6,0.6-3.9,0.6-4.6,0.6c-0.7-1.1-2-1.9-3.4-1.9c-2.3,0-4.1,1.8-4.1,4.1c0,0.1,0,0.2,0,0.4
		l-2.9,1c-0.4-0.4-0.9-0.6-1.5-0.6c-1.1,0-2,0.8-2.2,1.9l-5.5,1.9c-0.3-0.6-0.6-1.1-1-1.6l3.8-1.4l-0.4-1c0,0-0.5,0-0.8-0.1
		c-0.6-0.2-1.1-0.5-1.6-0.9c-2.9-3-6.9-4.8-11.4-4.8c-8.8,0-15.9,7.1-15.9,15.9c0,1.1,0.1,2.2,0.3,3.2l-1.7,0.6
		c-0.8-0.9-2.1-1.3-3.3-0.9c-1.4,0.4-2.2,1.7-2.2,3.1c-0.5,0.4-1.6,1.2-3.8,2.2c2.4-0.5,3.7-0.5,4.3-0.5c0.8,1.1,2.2,1.7,3.5,1.2
		c1.4-0.4,2.2-1.8,2.2-3.1l3.1-1.1c-0.5-1.4-0.8-3-0.8-4.6c0-7.9,6.4-14.2,14.2-14.2c4.4,0,8.3,2,11,5.1l-1.3,0.5
		c-2.4-2.6-5.8-4.3-9.6-4.3c-7.1,0-12.9,5.8-12.9,12.9c0,4.7,2.5,8.8,6.2,11l0.6-2.7l0,0l0.3-1.5c-2-1.7-3.2-4.1-3.2-6.9
		c0-5,4-9,9-9s9,4,9,9c0,2.9-1.4,5.6-3.6,7.2l0.6,2.6l0,0l0.3,1.4c3.9-2.2,6.6-6.4,6.6-11.3c0-1.5-0.3-2.9-0.7-4.2l5.3-1.8
		c0.4,0.4,0.9,0.6,1.5,0.6c1.1,0,2-0.8,2.2-1.9l2.9-1c0.7,1.1,2,1.8,3.4,1.8c2.3,0,4.1-1.8,4.1-4.1c0-0.1,0-0.2,0-0.3
		C1156.3,57.3,1157.3,56.4,1159.7,55.3z M1105.2,76.5c-1.1,0.4-2.3-0.3-2.6-1.4c-0.3-1.1,0.3-2.3,1.4-2.6c1.1-0.4,2.3,0.3,2.6,1.4
		C1106.9,75,1106.3,76.2,1105.2,76.5z M1131.2,77.8l-0.3-1.3c2.2-1.9,3.7-4.7,3.7-7.9c0-5.7-4.6-10.4-10.4-10.4s-10.4,4.6-10.4,10.4
		c0,3,1.3,5.7,3.3,7.6l-0.3,1.3c-2.6-2.1-4.2-5.3-4.2-8.9c0-6.4,5.2-11.5,11.5-11.5c6.3,0,11.6,5.2,11.6,11.6
		C1135.7,72.4,1134,75.7,1131.2,77.8z M1143.3,62c-0.6,0-1-0.4-1-1s0.4-1,1-1s1,0.4,1,1S1143.8,62,1143.3,62z M1151.8,60.8
		c-1.5,0-2.8-1.2-2.8-2.8c0-1.5,1.2-2.8,2.8-2.8s2.8,1.2,2.8,2.8C1154.6,59.6,1153.3,60.8,1151.8,60.8z"/>
</g>
<g>
	<path class="st2" d="M1170.9,79.2c1.6,1.9,2.5,2.5,2.5,2.5l3.8-3.8c0,0-0.9-1.7-2.2-2.8L1170.9,79.2z"/>
	<path class="st2" d="M1195.1,79.2c-1.6,1.9-2.5,2.5-2.5,2.5l-3.8-3.8c0,0,0.9-1.7,2.2-2.8L1195.1,79.2z"/>
	<path class="st2" d="M1168.5,76.4c0,0-2.4-11.5,11.2-18.4C1175.9,58,1163.3,64.5,1168.5,76.4z"/>
	<path class="st2" d="M1179.6,91.9c0-4.7-15-13.6-15-21.5c0-9.2,9.7-10.5,9.7-14.3c0-1.3-0.5-2.3-0.5-2.3c0,6.5-16.5,5.1-16.5,19
		c0,12,12.4,15.4,16.1,15.7S1179.6,91.9,1179.6,91.9z"/>
	<path class="st2" d="M1178.7,84c0,0,2.8,4.3,2.4,10.7C1182.9,91.4,1182.5,87.2,1178.7,84z"/>
	<path class="st2" d="M1186.3,58c13.6,6.9,11.2,18.4,11.2,18.4C1202.8,64.5,1190.2,58,1186.3,58z"/>
	<path class="st2" d="M1192.1,53.9c0,0-0.5,0.9-0.5,2.3c0,3.8,9.7,5,9.7,14.3c0,7.9-15,16.8-15,21.5c0,0,2.5-3.1,6.2-3.4
		c3.7-0.3,16.1-3.7,16.1-15.7C1208.6,59,1192.1,60.4,1192.1,53.9z"/>
	<polygon class="st2" points="1182.9,100.9 1172.4,90.3 1162.4,87.4 1166.9,89.9 1182.9,106 1199,89.9 1203.5,87.4 1193.5,90.3 	"/>
	<path class="st2" d="M1184.8,94.6c-0.3-6.4,2.4-10.7,2.4-10.7C1183.4,87.2,1183.1,91.4,1184.8,94.6z"/>
	<path class="st2" d="M1172.6,70.4c7.5,5.1,10.4,15.4,10.4,15.4s2.9-10.3,10.4-15.4c0,0-3.1-5.8-5.6-5.8s-4.8,5.8-4.8,5.8
		s-2.3-5.8-4.8-5.8C1175.7,64.6,1172.6,70.4,1172.6,70.4z M1183,73.2c0,0,0,4.8,0,6.9c-2.8-7.5-7.5-10-7.5-10s0.9-2.8,2.9-2.8
		S1183,73.2,1183,73.2z"/>
</g>
<path class="st2" d="M1090.6,81c-3.6-3.6-7.1-5.7-10.1-7c1-2.8,1.8-6.3,1.8-10.7c-4.3,0-7.9,0.8-10.7,1.8c-1.3-3-3.4-6.5-7-10.1
	c-3.6,3.6-5.7,7.1-7,10.1c-2.8-1-6.3-1.8-10.7-1.8c0,4.3,0.8,7.9,1.8,10.7c-3,1.3-6.5,3.4-10.1,7c3.6,3.6,7.1,5.7,10.1,7
	c-1,2.8-1.8,6.3-1.8,10.7c4.3,0,7.9-0.8,10.7-1.8c1.3,3,3.4,6.5,7,10.1c3.6-3.6,5.7-7.1,7-10.1c2.8,1,6.3,1.8,10.7,1.8
	c0-4.3-0.8-7.9-1.8-10.7C1083.5,86.7,1087.1,84.6,1090.6,81z M1072.6,88.6l-7.3-7.3h21.2C1080.4,87.4,1074.2,88.4,1072.6,88.6z
	 M1086.6,80.7h-21.2l7.3-7.3C1074.2,73.6,1080.4,74.7,1086.6,80.7z M1079.8,66c0,2.9-0.4,5.3-1,7.4c-3.1-1.1-5.2-1.2-5.2-1.2
	s-0.1-2.1-1.2-5.2C1074.4,66.4,1076.9,66,1079.8,66z M1072.3,73.1l-7.3,7.3V59.1C1071,65.3,1072.1,71.5,1072.3,73.1z M1064.4,59.1
	v21.2l-7.3-7.3C1057.3,71.5,1058.4,65.3,1064.4,59.1z M1057,66.9c-1.1,3.1-1.2,5.2-1.2,5.2s-2.1,0.1-5.2,1.2c-0.6-2.1-1-4.5-1-7.4
	C1052.5,66,1055,66.4,1057,66.9z M1056.7,73.5l7.3,7.3h-21.2C1049,74.7,1055.2,73.6,1056.7,73.5z M1042.8,81.3h21.2l-7.3,7.3
	C1055.2,88.4,1049,87.4,1042.8,81.3z M1049.6,96.1c0-2.9,0.4-5.3,1-7.4c3.1,1.1,5.2,1.2,5.2,1.2s0.1,2.1,1.2,5.2
	C1055,95.7,1052.5,96.1,1049.6,96.1z M1057.1,89l7.3-7.3v21.2C1058.4,96.7,1057.3,90.5,1057.1,89z M1065,102.9V81.7l7.3,7.3
	C1072.1,90.5,1071,96.7,1065,102.9z M1072.4,95.1c1.1-3.1,1.2-5.2,1.2-5.2s2.1-0.1,5.2-1.2c0.6,2.1,1,4.5,1,7.4
	C1076.9,96.1,1074.4,95.7,1072.4,95.1z"/>
</svg>
