<?xml version="1.0" encoding="utf-8"?>
<!-- Generator: Adobe Illustrator 22.0.1, SVG Export Plug-In . SVG Version: 6.00 Build 0)  -->
<svg version="1.1" id="Camada_1" xmlns="http://www.w3.org/2000/svg" xmlns:xlink="http://www.w3.org/1999/xlink" x="0px" y="0px"
	 viewBox="0 0 903.9 157.9" style="enable-background:new 0 0 903.9 157.9;" xml:space="preserve">
<style type="text/css">
	.st0{fill:#D60D47;}
	.st1{fill:#FFCC00;}
	.st2{fill:#FFFFFF;}
	.st3{clip-path:url(#SVGID_2_);}
</style>
<rect x="0" y="0" class="st0" width="903.8" height="158"/>
<polygon class="st1" points="903.9,157.9 531,158 452,78.9 531,-0.1 903.9,-0.1 "/>
<g>
	<path class="st2" d="M688.4,95.8V75.4l-7.6,20.4h-4.6l-7.6-20.4v20.4h-10.3V61.9h14.2l5.9,16.2l5.9-16.2h14.2v33.9H688.4z"/>
	<path class="st2" d="M726.7,95.8l-1.2-4h-12.2l-1.2,4h-11.6L713,61.9h12.9l12.5,33.9H726.7z M719.4,72L716,82.9h6.7L719.4,72z"/>
	<path class="st2" d="M758.8,95.8l-4.7-10.7h-3.7v10.7h-10.3V61.9h18.1c7.9,0,12.2,5.3,12.2,11.6c0,5.8-3.4,8.9-6.1,10.3l6.1,12
		H758.8z M760,73.6c0-1.8-1.6-2.6-3.4-2.6h-6.2v5.3h6.2C758.4,76.3,760,75.4,760,73.6z"/>
	<path class="st2" d="M772.8,78.9c0-10.5,8-17.5,18.6-17.5c8.9,0,13.4,5.2,15.4,9.8l-8.8,4.1c-0.9-2.6-3.5-4.9-6.5-4.9
		c-4.9,0-8.2,3.8-8.2,8.5s3.3,8.5,8.2,8.5c3,0,5.7-2.3,6.5-4.9l8.8,4.1c-2,4.5-6.5,9.9-15.4,9.9C780.8,96.5,772.8,89.3,772.8,78.9z"
		/>
	<path class="st2" d="M832.1,95.8l-1.2-4h-12.2l-1.2,4h-11.6l12.5-33.9h12.9l12.5,33.9H832.1z M824.8,72l-3.4,10.9h6.7L824.8,72z"/>
	<path class="st2" d="M842.9,91.1l5.3-7.6c2.5,2.4,6.3,4.4,10.9,4.4c1.9,0,3.8-0.5,3.8-1.8c0-3.2-18.9,0.1-18.9-13.3
		c0-5.7,4.8-11.2,14.1-11.2c5.5,0,10.5,1.6,14.4,4.7l-5.5,7.3c-2.9-2.2-6.8-3.4-10-3.4c-2,0-2.6,0.7-2.6,1.5c0,3.2,18.8,0.5,18.8,13
		c0,7.5-5.5,11.8-14.6,11.8C851.5,96.5,846.5,94.3,842.9,91.1z"/>
</g>
<g>
	<defs>
		<rect id="SVGID_1_" x="0" y="0" width="354" height="158"/>
	</defs>
	<clipPath id="SVGID_2_">
		<use xlink:href="#SVGID_1_"  style="overflow:visible;"/>
	</clipPath>
	<g id="Marcas2" class="st3">
		<polygon class="st2" points="250.5,79 224.5,63 196.6,75.4 203.7,45.8 183.4,23.1 213.8,20.7 229.1,-5.7 240.7,22.5 270.5,28.9 
			247.3,48.7 		"/>
		<polygon class="st2" points="56.5,162.4 52,102.2 0,71.8 55.8,49 68.6,-9.9 107.6,36.1 167.6,30.1 135.8,81.4 160.1,136.6 
			101.5,122.3 		"/>
		<polygon class="st2" points="232,95.1 252.3,102.4 269.8,89.8 269.2,111.4 286.6,124.2 265.9,130.2 259.1,150.7 247,132.9 
			225.4,132.8 238.6,115.7 		"/>
	</g>
</g>
</svg>
