<?xml version="1.0" encoding="utf-8"?>
<!-- Generator: Adobe Illustrator 22.0.1, SVG Export Plug-In . SVG Version: 6.00 Build 0)  -->
<svg version="1.1" id="Camada_1" xmlns="http://www.w3.org/2000/svg" xmlns:xlink="http://www.w3.org/1999/xlink" x="0px" y="0px"
	 viewBox="0 0 900.9 157.9" style="enable-background:new 0 0 900.9 157.9;" xml:space="preserve">
<style type="text/css">
	.st0{fill:#D60D47;}
	.st1{clip-path:url(#SVGID_2_);fill:#FFFFFF;}
	.st2{fill:none;stroke:#000000;stroke-miterlimit:10;}
	.st3{fill:#FFCC00;}
	.st4{fill:#FFFFFF;}
</style>
<polygon class="st0" points="165.7,-7.4 475.4,-7.4 299.7,168.3 -10.4,168.3 "/>
<g>
	<defs>
		<polygon id="SVGID_1_" points="158.7,1.2 468.8,1.6 310.8,159.5 0,159.4 		"/>
	</defs>
	<clipPath id="SVGID_2_">
		<use xlink:href="#SVGID_1_"  style="overflow:visible;"/>
	</clipPath>
	<path class="st1" d="M289.6,69l-48.5-14.7c-0.8-0.3-1.5-0.9-1.8-1.7L223.9,4.2c-0.7-2.1-3.4-2.5-4.7-0.7l-28.9,41.6
		c-0.5,0.7-1.3,1.1-2.2,1.1L137.4,46c-2.2,0-3.4,2.5-2.1,4.2l30.6,40.4c0.5,0.7,0.7,1.6,0.4,2.4l-15.9,48.2c-0.7,2.1,1.3,4,3.4,3.3
		l47.9-16.6c0.8-0.3,1.7-0.1,2.4,0.4l40.9,30c1.8,1.3,4.3,0,4.2-2.2l-1.1-50.7c0-0.9,0.4-1.7,1.1-2.2l41.2-29.6
		C292.2,72.4,291.7,69.6,289.6,69z M205.6,105.4l-23.4,8.1c-1.7,0.6-3.3-1-2.7-2.7l7.8-23.6c0.2-0.7,0.1-1.4-0.3-2l-15-19.8
		c-1.1-1.4-0.1-3.5,1.7-3.5l24.8,0.1c0.7,0,1.4-0.3,1.8-0.9l14.2-20.4c1-1.5,3.3-1.1,3.8,0.6l7.6,23.6c0.2,0.7,0.7,1.2,1.4,1.4
		l23.7,7.2c1.7,0.5,2.1,2.8,0.6,3.8L231.4,92c-0.6,0.4-0.9,1.1-0.9,1.8l0.5,24.8c0,1.8-2,2.8-3.4,1.8l-20-14.7
		C207,105.3,206.3,105.1,205.6,105.4z"/>
	<path class="st1" d="M390.4,11.9L376.1,19c-0.2,0.1-0.5,0.1-0.8,0l-14-7.7c-0.6-0.3-1.3,0.2-1.2,0.9l2.4,15.8
		c0,0.3-0.1,0.5-0.3,0.7l-11.7,10.9c-0.5,0.5-0.2,1.3,0.4,1.4l15.8,2.6c0.3,0,0.5,0.2,0.6,0.5l6.8,14.5c0.3,0.6,1.2,0.6,1.5,0
		l7.4-14.2c0.1-0.2,0.4-0.4,0.6-0.4l15.9-2c0.7-0.1,1-0.9,0.5-1.4l-11.2-11.4c-0.2-0.2-0.3-0.5-0.2-0.7l3-15.7
		C391.7,12.1,391,11.6,390.4,11.9z M379,38.4l-3.6,6.9c-0.3,0.5-1,0.5-1.2,0l-3.3-7.1c-0.1-0.2-0.3-0.3-0.5-0.4l-7.7-1.3
		c-0.6-0.1-0.8-0.8-0.4-1.2l5.7-5.3c0.2-0.2,0.2-0.4,0.2-0.6l-1.2-7.7c-0.1-0.6,0.5-1,1-0.7l6.9,3.8c0.2,0.1,0.4,0.1,0.6,0l7-3.5
		c0.5-0.3,1.1,0.2,1,0.7l-1.5,7.7c0,0.2,0,0.4,0.2,0.6l5.5,5.6c0.4,0.4,0.2,1.1-0.4,1.2l-7.8,1C379.3,38.1,379.1,38.2,379,38.4z"/>
	<path class="st1" d="M367.2,79.3l-25.6,0.7c-0.4,0-0.9-0.2-1.1-0.5l-15.2-20.7c-0.7-0.9-2.1-0.6-2.4,0.4l-7.2,24.6
		c-0.1,0.4-0.4,0.8-0.9,0.9l-24.4,8c-1.1,0.3-1.3,1.8-0.3,2.4l21.1,14.5c0.4,0.2,0.6,0.7,0.6,1.1l0.1,25.7c0,1.1,1.3,1.7,2.2,1.1
		l20.3-15.7c0.3-0.3,0.8-0.3,1.2-0.2l24.4,7.8c1.1,0.3,2-0.7,1.7-1.7l-8.7-24.2c-0.1-0.4-0.1-0.9,0.2-1.2l15-20.8
		C368.9,80.5,368.3,79.3,367.2,79.3z M332.7,110.3l-9.9,7.7c-0.7,0.6-1.8,0-1.8-0.9l0-12.6c0-0.4-0.2-0.7-0.5-0.9l-10.3-7.1
		c-0.7-0.5-0.6-1.7,0.3-1.9l11.9-3.9c0.3-0.1,0.6-0.4,0.7-0.7l3.5-12c0.3-0.9,1.4-1.1,1.9-0.3l7.4,10.1c0.2,0.3,0.6,0.5,0.9,0.4
		l12.5-0.4c0.9,0,1.4,1,0.9,1.7l-7.4,10.2c-0.2,0.3-0.3,0.7-0.1,1l4.2,11.8c0.3,0.8-0.5,1.7-1.4,1.4l-12-3.8
		C333.4,110,333,110.1,332.7,110.3z"/>
</g>
<polygon class="st3" points="906,168.3 248.7,168.3 424.4,-7.6 906,-7.7 "/>
<g>
	<path class="st4" d="M684.9,97.2V76.8l-7.6,20.4h-4.6l-7.6-20.4v20.4h-10.3V63.3H669l5.9,16.2l5.9-16.2H695v33.9H684.9z"/>
	<path class="st4" d="M723.2,97.2l-1.2-4h-12.2l-1.2,4H697l12.5-33.9h12.9l12.5,33.9H723.2z M715.9,73.4l-3.4,10.9h6.7L715.9,73.4z"
		/>
	<path class="st4" d="M755.3,97.2l-4.7-10.7h-3.7v10.7h-10.3V63.3h18.1c7.9,0,12.2,5.3,12.2,11.6c0,5.8-3.4,8.9-6.1,10.3l6.1,12
		H755.3z M756.5,75c0-1.8-1.6-2.6-3.4-2.6h-6.2v5.3h6.2C754.9,77.7,756.5,76.8,756.5,75z"/>
	<path class="st4" d="M769.3,80.3c0-10.5,8-17.5,18.6-17.5c8.9,0,13.4,5.2,15.4,9.8l-8.8,4.1c-0.9-2.6-3.5-4.9-6.5-4.9
		c-4.9,0-8.2,3.8-8.2,8.5c0,4.7,3.3,8.5,8.2,8.5c3,0,5.7-2.3,6.5-4.9l8.8,4.1c-2,4.5-6.5,9.9-15.4,9.9
		C777.3,97.9,769.3,90.7,769.3,80.3z"/>
	<path class="st4" d="M828.5,97.2l-1.2-4h-12.2l-1.2,4h-11.6l12.5-33.9h12.9l12.5,33.9H828.5z M821.2,73.4l-3.4,10.9h6.7L821.2,73.4
		z"/>
	<path class="st4" d="M839.3,92.5l5.3-7.6c2.5,2.4,6.3,4.4,10.9,4.4c1.9,0,3.8-0.5,3.8-1.8c0-3.2-18.9,0.1-18.9-13.3
		c0-5.7,4.8-11.2,14.1-11.2c5.5,0,10.5,1.6,14.4,4.7l-5.5,7.3c-2.9-2.2-6.8-3.4-10-3.4c-2,0-2.6,0.7-2.6,1.5c0,3.2,18.8,0.5,18.8,13
		c0,7.5-5.5,11.8-14.6,11.8C847.9,97.9,842.9,95.7,839.3,92.5z"/>
</g>
</svg>
