<?xml version="1.0" encoding="utf-8"?>
<!-- Generator: Adobe Illustrator 22.0.1, SVG Export Plug-In . SVG Version: 6.00 Build 0)  -->
<svg version="1.1" id="Camada_1" xmlns="http://www.w3.org/2000/svg" xmlns:xlink="http://www.w3.org/1999/xlink" x="0px" y="0px"
	 viewBox="0 0 900.9 157.9" style="enable-background:new 0 0 900.9 157.9;" xml:space="preserve">
<style type="text/css">
	.st0{fill:#56B7E0;}
	.st1{fill:none;stroke:#000000;stroke-miterlimit:10;}
	.st2{fill:#D60D47;}
	.st3{fill:#FFFFFF;}
	.st4{clip-path:url(#SVGID_2_);}
</style>
<polygon class="st0" points="165.7,-7.4 475.4,-7.4 299.7,168.3 -10.4,168.3 "/>
<polygon class="st2" points="906,168.3 248.7,168.3 424.4,-7.6 906,-7.7 "/>
<g>
	<path class="st3" d="M488.1,97.5V63.2h18.3c8,0,12.3,5.4,12.3,11.7c0,6.4-4.3,11.7-12.3,11.7h-7.9v10.8H488.1L488.1,97.5z
		 M508.2,75c0-1.8-1.4-2.7-3.1-2.7h-6.6v5.4h6.6C506.8,77.7,508.2,76.9,508.2,75z"/>
	<path class="st3" d="M540.9,97.5l-4.8-10.8h-3.7v10.8H522V63.2h18.3c8,0,12.3,5.4,12.3,11.7c0,5.9-3.4,9-6.2,10.4l6.2,12.1
		C552.7,97.5,540.9,97.5,540.9,97.5z M542.2,75c0-1.8-1.6-2.6-3.4-2.6h-6.3v5.4h6.3C540.5,77.7,542.2,76.9,542.2,75z"/>
	<path class="st3" d="M555,80.4c0-10.5,8.2-17.7,18.7-17.7s18.7,7.2,18.7,17.7s-8.2,17.7-18.7,17.7C563.2,98.1,555,90.9,555,80.4z
		 M582,80.4c0-4.8-3.2-8.6-8.2-8.6c-5,0-8.2,3.8-8.2,8.6s3.2,8.6,8.2,8.6C578.8,89,582,85.3,582,80.4z"/>
	<path class="st3" d="M626.5,97.5V76.9l-7.7,20.6h-4.7l-7.7-20.6v20.6h-10.4V63.2h14.4l6,16.4l6-16.4h14.4v34.3H626.5z"/>
	<path class="st3" d="M640.6,80.4c0-10.5,8.2-17.7,18.7-17.7c10.5,0,18.7,7.2,18.7,17.7s-8.2,17.7-18.7,17.7
		C648.8,98.1,640.6,90.9,640.6,80.4z M667.5,80.4c0-4.8-3.2-8.6-8.2-8.6c-5,0-8.2,3.8-8.2,8.6s3.2,8.6,8.2,8.6
		C664.3,89,667.5,85.3,667.5,80.4z"/>
	<path class="st3" d="M679.9,80.4c0-10.6,8.1-17.7,18.8-17.7c9,0,13.6,5.3,15.6,9.9l-8.9,4.1c-0.9-2.6-3.5-5-6.6-5
		c-5,0-8.3,3.8-8.3,8.6s3.3,8.6,8.3,8.6c3,0,5.8-2.3,6.6-5l8.9,4.1c-2,4.6-6.6,10-15.6,10C688,98.2,679.9,90.9,679.9,80.4z"/>
	<path class="st3" d="M717.6,97.5V63.2H728v34.3H717.6z"/>
	<path class="st3" d="M731.6,80.4c0-10.5,8.2-17.7,18.7-17.7c10.5,0,18.7,7.2,18.7,17.7s-8.2,17.7-18.7,17.7
		C739.8,98.1,731.6,90.9,731.6,80.4z M758.5,80.4c0-4.8-3.2-8.6-8.2-8.6s-8.2,3.8-8.2,8.6s3.2,8.6,8.2,8.6
		C755.3,89,758.5,85.3,758.5,80.4z"/>
	<path class="st3" d="M795.7,97.5l-12.6-17.4v17.4h-10.4V63.2h10.7l11.9,16.2V63.2h10.4v34.3C805.8,97.5,795.7,97.5,795.7,97.5z"/>
	<path class="st3" d="M834.2,97.5l-1.2-4h-12.3l-1.2,4h-11.7l12.6-34.3h13L846,97.5H834.2z M826.8,73.4l-3.4,11h6.8L826.8,73.4z"/>
	<path class="st3" d="M847.7,97.5V63.2h10.4v25.2h12.9v9h-23.4V97.5L847.7,97.5z"/>
</g>
<g>
	<defs>
		<polygon id="SVGID_1_" points="160.6,0.3 474.4,0.8 314.6,160.6 0,160.5 		"/>
	</defs>
	<clipPath id="SVGID_2_">
		<use xlink:href="#SVGID_1_"  style="overflow:visible;"/>
	</clipPath>
	<g class="st4">
		<path class="st3" d="M232.4,76.6c-6.6-14.3-13.5-29.1-20.3-43.6c-1.1-2.5-2.2-4.4-3.4-6c-2.9-4.1-7.1-5.8-11.9-4.9
			c-5.3,1.1-8.6,4.4-9.5,9.4c-0.4,2.6-1.6,4.6-3.9,6.7c-19.3,17.6-36.5,33.5-52.7,48.5c-1.8,1.7-3.3,2.5-6,2.2
			c-3.6-0.4-6.8,0.7-8.7,3.1c-1.9,2.3-2.4,5.4-1.3,8.6c2.9,9.3,7.2,18.5,13,28.2c1.8,2.9,4.7,4.7,7.9,4.7c3,0,5.6-1.5,7.3-4.1
			c2.2-3.5,5-4,8.2-4.1c-5.9,1.3-9.2,5.8-11.6,9.8c-2.7,4.6-5.3,8.8-7.8,12.6c-0.3,0.5-0.6,0.9-0.9,1.4c-1.6,2.4-3,4.8-5.8,6
			c-3.5,1.7-7,3.5-10.3,5.2c-3.4,1.8-6.8,3.6-10.3,5.2c-1.9,0.9-3,2-3.5,3.3c-0.5,1.3-0.3,2.8,0.6,4.6c4.1,8.7,8.3,17.7,12.4,26.6
			c0.8,1.8,1.8,2.8,3,3.3c0.6,0.2,1.3,0.3,2.1,0.2c0.8-0.1,1.6-0.4,2.5-0.8c4.2-2.1,8.5-4.1,12.7-6c2.3-1.1,4.6-2.1,6.8-3.2
			c2.1-1,3.8-1.5,5.8-1.2c10.5,1.8,20.5-0.3,29-2.6c1.7-0.5,3.4-1.1,5-1.6c2.5-0.9,5.1-1.8,7.7-2.3c8.7-1.8,9.6-3.1,9.7-12
			c0-0.2,0-0.5-0.1-0.7c-0.1-0.6-0.1-1.1,0-1.5c2.4-7.7,2.6-15.8,2.9-23.6c0.1-4.1,0.3-8.4,0.7-12.6c0.3-2.5-0.3-4.8-1.8-6.4
			c-1.5-1.6-3.7-2.4-6.4-2.3c-1.8,0.1-2.3-0.3-2.4-0.4c-0.3-0.4,0-1.7,0.3-2.8l0-0.1c0.6-2.4,2.1-3.6,5.1-4c0,0,0,0,0,0
			c6-0.7,12.3-1.5,18.4-2.4c5.8-0.8,10.1-0.9,14.9,1.3c3.5,1.5,7.3,1.1,10.4-1.1c3.5-2.5,5.4-6.9,4.9-11.3c-0.3-2.8-1.4-5.2-2.5-7.7
			C239.2,91.1,235.8,83.8,232.4,76.6z M109.6,171.6c0.3-0.8,1.1-1.4,2.5-2c1.1-0.5,2.2-1,3.2-1.5c1.5-0.7,2.8-1.4,4.3-1.9
			c10-3.5,16.6-9.4,20.3-18c0.3-0.7,0.8-1.4,1.4-2.1c0.7-0.8,1.3-1.7,1.7-2.8c2.9-8,8.3-10.5,14.6-11.3c2.7-0.3,5.5-0.4,8.4-0.5
			c1,0,1.9,0,2.9-0.1c1.2-0.1,2.1,0.4,2.5,2.6c0.5,3.2,1,6.4,1.5,9.7c0.5,3.2,1,6.4,1.5,9.7c0.3,2-0.2,2.3-0.9,2.5
			c-0.7,0.2-2.3,0.5-2.9-0.7c-0.6-1.4-1.6-2.6-2.6-3.8c-2.3-2.9-4.2-5.3-1.6-9.2c0.4-0.6,0.6-1.4,0.4-2.1c-0.2-0.9-1-1.8-2-2.4
			c-1.6-1-3.4-0.7-4.6,0.8c-1.9,2.3-2.8,4.9-3,8.2c-0.4,6.9,1.5,13.3,3.2,19.5c0.5,1.7,1,3.4,1.4,5.1c0.3,0.9,0.4,1.6,0.4,2.2
			c0.2,7,0.7,8.9,5.4,10.5c-7.6,1.5-14.7,2.4-21.7,0.8c-2.5-0.6-4.6,0.3-6.6,1.2l-3,1.4c-4.2,1.9-8.6,3.9-12.9,6.1
			c-1.5,0.8-2.6,1-3.4,0.7c-0.7-0.3-1.4-1.1-2-2.5c-2.2-5.2-4.8-10.7-7.8-16.9C109.5,173.6,109.3,172.4,109.6,171.6z M170,175.9
			c0.1-0.1,0.2-0.2,0.4-0.2c0,0,0,0,0,0c6.8-0.5,13.6-0.9,19.8-1.3c0.1,0.1,0.2,0.2,0.3,0.3c0,0,0.1,0,0.1,0.1c0,0.1,0,0.2,0,0.4
			c0.1,1.2,0.1,2.4-0.3,2.8c-0.3,0.3-0.9,0.4-1.4,0.3c-4-0.1-8.1-0.3-12-0.6c-1.9-0.1-3.9-0.2-5.9-0.3c-1.1,0-1.2-0.4-1.2-0.6
			C169.7,176.3,169.8,176.1,170,175.9z M167.9,166.1c0-0.3-0.1-0.7,1.8-1.4c2.5-0.2,5.2-0.4,8-0.7c4.5-0.4,9.2-0.8,14-1.1
			c0.3,0,0.4,0.1,0.4,0.1c0.2,0.2,0.3,0.5,0.3,0.9c0,0.8-0.2,2.3-1.4,2.4c-7.1,0.6-14.3,1.1-21.4,1.4
			C168.6,167.7,168,167.1,167.9,166.1z M183.8,156c-1.2,0-1.4-0.5-1.7-2.4c0-0.3-0.1-0.5-0.1-0.8c-0.1-0.5-0.1-1.3,0.2-1.7
			c0.2-0.3,0.6-0.4,1.2-0.5c0.1,0,0.2,0,0.3,0c2.7-0.2,5.4-0.4,8.1-0.6c1.1,0,1.5,0.2,1.8,0.9c0,0.3,0,0.6,0,1c0,2.2,0,3.2-2.2,3.4
			l-1.5,0.2C187.7,155.7,185.7,155.9,183.8,156z M184,143l-1.5,0c-1.9,0-2.1-0.7-2.3-2.8c-0.1-0.5-0.1-1-0.2-1.5
			c-0.2-0.9-0.2-1.5,0-1.8c0.2-0.3,0.8-0.5,1.2-0.5c0,0,0.1,0,0.1,0l0,0l0,0c3-0.6,6.1-1.2,9.5-1.8c1-0.2,2.4-0.4,2.8,0
			c0.3,0.3,0.3,0.9,0.3,1.2c0,0.7,0,1.4,0.1,2.1c0.3,2.6,0.3,3.9-2.2,4.4C189.4,142.9,186.7,142.9,184,143z M185.2,119.3
			c-0.2,1.7-0.7,3.3-1.3,5c-0.2,0.6-0.4,1.2-0.6,1.7c-0.5,1.7-1.4,2.8-2.4,3c-1.2,0.3-2.4-0.5-3.2-1.2c-2.1-2-5.5-4.4-10.2-3.8
			c-0.3,0-0.6,0.1-1,0.2c-0.6,0.1-1.4,0.2-1.9-0.1c-0.5-0.4-0.7-1.4-0.7-2.1c-0.1-1.8-0.6-3.1-1.6-4c-1.5-1.2-3.7-1.1-5.2-0.8
			c-4.3,0.6-8.5,1.2-12.7,1.7l-0.3,0c-2.9,0.3-6.2,0.7-7.1,5.7c-0.1,0.6-0.4,1.3-0.9,1.4c-0.7,0.1-1.7-0.5-2.3-1.6
			c-4-7.8-8-16.2-11.8-25.1c-0.4-1-0.3-1.9,0.2-2.4c0.6-0.5,1.4-0.5,2.3,0c3.7,2.1,5.9,0.1,7.5-1.3c19.9-18.3,39.8-36.7,59.9-55
			c1.4-1.3,2.9-3.2,2.7-6.2c-0.2-2.4,1-3.9,3.4-4.5c3-0.8,4.6,1.2,5.5,2.9c2.5,5.2,5,10.5,7.4,15.7c0.9,1.9,1.8,3.8,2.7,5.7
			c1.3,2.8,2.6,5.6,3.9,8.4c0.8,1.7,1.6,3.4,2.4,5.2l0,0l0.6,1.3c0,0,0,0,0,0l0,0c5.2,11.1,10.6,22.7,15.8,34.1
			c1.6,3.5,2.1,5.7-0.1,7.7c-2,1.8-4,1.5-6.8-0.9c-2-1.7-4.2-1.4-6.2-1.2c-2.9,0.4-5.8,0.8-8.7,1.2c-7.2,1-14.6,1.9-21.9,2.8
			C189.5,113,185.8,114,185.2,119.3z"/>
		<path class="st3" d="M222.7,42.3c1.3-0.2,2.3-1.3,2.9-2c3.6-4.4,7.2-8.8,10.9-13.1c3.7-4.4,7.3-8.9,11-13.3c0.7-0.9,2-2.5,0.7-4.5
			l0-0.1c-0.9-1.2-2-1.9-3-1.9c-1.1,0-2.2,0.6-3.3,1.9c-3.6,4.4-7.3,8.8-10.9,13.1c-3.7,4.4-7.4,8.8-11,13.2
			c-0.7,0.8-1.5,1.9-1.3,3.3c0.1,1,0.7,1.8,1.7,2.6C221.1,42.2,222,42.3,222.7,42.3z"/>
		<path class="st3" d="M282.9,84.2c-1-1-2.5-1-3.6-1c-0.2,0-0.4,0-0.6,0c-7.3-0.1-14.8-0.1-22-0.2c-3.4,0-6.9,0-10.3-0.1
			c-0.9,0-1.8,0.1-2.4,0.2l-0.3,0.1c-1.6,0.8-2.3,2-2.2,3.6c0.1,3.2,3,3.2,4.4,3.2c10.9,0.2,22,0.4,32.7,0.5l0.1,0
			c0.5,0,1.1,0,1.8-0.1c1.6-0.2,3.3-1,3.4-3.7C283.8,85.7,283.5,84.8,282.9,84.2z"/>
		<path class="st3" d="M230.2,61c-0.3,0.9-0.2,1.9,0.4,3c0.9,1.8,2.2,2.2,3.4,2c0.9-0.1,1.8-0.5,2.4-0.8l2.5-1.2
			c3.6-1.7,7.4-3.4,11-5.1c2-0.9,4-1.9,6.1-2.8c2.7-1.2,5.3-2.5,8-3.7c1.2-0.6,2.6-1.2,3.1-2.7c0.3-0.9,0.2-1.9-0.4-3
			c-1.7-3.1-4.5-1.8-5.8-1.2c-9.3,4.2-18.6,8.6-27.6,12.8C232.2,58.9,230.7,59.6,230.2,61z"/>
		<path class="st3" d="M201.7,73.8c0.4-1.1,0.2-2.5-0.6-4.1c-2.2-4.4-4.1-8.5-5.9-12.8c-0.4-1.1-1.2-2.6-2.6-2.9
			c-1.4-0.3-2.8,0.6-3.9,1.6c-13.5,11.7-24.4,21.2-34.5,29.7c-3.3,2.7-2.4,5.5-1.1,7.8c1.2,2.1,2.6,2.6,4,2.4c1-0.1,1.9-0.6,2.7-0.9
			l0.4-0.2c4-1.8,8-3.7,12.1-5.6c2.3-1.1,4.6-2.1,6.9-3.2l19.5-9.1C199.6,76.2,201.2,75.4,201.7,73.8z M191.6,64.3l0.8,1.7
			c1.4,3,2.4,4.9,2.1,5.6c-0.2,0.4-1.3,0.9-2.8,1.5c-0.9,0.4-2.1,0.9-3.5,1.5c-6.5,3.1-13.2,6.2-19.6,9.2c-2.1,0.9-4.1,1.9-6.2,2.9
			c6.4-5.5,12.7-11,19.1-16.5c1.3-1.1,2.6-2.2,3.9-3.3c1.3-1.1,2.6-2.2,3.9-3.3c0.4-0.4,0.8-0.6,1-0.6c0,0,0.1,0,0.1,0
			c0.1,0,0.4,0.1,0.9,1l0.1,0.2C191.6,64.2,191.6,64.3,191.6,64.3z"/>
	</g>
</g>
</svg>
