<?xml version="1.0" encoding="utf-8"?>
<!-- Generator: Adobe Illustrator 22.0.1, SVG Export Plug-In . SVG Version: 6.00 Build 0)  -->
<svg version="1.1" id="Camada_1" xmlns="http://www.w3.org/2000/svg" xmlns:xlink="http://www.w3.org/1999/xlink" x="0px" y="0px"
	 viewBox="0 0 903.9 157.9" style="enable-background:new 0 0 903.9 157.9;" xml:space="preserve">
<style type="text/css">
	.st0{fill:#D60D47;}
	.st1{fill:#FFCC00;}
	.st2{fill:#FFFFFF;}
	.st3{clip-path:url(#SVGID_2_);}
</style>
<rect x="0" y="0" class="st0" width="903.8" height="158"/>
<polygon class="st1" points="0,0 373,-0.1 531,158 0,158 "/>
<g>
	<path class="st2" d="M30.9,96.7V62.8H49c7.9,0,12.2,5.3,12.2,11.6C61.2,80.7,56.9,86,49,86h-7.8v10.7L30.9,96.7L30.9,96.7z
		 M50.8,74.5c0-1.8-1.4-2.7-3.1-2.7h-6.5v5.3h6.5C49.4,77.1,50.8,76.3,50.8,74.5z"/>
	<path class="st2" d="M83.1,96.7L78.4,86h-3.7v10.7H64.5V62.8h18.1c7.9,0,12.2,5.3,12.2,11.6c0,5.8-3.4,8.9-6.1,10.3l6.1,12H83.1z
		 M84.4,74.5c0-1.8-1.6-2.6-3.4-2.6h-6.2v5.3H81C82.7,77.1,84.4,76.3,84.4,74.5z"/>
	<path class="st2" d="M97.1,79.8c0-10.4,8.1-17.5,18.5-17.5s18.5,7.1,18.5,17.5s-8.1,17.5-18.5,17.5S97.1,90.2,97.1,79.8z
		 M123.8,79.8c0-4.7-3.2-8.5-8.1-8.5s-8.1,3.8-8.1,8.5s3.2,8.5,8.1,8.5S123.8,84.6,123.8,79.8z"/>
	<path class="st2" d="M167.8,96.7V76.3l-7.6,20.4h-4.6L148,76.3v20.4h-10.3V62.8h14.2l5.9,16.2l5.9-16.2h14.2v33.9H167.8z"/>
	<path class="st2" d="M181.7,79.8c0-10.4,8.1-17.5,18.5-17.5s18.5,7.1,18.5,17.5s-8.1,17.5-18.5,17.5S181.7,90.2,181.7,79.8z
		 M208.3,79.8c0-4.7-3.2-8.5-8.1-8.5s-8.1,3.8-8.1,8.5s3.2,8.5,8.1,8.5S208.3,84.6,208.3,79.8z"/>
	<path class="st2" d="M220.6,79.8c0-10.5,8-17.5,18.6-17.5c8.9,0,13.4,5.2,15.4,9.8l-8.8,4.1c-0.9-2.6-3.5-4.9-6.5-4.9
		c-4.9,0-8.2,3.8-8.2,8.5s3.3,8.5,8.2,8.5c3,0,5.7-2.3,6.5-4.9l8.8,4.1c-2,4.5-6.5,9.9-15.4,9.9C228.6,97.4,220.6,90.2,220.6,79.8z"
		/>
	<path class="st2" d="M257.8,96.7V62.8h10.3v33.9H257.8z"/>
	<path class="st2" d="M271.7,79.8c0-10.4,8.1-17.5,18.5-17.5s18.5,7.1,18.5,17.5s-8.1,17.5-18.5,17.5S271.7,90.2,271.7,79.8z
		 M298.3,79.8c0-4.7-3.2-8.5-8.1-8.5s-8.1,3.8-8.1,8.5s3.2,8.5,8.1,8.5C295.1,88.3,298.3,84.6,298.3,79.8z"/>
	<path class="st2" d="M335.1,96.7l-12.5-17.2v17.2h-10.3V62.8h10.6l11.8,16v-16H345v33.9H335.1z"/>
	<path class="st2" d="M373.1,96.7l-1.2-4h-12.2l-1.2,4h-11.6l12.5-33.9h12.9l12.5,33.9H373.1z M365.8,72.9l-3.4,10.9h6.7L365.8,72.9
		z"/>
	<path class="st2" d="M386.5,96.7V62.8h10.3v24.9h12.8v8.9h-23.1V96.7z"/>
</g>
<g>
	<defs>
		<rect id="SVGID_1_" x="622.5" y="0" width="281.4" height="158.7"/>
	</defs>
	<clipPath id="SVGID_2_">
		<use xlink:href="#SVGID_1_"  style="overflow:visible;"/>
	</clipPath>
	<g class="st3">
		<path class="st2" d="M849.2,94.6c-4.1-8.6-8.3-17.2-12.4-25.8c-8.1-17-16.6-34.6-24.9-51.8c-1.5-3.1-2.9-5.5-4.4-7.5
			c-4.1-5.6-10-8-16.7-6.6c-7.2,1.6-12,6.4-13,13.3c-0.4,2.5-1.6,4.5-3.9,6.7c-22.8,21.4-43.2,40.6-62.3,58.7
			c-2,1.9-3.1,2.3-5.2,2.1c-5.1-0.5-9.7,1.2-12.5,4.7c-2.7,3.4-3.4,7.9-1.9,12.6c3.7,11.3,9,22.4,16.2,34.1
			c2.6,4.2,6.9,6.7,11.5,6.7c0,0,0,0,0.1,0c0.6,0,1.1,0,1.7-0.1c-2.8,4.9-5.5,9.3-8.2,13.5c-0.4,0.6-0.7,1.2-1.1,1.7
			c-1.7,2.8-3.2,5.1-5.9,6.4c-4.2,2.1-8.3,4.3-12.4,6.5c-4,2.1-8.1,4.3-12.1,6.3c-2.9,1.4-4.6,3.2-5.4,5.4c-0.7,2.2-0.4,4.6,0.9,7.4
			c5,10.3,10.2,21,15.2,31.5c1.2,2.7,2.9,4.4,5.1,5.2c0.8,0.3,1.6,0.4,2.4,0.4c1.5,0,3.1-0.4,4.9-1.3c5-2.5,10.1-5,15.1-7.3
			c2.7-1.3,5.4-2.6,8.1-3.9c2.1-1,3.7-1.6,5.5-1.3c13.1,2.1,25.3-0.6,35.6-3.6c2.1-0.6,4.1-1.4,6.1-2.1c3-1.1,5.9-2.1,8.9-2.8
			c11.4-2.6,13.4-5.1,13.3-16.7l0-0.2c0-0.3-0.1-0.6-0.1-0.9c0-0.3-0.1-0.7-0.1-0.9c2.8-9.6,3-19.3,3.2-28.8
			c0.1-4.9,0.2-10,0.7-14.8c0.4-3.8-0.6-7.1-2.9-9.5c-2.3-2.4-5.7-3.6-9.5-3.4c-0.1,0-0.2,0-0.3,0c0.1-0.3,0.1-0.6,0.2-0.9l0-0.2
			c0.4-1.7,1.2-2.6,4-3c7.2-1,14.7-1.9,22-3.1c6.5-1,11.2-1.1,16.5,1.1c5,2.1,10.4,1.5,14.8-1.8c4.8-3.6,7.4-9.7,6.6-15.8
			C852.1,100.7,850.7,97.6,849.2,94.6z M823.7,105.9c-3.5,0.5-6.9,1-10.4,1.5c-8.5,1.2-17.3,2.5-26,3.6c-2.4,0.3-9.9,1.2-10.9,10.2
			c-0.2,1.8-0.8,3.6-1.4,5.6c-0.2,0.7-0.5,1.4-0.6,2.1c-0.5,1.6-1.1,2-1.2,2.1c-0.1,0-0.6-0.1-1.6-0.9c-2.6-2.3-6.5-5.1-11.9-5.1
			c-1.2,0-2.4,0.1-3.7,0.4c0,0-0.1,0-0.1,0c0-0.1,0-0.3,0-0.5c-0.2-2.9-1.1-5.1-2.9-6.5c-2.6-2.1-5.9-1.8-8.2-1.4
			c-5.1,0.8-10,1.5-15.1,2.2l-0.3,0c-3.4,0.4-8.5,1-10.1,7.3c-4.7-8.9-9.3-18.4-13.7-28.4c5.6,2.8,9.2-0.6,11.1-2.4
			c23.1-21.8,47.1-44.4,70.7-66.6l0.1-0.1c1.8-1.8,4.2-4.8,3.9-9.4c-0.1-1.5,0.2-2.4,2.2-3c0.8-0.2,2.4-0.6,3.8,2.2
			c3.1,6.1,6.1,12.4,9.1,18.6c1.1,2.3,2.2,4.5,3.3,6.8c1.6,3.3,3.2,6.6,4.8,10c0.5,1.1,1,2.1,1.5,3.2l0,0l2.2,4.5c0,0,0,0,0,0v0
			c6.4,13.3,13,27,19.4,40.6c2.2,4.4,1.6,5.3,0.5,6.4c-0.8,0.8-1.8,1.6-4.9-1.1C829.8,105,826.2,105.5,823.7,105.9z M723.9,200
			c-1.2,0.6-2.4,1.1-3.6,1.7c-5.1,2.4-10.3,4.8-15.4,7.5c-1.6,0.8-2.1,0.8-2.1,0.8c0,0-0.4-0.3-1-1.6c-2.7-6.2-5.9-12.8-9.6-20.2
			c-0.8-1.6-0.7-2.2-0.7-2.2c0-0.1,0.4-0.5,1.7-1c1.4-0.6,2.7-1.2,3.9-1.9c1.7-0.8,3.3-1.6,4.8-2.2c12.5-4.6,20.8-12.2,25.4-23.1
			c0.3-0.6,0.8-1.3,1.3-2c0.8-1.1,1.8-2.4,2.4-3.9l0-0.1c4-11.5,12.2-12.4,25.2-12.8c1.2,0,2.3-0.1,3.5-0.1c0.1,0,0.2,0,0.2,0
			c0.1,0.1,0.2,0.5,0.3,1c0.6,3.8,1.3,7.7,1.9,11.5c0.6,3.8,1.3,7.7,1.9,11.5l0,0.1c0,0.1,0,0.2,0.1,0.3c-0.1,0-0.2,0-0.2,0
			c-0.9-1.7-2.1-3.2-3.2-4.6c-2.9-3.6-3.9-5-1.9-8.1c0.9-1.3,1.1-2.9,0.8-4.4c-0.4-1.7-1.7-3.2-3.6-4.3c-3-1.8-6.3-1.2-8.6,1.6
			c-2.5,3.1-3.8,6.8-4,11.2c-0.3,8.6,2,16.5,4.2,24.1c0.6,2,1.2,4,1.7,6l0,0.1c0.2,0.8,0.4,1.5,0.4,2.1c0.2,5.6,0.7,8.9,2.5,11.1
			c-6.6,1.1-12.7,1.4-18.9,0.1c-3.8-0.8-6.9,0.6-9.3,1.7L723.9,200z M784.5,162.3c-2.1,0.3-4.4,0.5-6.4,0.6c0-0.3-0.1-0.5-0.1-0.7
			c0-0.3-0.1-0.6-0.1-0.9c3-0.3,6-0.6,9-0.8c0,0.5,0,1.1,0,1.5c-0.1,0-0.3,0.1-0.5,0.1C785.7,162.1,785.1,162.2,784.5,162.3z
			 M787.6,146.3c-0.1,0.1-0.3,0.2-0.8,0.2c-2.9,0.6-5.9,0.7-9.1,0.8c-0.6,0-1.2,0-1.8,0.1c-0.1,0-0.1,0-0.2,0
			c-0.1-0.4-0.1-0.8-0.2-1.2c-0.1-0.6-0.2-1.2-0.3-2c3.3-0.7,7.2-1.5,11.1-2.2l0.1,0c0.3,0,0.6-0.1,0.9-0.2c0,0.7,0.1,1.4,0.2,2
			C787.6,144.7,787.7,145.9,787.6,146.3z"/>
		<path class="st2" d="M822.5,28.2c1.3,0.9,2.6,1.4,3.8,1.4c2,0,3.9-1.1,5.7-3.3l0.1-0.1c4.3-5.4,8.6-10.7,12.9-16.1
			c4.3-5.3,8.6-10.6,12.8-15.9c0.9-1.1,3.5-4.3,0.9-8.2l-0.1-0.2c-1.6-2.1-3.5-3.2-5.6-3.2c-2.1,0-4.1,1.1-5.8,3.2
			c-4.3,5.3-8.6,10.6-12.9,15.9c-4.3,5.3-8.6,10.6-12.9,15.9c-0.6,0.7-2.5,3-2.1,5.9C819.6,24.8,820.3,26.6,822.5,28.2z"/>
		<path class="st2" d="M901.1,73.7c-1.9-1.9-4.4-1.8-6.1-1.8c-0.2,0-0.4,0-0.7,0c-8.7,0-17.7,0.1-26.3,0.1c-4.1,0-8.2,0.1-12.3,0.1
			c-1.3,0-2.4,0.1-3.2,0.3l-0.6,0.1l-0.5,0.2c-2.8,1.3-4.2,3.7-4,6.7c0.2,2.8,1.6,6,7.5,6c0,0,0.1,0,0.1,0l0,0
			c8.4,0.1,16.8,0.1,25.2,0.1c4.7,0,9.4,0,14.1,0c0,0,0,0,0,0c5.6,0,8.5-2.3,8.5-7C903,76.5,902.4,74.9,901.1,73.7z"/>
		<path class="st2" d="M848.8,38.4c-1.6,0.8-4.1,2-5,4.7c-0.6,1.7-0.3,3.5,0.6,5.4c1.2,2.5,3.1,3.7,5.4,3.7c1.4,0,2.9-0.4,4.7-1.3
			l3.1-1.5c4.3-2,8.7-4.1,13-6.2c2.4-1.1,4.8-2.3,7.2-3.4c3.2-1.5,6.3-3,9.6-4.6c1.6-0.8,4.1-2,5-4.7c0.6-1.7,0.3-3.5-0.6-5.5l0-0.1
			c-1.4-2.6-4.4-5.1-10.1-2.3C870.6,27.9,859.6,33.2,848.8,38.4L848.8,38.4z"/>
		<path class="st2" d="M787.7,49.6c-0.2-0.5-0.8-2-2.4-2.3c-1.6-0.4-2.8,0.8-3.3,1.2c-6.4,5.7-11.7,10.4-16.5,14.5
			c-1.8,1.6-2.1,3.5-0.8,5.8c0.7,1.3,1.7,2,3,2c0.7,0,1.5-0.2,2.4-0.6l0.2-0.1c2-0.9,3.9-1.9,5.8-2.8c1.1-0.5,2.2-1.1,3.3-1.6
			l9.4-4.5c0.5-0.2,1.9-0.9,2.4-2.4c0.3-1,0.2-2-0.4-3.2C789.6,53.5,788.6,51.6,787.7,49.6z"/>
	</g>
</g>
</svg>
