<?xml version="1.0" encoding="utf-8"?>
<!-- Generator: Adobe Illustrator 26.0.3, SVG Export Plug-In . SVG Version: 6.00 Build 0)  -->
<svg version="1.1" id="Camada_1" xmlns="http://www.w3.org/2000/svg" xmlns:xlink="http://www.w3.org/1999/xlink" x="0px" y="0px"
	 viewBox="0 0 900.9 157.9" style="enable-background:new 0 0 900.9 157.9;" xml:space="preserve">
<style type="text/css">
	.st0{fill:#D60D47;}
	.st1{fill:#FFCC00;}
	.st2{fill:#FFFFFF;}
	.st3{clip-path:url(#SVGID_00000061431071242639003980000003679381915304599688_);}
</style>
<polygon class="st0" points="165.7,-7.4 475.4,-7.4 299.7,168.3 -10.4,168.3 "/>
<polygon class="st1" points="906,168.3 248.7,168.3 424.4,-7.6 906,-7.7 "/>
<g>
	<path class="st2" d="M688.1,96.7V72.1h-8.9v-8.8h27.9v8.8h-8.9v24.5L688.1,96.7L688.1,96.7z"/>
	<path class="st2" d="M736.2,96.7l-4.3-18.9l-4.3,18.9H717l-9.5-33.3h11.3l4.3,20.4l5-20.4h7.6l5,20.4l4.2-20.4h11.3l-9.5,33.3
		H736.2z"/>
	<path class="st2" d="M758.4,96.7V63.3h10.1v33.3L758.4,96.7L758.4,96.7z"/>
	<path class="st2" d="M781,96.7V72.1h-8.9v-8.8H800v8.8h-8.9v24.5L781,96.7L781,96.7z"/>
	<path class="st2" d="M800.8,80c0-10.3,7.9-17.2,18.3-17.2c8.7,0,13.1,5.1,15.1,9.7l-8.7,4c-0.8-2.6-3.4-4.8-6.4-4.8
		c-4.8,0-8.1,3.7-8.1,8.3c0,4.6,3.2,8.3,8.1,8.3c3,0,5.6-2.2,6.4-4.8l8.7,4c-1.9,4.4-6.4,9.7-15.1,9.7
		C808.7,97.3,800.8,90.3,800.8,80z"/>
	<path class="st2" d="M859.5,96.7V83.9h-11.9v12.7h-10.1V63.3h10.1v11.8h11.9V63.3h10.1v33.3L859.5,96.7L859.5,96.7z"/>
</g>
<g>
	<defs>
		<polygon id="SVGID_1_" points="165.9,-7.4 424.4,-7.4 248.7,168.3 -10.2,168.3 		"/>
	</defs>
	<clipPath id="SVGID_00000112625238206107723670000002721819716629563051_">
		<use xlink:href="#SVGID_1_"  style="overflow:visible;"/>
	</clipPath>
	<g style="clip-path:url(#SVGID_00000112625238206107723670000002721819716629563051_);">
		<path class="st2" d="M108.1,195c0-5.6,0-11,0-16.3c0-2.1,0-2.1-2.1-2.1c-9.7,0-19.3,0-29,0c-2,0-2.1,0-2.1-2
			c0-42.9,0-85.7,0-128.7c0-2.1,0.7-4.2,1.2-6.3c1.8-7.6,3.8-15.1,5.6-22.7c0.3-1.2,0.8-1.6,2.1-1.6c48.9,0,98,0,146.9,0
			c1.3,0,1.7,0.3,1.7,1.7c0,33.1,0,66.3-0.1,99.4c0,0.8-0.4,1.8-1,2.3c-18.9,18.9-37.7,37.8-56.6,56.6c-0.5,0.5-1.6,0.9-2.3,0.9
			c-8.7,0.1-17.4,0-26.1,0c-1.3,0-2.2,0.4-3.1,1.3c-5.2,5.4-10.6,10.6-15.8,15.8c-0.9,0.9-1.8,1.3-3.1,1.3c-5-0.1-9.8,0-14.7,0
			C109.2,195.1,108.8,195,108.1,195z M129.8,158.9c0.8-0.7,1.2-1,1.6-1.4c6.4-6.4,12.8-12.8,19.2-19.2c1-1,2.1-1.6,3.5-1.4
			c12.3,0,24.5,0,36.8,0c1.2,0,2-0.3,2.7-1.2c7.8-8,15.8-15.8,23.6-23.6c0.8-0.8,1-1.6,1-2.6c0-25.8,0-51.7,0-77.6c0-2,0-2-2-2
			c-39.3,0-78.6,0-117.8,0c-2,0-2,0-2,2c0,34.3,0,68.6,0,103c0,2.1,0,2.1,2.1,2.1c9.7,0,19.3,0,29,0c2,0,2,0,2,2
			c0,5.9,0,11.7,0,17.7C129.7,157.1,129.7,157.8,129.8,158.9z"/>
		<path class="st2" d="M137.5,81.4c0-6.7,0-13.3,0-20c0-1.3,0.3-1.8,1.7-1.8c3.7,0.1,7.3,0,11,0c1.2,0,1.6,0.3,1.6,1.6
			c0,13.4,0,27,0,40.5c0,1.2-0.5,1.6-1.6,1.6c-3.7,0-7.3,0-11,0c-1.3,0-1.7-0.4-1.7-1.7C137.5,94.9,137.5,88.1,137.5,81.4z"/>
		<path class="st2" d="M192,81.4c0,6.5,0,13,0,19.7c0,2.1,0,2.1-2,2.1c-3.5,0-7,0-10.4,0c-1.2,0-1.7-0.3-1.7-1.6
			c0-13.4,0-26.9,0-40.3c0-1.3,0.5-1.6,1.7-1.6c3.7,0,7.2,0.1,10.8,0c1.3,0,1.7,0.4,1.7,1.7C192,68.1,192,74.8,192,81.4z"/>
	</g>
</g>
</svg>
