<?xml version="1.0" encoding="utf-8"?>
<!-- Generator: Adobe Illustrator 26.0.3, SVG Export Plug-In . SVG Version: 6.00 Build 0)  -->
<svg version="1.1" xmlns="http://www.w3.org/2000/svg" xmlns:xlink="http://www.w3.org/1999/xlink" x="0px" y="0px"
	 viewBox="0 0 900.9 157.9" style="enable-background:new 0 0 900.9 157.9;" xml:space="preserve">
<style type="text/css">
	.st0{fill:#09092B;}
	.st1{opacity:0.3;}
	.st2{fill:#FFFFFF;}
</style>
<g id="Camada_1">
	<polygon class="st0" points="0,0 900.5,0 742.3,158.4 0,158.5 	"/>
</g>
<g id="Layer_2">
	<g class="st1">
		<defs>
			<polygon id="SVGID_1_" class="st1" points="0,0 900.5,0 742.3,158.4 0,158.5 			"/>
		</defs>
		<clipPath id="SVGID_00000106147058773303621800000010473703017554309553_">
			<use xlink:href="#SVGID_1_"  style="overflow:visible;"/>
		</clipPath>
		<g style="clip-path:url(#SVGID_00000106147058773303621800000010473703017554309553_);">
			
				<image style="overflow:visible;" width="512" height="512" xlink:href="../marcas/streamers/Sawada/Evelynn-Vinho.png"  transform="matrix(0.3273 0 0 0.3273 292.0892 -4.9527)">
			</image>
		</g>
		
			<g transform="matrix(1 0 0 1 0 -8.583069e-06)" style="clip-path:url(#SVGID_00000106147058773303621800000010473703017554309553_);">
			
				<image style="overflow:visible;" width="500" height="500" xlink:href="../marcas/streamers/Singed Raiz/KikoAgiota.png"  transform="matrix(0.3261 -8.492856e-02 8.492856e-02 0.3261 691.0007 -11.0271)">
			</image>
		</g>
		<g style="clip-path:url(#SVGID_00000106147058773303621800000010473703017554309553_);">
			
				<image style="overflow:visible;" width="512" height="512" xlink:href="../marcas/streamers/Shin/Athena1-min.png"  transform="matrix(0.3273 0 0 0.3273 594.3239 -4.9527)">
			</image>
		</g>
		<g style="clip-path:url(#SVGID_00000106147058773303621800000010473703017554309553_);">
			
				<image style="overflow:visible;" width="512" height="512" xlink:href="../marcas/streamers/Aninhanw/AninhanwAmor.png"  transform="matrix(-0.3271 0 0 0.3271 151.2824 -4.8435)">
			</image>
		</g>
		<g style="clip-path:url(#SVGID_00000106147058773303621800000010473703017554309553_);">
			
				<image style="overflow:visible;" width="512" height="512" xlink:href="../marcas/streamers/Euro_RJ/katarina-coracao.png"  transform="matrix(0.3273 0 0 0.3273 142.6829 -4.9527)">
			</image>
		</g>
		
			<g transform="matrix(1 0 0 1 -3.051758e-05 0)" style="clip-path:url(#SVGID_00000106147058773303621800000010473703017554309553_);">
			
				<image style="overflow:visible;" width="500" height="500" xlink:href="../marcas/streamers/SacoLoiro/CamilleJail.png"  transform="matrix(0.335 0 0 0.335 444.8424 -4.8435)">
			</image>
		</g>
		
			<g transform="matrix(1 0 0 1 0 -1.907349e-06)" style="clip-path:url(#SVGID_00000106147058773303621800000010473703017554309553_);">
			
				<image style="overflow:visible;" width="512" height="512" xlink:href="../marcas/streamers/Jhoniribs/badges/mf-4.png"  transform="matrix(7.081999e-02 -2.793457e-02 2.793457e-02 7.081999e-02 486.9488 17.3175)">
			</image>
		</g>
		
			<g transform="matrix(1 -1.490116e-08 1.490116e-08 1 3.051758e-05 -1.907349e-06)" style="clip-path:url(#SVGID_00000106147058773303621800000010473703017554309553_);">
			
				<image style="overflow:visible;" width="512" height="512" xlink:href="../marcas/streamers/Jhoniribs/badges/mf-6.png"  transform="matrix(0.1378 2.994158e-02 -2.994158e-02 0.1378 434.7465 -22.1415)">
			</image>
		</g>
		<g style="clip-path:url(#SVGID_00000106147058773303621800000010473703017554309553_);">
			
				<image style="overflow:visible;" width="500" height="500" xlink:href="../marcas/streamers/Phantom_MK2/badges/4-500.png"  transform="matrix(8.278476e-02 -1.169787e-02 1.169787e-02 8.278476e-02 535.8563 92.9959)">
			</image>
		</g>
		
			<g transform="matrix(1 2.980232e-08 -2.980232e-08 1 0 -7.629395e-06)" style="clip-path:url(#SVGID_00000106147058773303621800000010473703017554309553_);">
			
				<image style="overflow:visible;" width="500" height="500" xlink:href="../marcas/streamers/Phantom_MK2/badges/6-500.png"  transform="matrix(0.1292 4.593105e-02 -4.593105e-02 0.1292 572.9997 94.3282)">
			</image>
		</g>
		
			<g transform="matrix(1 0 0 1 7.629395e-06 0)" style="clip-path:url(#SVGID_00000106147058773303621800000010473703017554309553_);">
			
				<image style="overflow:visible;" width="500" height="500" xlink:href="../marcas/streamers/Sawada/1-500.png"  transform="matrix(7.352414e-02 2.387603e-02 -2.387603e-02 7.352414e-02 93.5641 113.9099)">
			</image>
		</g>
		
			<g transform="matrix(1 0 0 1 0 -7.629395e-06)" style="clip-path:url(#SVGID_00000106147058773303621800000010473703017554309553_);">
			
				<image style="overflow:visible;" width="500" height="500" xlink:href="../marcas/streamers/Sawada/6-500.png"  transform="matrix(0.1257 -2.303211e-02 2.303211e-02 0.1257 113.6923 104.4316)">
			</image>
		</g>
	</g>
	<g>
		<path class="st2" d="M645.3,146c0-3.7,0-7.2,0-10.7c0-1.4,0-1.4-1.4-1.4c-6.4,0-12.6,0-19,0c-1.3,0-1.4,0-1.4-1.3
			c0-28.1,0-56.1,0-84.3c0-1.4,0.5-2.8,0.8-4.1c1.2-5,2.5-9.9,3.7-14.9c0.2-0.8,0.5-1,1.4-1c32,0,64.2,0,96.2,0
			c0.9,0,1.1,0.2,1.1,1.1c0,21.7,0,43.4-0.1,65.1c0,0.5-0.3,1.2-0.7,1.5c-12.4,12.4-24.7,24.8-37.1,37.1c-0.3,0.3-1,0.6-1.5,0.6
			c-5.7,0.1-11.4,0-17.1,0c-0.9,0-1.4,0.3-2,0.9c-3.4,3.5-6.9,6.9-10.3,10.3c-0.6,0.6-1.2,0.9-2,0.9c-3.3-0.1-6.4,0-9.6,0
			C646,146.1,645.7,146,645.3,146z M659.5,122.3c0.5-0.5,0.8-0.7,1-0.9c4.2-4.2,8.4-8.4,12.6-12.6c0.7-0.7,1.4-1,2.3-0.9
			c8.1,0,16,0,24.1,0c0.8,0,1.3-0.2,1.8-0.8c5.1-5.2,10.3-10.3,15.5-15.5c0.5-0.5,0.7-1,0.7-1.7c0-16.9,0-33.9,0-50.8
			c0-1.3,0-1.3-1.3-1.3c-25.7,0-51.5,0-77.2,0c-1.3,0-1.3,0-1.3,1.3c0,22.5,0,44.9,0,67.5c0,1.4,0,1.4,1.4,1.4c6.4,0,12.6,0,19,0
			c1.3,0,1.3,0,1.3,1.3c0,3.9,0,7.7,0,11.6C659.4,121.2,659.4,121.6,659.5,122.3z"/>
		<path class="st2" d="M664.5,71.6c0-4.4,0-8.7,0-13.1c0-0.9,0.2-1.2,1.1-1.2c2.4,0.1,4.8,0,7.2,0c0.8,0,1,0.2,1,1
			c0,8.8,0,17.7,0,26.5c0,0.8-0.3,1-1,1c-2.4,0-4.8,0-7.2,0c-0.9,0-1.1-0.3-1.1-1.1C664.5,80.4,664.5,76,664.5,71.6z"/>
		<path class="st2" d="M700.2,71.6c0,4.3,0,8.5,0,12.9c0,1.4,0,1.4-1.3,1.4c-2.3,0-4.6,0-6.8,0c-0.8,0-1.1-0.2-1.1-1
			c0-8.8,0-17.6,0-26.4c0-0.9,0.3-1,1.1-1c2.4,0,4.7,0.1,7.1,0c0.9,0,1.1,0.3,1.1,1.1C700.2,62.9,700.2,67.3,700.2,71.6z"/>
	</g>
	<g>
		<path class="st2" d="M42.4,99.2V73.5h-9.3v-9.2h29.2v9.2H53v25.6L42.4,99.2L42.4,99.2z"/>
		<path class="st2" d="M92.8,99.2l-4.5-19.8l-4.5,19.8H72.7l-9.9-34.8h11.8l4.5,21.3l5.2-21.3h8l5.2,21.3l4.4-21.3h11.8l-9.9,34.8
			H92.8z"/>
		<path class="st2" d="M116,99.2V64.3h10.6v34.8L116,99.2L116,99.2z"/>
		<path class="st2" d="M139.6,99.2V73.5h-9.3v-9.2h29.2v9.2h-9.3v25.6L139.6,99.2L139.6,99.2z"/>
		<path class="st2" d="M160.4,81.7c0-10.8,8.3-18,19.1-18c9.1,0,13.7,5.3,15.8,10.1l-9.1,4.2c-0.8-2.7-3.6-5-6.7-5
			c-5,0-8.5,3.9-8.5,8.7c0,4.8,3.3,8.7,8.5,8.7c3.1,0,5.9-2.3,6.7-5l9.1,4.2c-2,4.6-6.7,10.1-15.8,10.1
			C168.6,99.8,160.4,92.5,160.4,81.7z"/>
		<path class="st2" d="M221.8,99.2V85.8h-12.4v13.3h-10.6V64.3h10.6v12.3h12.4V64.3h10.6v34.8L221.8,99.2L221.8,99.2z"/>
	</g>
</g>
</svg>
