<?xml version="1.0" encoding="utf-8"?>
<!-- Generator: Adobe Illustrator 22.0.1, SVG Export Plug-In . SVG Version: 6.00 Build 0)  -->
<svg version="1.1" xmlns="http://www.w3.org/2000/svg" xmlns:xlink="http://www.w3.org/1999/xlink" x="0px" y="0px"
	 viewBox="0 0 500 500" style="enable-background:new 0 0 500 500;" xml:space="preserve">
<style type="text/css">
	.st0{fill:#FFFFFF;}
	.st1{display:none;}
</style>
<g id="Telegram">
	<path class="st0" d="M422.4,107c-0.4-0.3-0.7-0.6-1.1-0.9c-0.1-0.1-0.2-0.1-0.3-0.2c-3.9-2.8-8-2.1-12.6-0.4
		C300.6,145.6,192.8,185.7,85,225.9c-7,2.6-9.9,6.3-9.7,12.1c0.3,5.6,3.2,8.9,10.1,11c24.3,7.6,48.6,15.2,72.9,22.6
		c3.8,1.2,5.8,3,7.1,7c6.8,20.8,14,41.6,20.7,62.4c2.8,8.5,5.5,17.1,8,25.6c3.7,12.6,16,16.4,25.5,6.7c12.5-12.8,26-24.6,38.9-37
		c2.8-2.7,4.5-2.7,7.6-0.4c25.1,18.6,50.4,37,75.6,55.5c3.6,2.7,7.4,4.4,11.5,4.6c9.5,0,14.8-5,17-15.4c0.9-4.4,1.9-8.8,2.8-13.3
		c17.2-82.3,34.5-164.7,51.8-247C426.2,115.4,426.5,110.9,422.4,107z M207.8,344c-0.3,0-0.6,0.1-0.9,0.1c-1.9-6-3.7-12.1-5.5-18.1
		c-5.8-18.9-11.6-37.9-17.4-56.8c-1.2-3.8,1.5-4.7,3.7-6.1c21.3-13.6,42.6-27.3,64-40.8c33.8-21.5,67.7-43,101.5-64.5
		c1.1-0.7,2.2-1.3,3.2-2c2.2-1.4,4.5-2.2,6.2,0.3c1.7,2.5-0.6,3.9-2.1,5.4c-16.3,14.9-32.6,29.7-48.9,44.5
		c-31.8,28.7-63.6,57.5-95.4,86.1c-2.6,2.3-3.8,4.8-4,8.3c-0.4,5.5-1,11-1.5,16.5C209.6,325.8,208.7,334.9,207.8,344z"/>
</g>
<g id="Camada_3" class="st1">
</g>
</svg>
