<?xml version="1.0" encoding="utf-8"?>
<!-- Generator: Adobe Illustrator 22.0.1, SVG Export Plug-In . SVG Version: 6.00 Build 0)  -->
<svg version="1.1" xmlns="http://www.w3.org/2000/svg" xmlns:xlink="http://www.w3.org/1999/xlink" x="0px" y="0px"
	 viewBox="0 0 500 500" style="enable-background:new 0 0 500 500;" xml:space="preserve">
<style type="text/css">
	.st0{display:none;}
	.st1{display:inline;fill:#FFFFFF;}
	.st2{fill:#FFFFFF;}
</style>
<g id="Camada_1" class="st0">
	<path class="st1" d="M381.1,281H118.9c-17.1,0-31-13.9-31-31v0c0-17.1,13.9-31,31-31h262.2c17.1,0,31,13.9,31,31v0
		C412.1,267.1,398.2,281,381.1,281z"/>
	<path class="st1" d="M381.1,179.7H118.9c-17.1,0-31-13.9-31-31v0c0-17.1,13.9-31,31-31h262.2c17.1,0,31,13.9,31,31v0
		C412.1,165.8,398.2,179.7,381.1,179.7z"/>
	<path class="st1" d="M381.1,382.3H118.9c-17.1,0-31-13.9-31-31v0c0-17.1,13.9-31,31-31h262.2c17.1,0,31,13.9,31,31v0
		C412.1,368.4,398.2,382.3,381.1,382.3z"/>
</g>
<g id="Camada_2">
	
		<rect x="93.6" y="220.1" transform="matrix(0.7071 0.7071 -0.7071 0.7071 249.9954 -103.5553)" class="st2" width="312.8" height="59.9"/>
	
		<rect x="93.6" y="219.7" transform="matrix(0.7071 -0.7071 0.7071 0.7071 -103.2947 249.8928)" class="st2" width="312.8" height="59.9"/>
</g>
<g id="Camada_3">
</g>
</svg>
