<?xml version="1.0" encoding="utf-8"?>
<!-- Generator: Adobe Illustrator 22.0.1, SVG Export Plug-In . SVG Version: 6.00 Build 0)  -->
<svg version="1.1" id="Camada_1" xmlns="http://www.w3.org/2000/svg" xmlns:xlink="http://www.w3.org/1999/xlink" x="0px" y="0px"
	 viewBox="0 0 1920 1312" style="enable-background:new 0 0 1920 1312;" xml:space="preserve">
<style type="text/css">
	.st0{fill:#FFFFFF;}
</style>
<g id="ManiAntiga">
	<g>
		<path class="st0" d="M1391.1,715.2c-26.3,3-34.4-3-37.1-26.8c-1.6-0.1-2,1.4-2.9,2.2c-6.8,7.4-13.6,14.6-22.2,20
			c-4.6,2.9-9.4,5.1-15,5.3c-14,0.4-22.8-7.4-24-21.3c-0.1-1.6-0.2-3.2-1.1-4.7c-2,0.1-2.8,1.9-3.9,3.1
			c-7.5,7.5-15.6,14.3-24.9,19.5c-8.9,5.1-18.6,5.7-28.2,3.4c-10.5-2.5-16.1-9.9-16.6-20.6c-0.2-4.6-0.2-9.2,0.9-14.9
			c-5,5.4-9.3,10.1-13.6,14.6c-6.6,6.9-13.5,13.5-21.6,18.8c-2.9,1.9-6,3.6-9.5,4c-14.1,1.6-22-5.5-22.2-19.8
			c-0.1-8.1,1.3-15.5,5.4-22.8c9.5-16.7,16.4-34.5,19.2-53.7c0.4-2.4,0.6-4.9,0.6-7.3c0-6.4-2.8-8.9-9.2-8.5
			c-6.7,0.4-12.2,3.7-17,7.9c-10.8,9.4-20,20.1-26.3,33.1c-10.6,22.2-21.4,44.4-32.1,66.5c-0.9,1.9-1.3,5.1-4.5,4.3
			c-3-0.7-4.3-3.4-4.8-6.2c-0.5-3.2,0.3-6.3,0.7-9.5c1.5-13.6,5.5-26.5,11.5-38.9c5-10.2,10.8-19.8,16.5-29.5c5-8.6,6.1-16.7-0.3-25
			c-1.8-2.4-0.9-4.2,1.5-5.2c6.9-2.8,14.2-2.6,21.4-2.2c2.1,0.1,1.9,1.9,1.6,3.3c-0.4,2.3-0.6,4.5-0.4,6.9c2.1,0.1,3-1.4,4.3-2.3
			c10.7-7.6,22.1-13.1,35.8-12.5c11.8,0.5,19.3,7.7,19.9,19.6c0.6,11.3-2.2,21.8-5.7,32.3c-4.7,14.2-11.2,27.6-17.4,41.2
			c-1.9,4.1-3.5,8.3-4.5,12.7c-0.6,2.8-0.7,5.8,1.7,7.6c2.3,1.7,5.1,0.7,7.4-0.4c8.5-4.2,14.7-11.2,21.2-17.8
			c8.8-9,16.7-18.9,24.5-28.8c1-1.2,1.8-2.6,2.4-4.1c5.9-15.4,13-30.4,20.5-45.1c1.6-3.1,0.9-3.9-2.3-3.5
			c-9.4,1.2-16.1,5.9-20.2,14.5c-1.8,3.9-3,3.9-5.4,0.4c-5.3-8-1.5-21.4,7.6-26.3c7.8-4.2,16.3-5,24.9-4.6c4.2,0.2,6.4-1.1,8.5-4.8
			c20.8-36.5,44.1-71.1,73.1-101.7c21.2-22.4,44.7-41.7,72.5-55.3c26-12.7,53.5-18.7,82.4-17.1c12.9,0.7,25.6,2.9,37.4,8.8
			c13.2,6.6,22.3,17,26.3,31.3c4.4,15.4,5.2,31-2,45.8c-9.4,19.6-25.9,30.7-46.7,34.7c-18.4,3.6-37,2-54.6-5.1
			c-15.9-6.4-25.5-18-28.3-35.1c-0.1-0.7-0.3-1.4,0.2-2.1c1.5-0.2,1.9,1.1,2.4,2c12.1,18.6,29.1,29.7,51.3,30.3
			c21.2,0.6,40.3-5.5,55.7-21.6c19.2-20.2,13.5-67.5-23.8-77.6c-13.7-3.7-27.6-3.1-41.4-1.2c-33.6,4.5-61.8,20.3-87,42.2
			c-22.8,19.9-40.8,43.9-58,68.4c-12.7,18-24.4,36.6-35.7,55.5c-0.6,1.1-2,2.2-1.2,3.5s2.4,0.7,3.6,0.7c12.5,0,22.5-4,26.6-17.1
			c0.8-2.7,2-2.3,3.4-0.3c6.4,9.2,6.3,26.4-10,31.4c-8,2.5-16.3,2.6-24.5,1.5c-8.1-1.1-8.6-1.1-12.3,5.9
			c-10.1,18.9-20.2,37.8-30,56.8c-4.3,8.3-4.5,17.6-4.1,26.7c0.2,5.4,4.3,8.2,10.7,8.7c6.1,0.5,11.5-1.7,16.4-4.8
			c13.2-8.3,23.8-19.2,32.7-32c0.4-0.6,0.8-1.2,1-1.9c4.2-14,12.5-25.8,21-37.3c7.7-10.3,9.2-21.6,6.9-33.8
			c-1.1-5.6-0.2-6.6,5.3-4.8c7.2,2.3,13.1,6.7,18.4,12c2.8,2.8,3.1,5.5,0.7,9.2c-13.3,20.8-24.9,42.5-33.1,65.8
			c-2.2,6.3-4.4,12.6-4.1,19.4c0.3,6.3,4.2,9.2,10.1,7.5c5.9-1.6,10.6-5.3,14.9-9.4c8-7.4,14.6-16.1,21-24.9c1.3-1.8,1.7-3.9,2.3-6
			c8.7-31.1,27.4-54.1,56-69c6.5-3.4,13.7-3.6,20.8-2.9c9.1,1,15.8,7.2,18.4,16.8c3.9,14.3,1.4,28-4.3,41.1
			c-21.2,48.6-46.8,94.8-78.6,137.3c-22.6,30.2-48.3,57.3-80.2,78.1c-24.9,16.2-52,26.9-81.7,29.2c-18.5,1.5-37.1,1.2-54.8-5.9
			c-20.4-8-31.3-23.3-34.5-44.7c-6.4-42.2,26.1-65.3,52.9-70.1c21.1-3.8,41.6-1,60.4,9.9c12.3,7.1,18.9,18.3,20.8,33
			c-3.4-1.8-4.4-4.7-6-7c-7.7-11.3-17.8-19.6-31.2-22.7c-22.4-5.3-43.7-3.2-63,10.5c-17.3,12.2-23.3,28.9-19.2,49.4
			c3.9,19.9,16.7,31.6,35.6,37c18.4,5.2,36.8,2.4,54.9-2.2c26.9-6.9,50.1-20.9,70.9-39c24.9-21.7,44.5-47.8,63-74.9
			c11.7-17.1,22.4-34.8,33-52.7C1389.6,718.2,1390.2,716.9,1391.1,715.2z M1371.9,687.5c0.1,2.9,0,5.8,0.4,8.7
			c1,6.7,5.2,10.3,12,9.8c8-0.6,14.5-4.4,18.4-11.4c9.8-17.4,18.9-35.2,27.1-53.4c3.8-8.5,4.6-17.7,3.4-26.8
			c-0.8-6.6-5.7-9.6-12.3-8.1c-5.6,1.2-10,4.4-14.1,8.1c-9.2,8.4-15.9,18.7-21.8,29.6C1377.6,657.5,1372,671.7,1371.9,687.5z"/>
		<path class="st0" d="M970.3,583.5c-12.8,3.9-24.4,7.1-35.7,11c-11.2,3.8-21.6,9.3-31.8,17.5c0.7-3.5,2.4-4.7,3.7-6.1
			c14.4-15.5,33.2-23.3,52.9-29.3c2.2-0.7,4.4-1.7,6.7-1.8c11.2-0.7,18.1-7.5,25.2-15.4c18.7-21.3,40.5-39,66.1-51.4
			c19.5-9.4,39.6-17.1,61.2-20.3c0.4-0.1,0.7-0.3,2.1-1c-10.7-1.9-20.2-3.9-29.9-5.3c-23.7-3.5-47.5-6.9-71.3-10.1
			c-13.9-1.9-27.9-3-41.9-4c-12.2-0.9-24.3-1.1-36.5-0.8c-22.8,0.6-43.7,7.1-61.5,21.6c-11.9,9.6-14.8,23.1-8.6,37.2
			c5.4,12.3,15.5,19.5,27.4,24.7c1.2,0.5,2.4,1,3.6,1.6c0.1,0,0.1,0.2,0.2,0.4c-0.5,0.8-1.2,0.6-1.8,0.4
			c-9.5-2.4-18.4-6.1-26.8-11.1c-23.4-14-23.6-39-12.3-58.3c8.3-14.3,22.6-20.8,38.1-24.3c25.4-5.7,51.2-6.1,76.9-3.9
			c38.9,3.2,76.9,11.7,114.8,20.3c19.3,4.4,38.4,9.7,57.6,14.7c2.1,0.5,4.1,1.4,6.1,2.2c1.2,0.5,2.6,1.2,1.9,2.9
			c-0.7,1.5-2.1,1.2-3.4,0.8c-3.3-1-6.7-1.8-10.2-2.2c-9.9-1-18.5,2.2-26.4,8c-15.2,11.1-26.6,25.7-37.6,40.7
			c-8.4,11.3-15.8,23.2-23,35.3c-1.7,2.8-1.9,4.5,1.1,6.7c13.2,10.1,19.1,24.3,20.2,40.3c2.4,33-19.1,59.2-53.6,66.1
			c-7.7,1.5-7.5,1.6-7.1,9.3c1.1,19.1,7.7,36.1,18.5,51.7c0.5,0.7,0.9,1.5,1.3,2.2c0.1,0.1,0,0.3,0,0.5c-1.4,0.5-2-0.7-2.9-1.4
			c-10.7-8.5-20.7-17.7-28.2-29.3c-5.3-8.2-8.9-16.9-8.4-26.9c0.2-3.3-1.2-4.2-4.3-4.2c-20.8,0.3-40.5-4.4-59.1-13.7
			c-2.3-1.2-3.9-0.9-5.7,1.1c-12.4,14.2-26.6,26.6-40.8,39c-9.3,8.1-19.9,14.1-31.4,18.2c-17.8,6.4-33.1-4.4-33.4-23.3
			c0-2.3,0-4.6,0-7.8c-3.8,4-6.9,7.3-10,10.6c-6.9,7.1-13.8,14.1-22.2,19.4c-4.7,3-9.7,4.9-15.6,4.2c-19.7-2.2-20.8-18.5-16.1-31.6
			c3.7-10.2,8.9-19.8,13.3-29.7c5.6-12.8,10.2-25.8,12-39.8c1.1-8.6-3.1-12.7-11.6-11c-8.1,1.6-14.1,6.6-19.8,12
			c-11.6,11.2-19.8,24.7-26.6,39.3c-8.8,19.2-18.2,38.1-27.4,57.2c-2,4.2-4.3,4.4-7.2,0.4c-1.7-2.4-2.1-5-1.6-7.8
			c1.1-6.3,2-12.5,2.3-19.3c-1.4,2-2.9,3.9-4.2,5.9c-4.3,6.3-8.9,12.1-15.1,16.6c-5.8,4.2-12.2,5.9-19.2,5.2
			c-9.7-1-14.9-5.9-18.3-17.2c-1.9,0-2.9,1.6-4.2,2.6c-9.4,7.2-19.6,12.4-31.8,12.1c-12-0.3-20-6.6-22.7-18.2
			c-3.7-15.6-1.1-30.6,5.3-44.9c9.5-21.3,24-38.5,44.1-50.6c8-4.8,16.8-7,26.2-5.8c8.5,1,14.7,5.1,17.9,13.2
			c0.9,2.4,1.5,2.9,3.7,1.1c6.4-5.1,14-5.9,21.8-5.5c4,0.2,2.2,2.4,1.2,4c-7.5,11.7-14.8,23.5-21.5,35.7
			c-7.9,14.4-15,29.1-20.4,44.6c-1.4,4-2.3,8.1-2.8,12.2c-0.4,3.2-0.1,6.6,2.8,8.6c3,2,5.9,0.2,8.4-1.4c7.6-5,13.5-11.8,19.2-18.8
			c14.1-17.3,26.2-36,37.1-55.5c4.5-8,4.6-15.3-0.7-22.7c-2-2.8-1.6-4.9,1.7-6c6.7-2.3,13.6-2.6,20.6-2.4c1.7,0,2.2,1.1,2,2.7
			c-0.3,2.7-0.5,5.4-0.8,8.8c3.4-2.3,6.2-4.4,9.2-6.3c9.1-5.8,18.8-9.7,29.7-9.6c11.2,0.1,17.2,5.1,20.3,15.9
			c2.8,9.6,0.4,18.6-2.5,27.6c-5.7,18.1-13.9,35.3-20.9,52.9c-1.2,3.1-2.2,6.3-3.2,9.4c-1,3,0.4,5.4,2.3,7.5c2,2.2,4.4,0.9,6.4,0
			c5.3-2.4,9.7-6.3,13.9-10.3c10-9.5,18.9-19.9,27.5-30.7c0.8-1,1.8-2,2.2-3.2c4.5-12.2,12.2-22.4,19.7-32.6
			c7.4-10.2,8.2-21.3,6.2-33.1c-0.9-5,0.1-6.3,5-4.7c7.7,2.5,14.2,7,19.7,13.1c2.3,2.5,2.1,4.9,0.2,7.8
			c-13.7,21.4-25.6,43.7-33.9,67.8c-1.8,5.2-3.6,10.4-3.7,16c-0.2,8.2,2,9.5,9.1,5.6c20.5-11,37.5-26,52.3-43.7
			c16-19.2,30.3-39.5,43.1-60.9c7.3-12.3,15.1-24.4,23.7-35.9C968.9,585.9,969.2,585.3,970.3,583.5z M988.3,680c1.3,0,2.3,0,3.3,0
			c6.3,0,6.2,0,7.4-6.2c1.1-5.8,2.2-11.7,3.9-17.3c7.1-23.8,18.2-45.9,29.8-67.8c2.9-5.5,2.9-5.6-3.1-7.7
			c-9.7-3.3-19.7-2.6-29.7-2.6c-2,0-3.1,1.3-4,2.8c-18,27.8-36.6,55.2-55.3,82.6c-1.6,2.3-1.5,3.3,1.1,4.4
			C956.8,674.8,972.2,679.5,988.3,680z M653.9,639.3c-0.1-1.7,0-3.6-0.3-5.4c-1.2-8-5.9-11-13.6-8.7c-5.3,1.5-9.7,4.5-13.4,8.5
			c-14.2,15.2-25.3,32.4-31.3,52.5c-2.8,9.3-4.7,18.9-2.9,28.6c1.7,8.9,7,12.1,15.8,9.8c2.1-0.5,4.1-1.4,6-2.4
			c5.3-2.9,9.4-7.2,13-12c11.1-15.1,17.8-32.4,23.2-50.1C652.4,653.3,653.7,646.5,653.9,639.3z M1063.2,625.9
			c0-9.9-3.7-21.4-10.7-29.9c-3.2-3.9-4-3.9-6,0.6c-2.9,6.3-5.8,12.6-8.5,19c-7.6,18.5-13.5,37.5-17.3,57.2
			c-0.8,4.3-0.5,4.7,3.8,3.3c3.8-1.3,7.7-2.6,11.3-4.4C1053.7,663.2,1063.6,649.4,1063.2,625.9z M1088.6,506.3
			c-2.1-0.3-3.4,0.6-4.8,1.2c-31.3,12.2-55.4,33.6-76.4,59.1c-0.5,0.6-1.4,1.3-1,2.2c0.5,1.2,1.8,0.7,2.7,0.7
			c9.6,0.5,19,1.5,28.2,4.3c2.7,0.9,3.9-0.2,5.1-2.3c5.1-8.4,10.2-16.9,15.5-25.1C1067.1,532.4,1077.4,519.1,1088.6,506.3z"/>
		<path class="st0" d="M314.8,683.5c-2.2-2.9-4.3-5.3-6-7.9c-22.1-35.1-70.5-33.8-96.2-13.2c-21.5,17.3-24.6,49.6-6.2,70.2
			c8.3,9.3,19.6,13,31.5,15c22.2,3.6,41.4-4.2,59.5-15.5c17.3-10.8,31.6-25,43.6-41.3c21.5-29.3,42.2-59.2,59.5-91.3
			c9.4-17.5,19.2-34.7,30.2-51.2c5.2-7.7,10.8-15.1,17.3-21.7c12.6-13,26.8-23.5,45.4-26.7c-7.7-3.4-15.6-5.8-23.5-8
			c-27.6-7.6-55.6-12.5-84.1-14.2c-18.2-1.1-36.4-2.3-54.6-0.7c-7.8,0.7-15.5,2.1-22.7,5.3c-14.2,6.2-22,17.2-24.8,32.3
			c-4.3,23,3.7,41.7,23.2,52.9c7,4,14.6,6.5,22.5,7.7c19.5,3.2,37.8,0.4,53.9-11.9c7-5.3,12.2-12.3,16.6-19.9
			c0.9-1.5,1.3-3.6,3.5-4.1c1.2,1.4,0.5,2.8,0.3,4.2c-2.7,19.2-13.2,32.6-31.2,39.5c-25.5,9.8-51.3,11.4-75.9-2.5
			c-19.5-11-29.7-28.1-29.5-51c0.1-13.6,2.1-26.6,10.2-37.9c10.2-14.3,25.1-20.4,41.6-23.7c17.8-3.5,35.7-2.6,53.6-1.2
			c30.5,2.4,60.5,8.2,90.2,15c19.8,4.5,38.2,12.6,56.2,21.7c3.7,1.8,4,4.9,0.4,6.8c-9.8,5-14.1,14.3-19,23.1
			c-9.3,16.6-16,34.3-21.4,52.5c-8.8,29.7-19.6,58.8-30.2,87.9c-0.3,0.8-0.6,1.6-0.2,2.8c2.5-3.5,5-7,7.5-10.6
			c19.2-27.1,38.2-54.2,60.3-79.1c28-31.5,59.2-59.2,95.1-81.2c20.7-12.7,43.6-20.1,68-21.8c9-0.6,18,0.5,26.4,3.9
			c9.3,3.7,12,11,7.5,20c-1.9,3.7-4.3,7-7.8,9.4c1.2-3.4,3.7-6.1,4.8-9.5c2.1-6.2,0.3-11-5.4-14.3c-6.5-3.7-13.6-3.6-20.7-3.5
			c-16.7,0.3-29.7,8.6-41.5,19.5c-18.2,16.9-32.2,37.2-44.7,58.5c-23.2,39.7-44,80.5-59.4,124c-4.7,13.2-8.7,26.7-10.5,40.7
			c-3.2,24.4,7.9,43.9,31,51.7c20.4,6.9,41.5,10.4,62.6,14.1c3.9,0.7,7.9,1.3,11.7,2.8c-6.4-0.8-12.7-1.6-19.1-2.4
			c-21.2-2.8-42.5-5.6-63.2-11.3c-6.2-1.7-12.3-3.6-18-6.4c-17.9-8.9-27.5-23.1-27.9-43.5c-0.4-21.6,5.2-41.8,12.6-61.7
			c17.7-47,42-90.2,73.6-129.3c7.1-8.8,14.7-17.2,22.9-24.9s17-14.8,26.4-21.2c-2.9,0.1-5.3,1.4-7.8,2.5
			c-18,8.2-33.5,20.2-48.7,32.5c-40.8,33-74.5,72.7-105.5,114.8c-21.8,29.6-42.9,59.7-64,89.9c-0.7,1-1.1,2.4-2.9,2.7
			c-0.9-3,0.4-5.7,0.9-8.4c5.3-27.8,14.3-54.6,22.1-81.7c6.1-21.3,9.8-43.2,15.8-64.5c7.7-27.6,21.2-51.9,43.8-70.5
			c4.7-3.9,9.8-7.1,15-10.6c-1.9-0.8-3.3-0.3-4.8,0c-26,5.3-45.4,19.6-59.2,42.4c-18.5,30.5-34.5,62.3-51.1,93.8
			c-13,24.6-26.5,48.8-43.5,71c-20.1,26.3-47.2,39.8-78.7,46c-14.7,2.9-29.6,3.7-44.4,0.7c-27-5.6-44.2-24.3-48.2-52
			c-5.7-39.8,21.3-72.3,61.8-74.3c18-0.9,35.2,1.5,51.1,10.5c13.3,7.5,20.5,19.2,23.1,34C315.5,680.2,316.2,681.5,314.8,683.5z"/>
		<path class="st0" d="M1579.6,643.3c4.2-2.6,8.7-4.3,7.5-10c-0.7-3.2-1.6-3.7-8.8-4.8c1.2-1.9,3.8-2.5,4.3-4.7
			c0.6-2.7-2.3-3.4-3.2-5.4c0.5-0.2,0.9-0.5,1.3-0.4c3.8,0.4,7.4,1,5.3-5.2c-0.8-2.3,1.4-4.6,3-6.9c-2.2-0.6-4.1-0.3-6.1-0.2
			c-0.7,0-1.5,0.3-1.9-0.6c-0.3-0.8,0.4-1.3,0.9-1.8c1.3-1.4,2.8-2.6,4-4c2.8-3.3,2.4-5.4-1.2-7.8c-7.9-5.3-8-10.8-0.5-16.1
			c1-0.7,1.2-1.1,0.6-2.4c-2.9-6.4-1.6-10,4.7-13.3c5.6-3,5.6-3,2.4-8.6c-1.4-2.4,0.6-3.8,1.7-5.3c2.9-4.1,3-4-1.7-5.6
			c-1.5-0.5-3-1.2-4.3-2.1c-3-2.1-2.9-4.4,0.2-6.4c3.3-2.2,6.8-4.2,10.5-7.7c-6.3-0.6-11.8,0-17.6-0.1c2.9-2.2,6.3-3.6,8.6-6.4
			c2.9-3.4,3-6.4,0.1-9.9c2-1.2,4.1-2.2,5.9-3.5c2.3-1.6,2.8-3.6,0.4-5.7c-1.8-1.7-3.6-3.5-3.9-6.1c-0.2-1.4-1.1-1.9-2.3-2.3
			c-3.8-1.2-8-2.1-8.2-7c-0.2-3.9,6-9.8,10.7-10.8c0.7-0.1,1.5-0.1,2.1-0.4c1.7-0.8,2.1-2.5,1.9-4c-0.1-1.9-1.8-1.4-3.1-1.5
			c-5.1-0.2-5.1-0.2-2.6-4.4c2.2-3.6,2.5-7.3,0.5-11.2c-0.5-1-1.5-1.8-0.9-3.4c3.4,0.8,4.8,0.3,3.6-3.9c-1-3.2,1.2-5.6,4.5-6.7
			c1,1.8-0.5,2.6-0.9,3.8c-1.2,4.3,1.3,7.1,5.8,6.7c19.5-1.7,39-2,58.6-2.1c1.6,0,3.2,0,5.9,0c-4-4.4-1.9-7.7,0.4-11.2
			c1.8-2.7,0.5-5-2.8-5.7c-3.8-0.8-7.8-0.9-11.7-0.9c-18.1,0-36.2,0-54.3,0.1c-1,0-2.1-0.1-3,0.2c-2.1,0.7-2.8,2.8-2.6,4.5
			c0.2,1.6,2.2,0.8,3.4,0.7c16.9-2.1,33.8-2.1,50.7-0.7c5.4,0.4,10.9-0.4,16.1,1.7c-25.6-1.8-51,1.6-77.2,2.4
			c2.4-3.7,4.2-6.8,5-10.4c0.5-2.4,2.6-2.4,4.5-2.5c6.8-0.2,13.6-0.5,20.4-0.6c3,0,5.3-0.7,6.8-3.5c1.9-3.3,4.8-4.6,8.5-3.4
			c1.6,0.5,2.8,0.3,3.9-0.9c2.3-2.5,4.8-1.8,6.9,0.2c1.7,1.6,3.1,1.9,4.6,0c0.1-0.1,0.2-0.2,0.3-0.3c1.1-0.8,2.7-1.8,3.5-1.1
			c3.7,3,8.4,0.1,11.9,2.3c2,1.2,2.1,3.6,0.7,5.4c-2.6,3.3-0.8,3.7,2.2,3.8c1.1,0,2.3,0.3,3.4,0.7c4.4,1.6,5.5,5.2,2.7,8.9
			c-4.8,6.4-4.7,6.6,2.5,10.4c0.5,0.3,0.9,0.6,1.8,1.3c-3.5,1.7-6.9,0.3-10.4,1.2c0.9,2.4,3,4.2,3.3,6.8c0.4,3.1-1.5,5.5-2.1,8.1
			c-0.5,2.5,4.8,3.3,4.5,6.6c-0.3,2.8,1.1,4,3.5,4.8c-1.5,1.6-3.1,2.8-3.9,4.4c-1.4,2.5-3.7,5.6,1.3,7.1c1.2,0.4,1.4,1.8,1.7,2.9
			c0.9,3.1,2.1,6,5.4,9.5c-26.8-1.1-52.2-4-77.8-2.7c23.3-2.6,46.7-3.2,70.4-0.6c-0.4-3.5-1.6-5.5-5.6-5.5
			c-15.1-0.2-30.1-1-45.1-0.6c-6.2,0.2-12.4,0.4-18.6,0.9c-6.5,0.5-7.5,2.6-4.1,8.3c2.2,3.7,2.2,4.3-0.9,9.3c4.8,0,9.2,0,13.6,0
			c17.1-0.1,34.2,0.3,51.2,1.9c4.8,0.4,7.1-2.6,5.2-7.2c-0.3-0.8-0.7-1.6-1.1-2.4c3.9-0.1,5.8,2,4.9,6.3c-0.6,2.9,0.2,4,2.8,4.6
			c0.8,0.2,1.6,0.6,2.4,0.9c8.7,3.6,9.8,8.5,2.9,14.8c-2.7,2.5-1.8,3.3,0.8,4.7c18.8,10.2,30.7,25.2,32.7,47.1
			c0.9,10.2,1.8,20.5,1.9,30.7c0.2,25.8-1.5,51.5-3.5,77.2c-0.3,3.3-1.1,6.2-4.6,7.6c-1.5,0.6-2.2,1.8-2.1,3.5
			c0.4,20.1,4.7,38.8,20.1,53.3c2.2,2.1,4.3,3.2,7.3,2.1c1.2-0.4,2.6-0.5,3.8-0.6c5.8-0.2,7.1,1.6,5.5,7c-1.6,5.3-1.6,10.9-2,16.3
			c-0.4,6.1-1.3,12.1-4.3,17.6c-2,3.7-4.9,6.2-8.9,7c-7.7,1.6-15.5,1.7-23.3,0.2c-3.4-0.6-6.2-2.4-8.4-5c-7.3-8.2-4.3-18.7,6.3-21.8
			c1.5-0.4,3.1-0.6,5.4-1.1c-15-10.9-28.9-22.1-31.2-42.4c-15.8,14.8-32.1,27.3-45.4,43.1c-6.2,7.4-14.2,13.6-23.9,16.7
			c-4.5,1.4-8.9,0.8-13.1-1c-3.4-1.4-6.4-3.3-9.2-5.7c-6.6-5.8-12.6-12.3-19.3-18.1c-6.2-5.2-7.3-10.9-4.5-16.1
			c3.6-6.6,12.9-11.1,19.5-9.5c7.1,1.7,11.4,7.1,15.8,12.3c2.8,3.5,5.3,7.3,8.3,10.6c2.9,3.2,3.6,2.8,4.9-1.1c0.4-1.3,1.3-2.6,2-3.8
			c11.6-18,20.5-37.3,27.8-57.3c1-2.8,0.7-4.2-2.3-5.1c-4.5-1.4-8.9-3-8.6-9.1c0.1-2-1.7-2.5-3.3-2.9c-4-0.9-7.9-1.9-11.6-3.5
			c-3.8-1.6-6.3-4-6-8.5c0.2-3.3-1.4-4.5-4.7-4.7c-3.6-0.2-7.3-0.6-10.7-1.7c-3.4-1-5,0.1-6.7,2.7c-6.8,9.9-13.7,19.8-20.6,29.6
			c-5.1,7.3-10.9,14-19.4,17.6c-8.2,3.4-16.2,2.8-23.7-1.9c-3.9-2.4-6-6.3-7-10.6c-0.7-3.2-1.8-3-3.9-1.2
			c-5.5,4.5-11.5,8.3-18.3,10.7c-6.4,2.3-12.9,3.1-19.6,1.9c-8.2-1.5-14-6.1-16.7-14.1c-4.4-12.8-3.3-25.8,0.5-38.4
			c8-26,24.2-45.9,47.1-60.3c8.8-5.5,18.6-7.9,29.1-5.9c7,1.4,12.3,5.1,15,11.8c1.2,3,2.2,3.7,5.1,1.5c5.5-4.2,12.2-5.2,18.9-5.2
			c1.5,0,3.5-0.5,4.3,1.2c0.7,1.5-0.9,2.6-1.6,3.8c-11.9,18.5-23.1,37.5-32.4,57.5c-4.6,10-9.1,20.1-11.2,31
			c-0.8,4.4-2,9.5,2.6,12.3c4.3,2.6,8.1-0.8,11.3-3.3c10.2-7.9,17.7-18.3,25.1-28.6c2.5-3.4,4.7-6.9,7.1-10.4
			c2.2-3.3,4.8-6.4,3.5-11.1c-0.5-1.9,0.4-4.1,1.5-5.8C1582.6,646.2,1583.4,644.4,1579.6,643.3z M1656.1,526.6
			c1,1.2,1.9,2.1,2.6,3.2c2.8,4.5,6.2,8.1,4.6,14.7c-8.3,33.7-14.3,67.9-20,102.1c-0.8,4.6,0.7,6,6.7,7.7c4.5,1.3,4.7-2,5.6-4.7
			c8.8-27.2,19.2-53.7,31.6-79.4c0.8-1.6,1.8-3.2,2.7-4.8c0.4,1.4,0.2,2.4-0.2,3.3c-11.2,27.3-21,55.2-30.9,83
			c-1,2.8-1.4,5.4-0.8,8.4c1.6,8.9-2.1,15.6-10.2,19.5c-3.9,1.9-8.1,3-12.5,3.2c-1.5,0.1-3.4-0.5-3.8,1.8c-0.4,2.2,1.1,3,2.8,3.8
			c21.9,9.2,43.9,10.8,66.2,1.4c4.2-1.8,6.2-4.4,6.9-8.9c2.1-12.6,2.8-25.3,3.2-38c0.7-21.4,0.4-42.8-1.6-64.2
			c-1.2-12.9-4.6-24.7-14.1-34.1c-4.7-4.7-9.8-8.9-15.3-12.7c-2.7-1.9-5.5-3.1-8.8-3.5C1665.8,527.8,1660.9,527.2,1656.1,526.6z
			 M1690.6,703.4c0.3,2.2-0.7,4-1.4,5.8c-2,4.7-4.8,8.9-8,12.8c-1.2,1.5-2.4,2.9-2.1,5c1.2,8.1,2.7,16.2,8.7,22.2
			c8.6,8.6,18.3,16,27.6,23.8c1,0.8,2,1.5,3.5,0.6c5.9-3.6,7.7-17.2,3-22.3c-13.3-14.4-21-31.1-20.7-50.9c0.1-3.7-0.8-4.5-4.4-3.2
			c-10.5,3.7-21.2,5.4-32.4,4.1c-6.4-0.7-12.5-2.1-18.7-3.8c-1.8-0.5-3.4-1-4,1.6c-5.4,21-16.1,39.6-26.8,58.1
			c-3.2,5.6-2.6,7.7,3.1,10.9c1.1,0.6,2.4,1,3.6,1.6c3.2,1.7,5.4,1,7.5-2.2c6.2-9.3,13.4-18.1,22.7-24.3
			c14.7-9.7,25.6-22.8,35.7-36.9C1688.2,705.2,1688.6,703.6,1690.6,703.4z M1469.4,685.4c0.1,2,0,4.5,0.3,6.9
			c1.3,8.8,6.8,12.4,15.5,10.3c7.2-1.8,12.8-6.1,17.2-11.8c14.1-18.2,22.3-39.1,27.4-61.2c1.5-6.4,2.5-13.1,0.9-19.7
			c-1.5-5.9-5.3-8.4-11.2-7.2c-7.8,1.5-13.5,6.4-18.6,12.1c-6.8,7.6-12.5,15.9-17.5,24.7C1475.3,653.6,1469.7,668.4,1469.4,685.4z
			 M1650,530.7c1.6-4.8,1.5-4.7-2.6-5.1c-12.4-1.4-24.8-1.5-37.2-2.5c-4.5-0.4-8.4,0-11.6,4c-1.8,2.3-4.8,3.6-7.3,5.3
			c-0.9,0.7-2.5,0.9-2.6,2.1c0,1.6,1.8,1.6,2.8,2.3c2.6,1.5,6.8,0.7,7.9,3.7c1.1,3.2-2.6,5.5-4,9.1c13.8,1.5,27.5,0.2,42.1,1
			c-2.8,2-5,1.9-7.1,1.9c-10,0-20,0-30-0.1c-1.3,0-2.9-0.4-3.5,1.1c-0.6,1.8,1.1,2.5,2.2,3.2c2,1.4,4.4,2.2,6.8,2.8
			c16.3,3.8,32.5,1.4,48.7-0.8c0.9-0.1,1.8-0.6,2.1-1.4c1.3-3.8,2.4-7.7,3.6-11.6c-2,0.6-3,1.6-4.1,2.5s-2.1,2.1-4.2,2
			c3.4-4.9,9.3-8.6,6.3-15.4C1656.9,531.8,1654.3,529.7,1650,530.7z M1642.2,605.7c-3.3,0.9-6.5,0.5-9.8,0.3
			c-12.3-1-24.6-0.5-36.9-0.4c-3.5,0-6.5,4-6.3,7.6c0.2,3.5,2.1,5.6,5.8,5.8c14.9,0.6,29.8,1.1,44.6,1.7c3.1,0.1,4.4-1,4.9-4
			c1.1-6.7,2.1-13.5,3.7-20c1.1-4.3-0.5-5.5-4.3-5.8c-15.7-1.2-31.4-2.7-47.2-1.1c-2.2,0.2-6.2-1.4-6.2,1.4c0,2.8,4.1,2.1,6.6,2.5
			c2.6,0.4,5.2,0.2,7.8,0.4c1,0.1,2.3-0.4,3.2,1.2c-3.2,1.1-6.4,0.8-9.4,0.5c-5.3-0.7-8.7,0.9-9.9,6.6
			C1606.8,601,1624.6,602.6,1642.2,605.7z M1647,577.9c-1.9,1-3.7,0.6-5.4,0.5c-8.7-0.5-17.3-0.6-26-0.2c-8.6,0.4-17.3,1.7-25.9-1.2
			c-2.1-0.7-4.3,0.6-5.9,2.1c-3,2.8-2.3,5.9,1.6,7.2c2.2,0.7,4.6,0.7,6.9,0.5c18.2-1.6,36.4-0.6,54.6,1.2c2.6,0.3,3.3-0.9,3.7-3
			c1.3-6.1,2.7-12.2,4.2-18.2c0.8-3.1,0-4.3-3.3-3.9c-11.7,1.3-23.4,1-35.1,0.9c-4.8,0-9.7-0.3-14.1-2.2c-5.2-2.2-9-0.5-12.7,2.5
			c-3.9,3.1-3.6,6.3,0.6,9c4.5,2.8,9.4,2.7,14.3,2.2c10.3-1.1,20.5,0.3,30.7,0.8C1639.2,576.3,1643,576.6,1647,577.9z M1600.3,785.9
			c8.1,0,13.9-4.4,19.4-9.6c0.7-0.7,1.6-1.8,0.2-2.4c-4.1-1.7-6.9-6.3-10.7-7c-7.2-1.4-10.8-6.1-14.8-11.1c-3.7-4.5-7.4-9-12.7-11.6
			c-5.9-2.8-13-0.7-16.8,4.9c-2.9,4.3-1.9,9,2.9,14c1,1,2,2.1,3.2,2.9c4.5,3,8.1,6.9,11.7,10.9
			C1587.3,782,1592.9,785.8,1600.3,785.9z M1590.8,520.7c21.8-2,42.5-0.2,63.1,2.7c6.3,0.9,12.6,2,18.9,2.7c3.5,0.4,8.5-3.2,8.9-6.3
			c0.5-4-2.9-4.9-5.4-6.3c-3.9-2.3-7.9-1.3-12.1-1.3c-7.2,0.1-14.4-1.1-21.6-1.7c-14.7-1.2-29.4-1.6-44.2-1.6
			c-1.8,0-3.6,0.1-3.7,2.6C1594.6,514.8,1593.3,517.6,1590.8,520.7z M1592.7,463.9c0.9,0.1,1.5,0.3,2,0.2
			c11.7-1.2,23.4-0.9,35.1-1.4c9.8-0.4,19.7-0.3,29.5-0.2c3.5,0,5.3-1.8,6.4-4.7c1.6-4.4-3.3-10.5-8.8-10.4
			c-9.8,0.2-19.6,1-29.5,1.1c-10.2,0.1-20.3,3.3-30.6,1.2c-1.3-0.3-3.1-0.1-2.5,1.8C1595.5,455.9,1594.5,459.8,1592.7,463.9z
			 M1668.9,475.6c-0.6-0.3-0.9-0.5-1.1-0.5c-24.7-0.9-49.4-1.1-74.1,0c-3.1,0.1-5.1,1.9-6.8,4.1c-1.7,2.2-2.9,4.7-0.5,7
			c2.2,2,4.7,4.1,8.1,2.1c1.5-0.9,3.2-1.3,4.9-1.5c19.6-2.1,39.2-2.5,58.9-2.4c4.6,0,8.7,0.3,9.1-5.9
			C1667.4,477.6,1668.2,476.8,1668.9,475.6z M1713.6,795.5c13,0,19.7-4.9,21.9-15.7c0.6-2.9,0.5-6,0.5-9.1c0-4.6-0.7-9.2,1.4-13.7
			c0.9-1.9,0-2.7-2-2.6c-5,0.1-7.1,2.1-7.8,7.3c-0.7,5.7-1.9,11.2-6.5,15.1c-1.7,1.5-3.6,2.7-5.8,0.8c-5.2-4.4-10.1-2.3-14.7,0.7
			c-5.8,3.8-5.6,10,0.1,13.8C1704.9,795,1709.6,795.7,1713.6,795.5z M1596.9,628.9L1596.9,628.9c-0.9,0.1-1.8,0.2-2.6,0.1
			c-3.7-0.5-5.1,0.8-3.8,4.5c0.7,2,0.3,4.1-0.9,5.8c-1.4,2.2-1.1,2.9,1.6,3c5.9,0.2,11.8,0.6,17.8,0.9c8.2,0.4,16.5,0.6,24.7,1.3
			c6.4,0.5,6.4,0.7,7.3-5.7c0.1-0.7,0-1.5,0.2-2.2c1.3-3.8-0.8-4.8-4.1-5.1C1623.7,630.8,1610.3,629.9,1596.9,628.9z M1597.1,645.4
			C1597.1,645.4,1597.1,645.5,1597.1,645.4c-0.7,0-1.4,0-2.2-0.1c-5.3-0.3-9.4,2.5-9.9,6.7c-0.4,3.2,3,6.7,7.8,7.9
			c6.4,1.5,12.9,1.8,19.4,1.6c1.7,0,2.6-0.4,2.4-2.5c-0.5-6.5,0.9-7.3,6.9-4.7c1.2,0.5,2.3,1.2,3.5,1.8c2.7,1.2,4.8,5.2,7.5,4.2
			c2.4-1,3.7-4.6,5.4-7.1c2.4-3.4,1.8-4.9-2.3-5.2C1622.8,647,1609.9,646.3,1597.1,645.4z M1622,667.4c-1.8-1.1-2.4-1.5-3-1.8
			c-2.2-1.1-8.6-0.3-9.3,1c-1.2,2.3,1.4,6.5,5.1,8c0.5,0.2,1.1,0.5,1.6,0.6c2.8,0.6,5.6,1.4,8.5,1.7c6.9,0.6,13.9,1,20.6-1.4
			c4.6-1.7,7.5-6.8,7.8-12.9c0.3-4.9-4-4.1-6.4-5.6c-1-0.6-2.1-0.9-3.1-1.6c-2.1-1.3-3.5-0.6-4.5,1.4c-1,2.1-1.9,4.2-2.9,6.3
			c-1.5,3.1-3.3,4.1-6.2,1.2c-2.4-2.4-5.4-4.3-8.2-6.4c-0.7-0.5-1.5-1.1-2.4-0.5c-0.8,0.6-0.5,1.5-0.2,2.4
			C1620.2,661.8,1620.9,664,1622,667.4z M1631.8,471.2c13,0.2,22.5-0.2,31.8,0.8c1.6,0.2,3.8,0.8,4.2-1.7c0.4-2.6-1.4-4.1-3.7-4.6
			c-2.8-0.5-5.7-0.9-8.6-0.9c-17.4,0.2-34.7,0.5-52.1,0.8c-1.9,0-3.9-0.6-4,2.9c0,3.5,1.6,3.6,4.2,3.5
			C1614.3,471.6,1624.9,470.9,1631.8,471.2z M1590,621.1c0.2,0-0.6,0.1-1.5,0c-1.9-0.2-2.9,0.4-3,2.6c-0.1,2.3,1.2,2.2,2.7,2.3
			c17.1,0.8,34.3,0.5,51.3,4c2.3,0.5,3-1,3.3-3c0.3-2.5-0.9-3.3-3.2-3.3C1623.4,623.6,1607.3,622.3,1590,621.1z"/>
		<path class="st0" d="M1387.7,556.2c-5.3,1.1-10.1,2.1-14.8,3.2c-2.2,0.5-4.5,1.2-6.6,2.1c-5.4,2.3-6.1,4.7-2.8,9.6
			c1.6,2.5,2.5,4.9,1.1,7.7c-1.5,2.8-4.1,3.3-7,3.3c-8.2,0.1-15.6-5.6-17.6-13.5c-1.2-4.8,1.4-10.2,6.2-11.4
			c13.3-3.5,26.8-3.8,40.4-2.1C1386.7,555.1,1386.9,555.5,1387.7,556.2z"/>
		<path class="st0" d="M920.9,577.5c-4.1,2.3-7.5,2-10.7,2.8c-4.2,1-8.5,1.9-12.4,3.8c-4.2,2.2-4.9,4.4-2.2,8.3
			c2.1,2.9,3.7,5.7,1.2,9c-2.4,3.2-5.9,3.3-9.5,2.6c-7.6-1.3-12.3-6.1-14.6-13.2c-1.5-4.5,0.9-10.1,5.4-11.4
			C891.8,575.7,905.7,575.6,920.9,577.5z"/>
	</g>
</g>
</svg>
