<?xml version="1.0" encoding="UTF-8"?>
<svg id="Camada_1" data-name="Camada 1" xmlns="http://www.w3.org/2000/svg" version="1.1" viewBox="0 0 703.9 207.3">
  <defs>
    <style>
      .cls-1 {
        fill: none;
      }

      .cls-1, .cls-2, .cls-3, .cls-4, .cls-5 {
        stroke-width: 0px;
      }

      .cls-2 {
        fill: #e52328;
      }

      .cls-3 {
        fill: #2b2b2b;
      }

      .cls-4 {
        fill: #fff;
      }

      .cls-5 {
        fill: #673f24;
      }
    </style>
  </defs>
  <g>
    <path class="cls-4" d="M157.1,118.5l28.9-16.6v64.7h-28.9v-48.1Z"/>
    <path class="cls-1" d="M373.8,96.1c-7.3,0-13,2.2-17.1,6.6-4,4.4-6.1,10.1-6.1,17.2s2,12.8,6.1,17.2c4,4.4,9.7,6.6,17.1,6.6s13-2.2,17.1-6.6c4-4.4,6.1-10.1,6.1-17.2s-2-12.8-6.1-17.2-9.8-6.6-17.1-6.6Z"/>
    <path class="cls-4" d="M603,30.2h77l-47,27v15.6h31.2v27.8h-31.2v66.2h-30V30.2h0Z"/>
    <path class="cls-3" d="M157.1,55.7l28.9,16.6v29.6l-28.9,16.6v-62.8Z"/>
    <path class="cls-1" d="M390.9,102.7c-4-4.4-9.7-6.6-17.1-6.6s-13,2.2-17.1,6.6c-4,4.4-6.1,10.1-6.1,17.2s2,12.8,6.1,17.2c2.2,2.4,5,4.1,8.3,5.2l31.6-18.1c.2-1.4.3-2.7.3-4.2,0-7.3-2-13-6-17.3Z"/>
    <path class="cls-5" d="M356.8,137c-4-4.4-6.1-10.1-6.1-17.2s2-12.8,6.1-17.2c4-4.4,9.7-6.6,17.1-6.6s13,2.2,17.1,6.6c4,4.4,6.1,10.1,6.1,17.2s-.1,2.9-.3,4.2l27.9-16c-.7-2.9-1.5-5.8-2.7-8.4-2.7-6-6.4-11.2-11.1-15.5s-10.2-7.6-16.6-9.9-13.1-3.5-20.3-3.5-14,1.2-20.3,3.5c-6.4,2.3-11.9,5.6-16.6,9.9s-8.4,9.5-11.1,15.5-4,12.8-4,20.2,1.3,14.2,4,20.2,6.4,11.2,11.1,15.5c.6.6,1.3,1.1,1.9,1.6l26.2-15c-3.4-1-6.2-2.7-8.4-5.1h0Z"/>
    <path class="cls-3" d="M373.8,169c7.2,0,14-1.2,20.3-3.5,6.4-2.3,11.9-5.6,16.6-9.9,4.7-4.3,8.4-9.5,11.1-15.5s4-12.8,4-20.2-.4-7.9-1.3-11.8l-27.9,16c-.7,5.1-2.6,9.5-5.8,12.9-4,4.4-9.7,6.6-17.1,6.6s-6.2-.5-8.8-1.4l-26.2,15c4.3,3.5,9.1,6.3,14.6,8.3,6.5,2.3,13.3,3.5,20.5,3.5h0Z"/>
    <path class="cls-5" d="M275.6,119.8c0-7.1,2-12.8,6.1-17.2,4-4.4,9.7-6.6,17.1-6.6s5.7.7,8.3,2c2.6,1.3,4.6,3.1,6,5.1l19.1-20c-4.5-4.6-9.8-7.9-15.9-9.7-6.1-1.9-11.9-2.8-17.4-2.8s-14,1.2-20.3,3.5c-6.4,2.3-11.9,5.6-16.6,9.9s-8.4,9.5-11.1,15.5c-1.2,2.6-2.1,5.4-2.7,8.3l27.9,16c-.3-1.2-.5-2.6-.5-4h0Z"/>
    <path class="cls-2" d="M331.4,155.8l-24.7-14.2h0l24.7,14.2h0Z"/>
    <path class="cls-4" d="M261.8,155.6c4.7,4.3,10.2,7.6,16.6,9.9,6.4,2.3,13.1,3.5,20.3,3.5s11.3-.9,17.4-2.8c6.1-1.9,11.4-5.1,15.9-9.7l-.6-.7-24.7-14.2c-2.2,1.3-4.9,2-8,2-7.3,0-13-2.2-17.1-6.6-3.2-3.5-5.1-7.9-5.8-13.1l-27.9-16c-.9,3.9-1.3,7.9-1.3,11.9,0,7.5,1.3,14.2,4,20.2,2.8,6.1,6.5,11.3,11.2,15.6h0Z"/>
    <path class="cls-5" d="M218.9,91.2l-.2-18.5h-28.9v1.8l29.1,16.7Z"/>
    <path class="cls-3" d="M599.1,166.6l-29-16.9-37.5-21.4v38.3h66.5Z"/>
    <path class="cls-3" d="M153.2,53.9l-26-14.9-32.4,87.7L58.9,30.2H24.6l56.3,132.1,36.4-20.9c-.1,0,35.9-87.5,35.9-87.5Z"/>
    <path class="cls-4" d="M106.8,166.6l10.4-25.3-36.4,20.9,1.9,4.4h24.1Z"/>
    <path class="cls-3" d="M189.9,74.5v25.2l21.9-12.6-21.9-12.6Z"/>
    <path class="cls-4" d="M192.5,153.7c1.7,3.6,4.1,6.5,7.2,8.8,3.1,2.3,6.7,3.9,10.8,4.9s8.6,1.5,13.5,1.5,6.7-.2,10.2-.6c3.4-.4,6.8-1.2,10-2.3v-24c-1.3,1.2-3.2,1.9-5.7,2.2s-4.5.5-6.1.5c-3.1,0-5.6-.4-7.4-1.3-1.9-.8-3.2-2-4.1-3.6-.9-1.5-1.5-3.4-1.7-5.5-.3-2.1-.4-4.5-.4-7l.2-21.6h25.3l-32.4-18.6-21.9,12.6v40.9c-.1,5.2.7,9.5,2.5,13.1Z"/>
    <path class="cls-3" d="M460.8,87.2l-31.1,17.9v61.5h28.9v-39.1c0-4.6.3-8.9.8-12.7.5-3.9,1.6-7.2,3.4-9.9,1.7-2.8,4.2-4.9,7.4-6.5,1.9-.9,4.2-1.5,6.9-1.9l-16.3-9.3h0Z"/>
    <path class="cls-5" d="M483.3,96.1c2.2,0,4.3.2,6.3.5s4,.8,6.1,1.4v-26.4c-1.4-.4-3-1.6-4.7-1.7l-30.1,17.3,16.3,9.3c1.9-.2,4-.4,6.1-.4Z"/>
    <path class="cls-5" d="M562.7,145.6V28.9l-30.1,17.2v82.3l30.1,17.2h0Z"/>
  </g>
  <g>
    <polygon class="cls-5" points="495.6 167.5 489.2 158.6 495.6 145.6 502.1 158.6 495.6 167.5"/>
    <polygon class="cls-4" points="495.6 167.5 506 170.9 516.4 160.7 502 158.6 495.6 167.5"/>
    <polygon class="cls-3" points="495.6 167.5 495.6 178.4 482.8 185.2 485.2 170.9 495.6 167.5"/>
    <polygon class="cls-3" points="495.6 167.5 506 170.9 508.5 185.2 495.6 178.4 495.6 167.5"/>
    <polygon class="cls-3" points="495.6 167.5 489.2 158.6 474.8 160.7 485.2 170.9 495.6 167.5"/>
  </g>
</svg>