<?xml version="1.0" encoding="utf-8"?>
<!-- Generator: Adobe Illustrator 22.0.1, SVG Export Plug-In . SVG Version: 6.00 Build 0)  -->
<svg version="1.1" id="Camada_1" xmlns="http://www.w3.org/2000/svg" xmlns:xlink="http://www.w3.org/1999/xlink" x="0px" y="0px"
	 viewBox="0 0 500 500" style="enable-background:new 0 0 500 500;" xml:space="preserve">
<style type="text/css">
	.st0{fill:#56B7E0;}
	.st1{fill:#FFCC07;}
	.st2{fill:#D51248;}
</style>
<g id="Twitter_C">
	<g>
		<path class="st0" d="M418.6,157.5c9-6.4,16.5-15.1,23.4-27.5c-14.9,5.6-27.2,9.3-42.9,11c16.2-11.9,27.6-24.4,33.1-42.7
			c-13.8,6.7-26.7,12.8-40.5,16.3c-5.7,1.5-9.9,1.1-14.7-3.1c-20.1-17.7-44.1-23-69.8-17.9c-39.8,7.9-65.4,43.4-61.9,85.5
			c0.8,9.4-1.9,10.5-10,9.7c-21.9-2.4-42.6-7.6-62.2-15.5l77.3,77.3l89.9,89.9c38.5-38.9,58.8-90.5,63.2-150.8
			C404.5,175.8,407,165.8,418.6,157.5z"/>
		<path class="st1" d="M163.3,337.6c2.9,0.5,6,1,9.1,1.3c-9,6.8-18.1,12.5-27.6,17.1l-39.3,39.3c57.8,20,116.5,17.1,174.4-11.9
			c23.7-11.9,43.7-26.3,60.3-43.1l-89.9-89.9L163.3,337.6z"/>
		<path class="st2" d="M173.1,173.2c-19.5-7.9-37.8-18.6-55.1-32c-13-10.1-24.4-21.9-36.3-35.3c-18.2,41.4-11.4,76,22.4,105.4
			c-12.6,1.5-22.1-4.8-33.6-7.8c3.1,40,23.1,65.7,61.6,78c-11.5,4.5-22.1,2.3-33.3,2.5c12.4,30,33.2,47.6,64.6,53.4l87.1-87.1
			L173.1,173.2z"/>
		<path class="st2" d="M59,372.5c1.9,1.9,2.3,2.4,2.8,2.8c1.3,0.9,2.6,1.8,4,2.6c13.2,7,26.4,12.8,39.7,17.5l39.3-39.3
			C118.3,369.2,89.9,374,59,372.5z"/>
	</g>
</g>
</svg>
