<?xml version="1.0" encoding="utf-8"?>
<!-- Generator: Adobe Illustrator 22.0.1, SVG Export Plug-In . SVG Version: 6.00 Build 0)  -->
<svg version="1.1" id="EzReality_W" xmlns="http://www.w3.org/2000/svg" xmlns:xlink="http://www.w3.org/1999/xlink" x="0px"
	 y="0px" viewBox="0 0 1920 1312" style="enable-background:new 0 0 1920 1312;" xml:space="preserve">
<style type="text/css">
	.st0{opacity:0.2;fill:#9146FF;enable-background:new    ;}
	.st1{fill:#9146FF;}
</style>
<path class="st0" d="M581.7,514.6l95.5-13.7c0,0-74.3,117.5-97.9,229.4c2.2,27.2,11.5,45.7,11.5,45.7s46.5-28.4,152.5-75.4
	c-4-19.6-7.1-60.7-7.1-60.7s-64.9,22.4-74.9,29.7c16.7-55.3,76-174,76-174l13.8-64.1l-155.3,23.7
	C595.8,455.2,590.1,506.9,581.7,514.6z"/>
<path class="st0" d="M375.5,392.5c0,0-142.1,359.6-51.8,593.7c32.5-33.7,83.7-106.9,252.9-202.2c-7-10.3-22.4-55.3-24-112
	c-31.6,25.5-95.2,61.2-132.5,79.5c-7.3-17.2,3-102.7,3-102.7s38.3-29.7,96.6-32.1c-1.8-13.4,15.3-79.4,15.8-94.4
	c-18.1,3.8-91.5,20.8-95,26.4c6-22.4,17.7-37.8,19.6-65.6c9.3,3.2,85.3-18.9,110.5-23.4c8.7-33.5,29-72.2,38.7-116.8
	C512.4,358.4,375.5,392.5,375.5,392.5z"/>
<g>
	<path class="st1" d="M320.7,989.1l-1.4-3.8c-30-81.3-36.4-185.2-19.3-308.8c17.3-124.8,53.7-232.2,73.8-285.2l0.5-1.2l1.3-0.3
		c44.8-11.5,90.8-22,136.8-31.4c16.4-3.3,28.4-6.1,40-8.9c18.2-4.3,34-8,60.8-12.1l4.3-0.7l-1.6,4c-15.4,39.8-30.1,84.2-40.5,121.9
		l-0.4,1.5l-1.6,0.3c-8.3,1.5-8.9,1.6-10.4,2c-1.2,0.3-3,0.7-9.7,2c-29.7,5.8-59.7,12.3-89.1,19.1c-6.4,18.7-11.9,36.6-16.6,54.6
		c29.4-7.2,59-13.8,87.9-19.8l3.9-0.8l-1,3.9c-7.4,29.8-13,59.8-16.8,89.2l-0.2,1.7l-1.7,0.4c-63,13.9-84.6,25.9-91.5,33.6
		c-4.6,37.7-7.2,64.4-8.1,101.2c25.3-17.7,71.2-44.1,105.2-63.7c10.7-6.1,19.9-11.4,27.3-15.8l3.8-2.2v4.4
		c-0.1,42.4,10.4,76,21.3,106.8l0.7,2l-1.8,1c-94.1,54.3-179.2,122.3-252.9,202.2L320.7,989.1z M378,394.2
		c-66,174.4-114.8,418.7-55.5,585.5c72.9-78.4,156.8-145.4,249.5-199.1c-10.4-29.6-20.3-61.9-20.8-102.2
		c-6.7,3.9-14.6,8.5-23.6,13.6c-35.8,20.6-84.9,48.9-108.9,66.3l-4.1,3l0.1-5c0.9-39.9,3.5-67.5,8.4-107.5l0.1-0.7l0.5-0.6
		c9.9-12,41.2-23.9,93-35.5c3.7-27.8,9-56,15.8-84.2c-29,6-58.5,12.7-87.9,19.9l-4.1,1l1-4c5.1-19.8,11.1-39.6,18.2-60.3l0.4-1.3
		l1.3-0.3c29.9-7,60.4-13.5,90.6-19.4c6.6-1.3,8.4-1.7,9.5-2c1.5-0.3,2.1-0.5,9.1-1.7c10.1-36.2,24.1-78.4,38.7-116.8
		c-24,3.9-39,7.4-56.1,11.4c-11.1,2.6-23.7,5.5-40.1,8.9C467.8,372.4,422.3,382.9,378,394.2z"/>
</g>
<g>
	<path class="st1" d="M588.2,777.1l-1-2.7c-5.4-14.2-9.8-30-12.9-46.8l-0.1-0.6l0.2-0.6c2.3-6.8,4.7-13.9,7.4-21.7
		c7.4-21.1,15.3-41.9,23.4-62.1c6.9-17.3,14.2-34.6,21.7-51.4c13.7-30.6,28.3-60.3,43.4-88.3c-28.3,4.3-57.1,9.3-85.7,14.6l-3.6,0.7
		l0.7-3.6c3.9-19.3,8.5-38.8,13.7-57.9l0.4-1.5l1.6-0.3c37.8-6.8,137-21.5,153.7-23.4l3.4-0.4l-0.7,3.4c-4,20.6-9.3,49.2-11.7,62.4
		l-0.1,0.4l-0.2,0.3c-43.5,84-65.3,139.4-75.7,166c-0.3,0.8-0.6,1.5-0.9,2.3c2.8-1.1,5.8-2.3,9.1-3.6c22.4-8.9,38.1-14.8,61.9-22.4
		l2.6-0.8l0.6,2.7c0,0,0,0.2,0.1,0.6c0.4,5.6,2.9,35,9.2,59.3l0.6,2.2l-2.1,0.8c-53.7,19.4-106.3,43.4-156.4,71.3L588.2,777.1z
		 M579.3,727.4c2.9,15.2,6.8,29.5,11.6,42.6c48.9-27,100.2-50.4,152.4-69.4c-5.3-21.3-7.7-45.7-8.5-55.1
		c-22,7.1-37.3,12.9-58.6,21.3c-5.5,2.2-10.1,4.1-14.4,5.8l-5.5,2.3l2.2-5.5c0.9-2.2,1.9-4.8,3-7.7c10.5-26.7,32.2-82.1,75.8-166.1
		c2.3-12.6,7.1-38.6,11-58.7c-23.4,3-111.7,16.2-148.4,22.7c-4.7,17.3-8.9,34.9-12.5,52.4c29.1-5.4,58.4-10.4,87.2-14.7l5-0.8
		l-2.4,4.4c-15.9,29.2-31.3,60.3-45.7,92.4c-7.5,16.7-14.7,33.9-21.7,51.2c-8.1,20.1-15.9,40.9-23.3,61.9
		C583.9,713.9,581.5,720.8,579.3,727.4z"/>
</g>
<path class="st1" d="M804.2,622.7c-0.4-4.5-0.7-8.9-0.9-13.3c2.2,4.1,4.4,8,6.7,11.8c12.2,20.3,25.5,36.7,38.4,50
	c17.7-4.6,35.5-8.8,53.4-12.5c-13.8-12.5-28.5-28.6-42.3-49.3c-8.9-13.3-17.5-28.5-25.1-45.8c21-11.7,60.5-30.3,73.4-81.8
	c3.7-14.9,3.5-56.7,11.7-79C873,402,845.2,424,769.8,431.4c-1.9,8.7-3.7,17.4-5.4,26.2c-0.4,2.1-0.8,4.2-1.2,6.4
	c-0.6,3.1-1.1,6.2-1.6,9.3c-0.5,3-1,6-1.5,9c-0.2,1.2-0.4,2.4-0.6,3.7c-0.1,0.5-0.2,1-0.2,1.5c-0.4,2.7-0.9,5.5-1.2,8.3
	c-0.3,1.9-0.5,3.7-0.8,5.6c-0.2,1.1-0.3,2.2-0.4,3.3c-0.2,1.9-0.5,3.8-0.7,5.8c-0.4,3.5-0.8,7-1.2,10.5c-0.4,3.7-0.8,7.4-1.1,11.1
	c-0.4,3.8-0.7,7.6-1,11.4c-0.3,3.7-0.5,7.4-0.8,11.1c-0.4,6.2-0.7,12.4-0.9,18.6c-0.1,2.5-0.1,5.1-0.2,7.6c-0.1,2.4-0.1,4.7-0.1,7.1
	c0,0.3,0,0.6,0,0.9c0,2.2,0,4.3,0,6.5c0,2.3,0,4.6,0.1,6.9c0,1.4,0,2.9,0.1,4.3c0,1.5,0.1,3,0.1,4.5c0.1,2.1,0.1,4.1,0.2,6.2
	c0.1,2.4,0.2,4.8,0.4,7.2c0.1,2.3,0.3,4.6,0.4,6.8c0.1,2.2,0.3,4.5,0.5,6.7c0,0.1,0,0.2,0,0.2c0.1,1.3,0.2,2.5,0.4,3.8
	c0.2,2.3,0.4,4.6,0.7,6.9c0.2,1.8,0.4,3.5,0.6,5.3c0.4,3.2,0.8,6.4,1.3,9.6c0.2,1.2,0.4,2.5,0.6,3.7c0.2,1.4,0.4,2.8,0.7,4.2
	c0.2,1.1,0.3,2.2,0.5,3.2c0.7,4.1,1.5,8.1,2.3,12.1c0.4,2,0.8,3.9,1.3,5.9c0.4,1.6,0.8,3.2,1.1,4.7c16.7-5.9,33.5-11.4,50.5-16.4
	C808.5,661.2,805.8,641.7,804.2,622.7z M811.4,481.5c16.2-1.7,32.4-3.2,48.7-4.6c-2.3,23-27.8,48.7-55,50.3
	C806.7,511.1,808.9,495.8,811.4,481.5z"/>
<path class="st1" d="M1032.6,587.2c-24.3-0.7-60.9,4.6-71.1,6.9c-2-9.8-0.7-24.6-0.4-37.7c0-2,31-7,40.4-8.1
	c5.6-24.5,20.1-38.7,27.9-54.1c-14.6-0.2-47.9,6.5-66.4,11.3c0.6-12.9,2.5-22.6,5.1-34.8c31.5-3.1,71-4.4,104.4-2.8
	c6.4-14.6,23.3-53.9,32-71.6c-31,4.8-39.9,14.2-177.4,20.9c-10.5,76-20.2,140.2-13.2,239.1c36-7,69.4-12.1,106.4-15.4
	C1023,624.1,1029.4,601.7,1032.6,587.2z"/>
<path class="st1" d="M1103.4,552.5c2.6,0,9.5,2.9,16.8,3.3c7.6,0.4,15.5-1.9,18.2-1.9c-0.9,23.8-9.7,64.6-11.4,82.9
	c13.8,0,35.6,2.1,49.5,2.7c10.3-101.3-1.1-193.9-13.9-237.2c-4.9,2.9-13.2,10.3-24.8,10.2c-9.4-0.1-13.3-11.5-15.4-11.5
	c-24.9,56.6-81.8,170.7-92.4,239.4c14.7-1.2,41.6-2,56.4-2.6C1090.4,614.7,1098.5,571.8,1103.4,552.5z M1135.8,452
	c0.6,23.3,5.9,47,5.5,53.9c-2.1,0-7.9,2.5-13.5,2.3c-5.6-0.1-11-2.9-13-2.9C1118.9,488.4,1125.5,478.7,1135.8,452z"/>
<path class="st1" d="M1274.8,648.3c6-15.6,14.1-36.8,16-55.6c-6.7,6.4-20.1,7.6-26.4,5.7c-12-3.5-16.6-10.1-16.6-10.1
	c1.6-11.9,2.5-17.7,3.9-29.6c0.5-4.5,1-9,1.5-13.5c0.3-2.8,0.6-5.6,0.8-8.4c1.1-11.1,2.1-22.2,3-33.3c0.8-9.5,1.5-19,2.1-28.5
	c1.2-18.1,2.1-36.1,2.9-54.2c-34.1-1.5-42.1-10.4-53-19.9c-2.7,86.9-11.4,192.2-19.1,239.1c18.2,0.9,36.4,2.3,54.8,4.2
	C1260.6,645.8,1259.1,646,1274.8,648.3z"/>
<path class="st1" d="M1370.1,428.4c-28.9-2.9-34.7-17.6-54.9-19.1c4.7,19.4,5.4,51.2,4.3,69.3c-0.7,10.6-1.5,21.1-2.6,31.6
	c-1.1,11.1-2.5,22.2-4.1,33.2c-0.4,2.8-0.8,5.5-1.3,8.3c-0.5,3.5-1.1,6.9-1.8,10.4c-2.4,13.3-5.2,26.4-8.6,39.4l0,0
	c-4.2,16.5-9.4,32.6-15.4,48.5c23.1,3.6,33.9,5.3,50.3,8.7C1374.5,581.8,1375.8,463.4,1370.1,428.4z"/>
<path class="st1" d="M1387.6,671.3c19.3,5.1,35.2,13.3,55.3,14.2c40.5,1.7,49.2-33.8,34.2-51.7c-0.6,18.9-23.7,8.8-38.7,2
	c-17.8-8-13.7-5.2-13.7-5.2c5-17.1,20.6-97.9,17.8-138.4c25.9,3.5,47.9,15.6,66.2,4.4c11.1-6.8,10.5-23.8-3-51.9
	c-3-6.3-7.3-12.3-13.5-17.5c6,14.3,1.3,24.7-5.2,26.2c-58.5,13.3-62-48.5-110.4-70c4.7,6.2,7.4,13.8,8.2,18.8
	c10,64.8,5.7,182.4-32.7,260.3C1355.7,663.4,1373.5,667.6,1387.6,671.3z"/>
<path class="st1" d="M1473,724.4c-32.6,11.2-146.5-15.3-372.3,89.3c176.9-105.4,347.3-111.6,356.5-113.4
	c19.7-3.8,86.9-53.3,96.7-98.3c5.5-27.7-7.1-82.9-19.4-134.3c-1.6-6.5-11.4-34.5-16.8-41.5c16.7,7.8,32.6,19.7,54.9,24
	c2.2,6.8,4.1,13.6,5.9,20.4c0.7,2.6,1.3,5.1,2,7.7c2.5,10.1,4.7,20.2,6.4,30.4c1.5,8.6,2.8,17.2,3.7,25.8c1,8.8,1.6,17.6,2,26.3
	c5.7-15.4,18.6-48.1,23.1-90.4c0.6-5.5-1.4-11.7-7.4-21c18.3,7.6,21.5,14.7,55.5,21.1C1609.8,644.1,1511.3,711.2,1473,724.4z"/>
<g>
	<path class="st1" d="M738.6,1216.4l4.7-20.4c16-69.6,39.4-137.6,69.4-202.3c5.3-11.5,11.2-23.5,17.4-35.7
		c-19.6,8.9-39.2,18.5-58.2,28.6l-11,5.8l7.8-9.6c36.1-44.2,76.1-85.7,119.1-123.4c52.8-46.4,110.5-87.5,171.7-122.4
		c-24.4-0.2-48.9,0.4-72.9,1.9c-204.4,12.6-398.8,85.6-562,211l-3.2-3.8c84.3-77,179.9-139.2,284.3-184.8
		c106.7-46.6,219.5-74.7,335.5-83.3c47.2-3.5,95.1-3.8,142.5-0.8c13.4,0.8,27,2,40.5,3.3c26.1,2.7,52.3,6.3,78.1,10.9l8.9,1.6
		l-8.4,3.2C1256.6,713.8,1005.2,822.6,892,927c23.1-8.6,46.6-16.5,69.9-23.3l10.1-3l-7.7,7.2c-89.1,83.5-161.9,181-216.3,289.7
		L738.6,1216.4z M841.1,947.7l-3.3,6.3c-7.5,14.3-14.4,28.4-20.6,41.9c-27,58-48.5,118.8-64.2,181
		c51.9-98.7,119.1-187.8,200.1-265.2c-23.8,7.3-47.6,15.5-71.1,24.6l-11.2,4.3l8.6-8.5c103.7-102.4,348.8-211.3,413.2-237.2
		c-22.8-3.9-46-7-69-9.4c-13.4-1.4-27-2.5-40.3-3.3c-47.2-3-94.9-2.7-141.8,0.8C833,698.6,632.1,779.2,469.4,911.4
		c67.3-45.9,139.6-83.6,215.7-112.5c96.7-36.7,198-58.5,301.2-64.9c27.2-1.7,54.9-2.3,82.5-1.8l9.3,0.2l-8.1,4.5
		c-63.8,35.6-124,78.1-178.9,126.3C851.5,898,814.4,936,780.5,976.5c17.8-9.2,35.9-17.9,54-25.9L841.1,947.7z"/>
</g>
</svg>
