<?xml version="1.0" encoding="utf-8"?>
<!-- Generator: Adobe Illustrator 22.0.1, SVG Export Plug-In . SVG Version: 6.00 Build 0)  -->
<svg version="1.1" id="Camada_1" xmlns="http://www.w3.org/2000/svg" xmlns:xlink="http://www.w3.org/1999/xlink" x="0px" y="0px"
	 viewBox="0 0 1920 1312" style="enable-background:new 0 0 1920 1312;" xml:space="preserve">
<style type="text/css">
	.st0{fill:#00A19A;}
	.st1{fill:#EFC514;}
</style>
<g id="Camada_37">
	<g>
		<path class="st0" d="M551.8,612.3C551.7,612.2,551.7,612.2,551.8,612.3c-0.9-0.9-2-1.4-3.5-1.4c-17.8,0-35.6,0-53.4,0
			c-2.7,0-5,2.3-5,5c0,1.4,0,2.7,0,4.1c0,2.7,2.3,5,5,5c6.5,0,13,0,19.5,0c0,32.4,0,64.8,0,97.1c0,2.7,2.3,5,5,5c1.6,0,3.1,0,4.7,0
			c2.7,0,5-2.3,5-5c0-32.4,0-64.8,0-97.1c6.4,0,12.8,0,19.2,0c2.7,0,5-2.3,5-5c0-1.4,0-2.7,0-4.1c0-1.5-0.5-2.6-1.3-3.4
			C551.9,612.4,551.8,612.3,551.8,612.3z"/>
		<path class="st0" d="M606.1,610.8c-12.7,0-25.4,0-38.1,0c-1.5,0-2.6,0.5-3.4,1.3c-0.1,0-0.1,0.1-0.2,0.2l-0.1,0.1
			c-0.8,0.8-1.3,1.9-1.3,3.4c0,35.4,0,70.8,0,106.2c0,2.7,2.3,5,5,5c12.7,0,25.4,0,38.1,0c2.7,0,5-2.3,5-5c0-1.4,0-2.7,0-4.1
			c0-2.7-2.3-5-5-5c-9.5,0-19,0-28.5,0c0-8.7,0-17.4,0-26.2c7.6,0,15.3,0,22.9,0c2.7,0,5-2.3,5-5c0-1.4,0-2.7,0-4.1c0-2.7-2.3-5-5-5
			c-7.6,0-15.3,0-22.9,0c0-15.9,0-31.9,0-47.8c9.5,0,19,0,28.5,0c2.7,0,5-2.3,5-5c0-1.4,0-2.7,0-4.1
			C611,613.1,608.8,610.8,606.1,610.8z"/>
		<path class="st0" d="M738.8,612.3C738.8,612.2,738.8,612.2,738.8,612.3c-0.9-0.9-2-1.4-3.5-1.4c-2.2,0-4.3,0-6.5,0
			c-1.6,0-3.5,0.9-4.3,2.5c-14.5,29.7-29,59.5-43.6,89.2c-14.5-29.7-29-59.5-43.4-89.2c-0.7-1.5-2.6-2.5-4.3-2.5c-2.3,0-4.5,0-6.8,0
			c-2.7,0-5,2.3-5,5c0,35.4,0,70.8,0,106.2c0,2.7,2.3,5,5,5c1.4,0,2.8,0,4.2,0c2.7,0,5-2.3,5-5c0-26.4,0-52.7,0-79.1
			c13.5,27.9,27.1,55.7,40.6,83.6c1.6,3.3,7,3.2,8.6,0c13.6-27.9,27.2-55.8,40.9-83.7c0,26.4,0,52.8,0,79.2c0,2.7,2.3,5,5,5
			c1.6,0,3.1,0,4.7,0c2.7,0,5-2.3,5-5c0-35.4,0-70.8,0-106.2c0-1.5-0.5-2.6-1.3-3.4C738.9,612.4,738.9,612.3,738.8,612.3z"/>
		<path class="st0" d="M762.7,610.8c-1.5,0-2.6,0.5-3.4,1.3c-0.1,0-0.1,0.1-0.2,0.2l-0.1,0.1c-0.8,0.8-1.3,1.9-1.3,3.4
			c0,35.4,0,70.8,0,106.2c0,2.7,2.3,5,5,5c1.6,0,3.1,0,4.7,0c2.7,0,5-2.3,5-5c0-11.3,0-22.7,0-34c19.7-2.5,36.3-19.6,35.3-40.1
			C806.4,623.5,784.8,610.8,762.7,610.8z M772.3,625.3c26.3,4.5,26.4,44.2,0,48.7C772.3,657.7,772.3,641.5,772.3,625.3z"/>
		<path class="st0" d="M861.8,712.9c-9.3,0-18.6,0-27.9,0c0-32.4,0-64.8,0-97.1c0-1.5-0.5-2.6-1.3-3.4c0-0.1-0.1-0.1-0.2-0.2
			l-0.1-0.1c-0.8-0.8-1.9-1.3-3.4-1.3c-1.6,0-3.1,0-4.7,0c-2.7,0-5,2.3-5,5c0,35.4,0,70.8,0,106.2c0,2.7,2.3,5,5,5
			c12.5,0,25,0,37.5,0c2.7,0,5-2.3,5-5c0-1.4,0-2.7,0-4.1C866.8,715.2,864.5,712.9,861.8,712.9z"/>
		<path class="st0" d="M877.4,623.8c-26.6,23.3-26.4,61.5-3.2,86.9c0.3,0.3,0.6,0.6,0.9,0.8c22.7,21.2,57.8,23.7,81.6,2.2
			c24.1-21.9,27.4-59.5,5.6-84.1C940.5,605,902.3,602.1,877.4,623.8z M962.5,668.8c-0.9,24.8-20,45.9-45.6,45.9
			c-25,0-45.6-21.1-45.6-45.9c0-24.7,20.7-46,45.7-45.8C942.6,623.3,961.6,643.8,962.5,668.8z"/>
		<path class="st0" d="M1051.1,610.8c-1.5,0-2.6,0.5-3.4,1.3c-0.1,0-0.1,0.1-0.2,0.2l-0.1,0.1c-0.8,0.8-1.3,1.9-1.3,3.4
			c0,35.4,0,70.8,0,106.2c0,2.7,2.3,5,5,5c34.1,0,62.5-21.8,62.5-58C1113.6,632.9,1085.2,610.8,1051.1,610.8z M1060.6,625.3
			c50,5.5,49.6,82.3,0,87.1C1060.6,683.4,1060.6,654.4,1060.6,625.3z"/>
		<path class="st0" d="M1169.9,610.8c-12.7,0-25.4,0-38.1,0c-1.5,0-2.6,0.5-3.4,1.3c-0.1,0-0.1,0.1-0.2,0.2l-0.1,0.1
			c-0.8,0.8-1.3,1.9-1.3,3.4c0,35.4,0,70.8,0,106.2c0,2.7,2.3,5,5,5c12.7,0,25.4,0,38.1,0c2.7,0,5-2.3,5-5c0-1.4,0-2.7,0-4.1
			c0-2.7-2.3-5-5-5c-9.5,0-19,0-28.5,0c0-8.7,0-17.4,0-26.2c7.6,0,15.3,0,22.9,0c2.7,0,5-2.3,5-5c0-1.4,0-2.7,0-4.1c0-2.7-2.3-5-5-5
			c-7.6,0-15.3,0-22.9,0c0-15.9,0-31.9,0-47.8c9.5,0,19,0,28.5,0c2.7,0,5-2.3,5-5c0-1.4,0-2.7,0-4.1
			C1174.9,613.1,1172.6,610.8,1169.9,610.8z"/>
		<path class="st0" d="M1251.5,610.8c-1.6,0-3.1,0-4.7,0c-1.5,0-2.6,0.5-3.4,1.3c-0.1,0-0.1,0.1-0.2,0.2l-0.1,0.1
			c-0.8,0.8-1.3,1.9-1.3,3.4c0,35.4,0,70.8,0,106.2c0,2.7,2.3,5,5,5c1.6,0,3.1,0,4.7,0c2.7,0,5-2.3,5-5c0-35.4,0-70.8,0-106.2
			C1256.4,613.1,1254.2,610.8,1251.5,610.8z"/>
		<path class="st0" d="M1316.9,681.5c0-1.4,0-2.7,0-4.1c0-2.7-2.3-5-5-5c-7.5,0-15.1,0-22.6,0c0-15.9,0-31.7,0-47.6
			c9.4,0,18.8,0,28.2,0c2.7,0,5-2.3,5-5c0-1.4,0-2.7,0-4.1c0-2.7-2.3-5-5-5c-12.6,0-25.2,0-37.8,0c-1.5,0-2.6,0.5-3.4,1.3
			c-0.1,0-0.1,0.1-0.2,0.2l-0.1,0.1c-0.8,0.8-1.3,1.9-1.3,3.4c0,35.4,0,70.8,0,106.2c0,2.7,2.3,5,5,5c1.6,0,3.1,0,4.7,0
			c2.7,0,5-2.3,5-5c0-11.8,0-23.7,0-35.5c7.5,0,15.1,0,22.6,0C1314.6,686.5,1316.9,684.2,1316.9,681.5z"/>
		<path class="st0" d="M1429.4,719.5c-17.7-36.2-35.4-72.5-53.1-108.7c-1-2-2.6-2.7-4.3-2.5c-1.7-0.2-3.3,0.5-4.3,2.5
			c-17.7,36.2-35.3,72.5-53,108.7c-1.6,3.3,0.3,7.5,4.3,7.5c1.5,0,2.9,0,4.4,0c1.6,0,3.5-0.9,4.3-2.5l18.3-37.8h51.2l18.6,37.8
			c0.8,1.5,2.6,2.5,4.3,2.5c1.7,0,3.3,0,5,0C1429,727,1431,722.8,1429.4,719.5z M1353,672.4c6.2-12.7,12.4-25.4,18.6-38.1
			c6.3,12.7,12.5,25.4,18.8,38.1C1377.9,672.4,1365.4,672.4,1353,672.4z"/>
		<path class="st0" d="M1372.4,604.9c3.4,0,6.6,0.5,9.5-1.5c1.9-1.3,3.6-2.9,5.3-4.4c4.8-4,9.6-7.9,14.3-11.9
			c3.4-2.8,0.5-8.5-3.5-8.5c-1.9,0-3.9,0-5.8,0c-1.5,0-2.7,0.6-3.4,1.4c0,0,0,0-0.1,0c-6.6,5.4-13.2,10.9-19.8,16.3
			C1365.4,599.2,1368.3,604.9,1372.4,604.9z"/>
	</g>
	<path class="st0" d="M1619.4,655.1L1619.4,655.1c-0.6-104.6-63.4-175.4-153.7-175.4c0-204-263-129.2-367.6-129.2
		S960,241.9,960,241.9s-33.5,108.6-138.1,108.6s-367.6-74.8-367.6,129.2c-90.3,0-153,70.9-153.6,175.4c0,0.1,0,0.1,0,0.1
		c0,0.2,0,0.5,0,0.7s0,0.5,0,0.7c0,0,0,0,0,0.1C301.2,761.1,363.9,832,454.3,832c0,204,263,129.2,367.6,129.2S960,1070.1,960,1070.1
		s33.6-108.9,138.2-108.9s367.6,74.8,367.6-129.2c90.3,0,153-70.9,153.6-175.4c0-0.1,0-0.1,0-0.1c0-0.2,0-0.5,0-0.7
		C1619.4,655.6,1619.4,655.4,1619.4,655.1z M1449.8,816.8c0,190.1-197.4,128.5-351.7,128.5c-86.7,0-138.1,62-138.2,85.6
		c0-23.6-51.1-85.6-138.1-85.6c-154.3,0-351.7,61.6-351.7-128.5c-125.4,0-151.5-91.5-151.7-160.9c0.2-69.5,26.2-160.9,151.7-160.9
		c0-190.1,197.4-128.5,351.7-128.5c87,0,138.1-74.7,138.1-98.2c0,23.6,51.5,98.2,138.1,98.2c154.3,0,351.7-61.6,351.7,128.5
		c125.4,0,151.5,91.5,151.7,160.9C1601.3,725.3,1575.3,816.8,1449.8,816.8z"/>
	<g>
		<path class="st0" d="M944.1,358.6l-5.4-5.4c-2.4,2.4-5,4.7-7.7,6.8l4.7,6C938.7,363.7,941.4,361.2,944.1,358.6z"/>
		<path class="st0" d="M956.3,342.5l-6.7-3.6c-1.6,2.9-3.4,5.7-5.5,8.3l6,4.7C952.4,349,954.5,345.8,956.3,342.5z"/>
		<path class="st0" d="M892.8,388.3l-2.4-7.2c-3.3,1.1-6.7,2.2-10.1,3.1l2,7.4C885.8,390.5,889.3,389.4,892.8,388.3z"/>
		<path class="st0" d="M911.2,380.9l-3.3-6.9c-3.2,1.5-6.4,2.9-9.7,4.2l2.8,7.1C904.5,383.9,907.8,382.5,911.2,380.9z"/>
		<path class="st0" d="M928.5,371.2l-4.2-6.4c-2.9,1.9-5.9,3.7-8.9,5.4l3.7,6.7C922.2,375.2,925.4,373.3,928.5,371.2z"/>
		<path class="st0" d="M834.8,399.2l-0.5-7.6c-3.5,0.2-7.1,0.4-10.6,0.4l0.1,7.6C827.4,399.6,831.1,399.4,834.8,399.2z"/>
		<path class="st0" d="M854.4,397.2l-1.1-7.6c-3.5,0.5-7,0.9-10.6,1.2l0.7,7.6C847.1,398.2,850.7,397.7,854.4,397.2z"/>
		<polygon class="st0" points="868.3,394.8 873.7,393.7 872,386.2 866.8,387.4 861.6,388.4 862.9,395.9 		"/>
		<path class="st0" d="M517.6,458.8l-7.3-2.2c-1.2,4-2.3,8-3.1,12.1l7.4,1.7C515.5,466.5,516.5,462.6,517.6,458.8z"/>
		<path class="st0" d="M512.8,479.7l-7.5-1.3c-0.7,4.1-1.2,8.2-1.7,12.3l7.6,0.8C511.6,487.6,512.2,483.6,512.8,479.7z"/>
		<path class="st0" d="M510.4,501l-7.6-0.5c-0.3,4.1-0.4,8.3-0.5,12.4l7.6,0.1C510,509,510.1,505,510.4,501z"/>
		<path class="st0" d="M541.8,404.7c-1.6,1.4-3.1,2.9-4.6,4.3l5.4,5.4c1.4-1.3,2.8-2.7,4.2-4c1.5-1.2,2.9-2.5,4.5-3.7l-4.6-6.1
			C545,401.9,543.5,403.4,541.8,404.7z"/>
		<path class="st0" d="M536.6,421.3l-6-4.8c-2.6,3.3-5,6.8-7.2,10.3l6.5,4C531.9,427.6,534.1,424.3,536.6,421.3z"/>
		<path class="st0" d="M525.4,439l-6.8-3.4c-1.9,3.7-3.5,7.6-5,11.5l7.1,2.7C522.1,446.1,523.7,442.5,525.4,439z"/>
		<path class="st0" d="M604,380.6c-2.1,0.2-4.2,0.3-6.2,0.6l0.9,7.6c1.9-0.3,3.9-0.4,5.9-0.5c2-0.2,3.9-0.3,5.9-0.3l-0.2-7.6
			C608.2,380.3,606.1,380.4,604,380.6z"/>
		<path class="st0" d="M581.8,384.1c-2,0.5-4.1,1.1-6.1,1.7l2.3,7.3c1.9-0.6,3.7-1.2,5.6-1.6c1.9-0.5,3.8-1,5.7-1.3l-1.5-7.5
			C585.9,383,583.8,383.6,581.8,384.1z"/>
		<path class="st0" d="M560.7,391.9c-1.8,1-3.7,2-5.5,3.1l3.9,6.5c1.7-1,3.4-1.9,5.1-2.8c1.7-0.9,3.5-1.6,5.3-2.5l-3-7
			C564.5,390.1,562.6,391,560.7,391.9z"/>
		<path class="st0" d="M769.1,390.9c-4.2-0.2-8.4-0.5-12.6-0.8l-0.5,7.6c4.2,0.2,8.5,0.6,12.7,0.8L769.1,390.9z"/>
		<path class="st0" d="M791.7,391.7c-4.2-0.1-8.4-0.2-12.6-0.4l-0.3,7.6c4.2,0.2,8.5,0.2,12.7,0.4L791.7,391.7z"/>
		<polygon class="st0" points="814.3,392 801.6,391.9 801.5,399.5 814.2,399.6 		"/>
		<polygon class="st0" points="701.6,384.1 689,382.4 688,390 700.6,391.7 		"/>
		<path class="st0" d="M724.1,387c-4.2-0.5-8.3-1-12.5-1.6l-1,7.6c4.2,0.6,8.4,1.1,12.6,1.6L724.1,387z"/>
		<path class="st0" d="M746.4,389.3c-4.2-0.3-8.4-0.7-12.5-1.2l-0.8,7.6c4.2,0.5,8.4,0.9,12.7,1.2L746.4,389.3z"/>
		<path class="st0" d="M633.1,378.1c-4.3-0.1-8.5-0.1-12.8-0.2l-0.1,7.6c4.2,0.1,8.4,0,12.6,0.2L633.1,378.1z"/>
		<polygon class="st0" points="656,379.2 643.2,378.5 642.9,386.1 655.5,386.8 		"/>
		<path class="st0" d="M678.8,381.2c-4.2-0.4-8.5-0.9-12.7-1.3l-0.7,7.6c4.2,0.3,8.4,0.8,12.5,1.2L678.8,381.2z"/>
		<path class="st0" d="M375.3,596c0.9-2.1,1.8-4.1,2.8-6.2l-6.9-3.3c-1,2.2-2,4.4-3,6.5l-2.6,6.7l7.2,2.6L375.3,596z"/>
		<path class="st0" d="M369.2,612.2l-7.2-2.6c-1.7,4.5-3.1,9-4.3,13.7l7.4,2C366.3,620.8,367.7,616.5,369.2,612.2z"/>
		<path class="st0" d="M363.2,636.6l-7.6-0.8c-0.5,4.7-0.8,9.5-1,14.2l7.6,0.2C362.4,645.7,362.7,641.1,363.2,636.6z"/>
		<path class="st0" d="M412.3,539.5l4.2,6.4c3.7-2.5,7.7-4.7,11.7-6.8l-3.5-6.8C420.5,534.5,416.3,536.9,412.3,539.5z"/>
		<path class="st0" d="M392.5,556l5.5,5.3c3.1-3.2,6.4-6.2,9.9-9.1l-4.8-5.9C399.4,549.3,395.8,552.5,392.5,556z"/>
		<path class="st0" d="M387,574.6c1.3-1.8,2.7-3.6,4-5.4l-6-4.7c-1.4,1.9-2.9,3.8-4.3,5.8c-1.3,2-2.7,4-3.9,6l6.5,4
			C384.5,578.4,385.8,576.5,387,574.6z"/>
		<path class="st0" d="M492.1,515.6c-2.4,0.2-4.7,0.2-7.1,0.5l0.7,7.6c2.3-0.3,4.6-0.3,6.9-0.5s4.6-0.3,6.9-0.3l-0.2-7.6
			C496.9,515.4,494.5,515.5,492.1,515.6z"/>
		<path class="st0" d="M466.7,518.6c-2.3,0.4-4.7,0.8-7,1.4l1.7,7.4c2.2-0.6,4.5-0.9,6.7-1.4c2.2-0.4,4.5-0.8,6.8-1.1l-1.1-7.6
			C471.4,517.7,469.1,518.1,466.7,518.6z"/>
		<path class="st0" d="M435.3,527.5l2.9,7.1c4.2-1.7,8.5-3.2,12.8-4.5l-2.2-7.3C444.3,524.2,439.7,525.7,435.3,527.5z"/>
		<polygon class="st0" points="960,334.9 967.3,331.8 960,317.9 952.7,331.8 		"/>
		<path class="st0" d="M932.4,950c2.8,2.1,5.4,4.5,7.9,7l5.4-5.4c-2.7-2.7-5.6-5.3-8.6-7.6L932.4,950z"/>
		<path class="st0" d="M951.8,958.4l-6,4.7c2.2,2.7,4.1,5.6,5.8,8.6l6.7-3.6C956.4,964.7,954.2,961.4,951.8,958.4z"/>
		<path class="st0" d="M880.8,925.4c3.4,0.9,6.9,2,10.2,3.1l2.4-7.2c-3.5-1.2-7.1-2.3-10.7-3.2L880.8,925.4z"/>
		<path class="st0" d="M899.1,931.4c3.3,1.3,6.6,2.7,9.8,4.2l3.3-6.9c-3.4-1.6-6.8-3.1-10.3-4.4L899.1,931.4z"/>
		<path class="st0" d="M916.4,939.5c3.1,1.7,6.2,3.5,9.1,5.5l4.2-6.4c-3.1-2.1-6.4-4-9.7-5.8L916.4,939.5z"/>
		<path class="st0" d="M823.7,917.5c3.6,0,7.2,0.2,10.7,0.4l0.5-7.6c-3.7-0.2-7.4-0.4-11.1-0.4L823.7,917.5z"/>
		<path class="st0" d="M842.9,918.5c3.6,0.3,7.1,0.8,10.7,1.2l1.1-7.6c-3.7-0.5-7.3-1-11-1.3L842.9,918.5z"/>
		<polygon class="st0" points="863.3,913.6 861.9,921.1 867.2,922.1 872.5,923.3 874.2,915.8 868.8,914.7 		"/>
		<path class="st0" d="M512.5,841.8l-7.4,1.7c0.9,4.1,2,8.2,3.2,12.2l7.3-2.2C514.3,849.6,513.3,845.7,512.5,841.8z"/>
		<path class="st0" d="M509,820.4l-7.6,0.8c0.4,4.2,1,8.3,1.7,12.5l7.5-1.3C510,828.4,509.4,824.4,509,820.4z"/>
		<path class="st0" d="M507.7,798.7l-7.6,0.1c0.1,4.2,0.2,8.3,0.5,12.5l7.6-0.5C507.9,806.8,507.8,802.7,507.7,798.7z"/>
		<path class="st0" d="M541.1,898.9l-5.4,5.4c1.6,1.5,3.1,3,4.7,4.4c1.7,1.4,3.3,2.8,5,4.1l4.6-6.1c-1.6-1.2-3.1-2.5-4.6-3.8
			C543.9,901.6,542.5,900.2,541.1,898.9z"/>
		<path class="st0" d="M521.5,885.9c2.3,3.6,4.7,7.2,7.4,10.6l6-4.8c-2.5-3.1-4.7-6.4-6.8-9.8L521.5,885.9z"/>
		<path class="st0" d="M518.6,862.7l-7.1,2.7c1.5,4,3.2,7.9,5.1,11.7l6.8-3.4C521.6,870.1,520.1,866.4,518.6,862.7z"/>
		<path class="st0" d="M598.4,925.2l-0.9,7.6c2.1,0.3,4.2,0.4,6.3,0.6c2.1,0.2,4.2,0.3,6.3,0.3l0.2-7.6c-2,0-4-0.1-6-0.3
			C602.4,925.6,600.4,925.5,598.4,925.2z"/>
		<path class="st0" d="M577.4,920.7l-2.3,7.3c2,0.7,4.1,1.3,6.2,1.8c2.1,0.5,4.1,1.1,6.2,1.4l1.5-7.5c-2-0.3-3.9-0.8-5.8-1.3
			C581.2,921.9,579.3,921.4,577.4,920.7z"/>
		<path class="st0" d="M557.9,912.1l-3.9,6.5c1.8,1.1,3.8,2.1,5.7,3.1s3.9,1.8,5.9,2.7l3-7c-1.8-0.8-3.6-1.6-5.4-2.5
			C561.4,914,559.6,913.1,557.9,912.1z"/>
		<path class="st0" d="M665.5,924.1l0.7,7.6c4.3-0.3,8.5-0.8,12.7-1.3l-0.9-7.6C673.9,923.3,669.7,923.8,665.5,924.1z"/>
		<polygon class="st0" points="642.9,925.6 643.2,933.2 656,932.5 655.5,924.9 		"/>
		<path class="st0" d="M620.4,926.1l0.1,7.6c4.3-0.1,8.5,0,12.8-0.2l-0.2-7.6C628.8,926.1,624.6,926,620.4,926.1z"/>
		<path class="st0" d="M733.2,915.9l0.8,7.6c4.2-0.5,8.3-0.8,12.5-1.2l-0.6-7.6C741.7,915.1,737.5,915.5,733.2,915.9z"/>
		<path class="st0" d="M710.6,918.7l1,7.6c4.2-0.6,8.3-1.1,12.5-1.6l-0.9-7.6C719,917.6,714.8,918.1,710.6,918.7z"/>
		<polygon class="st0" points="688.1,921.7 689.1,929.2 701.7,927.6 700.7,920 		"/>
		<polygon class="st0" points="801.6,912.2 801.8,919.8 814.4,919.7 814.4,912.1 		"/>
		<path class="st0" d="M778.9,912.8l0.3,7.6c4.2-0.2,8.4-0.2,12.6-0.4l-0.2-7.6C787.3,912.5,783.1,912.5,778.9,912.8z"/>
		<path class="st0" d="M756.1,914l0.5,7.6c4.2-0.2,8.4-0.6,12.6-0.8l-0.4-7.6C764.6,913.4,760.4,913.7,756.1,914z"/>
		<path class="st0" d="M373.2,716.5l-2.5-6.4l-7.2,2.6l2.6,6.8c1,2.2,2,4.5,3,6.7l6.9-3.3C375.1,720.7,374.2,718.6,373.2,716.5z"/>
		<path class="st0" d="M364.5,686.1l-7.5,1.3c0.8,4.8,1.9,9.5,3.1,14.2l7.4-2C366.3,695.2,365.3,690.7,364.5,686.1z"/>
		<path class="st0" d="M362.1,661.5l-7.6,0.2c0.1,4.8,0.4,9.6,1,14.4l7.6-0.8C362.5,670.8,362.3,666.1,362.1,661.5z"/>
		<path class="st0" d="M411.1,774c4.1,2.7,8.3,5.1,12.6,7.3l3.5-6.8c-4.1-2.1-8.1-4.4-11.9-6.9L411.1,774z"/>
		<path class="st0" d="M390.9,757.3c3.4,3.5,7,6.8,10.8,9.9l4.8-5.9c-3.5-2.9-6.9-6-10.1-9.3L390.9,757.3z"/>
		<path class="st0" d="M381.4,732.5l-6.5,4c1.2,2.1,2.7,4.1,4,6.2c1.4,2,2.9,3.9,4.4,5.9l6-4.7c-1.4-1.8-2.8-3.7-4.1-5.5
			C383.9,736.4,382.6,734.5,381.4,732.5z"/>
		<path class="st0" d="M485.5,790.2l-0.7,7.6c2.4,0.3,4.8,0.3,7.2,0.5c2.4,0.2,4.8,0.3,7.2,0.3l0.2-7.6c-2.3,0-4.6-0.1-6.9-0.3
			C490.1,790.5,487.8,790.5,485.5,790.2z"/>
		<path class="st0" d="M460.9,786.5l-1.7,7.4c2.3,0.6,4.7,1,7.1,1.4c2.4,0.5,4.7,0.9,7.1,1.2l1.1-7.6c-2.3-0.3-4.6-0.7-6.8-1.1
			C465.4,787.4,463.2,787,460.9,786.5z"/>
		<path class="st0" d="M434.5,786.2c4.5,1.8,9.1,3.4,13.7,4.8l2.2-7.3c-4.4-1.3-8.8-2.8-13-4.6L434.5,786.2z"/>
		<path class="st0" d="M975.9,358.6c2.7,2.6,5.4,5.1,8.4,7.4l4.7-6c-2.7-2.1-5.3-4.4-7.7-6.8L975.9,358.6z"/>
		<path class="st0" d="M970,351.9l6-4.7c-2.1-2.6-3.9-5.4-5.5-8.3l-6.7,3.6C965.5,345.8,967.6,349,970,351.9z"/>
		<path class="st0" d="M1027.2,388.3c3.5,1.2,7,2.2,10.5,3.2l2-7.4c-3.4-0.9-6.8-2-10.1-3.1L1027.2,388.3z"/>
		<path class="st0" d="M1008.8,380.9c3.3,1.6,6.7,3,10.1,4.4l2.8-7.1c-3.3-1.3-6.5-2.7-9.7-4.2L1008.8,380.9z"/>
		<path class="st0" d="M991.5,371.2c3.1,2,6.3,4,9.5,5.7l3.7-6.7c-3.1-1.7-6-3.5-8.9-5.4L991.5,371.2z"/>
		<path class="st0" d="M1085.2,399.2c3.7,0.2,7.3,0.4,11,0.4l0.1-7.6c-3.6,0-7.1-0.2-10.6-0.4L1085.2,399.2z"/>
		<path class="st0" d="M1065.6,397.2c3.6,0.5,7.3,0.9,10.9,1.3l0.7-7.6c-3.5-0.3-7.1-0.8-10.6-1.2L1065.6,397.2z"/>
		<polygon class="st0" points="1048,386.2 1046.3,393.7 1051.7,394.8 1057.1,395.9 1058.4,388.4 1053.2,387.4 		"/>
		<path class="st0" d="M1405.4,470.4l7.4-1.7c-0.9-4.1-1.9-8.1-3.1-12.1l-7.3,2.2C1403.5,462.6,1404.5,466.5,1405.4,470.4z"/>
		<path class="st0" d="M1408.8,491.6l7.6-0.8c-0.4-4.1-1-8.2-1.7-12.3l-7.5,1.3C1407.8,483.6,1408.4,487.6,1408.8,491.6z"/>
		<path class="st0" d="M1410.1,513l7.6-0.1c-0.1-4.1-0.2-8.3-0.5-12.4l-7.6,0.5C1409.9,505,1410,509,1410.1,513z"/>
		<path class="st0" d="M1377.4,414.4l5.4-5.4c-1.5-1.4-3-2.9-4.6-4.3c-1.6-1.3-3.2-2.8-4.9-4l-4.6,6.1c1.6,1.1,3,2.5,4.5,3.7
			C1374.6,411.7,1375.9,413.1,1377.4,414.4z"/>
		<path class="st0" d="M1396.6,426.9c-2.2-3.6-4.6-7-7.2-10.3l-6,4.8c2.4,3,4.6,6.2,6.7,9.6L1396.6,426.9z"/>
		<path class="st0" d="M1399.3,449.8l7.1-2.7c-1.5-3.9-3.1-7.8-5-11.5l-6.8,3.4C1396.3,442.5,1397.9,446.1,1399.3,449.8z"/>
		<path class="st0" d="M1321.3,388.7l0.9-7.6c-2.1-0.3-4.2-0.4-6.2-0.6c-2.1-0.2-4.2-0.3-6.2-0.3l-0.2,7.6c2,0,4,0.1,5.9,0.3
			C1317.4,388.4,1319.4,388.4,1321.3,388.7z"/>
		<path class="st0" d="M1342,393.1l2.3-7.3c-2-0.7-4-1.3-6.1-1.7c-2-0.5-4.1-1-6.1-1.4l-1.5,7.5c1.9,0.3,3.8,0.8,5.7,1.3
			C1338.2,391.9,1340.1,392.5,1342,393.1z"/>
		<path class="st0" d="M1360.9,401.5l3.9-6.5c-1.8-1.1-3.7-2-5.5-3.1c-1.9-0.9-3.8-1.8-5.7-2.7l-3,7c1.8,0.8,3.5,1.6,5.3,2.5
			C1357.5,399.6,1359.3,400.5,1360.9,401.5z"/>
		<path class="st0" d="M1150.9,390.9l0.4,7.6c4.2-0.2,8.5-0.5,12.7-0.8l-0.5-7.6C1159.3,390.4,1155.1,390.7,1150.9,390.9z"/>
		<path class="st0" d="M1128.3,391.7l0.2,7.6c4.2-0.1,8.5-0.2,12.7-0.4l-0.3-7.6C1136.7,391.5,1132.5,391.5,1128.3,391.7z"/>
		<polygon class="st0" points="1105.7,392 1105.8,399.6 1118.5,399.5 1118.4,391.9 		"/>
		<polygon class="st0" points="1218.4,384.1 1219.4,391.7 1232,390 1231,382.4 		"/>
		<path class="st0" d="M1195.9,387l0.9,7.6c4.2-0.5,8.4-1,12.6-1.6l-1-7.6C1204.3,386,1200.1,386.5,1195.9,387z"/>
		<path class="st0" d="M1173.6,389.3l0.6,7.6c4.2-0.3,8.5-0.7,12.7-1.2l-0.8-7.6C1181.9,388.6,1177.7,389,1173.6,389.3z"/>
		<path class="st0" d="M1286.9,378.1l0.2,7.6c4.2-0.1,8.4-0.1,12.6-0.2l-0.1-7.6C1295.5,378,1291.2,378,1286.9,378.1z"/>
		<polygon class="st0" points="1264,379.2 1264.5,386.8 1277.1,386.1 1276.8,378.5 		"/>
		<path class="st0" d="M1241.2,381.2l0.8,7.6c4.2-0.4,8.4-0.9,12.5-1.2l-0.7-7.6C1249.7,380.3,1245.5,380.8,1241.2,381.2z"/>
		<path class="st0" d="M1544.7,596l2.4,6.3l7.2-2.6l-2.6-6.7c-1-2.2-1.9-4.4-3-6.5l-6.9,3.3C1542.9,591.9,1543.8,594,1544.7,596z"/>
		<path class="st0" d="M1507.7,539.5c-4-2.7-8.2-5.1-12.4-7.2l-3.5,6.8c4,2,7.9,4.3,11.7,6.8L1507.7,539.5z"/>
		<path class="st0" d="M1527.5,556c-3.3-3.5-6.9-6.7-10.6-9.7l-4.8,5.9c3.5,2.9,6.8,5.9,9.9,9.1L1527.5,556z"/>
		<path class="st0" d="M1536.7,580.3l6.5-4c-1.2-2.1-2.6-4-3.9-6c-1.4-2-2.8-3.9-4.3-5.8l-6,4.7c1.3,1.8,2.7,3.6,4,5.4
			C1534.2,576.5,1535.5,578.4,1536.7,580.3z"/>
		<path class="st0" d="M1434.3,523.7l0.7-7.6c-2.4-0.3-4.7-0.3-7.1-0.5s-4.7-0.3-7.1-0.3l-0.2,7.6c2.3,0,4.6,0.1,6.9,0.3
			C1429.7,523.4,1432,523.5,1434.3,523.7z"/>
		<path class="st0" d="M1458.6,527.4l1.7-7.4c-2.3-0.6-4.7-1-7-1.4c-2.3-0.5-4.7-0.8-7-1.1l-1.1,7.6c2.3,0.3,4.5,0.6,6.8,1.1
			C1454.1,526.5,1456.4,526.9,1458.6,527.4z"/>
		<path class="st0" d="M1484.7,527.5c-4.4-1.8-9-3.4-13.5-4.7l-2.2,7.3c4.3,1.3,8.6,2.8,12.8,4.5L1484.7,527.5z"/>
		<polygon class="st0" points="960,974.5 952.7,977.6 960,991.4 967.3,977.6 		"/>
		<path class="st0" d="M974.3,951.5l5.4,5.4c2.5-2.5,5.1-4.8,7.9-7l-4.7-6C979.9,946.3,977,948.8,974.3,951.5z"/>
		<path class="st0" d="M961.7,968.1l6.7,3.6c1.7-3,3.6-5.9,5.8-8.6l-6-4.7C965.8,961.4,963.6,964.7,961.7,968.1z"/>
		<path class="st0" d="M1026.5,921.3l2.4,7.2c3.4-1.1,6.8-2.2,10.2-3.1l-2-7.4C1033.5,919,1030,920.1,1026.5,921.3z"/>
		<path class="st0" d="M1007.9,928.8l3.3,6.9c3.2-1.5,6.5-2.9,9.8-4.2l-2.8-7.1C1014.7,925.7,1011.3,927.2,1007.9,928.8z"/>
		<path class="st0" d="M990.3,938.6l4.2,6.4c3-2,6-3.8,9.1-5.5l-3.7-6.7C996.7,934.6,993.5,936.5,990.3,938.6z"/>
		<path class="st0" d="M1085.1,910.3l0.5,7.6c3.6-0.2,7.2-0.4,10.7-0.4l-0.1-7.6C1092.5,909.9,1088.8,910.1,1085.1,910.3z"/>
		<path class="st0" d="M1065.3,912.2l1.1,7.6c3.5-0.5,7.1-0.9,10.7-1.2l-0.7-7.6C1072.7,911.3,1069,911.7,1065.3,912.2z"/>
		<polygon class="st0" points="1051.2,914.7 1045.8,915.8 1047.5,923.3 1052.8,922.1 1058.1,921.1 1056.7,913.6 		"/>
		<path class="st0" d="M1404.5,853.5l7.3,2.2c1.2-4,2.3-8.1,3.2-12.2l-7.4-1.7C1406.7,845.7,1405.7,849.6,1404.5,853.5z"/>
		<path class="st0" d="M1409.4,832.4l7.5,1.3c0.7-4.1,1.2-8.3,1.7-12.5l-7.6-0.8C1410.6,824.4,1410,828.4,1409.4,832.4z"/>
		<path class="st0" d="M1411.8,810.8l7.6,0.5c0.3-4.2,0.4-8.3,0.5-12.5l-7.6-0.1C1412.2,802.7,1412.1,806.8,1411.8,810.8z"/>
		<path class="st0" d="M1374.6,902.9c-1.5,1.2-3,2.6-4.6,3.8l4.6,6.1c1.7-1.3,3.3-2.7,5-4.1c1.6-1.4,3.1-3,4.7-4.4l-5.4-5.4
			C1377.5,900.2,1376.1,901.6,1374.6,902.9z"/>
		<path class="st0" d="M1385.2,891.8l6,4.8c2.7-3.4,5.1-6.9,7.4-10.6l-6.5-4C1389.9,885.4,1387.7,888.7,1385.2,891.8z"/>
		<path class="st0" d="M1396.6,873.7l6.8,3.4c1.9-3.8,3.6-7.7,5.1-11.7l-7.1-2.7C1399.9,866.4,1398.4,870.1,1396.6,873.7z"/>
		<path class="st0" d="M1315.6,925.7c-2,0.2-4,0.3-6,0.3l0.2,7.6c2.1,0,4.2-0.1,6.3-0.3c2.1-0.2,4.2-0.3,6.3-0.6l-0.9-7.6
			C1319.6,925.5,1317.6,925.6,1315.6,925.7z"/>
		<path class="st0" d="M1336.9,922.4c-1.9,0.5-3.9,1-5.8,1.3l1.5,7.5c2.1-0.3,4.2-0.9,6.2-1.4c2.1-0.5,4.1-1.1,6.2-1.8l-2.3-7.3
			C1340.7,921.4,1338.8,921.9,1336.9,922.4z"/>
		<path class="st0" d="M1356.9,915c-1.8,0.9-3.6,1.7-5.4,2.5l3,7c2-0.9,3.9-1.8,5.9-2.7c1.9-1,3.8-2,5.7-3.1l-3.9-6.5
			C1360.4,913.1,1358.6,914,1356.9,915z"/>
		<path class="st0" d="M1241.1,930.5c4.2,0.4,8.5,0.9,12.7,1.3l0.7-7.6c-4.2-0.3-8.4-0.8-12.5-1.2L1241.1,930.5z"/>
		<polygon class="st0" points="1264,932.5 1276.8,933.2 1277.1,925.6 1264.5,924.9 		"/>
		<path class="st0" d="M1286.8,933.5c4.3,0.2,8.5,0.1,12.8,0.2l0.1-7.6c-4.2-0.1-8.4,0-12.6-0.2L1286.8,933.5z"/>
		<path class="st0" d="M1173.4,922.3c4.2,0.3,8.4,0.7,12.5,1.2l0.8-7.6c-4.2-0.5-8.4-0.9-12.7-1.2L1173.4,922.3z"/>
		<path class="st0" d="M1195.9,924.6c4.2,0.5,8.3,1,12.5,1.6l1-7.6c-4.2-0.6-8.4-1.1-12.6-1.6L1195.9,924.6z"/>
		<polygon class="st0" points="1218.3,927.6 1230.9,929.2 1231.9,921.7 1219.3,920 		"/>
		<polygon class="st0" points="1105.6,919.7 1118.2,919.8 1118.4,912.2 1105.6,912.1 		"/>
		<path class="st0" d="M1128.2,920c4.2,0.1,8.4,0.2,12.6,0.4l0.3-7.6c-4.2-0.2-8.5-0.2-12.7-0.4L1128.2,920z"/>
		<path class="st0" d="M1150.8,920.8c4.2,0.2,8.4,0.5,12.6,0.8l0.5-7.6c-4.2-0.2-8.5-0.6-12.7-0.8L1150.8,920.8z"/>
		<path class="st0" d="M1546.8,716.5c-1,2.1-1.9,4.2-2.8,6.3l6.9,3.3c1-2.2,2-4.4,3-6.7l2.6-6.8l-7.2-2.6L1546.8,716.5z"/>
		<path class="st0" d="M1552.5,699.6l7.4,2c1.3-4.7,2.3-9.4,3.1-14.2l-7.5-1.3C1554.7,690.7,1553.7,695.2,1552.5,699.6z"/>
		<path class="st0" d="M1557.9,661.5c-0.1,4.6-0.4,9.2-0.9,13.8l7.6,0.8c0.5-4.8,0.8-9.6,1-14.4L1557.9,661.5z"/>
		<path class="st0" d="M1492.8,774.6l3.5,6.8c4.3-2.2,8.6-4.6,12.6-7.3l-4.2-6.4C1500.9,770.2,1496.9,772.5,1492.8,774.6z"/>
		<path class="st0" d="M1513.5,761.3l4.8,5.9c3.8-3.1,7.4-6.4,10.8-9.9l-5.5-5.3C1520.5,755.3,1517,758.3,1513.5,761.3z"/>
		<path class="st0" d="M1534.8,738.3c-1.3,1.9-2.7,3.7-4.1,5.5l6,4.7c1.5-2,2.9-3.9,4.4-5.9c1.3-2.1,2.7-4.1,4-6.2l-6.5-4
			C1537.4,734.5,1536.1,736.4,1534.8,738.3z"/>
		<path class="st0" d="M1427.6,790.7c-2.3,0.2-4.6,0.3-6.9,0.3l0.2,7.6c2.4,0,4.8-0.1,7.2-0.3c2.4-0.2,4.8-0.2,7.2-0.5l-0.7-7.6
			C1432.2,790.5,1429.9,790.5,1427.6,790.7z"/>
		<path class="st0" d="M1452.3,787.8c-2.3,0.5-4.5,0.8-6.8,1.1l1.1,7.6c2.4-0.3,4.8-0.7,7.1-1.2c2.4-0.4,4.7-0.8,7.1-1.4l-1.7-7.4
			C1456.8,787,1454.6,787.4,1452.3,787.8z"/>
		<path class="st0" d="M1469.6,783.7l2.2,7.3c4.6-1.4,9.2-3,13.7-4.8l-2.9-7.1C1478.4,780.9,1474,782.4,1469.6,783.7z"/>
	</g>
	<path class="st0" d="M987.8,457.1c-7.5-6.8-14.3-27.2-19.9-26.2c-5.6,1.1-10.3,1.1-15.9,0c-5.6-1.1-12.4,19.4-19.9,26.2
		c-7.5,6.8-42.3,62.4,7.2,112.2c14.8,14,20.7-1.4,20.7-1.4s5.9,15.5,20.7,1.4C1030.1,519.4,995.4,463.9,987.8,457.1z M962.5,500.8
		c-2.1,8.5-8,37.1-6.7,49.8c-19.2-2.6-34.2-22.9-34.2-47.6c0-22,11.9-40.5,28.1-46.1c2.7,2.6,5.9,6.7,8.1,13.1
		C962.8,484,964.6,492.2,962.5,500.8z M966.3,550.2c-2-9.5-3.8-23.1-1.2-32.3c3.9-13.6,12.1-40.4,11.9-57.6
		c12.5,7.9,21.2,24.1,21.2,42.8C998.2,526.7,984.4,546.4,966.3,550.2z"/>
	<g>
		<path class="st1" d="M1141.4,524.8c21,8.1,21,1.3,21,1.3s-7.3-2.2-11-6.5s-21.1-8.3-38.6,3.2c25.8,0,40,33.1,49.6,33.1
			c-7.1,0-13-6.7-20.5-14.5c-7.6-7.8-21.2-16.4-31.2-16.4c-9.9,0-20.8,21-49.1,21s-33.5-29.4-33.4-43c0-6,2.2-17.4,10.5-21.5
			s0.4-11.8-8.8-11.8c-9.2,0-9.2,19.5-9.2,33.3c0,13.7,12.6,47.6,40.9,47.6c20.6,0,28.1-6.2,33.8-0.4c5.6,5.8,16.7,11.2,26.3,7.2
			c9.7-4,17,9.2,17,9.2s5.1-12.7-13.2-21.3c8.9-4.3,16.1,24.2,46.7,12.4C1163.7,553.9,1156.6,532.8,1141.4,524.8z"/>
		<path class="st1" d="M1233.2,527.7c-5.3-5.3-12.9-9.6-12.9-9.6s17.8-2.7,17.8-29.7s-16-36.1-22.8-36.1c-6.9,0-8.7,5.9-8.7,5.9
			s18.6,1.7,18.6,28.2c0,34.9-57.6,17.4-88.3,17.4s-51.3,32.4-66.4,32.4c-6.7,0-10.5-4-12.6-8.4c0.2,0,0.4,0,0.6,0
			c6.6,0,12-5.4,12-12c0-6.6-5.4-12-12-12s-12,5.4-12,12c0,17.2,12.7,25.8,24,25.8c21.7,0,34.2-28.4,66.4-28.4
			c47.6,0,35.2,57.2,84.4,40.5c-14.5-4.6-12.9-15.9-12.9-15.9s9.9,9.4,19.4,9.4c9.4,0,15.9-4,20.9-11
			C1242.8,538.5,1238.5,533,1233.2,527.7z M1227.6,471.9c8.7,10.8,9.9,43.3-23.9,43.3C1240.8,510.6,1227.6,471.9,1227.6,471.9z
			 M1209.9,552c0,0-15.4,6.5-29.2-18c-5.5-11.1-15.7-17.5-15.7-17.5s11,1.9,18.3,12.7C1190.5,539.9,1198.3,552,1209.9,552z
			 M1228.8,541c-8.6,0-21.5-21.2-42.3-21.2c0,0,21.4-0.3,30.8,8.8s12.5,9.9,19.7,9.9C1237,538.5,1235.2,541,1228.8,541z"/>
	</g>
	<g>
		<path class="st1" d="M777.9,524.8c-21,8.1-21,1.3-21,1.3s7.3-2.2,11-6.5s21.1-8.3,38.6,3.2c-25.8,0-40,33.1-49.6,33.1
			c7.1,0,13-6.7,20.5-14.5c7.6-7.8,21.2-16.4,31.2-16.4c9.9,0,20.8,21,49.1,21s33.5-29.4,33.4-43c0-6-2.2-17.4-10.5-21.5
			s-0.4-11.8,8.8-11.8s9.2,19.5,9.2,33.3c0,13.7-12.6,47.6-40.9,47.6c-20.6,0-28.1-6.2-33.8-0.4c-5.6,5.8-16.7,11.2-26.3,7.2
			c-9.7-4-17,9.2-17,9.2s-5.1-12.7,13.2-21.3c-8.9-4.3-16.1,24.2-46.7,12.4C755.6,553.9,762.6,532.8,777.9,524.8z"/>
		<path class="st1" d="M686,527.7c5.3-5.3,12.9-9.6,12.9-9.6s-17.8-2.7-17.8-29.7s16-36.1,22.8-36.1c6.9,0,8.7,5.9,8.7,5.9
			s-18.6,1.7-18.6,28.2c0,34.9,57.6,17.4,88.3,17.4c30.6,0,51.3,32.4,66.4,32.4c6.7,0,10.5-4,12.6-8.4c-0.2,0-0.4,0-0.6,0
			c-6.6,0-12-5.4-12-12c0-6.6,5.4-12,12-12s12,5.4,12,12c0,17.2-12.7,25.8-24,25.8c-21.7,0-34.2-28.4-66.4-28.4
			c-47.6,0-35.2,57.2-84.4,40.5c14.5-4.6,12.9-15.9,12.9-15.9s-9.9,9.4-19.4,9.4s-15.9-4-20.9-11C676.5,538.5,680.8,533,686,527.7z
			 M691.7,471.9c-8.7,10.8-9.9,43.3,23.9,43.3C678.5,510.6,691.7,471.9,691.7,471.9z M709.4,552c0,0,15.4,6.5,29.2-18
			c5.5-11.1,15.7-17.5,15.7-17.5s-11,1.9-18.3,12.7C728.8,539.9,721,552,709.4,552z M690.5,541c8.6,0,21.5-21.2,42.3-21.2
			c0,0-21.4-0.3-30.8,8.8s-12.5,9.9-19.7,9.9C682.3,538.5,684.1,541,690.5,541z"/>
	</g>
	<path class="st0" d="M1551,612.7l7.2-2.6c1.7,4.5,3.1,9,4.3,13.7l-7.4,2C1553.9,621.3,1552.6,616.9,1551,612.7z"/>
	<path class="st0" d="M1557.1,637l7.6-0.8c0.5,4.7,0.8,9.5,1,14.2l-7.6,0.2C1557.8,646.1,1557.6,641.6,1557.1,637z"/>
</g>
</svg>
