<?xml version="1.0" encoding="utf-8"?>
<!-- Generator: Adobe Illustrator 22.0.1, SVG Export Plug-In . SVG Version: 6.00 Build 0)  -->
<svg version="1.1" xmlns="http://www.w3.org/2000/svg" xmlns:xlink="http://www.w3.org/1999/xlink" x="0px" y="0px"
	 viewBox="0 0 1920 1312" style="enable-background:new 0 0 1920 1312;" xml:space="preserve">
<style type="text/css">
	.st0{fill:#D6075C;}
	.st1{fill:#F7A941;}
	.st2{fill:#F2E61A;}
	.st3{fill:#49B170;}
	.st4{fill:#006EB7;}
	.st5{fill:#27348B;}
	.st6{fill:#59358C;}
	.st7{fill:#FFFFFF;}
	.st8{display:none;}
	.st9{display:inline;}
	.st10{fill:#B5B5B5;}
</style>
<g id="Camada_1">
	<g id="Camada_38_1_">
		<g>
			<g>
				<polygon class="st0" points="1037.1,732.9 922,732.9 909,770.6 1050.6,770.6 				"/>
				<path class="st0" d="M744,770.6c-0.2-0.2-0.4-0.4-0.7-0.7c-10.7-9.3-22.6-17-35.7-23.1c-13.1-6.2-26.8-10.8-40.8-13.9
					c-14-3-27.2-4.6-39.6-4.6c-22.6,0-43.5,3.4-62.9,10.3c-19.4,6.9-36.1,16.7-50.3,29.7c-0.8,0.7-1.6,1.6-2.5,2.3L744,770.6z"/>
				<g>
					<path class="st0" d="M1340.9,732.9c0,0-7.6,18.9-15.2,37.7h109.5l22.7-37.7H1340.9z"/>
					<polygon class="st0" points="1158.2,732.9 1181.2,770.6 1291.9,770.6 1275.9,732.9 					"/>
				</g>
				<polygon class="st1" points="1050.6,770.6 909,770.6 894.3,812.8 1065.6,812.8 				"/>
				<g>
					<path class="st1" d="M744,770.7l-232.4-0.1c-12.4,11.8-22.3,25.9-29.8,42.2l256.9,0.1l28.9-10.8
						C762.2,790.2,754.3,779.8,744,770.7z"/>
				</g>
				<path class="st2" d="M781.5,849H622.3v5.8l159.3,0.2C781.5,851.4,781.5,849,781.5,849z"/>
				<polygon class="st2" points="1207.1,812.8 1232.9,855 1384.3,855 1409.6,812.8 				"/>
				<polygon class="st3" points="895.1,855 879.7,855 865,897.1 881,897.1 946.2,897.1 965.7,897.1 974.5,855 957.3,855 				"/>
				<g>
					<path class="st3" d="M781.6,854.9H622.3v42.2h158.3c0.4-4.3,0.8-8.5,0.9-12.9C781.8,876.8,781.7,862.8,781.6,854.9z"/>
					<path class="st3" d="M470,854.9c-1,7.4-1.5,15.2-1.5,23.1c0,6.6,0.3,12.8,1.1,19h103.8c-2-6.3-3-13-3-19.9
						c0-7.8,1.4-15.3,3.8-22.2H470z"/>
				</g>
				<polygon class="st3" points="1232.9,855 1258,895.8 1258,897.1 1359.7,897.1 1359.7,895.8 1384.3,855 				"/>
				<path class="st4" d="M1110.7,939.4l-15-42.3H995.5c1.8,8.3,3,14.1,3,14.1h-35.7l3-14.1H865l-14.7,42.3H1110.7z"/>
				<path class="st4" d="M622.3,897.1v16.2h47.9c-10,15.4-26.3,25.5-44.6,25.5c-24.1,0-44.7-17.5-52.1-41.7H469.5
					c1.6,15.3,5.4,29.5,11.2,42.4h289.3c3.4-7.7,5.8-15.7,7.6-23.8c1.3-6.1,2.3-12.3,3-18.5H622.3z"/>
				<rect x="1258" y="897.1" class="st4" width="101.8" height="42.2"/>
				<polygon class="st5" points="1110.7,939.4 850.3,939.4 835.7,981.6 1125.8,981.6 				"/>
				<rect x="1258" y="939.4" class="st5" width="101.8" height="42.2"/>
				<polygon class="st6" points="1125.8,981.6 835.7,981.6 822.6,1019.2 932.7,1019.2 941.1,983.5 1019.6,983.5 1029.1,1019.2 
					1139.2,1019.2 				"/>
				<path class="st6" d="M510.7,981.5c1.3,1.2,2.6,2.5,3.9,3.7c14.3,12.6,31.1,22.1,50.3,28.6c19.2,6.6,39.7,9.8,61.5,9.8h0.1
					c11.1,0,22.2-1.1,33.3-3.2c11.2-2.1,22-5.3,32.5-9.7c10.5-4.3,20.5-9.6,30-15.9c6.1-4,11.7-8.5,16.9-13.4H510.7z"/>
				<rect x="1258" y="981.6" class="st6" width="101.8" height="37.6"/>
			</g>
			<path class="st7" d="M491.6,290.8h58.7l21.7,82.4h1.5c0.6-3.4,1.1-7,1.6-10.5c0.6-3.5,1.3-7,2.3-10.3l17.7-61.6h58l25.8,157
				h-55.2l-7.7-85.9H615c-0.6,2.6-1.1,5.3-1.6,7.9c-0.6,2.6-1.2,5.2-2.1,7.7l-22.7,70.3h-33.3L535,381.4c-0.8-3.4-1.6-6.6-2.2-9.8
				s-1.1-6.5-1.3-9.8h-1.9c-0.2,3.2-0.5,6.3-0.7,9.4s-0.4,6.3-0.7,9.4l-6.6,67h-55.2L491.6,290.8z"/>
			<path class="st7" d="M697.2,290.8h105.5v42.8h-48.1v15h43.9v40.8h-43.9v15.4h49.7v42.8H697.2V290.8z"/>
			<path class="st7" d="M827.9,290.8h57v106.5h47.9v50.4H827.9V290.8z"/>
			<path class="st7" d="M948.4,290.8h54.9v52.9h35v-52.9h54.9v156.9h-54.9v-54.5h-35v54.5h-54.9L948.4,290.8L948.4,290.8z"/>
			<path class="st7" d="M1200,288.3c11.9,0,23.1,2,33.7,5.8c10.5,3.9,19.7,9.4,27.6,16.4c7.8,7.1,14,15.6,18.6,25.6
				c4.6,10,6.9,21.2,6.9,33.5c0,12.6-2.3,23.9-6.9,33.8s-10.8,18.4-18.6,25.3c-7.9,7-17.1,12.2-27.6,15.9s-21.8,5.5-33.7,5.5
				c-11.9,0-23.1-1.8-33.7-5.5c-10.5-3.7-19.7-8.9-27.6-15.9c-7.9-7-14-15.3-18.6-25.3c-4.6-9.9-6.9-21.2-6.9-33.8
				c0-12.3,2.3-23.6,6.9-33.5c4.6-10,10.8-18.5,18.6-25.6c7.8-7.1,17-12.6,27.6-16.4C1176.8,290.3,1188,288.3,1200,288.3z
				 M1200,339.9c-4.6,0-8.7,0.8-12.3,2.4c-3.6,1.6-6.6,3.9-9.2,6.6c-2.5,2.9-4.4,6.1-5.8,9.8s-2.1,7.6-2.1,11.7
				c0,9,2.7,16.3,8.1,21.8c5.4,5.6,12.5,8.3,21.3,8.3c8.7,0,15.8-2.8,21.3-8.3c5.4-5.6,8.1-12.8,8.1-21.8c0-4.2-0.7-8-2.1-11.7
				s-3.4-7-5.8-9.8c-2.5-2.9-5.6-5.1-9.2-6.6C1208.6,340.7,1204.5,339.9,1200,339.9z"/>
			<path class="st7" d="M1307,290.8h68.9c8.9,0,17.2,1,25.2,2.9c7.9,2,14.9,5.1,20.8,9.4c6,4.4,10.7,10,14.1,17s5.2,15.3,5.2,25.2
				c0,6-0.6,11.1-1.8,15.4c-1.1,4.3-3,8-5.5,11.2s-5.7,5.9-9.4,8.1c-3.9,2.2-8.4,4.3-13.6,6.1v1.2c1.6,1.1,3.1,2.4,4.8,3.8
				c1.6,1.4,3.3,3.3,4.8,5.6l34.1,51h-65.7l-25-50.4h-1.1v50.4H1307L1307,290.8L1307,290.8z M1362.7,360.4h3.9
				c2.4,0,4.7-0.2,6.9-0.4c2.2-0.2,4.3-0.9,6.1-1.8c1.8-0.9,3.2-2.2,4.3-3.9c1.1-1.7,1.6-4,1.6-7c0-3-0.5-5.4-1.5-7.1
				c-1-1.7-2.3-3.1-3.9-4c-1.6-1-3.6-1.6-5.8-1.9c-2.2-0.2-4.6-0.4-7.1-0.4h-4.4L1362.7,360.4L1362.7,360.4z"/>
			<path class="st7" d="M536.5,677.6h-70.3l63.5-182.9h73.5l65.3,182.9h-70.3l-6.1-22.8h-50.1L536.5,677.6z M580.4,611.4l-7.8-32.3
				c-1-3.9-1.8-7.8-2.5-11.7c-0.7-3.9-1.3-7.9-2-11.7h-2.5l-12.1,55.8L580.4,611.4L580.4,611.4z"/>
			<path class="st7" d="M704.4,494.7h68.4l25.2,96h1.7c0.7-4,1.3-8.1,2-12.2c0.7-4.1,1.6-8.1,2.6-12l20.6-71.8h67.6l30.2,182.9
				h-64.3l-8.9-100.1h-1.2c-0.7,3-1.3,6.2-2,9.2c-0.7,3-1.5,6.1-2.5,8.9l-26.4,82h-38.8l-23.8-77.4c-1-3.9-1.8-7.7-2.5-11.4
				c-0.7-3.7-1.2-7.6-1.6-11.4h-2.2c-0.3,3.7-0.6,7.4-0.8,11c-0.2,3.6-0.5,7.3-0.8,11l-7.8,78.1h-64.2L704.4,494.7z"/>
			<path class="st7" d="M945.4,494.7h66.5v182.9h-66.5V494.7z"/>
			<path class="st7" d="M1236,569.9c-0.2,7.5-0.3,14.6-0.6,21.5c-0.2,6.9-1.1,13.5-2.5,20s-3.5,12.7-6.6,18.8
				c-3,6.1-7.1,12-12.5,17.8c-4.8,5.3-10.3,10-16.3,14c-6.1,4-12.5,7.5-19.1,10.2c-6.7,2.8-13.6,4.8-20.8,6.2
				c-7.1,1.4-14.2,2.1-21.3,2.1c-13.9,0-27-2.1-39.3-6.3c-12.3-4.2-23-10.3-32.2-18.3c-9.1-8-16.3-17.7-21.6-29.2
				c-5.3-11.5-7.9-24.5-7.9-39.3c0-14.9,2.6-28.2,7.8-40.1c5.2-11.8,12.3-21.8,21.3-30s19.8-14.5,32.2-18.9s25.8-6.6,40.1-6.6
				c8,0,16.3,1,25.4,2.9s17.6,4.9,26.1,8.9c8.4,3.9,16,8.9,22.8,14.8c6.8,5.9,12,12.7,15.5,20.5l-62,22.8
				c-2.6-4.7-6.1-8.2-10.6-10.6c-4.4-2.4-9.4-3.5-14.7-3.5c-6,0-11.2,1.1-15.8,3.5c-4.5,2.4-8.4,5.5-11.5,9.4
				c-3.1,3.9-5.5,8.5-7.1,13.5c-1.6,5.1-2.5,10.4-2.5,15.9c0,5,0.7,9.8,2.3,14.5s3.8,8.9,6.6,12.5c2.9,3.6,6.5,6.6,10.8,8.7
				c4.3,2.2,9.1,3.3,14.4,3.3c2.5,0,5.3-0.3,8.1-1c2.8-0.7,5.5-1.6,8-2.9c2.5-1.3,4.8-3,6.6-5c2-2.1,3.3-4.4,4.1-7.1h-30v-43.2H1236
				V569.9z"/>
			<path class="st7" d="M1353.3,491.8c13.9,0,27,2.3,39.3,6.8c12.3,4.5,23,10.9,32.1,19.1c9.1,8.2,16.3,18.2,21.7,29.8
				c5.3,11.7,8,24.6,8,39.1c0,14.7-2.6,27.8-8,39.4s-12.6,21.4-21.7,29.5c-9.1,8.1-19.9,14.3-32.1,18.5c-12.3,4.3-25.4,6.4-39.3,6.4
				c-13.9,0-27-2.1-39.3-6.4c-12.3-4.3-23-10.5-32.2-18.5c-9.1-8-16.3-17.9-21.7-29.5c-5.3-11.6-8-24.7-8-39.4
				c0-14.4,2.7-27.4,8-39.1c5.3-11.7,12.6-21.6,21.7-29.8c9.1-8.2,19.9-14.6,32.2-19.1C1326.3,494.1,1339.5,491.8,1353.3,491.8z
				 M1353.3,551.9c-5.3,0-10.1,0.9-14.3,2.8c-4.2,1.9-7.8,4.4-10.7,7.8c-2.9,3.3-5.2,7.1-6.8,11.4s-2.5,8.9-2.5,13.7
				c0,10.5,3.1,19,9.4,25.4c6.3,6.5,14.5,9.7,24.7,9.7c10.2,0,18.5-3.2,24.7-9.7c6.3-6.5,9.4-14.9,9.4-25.4c0-4.8-0.8-9.4-2.5-13.7
				s-3.9-8-6.8-11.4c-2.9-3.3-6.5-5.9-10.7-7.8C1363.5,552.9,1358.7,551.9,1353.3,551.9z"/>
			<rect x="467.2" y="700.6" class="st7" width="987.3" height="4.8"/>
			<rect x="467.2" y="468.6" class="st7" width="987.3" height="4.8"/>
		</g>
	</g>
	<path class="st2" d="M738.8,812.8l-256.9,0c-0.4,0.8-0.8,1.7-1.2,2.5c-5.3,12.1-8.9,25.3-10.7,39.6l18.8,0.1v0l85.4-0.1
		c8-23.1,28-39.4,51.4-39.4c17.6,0,33.3,9.3,43.3,23.6L738.8,812.8z"/>
	<path class="st5" d="M480.8,939.4c7.5,16.3,17.5,30.4,29.9,42.2h228.6c3-2.8,5.9-5.7,8.7-8.7c8.4-9.1,14.9-18.4,19.5-27.9
		c0.9-1.9,1.8-3.7,2.6-5.6C770.1,939.4,480.7,939.4,480.8,939.4z"/>
	<path class="st3" d="M1080.6,855l-94.1,0c2.9,13.5,6.4,30.5,8.9,42.2h100.2L1080.6,855z"/>
	<path class="st2" d="M1080.6,855l-15-42.2H894.3L879.7,855h95l4.4-21.5h3.3c0.2,1.7,2.1,10.5,4.3,21.5H1080.6z"/>
	<path class="st1" d="M1325.6,770.6c-7.1,17.5-14,35-14.8,37.2h-3l-15.8-37.2l-110.7,0l25.9,42.2h202.6l25.4-42.2L1325.6,770.6z"/>
</g>
<g id="Camada_2" class="st8">
	<g id="Camada_38" class="st9">
		<g>
			<path d="M491.6,290.8h58.7l21.7,82.4h1.5c0.6-3.4,1.1-7,1.6-10.5c0.6-3.5,1.3-7,2.3-10.3l17.7-61.6h58l25.8,157h-55.2l-7.7-85.9
				H615c-0.6,2.6-1.1,5.3-1.6,7.9c-0.6,2.6-1.2,5.2-2.1,7.7l-22.7,70.3h-33.3L535,381.4c-0.8-3.4-1.6-6.6-2.2-9.8s-1.1-6.5-1.3-9.8
				h-1.9c-0.2,3.2-0.5,6.3-0.7,9.4s-0.4,6.3-0.7,9.4l-6.6,67h-55.2L491.6,290.8z"/>
			<path d="M697.2,290.8h105.5v42.8h-48.1v15h43.9v40.8h-43.9v15.4h49.7v42.8H697.2V290.8z"/>
			<path d="M827.9,290.8h57v106.5h47.9v50.4H827.9V290.8z"/>
			<path d="M948.4,290.8h54.9v52.9h35v-52.9h54.9v156.9h-54.9v-54.5h-35v54.5h-54.9L948.4,290.8L948.4,290.8z"/>
			<path d="M1200,288.3c11.9,0,23.1,2,33.7,5.8c10.5,3.9,19.7,9.4,27.6,16.4c7.8,7.1,14,15.6,18.6,25.6c4.6,10,6.9,21.2,6.9,33.5
				c0,12.6-2.3,23.9-6.9,33.8s-10.8,18.4-18.6,25.3c-7.9,7-17.1,12.2-27.6,15.9s-21.8,5.5-33.7,5.5c-11.9,0-23.1-1.8-33.7-5.5
				c-10.5-3.7-19.7-8.9-27.6-15.9c-7.9-7-14-15.3-18.6-25.3c-4.6-9.9-6.9-21.2-6.9-33.8c0-12.3,2.3-23.6,6.9-33.5
				c4.6-10,10.8-18.5,18.6-25.6c7.8-7.1,17-12.6,27.6-16.4C1176.8,290.3,1188,288.3,1200,288.3z M1200,339.9
				c-4.6,0-8.7,0.8-12.3,2.4c-3.6,1.6-6.6,3.9-9.2,6.6c-2.5,2.9-4.4,6.1-5.8,9.8s-2.1,7.6-2.1,11.7c0,9,2.7,16.3,8.1,21.8
				c5.4,5.6,12.5,8.3,21.3,8.3c8.7,0,15.8-2.8,21.3-8.3c5.4-5.6,8.1-12.8,8.1-21.8c0-4.2-0.7-8-2.1-11.7s-3.4-7-5.8-9.8
				c-2.5-2.9-5.6-5.1-9.2-6.6C1208.6,340.7,1204.5,339.9,1200,339.9z"/>
			<path d="M1307,290.8h68.9c8.9,0,17.2,1,25.2,2.9c7.9,2,14.9,5.1,20.8,9.4c6,4.4,10.7,10,14.1,17s5.2,15.3,5.2,25.2
				c0,6-0.6,11.1-1.8,15.4c-1.1,4.3-3,8-5.5,11.2s-5.7,5.9-9.4,8.1c-3.9,2.2-8.4,4.3-13.6,6.1v1.2c1.6,1.1,3.1,2.4,4.8,3.8
				c1.6,1.4,3.3,3.3,4.8,5.6l34.1,51h-65.7l-25-50.4h-1.1v50.4H1307L1307,290.8L1307,290.8z M1362.7,360.4h3.9
				c2.4,0,4.7-0.2,6.9-0.4c2.2-0.2,4.3-0.9,6.1-1.8c1.8-0.9,3.2-2.2,4.3-3.9c1.1-1.7,1.6-4,1.6-7c0-3-0.5-5.4-1.5-7.1
				c-1-1.7-2.3-3.1-3.9-4c-1.6-1-3.6-1.6-5.8-1.9c-2.2-0.2-4.6-0.4-7.1-0.4h-4.4L1362.7,360.4L1362.7,360.4z"/>
			<path d="M536.5,677.6h-70.3l63.5-182.9h73.5l65.3,182.9h-70.3l-6.1-22.8h-50.1L536.5,677.6z M580.4,611.4l-7.8-32.3
				c-1-3.9-1.8-7.8-2.5-11.7c-0.7-3.9-1.3-7.9-2-11.7h-2.5l-12.1,55.8L580.4,611.4L580.4,611.4z"/>
			<path d="M704.4,494.7h68.4l25.2,96h1.7c0.7-4,1.3-8.1,2-12.2c0.7-4.1,1.6-8.1,2.6-12l20.6-71.8h67.6l30.2,182.9h-64.3l-8.9-100.1
				h-1.2c-0.7,3-1.3,6.2-2,9.2c-0.7,3-1.5,6.1-2.5,8.9l-26.4,82h-38.8l-23.8-77.4c-1-3.9-1.8-7.7-2.5-11.4
				c-0.7-3.7-1.2-7.6-1.6-11.4h-2.2c-0.3,3.7-0.6,7.4-0.8,11c-0.2,3.6-0.5,7.3-0.8,11l-7.8,78.1h-64.2L704.4,494.7z"/>
			<path d="M945.4,494.7h66.5v182.9h-66.5V494.7z"/>
			<path d="M1236,569.9c-0.2,7.5-0.3,14.6-0.6,21.5c-0.2,6.9-1.1,13.5-2.5,20s-3.5,12.7-6.6,18.8c-3,6.1-7.1,12-12.5,17.8
				c-4.8,5.3-10.3,10-16.3,14c-6.1,4-12.5,7.5-19.1,10.2c-6.7,2.8-13.6,4.8-20.8,6.2c-7.1,1.4-14.2,2.1-21.3,2.1
				c-13.9,0-27-2.1-39.3-6.3c-12.3-4.2-23-10.3-32.2-18.3c-9.1-8-16.3-17.7-21.6-29.2c-5.3-11.5-7.9-24.5-7.9-39.3
				c0-14.9,2.6-28.2,7.8-40.1c5.2-11.8,12.3-21.8,21.3-30s19.8-14.5,32.2-18.9s25.8-6.6,40.1-6.6c8,0,16.3,1,25.4,2.9
				s17.6,4.9,26.1,8.9c8.4,3.9,16,8.9,22.8,14.8c6.8,5.9,12,12.7,15.5,20.5l-62,22.8c-2.6-4.7-6.1-8.2-10.6-10.6
				c-4.4-2.4-9.4-3.5-14.7-3.5c-6,0-11.2,1.1-15.8,3.5c-4.5,2.4-8.4,5.5-11.5,9.4c-3.1,3.9-5.5,8.5-7.1,13.5
				c-1.6,5.1-2.5,10.4-2.5,15.9c0,5,0.7,9.8,2.3,14.5s3.8,8.9,6.6,12.5c2.9,3.6,6.5,6.6,10.8,8.7c4.3,2.2,9.1,3.3,14.4,3.3
				c2.5,0,5.3-0.3,8.1-1c2.8-0.7,5.5-1.6,8-2.9c2.5-1.3,4.8-3,6.6-5c2-2.1,3.3-4.4,4.1-7.1h-30v-43.2H1236V569.9z"/>
			<path d="M1353.3,491.8c13.9,0,27,2.3,39.3,6.8c12.3,4.5,23,10.9,32.1,19.1c9.1,8.2,16.3,18.2,21.7,29.8c5.3,11.7,8,24.6,8,39.1
				c0,14.7-2.6,27.8-8,39.4s-12.6,21.4-21.7,29.5c-9.1,8.1-19.9,14.3-32.1,18.5c-12.3,4.3-25.4,6.4-39.3,6.4
				c-13.9,0-27-2.1-39.3-6.4c-12.3-4.3-23-10.5-32.2-18.5c-9.1-8-16.3-17.9-21.7-29.5c-5.3-11.6-8-24.7-8-39.4
				c0-14.4,2.7-27.4,8-39.1c5.3-11.7,12.6-21.6,21.7-29.8c9.1-8.2,19.9-14.6,32.2-19.1C1326.3,494.1,1339.5,491.8,1353.3,491.8z
				 M1353.3,551.9c-5.3,0-10.1,0.9-14.3,2.8c-4.2,1.9-7.8,4.4-10.7,7.8c-2.9,3.3-5.2,7.1-6.8,11.4s-2.5,8.9-2.5,13.7
				c0,10.5,3.1,19,9.4,25.4c6.3,6.5,14.5,9.7,24.7,9.7c10.2,0,18.5-3.2,24.7-9.7c6.3-6.5,9.4-14.9,9.4-25.4c0-4.8-0.8-9.4-2.5-13.7
				s-3.9-8-6.8-11.4c-2.9-3.3-6.5-5.9-10.7-7.8C1363.5,552.9,1358.7,551.9,1353.3,551.9z"/>
			<rect x="467.2" y="700.6" width="987.3" height="4.8"/>
			<rect x="467.2" y="468.6" width="987.3" height="4.8"/>
		</g>
	</g>
	<g class="st9">
		<path class="st10" d="M1340.9,732.9c0,0-29.3,72.6-30,74.9h-3l-31.9-74.9h-117.7l99.8,162.9v1.3v122h101.8v-122v-1.3l98.1-162.9
			H1340.9z"/>
		<path class="st10" d="M781.5,849H622.3v64.2h47.9c-10,15.4-26.3,25.5-44.6,25.5c-24.1,0-44.7-17.5-52.1-41.7l0,0
			c-2-6.3-3-13-3-19.9c0-7.8,1.4-15.3,3.8-22.2c8-23.1,28-39.4,51.4-39.4c17.6,0,33.3,9.3,43.3,23.6l69.6-26.3l0.2,0l28.9-10.8
			c-5.4-11.9-13.3-22.3-23.6-31.4v-0.1c-0.2-0.2-0.4-0.4-0.7-0.7c-10.7-9.3-22.6-17-35.7-23.1c-13.1-6.2-26.8-10.8-40.8-13.9
			c-14-3-27.2-4.6-39.6-4.6c-22.6,0-43.5,3.4-62.9,10.3c-19.4,6.9-36.1,16.7-50.3,29.7c-0.8,0.7-1.6,1.6-2.5,2.3l0.1,0
			c-12.4,11.8-22.3,25.9-29.8,42.2c-0.4,0.8-0.8,1.7-1.2,2.5c-5.3,12.1-8.9,25.3-10.7,39.6c-1,7.4-1.5,15.2-1.5,23.1
			c0,6.6,0.3,12.8,1.1,19c1.6,15.3,5.4,29.5,11.2,42.4c7.5,16.3,17.5,30.4,29.9,42.2h0.1c1.3,1.2,2.6,2.4,3.9,3.6
			c14.3,12.6,31.1,22.1,50.3,28.6c19.2,6.6,39.7,9.8,61.5,9.8h0.1c11.1,0,22.2-1.1,33.3-3.2c11.2-2.1,22-5.3,32.5-9.7
			c10.5-4.3,20.5-9.6,30-15.9c6-4,11.6-8.5,16.8-13.3h0.2c3-2.8,5.9-5.7,8.7-8.7c8.4-9.1,14.9-18.4,19.5-27.9
			c0.9-1.9,1.8-3.7,2.6-5.6c3.4-7.7,5.8-15.7,7.6-23.8c1.3-6.1,2.3-12.3,3-18.5h0c0.4-4.3,0.8-8.5,0.9-12.9
			C781.8,876.8,781.5,849,781.5,849z"/>
		<path class="st10" d="M1037.1,732.9H922l-99.5,286.3h110.1l8.4-35.7h78.5l9.5,35.7h110.1L1037.1,732.9z M962.7,911.3l16.3-77.8
			h3.3c0.2,1.7,16.2,77.8,16.2,77.8H962.7z"/>
	</g>
</g>
</svg>
