<?xml version="1.0" encoding="utf-8"?>
<!-- Generator: Adobe Illustrator 22.0.1, SVG Export Plug-In . SVG Version: 6.00 Build 0)  -->
<svg version="1.1" id="Camada_1" xmlns="http://www.w3.org/2000/svg" xmlns:xlink="http://www.w3.org/1999/xlink" x="0px" y="0px"
	 viewBox="0 0 1920 1312" style="enable-background:new 0 0 1920 1312;" xml:space="preserve">
<style type="text/css">
	.st0{fill:#DADADA;}
	.st1{fill:#FFFFFF;}
</style>
<g id="Camada_39">
	<path class="st0" d="M410.8,529.5v198v56.9L369.1,742L270,643.3V784h-47.9V586.4v-56.9l41.8,42.3l99.1,98.8V529.5H410.8z
		 M362.9,529.5h47.9H362.9z"/>
	<path class="st0" d="M659,560.4c25.8,25,40.8,57.8,40.8,95.6s-15,70.6-40.8,95.6s-59.6,39.6-98.6,39.6s-72.8-14.6-98.6-39.6
		S421,693.8,421,656s15-70.6,40.8-95.6s59.6-39.6,98.6-39.6C599.4,520.8,633.2,535.4,659,560.4z M560.4,567.2
		c-24.9,0-47.4,10-64.3,26.4c-16.9,16.4-27.2,38.2-27.2,62.4c0,25,10.3,46.4,27.2,62.8c16.4,15.9,39.4,25.9,64.3,25.9
		c25.8,0,47.9-9.6,64.8-25.9C642.1,702.4,652,681,652,656c0-24.1-10.3-46.4-26.8-62.4C608.3,577.3,586.3,567.2,560.4,567.2z"/>
	<g>
		<path class="st1" d="M626.4,697.3c-11.8,11.4-27.2,18-44.9,18c-17.8,0-33.2-6.6-44.9-18C524.8,685.9,518,671,518,653.7
			c0-17.2,6.8-32.1,18.6-43.6c11.8-11.4,27.2-18,44.9-18c15.4,0,29,5,40.1,13.8c-1.5-1.7-3-3.4-4.7-5
			c-14.6-14.1-33.7-22.4-55.6-22.4c-22,0-41.1,8.2-55.7,22.4c-14.6,14.1-23.1,32.6-23.1,53.9c0,21.3,8.5,39.8,23.1,54
			c14.6,14.1,33.7,22.3,55.7,22.3s41.1-8.2,55.6-22.3c4-3.9,7.6-8.2,10.6-12.8C627.1,696.5,626.8,696.9,626.4,697.3z"/>
	</g>
	<path class="st0" d="M756.6,529v256.3h-47.9V529H756.6z M708.7,529h47.9H708.7z"/>
	<polygon class="st0" points="764.3,529 913.6,529 913.6,575.4 862,575.4 862,785.3 814.1,785.3 814.1,575.4 764.3,575.4 	"/>
	<path class="st0" d="M971.7,635.1h71.4v46.4h-71.4v56.9h95.8v46.9H923.9V528.5h143.7V575h-95.8L971.7,635.1L971.7,635.1z
		 M971.7,575v60.1V575z"/>
	<path class="st0" d="M1189.3,654.6h145.6v0.5c0,37.8-12.7,70.6-38.5,95.6c-26.3,25.5-62,40.5-101.4,40.5c-39,0-73.2-14.1-98.6-39.6
		c-25.4-25-40.9-57.8-40.9-95.6s15.5-70.6,40.9-95.6c25.4-25.5,60.6-39.6,98.6-39.6c23,0,44.6,5,63.4,14.6
		c20.2,10,37.1,23.7,49.8,41.4l-39,27.3c-8.4-11.4-19.3-20-32.4-26.9c-13.1-6.8-27.2-10-41.8-10c-24.9,0-47.9,10-64.3,26.4
		c-16.4,15.9-26.8,38.2-26.8,62.4c0,25,10.3,46.4,26.8,62.8c16.4,15.9,39.4,25.9,64.3,25.9c26.3,0,50.2-10.5,67.1-26.9
		c5.2-5,9.4-10.5,13.1-15.9l-85.9-0.9L1189.3,654.6L1189.3,654.6z M1189.3,654.6V701V654.6z"/>
	<path class="st0" d="M1474.4,727h-93l-28.2,58.3h-52.6l103.8-213l21.6-44.2l22.1,43.7l108.5,213.5H1504L1474.4,727z M1403,683.3
		h48.8l-24.9-49.6L1403,683.3z M1427,633.7l-23.9,49.6L1427,633.7z"/>
	<path class="st0" d="M1620.4,691.1v94.2H1572v-91.9l-79.3-162h53.1l49.8,101.5l49.3-101.5h53.1L1620.4,691.1z M1620.4,691.1
		l77.5-159.8L1620.4,691.1z"/>
	<g>
		<path class="st1" d="M534.7,671c0-1.9,0.4-3.9,0.6-5.9c0.2-1.4,0.4-2.9,0.4-4.3c0-0.7-0.2-1.3-0.6-1.8c-1-1.3-2.2-2.5-3.3-3.7
			c-1.3-1.4-2.7-2.8-3.8-4.3c-0.3-0.4-0.5-0.8-0.7-1.2c-0.3-0.7-0.2-1.1,0.5-1.5c0.8-0.5,1.7-0.7,2.5-0.9c2.4-0.6,4.9-1,7.3-1.5
			c0.6-0.1,1.1-0.3,1.7-0.4c0.9-0.2,1.5-0.7,2-1.5c1.2-1.9,2.2-3.9,3.3-5.9c0.7-1.2,1.4-2.4,2.2-3.5c0.2-0.2,0.4-0.4,0.6-0.6
			c0.6-0.6,1.1-0.6,1.7,0c0.7,0.6,1.2,1.4,1.7,2.1c1.3,2.1,2.4,4.3,3.6,6.4c0.3,0.5,0.6,1,0.9,1.5c0.5,0.8,1.2,1.3,2.1,1.5
			c2.1,0.5,4.3,0.8,6.4,1.3c1.5,0.3,3,0.6,4.4,1.2c1.3,0.6,1.5,1.1,0.8,2.3c-0.8,1.3-1.8,2.4-2.8,3.5c-1.4,1.6-2.9,3.1-4.3,4.6
			c-0.9,1-1.1,2.1-1,3.4c0.3,2.4,0.6,4.8,0.9,7.2c0.1,1.2,0.2,2.4,0,3.6c-0.2,1-0.6,1.3-1.6,1.1c-1.5-0.3-2.9-1-4.4-1.6
			c-2.1-0.9-4.1-2-6.2-2.8c-0.9-0.4-1.7-0.3-2.6,0c-2.1,0.9-4.1,1.9-6.2,2.9c-1.4,0.6-2.8,1.3-4.4,1.6c-1,0.2-1.4-0.1-1.6-1.1
			C534.7,672.2,534.7,671.7,534.7,671z"/>
	</g>
	<g>
		<path class="st1" d="M553.3,627.9c0-1.2,0.2-2.6,0.4-3.9c0.1-0.9,0.3-1.9,0.3-2.8c0-0.5-0.1-0.9-0.4-1.2c-0.7-0.9-1.4-1.6-2.2-2.4
			c-0.9-0.9-1.8-1.8-2.5-2.9c-0.2-0.2-0.3-0.5-0.5-0.8c-0.2-0.5-0.1-0.7,0.3-1c0.5-0.3,1.1-0.5,1.7-0.6c1.6-0.4,3.2-0.6,4.8-1
			c0.4-0.1,0.7-0.2,1.1-0.3c0.6-0.1,1-0.5,1.3-1c0.8-1.2,1.4-2.6,2.2-3.9c0.5-0.8,0.9-1.6,1.5-2.3c0.1-0.1,0.3-0.3,0.4-0.4
			c0.4-0.4,0.7-0.4,1.1,0c0.4,0.4,0.8,0.9,1.1,1.4c0.9,1.4,1.6,2.8,2.4,4.2c0.2,0.3,0.4,0.6,0.6,1c0.3,0.5,0.8,0.8,1.4,1
			c1.4,0.3,2.8,0.6,4.2,0.8c1,0.2,2,0.4,2.9,0.8c0.9,0.4,1,0.7,0.5,1.5c-0.5,0.9-1.2,1.6-1.9,2.3c-0.9,1-1.9,2-2.8,3
			c-0.6,0.7-0.7,1.4-0.6,2.2c0.2,1.6,0.4,3.2,0.6,4.8c0.1,0.8,0.2,1.6,0,2.4c-0.1,0.7-0.4,0.9-1.1,0.7c-1-0.2-1.9-0.6-2.9-1
			c-1.4-0.6-2.7-1.3-4.1-1.9c-0.6-0.2-1.1-0.2-1.7,0c-1.4,0.6-2.7,1.3-4.1,1.9c-0.9,0.4-1.9,0.9-2.9,1c-0.7,0.1-0.9-0.1-1.1-0.7
			C553.3,628.7,553.3,628.4,553.3,627.9z"/>
	</g>
	<g>
		<path class="st1" d="M553.3,701.8c0-1.2,0.2-2.6,0.4-3.9c0.1-0.9,0.3-1.9,0.3-2.8c0-0.5-0.1-0.9-0.4-1.2c-0.7-0.9-1.4-1.6-2.2-2.4
			c-0.9-0.9-1.8-1.8-2.5-2.9c-0.2-0.2-0.3-0.5-0.5-0.8c-0.2-0.5-0.1-0.7,0.3-1c0.5-0.3,1.1-0.5,1.7-0.6c1.6-0.4,3.2-0.6,4.8-1
			c0.4-0.1,0.7-0.2,1.1-0.3c0.6-0.1,1-0.5,1.3-1c0.8-1.2,1.4-2.6,2.2-3.9c0.5-0.8,0.9-1.6,1.5-2.3c0.1-0.1,0.3-0.3,0.4-0.4
			c0.4-0.4,0.7-0.4,1.1,0c0.4,0.4,0.8,0.9,1.1,1.4c0.9,1.4,1.6,2.8,2.4,4.2c0.2,0.3,0.4,0.6,0.6,1c0.3,0.5,0.8,0.8,1.4,1
			c1.4,0.3,2.8,0.6,4.2,0.8c1,0.2,2,0.4,2.9,0.8c0.9,0.4,1,0.7,0.5,1.5c-0.5,0.9-1.2,1.6-1.9,2.3c-0.9,1-1.9,2-2.8,3
			c-0.6,0.7-0.7,1.4-0.6,2.2c0.2,1.6,0.4,3.2,0.6,4.8c0.1,0.8,0.2,1.6,0,2.4c-0.1,0.7-0.4,0.9-1.1,0.7c-1-0.2-1.9-0.6-2.9-1
			c-1.4-0.6-2.7-1.3-4.1-1.9c-0.6-0.2-1.1-0.2-1.7,0c-1.4,0.6-2.7,1.3-4.1,1.9c-0.9,0.4-1.9,0.9-2.9,1c-0.7,0.1-0.9-0.1-1.1-0.7
			C553.3,702.6,553.3,702.3,553.3,701.8z"/>
	</g>
	<g>
		<polygon class="st1" points="270,643.3 306.5,679.7 410.8,676.2 410.8,529.5 362.9,529.5 362.9,670.6 263.9,571.8 222.1,529.5 
			222.1,586.4 222.1,682.5 270,680.9 		"/>
		<path class="st1" d="M468.9,656c0-24.1,10.3-46,27.2-62.4c16.9-16.4,39.4-26.4,64.3-26.4c25.8,0,47.9,10,64.8,26.4
			c16.4,15.9,26.8,38.2,26.8,62.4c0,4.2-0.4,8.2-0.9,12.2l48.4-1.6c0.3-3.5,0.4-7,0.4-10.6c0-37.8-15-70.6-40.8-95.6
			s-59.6-39.6-98.6-39.6s-72.8,14.6-98.6,39.6C436,585.4,421,618.2,421,656c0,6.8,0.5,13.4,1.4,19.8l48.4-1.6
			C469.5,668.4,468.9,662.3,468.9,656z"/>
		<polygon class="st1" points="756.6,529 708.7,529 708.7,666.3 756.6,664.7 		"/>
		<polygon class="st1" points="862,575.4 913.6,575.4 913.6,529 764.3,529 764.3,575.4 814.1,575.4 814.1,662.8 862,661.2 		"/>
		<polygon class="st1" points="1043.1,635.1 971.7,635.1 971.7,575 1067.5,575 1067.5,528.5 923.9,528.5 923.9,659.1 1043.1,655.1 
					"/>
		<path class="st1" d="M1130.6,593.6c16.4-16.4,39.4-26.4,64.3-26.4c14.6,0,28.6,3.2,41.8,10c13.1,6.8,24,15.5,32.4,26.9l39-27.3
			c-12.7-17.8-29.6-31.4-49.8-41.4c-18.8-9.6-40.4-14.6-63.4-14.6c-38,0-73.2,14.1-98.6,39.6c-25.1,24.7-40.5,57.1-40.8,94.3
			l48.5-1.6C1104.8,630.1,1114.8,608.9,1130.6,593.6z"/>
		<polygon class="st1" points="1427,633.7 1431.2,642.2 1483,640.5 1448.1,571.8 1426,528.1 1404.4,572.2 1369.4,644.3 
			1422.7,642.5 		"/>
		<polygon class="st1" points="1697.9,531.3 1644.8,531.3 1595.6,632.8 1545.8,531.3 1492.7,531.3 1545.2,638.4 1647.6,635 		"/>
	</g>
</g>
</svg>
