<?xml version="1.0" encoding="utf-8"?>
<!-- Generator: Adobe Illustrator 22.0.1, SVG Export Plug-In . SVG Version: 6.00 Build 0)  -->
<svg version="1.1" id="Camada_1" xmlns="http://www.w3.org/2000/svg" xmlns:xlink="http://www.w3.org/1999/xlink" x="0px" y="0px"
	 viewBox="0 0 500 500" style="enable-background:new 0 0 500 500;" xml:space="preserve">
<style type="text/css">
	.st0{fill:#E02F32;}
	.st1{fill:#87B81C;}
	.st2{clip-path:url(#SVGID_2_);fill:url(#SVGID_3_);}
	.st3{fill:url(#SVGID_4_);}
</style>
<g id="Camada_1_1_">
	<g>
		<path class="st0" d="M425.1,244.5c-1.7,0-2.4,0.9-2.4,2.6v3.7h4.7v-3.7C427.4,245.4,426.8,244.5,425.1,244.5z"/>
		<path class="st0" d="M436.7,243.6c-1.7,0-2.5,0.9-2.5,2.7v4.5h5v-4.5C439.3,244.5,438.5,243.6,436.7,243.6z"/>
		<path class="st0" d="M435.6,295.7h-8.4c-2.7,0-4.5,1.1-4.5,4.1s1.4,4,4.1,4h8.4c2.7,0,4.1-1.1,4.1-4
			C439.3,296.8,438.3,295.7,435.6,295.7z"/>
		<path class="st0" d="M435.6,216.8h-8.4c-2.7,0-4.5,1.1-4.5,4c0,3,1.4,4.1,4.1,4.1h8.4c2.7,0,4.1-1.1,4.1-4.1
			C439.3,217.9,438.3,216.8,435.6,216.8z"/>
		<path class="st0" d="M411.6,98.8v300h38.8v-300L411.6,98.8L411.6,98.8z M446.1,322.3c0,1.3-0.5,1.8-1.8,1.8h-9.8v8.1h9.8
			c1.3,0,1.8,0.4,1.8,1.8v4.5c0,1.4-0.5,1.8-1.8,1.8h-26.7c-1.4,0-1.8-0.5-1.8-1.8V334c0-1.4,0.5-1.8,1.8-1.8h9.4v-8.1h-9.4
			c-1.4,0-1.8-0.5-1.8-1.8v-4.5c0-1.3,0.5-1.8,1.8-1.8h26.7c1.3,0,1.8,0.5,1.8,1.8V322.3z M434.9,311.9h-7.7
			c-7.4,0-11.9-3.7-11.9-12.2c0-8.4,4.9-12.1,12.3-12.1h7.7c7.4,0,11.5,3.7,11.5,12.1C446.8,308.2,442.2,311.9,434.9,311.9z
			 M444.4,270.4c1.3,0,1.8,0.5,1.8,1.8v4.5c0,1.4-0.5,1.8-1.8,1.8h-21v6.3c0,1.4-0.5,1.8-1.8,1.8h-3.8c-1.3,0-1.8-0.4-1.8-1.8v-20.7
			c0-1.4,0.5-1.8,1.8-1.8h3.8c1.4,0,1.8,0.5,1.8,1.8v6.3L444.4,270.4L444.4,270.4z M444.4,259.3h-26.7c-1.4,0-1.8-0.5-1.8-1.8v-12.1
			c0-5.9,2.9-9.4,8.1-9.4c2.9,0,4.8,0.9,6.3,3.1h0.2c1.2-2.7,3.6-4.3,7.3-4.3c5.5,0,8.4,4.5,8.4,10.5v12.2
			C446.1,258.8,445.7,259.3,444.4,259.3z M434.9,233h-7.7c-7.4,0-11.9-3.7-11.9-12.2c0-8.4,4.9-12.1,12.3-12.1h7.7
			c7.4,0,11.5,3.7,11.5,12.1C446.8,229.3,442.2,233,434.9,233z M417.5,191.4c-1.5-0.8-1.6-1.4-1.6-3.5V183c0-1.3,0.8-1.4,1.8-0.9
			L434,192h10.4c1.3,0,1.8,0.4,1.8,1.8v4.4c0,1.4-0.5,1.8-1.8,1.8H434l-16.3,9.8c-1,0.6-1.8,0.4-1.8-0.9v-5.1c0-2.1,0.1-2.7,1.6-3.5
			l8.4-4.3L417.5,191.4z M440.2,182.8c-1.3,0.5-1.9,0.1-2.3-1.2l-1.5-4c-0.4-1.3-0.3-1.9,0.9-2.5c1.5-0.8,2.3-2.4,2.3-4.8
			c0-2.8-0.6-4.6-2.4-4.6c-1.7,0-2.1,2.2-2.5,5c-0.7,5-1.6,12-9.8,12c-5.6,0-9.5-4.5-9.5-12.6c0-6.3,1.9-9.9,6-11.9
			c1.2-0.6,1.9-0.3,2.4,1l1.8,4.3c0.5,1.2,0.3,1.6-0.9,2.3c-1.6,0.8-2.2,2.3-2.2,4.3c0,2.9,0.7,4,2.2,4c1.8,0,2.2-2.5,2.6-5.6
			c0.7-4.9,1.9-11.3,9.9-11.3c6.3,0,9.7,5.7,9.7,13.2C446.8,176.8,444.6,181.2,440.2,182.8z"/>
	</g>
	<g>
		<path class="st1" d="M344.4,132.7c0,0,3.6-1.8,7.9-1.8c4.2,0,18.3,3.8,18.3,17.8s12.2,18.7,18.3,18.7c0,0-24.4,27.8-52.3,0
			c0,0,18.3-2,18.3-18.3C354.8,137.4,344.4,132.7,344.4,132.7z"/>
		<path class="st0" d="M336.8,172.5c-6.1,6.1-11,17-11,27.8c-0.5,34.6-13.9,69.1-40.3,95.5c-50.3,50.3-129.9,53.6-184,9.8
			c3.4,4,6.9,8,10.7,11.8c65.7,65.7,172.3,65.7,238,0c33.9-33.8,50.2-78.5,49.2-122.8c-0.8-8.1-4.3-16-10.5-22.1
			c-7.2-7.3-16.8-2.9-26.3-2.8C353.3,169.7,344,165.3,336.8,172.5z"/>
		<g>
			<g>
				<defs>
					<path id="SVGID_1_" d="M336.8,172.5c-6.1,6.1-11,17-11,27.8c-0.5,34.6-13.9,69.1-40.3,95.5c-50.3,50.3-129.9,53.6-184,9.8
						c3.4,4,6.9,8,10.7,11.8c65.7,65.7,172.3,65.7,238,0c33.9-33.8,50.2-78.5,49.2-122.8c-0.8-8.1-4.3-16-10.5-22.1
						c-7.2-7.3-16.8-2.9-26.3-2.8C353.3,169.7,344,165.3,336.8,172.5z"/>
				</defs>
				<clipPath id="SVGID_2_">
					<use xlink:href="#SVGID_1_"  style="overflow:visible;"/>
				</clipPath>
				
					<radialGradient id="SVGID_3_" cx="230.9" cy="303.176" r="168.6" gradientTransform="matrix(1 0 0 -1 0 501.276)" gradientUnits="userSpaceOnUse">
					<stop  offset="0.2562" style="stop-color:#FFFFFF;stop-opacity:0.3"/>
					<stop  offset="0.8966" style="stop-color:#000000;stop-opacity:0"/>
				</radialGradient>
				<path class="st2" d="M399.5,198.1c0-93.1-75.5-168.6-168.6-168.6S62.3,105,62.3,198.1s75.5,168.6,168.6,168.6
					S399.5,291.2,399.5,198.1z"/>
			</g>
		</g>
	</g>
	<g>
		
			<linearGradient id="SVGID_4_" gradientUnits="userSpaceOnUse" x1="431" y1="252.476" x2="431" y2="402.476" gradientTransform="matrix(1 0 0 -1 0 501.276)">
			<stop  offset="0" style="stop-color:#000000;stop-opacity:0"/>
			<stop  offset="1" style="stop-color:#FFFFFF;stop-opacity:0.3"/>
		</linearGradient>
		<rect x="411.6" y="98.8" class="st3" width="38.8" height="150"/>
	</g>
</g>
<g id="Camada_6">
</g>
</svg>
