<?xml version="1.0" encoding="utf-8"?>
<!-- Generator: Adobe Illustrator 22.0.1, SVG Export Plug-In . SVG Version: 6.00 Build 0)  -->
<svg version="1.1" id="Camada_1" xmlns="http://www.w3.org/2000/svg" xmlns:xlink="http://www.w3.org/1999/xlink" x="0px" y="0px"
	 viewBox="0 0 500 500" style="enable-background:new 0 0 500 500;" xml:space="preserve">
<style type="text/css">
	.st0{fill:#E44F2C;}
	.st1{fill:url(#SVGID_1_);}
	.st2{clip-path:url(#SVGID_3_);fill:url(#SVGID_4_);}
	.st3{clip-path:url(#SVGID_6_);fill:url(#SVGID_7_);}
	.st4{clip-path:url(#SVGID_9_);fill:url(#SVGID_10_);}
</style>
<g id="Camada_1_1_">
	<g>
		<g>
			<path class="st0" d="M438.2,224.1c0-3.4-1.6-5.2-4.6-5.2h-6.1c-3,0-4.6,1.8-4.6,5.2v2.4h15.2v-2.4H438.2z"/>
			<path class="st0" d="M423.3,185.2c0,0,3.1,0,5.9,0.8l5,1.3v-4l-4.9,1.2C426.3,185.3,423.3,185.2,423.3,185.2z"/>
			<path class="st0" d="M411.2,99.8v299.7H450V99.8H411.2z M445.6,335.4c0,1.3-0.5,1.8-1.8,1.8h-9.7v8h9.7c1.3,0,1.8,0.4,1.8,1.8
				v4.4c0,1.4-0.5,1.8-1.8,1.8h-26.4c-1.3,0-1.8-0.5-1.8-1.8V347c0-1.4,0.5-1.8,1.8-1.8h9.3v-8h-9.3c-1.3,0-1.8-0.5-1.8-1.8v-4.5
				c0-1.3,0.5-1.8,1.8-1.8h26.4c1.3,0,1.8,0.5,1.8,1.8V335.4z M434.4,327.2h-7.6c-7.3,0-11.9-3.7-11.9-12.1c0-8.3,4.9-12,12.2-12
				h7.6c7.3,0,11.4,3.7,11.4,12C446.2,323.5,441.7,327.2,434.4,327.2z M416.9,255.2c-1.1-0.6-1.4-1-1.4-2.4v-4.1
				c0-1.4,0.4-1.8,1.8-1.8h26.5c1.3,0,1.7,0.5,1.7,1.8v4.5c0,1.4-0.4,1.8-1.7,1.8h-6c-2.8,0-5.4,0.2-11.1-1.4c1.4,0.4,5.2,1.9,7,2.8
				l4.8,2.4c0.9,0.5,1.2,0.9,1.2,2v1.9c0,1.2-0.3,1.6-1.2,2l-4.8,2.8c-1.6,0.9-5.5,2-7,2.5c6.1-1.5,8.2-1.3,11.1-1.3h6
				c1.3,0,1.7,0.5,1.7,1.8v4.5c0,1.4-0.4,1.8-1.7,1.8h-26.5c-1.4,0-1.8-0.5-1.8-1.8v-4.1c0-1.5,0.3-1.9,1.3-2.5l13.7-6.6
				L416.9,255.2z M443.8,190.2c1.3,0.4,1.8,1,1.8,3.1v4.7c0,1.3-0.6,1.6-1.7,1.1l-26.7-9.7c-1.2-0.4-1.5-1-1.5-2.2v-3.9
				c0-1.2,0.3-1.8,1.4-2.2l26.8-9.8c1.1-0.4,1.7,0,1.7,1.2v4.4c0,2.2-0.5,2.8-1.8,3.2l-3,1v8.1L443.8,190.2z M417.3,200.7h26.6
				c1.3,0,1.7,0.4,1.7,1.7v4.6c0,1.3-0.4,1.7-1.7,1.7h-26.6c-1.3,0-1.7-0.4-1.7-1.7v-4.6C415.6,201.2,416,200.7,417.3,200.7z
				 M427.4,210.8h6.3c7.3,0,11.8,4.6,11.8,13v9.3c0,1.4-0.5,1.8-1.8,1.8h-26.4c-1.3,0-1.8-0.5-1.8-1.8v-9.3
				C415.6,215.5,420.1,210.8,427.4,210.8z M417.3,236.8h26.6c1.3,0,1.7,0.4,1.7,1.7v4.6c0,1.3-0.4,1.7-1.7,1.7h-26.6
				c-1.3,0-1.7-0.4-1.7-1.7v-4.6C415.6,237.3,416,236.8,417.3,236.8z M417.3,278.9h3.8c1.3,0,1.8,0.5,1.8,1.8v6.2h20.8
				c1.3,0,1.8,0.5,1.8,1.8v4.5c0,1.3-0.5,1.8-1.8,1.8H423v6.3c0,1.4-0.5,1.8-1.8,1.8h-3.8c-1.3,0-1.8-0.4-1.8-1.8v-20.5
				C415.6,279.3,416,278.9,417.3,278.9z M439.7,171.4c-1.3,0.5-1.9,0.1-2.3-1.1l-1.4-4c-0.4-1.3-0.3-1.9,0.9-2.5
				c1.5-0.7,2.2-2.4,2.2-4.8c0-2.8-0.6-4.5-2.4-4.5c-1.7,0-2.1,2.1-2.5,4.9c-0.7,4.9-1.6,11.9-9.7,11.9c-5.6,0-9.4-4.5-9.4-12.5
				c0-6.3,1.8-9.8,5.9-11.8c1.2-0.6,1.9-0.3,2.4,1l1.8,4.2c0.5,1.1,0.3,1.6-0.9,2.3c-1.6,0.8-2.2,2.3-2.2,4.3c0,2.9,0.7,4,2.2,4
				c1.8,0,2.2-2.5,2.6-5.5c0.7-4.9,1.9-11.2,9.8-11.2c6.2,0,9.6,5.6,9.6,13.1C446.2,165.5,444.1,169.8,439.7,171.4z"/>
			<path class="st0" d="M435.1,311.1h-8.4c-2.7,0-4.4,1.1-4.4,4c0,3,1.4,4,4.1,4h8.4c2.7,0,4.1-1.1,4.1-4
				C438.8,312.3,437.8,311.1,435.1,311.1z"/>
		</g>
	</g>
	<g>
		
			<linearGradient id="SVGID_1_" gradientUnits="userSpaceOnUse" x1="430.6" y1="251.576" x2="430.6" y2="401.476" gradientTransform="matrix(1 0 0 -1 0 501.276)">
			<stop  offset="0" style="stop-color:#000000;stop-opacity:0"/>
			<stop  offset="1" style="stop-color:#FFFFFF;stop-opacity:0.3"/>
		</linearGradient>
		<rect x="411.2" y="99.8" class="st1" width="38.8" height="149.9"/>
	</g>
	<g>
		<path class="st0" d="M250.1,181.7c-38,0-68.9,30.9-68.9,68.9c0,38.1,30.9,68.9,68.9,68.9s68.9-30.9,68.9-68.9
			C319,212.5,288.2,181.7,250.1,181.7z M276.4,253.8l-33.3,33.3c-2.4,2.4-4,2.4-6.5-0.1l0.1-73c2.3-2.3,4-2.3,6.5,0.1l33.2,33.2
			C278.8,249.7,278.8,251.4,276.4,253.8z"/>
		<path class="st0" d="M329.6,196.9c-8.1-9.4-19.7-18.2-24.8-23.1c-4.8-4.5-10.1-11.4-10.1-17.7c-6.5-2.7-13.6-5.3-21.3-7.1
			c6.2-13.1,18.3-51.7-21.4-100.5c0,0,4.1,11.2,4.1,36.8c0,22.2-22,49.7-35.8,64.5c8.1-14.8,9.4-42.3-21.2-68.8
			c0,0,9.8,9.8,9.8,35.2c0,20.3-40.1,52.2-56.4,97.4c-3.6,9.6-5.9,19.9-6.6,30.6c0,0.2,0,0.4-0.1,0.5c-0.1,2-0.2,3.9-0.2,5.9
			c0,57.7,46.7,104.4,104.4,104.4c56.3,0,102.2-44.6,104.3-100.4C354.4,229.6,335.9,203.2,329.6,196.9z M250.1,334.1
			c-46.1,0-83.6-37.4-83.6-83.6c0-46.1,37.4-83.6,83.6-83.6s83.6,37.4,83.6,83.6S296.3,334.1,250.1,334.1z"/>
		<path class="st0" d="M348.7,216.4c0,0-5.7-23.2-19.3-38.6c-13.6-15.4-12.5-35.2-12.5-35.2c0.3-8.3,7-15.4,15.4-15.4
			c8.5,0,15.4,6.9,15.4,15.4c0,1.3-0.2,2.5-0.5,3.7c2.3-3.7,3.6-8.1,3.6-12.8c0-13.6-11-24.7-24.7-24.7c-1,0-2,0.1-3,0.2
			c-19.9,2-24.5,23.8-24.5,30.3c0,13,3.6,20.5,28.3,45C337.5,194.7,341.6,200.1,348.7,216.4z"/>
	</g>
	<g>
		<g>
			<g>
				<defs>
					<path id="SVGID_2_" d="M250,181.7c-38.1,0-68.9,30.9-68.9,68.9c0,38.1,30.8,68.9,68.9,68.9s68.9-30.9,68.9-68.9
						C318.9,212.5,288.1,181.7,250,181.7z M276.3,253.8L243,287.1c-2.4,2.4-4,2.4-6.5-0.1l0.1-73c2.3-2.3,4-2.3,6.5,0.1l33.2,33.2
						C278.7,249.7,278.6,251.4,276.3,253.8z"/>
				</defs>
				<clipPath id="SVGID_3_">
					<use xlink:href="#SVGID_2_"  style="overflow:visible;"/>
				</clipPath>
				
					<radialGradient id="SVGID_4_" cx="190.5" cy="329.626" r="142.625" gradientTransform="matrix(1 0 0 -1 0 501.276)" gradientUnits="userSpaceOnUse">
					<stop  offset="0.2562" style="stop-color:#FFFFFF;stop-opacity:0.3"/>
					<stop  offset="0.8966" style="stop-color:#000000;stop-opacity:0"/>
				</radialGradient>
				<path class="st2" d="M333.1,171.6C333.1,92.8,269.2,29,190.5,29C111.7,29,47.9,92.9,47.9,171.6s63.9,142.7,142.6,142.7
					C269.2,314.2,333.1,250.4,333.1,171.6z"/>
			</g>
		</g>
		<g>
			<g>
				<defs>
					<path id="SVGID_5_" d="M329.5,196.9c-8.1-9.4-19.7-18.2-24.8-23.1c-4.8-4.5-10.1-11.4-10.1-17.7c-6.5-2.7-13.6-5.3-21.3-7.1
						c6.2-13.1,18.3-51.7-21.4-100.5c0,0,4.2,11.2,4.2,36.8c0,22.2-22,49.7-35.8,64.5c8.1-14.8,9.4-42.3-21.2-68.8
						c0,0,9.8,9.8,9.8,35.2c0,20.3-40.1,52.2-56.4,97.4c-3.6,9.6-5.9,19.9-6.6,30.6c0,0.2,0,0.4,0,0.5c-0.1,2-0.2,3.9-0.2,5.9
						c0,57.7,46.7,104.4,104.4,104.4c56.3,0,102.2-44.6,104.3-100.4C354.3,229.6,335.8,203.2,329.5,196.9z M250,334.1
						c-46.2,0-83.6-37.4-83.6-83.6c0-46.1,37.4-83.6,83.6-83.6c46.1,0,83.6,37.4,83.6,83.6C333.5,296.7,296.1,334.1,250,334.1z"/>
				</defs>
				<clipPath id="SVGID_6_">
					<use xlink:href="#SVGID_5_"  style="overflow:visible;"/>
				</clipPath>
				
					<radialGradient id="SVGID_7_" cx="190.5" cy="329.626" r="142.625" gradientTransform="matrix(1 0 0 -1 0 501.276)" gradientUnits="userSpaceOnUse">
					<stop  offset="0.2562" style="stop-color:#FFFFFF;stop-opacity:0.3"/>
					<stop  offset="0.8966" style="stop-color:#000000;stop-opacity:0"/>
				</radialGradient>
				<path class="st3" d="M333.1,171.6C333.1,92.8,269.2,29,190.5,29C111.7,29,47.9,92.9,47.9,171.6s63.9,142.7,142.6,142.7
					C269.2,314.2,333.1,250.4,333.1,171.6z"/>
			</g>
		</g>
		<g>
			<g>
				<defs>
					<path id="SVGID_8_" d="M348.6,216.4c0,0-5.8-23.2-19.3-38.6c-13.6-15.4-12.5-35.2-12.5-35.2c0.3-8.3,7-15.4,15.4-15.4
						c8.5,0,15.4,6.9,15.4,15.4c0,1.3-0.2,2.5-0.5,3.7c2.3-3.7,3.6-8.1,3.6-12.8c0-13.6-11-24.7-24.7-24.7c-1,0-2,0.1-3,0.2
						c-19.9,2-24.5,23.8-24.5,30.3c0,13,3.6,20.5,28.3,45C337.3,194.7,341.4,200.1,348.6,216.4z"/>
				</defs>
				<clipPath id="SVGID_9_">
					<use xlink:href="#SVGID_8_"  style="overflow:visible;"/>
				</clipPath>
				
					<radialGradient id="SVGID_10_" cx="190.5" cy="329.626" r="142.625" gradientTransform="matrix(1 0 0 -1 0 501.276)" gradientUnits="userSpaceOnUse">
					<stop  offset="0.2562" style="stop-color:#FFFFFF;stop-opacity:0.3"/>
					<stop  offset="0.8966" style="stop-color:#000000;stop-opacity:0"/>
				</radialGradient>
				<path class="st4" d="M333.1,171.6C333.1,92.8,269.2,29,190.5,29C111.7,29,47.9,92.9,47.9,171.6s63.9,142.7,142.6,142.7
					C269.2,314.2,333.1,250.4,333.1,171.6z"/>
			</g>
		</g>
	</g>
</g>
<g id="Camada_6">
</g>
</svg>
