<?xml version="1.0" encoding="utf-8"?>
<!-- Generator: Adobe Illustrator 22.0.1, SVG Export Plug-In . SVG Version: 6.00 Build 0)  -->
<svg version="1.1" id="Camada_1" xmlns="http://www.w3.org/2000/svg" xmlns:xlink="http://www.w3.org/1999/xlink" x="0px" y="0px"
	 viewBox="0 0 500 500" style="enable-background:new 0 0 500 500;" xml:space="preserve">
<style type="text/css">
	.st0{fill:#358334;}
	.st1{fill:#E84A3C;}
	.st2{fill:#A62D25;}
	.st3{fill:#8A99A2;}
	.st4{fill:#449D4C;}
	.st5{fill:#A8B6BE;}
	.st6{fill:#D8DDDE;}
	.st7{fill:#EF8260;}
	.st8{fill:#6EB552;}
	.st9{fill:#F8C297;}
	.st10{fill:#F1E52B;}
	.st11{fill:#B3A833;}
	.st12{fill:#B76848;}
	.st13{fill:#EDECEC;}
	.st14{fill:#FFCC00;}
	.st15{fill:#D60D47;}
	.st16{fill:#56B7E0;}
	.st17{opacity:0.5;fill:#FFFFFF;enable-background:new    ;}
</style>
<g id="Camada_9">
	<rect x="271.6" y="61.5" class="st0" width="9.5" height="9.4"/>
	<rect x="271.6" y="70.9" class="st0" width="9.5" height="9.4"/>
	<rect x="281.1" y="70.9" class="st0" width="9.5" height="9.4"/>
	<rect x="309.4" y="70.9" class="st1" width="9.5" height="9.4"/>
	<rect x="262.1" y="80.3" class="st0" width="9.5" height="9.4"/>
	<rect x="271.6" y="80.3" class="st0" width="9.5" height="9.4"/>
	<rect x="309.4" y="80.3" class="st1" width="9.5" height="9.4"/>
	<rect x="252.7" y="89.7" class="st0" width="9.5" height="9.4"/>
	<rect x="262.1" y="89.7" class="st0" width="9.5" height="9.4"/>
	<rect x="195.9" y="99.1" class="st0" width="9.5" height="9.4"/>
	<rect x="243.2" y="99.1" class="st0" width="9.5" height="9.4"/>
	<rect x="252.7" y="99.1" class="st0" width="9.5" height="9.4"/>
	<rect x="309.4" y="99.1" class="st1" width="9.5" height="9.4"/>
	<rect x="205.4" y="108.5" class="st0" width="9.5" height="9.4"/>
	<rect x="214.8" y="108.5" class="st0" width="9.5" height="9.4"/>
	<rect x="224.3" y="108.5" class="st0" width="9.5" height="9.4"/>
	<rect x="233.8" y="108.5" class="st0" width="9.5" height="9.4"/>
	<rect x="243.2" y="108.5" class="st2" width="9.5" height="9.4"/>
	<rect x="252.7" y="108.5" class="st1" width="9.5" height="9.4"/>
	<rect x="309.4" y="108.5" class="st1" width="9.5" height="9.4"/>
	<rect x="233.8" y="117.8" width="9.5" height="9.4"/>
	<rect x="243.2" y="117.8" class="st1" width="9.5" height="9.4"/>
	<rect x="252.7" y="117.8" class="st2" width="9.5" height="9.4"/>
	<rect x="262.1" y="117.8" class="st3" width="9.5" height="9.4"/>
	<rect x="300" y="117.8" class="st3" width="9.5" height="9.4"/>
	<rect x="205.4" y="127.2" class="st0" width="9.5" height="9.4"/>
	<rect x="243.2" y="127.2" class="st3" width="9.5" height="9.4"/>
	<rect x="252.7" y="127.2" class="st3" width="9.5" height="9.4"/>
	<rect x="262.1" y="127.2" class="st3" width="9.5" height="9.4"/>
	<rect x="271.6" y="127.2" class="st3" width="9.5" height="9.4"/>
	<rect x="281.1" y="127.2" class="st3" width="9.5" height="9.4"/>
	<rect x="290.5" y="127.2" class="st3" width="9.5" height="9.4"/>
	<rect x="300" y="127.2" class="st1" width="9.5" height="9.4"/>
	<rect x="252.7" y="136.6" class="st3" width="9.5" height="9.4"/>
	<rect x="262.1" y="136.6" class="st4" width="9.5" height="9.4"/>
	<rect x="271.6" y="136.6" class="st4" width="9.5" height="9.4"/>
	<rect x="205.4" y="146" class="st0" width="9.5" height="9.4"/>
	<rect x="214.8" y="146" class="st4" width="9.5" height="9.4"/>
	<rect x="224.3" y="146" class="st0" width="9.5" height="9.4"/>
	<rect x="252.7" y="146" class="st5" width="9.5" height="9.4"/>
	<rect x="214.8" y="155.4" class="st0" width="9.5" height="9.4"/>
	<rect x="347.3" y="155.4" class="st0" width="9.5" height="9.4"/>
	<rect x="243.2" y="164.8" class="st3" width="9.5" height="9.4"/>
	<rect x="271.6" y="164.8" class="st3" width="9.5" height="9.4"/>
	<rect x="281.1" y="164.8" class="st1" width="9.5" height="9.4"/>
	<rect x="290.5" y="164.8" class="st1" width="9.5" height="9.4"/>
	<rect x="347.3" y="164.8" class="st0" width="9.5" height="9.4"/>
	<rect x="224.3" y="174.2" class="st5" width="9.5" height="9.4"/>
	<rect x="233.8" y="174.2" class="st3" width="9.5" height="9.4"/>
	<rect x="243.2" y="174.2" class="st4" width="9.5" height="9.4"/>
	<rect x="252.7" y="174.2" class="st4" width="9.5" height="9.4"/>
	<rect x="271.6" y="174.2" class="st0" width="9.5" height="9.4"/>
	<rect x="281.1" y="174.2" class="st6" width="9.5" height="9.4"/>
	<rect x="290.5" y="174.2" class="st1" width="9.5" height="9.4"/>
	<rect x="318.9" y="174.2" class="st0" width="9.5" height="9.4"/>
	<rect x="328.4" y="174.2" class="st0" width="9.5" height="9.4"/>
	<rect x="347.3" y="174.2" class="st0" width="9.5" height="9.4"/>
	<rect x="214.8" y="183.5" class="st5" width="9.5" height="9.4"/>
	<rect x="224.3" y="183.5" class="st3" width="9.5" height="9.4"/>
	<rect x="262.1" y="183.5" class="st4" width="9.5" height="9.4"/>
	<rect x="281.1" y="183.5" class="st0" width="9.5" height="9.4"/>
	<rect x="290.5" y="183.5" class="st3" width="9.5" height="9.4"/>
	<rect x="318.9" y="183.5" class="st0" width="9.5" height="9.4"/>
	<rect x="328.4" y="183.5" class="st0" width="9.5" height="9.4"/>
	<rect x="186.5" y="192.9" class="st7" width="9.5" height="9.4"/>
	<rect x="195.9" y="192.9" class="st7" width="9.5" height="9.4"/>
	<rect x="205.4" y="192.9" class="st7" width="9.5" height="9.4"/>
	<rect x="214.8" y="192.9" class="st7" width="9.5" height="9.4"/>
	<rect x="224.3" y="192.9" class="st3" width="9.5" height="9.4"/>
	<rect x="262.1" y="192.9" class="st8" width="9.5" height="9.4"/>
	<rect x="177" y="202.3" class="st7" width="9.5" height="9.4"/>
	<rect x="186.5" y="202.3" class="st7" width="9.5" height="9.4"/>
	<rect x="195.9" y="202.3" class="st7" width="9.5" height="9.4"/>
	<rect x="205.4" y="202.3" class="st9" width="9.5" height="9.4"/>
	<rect x="214.8" y="202.3" class="st7" width="9.5" height="9.4"/>
	<rect x="224.3" y="202.3" class="st7" width="9.5" height="9.4"/>
	<rect x="177" y="211.7" class="st10" width="9.5" height="9.4"/>
	<rect x="186.5" y="211.7" class="st10" width="9.5" height="9.4"/>
	<rect x="195.9" y="211.7" class="st10" width="9.5" height="9.4"/>
	<rect x="205.4" y="211.7" class="st7" width="9.5" height="9.4"/>
	<rect x="214.8" y="211.7" class="st7" width="9.5" height="9.4"/>
	<rect x="224.3" y="211.7" class="st7" width="9.5" height="9.4"/>
	<rect x="233.8" y="211.7" class="st7" width="9.5" height="9.4"/>
	<rect x="243.2" y="211.7" class="st7" width="9.5" height="9.4"/>
	<rect x="177" y="221.1" class="st11" width="9.5" height="9.4"/>
	<rect x="186.5" y="221.1" class="st11" width="9.5" height="9.4"/>
	<rect x="195.9" y="221.1" class="st11" width="9.5" height="9.4"/>
	<rect x="205.4" y="221.1" class="st10" width="9.5" height="9.4"/>
	<rect x="214.8" y="221.1" class="st7" width="9.5" height="9.4"/>
	<rect x="224.3" y="221.1" class="st7" width="9.5" height="9.4"/>
	<rect x="233.8" y="221.1" class="st12" width="9.5" height="9.4"/>
	<rect x="243.2" y="221.1" class="st7" width="9.5" height="9.4"/>
	<rect x="252.7" y="221.1" class="st12" width="9.5" height="9.4"/>
	<rect x="281.1" y="221.1" class="st0" width="9.5" height="9.4"/>
	<rect x="186.5" y="230.5" class="st11" width="9.5" height="9.4"/>
	<rect x="195.9" y="230.5" class="st11" width="9.5" height="9.4"/>
	<rect x="205.4" y="230.5" class="st11" width="9.5" height="9.4"/>
	<rect x="214.8" y="230.5" class="st10" width="9.5" height="9.4"/>
	<rect x="224.3" y="230.5" class="st12" width="9.5" height="9.4"/>
	<rect x="233.8" y="230.5" class="st7" width="9.5" height="9.4"/>
	<rect x="243.2" y="230.5" class="st12" width="9.5" height="9.4"/>
	<rect x="252.7" y="230.5" class="st12" width="9.5" height="9.4"/>
	<rect x="262.1" y="230.5" class="st0" width="9.5" height="9.4"/>
	<rect x="271.6" y="230.5" class="st3" width="9.5" height="9.4"/>
	<rect x="281.1" y="230.5" class="st3" width="9.5" height="9.4"/>
	<rect x="195.9" y="239.9" class="st11" width="9.5" height="9.4"/>
	<rect x="205.4" y="239.9" class="st11" width="9.5" height="9.4"/>
	<rect x="214.8" y="239.9" class="st11" width="9.5" height="9.4"/>
	<rect x="224.3" y="239.9" class="st10" width="9.5" height="9.4"/>
	<rect x="233.8" y="239.9" class="st7" width="9.5" height="9.4"/>
	<rect x="243.2" y="239.9" class="st12" width="9.5" height="9.4"/>
	<rect x="252.7" y="239.9" class="st3" width="9.5" height="9.4"/>
	<rect x="262.1" y="239.9" class="st3" width="9.5" height="9.4"/>
	<rect x="271.6" y="239.9" class="st0" width="9.5" height="9.4"/>
	<rect x="290.5" y="239.9" class="st7" width="9.5" height="9.4"/>
	<rect x="300" y="239.9" class="st12" width="9.5" height="9.4"/>
	<rect x="205.4" y="249.3" class="st11" width="9.5" height="9.4"/>
	<rect x="214.8" y="249.3" class="st11" width="9.5" height="9.4"/>
	<rect x="224.3" y="249.3" class="st11" width="9.5" height="9.4"/>
	<rect x="233.8" y="249.3" class="st10" width="9.5" height="9.4"/>
	<rect x="243.2" y="249.3" class="st12" width="9.5" height="9.4"/>
	<rect x="262.1" y="249.3" class="st0" width="9.5" height="9.4"/>
	<rect x="290.5" y="249.3" class="st7" width="9.5" height="9.4"/>
	<rect x="300" y="249.3" class="st12" width="9.5" height="9.4"/>
	<rect x="309.4" y="249.3" class="st10" width="9.5" height="9.4"/>
	<rect x="214.8" y="258.6" class="st11" width="9.5" height="9.4"/>
	<rect x="224.3" y="258.6" class="st11" width="9.5" height="9.4"/>
	<rect x="233.8" y="258.6" class="st11" width="9.5" height="9.4"/>
	<rect x="271.6" y="258.6" class="st12" width="9.5" height="9.4"/>
	<rect x="281.1" y="258.6" class="st12" width="9.5" height="9.4"/>
	<rect x="290.5" y="258.6" class="st7" width="9.5" height="9.4"/>
	<rect x="300" y="258.6" class="st7" width="9.5" height="9.4"/>
	<rect x="309.4" y="258.6" class="st10" width="9.5" height="9.4"/>
	<rect x="262.1" y="268" class="st7" width="9.5" height="9.4"/>
	<rect x="271.6" y="268" class="st7" width="9.5" height="9.4"/>
	<rect x="281.1" y="268" class="st7" width="9.5" height="9.4"/>
	<rect x="290.5" y="268" class="st12" width="9.5" height="9.4"/>
	<rect x="300" y="268" class="st7" width="9.5" height="9.4"/>
	<rect x="309.4" y="268" class="st10" width="9.5" height="9.4"/>
	<rect x="252.7" y="277.4" class="st7" width="9.5" height="9.4"/>
	<rect x="262.1" y="277.4" class="st7" width="9.5" height="9.4"/>
	<rect x="271.6" y="277.4" class="st9" width="9.5" height="9.4"/>
	<rect x="281.1" y="277.4" class="st7" width="9.5" height="9.4"/>
	<rect x="290.5" y="277.4" class="st7" width="9.5" height="9.4"/>
	<rect x="300" y="277.4" class="st10" width="9.5" height="9.4"/>
	<rect x="252.7" y="286.8" class="st7" width="9.5" height="9.4"/>
	<rect x="262.1" y="286.8" class="st7" width="9.5" height="9.4"/>
	<rect x="271.6" y="286.8" class="st7" width="9.5" height="9.4"/>
	<rect x="281.1" y="286.8" class="st7" width="9.5" height="9.4"/>
	<rect x="290.5" y="286.8" class="st7" width="9.5" height="9.4"/>
	<rect x="300" y="286.8" class="st10" width="9.5" height="9.4"/>
	<rect x="262.1" y="296.2" class="st10" width="9.5" height="9.4"/>
	<rect x="271.6" y="296.2" class="st10" width="9.5" height="9.4"/>
	<rect x="281.1" y="296.2" class="st10" width="9.5" height="9.4"/>
	<rect x="290.5" y="296.2" class="st10" width="9.5" height="9.4"/>
	<rect x="281.1" y="80.3" class="st5" width="9.5" height="9.4"/>
	<rect x="271.6" y="89.7" class="st5" width="9.5" height="9.4"/>
	<rect x="262.1" y="99.1" class="st5" width="9.5" height="9.4"/>
	<rect x="271.6" y="99.1" class="st5" width="9.5" height="9.4"/>
	<rect x="262.1" y="108.5" class="st5" width="9.5" height="9.4"/>
	<rect x="300" y="108.5" class="st5" width="9.5" height="9.4"/>
	<rect x="224.3" y="117.8" class="st5" width="9.5" height="9.4"/>
	<rect x="290.5" y="117.8" class="st5" width="9.5" height="9.4"/>
	<rect x="233.8" y="127.2" class="st5" width="9.5" height="9.4"/>
	<rect x="233.8" y="164.8" class="st5" width="9.5" height="9.4"/>
	<rect x="262.1" y="33.4" class="st6" width="9.5" height="9.4"/>
	<rect x="271.6" y="33.4" class="st6" width="9.5" height="9.4"/>
	<rect x="281.1" y="42.7" class="st13" width="9.5" height="9.4"/>
	<rect x="290.5" y="42.7" class="st6" width="9.5" height="9.4"/>
	<rect x="281.1" y="52.1" class="st6" width="9.5" height="9.4"/>
	<rect x="281.1" y="61.5" class="st6" width="9.5" height="9.4"/>
	<rect x="281.1" y="89.7" class="st6" width="9.5" height="9.4"/>
	<rect x="290.5" y="89.7" class="st6" width="9.5" height="9.4"/>
	<rect x="300" y="89.7" class="st6" width="9.5" height="9.4"/>
	<rect x="281.1" y="99.1" class="st6" width="9.5" height="9.4"/>
	<rect x="290.5" y="99.1" class="st13" width="9.5" height="9.4"/>
	<rect x="300" y="99.1" class="st6" width="9.5" height="9.4"/>
	<rect x="271.6" y="108.5" class="st6" width="9.5" height="9.4"/>
	<rect x="281.1" y="108.5" class="st6" width="9.5" height="9.4"/>
	<rect x="290.5" y="108.5" class="st6" width="9.5" height="9.4"/>
	<rect x="271.6" y="117.8" class="st6" width="9.5" height="9.4"/>
	<rect x="281.1" y="117.8" class="st6" width="9.5" height="9.4"/>
	<rect x="243.2" y="136.6" class="st6" width="9.5" height="9.4"/>
	<rect x="233.8" y="146" class="st6" width="9.5" height="9.4"/>
	<rect x="243.2" y="146" class="st6" width="9.5" height="9.4"/>
	<rect x="224.3" y="155.4" class="st6" width="9.5" height="9.4"/>
	<rect x="233.8" y="155.4" class="st6" width="9.5" height="9.4"/>
	<rect x="243.2" y="155.4" class="st5" width="9.5" height="9.4"/>
	<rect x="214.8" y="164.8" class="st6" width="9.5" height="9.4"/>
	<rect x="224.3" y="164.8" class="st6" width="9.5" height="9.4"/>
	<rect x="205.4" y="174.2" class="st6" width="9.5" height="9.4"/>
	<rect x="214.8" y="174.2" class="st6" width="9.5" height="9.4"/>
	<rect x="205.4" y="183.5" class="st6" width="9.5" height="9.4"/>
	<rect x="271.6" y="42.7" width="9.5" height="9.4"/>
	<rect x="271.6" y="52.1" width="9.5" height="9.4"/>
	<rect x="290.5" y="52.1" width="9.5" height="9.4"/>
	<rect x="290.5" y="61.5" width="9.5" height="9.4"/>
	<rect x="205.4" y="33.4" class="st4" width="9.5" height="9.4"/>
	<rect x="224.3" y="33.4" class="st4" width="9.5" height="9.4"/>
	<rect x="281.1" y="33.4" class="st4" width="9.5" height="9.4"/>
	<rect x="262.1" y="70.9" class="st4" width="9.5" height="9.4"/>
	<rect x="186.5" y="80.3" class="st4" width="9.5" height="9.4"/>
	<rect x="252.7" y="80.3" class="st4" width="9.5" height="9.4"/>
	<rect x="300" y="80.3" class="st4" width="9.5" height="9.4"/>
	<rect x="186.5" y="89.7" class="st4" width="9.5" height="9.4"/>
	<rect x="195.9" y="89.7" class="st4" width="9.5" height="9.4"/>
	<rect x="243.2" y="89.7" class="st4" width="9.5" height="9.4"/>
	<rect x="205.4" y="99.1" class="st4" width="9.5" height="9.4"/>
	<rect x="214.8" y="99.1" class="st4" width="9.5" height="9.4"/>
	<rect x="224.3" y="99.1" class="st4" width="9.5" height="9.4"/>
	<rect x="233.8" y="99.1" class="st4" width="9.5" height="9.4"/>
	<rect x="195.9" y="108.5" class="st4" width="9.5" height="9.4"/>
	<rect x="195.9" y="117.8" class="st4" width="9.5" height="9.4"/>
	<rect x="205.4" y="117.8" class="st4" width="9.5" height="9.4"/>
	<rect x="195.9" y="127.2" class="st4" width="9.5" height="9.4"/>
	<rect x="167.5" y="136.6" class="st4" width="9.5" height="9.4"/>
	<rect x="177" y="146" class="st4" width="9.5" height="9.4"/>
	<rect x="186.5" y="146" class="st4" width="9.5" height="9.4"/>
	<rect x="337.8" y="146" class="st4" width="9.5" height="9.4"/>
	<rect x="195.9" y="155.4" class="st4" width="9.5" height="9.4"/>
	<rect x="205.4" y="155.4" class="st4" width="9.5" height="9.4"/>
	<rect x="281.1" y="155.4" class="st4" width="9.5" height="9.4"/>
	<rect x="290.5" y="155.4" class="st4" width="9.5" height="9.4"/>
	<rect x="300" y="155.4" class="st4" width="9.5" height="9.4"/>
	<rect x="309.4" y="164.8" class="st4" width="9.5" height="9.4"/>
	<rect x="318.9" y="164.8" class="st4" width="9.5" height="9.4"/>
	<rect x="309.4" y="174.2" class="st4" width="9.5" height="9.4"/>
	<rect x="300" y="183.5" class="st4" width="9.5" height="9.4"/>
	<rect x="337.8" y="183.5" class="st4" width="9.5" height="9.4"/>
	<rect x="300" y="192.9" class="st4" width="9.5" height="9.4"/>
	<rect x="252.7" y="211.7" class="st4" width="9.5" height="9.4"/>
	<rect x="281.1" y="211.7" class="st4" width="9.5" height="9.4"/>
	<rect x="300" y="211.7" class="st4" width="9.5" height="9.4"/>
	<rect x="262.1" y="221.1" class="st4" width="9.5" height="9.4"/>
	<rect x="271.6" y="221.1" class="st4" width="9.5" height="9.4"/>
	<rect x="290.5" y="221.1" class="st4" width="9.5" height="9.4"/>
	<rect x="281.1" y="239.9" class="st4" width="9.5" height="9.4"/>
	<rect x="271.6" y="249.3" class="st4" width="9.5" height="9.4"/>
	<rect x="281.1" y="249.3" class="st4" width="9.5" height="9.4"/>
	<rect x="214.8" y="24" class="st8" width="9.5" height="9.4"/>
	<rect x="224.3" y="24" class="st8" width="9.5" height="9.4"/>
	<rect x="233.8" y="24" class="st8" width="9.5" height="9.4"/>
	<rect x="271.6" y="24" class="st8" width="9.5" height="9.4"/>
	<rect x="281.1" y="24" class="st8" width="9.5" height="9.4"/>
	<rect x="214.8" y="33.4" class="st8" width="9.5" height="9.4"/>
	<rect x="233.8" y="33.4" class="st8" width="9.5" height="9.4"/>
	<rect x="243.2" y="33.4" class="st8" width="9.5" height="9.4"/>
	<rect x="252.7" y="33.4" class="st8" width="9.5" height="9.4"/>
	<rect x="290.5" y="33.4" class="st8" width="9.5" height="9.4"/>
	<rect x="300" y="33.4" class="st8" width="9.5" height="9.4"/>
	<rect x="195.9" y="42.7" class="st8" width="9.5" height="9.4"/>
	<rect x="205.4" y="42.7" class="st8" width="9.5" height="9.4"/>
	<rect x="214.8" y="42.7" class="st8" width="9.5" height="9.4"/>
	<rect x="224.3" y="42.7" class="st8" width="9.5" height="9.4"/>
	<rect x="233.8" y="42.7" class="st8" width="9.5" height="9.4"/>
	<rect x="243.2" y="42.7" class="st8" width="9.5" height="9.4"/>
	<rect x="252.7" y="42.7" class="st8" width="9.5" height="9.4"/>
	<rect x="262.1" y="42.7" class="st8" width="9.5" height="9.4"/>
	<rect x="300" y="42.7" class="st8" width="9.5" height="9.4"/>
	<rect x="309.4" y="42.7" class="st8" width="9.5" height="9.4"/>
	<rect x="186.5" y="52.1" class="st8" width="9.5" height="9.4"/>
	<rect x="195.9" y="52.1" class="st8" width="9.5" height="9.4"/>
	<rect x="205.4" y="52.1" class="st8" width="9.5" height="9.4"/>
	<rect x="214.8" y="52.1" class="st8" width="9.5" height="9.4"/>
	<rect x="224.3" y="52.1" class="st8" width="9.5" height="9.4"/>
	<rect x="233.8" y="52.1" class="st8" width="9.5" height="9.4"/>
	<rect x="243.2" y="52.1" class="st8" width="9.5" height="9.4"/>
	<rect x="252.7" y="52.1" class="st8" width="9.5" height="9.4"/>
	<rect x="262.1" y="52.1" class="st8" width="9.5" height="9.4"/>
	<rect x="300" y="52.1" class="st8" width="9.5" height="9.4"/>
	<rect x="309.4" y="52.1" class="st8" width="9.5" height="9.4"/>
	<rect x="186.5" y="61.5" class="st8" width="9.5" height="9.4"/>
	<rect x="195.9" y="61.5" class="st8" width="9.5" height="9.4"/>
	<rect x="205.4" y="61.5" class="st8" width="9.5" height="9.4"/>
	<rect x="214.8" y="61.5" class="st8" width="9.5" height="9.4"/>
	<rect x="224.3" y="61.5" class="st8" width="9.5" height="9.4"/>
	<rect x="233.8" y="61.5" class="st8" width="9.5" height="9.4"/>
	<rect x="243.2" y="61.5" class="st8" width="9.5" height="9.4"/>
	<rect x="252.7" y="61.5" class="st8" width="9.5" height="9.4"/>
	<rect x="262.1" y="61.5" class="st8" width="9.5" height="9.4"/>
	<rect x="300" y="61.5" class="st8" width="9.5" height="9.4"/>
	<rect x="309.4" y="61.5" class="st8" width="9.5" height="9.4"/>
	<rect x="186.5" y="70.9" class="st8" width="9.5" height="9.4"/>
	<rect x="195.9" y="70.9" class="st8" width="9.5" height="9.4"/>
	<rect x="205.4" y="70.9" class="st8" width="9.5" height="9.4"/>
	<rect x="214.8" y="70.9" class="st8" width="9.5" height="9.4"/>
	<rect x="224.3" y="70.9" class="st8" width="9.5" height="9.4"/>
	<rect x="233.8" y="70.9" class="st8" width="9.5" height="9.4"/>
	<rect x="243.2" y="70.9" class="st8" width="9.5" height="9.4"/>
	<rect x="252.7" y="70.9" class="st8" width="9.5" height="9.4"/>
	<rect x="290.5" y="70.9" class="st8" width="9.5" height="9.4"/>
	<rect x="300" y="70.9" class="st8" width="9.5" height="9.4"/>
	<rect x="195.9" y="80.3" class="st8" width="9.5" height="9.4"/>
	<rect x="205.4" y="80.3" class="st8" width="9.5" height="9.4"/>
	<rect x="214.8" y="80.3" class="st8" width="9.5" height="9.4"/>
	<rect x="224.3" y="80.3" class="st8" width="9.5" height="9.4"/>
	<rect x="233.8" y="80.3" class="st8" width="9.5" height="9.4"/>
	<rect x="243.2" y="80.3" class="st8" width="9.5" height="9.4"/>
	<rect x="290.5" y="80.3" class="st8" width="9.5" height="9.4"/>
	<rect x="205.4" y="89.7" class="st8" width="9.5" height="9.4"/>
	<rect x="214.8" y="89.7" class="st8" width="9.5" height="9.4"/>
	<rect x="224.3" y="89.7" class="st8" width="9.5" height="9.4"/>
	<rect x="233.8" y="89.7" class="st8" width="9.5" height="9.4"/>
	<rect x="177" y="108.5" class="st8" width="9.5" height="9.4"/>
	<rect x="186.5" y="108.5" class="st8" width="9.5" height="9.4"/>
	<rect x="167.5" y="117.8" class="st8" width="9.5" height="9.4"/>
	<rect x="177" y="117.8" class="st8" width="9.5" height="9.4"/>
	<rect x="186.5" y="117.8" class="st8" width="9.5" height="9.4"/>
	<rect x="167.5" y="127.2" class="st8" width="9.5" height="9.4"/>
	<rect x="177" y="127.2" class="st8" width="9.5" height="9.4"/>
	<rect x="186.5" y="127.2" class="st8" width="9.5" height="9.4"/>
	<rect x="177" y="136.6" class="st8" width="9.5" height="9.4"/>
	<rect x="186.5" y="136.6" class="st8" width="9.5" height="9.4"/>
	<rect x="195.9" y="136.6" class="st8" width="9.5" height="9.4"/>
	<rect x="195.9" y="146" class="st8" width="9.5" height="9.4"/>
	<rect x="262.1" y="146" class="st8" width="9.5" height="9.4"/>
	<rect x="271.6" y="146" class="st8" width="9.5" height="9.4"/>
	<rect x="281.1" y="146" class="st8" width="9.5" height="9.4"/>
	<rect x="290.5" y="146" class="st8" width="9.5" height="9.4"/>
	<rect x="300" y="146" class="st8" width="9.5" height="9.4"/>
	<rect x="309.4" y="146" class="st8" width="9.5" height="9.4"/>
	<rect x="318.9" y="146" class="st8" width="9.5" height="9.4"/>
	<rect x="328.4" y="146" class="st8" width="9.5" height="9.4"/>
	<rect x="252.7" y="155.4" class="st8" width="9.5" height="9.4"/>
	<rect x="262.1" y="155.4" class="st8" width="9.5" height="9.4"/>
	<rect x="271.6" y="155.4" class="st8" width="9.5" height="9.4"/>
	<rect x="309.4" y="155.4" class="st8" width="9.5" height="9.4"/>
	<rect x="318.9" y="155.4" class="st8" width="9.5" height="9.4"/>
	<rect x="328.4" y="155.4" class="st8" width="9.5" height="9.4"/>
	<rect x="337.8" y="155.4" class="st8" width="9.5" height="9.4"/>
	<rect x="252.7" y="164.8" class="st8" width="9.5" height="9.4"/>
	<rect x="262.1" y="164.8" class="st8" width="9.5" height="9.4"/>
	<rect x="328.4" y="164.8" class="st8" width="9.5" height="9.4"/>
	<rect x="337.8" y="164.8" class="st8" width="9.5" height="9.4"/>
	<rect x="262.1" y="174.2" class="st8" width="9.5" height="9.4"/>
	<rect x="337.8" y="174.2" class="st8" width="9.5" height="9.4"/>
	<rect x="233.8" y="183.5" class="st8" width="9.5" height="9.4"/>
	<rect x="243.2" y="183.5" class="st8" width="9.5" height="9.4"/>
	<rect x="252.7" y="183.5" class="st8" width="9.5" height="9.4"/>
	<rect x="271.6" y="183.5" class="st8" width="9.5" height="9.4"/>
	<rect x="233.8" y="192.9" class="st8" width="9.5" height="9.4"/>
	<rect x="243.2" y="192.9" class="st8" width="9.5" height="9.4"/>
	<rect x="252.7" y="192.9" class="st8" width="9.5" height="9.4"/>
	<rect x="271.6" y="192.9" class="st8" width="9.5" height="9.4"/>
	<rect x="281.1" y="192.9" class="st8" width="9.5" height="9.4"/>
	<rect x="290.5" y="192.9" class="st8" width="9.5" height="9.4"/>
	<rect x="233.8" y="202.3" class="st8" width="9.5" height="9.4"/>
	<rect x="243.2" y="202.3" class="st8" width="9.5" height="9.4"/>
	<rect x="252.7" y="202.3" class="st8" width="9.5" height="9.4"/>
	<rect x="262.1" y="202.3" class="st8" width="9.5" height="9.4"/>
	<rect x="271.6" y="202.3" class="st8" width="9.5" height="9.4"/>
	<rect x="281.1" y="202.3" class="st8" width="9.5" height="9.4"/>
	<rect x="290.5" y="202.3" class="st8" width="9.5" height="9.4"/>
	<rect x="300" y="202.3" class="st8" width="9.5" height="9.4"/>
	<rect x="262.1" y="211.7" class="st8" width="9.5" height="9.4"/>
	<rect x="271.6" y="211.7" class="st8" width="9.5" height="9.4"/>
	<rect x="290.5" y="211.7" class="st8" width="9.5" height="9.4"/>
</g>
<g id="Fanarts">
	<polygon class="st14" points="500,0 250,250 500,500 	"/>
	<polygon class="st15" points="0,0 500,500 0.1,500 	"/>
	<g>
		<path class="st16" d="M168.2,458.1v-24.5h18.6v6.5h-11.2v2.4h10.9v6.5h-10.9v9.1H168.2z"/>
		<path class="st16" d="M204.4,458.1l-0.9-2.9h-8.8l-0.9,2.9h-8.4l9-24.5h9.3l9,24.5H204.4z M199.1,440.9l-2.4,7.9h4.8L199.1,440.9z
			"/>
		<path class="st16" d="M230.6,458.1l-9-12.4v12.4h-7.4v-24.5h7.6l8.5,11.6v-11.6h7.4v24.5H230.6z"/>
		<path class="st16" d="M258,458.1l-0.9-2.9h-8.8l-0.9,2.9H239l9-24.5h9.3l9,24.5H258z M252.7,440.9l-2.4,7.9h4.8L252.7,440.9z"/>
		<path class="st16" d="M281.1,458.1l-3.4-7.7H275v7.7h-7.4v-24.5h13.1c5.7,0,8.8,3.8,8.8,8.4c0,4.2-2.5,6.5-4.4,7.4l4.4,8.7H281.1z
			 M282,442c0-1.3-1.2-1.9-2.4-1.9h-4.5v3.9h4.5C280.9,443.9,282,443.3,282,442z"/>
		<path class="st16" d="M297.4,458.1v-18h-6.6v-6.5h20.5v6.5h-6.5v18H297.4z"/>
		<path class="st16" d="M311.8,454.6l3.9-5.5c1.8,1.8,4.6,3.2,7.9,3.2c1.4,0,2.7-0.4,2.7-1.3c0-2.3-13.6,0-13.6-9.6
			c0-4.1,3.4-8.1,10.2-8.1c4,0,7.6,1.1,10.4,3.4l-4,5.2c-2.1-1.6-4.9-2.4-7.2-2.4c-1.5,0-1.9,0.5-1.9,1.1c0,2.3,13.6,0.3,13.6,9.4
			c0,5.4-4,8.5-10.6,8.5C317.9,458.5,314.4,457,311.8,454.6z"/>
	</g>
</g>
<g id="Camada_3">
	<path class="st17" d="M0,0v500h500V0H0z M479.5,479.5h-459v-459h459V479.5z"/>
</g>
</svg>
