<?xml version="1.0" encoding="utf-8"?>
<!-- Generator: Adobe Illustrator 22.0.1, SVG Export Plug-In . SVG Version: 6.00 Build 0)  -->
<svg version="1.1" id="Camada_1" xmlns="http://www.w3.org/2000/svg" xmlns:xlink="http://www.w3.org/1999/xlink" x="0px" y="0px"
	 viewBox="0 0 1920 1312" style="enable-background:new 0 0 1920 1312;" xml:space="preserve">
<style type="text/css">
	.st0{fill:#306029;}
	.st1{fill:#48636B;}
	.st2{fill:none;}
	.st3{fill:#939345;}
</style>
<g id="Hiker_C">
	<g>
		<path class="st0" d="M474.6,554.5c-8-1.8-17.8-3.9-29.3-6.2c-1-1-7.3-1.9-18.8-2.7s-19.4-1.2-23.5-1.2c-1.7,0-3.4,1-5.2,2.9
			c-1.3,1.6-2.6,3-3.7,4.4c-1.1,1.3-2,3.7-2.6,7.2c-0.6,3.4-0.9,6.6-0.9,9.4V615l-54,19.2l-21.3-35.4c0-4.7-0.3-11-1-18.8
			s-1.5-12.3-2.5-13.4c-1.8-5.3-3.5-10.3-5-15s-2.9-7.1-4.1-7.1c-4.8,0-12.9,0.4-24.3,1.2s-17.5,1.7-18.4,2.7
			c-9.6,2.1-18.8,4.2-27.6,6.1c-8.8,1.9-13.2,3.7-13.2,5.2v206.5c0,1.7,2,3.4,6.1,5.2c4,1.8,9.2,3.9,15.5,6.2c1,1.1,4.3,2.1,10,2.8
			c5.6,0.7,9.8,1.1,12.6,1.1c3,0,7.5-0.4,13.5-1.2s9.4-1.7,10.5-2.7c6.6-2,13-4,19-6s9-3.8,9-5.5v-87.4h75.2v87.4
			c0,1.7,2,3.4,6.1,5.2c4,1.8,9.2,3.9,15.5,6.2c1,1.1,4.3,2.1,10,2.8c5.6,0.7,9.8,1.1,12.7,1.1c3,0,7.5-0.4,13.5-1.2
			s9.4-1.7,10.5-2.7c6.6-2,13-4,19-6s9-3.8,9-5.5V559.6C486.7,558,482.7,556.3,474.6,554.5z"/>
		<path class="st0" d="M633.1,554.4c-4.1-1.7-9.4-3.8-15.8-6.2c-1-1.1-4.4-2.1-10.1-2.8c-5.7-0.7-10-1.1-12.7-1.1
			c-3,0-7.5,0.4-13.3,1.2s-9.3,1.7-10.3,2.7c-6.6,2.1-12.9,4.2-18.9,6.1c-6,1.9-8.9,3.7-8.9,5.2v181.7c0,3.3,0.3,6.6,0.9,10
			c0.6,3.4,1.5,5.7,2.6,6.9c1.7,5.6,3.4,11.2,5.2,16.7c1.3,4.4,2.6,6.6,3.7,6.6c4.6,0,12.6-0.4,24-1.2s17.5-1.7,18.4-2.7
			c9.7-2,19-4,27.9-6s13.4-3.8,13.4-5.5V559.6C639.2,557.9,637.2,556.2,633.1,554.4z"/>
		<path class="st0" d="M967.3,756.6c-0.7-1.2-2.9-4.7-6.7-10.3c-3-4.4-5.6-7.9-7.6-10.6l-65.6-91.4l58.4-62.9
			c2.1-1.9,5.7-6.3,10.8-13.3s7.6-11.2,7.6-12.8c0-1.1-3.6-2.3-10.8-3.5c-16.4-2.7-24.7-4.1-24.8-4.2c-1-0.9-6-1.7-15.1-2.3
			s-18.4-0.9-28.1-0.9c-1.2,0-3,0.8-5.4,2.5c-1.2,0.8-2.7,1.9-4.4,3.4c-0.5,0.3-2.2,2.4-5.4,6.1c-2.6,3-4.6,5.2-5.9,6.6l-72.2,82.5
			v-72.9c0-4-0.3-8.8-0.9-14.3c-0.6-5.5-1.4-8.7-2.4-9.7s-7.7-1.7-20.3-2.4c-12.6-0.6-24.5-1.1-35.6-1.3
			c-11.1-0.3-19.3-0.4-24.5-0.4c-1.2,0-2.5,1.4-3.9,4.1c-1.3,2.8-3.1,6.5-5.2,11.4c-1,1.1-1.8,5.5-2.4,13.1
			c-0.6,7.6-0.9,13.5-0.9,17.5v170.1c0,1.5,2,3.2,6,5.1c4,2,6,3.2,6,3.8c0.1,0.8,1,1.6,2.5,2.5c1.6,0.8,3.5,1.9,5.9,3.1
			c0.3,0.7,1.6,1.3,3.9,1.9c2.2,0.6,5.2,1.5,8.8,2.6c1,0.6,3.1,1,6.3,1.3s5.9,0.4,8,0.4c2.7,0,6.8-0.4,12.4-1.1
			c5.6-0.7,8.9-1.6,9.9-2.6c6.3-2.1,12.3-4.2,18-6.2s8.5-3.8,8.5-5.5v-48l20.4-43.9l50.3,79.3l5.9,9.8c0.9,1.6,2.9,4.5,5.9,8.7
			s5,6.7,5.9,7.3c0.9,0.7,4.7,1.2,11.5,1.6c6.8,0.4,13.8,0.6,21.1,0.6c3,0,8.8-0.3,17.2-0.9c8.4-0.6,13-1.3,13.7-2s6-1.9,15.8-3.5
			s14.7-2.9,14.7-3.8c0-0.7-0.6-2.3-1.9-4.8C971.3,763.8,969.6,760.6,967.3,756.6z"/>
		<path class="st0" d="M1224.5,752c-1.7-3.4-3.3-6.6-4.7-9.7c-1.5-3.1-2.8-4.6-4.1-4.6h-110.5v-59.2h82.5c2.6,0,5.2-0.3,7.8-0.8
			c2.6-0.5,4.4-1.2,5.3-1.9c2.9-1.3,5.6-2.6,8.2-3.8c2.5-1.2,3.8-2.2,3.8-3.1c0-3.8-0.3-9.2-0.8-16c-0.6-6.9-1.3-10.7-2.1-11.5
			c-0.8-0.8-3.3-1.4-7.5-1.9s-8.1-0.7-11.8-0.7h-85.4v-51.1H1209c1.6,0,3.4-2.3,5.6-7c2.1-4.7,3.3-7.1,3.4-7.2
			c0.9-0.8,1.6-3.3,2.1-7.6s0.8-7.5,0.8-9.8c0-1-1.5-2-4.4-3s-6.7-2.3-11.5-3.9c-1-0.9-5.1-1.6-12.2-2s-13.2-0.7-18.3-0.7h-150
			c-1.3,0-3,1.5-4.9,4.6s-3.2,4.8-4,5.1c-0.7,0.3-1.5,1.5-2.2,3.6s-1.6,4.9-2.6,8.5c-0.6,1.1-1,4.8-1.3,11s-0.4,11.2-0.4,14.9v169.4
			c0,1.9,1.7,3.8,5.1,5.6c3.4,1.8,8,3.9,13.6,6.2c1.1,1,5.5,1.9,13.2,2.5c7.7,0.7,13.9,1,18.6,1h135.6c4,0,7-0.9,8.9-2.7
			c5.5-1.3,10.8-2.6,15.8-3.9c5-1.2,7.5-2.3,7.5-3.2c0-2.1-0.3-5.4-0.9-9.8C1225.9,755.2,1225.2,752.7,1224.5,752z"/>
		<path class="st0" d="M1701,904.7c0,0-4.8-11.3-7.9-39.7c-0.4-8-1.1-15.8-1.9-23.2c0,0,0,0,0-0.1c1.9,1.2,3.8,2.7,5.7,4.3
			c0,0-1.6-25.1-19.5-73.9c3.3,0.8,6.8,1.9,10.5,3.4c0,0-14.5-21.4-26.6-47.6c-1.5-3.5-3-6.9-4.5-10.3c0,0,0-0.1-0.1-0.1l0,0
			c-0.3-0.6-0.5-1.2-0.8-1.8c1.3,0.1,2.7,0.3,4.1,0.5c0,0-14.2-21.8-23.5-41.5c-0.1-0.3-0.3-0.6-0.4-0.8c1.7,0.5,3.5,1,5.3,1.7
			c0,0-8.2-6.2-17.5-31c-0.6-1.7-1.2-3.4-1.8-5.1c-0.1-0.3-0.2-0.6-0.3-0.9c-0.6-1.7-1.1-3.3-1.6-4.9c1.7,0.4,3.5,0.8,5.3,1.3
			c0,0-5.6-6-13.6-35.9c-0.3-1.7-0.5-3.5-0.7-5.2c1.8,0.6,3.6,1.3,5.4,2c0,0-6.6-2.9-6.1-28.1c0.4-21.9,2.7-40.4,3.7-53.5
			c4.3-59.4-57.6-163-134.7-196.4c-17.1-10-27-9.7-33-7.3c-3-5-6.9-8.5-10.9-11.3c3.4-2.4,6-4.1,6-4.1c-8-6.5-14.9-10.7-20.7-13.4
			c10.5,3.3,18.5,9,18.5,9c0.1-0.2,0.3-0.3,0.4-0.4c0.1,0.1,0.2,0.1,0.2,0.1c8.9-8.9,17.1-13.7,17.1-13.7
			c-10.8-5.6-22.3-7.8-31.7-8.5c8-1,18-1.2,29.1,1.2c0,0-1-0.4-2.7-0.9c1.1,0.2,2.2,0.4,3.4,0.6c0,0-17.2-7-43.4-4.6
			c-0.1-0.1-0.1-0.2-0.2-0.3c0.9-0.5,1.9-1,2.8-1.5c20.1-9.3,50.3-8.7,50.3-8.7c-0.8-0.1-1.6-0.2-2.4-0.3c1.9,0,3,0,3,0
			c-24.8-3.4-43.8,0.1-57.3,5.1c-15.1-18.5-41.8-8.9-55.3-10.9c-19.7-2.8-32.3,3-39.8,13.1c-13.7-5.9-34.2-10.8-62.2-7.1
			c0,0,34.7-0.7,54.5,10.8c-26.7-2.7-44.3,4.5-44.3,4.5c11.9-2.6,22.5-2.2,30.8-1c-9.5,0.7-21.5,2.8-32.7,8.6c0,0,8.2,4.8,17.1,13.7
			c0,0,9.9-7.1,22.2-10.1c-6.3,2.6-14.3,7-23.7,14.7c0,0,18.6,12.8,23.6,16.6c0,0,1.5-7.1,5.9-11c1.4,19.2,12,36.5,19.4,43.6
			c7.8,7.5,14.2,12.3,14.2,12.3c-4.1,7.5,2.2,28.3,4.9,38.8c4.1,15.4,11.8,34.4,35.6,60.4c23.7,25.7,43.7,31,39.9,69.9
			c-0.8,7.9-19.1,10.7-19.9,20.5c52.7-19.1,77.9-2.9,59.3-26.9c-12.7-16.4-38.5-31.2-20.8-76.7c11.1-22.3,17.9-30.8,24.4-38.7
			c-9.2,12.8-22.1,33.4-25.5,51.9c-5.4,29.4,5.5,39.7,18.9,52.9c13.4,13.2,18.6,29.3,10.5,29.3c-32.2,0-61.1,8.6-61.1,8.6
			s3.5,0,9.1,0.4c-4.6-0.1-8.8-0.2-12.7-0.4c-7.4-0.2-16.1-0.3-26-0.3H1283c-1.8,0-3.6,1.5-5.4,4.5s-3.9,7-6.2,12.1
			c-1.1,1.1-2,5.4-2.7,12.9s-1,13.5-1,18.1v172c0,1.6,2,3.3,6,5.1s9.1,3.9,15.4,6.4c0.9,1.1,4.2,2.1,10,2.8s10.2,1.1,13.1,1.1
			c2.8,0,7.2-0.4,13.2-1.1c6-0.7,9.4-1.6,10.5-2.6c6.6-2.1,13-4.2,19-6.2s9-3.8,9-5.5v-75.6l8.8-13.3c7.2,0,13.2,0.3,18,1
			s8.5,1.6,11,2.9c5.4,2.5,9.4,8.3,12.1,17.4c1.1,1.2,3.1,6.1,6.1,14.7c1.7,4.7,2.9,7.8,3.7,9.3l10,26c0.9,1.3,1.7,3.4,2.5,6.1
			c1.9,6,2.9,9,3,9.3c0.8,1.5,1.6,3,2.4,4.6s1.7,2.6,2.6,3.2c1.4,2.5,2.6,4.8,3.9,6.8c1.2,2.1,2.3,3.1,3.2,3.1
			c3.9,0,9.6-0.1,17.1-0.4c7.5-0.3,11.6-0.6,12.2-0.9c0.7-0.3,4.6-0.9,11.8-1.8c7.2-0.8,11-1.5,11.3-2.1s4.7-1.4,13-2.5
			s12.5-1.9,12.5-2.4c0-1.8-0.3-5.2-0.8-10.2s-1.2-8.3-1.9-10c-1.5-6.7-2.8-13.3-4.1-19.6c-1.3-6.3-2.4-10.2-3.3-11.6
			c-3.5-14.5-7.7-24.8-12.7-30.9c-2.4-3.3-6.4-6.5-12.1-9.8c-7.8-5.3-20.4-9.6-37.8-12.8c25.9-2.8,44.1-8.4,54.7-16.9
			c10.3-8.2,15.6-20.9,15.8-38.1c0.8,1.5,1.6,2.9,2.4,4.4l0,0c0,0,13.8,28.7,18,47.3c0,0,2.1-3.3,6.3-7.8c1.3,2,2.6,3.9,3.9,5.9
			c0,0,7,13.1,19.9,41c0,0,1.1-2.3,3.4-5.5c1.2,1.8,2.3,3.7,3.5,5.5c0,0.1,15.1,24.2,17.2,40.6c0,0,1.2-2,3.5-4.9
			c0.9,1.7,1.8,3.4,2.6,5.1c1.4,3,17.6,36.8,17.9,57c0,0,0.8-3.1,2.9-7.2c1,3,2,6.1,2.9,9.3c2.4,8.3,7.3,29.2,3.4,49.1
			c0,0,2.5-2.9,6.9-6.3c0.5,2.8,1,5.6,1.4,8.4c0.6,7.1,0.7,19.9-1.4,42c0,0,2.1-1.8,5.8-3.7c0,0.5,0.1,1.1,0.1,1.6v0.1
			c0.1,1.9,1.3,25.3-7.6,43.7c0,0,2.9-1.1,7.6-2.1c-0.4,5.5-0.9,10.8-1.6,16.1c-1.1,7.3-4.1,21.1-11.2,24.9c0,0,2.6-0.4,6.7-0.6
			c-0.2,0.7-0.4,1.4-0.5,2.1c-1.8,5-7.1,17.9-17.2,28c0,0,2.8-0.2,7-0.1c0,0-6.3,11.6-18,19.3c0,0,1.6,0.4,4.1,1.2
			c0,0-16.9,15-27.4,11c0,0,2.1,0.9,5.2,2.6c-2,0.5-4,0.9-6.1,1.1c-2.4,0.2-9.5,0.2-14.2-5.5c0,0,0.6,1.9,1.4,5
			c-3.3-0.6-6.8-1.5-10.3-2.8c-2.5-1.7-4.4-4.6-4.4-9.2c0,0-0.9,2.6-2.4,6.4c-0.6-0.3-1.3-0.6-1.9-0.9c-11.1-9.9-9.1-13.6-9.1-13.6
			c-1.3,2.1-2.6,4-4,5.8c-4.3-3-8.7-6.4-13.3-10.4c-27.2-12.1-36.5,3.3-50.5,5.1c-6.5,0.8,6.5,14.3,26.4,27.9
			c-3.5,0.4-5.7,0.3-5.7,0.3c11.6,7.8,39.1,18.7,39.1,18.7c-2.2,1.7-4.5,2.6-6.6,2c0,0,8.7,3,38.9,7.9c-1.1,1.2-2.5,2.3-4,3.1
			c0,0,40.6-3.5,49.9-13.1c0.3-0.1,0.6-0.3,0.9-0.4c0.1,1.7,0,3.5-0.4,5.4c0,0,25-17.7,27.9-23.7c0.6,1.6,1.1,3.3,1.3,5.1
			c0,0,6.6-11,15-24.1c1.1-1.5,2.1-3.1,3.1-4.8c0-0.1,0.1-0.1,0.1-0.2l0,0c0.4-0.7,0.9-1.4,1.3-2.2c1,1.7,1.8,3.6,2.4,5.6
			c0,0,4.9-12.4,12.1-38.2c0.9,1.2,1.7,2.5,2.4,4c0,0,6-34.6,6.2-42.3l0,0c0.4-2.6,0.7-5.3,1.1-8c2.2,1.8,4.4,3.8,6.4,6.2
			c-1.6-3.7-3.9-15.2-4-51.5C1696.2,900.3,1698.6,902.3,1701,904.7z M1338.6,295.5c-6.7-0.1-9.8-9-9.8-9s2.6,0.4,4.3-0.9
			c1.7-1.3,7.9-5.9,14.1,3C1347.2,288.7,1345.2,295.6,1338.6,295.5z M1373.2,318.2c-5.9,1.9-10.4,2.9-14,2.9l0,0c0,0,0,0-0.1,0
			c0,0,0,0-0.1,0l0,0c-3.6,0-8.1-0.9-14-2.9c0,0-6.3-9.1,2.4-15.3c4.9-3.5,10.3-6.3,10.3-12.5c0-7-5.7-12.7-12.7-12.7
			c-1.1,0-2.1,0.7-3.1,0.4c-4.7-1.6-12.3-4.1-12.4-9.9c-0.1-4.4,12.7-12,26.6-8.1c0.5,0.2,1.7,0.3,3,0.3s2.5-0.1,3-0.3
			c13.9-3.9,26.7,3.7,26.6,8.1c-0.1,5.8-7.7,8.3-12.4,9.9c-1,0.3-2-0.4-3.1-0.4c-7,0-12.7,5.7-12.7,12.7c0,6.2,5.4,9,10.3,12.5
			C1379.5,309.1,1373.2,318.2,1373.2,318.2z M1379.6,295.5c-6.6,0.1-8.7-6.9-8.7-6.9c6.2-8.9,12.4-4.3,14.1-3s4.3,0.9,4.3,0.9
			S1386.3,295.4,1379.6,295.5z M1434.8,618.7c-0.6,3.5-1.4,5.9-2.4,7c-2.1,4.2-5.5,7.4-10,9.6c-2.6,1.7-5.5,3.1-8.9,4.1
			c-3.3,1.1-6.8,1.6-10.5,1.6c-1.8,0.5-6.6,0.8-14.5,0.9c-7.9,0.2-16.1,0.3-24.6,0.3v-47.6L1387,584c16.8,0,28.1,1.2,34.1,3.5
			c4.9,1.9,8.6,4.7,10.8,8.4c2.6,3.8,3.9,8.2,3.9,13.2C1435.7,612,1435.4,615.2,1434.8,618.7z M1504.8,569.1
			c0.8,0.1,1.6,0.1,2.5,0.2c0.4,1,0.8,2,1.2,3C1507.3,571.2,1506.1,570.1,1504.8,569.1z M1572.1,1077.4c0,0,0-0.1,0.1-0.3
			c0.1,0,0.1,0,0.2,0C1572.3,1077.3,1572.2,1077.3,1572.1,1077.4z"/>
	</g>
	<g>
		<path class="st1" d="M474.6,554.5c-8-1.8-17.8-3.9-29.3-6.2c-1-1-7.3-1.9-18.8-2.7s-19.4-1.2-23.5-1.2c-1.7,0-3.4,1-5.2,2.9
			c-1.3,1.6-2.6,3-3.7,4.4c-1.1,1.3-2,3.7-2.6,7.2c-0.6,3.4-0.9,6.6-0.9,9.4V615l-54,19.2l-21.3-35.4c0-4.7-0.3-11-1-18.8
			s-1.5-12.3-2.5-13.4c-1.8-5.3-3.5-10.3-5-15s-2.9-7.1-4.1-7.1c-4.8,0-12.9,0.4-24.3,1.2s-17.5,1.7-18.4,2.7
			c-9.6,2.1-18.8,4.2-27.6,6.1c-8.8,1.9-13.2,3.7-13.2,5.2v206.5c0,1.7,2,3.4,6.1,5.2c4,1.8,9.2,3.9,15.5,6.2c1,1.1,4.3,2.1,10,2.8
			c5.6,0.7,9.8,1.1,12.6,1.1c3,0,7.5-0.4,13.5-1.2s9.4-1.7,10.5-2.7c6.6-2,13-4,19-6s9-3.8,9-5.5v-87.4h75.2v87.4
			c0,1.7,2,3.4,6.1,5.2c4,1.8,9.2,3.9,15.5,6.2c1,1.1,4.3,2.1,10,2.8c5.6,0.7,9.8,1.1,12.7,1.1c3,0,7.5-0.4,13.5-1.2
			s9.4-1.7,10.5-2.7c6.6-2,13-4,19-6s9-3.8,9-5.5V559.6C486.6,558,482.6,556.3,474.6,554.5z"/>
		<path class="st1" d="M633,554.4c-4.1-1.7-9.4-3.8-15.8-6.2c-1-1.1-4.4-2.1-10.1-2.8c-5.7-0.7-10-1.1-12.7-1.1
			c-3,0-7.5,0.4-13.3,1.2s-9.3,1.7-10.3,2.7c-6.6,2.1-12.9,4.2-18.9,6.1c-6,1.9-8.9,3.7-8.9,5.2v181.7c0,3.3,0.3,6.6,0.9,10
			c0.6,3.4,1.5,5.7,2.6,6.9c1.7,5.6,3.4,11.2,5.2,16.7c1.3,4.4,2.6,6.6,3.7,6.6c4.6,0,12.6-0.4,24-1.2s17.5-1.7,18.4-2.7
			c9.7-2,19-4,27.9-6s13.4-3.8,13.4-5.5V559.6C639.1,557.9,637.1,556.2,633,554.4z"/>
		<path class="st1" d="M967.3,756.6c-0.7-1.2-2.9-4.7-6.7-10.3c-3-4.4-5.6-7.9-7.6-10.6l-65.6-91.4l58.4-62.9
			c2.1-1.9,5.7-6.3,10.8-13.3s7.6-11.2,7.6-12.8c0-1.1-3.6-2.3-10.8-3.5c-16.4-2.7-24.7-4.1-24.8-4.2c-1-0.9-6-1.7-15.1-2.3
			s-18.4-0.9-28.1-0.9c-1.2,0-3,0.8-5.4,2.5c-1.2,0.8-2.7,1.9-4.4,3.4c-0.5,0.3-2.2,2.4-5.4,6.1c-2.6,3-4.6,5.2-5.9,6.6L792,645.4
			v-72.9c0-4-0.3-8.8-0.9-14.3c-0.6-5.5-1.4-8.7-2.4-9.7s-7.7-1.7-20.3-2.4c-12.6-0.6-24.5-1.1-35.6-1.3
			c-11.1-0.3-19.3-0.4-24.5-0.4c-1.2,0-2.5,1.4-3.9,4.1c-1.3,2.8-3.1,6.5-5.2,11.4c-1,1.1-1.8,5.5-2.4,13.1
			c-0.6,7.6-0.9,13.5-0.9,17.5v170.1c0,1.5,2,3.2,6,5.1c4,2,6,3.2,6,3.8c0.1,0.8,1,1.6,2.5,2.5c1.6,0.8,3.5,1.9,5.9,3.1
			c0.3,0.7,1.6,1.3,3.9,1.9c2.2,0.6,5.2,1.5,8.8,2.6c1,0.6,3.1,1,6.3,1.3s5.9,0.4,8,0.4c2.7,0,6.8-0.4,12.4-1.1
			c5.6-0.7,8.9-1.6,9.9-2.6c6.3-2.1,12.3-4.2,18-6.2s8.5-3.8,8.5-5.5V718l20.4-43.9l50.3,79.3l5.9,9.8c0.9,1.6,2.9,4.5,5.9,8.7
			s5,6.7,5.9,7.3c0.9,0.7,4.7,1.2,11.5,1.6c6.8,0.4,13.8,0.6,21.1,0.6c3,0,8.8-0.3,17.2-0.9c8.4-0.6,13-1.3,13.7-2s6-1.9,15.8-3.5
			s14.7-2.9,14.7-3.8c0-0.7-0.6-2.3-1.9-4.8C971.3,763.8,969.5,760.6,967.3,756.6z"/>
		<path class="st1" d="M1224.4,752c-1.7-3.4-3.3-6.6-4.7-9.7c-1.5-3.1-2.8-4.6-4.1-4.6h-110.5v-59.2h82.5c2.6,0,5.2-0.3,7.8-0.8
			c2.6-0.5,4.4-1.2,5.3-1.9c2.9-1.3,5.6-2.6,8.2-3.8c2.5-1.2,3.8-2.2,3.8-3.1c0-3.8-0.3-9.2-0.8-16c-0.6-6.9-1.3-10.7-2.1-11.5
			c-0.8-0.8-3.3-1.4-7.5-1.9s-8.1-0.7-11.8-0.7h-85.4v-51.1h103.8c1.6,0,3.4-2.3,5.6-7c2.1-4.7,3.3-7.1,3.4-7.2
			c0.9-0.8,1.6-3.3,2.1-7.6s0.8-7.5,0.8-9.8c0-1-1.5-2-4.4-3s-6.7-2.3-11.5-3.9c-1-0.9-5.1-1.6-12.2-2s-13.2-0.7-18.3-0.7h-150
			c-1.3,0-3,1.5-4.9,4.6s-3.2,4.8-4,5.1c-0.7,0.3-1.5,1.5-2.2,3.6s-1.6,4.9-2.6,8.5c-0.6,1.1-1,4.8-1.3,11s-0.4,11.2-0.4,14.9v169.4
			c0,1.9,1.7,3.8,5.1,5.6c3.4,1.8,8,3.9,13.6,6.2c1.1,1,5.5,1.9,13.2,2.5c7.7,0.7,13.9,1,18.6,1h135.6c4,0,7-0.9,8.9-2.7
			c5.5-1.3,10.8-2.6,15.8-3.9c5-1.2,7.5-2.3,7.5-3.2c0-2.1-0.3-5.4-0.9-9.8C1225.9,755.2,1225.2,752.7,1224.4,752z"/>
		<path class="st1" d="M1700.9,904.7c0,0-4.8-11.3-7.9-39.7c-0.4-8-1.1-15.8-1.9-23.2c0,0,0,0,0-0.1c1.9,1.2,3.8,2.7,5.7,4.3
			c0,0-1.6-25.1-19.5-73.9c3.3,0.8,6.8,1.9,10.5,3.4c0,0-14.5-21.4-26.6-47.6c-1.5-3.5-3-6.9-4.5-10.3c0,0,0-0.1-0.1-0.1l0,0
			c-0.3-0.6-0.5-1.2-0.8-1.8c1.3,0.1,2.7,0.3,4.1,0.5c0,0-14.2-21.8-23.5-41.5c-0.1-0.3-0.3-0.6-0.4-0.8c1.7,0.5,3.5,1,5.3,1.7
			c0,0-8.2-6.2-17.5-31c-0.6-1.7-1.2-3.4-1.8-5.1c-0.1-0.3-0.2-0.6-0.3-0.9c-0.6-1.7-1.1-3.3-1.6-4.9c1.7,0.4,3.5,0.8,5.3,1.3
			c0,0-5.6-6-13.6-35.9c-0.3-1.7-0.5-3.5-0.7-5.2c1.8,0.6,3.6,1.3,5.4,2c0,0-6.6-2.9-6.1-28.1c0.4-21.9,2.7-40.4,3.7-53.5
			c4.3-59.4-57.6-163-134.7-196.4c-17.1-10-27-9.7-33-7.3c-3-5-6.9-8.5-10.9-11.3c3.4-2.4,6-4.1,6-4.1c-8-6.5-14.9-10.7-20.7-13.4
			c10.5,3.3,18.5,9,18.5,9c0.1-0.2,0.3-0.3,0.4-0.4c0.1,0.1,0.2,0.1,0.2,0.1c8.9-8.9,17.1-13.7,17.1-13.7
			c-10.8-5.6-22.3-7.8-31.7-8.5c8-1,18-1.2,29.1,1.2c0,0-1-0.4-2.7-0.9c1.1,0.2,2.2,0.4,3.4,0.6c0,0-17.2-7-43.4-4.6
			c-0.1-0.1-0.1-0.2-0.2-0.3c0.9-0.5,1.9-1,2.8-1.5c20.1-9.3,50.3-8.7,50.3-8.7c-0.8-0.1-1.6-0.2-2.4-0.3c1.9,0,3,0,3,0
			c-24.8-3.4-43.8,0.1-57.3,5.1c-15.1-18.5-41.8-8.9-55.3-10.9c-19.7-2.8-32.3,3-39.8,13.1c-13.7-5.9-34.2-10.8-62.2-7.1
			c0,0,34.7-0.7,54.5,10.8c-26.7-2.7-44.3,4.5-44.3,4.5c11.9-2.6,22.5-2.2,30.8-1c-9.5,0.7-21.5,2.8-32.7,8.6c0,0,8.2,4.8,17.1,13.7
			c0,0,9.9-7.1,22.2-10.1c-6.3,2.6-14.3,7-23.7,14.7c0,0,18.6,12.8,23.6,16.6c0,0,1.5-7.1,5.9-11c1.4,19.2,12,36.5,19.4,43.6
			c7.8,7.5,14.2,12.3,14.2,12.3c-4.1,7.5,2.2,28.3,4.9,38.8c4.1,15.4,11.8,34.4,35.6,60.4c23.7,25.7,43.7,31,39.9,69.9
			c-0.8,7.9-19.1,10.7-19.9,20.5c52.7-19.1,77.9-2.9,59.3-26.9c-12.7-16.4-38.5-31.2-20.8-76.7c11.1-22.3,17.9-30.8,24.4-38.7
			c-9.2,12.8-22.1,33.4-25.5,51.9c-5.4,29.4,5.5,39.7,18.9,52.9c13.4,13.2,18.6,29.3,10.5,29.3c-32.2,0-61.1,8.6-61.1,8.6
			s0.2,0.2-3.6,0.1c-7.4-0.2-16.1-0.3-26-0.3h-91.1c-1.8,0-3.6,1.5-5.4,4.5s-3.9,7-6.2,12.1c-1.1,1.1-2,5.4-2.7,12.9s-1,13.5-1,18.1
			v172c0,1.6,2,3.3,6,5.1s9.1,3.9,15.4,6.4c0.9,1.1,4.2,2.1,10,2.8s10.2,1.1,13.1,1.1c2.8,0,7.2-0.4,13.2-1.1
			c6-0.7,9.4-1.6,10.5-2.6c6.6-2.1,13-4.2,19-6.2s9-3.8,9-5.5v-75.6l8.8-13.3c7.2,0,13.2,0.3,18,1s8.5,1.6,11,2.9
			c5.4,2.5,9.4,8.3,12.1,17.4c1.1,1.2,3.1,6.1,6.1,14.7c1.7,4.7,2.9,7.8,3.7,9.3l10,26c0.9,1.3,1.7,3.4,2.5,6.1c1.9,6,2.9,9,3,9.3
			c0.8,1.5,1.6,3,2.4,4.6s1.7,2.6,2.6,3.2c1.4,2.5,2.6,4.8,3.9,6.8c1.2,2.1,2.3,3.1,3.2,3.1c3.9,0,9.6-0.1,17.1-0.4
			c7.5-0.3,11.6-0.6,12.2-0.9c0.7-0.3,4.6-0.9,11.8-1.8c7.2-0.8,11-1.5,11.3-2.1s4.7-1.4,13-2.5s12.5-1.9,12.5-2.4
			c0-1.8-0.3-5.2-0.8-10.2s-1.2-8.3-1.9-10c-1.5-6.7-2.8-13.3-4.1-19.6c-1.3-6.3-2.4-10.2-3.3-11.6c-3.5-14.5-7.7-24.8-12.7-30.9
			c-2.4-3.3-6.4-6.5-12.1-9.8c-7.8-5.3-20.4-9.6-37.8-12.8c25.9-2.8,44.1-8.4,54.7-16.9c10.3-8.2,15.6-20.9,15.8-38.1
			c0.8,1.5,1.6,2.9,2.4,4.4l0,0c0,0,13.8,28.7,18,47.3c0,0,2.1-3.3,6.3-7.8c1.3,2,2.6,3.9,3.9,5.9c0,0,7,13.1,19.9,41
			c0,0,1.1-2.3,3.4-5.5c1.2,1.8,2.3,3.7,3.5,5.5c0,0.1,15.1,24.2,17.2,40.6c0,0,1.2-2,3.5-4.9c0.9,1.7,1.8,3.4,2.6,5.1
			c1.4,3,17.6,36.8,17.9,57c0,0,0.8-3.1,2.9-7.2c1,3,2,6.1,2.9,9.3c2.4,8.3,7.3,29.2,3.4,49.1c0,0,2.5-2.9,6.9-6.3
			c0.5,2.8,1,5.6,1.4,8.4c0.6,7.1,0.7,19.9-1.4,42c0,0,2.1-1.8,5.8-3.7c0,0.5,0.1,1.1,0.1,1.6v0.1c0.1,1.9,1.3,25.3-7.6,43.7
			c0,0,2.9-1.1,7.6-2.1c-0.4,5.5-0.9,10.8-1.6,16.1c-1.1,7.3-4.1,21.1-11.2,24.9c0,0,2.6-0.4,6.7-0.6c-0.2,0.7-0.4,1.4-0.5,2.1
			c-1.8,5-7.1,17.9-17.2,28c0,0,2.8-0.2,7-0.1c0,0-6.3,11.6-18,19.3c0,0,1.6,0.4,4.1,1.2c0,0-16.9,15-27.4,11c0,0,2.1,0.9,5.2,2.6
			c-2,0.5-4,0.9-6.1,1.1c-2.4,0.2-9.5,0.2-14.2-5.5c0,0,0.6,1.9,1.4,5c-3.3-0.6-6.8-1.5-10.3-2.8c-2.5-1.7-4.4-4.6-4.4-9.2
			c0,0-0.9,2.6-2.4,6.4c-0.6-0.3-1.3-0.6-1.9-0.9c-11.1-9.9-9.1-13.6-9.1-13.6c-1.3,2.1-2.6,4-4,5.8c-4.3-3-8.7-6.4-13.3-10.4
			c-27.2-12.1-36.5,3.3-50.5,5.1c-6.5,0.8,6.5,14.3,26.4,27.9c-3.5,0.4-5.7,0.3-5.7,0.3c11.6,7.8,39.1,18.7,39.1,18.7
			c-2.2,1.7-4.5,2.6-6.6,2c0,0,8.7,3,38.9,7.9c-1.1,1.2-2.5,2.3-4,3.1c0,0,40.6-3.5,49.9-13.1c0.3-0.1,0.6-0.3,0.9-0.4
			c0.1,1.7,0,3.5-0.4,5.4c0,0,25-17.7,27.9-23.7c0.6,1.6,1.1,3.3,1.3,5.1c0,0,6.6-11,15-24.1c1.1-1.5,2.1-3.1,3.1-4.8
			c0-0.1,0.1-0.1,0.1-0.2l0,0c0.4-0.7,0.9-1.4,1.3-2.2c1,1.7,1.8,3.6,2.4,5.6c0,0,4.9-12.4,12.1-38.2c0.9,1.2,1.7,2.5,2.4,4
			c0,0,6-34.6,6.2-42.3l0,0c0.4-2.6,0.7-5.3,1.1-8c2.2,1.8,4.4,3.8,6.4,6.2c-1.6-3.7-3.9-15.2-4-51.5
			C1696.1,900.3,1698.5,902.3,1700.9,904.7z M1338.5,295.5c-6.7-0.1-9.8-9-9.8-9s2.6,0.4,4.3-0.9c1.7-1.3,7.9-5.9,14.1,3
			C1347.2,288.7,1345.2,295.6,1338.5,295.5z M1373.1,318.2c-5.9,1.9-10.4,2.9-14,2.9l0,0c0,0,0,0-0.1,0c0,0,0,0-0.1,0l0,0
			c-3.6,0-8.1-0.9-14-2.9c0,0-6.3-9.1,2.4-15.3c4.9-3.5,10.3-6.3,10.3-12.5c0-7-5.7-12.7-12.7-12.7c-1.1,0-2.1,0.7-3.1,0.4
			c-4.7-1.6-12.3-4.1-12.4-9.9c-0.1-4.4,12.7-12,26.6-8.1c0.5,0.2,1.7,0.3,3,0.3s2.5-0.1,3-0.3c13.9-3.9,26.7,3.7,26.6,8.1
			c-0.1,5.8-7.7,8.3-12.4,9.9c-1,0.3-2-0.4-3.1-0.4c-7,0-12.7,5.7-12.7,12.7c0,6.2,5.4,9,10.3,12.5
			C1379.5,309.1,1373.1,318.2,1373.1,318.2z M1379.6,295.5c-6.6,0.1-8.7-6.9-8.7-6.9c6.2-8.9,12.4-4.3,14.1-3s4.3,0.9,4.3,0.9
			S1386.2,295.4,1379.6,295.5z M1434.7,618.7c-0.6,3.5-1.4,5.9-2.4,7c-2.1,4.2-5.5,7.4-10,9.6c-2.6,1.7-5.5,3.1-8.9,4.1
			c-3.3,1.1-6.8,1.6-10.5,1.6c-1.8,0.5-6.6,0.8-14.5,0.9c-7.9,0.2-16.1,0.3-24.6,0.3v-47.6l23.1-10.6c16.8,0,28.1,1.2,34.1,3.5
			c4.9,1.9,8.6,4.7,10.8,8.4c2.6,3.8,3.9,8.2,3.9,13.2C1435.6,612,1435.3,615.2,1434.7,618.7z M1504.8,569.1
			c0.8,0.1,1.6,0.1,2.5,0.2c0.4,1,0.8,2,1.2,3C1507.2,571.2,1506,570.1,1504.8,569.1z M1572,1077.4c0,0,0-0.1,0.1-0.3
			c0.1,0,0.1,0,0.2,0C1572.2,1077.3,1572.1,1077.3,1572,1077.4z"/>
	</g>
	<g>
		<path class="st2" d="M1370.8,302.9c-4.9-3.5-10.3-6.3-10.3-12.5c0-7,5.7-12.7,12.7-12.7c1.1,0,2.1,0.7,3.1,0.4
			c4.7-1.6,12.3-4.1,12.4-9.9c0.1-4.4-12.7-12-26.6-8.1c-0.5,0.2-1.7,0.3-3,0.3s-2.5-0.1-3-0.3c-13.9-3.9-26.7,3.7-26.6,8.1
			c0.1,5.8,7.7,8.3,12.4,9.9c1,0.3,2-0.4,3.1-0.4c7,0,12.7,5.7,12.7,12.7c0,6.2-5.4,9-10.3,12.5c-8.8,6.2-2.4,15.3-2.4,15.3
			c5.9,1.9,10.4,2.9,14,2.9l0,0c0,0,0,0,0.1,0c0,0,0,0,0.1,0l0,0c3.6,0,8.1-0.9,14-2.9C1373.2,318.2,1379.5,309.1,1370.8,302.9z"/>
		<path class="st2" d="M1347.2,288.7c-6.2-8.9-12.4-4.3-14.1-3s-4.3,0.9-4.3,0.9s3.1,8.9,9.8,9
			C1345.2,295.6,1347.2,288.7,1347.2,288.7z"/>
		<path class="st2" d="M1385.1,285.7c-1.7-1.3-7.9-5.9-14.1,3c0,0,2,7,8.7,6.9c6.6-0.1,9.8-9,9.8-9S1386.8,287,1385.1,285.7z"/>
		<path class="st2" d="M1390.6,678.2c-4.8-0.7-10.9-1-18-1l-0.5,0.8c10.8,1.4,21.4,2.8,31.7,4.2c-0.7-0.5-1.4-0.9-2.1-1.2
			C1399.1,679.8,1395.5,678.9,1390.6,678.2z"/>
		<path class="st2" d="M1507.3,569.3c-0.8-0.1-1.7-0.1-2.5-0.2c1.2,1,2.5,2.1,3.6,3.2C1508.1,571.3,1507.7,570.3,1507.3,569.3z"/>
		<path class="st3" d="M1572.1,1077.4c0.1-0.1,0.2-0.2,0.3-0.3c-0.1,0-0.1,0-0.2,0C1572.2,1077.3,1572.1,1077.4,1572.1,1077.4z"/>
	</g>
</g>
</svg>
