<?xml version="1.0" encoding="utf-8"?>
<!-- Generator: Adobe Illustrator 22.0.1, SVG Export Plug-In . SVG Version: 6.00 Build 0)  -->
<svg version="1.1" xmlns="http://www.w3.org/2000/svg" xmlns:xlink="http://www.w3.org/1999/xlink" x="0px" y="0px"
	 viewBox="0 0 1920 1312" style="enable-background:new 0 0 1920 1312;" xml:space="preserve">
<style type="text/css">
	.st0{display:none;}
	.st1{display:inline;fill:#A3A3A3;}
	.st2{fill:#FFFFFF;}
	.st3{display:inline;}
	.st4{clip-path:url(#SVGID_6_);fill:#FFFFFF;}
	.st5{display:inline;fill:#FFFFFF;}
	.st6{display:inline;opacity:0.5;}
	.st7{display:inline;opacity:0.5;fill:#FFFFFF;}
</style>
<g id="Guias" class="st0">
	<rect class="st1" width="1920" height="1312"/>
</g>
<g id="Lolitas">
	<g>
		<path class="st2" d="M640.3,908.3h-4.1v13.8c1.4,0.5,2.9,0.7,4.5,0.7c2.2,0,3.9-0.7,5.1-2.1c1.2-1.4,1.8-3.2,1.8-5.4
			c0-2.1-0.6-3.8-1.9-5.1C644.4,908.9,642.6,908.3,640.3,908.3z"/>
		<path class="st2" d="M1304.5,910.1c-1.3-1.2-3.1-1.9-5.4-1.9h-4.2v13.7h4.3c2.3,0,4.1-0.6,5.4-1.9c1.3-1.3,1.9-3,1.9-5.1
			C1306.5,913,1305.8,911.4,1304.5,910.1z"/>
		<polygon class="st2" points="694.6,928.5 706.2,928.5 700.3,913.4 		"/>
		<path class="st2" d="M1236,907.9c-3.2,0-5.8,1.2-7.9,3.7c-2,2.5-3,5.9-3,10.1c0,4.9,1.1,8.9,3.3,11.9c2.2,3,5.2,4.4,9.1,4.4
			c3.2,0,5.9-1.3,7.9-3.8c2-2.6,3-5.9,3-10.1c0-4.8-1.1-8.7-3.4-11.7C1242.8,909.4,1239.8,907.9,1236,907.9z"/>
		<path class="st2" d="M454.4,910.1c-1.3-1.2-3.1-1.9-5.4-1.9h-4.2v13.7h4.3c2.3,0,4.1-0.6,5.4-1.9c1.3-1.3,1.9-3,1.9-5.1
			C456.4,913,455.7,911.4,454.4,910.1z"/>
		<polygon class="st2" points="938.8,928.5 950.4,928.5 944.5,913.4 		"/>
		<path class="st2" d="M1547.6,878.1H374.4c-25.4,0-45.9,20.6-45.9,45.9v0c0,25.4,20.6,45.9,45.9,45.9h1173.2
			c25.4,0,45.9-20.6,45.9-45.9v0C1593.5,898.7,1572.9,878.1,1547.6,878.1z M1234.8,891h10.1l-13,9.8L1234.8,891z M456.6,943.5
			l-6.8-12.6c-0.7-1.4-1.4-2.3-2-2.8c-0.6-0.5-1.3-0.7-2.1-0.7h-0.9v9.3c0,1.6,0.2,2.8,0.5,3.8c0.3,1,0.7,1.7,1.2,2.2
			c0.5,0.5,0.9,0.7,1.4,0.8h-14.8c0.5-0.1,1.1-0.4,1.6-0.8c0.5-0.5,0.9-1.2,1.2-2.2c0.3-1,0.5-2.3,0.5-3.8v-26.9
			c0-3.9-1.2-6.3-3.7-7.1h17.9c4.4,0,7.9,1.1,10.5,3.4c2.6,2.3,4,5.1,4,8.5c0,2.9-0.9,5.3-2.7,7.5c-1.8,2.1-4.2,3.4-7.3,3.8
			c1.1,0.7,2.1,1.8,3.1,3.6l5.5,9.4c0.8,1.4,1.7,2.5,2.7,3.3c1,0.8,1.9,1.2,2.7,1.3H456.6z M528.8,938.1c-4,4.2-9,6.3-15.3,6.3
			c-5.9,0-10.7-1.9-14.4-5.8c-3.7-3.9-5.5-8.8-5.5-14.9c0-4,0.9-7.8,2.7-11.1c1.8-3.4,4.4-6,7.7-7.9c3.3-1.9,7-2.9,11-2.9
			c5.9,0,10.6,1.9,14.3,5.8c3.7,3.9,5.5,8.8,5.5,14.9C534.7,928.7,532.7,933.9,528.8,938.1z M597,904.8c-0.6,1.2-0.9,2.8-0.9,4.8
			v19.2c0,10.4-5.3,15.6-16,15.6c-5.9,0-10.1-1.2-12.8-3.7c-2.7-2.5-4-6.2-4-11.2v-19.9c0-4-1.1-6.2-3.2-6.9h15.1
			c-0.5,0.1-1,0.4-1.4,0.8c-0.5,0.5-0.9,1.2-1.2,2.1c-0.3,1-0.5,2.2-0.5,3.7v19.7c0,3.4,0.7,5.8,2.1,7.2c1.4,1.4,3.5,2.1,6.4,2.1
			c3,0,5.1-0.8,6.3-2.3c1.2-1.6,1.8-3.9,1.8-7v-19.5c0-4-1.2-6.4-3.6-6.9h14.4C598.4,902.8,597.6,903.5,597,904.8z M652.4,924.8
			c-2.7,2.5-6.3,3.7-10.8,3.7c-2,0-3.8-0.2-5.5-0.7v8.9c0,1.6,0.2,2.8,0.6,3.8c0.4,1,0.8,1.7,1.3,2.2c0.5,0.5,1.1,0.7,1.7,0.8h-15
			c1-0.1,1.8-0.8,2.3-2c0.6-1.2,0.9-2.8,0.9-4.8v-27c0-1.9-0.3-3.5-0.9-4.7c-0.6-1.2-1.5-2-2.7-2.3h18.8c4,0,7.2,1.2,9.7,3.5
			c2.5,2.3,3.7,5.3,3.7,8.9C656.5,919.1,655.1,922.3,652.4,924.8z M708.2,943.5c0.7-0.1,1.2-0.4,1.6-0.9c0.4-0.5,0.6-1.2,0.6-2
			c0-0.6-0.7-2.9-2.2-6.8h-15.6c-1.3,3.5-1.9,5.6-1.9,6.5c0,1,0.3,1.7,0.8,2.3c0.5,0.5,1.1,0.8,1.7,0.9h-13.7
			c0.8-0.1,1.7-0.9,2.8-2.2c1-1.3,2-3.2,3-5.6l12.9-33h7.2l13.5,33.1c1.7,4.4,3.7,7,5.8,7.7H708.2z M772.4,941
			c-2.8,2.2-6.5,3.4-11.4,3.4c-4.7,0-8.7-1-12.1-3.1v-11.6c2.6,5.7,6.7,8.6,12.3,8.6c1.9,0,3.5-0.4,4.8-1.2c1.3-0.8,2-2,2-3.4
			c0-1.3-0.5-2.5-1.6-3.6s-2.8-2.2-5.3-3.4c-4.9-2.2-8.1-4.2-9.7-6.1c-1.6-1.9-2.4-4.1-2.4-6.6c0-3.7,1.3-6.6,4-8.9
			c2.7-2.2,6.2-3.3,10.6-3.3c2,0,3.8,0.3,5.7,0.8c1.8,0.5,3.3,1.2,4.4,2v9.7c-1.1-1.9-2.6-3.4-4.5-4.7c-2-1.2-4-1.9-6.1-1.9
			c-2,0-3.6,0.4-4.6,1.3c-1,0.9-1.5,1.9-1.5,3.2c0,1.1,0.5,2.2,1.4,3.2c0.9,1,3.1,2.2,6.5,3.8c4.5,2,7.5,4,9.1,6
			c1.6,2,2.4,4.3,2.4,7C776.5,935.8,775.1,938.8,772.4,941z M864.7,943.5h-28c0.5-0.1,1-0.4,1.5-0.9c0.5-0.5,0.9-1.3,1.3-2.3
			c0.3-1,0.5-2.4,0.5-4.1v-26.6c0-1.8-0.3-3.3-1-4.6c-0.7-1.2-1.6-2-2.8-2.3H864v10.9c-0.6-2-1.5-3.3-2.7-4.1
			c-1.2-0.8-2.8-1.2-4.8-1.2h-7.7v11.8h6.7c2.6,0,4.2-0.7,4.9-2.1v9.7c-0.1-0.5-0.5-1-1.3-1.4c-0.8-0.4-2-0.6-3.5-0.6h-6.9v12.2h8.3
			c2.6,0,4.5-0.4,5.9-1.3c1.3-0.8,2.6-2.3,3.7-4.5L864.7,943.5z M952.4,943.5c0.7-0.1,1.2-0.4,1.6-0.9c0.4-0.5,0.6-1.2,0.6-2
			c0-0.6-0.7-2.9-2.2-6.8h-15.6c-1.3,3.5-1.9,5.6-1.9,6.5c0,1,0.3,1.7,0.8,2.3c0.5,0.5,1.1,0.8,1.7,0.9h-13.7
			c0.8-0.1,1.7-0.9,2.8-2.2c1-1.3,2-3.2,3-5.6l12.9-33h7.2l13.5,33.1c1.7,4.4,3.7,7,5.8,7.7H952.4z M1026.8,938.7
			c-1.4,1.7-3.3,3-5.7,4.1c-2.4,1.1-4.9,1.6-7.6,1.6c-6.3,0-11.3-1.9-15-5.7c-3.7-3.8-5.6-8.7-5.6-14.7c0-4.1,0.9-7.8,2.8-11.2
			c1.8-3.4,4.4-6.1,7.8-8s7.3-2.9,11.7-2.9c4.4,0,8,0.8,11,2.4v11.8c-0.9-2.4-2.4-4.3-4.3-5.8c-2-1.5-4.4-2.2-7.3-2.2
			c-3.6,0-6.6,1.4-8.9,4.2c-2.3,2.8-3.5,6.4-3.5,10.7c0,4.4,1.2,8,3.5,10.9c2.3,2.9,5.3,4.3,9.1,4.3c2.2,0,4.4-0.6,6.6-1.7
			c2.2-1.1,4.1-2.7,5.6-4.6V938.7z M1080.8,943.5h-28c0.5-0.1,1-0.4,1.5-0.9c0.5-0.5,0.9-1.3,1.3-2.3c0.3-1,0.5-2.4,0.5-4.1v-26.6
			c0-1.8-0.3-3.3-1-4.6s-1.6-2-2.8-2.3h27.8v10.9c-0.6-2-1.5-3.3-2.7-4.1c-1.2-0.8-2.8-1.2-4.8-1.2h-7.7v11.8h6.7
			c2.6,0,4.2-0.7,4.9-2.1v9.7c-0.1-0.5-0.5-1-1.3-1.4c-0.8-0.4-2-0.6-3.5-0.6h-6.9v12.2h8.3c2.6,0,4.5-0.4,5.9-1.3
			c1.3-0.8,2.6-2.3,3.7-4.5L1080.8,943.5z M1131.5,941c-2.8,2.2-6.5,3.4-11.4,3.4c-4.7,0-8.7-1-12.1-3.1v-11.6
			c2.6,5.7,6.7,8.6,12.3,8.6c1.9,0,3.5-0.4,4.8-1.2c1.3-0.8,2-2,2-3.4c0-1.3-0.5-2.5-1.6-3.6s-2.8-2.2-5.3-3.4
			c-4.9-2.2-8.1-4.2-9.7-6.1c-1.6-1.9-2.4-4.1-2.4-6.6c0-3.7,1.3-6.6,4-8.9c2.7-2.2,6.2-3.3,10.6-3.3c2,0,3.8,0.3,5.7,0.8
			c1.8,0.5,3.3,1.2,4.4,2v9.7c-1.1-1.9-2.6-3.4-4.5-4.7c-2-1.2-4-1.9-6.1-1.9c-2,0-3.6,0.4-4.6,1.3c-1,0.9-1.5,1.9-1.5,3.2
			c0,1.1,0.5,2.2,1.4,3.2c0.9,1,3.1,2.2,6.5,3.8c4.5,2,7.5,4,9.1,6c1.6,2,2.4,4.3,2.4,7C1135.7,935.8,1134.3,938.8,1131.5,941z
			 M1185.7,941c-2.8,2.2-6.5,3.4-11.4,3.4c-4.7,0-8.7-1-12.1-3.1v-11.6c2.6,5.7,6.7,8.6,12.3,8.6c1.9,0,3.5-0.4,4.8-1.2
			c1.3-0.8,2-2,2-3.4c0-1.3-0.5-2.5-1.6-3.6c-1.1-1.1-2.8-2.2-5.3-3.4c-4.9-2.2-8.1-4.2-9.7-6.1c-1.6-1.9-2.4-4.1-2.4-6.6
			c0-3.7,1.3-6.6,4-8.9c2.7-2.2,6.2-3.3,10.6-3.3c2,0,3.8,0.3,5.7,0.8c1.8,0.5,3.3,1.2,4.4,2v9.7c-1.1-1.9-2.6-3.4-4.5-4.7
			c-2-1.2-4-1.9-6.1-1.9c-2,0-3.6,0.4-4.6,1.3c-1,0.9-1.5,1.9-1.5,3.2c0,1.1,0.5,2.2,1.4,3.2c0.9,1,3.1,2.2,6.5,3.8
			c4.5,2,7.5,4,9.1,6c1.6,2,2.4,4.3,2.4,7C1189.9,935.8,1188.5,938.8,1185.7,941z M1251.4,938.1c-4,4.2-9,6.3-15.3,6.3
			c-5.9,0-10.7-1.9-14.4-5.8c-3.7-3.9-5.5-8.8-5.5-14.9c0-4,0.9-7.8,2.7-11.1c1.8-3.4,4.4-6,7.7-7.9c3.3-1.9,7-2.9,11-2.9
			c5.9,0,10.6,1.9,14.3,5.8c3.7,3.9,5.5,8.8,5.5,14.9C1257.3,928.7,1255.3,933.9,1251.4,938.1z M1306.6,943.5l-6.8-12.6
			c-0.7-1.4-1.4-2.3-2-2.8c-0.6-0.5-1.3-0.7-2.1-0.7h-0.9v9.3c0,1.6,0.2,2.8,0.5,3.8c0.3,1,0.7,1.7,1.2,2.2c0.5,0.5,0.9,0.7,1.4,0.8
			h-14.8c0.5-0.1,1.1-0.4,1.6-0.8c0.5-0.5,0.9-1.2,1.2-2.2c0.3-1,0.5-2.3,0.5-3.8v-26.9c0-3.9-1.2-6.3-3.7-7.1h17.9
			c4.4,0,7.9,1.1,10.5,3.4c2.6,2.3,4,5.1,4,8.5c0,2.9-0.9,5.3-2.7,7.5c-1.8,2.1-4.2,3.4-7.3,3.8c1.1,0.7,2.1,1.8,3.1,3.6l5.5,9.4
			c0.8,1.4,1.7,2.5,2.7,3.3c1,0.8,1.9,1.2,2.7,1.3H1306.6z M1356,941.6c0.6,1.1,1.3,1.8,2.3,1.9h-15c0.9-0.1,1.7-0.7,2.3-1.8
			c0.6-1.1,0.9-2.6,0.9-4.5v-27.9c0-3.7-1.1-5.9-3.2-6.6h15.1c-0.5,0.1-1,0.4-1.5,0.9c-0.5,0.5-0.9,1.2-1.2,2.1
			c-0.3,1-0.5,2.2-0.5,3.6v27.9C1355.1,939,1355.4,940.4,1356,941.6z M1419.2,938.1c-4,4.2-9,6.3-15.3,6.3c-5.9,0-10.7-1.9-14.4-5.8
			c-3.7-3.9-5.5-8.8-5.5-14.9c0-4,0.9-7.8,2.7-11.1c1.8-3.4,4.4-6,7.7-7.9c3.3-1.9,7-2.9,11-2.9c5.9,0,10.6,1.9,14.3,5.8
			c3.7,3.9,5.5,8.8,5.5,14.9C1425.1,928.7,1423.1,933.9,1419.2,938.1z M1475,941c-2.8,2.2-6.5,3.4-11.4,3.4c-4.7,0-8.7-1-12.1-3.1
			v-11.6c2.6,5.7,6.7,8.6,12.3,8.6c1.9,0,3.5-0.4,4.8-1.2c1.3-0.8,2-2,2-3.4c0-1.3-0.5-2.5-1.6-3.6c-1.1-1.1-2.8-2.2-5.3-3.4
			c-4.9-2.2-8.1-4.2-9.7-6.1c-1.6-1.9-2.4-4.1-2.4-6.6c0-3.7,1.3-6.6,4-8.9c2.7-2.2,6.2-3.3,10.6-3.3c2,0,3.8,0.3,5.7,0.8
			s3.3,1.2,4.4,2v9.7c-1.1-1.9-2.6-3.4-4.5-4.7c-2-1.2-4-1.9-6.1-1.9c-2,0-3.6,0.4-4.6,1.3c-1,0.9-1.5,1.9-1.5,3.2
			c0,1.1,0.5,2.2,1.4,3.2c0.9,1,3.1,2.2,6.5,3.8c4.5,2,7.5,4,9.1,6c1.6,2,2.4,4.3,2.4,7C1479.1,935.8,1477.7,938.8,1475,941z"/>
		<path class="st2" d="M513.4,907.9c-3.2,0-5.9,1.2-7.9,3.7c-2,2.5-3,5.9-3,10.1c0,4.9,1.1,8.9,3.3,11.9c2.2,3,5.2,4.4,9.1,4.4
			c3.2,0,5.9-1.3,7.9-3.8c2-2.6,3-5.9,3-10.1c0-4.8-1.1-8.7-3.4-11.7C520.2,909.4,517.2,907.9,513.4,907.9z"/>
		<path class="st2" d="M1403.8,907.9c-3.2,0-5.8,1.2-7.9,3.7c-2,2.5-3,5.9-3,10.1c0,4.9,1.1,8.9,3.3,11.9c2.2,3,5.2,4.4,9.1,4.4
			c3.2,0,5.9-1.3,7.9-3.8c2-2.6,3-5.9,3-10.1c0-4.8-1.1-8.7-3.4-11.7C1410.6,909.4,1407.6,907.9,1403.8,907.9z"/>
	</g>
	<path class="st2" d="M967.3,676.4c9,0.4,16.2-5.9,16.6-15.1c0.4-9-6.1-16.2-15.1-16.6c-9.2-0.4-16.2,6.1-16.6,15.1
		C951.8,669,958.1,676,967.3,676.4z"/>
	<path class="st2" d="M310.3,681.6l195.8-105.8v20.5l-119,64.4c-34.9,18.9-146.5,76.7,18.2,76.7h73.2c0,0,9.8,16.1,0,16.1H328.5
		C288.8,753.5,275.4,700.5,310.3,681.6z"/>
	<path class="st2" d="M797.5,731.3c-4.6,2.3-2.9,4.3-2.9,4.3c0,24.4-5.1,81.8-61.4,83.9c-48.8,1.9-49.7-23.6-100.1-33
		c0.4-0.8,4.6-5.1,10.6-26.2c5-17.5,7.6-27.5,10.6-53.6l0.5-6.1c33.4-20.5,62.5-72.2,64.4-114.8c0.7-14.7-1.5-29.7-6.4-42
		c-6-14.5-16.2-25.4-28-25.9c-8.3-0.4-18.3,5.1-27.5,16.1c-18.7,25.5-34.7,85.6-33.8,141.3c1.1,69.9-19.8,104.3-21,106.8
		c-0.3,0-7.1,0.1-13.3,0.5c-7.6,0.5-16.7,2.1-23.5,4.8c-11.1,4.5-17.1,10.3-17.5,18.2c-0.4,9.2,7.7,17.7,23.6,18.4
		c2.8,0.1,5.9,0,9-0.3c17.4-2.1,36-10.5,44.7-23.1c43.7,7.9,62.2,36.7,100,36.7c73,0,79.7-79,79.7-99.6c0-1.1-0.1-2.1-0.1-3.1
		C804.6,730.8,801.5,729.3,797.5,731.3z M657.5,670.9c3.4-38.3,13.8-102.9,23.2-127.1c3.7-9.1,7-12.3,9.8-12.1
		c4.3,0.2,9.1,7.5,12.6,16c4.4,11.8,6.4,25.2,5.8,38.4c-1.7,36.7-25.4,81.2-52.9,101.1C656.8,681.3,656.7,678.7,657.5,670.9z
		 M565.7,811.5c-4.7-0.2-7-1.7-6.9-3.9c0.4-9.7,26.8-11.3,34.4-11.2l0.9,0C587.8,804.3,576.5,812,565.7,811.5z"/>
	<path class="st2" d="M656.1,687.2c0,0-67.8,50.3-177.5,50.3v16.1c0,0,115.5,0.5,176.4-52.9C688,668.6,656.1,687.2,656.1,687.2"/>
	<g>
		<path class="st2" d="M904.5,204.8c0-74.5,110.6-76.9,110.6-13.9c2.8,19.3,31.7,17.7,36.1,0.9c-5.1-50.4-45.9-77.4-90.2-78.6
			c-45.7-0.6-100.6,36-97.3,93.8c1.3,29.8,9.2,47.9,27.8,75.5c40.6,61-4.6,87.2-7.9,89l-0.2,0.1c0,0,0,0,0,0h0L864.1,382L899,382
			l25-27.7h78.6l41.9,27.8l13.9,0.1C952.1,314.2,904.5,267,904.5,204.8z"/>
	</g>
	<g>
		<path class="st2" d="M828.5,730.1c0-1.2,0.1-2.4,0.1-3.6c-0.1,1.7-0.1,3.3-0.2,4.9C828.4,730.9,828.4,730.5,828.5,730.1z"/>
		<path class="st2" d="M1611.8,682.1l-259.1-140.3L1006.1,354v0c-0.9-0.6-1.8-1.1-2.7-1.7h-84.6L569,541.8l-158.7,86
			c1.7,1.2,3.2,2.9,4.2,4.9c4.7,1.2,90.5-41.1,91.6-36.2c-0.3,1,101.3-54.6,101.3-54.6l335.2-181.6c11.4-6.2,25.1-6.2,36.4,0
			l335.2,181.6l220.7,119.5c34.9,18.9,146.5,76.7-18.2,76.7h-73.2c0,0-65,0-123.9,20.2c-6.7-9.6-11.7-19-9.7-27.4
			c3.2-12.9,20.9-6.4,21.8,5c0.9,6.2,10.2,5.7,11.6,0.3c-1.6-16.2-14.8-24.9-29-25.3c-14.7-0.2-32.3,11.6-31.2,30.1
			c0,0.2,0,0.4,0,0.6c-16.8,32.4-35.2,49.5-48.5,48.9c-18.5-0.8-8.3-51.8-5.9-62.2c5.8-24.2-22.8-30.2-31.7-7.1
			c-4.3,11.2-15.1,70.2-26.8,68.7c-27.8-3.5,1.4-61.1,14.4-60.5c2.6,0.1,4.3,0.2,5.8-1.6c4.2-4.8-4.6-14.2-15.2-14.7
			c-19-0.9-36,16.5-41.2,35.3c-11.9,22.2-30.8,53.4-48.2,53.4c-23.9-0.1-22.8-57.2-22.1-72.1c1.5-33.8,8.2-71.2,12.8-92.8
			c12.9,3,36.4,7.1,53.9,7.9c23.2,1.1,45.2-2.5,54.1-17c2.1-5.6-5.4-11.4-9.3-4.5c-5.4,9.5-19.5,11.7-35.6,10.9
			c-20.6-0.9-45.2-7.3-59.5-11.2c2.2-7,2.8-9.6,5-15.7c0.6-12.5-27.4-19-31.8-5.2c-2.5,7.9-2.6,10.1-3.2,12.2
			c-11.7-2.9-29.6-5.9-48.3-6.7c-23-1-45.6,1.7-54.2,14.1c-3.6,5.5,4,11.6,8.5,6.5c7-7.5,19.5-11,34.6-10.3
			c18.9,0.9,42.1,6.9,56,10.6c-5,20.4-12.1,57.5-13.7,91.9c-0.1,3-0.2,6.4-0.2,10.1c-7.6,15.3-33.9,51-54,50
			c-7.1-0.3-8.5-10.8-8-23.1c0.7-15.4,6.6-34.8,6.9-41.2c0.3-6.2-6.8-11.7-14.9-12.1c-12.8-0.6-18.1,6.9-20.3,24.9
			c-10.1,19.3-40.4,60.9-62.3,61c-22.5,0.2-21.4-38.2-19.4-63c37.1-28,93.8-109.8,96.1-159c2.7-59.6-53.4-61.2-82.1-25.8
			c-18,22.4-33.1,76.4-40.8,127.5c0,0,0,0.1,0,0.1c-3.4,23.8-4.8,43-5.4,56.7c0,1.2-0.1,2.4-0.1,3.6c0,0.4,0,0.8-0.1,1.2
			c-0.4,11.8-0.1,18.2-0.1,18.2c1.6,33.4,9.8,56.4,38.1,57.7c28.6,1.3,57.2-28.4,74.9-54.9c0.4,21.4,6.4,42.5,26.5,43.4
			c25.7,1.2,50.8-21.8,66-45c3,34,15,73.7,52.8,66.7c16.6-3.2,31.3-18.8,44.8-41c-0.4,18.3,3.1,37.6,30.8,38.4
			c27.7,0.8,30.5-31.5,37.4-42.8c-1.1,23.4-4.2,34.2,23.1,35.5c18.7,0.9,43.7-14.1,64.6-50.6c1.7,3.5,4.1,7.1,7.2,11.6
			c-4.2,1.6-18.9,12.1-22.1,15.7c-6,6.7-14.2,15.9-16.2,27.3c-3.6,20.7,16.2,28.5,45.4,24.9c17.6-2.1,34.4-15.7,35.3-37.3
			c0.3-6.6-1-14.3-4.4-22.3l-5.7-9.3c-0.3-0.4-0.7-0.9-1-1.3c21.6-5.9,58.5-12.3,118-12.3h150.1C1633.3,754,1646.7,701,1611.8,682.1
			z M898,558.2c17.6-28.1,51.2-36.1,49.1,9.3c-2,43.3-50.3,117.7-85.3,145.5C866.5,667.3,874.7,595.1,898,558.2z M1290.2,826.9
			c-10.1,0-23.9-5.6-20-19.4c4.1-14.5,18-27.5,29.1-31c4,6.6,12,22.4,11.6,31.2C1310.5,815.3,1302.7,826.9,1290.2,826.9z"/>
		<path class="st2" d="M834,669.8C834,669.7,834,669.7,834,669.8c-3,20-4.9,39.6-5.4,56.7C829.2,712.8,830.6,693.6,834,669.8z"/>
		<path class="st2" d="M797,711.8c0,0-4.5-9.8-15.5-13.8c-11.1-3.9-31.8-2.8-39.2,0c-4.6,1.8-13.7,10-21,20.8
			c-20.1,29.9-6.8,63.4,22.1,75.3c18.4,7.5,43.5-3.2,51.2-21.8c1.3-3.3,2.5-6.7,2.5-10C809.1,744.7,807,724.5,797,711.8z
			 M790.9,751.8c-1.3,12.9-4.7,21.4-12.4,27.3c-7.7,5.9-20.1,6.7-28,3.5c-23.2-9.5-17.9-52.2,10.3-70
			C771.9,705.4,794.9,713,790.9,751.8z"/>
	</g>
	<path class="st2" d="M861.9,713.1c0,0-56.5,47.4-97.3,47.4c-28.7,0-18.5-34-18.5-34l-23.2,27.1c0,0,10,20.7,42.9,20.7
		c32.9,0,90.2-43.4,95-47.2C865.5,723.2,861.9,713.1,861.9,713.1z"/>
	<path class="st2" d="M418.3,724.4l-9,52.8c-0.6,3.8,2.3,7.2,6.1,7.2h9h9c3.8,0,6.7-3.4,6.1-7.2l-9-52.8
		C429.4,717.5,419.5,717.5,418.3,724.4z"/>
	
		<rect x="370.6" y="824.3" transform="matrix(-1.836970e-16 1 -1 -1.836970e-16 1252.5226 403.6481)" class="st2" width="107.7" height="7.7"/>
	<path class="st2" d="M1503.7,724.4l9,52.8c0.6,3.8-2.3,7.2-6.1,7.2h-9h-9c-3.8,0-6.7-3.4-6.1-7.2l9-52.8
		C1492.7,717.5,1502.6,717.5,1503.7,724.4z"/>
	
		<rect x="1443.8" y="824.3" transform="matrix(-1.836970e-16 1 -1 -1.836970e-16 2325.7236 -669.553)" class="st2" width="107.7" height="7.7"/>
</g>
<g id="HotMidias" class="st0">
	<g class="st3">
		<g>
			<path class="st2" d="M1133.2,570.4v177.1c0,8.7-3.1,11.6-12.1,11.6h-30.2c-9,0-11.9-2.9-11.9-11.6v-40.3
				c0-18.6-1.4-36.4,9.3-73.9l0,0c-2.8,9.3-13,35-18.9,46.5l-16,31.9c-3.1,5.7-5.9,8.2-13.6,8.2h-13c-7.6,0-10.4-1.9-13.5-8.2
				l-18.9-31.9c-6-10.7-13.6-36.6-16.4-46.5l0,0c10.2,40.6,8.8,54.7,8.8,74.1v40.1c0,8.7-3.1,11.6-12.2,11.6h-29.9
				c-9,0-12.1-2.9-12.1-11.6V570.4c0-9.1,3.1-11.9,12.1-11.9h27.7c9.9,0,12.7,1.7,16.7,8.7l43.8,91.6l44.7-91.4c4-7.6,6.4-9,15.8-9
				h27.6C1130.1,558.4,1133.2,561.3,1133.2,570.4z"/>
			<path class="st2" d="M1220.7,499.2l14.4,16.3c4.8,5.6,5.1,8.8-1.7,11.3l-51,15.8c-6.8,2-10.1,2.6-13-1.4l-7.8-9.3
				c-4.3-5.4-4.3-7.9,0.8-10.8l39.8-22.8C1208.6,494.7,1215.1,492.9,1220.7,499.2z"/>
			<path class="st2" d="M1158.3,558.7h31c8.4,0,11.3,2.8,11.3,11.3v177.6c0,8.4-2.9,11.3-11.3,11.3h-31c-8.4,0-11.2-2.9-11.2-11.3
				V570.1C1147,561.5,1149.8,558.7,1158.3,558.7z"/>
			<path class="st2" d="M1399.4,558.7h31c8.4,0,11.3,2.8,11.3,11.3v177.6c0,8.4-2.9,11.3-11.3,11.3h-31c-8.5,0-11.3-2.9-11.3-11.3
				V570.1C1388.2,561.5,1390.9,558.7,1399.4,558.7z"/>
			<path class="st2" d="M1374.3,637.7V680c0,48.5-31,79-86.5,79h-62.1c-9.1,0-12.2-3.2-12.2-11.9V570.6c0-8.7,3.1-11.8,12.2-11.8
				h62.1C1343.3,558.7,1374.3,588.9,1374.3,637.7z M1285.8,608.1h-16.4v101.5h16.4c22.9,0,34.9-10.4,34.9-30.5v-40.6
				C1320.7,618.5,1308.7,608.1,1285.8,608.1z"/>
			<path class="st2" d="M1629.9,759h-29.6c-14.7,0-18.9-3.2-21.2-11.9l-6.5-20.3h-53.9l-6.5,20.3c-2.8,8.7-6.5,11.9-20.6,11.9h-31.2
				c-8.8,0-10.4-4-7.6-11.6l64.8-178.8c2.9-8.2,6.5-9.9,14.7-9.9h25.8c8.2,0,11.8,2,14.6,9.3l65.2,179.4
				C1640.9,755,1638.3,759,1629.9,759z M1545.9,610L1545.9,610c0,0,0.3,20.3-5.3,39.2l-8.6,33.3h26.8l-8-33
				C1545.1,630.4,1545.9,610,1545.9,610z"/>
			<path class="st2" d="M1721.9,554.5c41.7,0,65.4,12.4,78.6,39.5c3.9,8.2,1.7,12.4-6.8,15.8l-28.2,12.2c-7.6,3.4-10.7,2.3-15.2-6
				c-5.4-10.7-15.5-14.6-28.4-14.6c-19.2,0-26.8,4.8-26.8,14.6c0,12.1,16.7,14.7,37,17.2c32.7,4.5,75,12.4,75,65.7
				c0,41.4-37.5,64.3-87.4,64.3c-42,0-71.3-14.4-82-43.7c-3.1-8.4-0.6-12.4,7.6-15.5l26.5-9.5c8.5-2.8,12.4-2,16.7,6.2
				c5,9.9,16.1,14.9,31.8,14.9c18.9,0,30.2-4,30.2-16c0-11-14.4-14.1-33-16.7c-33-4.5-79.2-10.5-79.2-65.2
				C1638.1,580.5,1668,554.5,1721.9,554.5z"/>
			<rect x="355.4" y="558.3" class="st2" width="26" height="200.8"/>
			<path class="st2" d="M583.4,570.3v176.8c0,8.8-3.1,11.9-11.9,11.9h-30c-8.7,0-11.9-3.1-11.9-11.9v-65h-53.8v65
				c0,8.8-2.8,11.9-11.9,11.9h-29.7c-9.1,0-12.2-3.1-12.2-11.9V570.3c0-9,3.1-12.2,12.2-12.2H464c9,0,11.9,3.1,11.9,12.2v62.4h53.8
				v-62.4c0-9,3.1-12.2,11.9-12.2h30C580.3,558.1,583.4,561.3,583.4,570.3z"/>
			<path class="st2" d="M677,554.2c55.7,0,80.1,32.7,80.1,81.6v50.8c0,48.9-24.5,76.6-80.1,76.6c-55.9,0-80.6-30.2-80.6-79.1v-50.8
				C596.3,584.4,621.1,554.2,677,554.2z M677,603.6c-19.8,0-26.9,9.3-26.9,27.1v55.9c0,17.8,7.1,27.1,26.9,27.1
				c19.5,0,26.8-6.8,26.8-24.7v-55.9C703.8,615.4,696.5,603.6,677,603.6z"/>
			<path class="st2" d="M919.7,570.3v25.5c0,9-3.1,12.1-12.1,12.1h-41.6v139.2c0,8.8-3.1,11.9-12.2,11.9H824
				c-9.1,0-11.9-3.1-11.9-11.9V607.8h-41.9c-9.1,0-11.9-3.1-11.9-12.1v-25.5c0-8.7,2.8-11.8,11.9-11.8h137.2
				C916.6,558.4,919.7,561.5,919.7,570.3z"/>
		</g>
		<g>
			<g>
				<path class="st2" d="M213.6,592c-36.7,0-66.4,29.7-66.4,66.4c0,36.7,29.7,66.4,66.4,66.4c36.7,0,66.4-29.7,66.4-66.4
					C280.1,621.8,250.3,592,213.6,592z M239,661.5l-32.1,32.1c-2.3,2.3-3.9,2.3-6.3-0.1l0.1-70.4c2.3-2.3,3.9-2.3,6.2,0.1l32,32
					C241.3,657.6,241.3,659.3,239,661.5z"/>
				<path class="st2" d="M290.3,606.7c-7.8-9-19-17.5-23.9-22.2c-4.6-4.3-9.8-11-9.8-17.1c-6.2-2.6-13.1-5.1-20.5-6.9
					c6-12.7,17.7-49.9-20.6-96.9c0,0,4,10.8,4,35.4c0,21.4-21.2,47.9-34.5,62.2c7.8-14.3,9.1-40.8-20.4-66.3c0,0,9.4,9.4,9.4,33.9
					c0,19.5-38.7,50.3-54.4,93.8c-3.5,9.2-5.7,19.1-6.3,29.5c0,0.2,0,0.3,0,0.5c-0.1,1.9-0.2,3.8-0.2,5.7
					c0,55.6,45.1,100.6,100.6,100.6c54.3,0,98.5-43,100.5-96.7C314.2,638.2,296.3,612.8,290.3,606.7z M213.6,739
					c-44.5,0-80.5-36.1-80.5-80.5c0-44.5,36.1-80.5,80.5-80.5c44.5,0,80.5,36.1,80.5,80.5C294.2,702.9,258.1,739,213.6,739z"/>
				<path class="st2" d="M308.7,625.5c0,0-5.5-22.4-18.6-37.2c-13.1-14.8-12.1-34-12.1-34c0.2-8,6.8-14.8,14.8-14.8
					c8.2,0,14.8,6.6,14.8,14.8c0,1.2-0.2,2.4-0.5,3.6c2.2-3.6,3.5-7.8,3.5-12.4c0-13.1-10.6-23.8-23.8-23.8c-1,0-1.9,0.1-2.9,0.2
					c-19.2,1.9-23.6,22.9-23.6,29.2c0,12.5,3.4,19.7,27.3,43.4C297.8,604.6,301.8,609.8,308.7,625.5z"/>
			</g>
			<g>
				<g>
					<defs>
						<path id="SVGID_1_" d="M213.7,592c-36.7,0-66.4,29.7-66.4,66.4c0,36.7,29.7,66.4,66.4,66.4s66.4-29.7,66.4-66.4
							C280.1,621.8,250.4,592,213.7,592z M239.1,661.5l-32.1,32.1c-2.3,2.3-3.9,2.3-6.3-0.1l0.1-70.4c2.3-2.3,3.9-2.3,6.2,0.1l32,32
							C241.3,657.6,241.3,659.3,239.1,661.5z"/>
					</defs>
					<use xlink:href="#SVGID_1_"  style="overflow:visible;fill:#FFFFFF;"/>
					<clipPath id="SVGID_2_">
						<use xlink:href="#SVGID_1_"  style="overflow:visible;"/>
					</clipPath>
				</g>
				<g>
					<defs>
						<path id="SVGID_3_" d="M290.4,606.7c-7.8-9-19-17.5-23.9-22.2c-4.6-4.3-9.8-11-9.8-17.1c-6.2-2.6-13.1-5.1-20.5-6.9
							c6-12.7,17.7-49.9-20.6-96.9c0,0,4,10.8,4,35.4c0,21.4-21.2,47.9-34.5,62.2c7.8-14.3,9.1-40.8-20.4-66.3c0,0,9.4,9.4,9.4,33.9
							c0,19.5-38.7,50.3-54.4,93.8c-3.5,9.2-5.7,19.1-6.3,29.5c0,0.2,0,0.3,0,0.5c-0.1,1.9-0.2,3.8-0.2,5.7
							c0,55.6,45.1,100.6,100.6,100.6c54.3,0,98.5-43,100.5-96.7C314.2,638.2,296.4,612.8,290.4,606.7z M213.7,739
							c-44.5,0-80.5-36.1-80.5-80.5c0-44.5,36.1-80.5,80.5-80.5s80.5,36.1,80.5,80.5C294.2,702.9,258.2,739,213.7,739z"/>
					</defs>
					<use xlink:href="#SVGID_3_"  style="overflow:visible;fill:#FFFFFF;"/>
					<clipPath id="SVGID_4_">
						<use xlink:href="#SVGID_3_"  style="overflow:visible;"/>
					</clipPath>
				</g>
				<g>
					<defs>
						<path id="SVGID_5_" d="M308.7,625.5c0,0-5.5-22.4-18.6-37.2c-13.1-14.8-12.1-34-12.1-34c0.2-8,6.8-14.8,14.8-14.8
							c8.2,0,14.8,6.6,14.8,14.8c0,1.2-0.2,2.4-0.5,3.6c2.2-3.6,3.5-7.8,3.5-12.4c0-13.1-10.6-23.8-23.8-23.8c-1,0-1.9,0.1-2.9,0.2
							c-19.2,1.9-23.6,22.9-23.6,29.2c0,12.5,3.4,19.7,27.3,43.4C297.9,604.6,301.9,609.8,308.7,625.5z"/>
					</defs>
					<use xlink:href="#SVGID_5_"  style="overflow:visible;fill:#FFFFFF;"/>
					<clipPath id="SVGID_6_">
						<use xlink:href="#SVGID_5_"  style="overflow:visible;"/>
					</clipPath>
					<path class="st4" d="M293.8,582.3c0-75.9-61.6-137.5-137.5-137.5c-75.9,0-137.5,61.6-137.5,137.5
						c0,75.9,61.6,137.5,137.5,137.5C232.2,719.8,293.8,658.2,293.8,582.3z"/>
				</g>
			</g>
		</g>
	</g>
</g>
<g id="Hiker" class="st0">
	<g class="st3">
		<path class="st2" d="M474.6,554.5c-8-1.8-17.8-3.9-29.3-6.2c-1-1-7.3-1.9-18.8-2.7c-11.5-0.8-19.4-1.2-23.5-1.2
			c-1.7,0-3.4,1-5.2,2.9c-1.3,1.6-2.6,3-3.7,4.4c-1.1,1.3-2,3.7-2.6,7.2c-0.6,3.4-0.9,6.6-0.9,9.4v46.7l-54,19.2l-21.3-35.4
			c0-4.7-0.3-11-1-18.8c-0.7-7.8-1.5-12.3-2.5-13.4c-1.8-5.3-3.5-10.3-5-15c-1.5-4.7-2.9-7.1-4.1-7.1c-4.8,0-12.9,0.4-24.3,1.2
			c-11.4,0.8-17.5,1.7-18.4,2.7c-9.6,2.1-18.8,4.2-27.6,6.1c-8.8,1.9-13.2,3.7-13.2,5.2v206.5c0,1.7,2,3.4,6.1,5.2
			c4,1.8,9.2,3.9,15.5,6.2c1,1.1,4.3,2.1,10,2.8c5.6,0.7,9.8,1.1,12.6,1.1c3,0,7.5-0.4,13.5-1.2c6-0.8,9.4-1.7,10.5-2.7
			c6.6-2,13-4,19-6c6-2,9-3.8,9-5.5v-87.4h75.2v87.4c0,1.7,2,3.4,6.1,5.2c4,1.8,9.2,3.9,15.5,6.2c1,1.1,4.3,2.1,10,2.8
			s9.8,1.1,12.7,1.1c3,0,7.5-0.4,13.5-1.2c6-0.8,9.4-1.7,10.5-2.7c6.6-2,13-4,19-6c6-2,9-3.8,9-5.5V559.6
			C486.7,558,482.7,556.3,474.6,554.5z"/>
		<path class="st2" d="M633.1,554.4c-4.1-1.7-9.4-3.8-15.8-6.2c-1-1.1-4.4-2.1-10.1-2.8c-5.7-0.7-10-1.1-12.7-1.1
			c-3,0-7.5,0.4-13.3,1.2c-5.8,0.8-9.3,1.7-10.3,2.7c-6.6,2.1-12.9,4.2-18.9,6.1c-6,1.9-8.9,3.7-8.9,5.2v181.7c0,3.3,0.3,6.6,0.9,10
			c0.6,3.4,1.5,5.7,2.6,6.9c1.7,5.6,3.4,11.2,5.2,16.7c1.3,4.4,2.6,6.6,3.7,6.6c4.6,0,12.6-0.4,24-1.2c11.4-0.8,17.5-1.7,18.4-2.7
			c9.7-2,19-4,27.9-6c8.9-2,13.4-3.8,13.4-5.5V559.6C639.2,557.9,637.2,556.2,633.1,554.4z"/>
		<path class="st2" d="M967.3,756.6c-0.7-1.2-2.9-4.7-6.7-10.3c-3-4.4-5.6-7.9-7.6-10.6l-65.6-91.4l58.4-62.9
			c2.1-1.9,5.7-6.3,10.8-13.3c5.1-7,7.6-11.2,7.6-12.8c0-1.1-3.6-2.3-10.8-3.5c-16.4-2.7-24.7-4.1-24.8-4.2c-1-0.9-6-1.7-15.1-2.3
			c-9.1-0.6-18.4-0.9-28.1-0.9c-1.2,0-3,0.8-5.4,2.5c-1.2,0.8-2.7,1.9-4.4,3.4c-0.5,0.3-2.2,2.4-5.4,6.1c-2.6,3-4.6,5.2-5.9,6.6
			l-72.2,82.5v-72.9c0-4-0.3-8.8-0.9-14.3c-0.6-5.5-1.4-8.7-2.4-9.7c-1-1-7.7-1.7-20.3-2.4c-12.6-0.6-24.5-1.1-35.6-1.3
			c-11.1-0.3-19.3-0.4-24.5-0.4c-1.2,0-2.5,1.4-3.9,4.1c-1.3,2.8-3.1,6.5-5.2,11.4c-1,1.1-1.8,5.5-2.4,13.1
			c-0.6,7.6-0.9,13.5-0.9,17.5v170.1c0,1.5,2,3.2,6,5.1c4,2,6,3.2,6,3.8c0.1,0.8,1,1.6,2.5,2.5c1.6,0.8,3.5,1.9,5.9,3.1
			c0.3,0.7,1.6,1.3,3.9,1.9c2.2,0.6,5.2,1.5,8.8,2.6c1,0.6,3.1,1,6.3,1.3c3.2,0.3,5.9,0.4,8,0.4c2.7,0,6.8-0.4,12.4-1.1
			c5.6-0.7,8.9-1.6,9.9-2.6c6.3-2.1,12.3-4.2,18-6.2c5.7-2,8.5-3.8,8.5-5.5V718l20.4-43.9l50.3,79.3l5.9,9.8
			c0.9,1.6,2.9,4.5,5.9,8.7c3,4.2,5,6.7,5.9,7.3c0.9,0.7,4.7,1.2,11.5,1.6c6.8,0.4,13.8,0.6,21.1,0.6c3,0,8.8-0.3,17.2-0.9
			c8.4-0.6,13-1.3,13.7-2c0.7-0.7,6-1.9,15.8-3.5c9.8-1.6,14.7-2.9,14.7-3.8c0-0.7-0.6-2.3-1.9-4.8
			C971.3,763.8,969.6,760.6,967.3,756.6z"/>
		<path class="st2" d="M1224.5,752c-1.7-3.4-3.3-6.6-4.7-9.7c-1.5-3.1-2.8-4.6-4.1-4.6h-110.5v-59.2h82.5c2.6,0,5.2-0.3,7.8-0.8
			c2.6-0.5,4.4-1.2,5.3-1.9c2.9-1.3,5.6-2.6,8.2-3.8c2.5-1.2,3.8-2.2,3.8-3.1c0-3.8-0.3-9.2-0.8-16c-0.6-6.9-1.3-10.7-2.1-11.5
			c-0.8-0.8-3.3-1.4-7.5-1.9c-4.2-0.5-8.1-0.7-11.8-0.7h-85.4v-51.1h103.8c1.6,0,3.4-2.3,5.6-7c2.1-4.7,3.3-7.1,3.4-7.2
			c0.9-0.8,1.6-3.3,2.1-7.6c0.5-4.3,0.8-7.5,0.8-9.8c0-1-1.5-2-4.4-3c-2.9-1-6.7-2.3-11.5-3.9c-1-0.9-5.1-1.6-12.2-2
			c-7.1-0.4-13.2-0.7-18.3-0.7h-150c-1.3,0-3,1.5-4.9,4.6c-1.9,3.1-3.2,4.8-4,5.1c-0.7,0.3-1.5,1.5-2.2,3.6
			c-0.7,2.1-1.6,4.9-2.6,8.5c-0.6,1.1-1,4.8-1.3,11c-0.3,6.2-0.4,11.2-0.4,14.9v169.4c0,1.9,1.7,3.8,5.1,5.6c3.4,1.8,8,3.9,13.6,6.2
			c1.1,1,5.5,1.9,13.2,2.5c7.7,0.7,13.9,1,18.6,1h135.6c4,0,7-0.9,8.9-2.7c5.5-1.3,10.8-2.6,15.8-3.9c5-1.2,7.5-2.3,7.5-3.2
			c0-2.1-0.3-5.4-0.9-9.8C1225.9,755.2,1225.2,752.7,1224.5,752z"/>
		<path class="st2" d="M1701,904.7c0,0-4.8-11.3-7.9-39.7c-0.4-8-1.1-15.8-1.9-23.2c0,0,0,0,0-0.1c1.9,1.2,3.8,2.7,5.7,4.3
			c0,0-1.6-25.1-19.5-73.9c3.3,0.8,6.8,1.9,10.5,3.4c0,0-14.5-21.4-26.6-47.6c-1.5-3.5-3-6.9-4.5-10.3c0,0,0-0.1-0.1-0.1h0
			c-0.3-0.6-0.5-1.2-0.8-1.8c1.3,0.1,2.7,0.3,4.1,0.5c0,0-14.2-21.8-23.5-41.5c-0.1-0.3-0.3-0.6-0.4-0.8c1.7,0.5,3.5,1,5.3,1.7
			c0,0-8.2-6.2-17.5-31c-0.6-1.7-1.2-3.4-1.8-5.1c-0.1-0.3-0.2-0.6-0.3-0.9c-0.6-1.7-1.1-3.3-1.6-4.9c1.7,0.4,3.5,0.8,5.3,1.3
			c0,0-5.6-6-13.6-35.9c-0.3-1.7-0.5-3.5-0.7-5.2c1.8,0.6,3.6,1.3,5.4,2c0,0-6.6-2.9-6.1-28.1c0.4-21.9,2.7-40.4,3.7-53.5
			c4.3-59.4-57.6-163-134.7-196.4c-17.1-10-27-9.7-33-7.3c-3-5-6.9-8.5-10.9-11.3c3.4-2.4,6-4.1,6-4.1c-8-6.5-14.9-10.7-20.7-13.4
			c10.5,3.3,18.5,9,18.5,9c0.1-0.2,0.3-0.3,0.4-0.4c0.1,0.1,0.2,0.1,0.2,0.1c8.9-8.9,17.1-13.7,17.1-13.7
			c-10.8-5.6-22.3-7.8-31.7-8.5c8-1,18-1.2,29.1,1.2c0,0-1-0.4-2.7-0.9c1.1,0.2,2.2,0.4,3.4,0.6c0,0-17.2-7-43.4-4.6
			c-0.1-0.1-0.1-0.2-0.2-0.3c0.9-0.5,1.9-1,2.8-1.5c20.1-9.3,50.3-8.7,50.3-8.7c-0.8-0.1-1.6-0.2-2.4-0.3c1.9,0,3,0,3,0
			c-24.8-3.4-43.8,0.1-57.3,5.1c-15.1-18.5-41.8-8.9-55.3-10.9c-19.7-2.8-32.3,3-39.8,13.1c-13.7-5.9-34.2-10.8-62.2-7.1
			c0,0,34.7-0.7,54.5,10.8c-26.7-2.7-44.3,4.5-44.3,4.5c11.9-2.6,22.5-2.2,30.8-1c-9.5,0.7-21.5,2.8-32.7,8.6c0,0,8.2,4.8,17.1,13.7
			c0,0,9.9-7.1,22.2-10.1c-6.3,2.6-14.3,7-23.7,14.7c0,0,18.6,12.8,23.6,16.6c0,0,1.5-7.1,5.9-11c1.4,19.2,12,36.5,19.4,43.6
			c7.8,7.5,14.2,12.3,14.2,12.3c-4.1,7.5,2.2,28.3,4.9,38.8c4.1,15.4,11.8,34.4,35.6,60.4c23.7,25.7,43.7,31,39.9,69.9
			c-0.8,7.9-19.1,10.7-19.9,20.5c52.7-19.1,77.9-2.9,59.3-26.9c-12.7-16.4-38.5-31.2-20.8-76.7c11.1-22.3,17.9-30.8,24.4-38.7
			c-9.2,12.8-22.1,33.4-25.5,51.9c-5.4,29.4,5.5,39.7,18.9,52.9c13.4,13.2,18.6,29.3,10.5,29.3c-32.2,0-61.1,8.6-61.1,8.6
			s3.5,0,9.1,0.4c-4.6-0.1-8.8-0.2-12.7-0.4c-7.4-0.2-16.1-0.3-26-0.3H1283c-1.8,0-3.6,1.5-5.4,4.5c-1.8,3-3.9,7-6.2,12.1
			c-1.1,1.1-2,5.4-2.7,12.9c-0.7,7.5-1,13.5-1,18.1v172c0,1.6,2,3.3,6,5.1c4,1.8,9.1,3.9,15.4,6.4c0.9,1.1,4.2,2.1,10,2.8
			c5.8,0.7,10.2,1.1,13.1,1.1c2.8,0,7.2-0.4,13.2-1.1c6-0.7,9.4-1.6,10.5-2.6c6.6-2.1,13-4.2,19-6.2c6-2,9-3.8,9-5.5v-75.6l8.8-13.3
			c7.2,0,13.2,0.3,18,1c4.8,0.7,8.5,1.6,11,2.9c5.4,2.5,9.4,8.3,12.1,17.4c1.1,1.2,3.1,6.1,6.1,14.7c1.7,4.7,2.9,7.8,3.7,9.3l10,26
			c0.9,1.3,1.7,3.4,2.5,6.1c1.9,6,2.9,9,3,9.3c0.8,1.5,1.6,3,2.4,4.6c0.8,1.6,1.7,2.6,2.6,3.2c1.4,2.5,2.6,4.8,3.9,6.8
			c1.2,2.1,2.3,3.1,3.2,3.1c3.9,0,9.6-0.1,17.1-0.4c7.5-0.3,11.6-0.6,12.2-0.9c0.7-0.3,4.6-0.9,11.8-1.8c7.2-0.8,11-1.5,11.3-2.1
			c0.3-0.6,4.7-1.4,13-2.5c8.3-1.1,12.5-1.9,12.5-2.4c0-1.8-0.3-5.2-0.8-10.2c-0.5-5-1.2-8.3-1.9-10c-1.5-6.7-2.8-13.3-4.1-19.6
			c-1.3-6.3-2.4-10.2-3.3-11.6c-3.5-14.5-7.7-24.8-12.7-30.9c-2.4-3.3-6.4-6.5-12.1-9.8c-7.8-5.3-20.4-9.6-37.8-12.8
			c25.9-2.8,44.1-8.4,54.7-16.9c10.3-8.2,15.6-20.9,15.8-38.1c0.8,1.5,1.6,2.9,2.4,4.4c0,0,0,0,0,0c0,0,13.8,28.7,18,47.3
			c0,0,2.1-3.3,6.3-7.8c1.3,2,2.6,3.9,3.9,5.9c0,0,7,13.1,19.9,41c0,0,1.1-2.3,3.4-5.5c1.2,1.8,2.3,3.7,3.5,5.5
			c0,0.1,15.1,24.2,17.2,40.6c0,0,1.2-2,3.5-4.9c0.9,1.7,1.8,3.4,2.6,5.1c1.4,3,17.6,36.8,17.9,57c0,0,0.8-3.1,2.9-7.2
			c1,3,2,6.1,2.9,9.3c2.4,8.3,7.3,29.2,3.4,49.1c0,0,2.5-2.9,6.9-6.3c0.5,2.8,1,5.6,1.4,8.4c0.6,7.1,0.7,19.9-1.4,42
			c0,0,2.1-1.8,5.8-3.7c0,0.5,0.1,1.1,0.1,1.6c0,0,0,0.1,0,0.1c0.1,1.9,1.3,25.3-7.6,43.7c0,0,2.9-1.1,7.6-2.1
			c-0.4,5.5-0.9,10.8-1.6,16.1c-1.1,7.3-4.1,21.1-11.2,24.9c0,0,2.6-0.4,6.7-0.6c-0.2,0.7-0.4,1.4-0.5,2.1c-1.8,5-7.1,17.9-17.2,28
			c0,0,2.8-0.2,7-0.1c0,0-6.3,11.6-18,19.3c0,0,1.6,0.4,4.1,1.2c0,0-16.9,15-27.4,11c0,0,2.1,0.9,5.2,2.6c-2,0.5-4,0.9-6.1,1.1
			c-2.4,0.2-9.5,0.2-14.2-5.5c0,0,0.6,1.9,1.4,5c-3.3-0.6-6.8-1.5-10.3-2.8c-2.5-1.7-4.4-4.6-4.4-9.2c0,0-0.9,2.6-2.4,6.4
			c-0.6-0.3-1.3-0.6-1.9-0.9c-11.1-9.9-9.1-13.6-9.1-13.6c-1.3,2.1-2.6,4-4,5.8c-4.3-3-8.7-6.4-13.3-10.4
			c-27.2-12.1-36.5,3.3-50.5,5.1c-6.5,0.8,6.5,14.3,26.4,27.9c-3.5,0.4-5.7,0.3-5.7,0.3c11.6,7.8,39.1,18.7,39.1,18.7
			c-2.2,1.7-4.5,2.6-6.6,2c0,0,8.7,3,38.9,7.9c-1.1,1.2-2.5,2.3-4,3.1c0,0,40.6-3.5,49.9-13.1c0.3-0.1,0.6-0.3,0.9-0.4
			c0.1,1.7,0,3.5-0.4,5.4c0,0,25-17.7,27.9-23.7c0.6,1.6,1.1,3.3,1.3,5.1c0,0,6.6-11,15-24.1c1.1-1.5,2.1-3.1,3.1-4.8
			c0-0.1,0.1-0.1,0.1-0.2v0c0.4-0.7,0.9-1.4,1.3-2.2c1,1.7,1.8,3.6,2.4,5.6c0,0,4.9-12.4,12.1-38.2c0.9,1.2,1.7,2.5,2.4,4
			c0,0,6-34.6,6.2-42.3l0,0c0.4-2.6,0.7-5.3,1.1-8c2.2,1.8,4.4,3.8,6.4,6.2c-1.6-3.7-3.9-15.2-4-51.5
			C1696.2,900.3,1698.6,902.3,1701,904.7z M1338.6,295.5c-6.7-0.1-9.8-9-9.8-9s2.6,0.4,4.3-0.9c1.7-1.3,7.9-5.9,14.1,3
			C1347.2,288.7,1345.2,295.6,1338.6,295.5z M1373.2,318.2c-5.9,1.9-10.4,2.9-14,2.9v0c0,0,0,0-0.1,0c0,0,0,0-0.1,0v0
			c-3.6,0-8.1-0.9-14-2.9c0,0-6.3-9.1,2.4-15.3c4.9-3.5,10.3-6.3,10.3-12.5c0-7-5.7-12.7-12.7-12.7c-1.1,0-2.1,0.7-3.1,0.4
			c-4.7-1.6-12.3-4.1-12.4-9.9c-0.1-4.4,12.7-12,26.6-8.1c0.5,0.2,1.7,0.3,3,0.3c1.3,0,2.5-0.1,3-0.3c13.9-3.9,26.7,3.7,26.6,8.1
			c-0.1,5.8-7.7,8.3-12.4,9.9c-1,0.3-2-0.4-3.1-0.4c-7,0-12.7,5.7-12.7,12.7c0,6.2,5.4,9,10.3,12.5
			C1379.5,309.1,1373.2,318.2,1373.2,318.2z M1379.6,295.5c-6.6,0.1-8.7-6.9-8.7-6.9c6.2-8.9,12.4-4.3,14.1-3
			c1.7,1.3,4.3,0.9,4.3,0.9S1386.3,295.4,1379.6,295.5z M1508.5,572.3c-1.2-1.1-2.4-2.2-3.6-3.2c0.8,0.1,1.6,0.1,2.5,0.2
			C1507.7,570.3,1508.1,571.3,1508.5,572.3z M1434.8,618.7c-0.6,3.5-1.4,5.9-2.4,7c-2.1,4.2-5.5,7.4-10,9.6
			c-2.6,1.7-5.5,3.1-8.9,4.1c-3.3,1.1-6.8,1.6-10.5,1.6c-1.8,0.5-6.6,0.8-14.5,0.9c-7.9,0.2-16.1,0.3-24.6,0.3v-47.6l23.1-10.6
			c16.8,0,28.1,1.2,34.1,3.5c4.9,1.9,8.6,4.7,10.8,8.4c2.6,3.8,3.9,8.2,3.9,13.2C1435.7,612,1435.4,615.2,1434.8,618.7z
			 M1572.1,1077.4c0,0,0-0.1,0.1-0.3c0.1,0,0.1,0,0.2,0C1572.3,1077.3,1572.2,1077.3,1572.1,1077.4z"/>
	</g>
</g>
<g id="Kafo" class="st0">
	<path class="st5" d="M1464.4,522.7c-73.4,0-132.9,59.5-132.9,132.9c0,73.4,59.5,132.9,132.9,132.9c73.4,0,132.9-59.5,132.9-132.9
		C1597.3,582.2,1537.8,522.7,1464.4,522.7z"/>
	<g class="st3">
		<path class="st2" d="M322.5,602.2h0.8l60.9-79.6h120.5L430.3,612L507.7,735H383.3l-60-107h-0.8v107H215.9V416.3h106.6V602.2z"/>
		<path class="st2" d="M535.7,522.3c7.9-2.2,15.2-4.1,22-5.7c6.8-1.5,13.6-2.9,20.5-4c6.9-1.1,14.3-1.9,22.2-2.3
			c7.9-0.4,17.1-0.6,27.5-0.6c15.2,0,30.8,1,46.7,3c15.9,2,30.4,6.1,43.6,12.5c13.1,6.4,26.9,15.6,35.2,27.7
			c8.3,12.1,20,28.2,20,48.2V735H668v-31.7h-0.8c-7.3,12.7-21.6,22-34.2,27.9c-12.7,5.9-26.6,8.9-41.9,8.9
			c-10.2,0-20.1-1.2-29.8-3.6c-9.7-2.4-18.4-6.2-26-11.4c-7.6-5.2-13.7-11.9-18.2-20.1c-4.5-8.2-6.8-18-6.8-29.6
			c0-16.9,3.4-30.7,10.4-41.2c6.9-10.6,15.8-18.8,26.6-24.7c10.9-5.9,23-9.9,36.6-12c13.5-2.1,26.9-3.2,40.2-3.2
			c7.3,0,14.9,0.4,22.6,1.1c7.7,0.7,16.5,1.3,21.3,1.9c0-7-4.2-12.7-7.6-16.9c-3.4-4.2-7.8-7.4-13.1-9.5c-5.4-2.1-11.4-3.5-18-4.2
			c-6.6-0.7-13.3-1.1-20.1-1.1c-12.7,0-25.5,1.8-38.3,5.3c-12.8,3.5-24.6,8-35.3,13.3V522.3z M665.5,636.1h-10.6
			c-5.6,0-11.2,0.2-16.7,0.6c-5.5,0.4-10.6,1.5-15.2,3.2c-4.7,1.7-8.4,4.2-11.2,7.6c-2.8,3.4-4.2,7.9-4.2,13.5
			c0,7.6,2.1,13.1,6.3,16.3c4.2,3.2,10.4,4.9,18.6,4.9c5.4,0,10.1-1.1,14.4-3.4c4.2-2.3,7.7-5.3,10.4-9.1c2.7-3.8,4.7-8,6.1-12.7
			c1.4-4.7,2.1-9.4,2.1-14.2V636.1z"/>
		<path class="st2" d="M800.9,576.3h-27.5v-53.6h27.1v-26.6c0.3-14.7,4-27.3,8.8-37.9c4.8-10.6,11.4-19.2,19.9-26
			c8.5-6.8,18.4-11.7,29.8-14.8c11.4-3.1,24-4.7,37.9-4.7c12.7,0,25,0.8,37,2.3c12,1.6,18.7,3.3,26.1,5.3v58.8
			c-2.5-0.6-8.4-1.2-11.5-1.9c-3.1-0.7-8-1.1-14.8-1.1c-6.8,0-13,2.3-18.6,6.8c-5.6,4.5-8.5,11.3-8.5,20.3v19.4h26.1v53.6h-26.1
			v158.8l-105.6,0V576.3z"/>
		<path class="st2" d="M966.7,537.3c23.1-18.5,57.1-27.7,101.9-27.7c44.5,0,78.5,9.2,101.9,27.7c23.4,18.5,35.1,46.3,35.1,83.5
			c0,38.4-11.7,67.8-35.1,88.4c-23.4,20.6-57.4,30.9-101.9,30.9c-44.8,0-78.8-10.3-101.9-30.9c-23.1-20.6-34.7-50-34.7-88.4
			C932,583.6,943.6,555.8,966.7,537.3z M1046,643.3c0.4,6.8,1.5,12.6,3.2,17.6c1.7,4.9,4.1,8.8,7.2,11.6c3.1,2.8,7.2,4.2,12.3,4.2
			c5.1,0,9.2-1.4,12.3-4.2c3.1-2.8,5.5-6.7,7.2-11.6c1.7-4.9,2.8-10.8,3.4-17.6c0.6-6.8,0.9-14.2,0.9-22.4c0-6.5-0.3-12.6-0.9-18.4
			c-0.6-5.8-1.7-10.8-3.4-15.2c-1.7-4.4-4.1-7.8-7.2-10.4c-3.1-2.5-7.2-3.8-12.3-3.8c-5.1,0-9.2,1.3-12.3,3.8
			c-3.1,2.5-5.5,6-7.2,10.4c-1.7,4.4-2.7,9.5-3.2,15.2c-0.4,5.8-0.6,11.9-0.6,18.4C1045.4,629,1045.6,636.5,1046,643.3z"/>
	</g>
	<g class="st3">
		<path class="st2" d="M337.8,797c-4.4-0.5-8.5-0.8-12.3-0.8c-13.8,0.2-24.4,4.5-31.8,12.9c-7.5,8.4-11.3,19.4-11.3,32.9
			c0,13.6,3.7,24.5,11.1,32.9c7.3,8.5,17.9,12.8,31.9,12.9c3.7,0,7.8-0.4,12.3-1.1c4.5-0.6,8.3-1.8,11.4-3.5l0.6,9.1
			c-3.1,1.6-7.1,2.8-11.7,3.5c-4.8,0.7-9,1.1-12.6,1.1c-16.8-0.2-29.9-5.3-39.2-15.2c-9.5-9.8-14.3-23.1-14.3-39.7
			c0.1-16.4,4.9-29.7,14.4-39.7c9.4-9.9,22.5-15,39.1-15.2c3.4,0,7.7,0.3,12.6,0.8c4.9,0.6,8.8,1.7,11.7,3.2l-0.6,9.7
			C345.8,798.9,342,797.7,337.8,797z"/>
		<path class="st2" d="M407.1,788.9h27.4c20.3-0.3,30.7,8.9,31.2,27.5c-0.1,6.9-2.4,12.4-6.8,16.6c-4.5,4.3-10,6.9-16.7,7.9v0.3
			c4.1,0.5,7,1.8,8.8,4c1,1,1.9,2.3,2.6,3.8c0.8,1.5,1.6,3.2,2.3,5l18.1,41.1h-11.6l-15.4-35.9c-2.8-6.6-5.8-10.7-8.8-12.3
			c-1.5-0.9-3.2-1.5-5.2-1.7c-1.9-0.1-4.2-0.2-6.7-0.2h-8.7v50h-10.5V788.9z M417.6,835.9h11.1c6.6,0.1,12.6-1.3,17.9-4.3
			c5.5-2.9,8.3-8,8.5-15.2c0-4.4-0.7-7.8-2.1-10.3c-1.4-2.5-3.4-4.4-5.8-5.5c-2.4-1.2-5.3-2-8.5-2.3c-3.3-0.2-6.7-0.3-10.3-0.3
			h-10.8V835.9z"/>
		<path class="st2" d="M518.9,788.9h10.5v106.2h-10.5V788.9z"/>
		<path class="st2" d="M615.3,788.9h11.9l42.1,106.2h-10.9L647,866.6h-53.3l-11.3,28.4h-10.5L615.3,788.9z M597.5,857.5h45.9
			l-23-58.6L597.5,857.5z"/>
		<path class="st2" d="M774.7,797c-4.4-0.5-8.5-0.8-12.3-0.8c-13.8,0.2-24.4,4.5-31.8,12.9c-7.5,8.4-11.3,19.3-11.3,32.8
			c0,13.6,3.7,24.5,11.1,32.8c7.3,8.5,17.9,12.8,31.9,12.9c3.7,0,7.8-0.3,12.3-1c4.5-0.6,8.3-1.7,11.4-3.4l0.6,9.1
			c-3.2,1.6-7.1,2.8-11.7,3.5c-4.8,0.7-9,1.1-12.6,1.1c-0.8,0-1.5-0.1-2.1-0.2l-2.3,6.5c1.5-0.3,3.2-0.5,5-0.5
			c3.1,0,5.8,0.8,7.9,2.4c2,1.7,3.1,4.2,3.2,7.5c-0.2,4.3-2.1,7.1-5.6,8.5c-3.6,1.3-7.4,2-11.1,2c-3.3-0.1-6.5-0.7-9.6-1.7
			c-3-0.9-5-1.5-5.8-1.7l1.1-5.6c1.1,0.7,2.9,1.6,5.5,2.6c2.5,1.1,5.2,1.7,8.1,1.8c5.1,0,7.7-1.9,7.9-5.6c-0.1-3.8-2-5.6-5.8-5.6
			c-2.1,0-4.3,0.2-6.4,0.6l3.8-11.6c-15-1.4-26.6-7-34.7-16.7c-8.4-9.6-12.6-22.2-12.6-37.7c0.1-16.4,4.9-29.7,14.5-39.7
			c9.4-9.9,22.5-15,39.1-15.2c3.5,0,7.7,0.3,12.6,0.8c4.9,0.6,8.8,1.7,11.7,3.2l-0.6,9.7C782.7,798.9,778.9,797.7,774.7,797z"/>
		<path class="st2" d="M850.2,803.6c7.6-10.7,19.4-16.3,35.3-16.6c16,0.3,27.9,5.8,35.6,16.6c7.6,10.7,11.3,23.4,11.1,38.3
			c-0.1,16.5-4.1,29.7-11.9,39.6c-7.9,10-19.5,15.2-34.8,15.4c-15.2-0.2-26.7-5.3-34.5-15.4c-7.9-9.8-12-23-12.2-39.6
			C838.7,827.1,842.5,814.3,850.2,803.6z M858.1,810.5c-5.9,9.2-8.8,19.7-8.8,31.5c0,11.8,2.9,22.2,8.8,31.2
			c5.9,9.5,15,14.4,27.4,14.6c12.5-0.2,21.7-5.1,27.5-14.6c5.8-9,8.7-19.4,8.7-31.2c0-11.8-2.9-22.3-8.7-31.5
			c-5.9-9.2-15.1-14-27.5-14.3C873.1,796.5,864,801.3,858.1,810.5z M865.1,781.1c0.8-3.6,2.2-6.7,4.1-9.4c2-2.7,4.8-4.1,8.2-4.3
			c3.1,0.1,6.2,0.7,9.3,1.8c3,1.2,5.3,1.9,6.7,2c1.7,0,3.3-0.5,4.7-1.4c1.3-0.9,2.2-2.2,2.7-3.8h5.6c-0.9,5.4-2.7,9-5.3,10.8
			c-2.7,1.8-5.2,2.7-7.3,2.6c-3.6-0.1-6.7-0.8-9.4-2c-2.7-1.1-5.1-1.7-7.1-1.8c-1.9,0-3.3,0.5-4.1,1.4c-1,0.9-1.9,2.3-2.6,4.1H865.1
			z"/>
		<path class="st2" d="M982.4,788.9h52v9.1h-41.5v37.9h39.4v9.1h-39.4v40.9h43.4v9.1h-53.9V788.9z"/>
		<path class="st2" d="M1107.9,887.8c6.8,0,12.5-1.8,17-5.3c4.5-3.6,6.7-9,6.8-16.4c-0.1-5.2-2.6-9.5-7.6-13.1
			c-2.2-1.8-4.8-3.5-7.8-5.2c-2.9-1.6-5.9-3.2-9-4.9c-3-1.7-6-3.5-8.8-5.5c-2.9-1.8-5.6-3.9-7.9-6.1c-5-4.4-7.5-9.9-7.6-16.6
			c0.1-8.6,3.4-15.4,9.9-20.4c6.3-4.8,14.2-7.2,23.7-7.3c2.7,0,6,0.2,9.7,0.6c3.8,0.6,7.5,1.6,11.1,2.9l-1.7,9.6
			c-5.2-2.6-11.6-4-19.3-4c-2.7,0-5.4,0.3-8.1,0.8c-2.6,0.6-5.1,1.7-7.5,3.2c-2.1,1.3-3.9,3.1-5.3,5.5c-1.4,2.4-2.1,5.4-2.1,8.8
			c0,2.5,0.7,4.9,2.1,7c1.4,2.1,3.2,4,5.5,5.6c2.3,1.7,5,3.3,7.9,4.9c2.8,1.6,5.8,3.3,8.8,5c6.4,3,12,6.9,16.7,11.6
			c2.3,2.2,4.2,4.9,5.6,7.9c1.3,3,2,6.5,2,10.5c-0.2,10.5-3.9,18.2-11.1,23c-7.1,4.7-15,7-23.7,7c-10.3-0.2-18.4-1.7-24-4.6
			l1.1-10.8C1090.4,885.7,1098.2,887.8,1107.9,887.8z"/>
	</g>
	<g class="st3">
		<path class="st2" d="M1464.4,415.9c-132.4,0-239.7,107.3-239.7,239.7c0,132.4,107.3,239.7,239.7,239.7
			c132.4,0,239.7-107.3,239.7-239.7C1704.1,523.2,1596.8,415.9,1464.4,415.9z M1622.1,682.7c-12.5,77-79.2,135.9-159.8,135.9
			c-89.4,0-161.9-72.5-161.9-161.9c0-89.4,72.5-161.9,161.9-161.9c80.3,0,147,58.5,159.7,135.3c5.9,2,27.9,9.1,54.8-0.4
			c13.1,13.1,13.4,40.3,0.1,53.6C1649.8,671.3,1628.8,680.1,1622.1,682.7z"/>
	</g>
</g>
<g id="Kafoteria" class="st0">
	<g class="st3">
		<g>
			<path class="st2" d="M1178.9,651.6h-38.2v98.8c0,7.3,1.6,13.6,4.7,18.7c3.1,5.1,8.7,7.7,16.6,7.7c3.8,0,7-0.4,9.7-1.1
				c2.7-0.7,5.5-1.6,8.5-2.7l1.3,16.3c-2.3,1-5.7,2-10.2,3c-4.5,0.9-9.2,1.4-14,1.4c-8.8,0-15.7-1.4-20.6-4.2
				c-4.9-2.8-8.5-6.6-10.8-11.5c-2.3-4.8-3.7-10.5-4.2-17c-0.5-6.5-0.8-13.4-0.8-20.7v-88.8h-20.8v-19.1h20.8v-41.3l19.8-6.9v48.2
				h38.2V651.6z"/>
			<path class="st2" d="M1297.4,785c-6.9,2.9-14.6,5.1-22.9,6.6c-8.4,1.5-16.2,2.2-23.6,2.2c-13.2,0-24.4-2.1-33.8-6.3
				c-9.3-4.2-16.9-10-22.6-17.6c-5.8-7.5-9.9-16.4-12.6-26.7c-2.6-10.3-3.9-21.4-3.9-33.3c0-12.1,1.6-23.4,4.9-33.8
				c3.2-10.4,7.8-19.2,13.7-26.5c5.9-7.3,13-13.1,21.4-17.3c8.4-4.2,17.6-6.3,27.6-6.3c11.3,0,21,2.2,29.1,6.4
				c8.1,4.3,14.7,10,19.8,17.3c5.1,7.2,8.9,15.7,11.3,25.3c2.4,9.6,3.6,12.8,3.6,23.5v12.7h-109.6c0,8.6,1.1,20.9,3.5,28.4
				c2.3,7.4,5.7,13.9,10.1,19.3c4.4,5.4,9.9,9.8,16.5,13c6.6,3.3,14.2,4.9,22.8,4.9c3.6,0,7.5-0.4,11.8-1.1
				c4.3-0.7,8.5-1.6,12.6-2.7c4.1-1,8-2.3,11.6-3.8c3.7-1.5,6.6-2.9,8.9-4.4V785z M1287.6,691.6c0-6.9-0.7-6.7-2.2-13.4
				c-1.5-6.7-3.8-12.7-7.1-17.9c-3.2-5.2-7.5-9.4-12.7-12.6c-5.2-3.1-11.5-4.7-18.8-4.7c-7.3,0-13.9,1.7-19.6,5
				c-5.8,3.4-10.7,7.6-14.8,12.9c-4.1,5.2-7.8,10.3-9.7,16c-1.8,5.4-3,8.2-3,14.7H1287.6z"/>
			<path class="st2" d="M1317.1,665.6c0-4.4,0-8.2,0-11.3c0-3.1-0.1-6.1-0.2-8.8c-0.1-2.7-0.3-5.3-0.5-7.7c-0.2-2.4-0.5-3.9-0.6-5.3
				h20.7v28.1l0,0c1.9-4.4,3.8-8.7,6.3-12.9c2.5-4.2,5.5-7.9,9-11.1c3.5-3.3,7.3-5.8,11.6-7.7c4.3-1.9,9-2.8,14-2.8
				c2.3,0,6.1,0.2,8.7,1c3,0.9,7.9,4.1,9.6,5.4V652c-3.1-2.6-13.5-5.2-18.9-5.2c-8,0-14.5,2-19.6,6c-5.1,4-9.2,9.1-12.1,15.2
				c-2.9,6.2-5,13.1-6.3,20.7c-1.3,7.6-1.9,15-1.9,22.1V790h-19.8V665.6z"/>
			<path class="st2" d="M1406.1,632.9h19.8v157.5h-19.8V632.9z"/>
			<path class="st2" d="M1533.4,764.7h-0.6c-2.3,4.8-3.8,9.1-7.4,12.7c-3.7,3.7-7.8,6.8-12.4,9.3c-4.6,2.5-9.4,4.4-14.4,5.7
				c-5,1.3-10,1.9-15.1,1.9c-11.3,0-20.4-1.7-27.3-5c-6.9-3.3-12.2-7.4-16-12.1c-3.8-4.7-6.3-9.7-7.5-14.9
				c-1.3-5.2-1.9-9.6-1.9-13.2c0-13.4,3.2-23.9,9.6-31.4c6.4-7.5,14.4-13.1,24.2-16.8c9.7-3.7,20.4-5.9,31.9-6.8
				c11.5-0.8,22.5-1.3,33-1.3h3.8v-8.2c0-13.8-2.7-24.1-8.2-30.9c-5.4-6.8-14.9-10.2-28.3-10.2c-8.4,0-16.5,1-24.3,3
				c-7.9,2-15.4,5.4-22.8,10.2v-19.2c3.1-1.5,6.6-2.9,10.5-4.2c3.9-1.4,8-2.5,12.2-3.5c4.3-0.9,8.5-1.7,12.7-2.4
				c4.2-0.6,8.1-0.9,11.6-0.9c19.9,0,34.2,4.7,43,14.1c8.8,9.4,13.2,24.6,13.2,45.5v70.7c0,6.5,0,12.4,0.2,17.6
				c0.1,5.2,0.6,10.6,1.4,16h-21V764.7z M1533.1,709.7h-5.7c-8.6,0-17.3,0.4-26.2,1.1c-8.9,0.7-17,2.4-24.2,5
				c-7.2,2.6-13.1,6.5-17.7,11.6c-4.6,5.1-6.9,12.1-6.9,20.9c0,10.5,3.2,17.9,9.7,22.3c6.5,4.4,14.3,6.6,23.6,6.6
				c11.5,0,20.5-2.2,27-6.6c6.5-4.4,11.2-9.7,14.1-15.8c2.9-6.2,4.7-12.5,5.3-19c0.6-6.5,0.9-11.9,0.9-16.3V709.7z"/>
		</g>
		<g>
			<path class="st2" d="M453.6,691.9h0.6l45-58.9h89.1l-55,66l57.2,91h-91.9l-44.4-79.1h-0.6V790h-78.8V554.4h78.8V691.9z"/>
			<path class="st2" d="M611.2,632.8c5.8-1.7,11.3-3.1,16.3-4.2c5-1.1,10.1-2.1,15.2-3c5.1-0.8,10.6-1.4,16.4-1.7
				c5.8-0.3,12.6-0.5,20.3-0.5c11.3,0,22.8,0.7,34.5,2.2c11.8,1.5,22.5,4.5,32.2,9.2c9.7,4.7,19.9,11.5,26,20.5
				c6.1,9,14.8,20.8,14.8,35.6V790H709v-23.4h-0.6c-5.4,9.4-15.9,16.3-25.3,20.6c-9.4,4.4-19.7,6.6-30.9,6.6c-7.5,0-14.8-0.9-22-2.7
				c-7.2-1.8-13.6-4.6-19.2-8.4c-5.6-3.9-10.1-8.8-13.4-14.8c-3.3-6-5-13.3-5-21.9c0-12.5,2.5-22.7,7.7-30.5
				c5.1-7.8,11.7-13.9,19.7-18.3c8-4.4,17-7.3,27-8.9c10-1.6,19.9-2.3,29.7-2.3c5.4,0,11,0.3,16.7,0.8c5.7,0.5,12.2,1,15.8,1.4
				c0-5.2-3.1-9.4-5.6-12.5c-2.5-3.1-5.7-5.5-9.7-7c-4-1.6-8.4-2.6-13.3-3.1c-4.9-0.5-9.8-0.8-14.8-0.8c-9.4,0-18.8,1.3-28.3,3.9
				c-9.5,2.6-18.2,5.9-26.1,9.8V632.8z M707.2,716.9h-7.8c-4.2,0-8.3,0.2-12.3,0.5c-4.1,0.3-7.8,1.1-11.3,2.3
				c-3.4,1.3-6.2,3.1-8.3,5.6c-2.1,2.5-3.1,5.8-3.1,10c0,5.6,1.6,9.6,4.7,12c3.1,2.4,7.7,3.6,13.8,3.6c4,0,7.5-0.8,10.6-2.5
				c3.1-1.7,5.7-3.9,7.7-6.7c2-2.8,3.5-5.9,4.5-9.4c1-3.4,1.6-6.9,1.6-10.5V716.9z"/>
			<path class="st2" d="M807.2,672.7h-20.4v-39.6h20v-19.7c0.2-10.8,3-20.2,6.5-28c3.5-7.8,8.4-14.2,14.7-19.2
				c6.3-5,13.6-8.6,22-10.9c8.4-2.3,17.8-3.4,28-3.4c9.4,0,18.5,0.6,27.4,1.7c8.9,1.2,13.8,2.5,19.3,3.9v43.4
				c-1.9-0.4-6.2-0.9-8.5-1.4c-2.3-0.5-5.9-0.8-10.9-0.8c-5,0-9.6,1.7-13.8,5c-4.2,3.3-6.2,8.3-6.2,15v14.4h19.3v39.6h-19.3v117.4
				l-78.1,0V672.7z"/>
			<path class="st2" d="M929.8,643.9c17.1-13.6,42.2-20.5,75.3-20.5c32.9,0,58,6.8,75.3,20.5c17.3,13.7,26,34.2,26,61.7
				c0,28.3-8.7,50.1-26,65.3c-17.3,15.2-42.4,22.8-75.3,22.8c-33.1,0-58.2-7.6-75.3-22.8c-17.1-15.2-25.6-37-25.6-65.3
				C904.1,678.1,912.7,657.5,929.8,643.9z M988.4,722.2c0.3,5,1.1,9.3,2.3,13c1.3,3.6,3,6.5,5.3,8.6c2.3,2.1,5.3,3.1,9.1,3.1
				c3.8,0,6.8-1,9.1-3.1c2.3-2.1,4.1-4.9,5.3-8.6c1.3-3.6,2.1-8,2.5-13c0.4-5,0.6-10.5,0.6-16.6c0-4.8-0.2-9.3-0.6-13.6
				c-0.4-4.3-1.2-8-2.5-11.3c-1.2-3.2-3-5.8-5.3-7.7c-2.3-1.9-5.3-2.8-9.1-2.8c-3.8,0-6.8,0.9-9.1,2.8c-2.3,1.9-4.1,4.4-5.3,7.7
				c-1.2,3.2-2,7-2.3,11.3c-0.3,4.3-0.5,8.8-0.5,13.6C987.9,711.7,988.1,717.2,988.4,722.2z"/>
		</g>
		<rect x="1406" y="572.6" class="st2" width="19.9" height="19.9"/>
		<path class="st2" d="M963.5,373.1c-24.2,0-43.9,19.6-43.9,43.9c0,24.2,19.6,43.9,43.9,43.9c24.2,0,43.9-19.6,43.9-43.9
			C1007.4,392.7,987.7,373.1,963.5,373.1z"/>
		<g>
			<path class="st2" d="M963.5,337.8c-43.7,0-79.1,35.4-79.1,79.1c0,43.7,35.4,79.1,79.1,79.1c43.7,0,79.1-35.4,79.1-79.1
				C1042.6,373.2,1007.2,337.8,963.5,337.8z M1015.5,425.9c-4.1,25.4-26.2,44.8-52.7,44.8c-29.5,0-53.4-23.9-53.4-53.4
				c0-29.5,23.9-53.4,53.4-53.4c26.5,0,48.5,19.3,52.7,44.7c1.9,0.7,9.2,3,18.1-0.1c4.3,4.3,4.4,13.3,0,17.7
				C1024.7,422.1,1017.8,425,1015.5,425.9z"/>
		</g>
		<g>
			<path class="st2" d="M1081.1,417.5c0,13.7-3.9,27.4-8.2,39.6h579v431.8H277.2V457.1h575.6c-4.3-12.3-7.5-26-7.5-39.7H237.8v511.1
				H1691v-511H1081.1z"/>
		</g>
		<g>
			<path class="st2" d="M866.5,416.9c0-54.1,43.8-97.9,97.9-97.9c54.1,0,97.9,43.8,97.9,97.9c0,13.9-3.4,28.2-8.6,40.2h42
				c3.7-12.4,6.1-26.6,6.1-40.2c0-75.9-61.5-137.4-137.4-137.4S827,341,827,416.9c0,13.6,2.5,27.8,6.2,40.2h42
				C870,445.1,866.5,430.9,866.5,416.9z"/>
		</g>
		<g>
			<path class="st2" d="M1050.8,475.8c-4.1,6.1-9,14.9-14.3,20h575.1v353.1H316.3V495.8h573.2c-5.3-5.1-10.8-13.9-14.9-20H296.3
				v393.1h1335.4V475.8H1050.8z"/>
		</g>
		<g>
			<path class="st2" d="M964.1,514.9c-31.7,0-60.6-15.7-78.5-39.1h-22.1c20.3,34,58.1,57.3,100.5,57.3c42.4,0,80-23.4,100.3-57.3
				h-22.1C1024.5,499.2,995.8,514.9,964.1,514.9z"/>
		</g>
	</g>
</g>
<g id="GS_-_Tech" class="st0">
	<g class="st3">
		<path class="st2" d="M1661,657.7c0,16.3-13.2,29.5-29.5,29.5c-16.3,0-29.5-13.2-29.5-29.5c0-16.3,13.2-29.5,29.5-29.5
			C1647.8,628.2,1661,641.4,1661,657.7z"/>
		<path class="st2" d="M688.1,409.9H402.2l-143,247.6l143,247.6h285.9l143-247.6L688.1,409.9z M545.4,727.8
			c-7.6,7.6-19.3,13.9-34.9,18.7c-15.6,4.8-31.1,7.3-46.3,7.3c-33.6,0-61.2-9.3-82.8-27.8c-21.6-18.6-32.4-42.1-32.4-70.8
			c0-29.3,10.8-53.1,32.4-71.6c21.6-18.5,49.6-27.7,83.9-27.7c28.4,0,53.7,5.3,76.1,15.9v42.1C516.8,602,492.8,596,469.3,596
			c-22.6,0-40.1,5.7-52.3,17.1c-12.3,11.4-18.4,26-18.4,43.6c0,16.9,6.1,30.7,18.4,41.1c12.2,10.5,28.4,15.7,48.3,15.7
			c10.6,0,21.2-2.3,31.9-6.9v-22.5h-27.9v-35.4h76.1V727.8z M706.5,737.9c-13.6,10.6-31.5,15.9-53.6,15.9
			c-23.9,0-47.1-6.2-69.6-18.6v-41.6c12.9,8.6,24.3,15,34.2,18.9c9.9,4,20.5,5.9,31.6,5.9c18.9,0,28.3-5.9,28.3-17.8
			c0-4-1.9-7.9-5.7-11.5c-3.8-3.6-12.9-8-27.3-13.1c-14.4-5.2-25.8-9.9-34.2-14.4c-8.4-4.4-15.7-10.7-21.8-18.9
			c-6.1-8.2-9.2-18.7-9.2-31.5c0-16.6,6.7-29.9,20-40.1c13.3-10.2,31.2-15.3,53.6-15.3c20.6,0,42.4,5,65.3,14.9v37.7
			c-25.6-11.5-46-17.3-61.2-17.3c-8.7,0-15.5,1.4-20.6,4.3c-5.1,2.9-7.7,6.8-7.7,11.5c0,3.7,1.8,7.2,5.5,10.5
			c3.7,3.3,12.7,7.6,26.9,12.8c14.3,5.2,25.7,10.1,34.2,14.6c8.6,4.5,16,10.9,22.2,19.1c6.2,8.2,9.3,18.5,9.3,31.1
			C726.8,713.1,720,727.3,706.5,737.9z"/>
		<g>
			<rect x="911" y="670.1" class="st2" width="27.8" height="81.2"/>
			<polygon class="st2" points="938.8,582.6 1006,582.6 1006,558.1 844.9,558.1 844.9,582.6 911,582.6 911,645.3 938.8,645.3 			"/>
			<polygon class="st2" points="1059.8,582.9 1141.5,582.9 1141.5,558.3 1032.1,558.3 1032.1,645.3 1059.8,645.3 			"/>
			<polygon class="st2" points="1032.1,751 1144.1,751 1144.1,726.4 1059.8,726.4 1059.8,670.1 1032.1,670.1 			"/>
			<path class="st2" d="M1216.6,603c14.6-13.9,32.9-20.9,55-20.9c21.5,0,43.6,6.4,66.2,19.3v-29.7c-24.8-10.6-47.3-15.9-67.5-15.9
				c-29.4,0-54.1,9.6-74.1,28.7c-16.7,16-26.3,38.6-29.1,60.8h28.8C1198.4,630.3,1205.3,613.8,1216.6,603z"/>
			<path class="st2" d="M1179.2,704.7c8.7,15.2,20.6,27.1,35.6,35.8c15,8.6,33.3,13,54.8,13c26.5,0,49.9-5.5,70.2-16.6v-30.4
				c-22.3,14.4-45.1,21.5-68.5,21.5c-22.4,0-40.7-6.8-55.1-20.4c-11.8-11.2-18.6-21.3-20.8-37.6h-28.7
				C1168.2,683.6,1172.3,692.7,1179.2,704.7z"/>
			<rect x="938.8" y="645.3" class="st2" width="93.3" height="24.7"/>
			<rect x="790.9" y="645.3" class="st2" width="120.2" height="24.7"/>
			<rect x="1401.4" y="645.3" class="st2" width="108.4" height="24.7"/>
			<path class="st2" d="M1167,645.3h-107.3v24.7h107c-0.4-3.6-0.7-7.3-0.7-11C1166.1,654.3,1166.5,649.8,1167,645.3z"/>
			<rect x="1537.4" y="645.3" class="st2" width="94.1" height="24.7"/>
			<path class="st2" d="M1195.8,645.3c-0.7,4.4-1.2,8.9-1.2,13.7c0,3.8,0.3,7.5,0.8,11h178.3v-24.7H1195.8z"/>
			<rect x="1373.8" y="670.1" class="st2" width="27.6" height="81.2"/>
			<rect x="1373.8" y="558.3" class="st2" width="27.6" height="87"/>
			<rect x="1509.8" y="670.1" class="st2" width="27.6" height="81.2"/>
			<rect x="1509.8" y="558.3" class="st2" width="27.6" height="87"/>
		</g>
	</g>
</g>
<g id="Manavic" class="st0">
	<g class="st3">
		<g>
			<path class="st2" d="M971,639.9L971,639.9c79.2-0.6,232-76.4,232-242.5c0-95.6-78.1-132.5-91.4-168.5s6.2-71.9,6.2-71.9
				c-73,97.6,61.7,115.1,61.7,241.5c0,156.2-160.6,219.8-209,219.8v0c-72.6,0.4-134.1,65-134.1,137.7c0,57.1,36.3,105.7,87.1,124.1
				h89.7c50.8-18.4,87-67,87-124.1c0-54-23.6-95.2-68.8-119.5c-11.2,5-21.9,6.7-32,8.9c43.7,13.1,78.4,56.5,78.4,110
				c0,47.4-30.1,87.8-72.3,103H931c-42.2-15.2-72.3-55.6-72.3-103C858.7,694.8,910.5,639.9,971,639.9z"/>
		</g>
	</g>
	<polygon class="st5" points="968.2,600 1006.6,561.7 968.2,468.5 968.2,467.3 967.9,467.9 967.7,467.3 967.7,468.5 929.3,561.7 
		967.7,600 967.7,600.5 967.9,600.3 968.2,600.5 	"/>
	<g class="st3">
		<path class="st2" d="M756.5,398.6c0-126.4,134.6-143.9,61.7-241.5c0,0,19.5,36,6.2,71.9s-91.4,73-91.4,168.5
			c0,131.1,94.7,204.5,173.8,230.5c11.4-6.5,23.7-11.3,36.5-13.9C880.3,600.4,756.5,536.1,756.5,398.6z"/>
	</g>
	<path class="st5" d="M850.1,231.3c0,0-3.1,27.6-48,89.7s-21.2,167.1,13.7,192.5c0,0-31.5-108.2,13.7-161
		C859.7,316.3,843.9,264.2,850.1,231.3z"/>
	<path class="st5" d="M866.9,323.2c0,0,1,23.6-29.7,81.8c-30.7,58.2,3.8,143.1,37.4,159.5c0,0-41.7-86.4-9.5-136.9
		C886.5,393.1,865.9,351.6,866.9,323.2z"/>
	<path class="st5" d="M1085.9,231.3c0,0,3.1,27.6,48,89.7s21.2,167.1-13.7,192.5c0,0,31.5-108.2-13.7-161
		C1076.3,316.3,1092,264.2,1085.9,231.3z"/>
	<path class="st5" d="M1069.1,323.2c0,0-1,23.6,29.7,81.8c30.7,58.2-3.8,143.1-37.4,159.5c0,0,41.7-86.4,9.5-136.9
		C1049.5,393.1,1070,351.6,1069.1,323.2z"/>
	<g class="st3">
		<path class="st2" d="M671.2,934.8l23.1,124.7h-18.5l-12.1-69.1l-33.5,71.3L597,990.3l-12.1,69.1h-18.5l23.1-124.7l40.8,85.8
			L671.2,934.8z"/>
		<path class="st2" d="M861,1059.6h-17.2V932.7l80.5,96.3v-94.1h17.2v124.7h-16.6L861,981V1059.6z"/>
		<path class="st2" d="M1154.7,934.9h18.9l-50.6,125l-50.6-125h18.9l31.8,78.1L1154.7,934.9z"/>
		<path class="st2" d="M1205.5,934.6l9.1,124.5v0.2h-18.2v-0.2L1205.5,934.6z"/>
		<path class="st2" d="M1303.9,1042.1c7.2,0,13.9-1.7,20-5.2c6.1-3.5,11-8.1,14.9-13.8l14.8,11c-5.7,7.7-12.8,13.8-21.3,18.3
			c-8.6,4.5-18,6.8-28.3,6.8c-8.5,0-16.5-1.6-24-4.9c-7.5-3.3-14-7.7-19.5-13.3c-5.5-5.6-9.9-12.2-13.2-19.7
			c-3.2-7.5-4.8-15.6-4.8-24.2c0-8.6,1.6-16.7,4.8-24.2c3.2-7.5,7.6-14.1,13.2-19.7c5.5-5.6,12.1-10,19.5-13.3
			c7.5-3.3,15.5-4.9,24-4.9c10.3,0,19.7,2.3,28.3,6.8c8.5,4.5,15.7,10.6,21.3,18.3l-14.8,11c-3.9-5.8-8.8-10.4-14.9-13.8
			c-6.1-3.5-12.7-5.2-20-5.2c-5.9,0-11.4,1.2-16.6,3.6c-5.2,2.4-9.7,5.6-13.5,9.7c-3.9,4.1-6.9,8.8-9.2,14.3
			c-2.3,5.4-3.4,11.3-3.4,17.5c0,6.2,1.1,12.1,3.4,17.5c2.3,5.4,5.3,10.2,9.2,14.3c3.8,4.1,8.4,7.3,13.5,9.7
			C1292.5,1040.9,1298,1042.1,1303.9,1042.1z"/>
	</g>
	<g class="st6">
		<path class="st2" d="M1053.4,703.6c0.5,0,0,0,0.5,0C1053.9,703.6,1053.4,703.6,1053.4,703.6z"/>
		<path class="st2" d="M1053.2,702.2c-35.5,0.5-48.5,7.6-80.1,16.5c-28.2,7.9-63.2-1.3-90.8-16.5c0,0-50.3,98.1,52.5,147.5h31.9h2.1
			h31.9C1096.3,803.7,1060.2,717.1,1053.2,702.2z M1038.3,734.9c-4.1,0-7.4-3.3-7.4-7.4c0-4.1,3.3-7.4,7.4-7.4s7.4,3.3,7.4,7.4
			C1045.8,731.6,1042.4,734.9,1038.3,734.9z"/>
	</g>
	<path class="st7" d="M1053.2,702.2c-27.6,15.1-66.2,25-90.8,16.5c-19.4-6.7-49.8-30.1-80.1-16.5l0,0c-7,13.3-43,101.6,52.5,147.5
		h31.9h2.1h31.9C1103.5,800.3,1053.2,702.2,1053.2,702.2z M1038.3,734.9c-4.1,0-7.4-3.3-7.4-7.4c0-4.1,3.3-7.4,7.4-7.4
		s7.4,3.3,7.4,7.4C1045.8,731.6,1042.4,734.9,1038.3,734.9z"/>
	<g class="st3">
		<polygon class="st2" points="1016.3,934.6 965.5,1059.1 984,1059.1 994.1,1033.3 994,1033.3 1016.3,976.2 1038.5,1033.3 
			1038.5,1033.3 1044.7,1049.3 1044.8,1049.3 1048.6,1059.1 1067.1,1059.1 		"/>
	</g>
	<g class="st3">
		<polygon class="st2" points="769,934.6 718.2,1059.1 736.7,1059.1 746.8,1033.3 746.8,1033.3 769,976.2 791.3,1033.3 
			791.2,1033.3 797.5,1049.3 797.6,1049.3 801.3,1059.1 819.8,1059.1 		"/>
	</g>
	<g class="st3">
		<path class="st2" d="M589.1,1106.6c3.3,0,6.5,0.7,9.4,2c2.9,1.3,5.4,3.1,7.6,5.3c2.2,2.3,3.9,4.9,5.1,7.9c1.3,3,1.9,6.2,1.9,9.6
			c0,3.4-0.6,6.6-1.8,9.6c-1.2,3-2.9,5.6-5,7.8c-2.1,2.2-4.7,4-7.6,5.3c-2.9,1.3-6.1,2-9.5,2h-17.3v-49.6H589.1z M588.3,1149.8
			c2.5,0,4.8-0.5,7-1.5c2.1-1,3.9-2.3,5.5-4c1.5-1.7,2.7-3.6,3.6-5.9c0.9-2.2,1.3-4.6,1.3-7.1s-0.4-4.9-1.3-7.1
			c-0.9-2.2-2.1-4.2-3.6-5.9c-1.6-1.7-3.4-3-5.5-4c-2.1-1-4.4-1.5-6.9-1.5H579v36.8H588.3z"/>
		<path class="st2" d="M735.7,1148.9h22v7.1h-29.2v-49.4h28.7v7h-21.6v7.8v4v4.9h19.4v6.8h-19.4V1148.9z"/>
		<path class="st2" d="M900.4,1131.5c0.3,0.2,0.6,0.5,0.9,0.8c0.3,0.3,0.5,0.6,0.7,0.8c1,1.3,1.8,2.7,2.4,4.3s0.9,3.2,0.9,4.9
			c0,0.4,0,0.7-0.1,0.9c-0.1,2.5-0.9,4.8-2.3,6.8c-1.3,1.9-2.9,3.4-4.9,4.5c-2,1.1-4.2,1.7-6.6,1.7H887c-2.4,0-4.6-0.6-6.6-1.7
			c-2-1.1-3.6-2.6-4.9-4.5c-0.4-0.5-0.7-1.2-1.1-1.9l6.3-4.9c0.1,0.9,0.4,1.7,0.8,2.4c0.4,0.7,1,1.4,1.6,2c0.6,0.6,1.4,1,2.2,1.3
			c0.8,0.3,1.7,0.5,2.6,0.5h2.7c1.8,0,3.4-0.6,4.8-1.8c1.4-1.2,2.2-2.7,2.4-4.4c0-0.2,0-0.4,0-0.5c0-0.2,0-0.4,0-0.5
			c0-1-0.2-1.9-0.5-2.8c-0.4-0.9-0.9-1.6-1.5-2.3c-0.6-0.7-1.4-1.2-2.2-1.6c-0.9-0.4-1.8-0.6-2.7-0.7h-3.9h-0.3
			c-1.7,0-3.2-0.4-4.7-1c-1.5-0.6-2.8-1.4-4-2.5c-0.6-0.4-1.2-1-1.6-1.6c-1-1.3-1.8-2.7-2.4-4.3c-0.6-1.6-0.9-3.2-0.9-4.9v-0.9
			c0.2-2.6,1-4.8,2.4-6.8c1.3-1.9,2.9-3.4,4.9-4.5c2-1.1,4.2-1.7,6.6-1.7h4.4c2.4,0,4.7,0.6,6.7,1.7c2,1.1,3.6,2.6,4.9,4.5
			c0.1,0.2,0.3,0.5,0.4,0.7c0.2,0.3,0.3,0.5,0.4,0.7l-6.2,4.8c-0.4-1.6-1.3-3-2.6-4.1c-1.3-1.1-2.8-1.6-4.5-1.6H888
			c-0.9,0-1.8,0.2-2.6,0.5c-0.8,0.3-1.6,0.8-2.2,1.3c-0.6,0.6-1.2,1.2-1.6,2c-0.4,0.8-0.7,1.6-0.8,2.4c0,0.2-0.1,0.4-0.1,0.5
			c0,0.2,0,0.4,0,0.5c0,1,0.2,1.9,0.5,2.8c0.4,0.9,0.9,1.6,1.5,2.3c0.6,0.7,1.4,1.2,2.2,1.6c0.9,0.4,1.8,0.6,2.7,0.7h3.9h0.3
			c1.7,0,3.2,0.4,4.7,1C897.9,1129.6,899.2,1130.4,900.4,1131.5z"/>
		<path class="st2" d="M1020.8,1106.6h7.2v49.6h-7.2V1106.6z"/>
		<path class="st2" d="M1192.5,1130c0,0.4,0,0.9,0,1.4c0,0.6,0,1.2-0.1,1.8c0,0.6-0.1,1.2-0.2,1.8c-0.4,3-1.3,5.8-2.7,8.3
			c-1.4,2.6-3.2,4.8-5.3,6.7c-2.1,1.9-4.6,3.4-7.3,4.5c-2.7,1.1-5.7,1.6-8.8,1.6c-3.4,0-6.6-0.7-9.6-2s-5.6-3.1-7.8-5.3
			c-2.2-2.2-4-4.8-5.2-7.8c-1.3-3-1.9-6.2-1.9-9.6c0-3.4,0.6-6.6,1.9-9.6c1.3-3,3-5.6,5.2-7.8c2.2-2.2,4.8-4,7.8-5.3s6.2-2,9.6-2
			c2.6,0,5,0.4,7.3,1.1c2.3,0.7,4.4,1.8,6.4,3.1c1.9,1.4,3.7,3,5.2,4.8c1.5,1.9,2.7,3.9,3.7,6.1h-8.3c-1.5-2.5-3.5-4.6-6-6.1
			c-2.5-1.5-5.3-2.3-8.3-2.3c-2.3,0-4.6,0.5-6.6,1.4c-2.1,0.9-3.9,2.2-5.4,3.9c-1.5,1.6-2.7,3.5-3.7,5.7c-0.9,2.2-1.4,4.5-1.4,7
			c0,2.5,0.5,4.8,1.4,7c0.9,2.2,2.1,4.1,3.7,5.7c1.5,1.6,3.3,2.9,5.4,3.9c2.1,0.9,4.3,1.4,6.6,1.4c2,0,4-0.4,5.8-1.1
			c1.8-0.7,3.5-1.7,5-3c1.5-1.3,2.7-2.8,3.7-4.6c1-1.8,1.7-3.7,2.1-5.7h-17.3v-6.4h17.4h7.6
			C1192.5,1129.1,1192.5,1129.6,1192.5,1130z"/>
		<path class="st2" d="M1314.8,1156.3h-6.8v-50.5l32,38.3v-37.5h6.8v49.6h-6.6l-25.4-31.3V1156.3z"/>
	</g>
</g>
<g id="Qualquer_Negcio" class="st0">
	<g class="st6">
		<path class="st2" d="M456.6,530.6c-0.7,3.1-2.4,5.7-5,7.8c-2.6,2.1-5.9,2.8-10,2c-0.6-0.1-4.6-1.3-7.5-2.1
			c-1.6,1-25.9-5.8-50.2,15.1c-24.9,21.4-31.7,46.8-35.3,58.9c-4.2,14.2-10,58.6-15.2,82.3c-5.6,25.5-17.5,47.1-39.4,64.8
			c-24.1,19.4-57.2,24.2-67.6,23.7c-4.5-0.2-8.9-0.5-13.3-1.5c-4-0.8-6.7-2.7-8.1-5.8c-1.4-3-1.7-7.8-1-10.9c0.7-3.1,2.4-5.7,5-7.8
			c2.6-2.1,5.9-2.8,10-2c0.6,0.1,4.6,1.3,7.5,2.1c1.6-1,25.9,5.8,50.2-15.1c24.9-21.4,32.6-48.3,35.3-60.6
			c3.3-14.5,8.6-59,15.2-80.5c7.7-24.9,17.5-47.1,39.4-64.8c24.1-19.4,57.2-24.1,67.6-23.7c4.5,0.2,8.9,0.5,13.3,1.5
			c4,0.8,6.7,2.7,8.1,5.8C457,522.8,457.3,527.5,456.6,530.6"/>
		<path class="st2" d="M383.9,742.1c24.3,20.9,48.6,14.2,50.2,15.1c2.9-0.8,6.9-2,7.5-2.1c4-0.8,7.3-0.1,10,2c2.6,2.1,4.3,4.7,5,7.8
			c0.7,3.1,0.4,7.8-1,10.9c-1.4,3.1-4.1,5-8.1,5.8c-4.4,1-8.9,1.3-13.3,1.5c-10.4,0.4-43.5-4.3-67.6-23.7
			c-10.6-8.5-18.3-18.2-24.4-28.6c5.4-9.7,9.2-20.1,11.8-31.3C358.9,712.2,367.5,728,383.9,742.1"/>
		<path class="st2" d="M307.1,597.9c-4.9-13.3-13.9-30.1-30.5-44.4c-24.3-20.9-48.6-14.2-50.2-15.1c-2.9,0.8-6.9,1.9-7.5,2.1
			c-4,0.8-7.4,0.1-10-2c-2.6-2.1-4.3-4.7-5-7.8c-0.7-3.1-0.4-7.8,1-10.9c1.4-3.1,4.1-5,8.1-5.8c4.4-1,8.9-1.3,13.3-1.5
			c10.4-0.4,43.5,4.3,67.6,23.7c10.2,8.2,18.2,17.3,24.4,27.2c-3.1,7.2-5.7,14.6-8.1,22.3C309.2,589.3,308.2,593.4,307.1,597.9"/>
		<path class="st2" d="M456.1,812.6c-7.3,2.9-14.8,5.3-22.6,7.2c-3.3,0.7-6,0.2-8.1-1.4c-2.2-1.6-3.6-3.7-4.3-6.1
			c-0.7-2.4-0.5-4.9,0.5-7.4c1-2.5,3.2-4.2,6.5-5c7.4-1.9,14.5-4.2,21.3-6.9c6.8-2.7,13.8-5.3,21.1-7.9c5-1.7,9.8-3.6,14.5-5.6
			c4.6-2,9-4.4,13.2-7.4c-5-2.9-10.2-5.6-15.7-8c-5.5-2.4-10.8-5.1-15.8-8c-6-3.3-12-6.7-17.8-10.3c-5.9-3.6-11.8-7.2-17.8-10.9
			c-2.8-1.7-4.3-4-4.7-6.7c-0.3-2.8,0.1-5.2,1.4-7.5c1.3-2.2,3.2-3.8,5.7-4.8c2.5-0.9,5.2-0.6,8.1,1.2c5.8,3.6,11.7,7.2,17.6,10.8
			c5.9,3.6,11.8,7.1,17.8,10.6c7.7,4.1,15.5,8.1,23.4,11.8c7.8,3.7,15.1,8.3,21.8,13.8c2.2,1.9,3.3,4.3,3.1,7.4
			c-0.2,3-1.2,5.5-3.1,7.3c-6,6.2-12.8,11.2-20.3,15.1c-7.5,3.9-15.3,7.3-23.4,10.2C470.9,807,463.4,809.7,456.1,812.6"/>
		<path class="st2" d="M478.4,492.9c8.1,2.9,15.9,6.3,23.4,10.2c7.5,3.9,14.3,8.9,20.3,15.1c1.9,1.9,2.9,4.4,3.1,7.4
			c0.2,3-0.9,5.5-3.1,7.3c-6.7,5.5-14,10.1-21.8,13.8c-7.8,3.7-15.6,7.6-23.4,11.7c-6,3.5-12,7-17.8,10.6
			c-5.9,3.6-11.7,7.2-17.6,10.9c-2.9,1.7-5.7,2.1-8.1,1.2c-2.5-0.9-4.4-2.5-5.7-4.8c-1.3-2.2-1.8-4.7-1.4-7.5c0.3-2.8,1.9-5,4.7-6.7
			c6-3.6,12-7.2,17.8-10.9c5.8-3.6,11.8-7.1,17.8-10.3c5-2.9,10.2-5.6,15.8-8c5.5-2.4,10.8-5.1,15.7-8c-4.1-2.9-8.5-5.4-13.2-7.4
			c-4.7-2-9.5-3.8-14.5-5.5c-7.2-2.6-14.3-5.2-21.1-7.9c-6.8-2.7-13.9-5-21.3-6.9c-3.3-0.9-5.4-2.5-6.5-5c-1-2.5-1.2-5-0.5-7.4
			c0.7-2.4,2.1-4.4,4.3-6.1c2.2-1.6,4.9-2.1,8.1-1.4c7.7,1.9,15.3,4.3,22.6,7.2C463.4,487.5,470.9,490.3,478.4,492.9"/>
		<g>
			<path class="st2" d="M629.1,575.5c-9.7-5.6-17.8-12.7-24.3-21.4c-6.5-8.7-11.5-18.2-15-28.5c-3.5-10.3-5.7-21.1-6.5-32.3
				c-0.8-11.2-0.5-22.3,0.9-33.3c0.8-6.4,1.9-13,3.2-19.8c1.3-6.8,3.1-13.5,5.4-20.1c2.3-6.6,5.1-12.9,8.5-18.9
				c3.4-6,7.5-11.3,12.2-16.1c8.3-8,17.7-13,28.5-14.9c10.7-1.9,21.5-0.6,32.2,3.7c11.1,4.5,21.4,11.1,30.6,19.7
				c9.3,8.6,16.5,18.3,21.7,29.2c6,12.4,9.3,25.4,10.1,39.1c0.7,13.7-0.7,27.2-4.2,40.4c-3.5,13.6-8.8,26.4-15.8,38.4
				c2.3,2.9,4.6,5.7,7,8.5c2.4,2.8,4.9,5.6,7.6,8.5c2.7,2.9,3.8,6,3.2,9.3c-0.5,3.3-1.9,6-4,8.2c-2.2,2.2-4.8,3.4-8,3.7
				c-3.2,0.3-6.1-1-8.8-3.9c-3.9-4.1-7.7-8.6-11.5-13.3c-4.1,5-9,9.9-14.5,14.9c-2.7,2.3-5.6,4.8-8.8,7.6c-3.2,2.8-6.7,5.3-10.4,7.4
				c-3.7,2.2-7.5,3.8-11.3,5c-3.8,1.1-7.7,1.2-11.6,0.2c-5.4-1.2-9.2-3.9-11.5-8C631.8,584.7,630.1,580.2,629.1,575.5z M615.2,432.8
				c-3.9,12.4-6.4,25.1-7.4,38.2c-1,13.1-0.1,25.8,2.8,38.2c2.3,8.7,5.5,16.7,9.6,24c4.1,7.3,9.7,13.4,16.7,18.1
				c0.6-0.2,1.6-0.3,3.1-0.3c2.7,0,5,0.7,6.8,2c1.9,1.3,3.3,3.2,4.3,5.4c4.5,1.9,7.1,5.1,7.7,9.6c2.7-1.9,4.8-3.4,6.5-4.6
				c1.6-1.2,3.3-2.7,5-4.3c3.1-2.9,6-5.8,8.8-8.7c2.8-2.9,5.3-6,7.6-9.3c-2.7-3.9-5.4-7.8-8.2-11.6c-2.8-3.8-5.6-7.6-8.5-11.3
				c-2.3-2.7-3.5-5.6-3.7-8.8c-0.2-3.2,1-6,3.7-8.5c2.3-2.3,5.2-3.5,8.7-3.7c3.5-0.2,6.4,1,8.7,3.7c2.3,2.9,4.5,5.8,6.7,8.8
				c2.2,3,4.4,5.9,6.7,8.8c3.3-7.2,6-14.5,8-22c2.1-7.4,3.2-14.9,3.6-22.4c0.3-7.5-0.2-14.9-1.5-22.1c-1.3-7.2-3.9-14-7.6-20.4
				c-2.5-4.3-5.3-8.6-8.5-12.7c-3.2-4.1-6.8-7.8-10.8-11.1c-4-3.3-8.3-6.1-12.8-8.5c-4.5-2.4-9.3-4-14.2-4.8
				c-3.5-0.8-7.4-0.8-11.6,0c-4.2,0.8-7.8,2.6-10.7,5.3c-5,4.3-8.9,9.4-11.9,15.2C619.5,420.7,617,426.6,615.2,432.8z"/>
			<path class="st2" d="M897.4,478c0.2,17.7,1.4,35.5,3.7,53.2c2.3,17.7,5.3,35.3,9,52.6c0.8,3.9,0.2,7.2-2,9.7
				c-2.2,2.6-4.7,4.3-7.6,5.1c-2.9,0.8-5.8,0.6-8.7-0.6c-2.9-1.2-4.7-3.8-5.6-7.7c-2.5-11.8-4.6-23.3-6.5-34.7c-0.8,1-1.5,2-2.2,2.9
				c-0.6,0.9-1.3,1.9-2.2,2.9c-4.1,5-8.9,9.2-14.2,12.8c-5.4,3.6-11.1,6.4-17.2,8.4c-6.1,2-12.3,3-18.7,3.2
				c-6.4,0.2-12.7-0.5-18.9-2.2c-10.9-3.1-19.3-8.5-25.1-16.1c-5.8-7.6-9.9-16.3-12.4-26.2c-2.5-9.8-3.9-20-4.3-30.6
				c-0.4-10.6-0.7-20.5-0.9-29.6c0-3.9,1.2-6.9,3.7-8.8c2.5-2,5.3-2.9,8.4-2.9c3.1,0,5.9,1,8.5,2.9c2.6,2,4,4.9,4.2,8.8
				c0.2,8.3,0.4,16.6,0.5,25.1c0.1,8.5,1,16.4,2.6,23.8c0.8,4.1,1.8,7.7,2.8,10.7c1,3,2.7,6.1,5,9.4c1,1.4,1.6,2.3,1.7,2.5
				c0.1,0.2,0.4,0.4,0.8,0.6c3.1,2.5,5.2,4,6.2,4.5c1,0.5,2.3,1,3.7,1.4c8.7,2.5,17.4,2.2,26.3-0.8c8.9-3,16-8.4,21.4-16.2
				c3.1-5,5.4-10.1,7-15.5c1.5-5.4,2.6-10.8,3.2-16.2c0.6-5.5,1.1-11,1.4-16.7c0.3-5.7,0.9-11.3,1.7-16.9c0-6.2,1.6-10.3,4.8-12.2
				c3.2-2,6.5-2.6,10.1-2c2.1,0.6,3.7,1.3,5,2.2l2.5,2.2C897.2,470.9,898,474.5,897.4,478z"/>
			<path class="st2" d="M955.9,578.9c-7-3.1-12.5-7.4-16.6-12.8c-4-5.5-6.8-11.5-8.4-18.1c-1.5-6.6-2-13.5-1.4-20.6
				c0.6-7.1,2.1-14,4.3-20.6c1.9-5.2,4-10.5,6.3-16.1c2.4-5.6,5.2-10.7,8.5-15.5c3.3-4.7,7.2-8.8,11.8-12.2
				c4.5-3.4,9.9-5.6,16.1-6.7c6.4-1,12.8-1.4,19.3-1.1c6.5,0.3,12.9,1,19.3,2c2.9,0.4,5.7,1.1,8.4,2c2.7,0.9,5.4,1.9,8,2.9
				c0.2-3.1,1.6-5.7,4.2-7.7c2.6-2.1,5.3-3.1,8.2-3.1c3.5,0,6.3,1.2,8.5,3.6c2.2,2.4,3.5,5.2,3.9,8.5c1,9.5,1.5,19,1.4,28.5
				c-0.1,9.5-0.4,19-0.9,28.5c-0.5,9.5-0.9,19-1.2,28.5c-0.3,9.5-0.3,19,0.2,28.5c0.2,3.9-1,6.9-3.6,8.8c-2.6,2-5.4,2.9-8.5,2.9
				c-3.1,0-5.9-1-8.5-2.9c-2.6-2-4-4.9-4.2-8.8c-11.8,5-24.2,7.8-37.4,8.5C980.5,586.6,967.9,584.3,955.9,578.9z M958.1,511.7
				c-1.2,3.7-2.4,7.9-3.4,12.7c-1,4.7-1.3,9.3-0.9,13.6c0.4,4.3,1.8,8.3,4,11.9c2.3,3.6,6,6.1,11.1,7.6c10.5,3.3,21.1,4.2,31.7,2.8
				c10.6-1.4,20.6-5.2,29.9-11.1c0.8-10.1,1.5-19.9,2-29.4c0.5-9.5,0.7-19.1,0.5-28.8c-3.5-2.3-7.1-4.3-10.7-6
				c-3.6-1.8-7.6-2.9-11.9-3.6c-4.3-0.6-8.9-1.1-13.8-1.4c-4.8-0.3-9.5-0.3-14.1,0.2c-0.4,0-1.5,0.3-3.2,0.8
				c-1.8,0.5-2.7,0.9-2.9,1.1c-2.1,1-3.9,2.7-5.6,5c-2.7,3.7-5.1,7.7-7.1,11.9C961.6,503.1,959.7,507.4,958.1,511.7z"/>
			<path class="st2" d="M1106.6,344.3c3.7,0,6.6,1.2,8.7,3.7c2.1,2.5,3.3,5.4,3.7,8.7c2.1,19.6,3.2,39.2,3.4,58.8
				c0.2,19.6-0.1,39.2-0.8,58.8c-0.7,19.6-1.8,39.2-3.2,58.8c-1.4,19.6-2.9,39.1-4.3,58.5c-0.4,3.5-1.7,6.4-3.9,8.8
				c-2.2,2.4-5,3.6-8.5,3.6c-3.1,0-6-1.2-8.7-3.6c-2.7-2.4-3.9-5.3-3.7-8.8c1.4-19.4,2.9-38.9,4.5-58.5c1.5-19.6,2.7-39.2,3.4-58.8
				c0.7-19.6,1-39.2,0.8-58.8c-0.2-19.6-1.3-39.2-3.4-58.8c-0.4-3.3,0.7-6.2,3.4-8.7C1100.6,345.6,1103.5,344.3,1106.6,344.3z"/>
			<path class="st2" d="M1303.8,673.6c-5.6,2.3-11.2,2.5-16.9,0.8c-5.7-1.8-11-3.9-15.9-6.3c-4.1-2.3-8-4.7-11.8-7.3
				c-3.7-2.6-6.8-5.9-9.3-10.1c-2.3-3.7-4-7.6-5.3-11.8c-1.2-4.1-2.2-8.3-2.8-12.4c-2.5-12.4-4-24.9-4.6-37.4c0-3.3-0.1-6.5-0.3-9.7
				c-0.2-3.2-0.4-6.4-0.6-9.7c-10.5-1-21-2.6-31.6-4.8c-10.5-2.2-20.2-5.9-29.1-11.3c-6-3.7-10.9-8-14.7-13c-3.8-5-7-10.6-9.4-17
				c-1.9-5.2-3-10.6-3.4-16.4c-0.4-5.8,0-11.5,1.2-17c1.2-5.6,3.2-10.8,6-15.8c2.8-5,6.3-9.2,10.7-12.7c5.4-4.1,11.1-7.4,17.3-9.9
				c6.2-2.5,12.5-4.5,18.9-6.2c6.8-1.9,13.7-3.3,20.7-4.5c7-1.1,14.1-1.9,21.4-2.3c0.6-5,2.6-8.2,5.9-9.7c3.3-1.5,6.5-1.9,9.6-1.1
				c3.5,1,5.9,2.9,7.3,5.7c1.3,2.8,1.8,5.9,1.4,9.4c-1.9,11.1-3.1,22.3-3.9,33.4c-0.7,11.1-1.5,22.4-2.3,33.7
				c-0.4,5.6-0.9,11.1-1.4,16.7c-0.5,5.6-0.8,11.1-0.8,16.7c-0.2,5.6-0.1,11.1,0.3,16.7c0.4,5.6,0.8,11.1,1.2,16.7
				c0.4,9.3,0.9,18.8,1.4,28.6c0.5,9.8,2.4,19.1,5.7,28c0.4,0.8,0.7,1.3,0.8,1.5c0.1,0.2,0.5,0.8,1.1,1.9c1.9,2.5,3.2,4.1,4.2,4.8
				c0.9,0.7,2.2,1.5,3.9,2.3c2.7,1.2,5.7,2.8,9,4.6c3.3,1.9,6.5,2.2,9.6,0.9c3.1-1.2,6.1-0.8,9.1,1.2c3,2.1,5,4.5,6,7.4
				c1,3.5,0.6,6.6-1.2,9.3C1309.3,670.4,1306.8,672.4,1303.8,673.6z M1237.5,512.7c0.4-8.3,0.9-16.5,1.4-24.6
				c0.5-8.1,1.2-16.3,2-24.6c-5.2,0.4-10.2,1-15.2,1.9c-5,0.8-9.9,2-14.9,3.4c-4.7,1.2-9.6,2.7-14.5,4.3c-5,1.7-9.5,3.9-13.6,6.8
				c-3.1,2.3-5.4,5-7,8c-1.5,3.1-2.5,6.4-2.9,9.9c-0.4,3.5-0.3,7,0.3,10.5c0.6,3.5,1.4,6.7,2.5,9.6c0.6,1,1,1.7,1.1,2
				c0.1,0.3,0.4,0.7,0.8,1.1c0.4,0.6,1,1.6,1.9,2.9c0.8,1.3,1,1.8,0.6,1.4c0.8,0.8,1.6,1.6,2.3,2.3c0.7,0.7,1.5,1.4,2.3,2
				c1.9,1.4,3,2.3,3.6,2.5c0.5,0.2,1.1,0.5,1.7,0.9c3.3,1.9,6.5,3.3,9.6,4.3c3.1,1,6.7,2.1,10.8,3.1c4.1,1,8.3,1.9,12.5,2.6
				c4.2,0.7,8.4,1.3,12.5,1.7c0.2-5.4,0.5-10.7,0.9-16.1C1236.7,523.4,1237.1,518,1237.5,512.7z"/>
			<path class="st2" d="M1426,478c0.2,17.7,1.4,35.5,3.7,53.2c2.3,17.7,5.3,35.3,9,52.6c0.8,3.9,0.2,7.2-2,9.7
				c-2.2,2.6-4.7,4.3-7.6,5.1c-2.9,0.8-5.8,0.6-8.7-0.6c-2.9-1.2-4.7-3.8-5.6-7.7c-2.5-11.8-4.6-23.3-6.5-34.7c-0.8,1-1.5,2-2.2,2.9
				c-0.6,0.9-1.3,1.9-2.2,2.9c-4.1,5-8.9,9.2-14.2,12.8c-5.4,3.6-11.1,6.4-17.2,8.4c-6.1,2-12.3,3-18.7,3.2
				c-6.4,0.2-12.7-0.5-18.9-2.2c-10.9-3.1-19.3-8.5-25.1-16.1c-5.8-7.6-9.9-16.3-12.4-26.2c-2.5-9.8-3.9-20-4.3-30.6
				c-0.4-10.6-0.7-20.5-0.9-29.6c0-3.9,1.2-6.9,3.7-8.8c2.5-2,5.3-2.9,8.4-2.9c3.1,0,5.9,1,8.5,2.9c2.6,2,4,4.9,4.2,8.8
				c0.2,8.3,0.4,16.6,0.5,25.1c0.1,8.5,1,16.4,2.6,23.8c0.8,4.1,1.8,7.7,2.8,10.7c1,3,2.7,6.1,5,9.4c1,1.4,1.6,2.3,1.7,2.5
				c0.1,0.2,0.4,0.4,0.8,0.6c3.1,2.5,5.2,4,6.2,4.5c1,0.5,2.3,1,3.7,1.4c8.7,2.5,17.4,2.2,26.3-0.8c8.9-3,16-8.4,21.4-16.2
				c3.1-5,5.4-10.1,7-15.5c1.5-5.4,2.6-10.8,3.2-16.2c0.6-5.5,1.1-11,1.4-16.7c0.3-5.7,0.9-11.3,1.7-16.9c0-6.2,1.6-10.3,4.8-12.2
				c3.2-2,6.5-2.6,10.1-2c2.1,0.6,3.7,1.3,5,2.2l2.5,2.2C1425.8,470.9,1426.6,474.5,1426,478z"/>
			<path class="st2" d="M1471.5,467.2c3.9-5.4,8.6-10.1,14.1-14.2c5.5-4.1,11.3-7.4,17.5-9.7c6.2-2.4,12.6-3.6,19.2-3.7
				c6.6-0.1,13.2,1.2,19.8,3.9c6.4,2.5,12.2,5.8,17.3,10.1c5.2,4.2,9.2,9.6,12.1,16.2c2.3,5,3.6,10.3,4,16.1
				c0.4,5.8-1.1,11-4.6,15.8c-3.1,4.3-6.9,7.6-11.3,9.9c-4.4,2.3-9.2,3.9-14.2,5c-5.1,1-10.2,1.5-15.5,1.5c-5.3,0-10.3-0.1-15-0.3
				c-5.4-0.2-10.7-0.6-15.9-1.2c-5.3-0.6-10.6-1.2-15.9-1.9c1.6,9.3,5,17.5,9.9,24.8c5,7.2,11.7,12.7,20.1,16.4
				c2.3,0.8,4,1.4,5.3,1.9c0.6,0.2,1.2,0.4,1.7,0.5c0.5,0.1,1.1,0.2,1.7,0.2c1.6,0.2,3,0.4,4.2,0.5c1.1,0.1,2.2,0.1,3.2-0.2
				c1.4-0.2,2.4-0.4,2.9-0.5c0.5-0.1,1.1-0.3,1.7-0.5c2.3-0.6,4.3-1.3,6-2.2c1.8-0.8,3.9-2.2,6.3-4c1.2-1,2.9-2.6,5-4.6
				c2.1-2.1,3.8-3.9,5.3-5.6c2.1-2.9,4.6-4.8,7.6-5.9c3-1,6-0.6,9.1,1.2c2.7,1.7,4.6,4.2,5.7,7.6c1.1,3.4,0.7,6.6-1.4,9.4
				c-6,8-13.1,14.9-21.2,20.6c-8.2,5.7-17.5,8.7-28,9.1c-8.5,0.4-16.6-1.1-24.4-4.5c-7.8-3.4-14.8-8-20.7-13.8
				c-7.4-7.2-13.3-15.6-17.6-25.1c-4.3-9.5-6.7-19.2-7.1-29.1c-1.9-1.4-3.2-3.2-4.2-5.4c-0.9-2.2-1.2-4.4-0.9-6.7
				c0.3-2.3,1.1-4.4,2.3-6.3c1.2-2,3.1-3.2,5.6-3.9C1463.2,480.9,1466.7,473.8,1471.5,467.2z M1545.8,474.6
				c-2.3-2.9-5.8-5.5-10.5-7.7c-3.9-1.6-8.5-2.5-13.8-2.5c-5.3,0-9.7,0.9-13.5,2.8c-4.7,2.3-9,5.4-12.7,9.4c-3.7,4-6.7,8.5-9,13.5
				c5,0.6,9.9,1.2,14.9,1.9c5,0.6,9.9,1,14.9,1.2c2.7,0,5.4,0,8,0c2.7,0,5.4-0.1,8-0.3c0.8,0,1.6,0,2.3-0.2c0.7-0.1,1.5-0.2,2.3-0.2
				c1.9-0.4,3.2-0.7,4.2-0.8c0.9-0.1,1.9-0.4,2.9-0.8c0.8-0.2,1.9-0.5,3.1-0.9c1-0.4,1.6-0.7,1.9-0.9c0.2-0.2,0.5-0.4,0.9-0.6
				l0.9-3.7c-0.4-0.8-0.7-1.6-0.8-2.3c-0.1-0.7-0.4-1.4-0.8-2c-0.2-0.6-0.7-1.5-1.4-2.8C1547,476.5,1546.4,475.4,1545.8,474.6z"/>
			<path class="st2" d="M1605.5,461.3c0.2-3.9,1.6-6.9,4.3-8.8c2.7-2,5.6-2.9,8.7-2.9s5.8,1,8.2,2.9c2.4,2,3.5,4.9,3.2,8.8
				c0,1.2-0.1,2.5-0.2,3.9c-0.1,1.3-0.2,2.6-0.2,3.9c6.6-3.3,13.6-6.1,20.9-8.5c7.3-2.4,14.6-3.9,22-4.5c7.3-0.6,14.4,0,21.4,1.7
				c6.9,1.8,13.3,5.1,19,10.1c2.9,2.7,4.2,5.6,3.9,8.7c-0.3,3.1-1.5,5.7-3.7,7.9c-2.2,2.2-4.9,3.5-8.2,4c-3.3,0.5-6.5-0.5-9.6-2.9
				c-2.3-1.9-4.8-3.2-7.6-4c-2.8-0.8-5.8-1.2-9-1.1c-3.2,0.1-6.4,0.5-9.6,1.1c-3.2,0.6-6.2,1.3-9.1,2.2
				c-10.9,3.5-21.1,8.2-30.6,13.9c0.4,10.1,1,20.2,1.9,30.3c0.8,8.5,1.5,17.2,2.2,26.2c0.6,9,2.4,17.5,5.3,25.5
				c1.2,3.7,1,6.9-0.8,9.4c-1.8,2.6-4.1,4.3-7.1,5.1c-3,0.8-6.1,0.6-9.3-0.6c-3.2-1.2-5.4-3.7-6.7-7.4c-1.7-4.7-2.8-9.6-3.4-14.5
				c-0.6-5-1.2-9.9-1.9-14.9c-0.4-4.7-0.9-9.5-1.4-14.4c-0.5-4.8-1-9.6-1.4-14.4c-1-11.1-1.7-22.2-2-33.3
				C1604.4,483.5,1604.7,472.4,1605.5,461.3z"/>
		</g>
		<g>
			<path class="st2" d="M590.1,722.8c-0.4-0.4-0.8-0.8-1.1-1.2c-0.3-0.4-0.7-0.8-1.1-1.2c-2.5-2.5-3.7-5.1-3.6-7.9
				c0.1-2.8,0.9-5.3,2.5-7.4c1.5-2.2,3.6-3.8,6.2-5c2.6-1.1,5.2-1.2,7.9-0.2c3.3-0.4,6.4,0.4,9.4,2.3c3,2,4.5,5.1,4.5,9.4
				c10.5,12.6,20.4,25,29.7,37.1c9.3,12.2,17.7,25.1,25.4,38.7c3.5,6.2,6.8,12.5,9.7,19c3,6.5,5.8,13.1,8.5,19.7
				c0-8.5,0.4-16.8,1.1-25.1c0.7-8.3,1.6-16.7,2.6-25.4c2.3-17.7,4.5-35.4,6.7-53.1c2.2-17.6,3.4-35.5,3.6-53.7
				c0-3.9,1.3-6.9,3.9-8.8c2.6-2,5.4-2.9,8.5-2.9c3.1,0,5.9,1,8.5,2.9c2.6,2,3.9,4.9,3.9,8.8c-0.2,18.6-1.5,36.9-3.9,54.9
				c-2.4,18.1-4.7,36.2-7,54.3c-1,9.3-1.9,18.4-2.5,27.4c-0.6,9-0.8,18.1-0.6,27.4c0.2,8.9,0.5,17.6,0.8,26.3
				c0.3,8.7,0.3,17.4-0.2,26.3c-0.2,3.1-1.2,5.6-2.9,7.6c-1.8,2-3.9,3.2-6.3,3.9c-2.5,0.6-5,0.5-7.4-0.3c-2.5-0.8-4.5-2.5-6.2-5
				c-4.7-7.2-8.8-14.8-12.1-22.7c-3.3-7.9-6.4-15.8-9.3-23.7c-2.9-7.6-5.9-15-9-22.1c-3.1-7.1-6.6-14.2-10.5-21.2
				c-5.2-9.3-10.7-18.2-16.6-26.6c-5.9-8.5-12.1-16.7-18.7-24.8c0,8.5,0,16.8,0,24.9c0,8.2,0.2,16.5,0.6,24.9
				c0.4,14.9,1.4,29.6,3.1,44.1c1.6,14.5,3.4,29.1,5.3,43.8c0.4,3.5-0.8,6.4-3.6,8.8c-2.8,2.4-5.6,3.6-8.5,3.6
				c-3.7,0-6.6-1.2-8.7-3.6c-2.1-2.4-3.3-5.3-3.7-8.8c-2.1-14.6-3.9-29.2-5.6-43.8c-1.7-14.5-2.7-29.2-3.1-44.1
				c-0.4-13-0.6-25.9-0.5-38.8C590.1,748.8,590.1,735.8,590.1,722.8z"/>
			<path class="st2" d="M757.8,784.1c3.9-5.4,8.6-10.1,14.1-14.2c5.5-4.1,11.3-7.4,17.5-9.7c6.2-2.4,12.6-3.6,19.2-3.7
				c6.6-0.1,13.2,1.2,19.8,3.9c6.4,2.5,12.2,5.8,17.3,10.1c5.2,4.2,9.2,9.6,12.1,16.2c2.3,5,3.6,10.3,4,16.1
				c0.4,5.8-1.1,11-4.6,15.8c-3.1,4.3-6.9,7.6-11.3,9.9c-4.4,2.3-9.2,3.9-14.2,5c-5.1,1-10.2,1.5-15.5,1.5c-5.3,0-10.3-0.1-15-0.3
				c-5.4-0.2-10.7-0.6-15.9-1.2c-5.3-0.6-10.6-1.2-15.9-1.9c1.6,9.3,5,17.5,9.9,24.8c5,7.2,11.7,12.7,20.1,16.4
				c2.3,0.8,4,1.4,5.3,1.9c0.6,0.2,1.2,0.4,1.7,0.5c0.5,0.1,1.1,0.2,1.7,0.2c1.6,0.2,3,0.4,4.2,0.5c1.1,0.1,2.2,0.1,3.2-0.2
				c1.4-0.2,2.4-0.4,2.9-0.5c0.5-0.1,1.1-0.3,1.7-0.5c2.3-0.6,4.3-1.3,6-2.2c1.8-0.8,3.9-2.2,6.3-4c1.2-1,2.9-2.6,5-4.6
				c2.1-2.1,3.8-3.9,5.3-5.6c2.1-2.9,4.6-4.8,7.6-5.9c3-1,6-0.6,9.1,1.2c2.7,1.7,4.6,4.2,5.7,7.6c1.1,3.4,0.7,6.6-1.4,9.4
				c-6,8-13.1,14.9-21.2,20.6c-8.2,5.7-17.5,8.7-28,9.1c-8.5,0.4-16.6-1.1-24.4-4.5c-7.8-3.4-14.8-8-20.7-13.8
				c-7.4-7.2-13.3-15.6-17.6-25.1c-4.3-9.5-6.7-19.2-7.1-29.1c-1.9-1.4-3.2-3.2-4.2-5.4c-0.9-2.2-1.2-4.4-0.9-6.7
				c0.3-2.3,1.1-4.4,2.3-6.3c1.2-2,3.1-3.2,5.6-3.9C749.6,797.8,753.1,790.7,757.8,784.1z M832.1,791.5c-2.3-2.9-5.8-5.5-10.5-7.7
				c-3.9-1.6-8.5-2.5-13.8-2.5c-5.3,0-9.7,0.9-13.5,2.8c-4.7,2.3-9,5.4-12.7,9.4c-3.7,4-6.7,8.5-9,13.5c5,0.6,9.9,1.2,14.9,1.9
				c5,0.6,9.9,1,14.9,1.2c2.7,0,5.4,0,8,0c2.7,0,5.4-0.1,8-0.3c0.8,0,1.6,0,2.3-0.2c0.7-0.1,1.5-0.2,2.3-0.2
				c1.9-0.4,3.2-0.7,4.2-0.8c0.9-0.1,1.9-0.4,2.9-0.8c0.8-0.2,1.9-0.5,3.1-0.9c1-0.4,1.6-0.7,1.9-0.9c0.2-0.2,0.5-0.4,0.9-0.6
				l0.9-3.7c-0.4-0.8-0.7-1.6-0.8-2.3c-0.1-0.7-0.4-1.4-0.8-2c-0.2-0.6-0.7-1.5-1.4-2.8C833.4,793.4,832.7,792.3,832.1,791.5z"/>
			<path class="st2" d="M890,983.4c4.5,4.3,9.8,7.4,15.8,9.1c6,1.8,12,2.3,17.9,1.7c6-0.6,11.7-2.4,17-5.3
				c5.4-2.9,9.8-6.9,13.3-12.1c7.4-10.5,12.2-22.1,14.4-34.8c2.2-12.7,3-25.4,2.6-38.2c-9.9,1.6-20.1,2-30.5,1.1
				c-10.4-0.9-20.3-3.1-29.6-6.7c-4.7-1.9-9.2-4.1-13.5-6.7c-4.2-2.6-7.6-6.2-10.1-11c-4.3-8-6.2-16.9-5.6-26.6
				c0.4-9.3,2-18.3,4.8-27.1c2.8-8.8,5.9-17.5,9.4-26.2c1.9-4.1,3.9-8.5,6-13.2c2.2-4.6,5-8.8,8.5-12.5c3.5-3.9,7.5-6.9,12.1-9
				c4.5-2.1,9.4-3.3,14.5-3.7c-0.8-2.9-0.8-5.6,0-8.2c0.8-2.6,2.6-4.7,5.3-6.3c2.7-1.6,5.8-2.1,9.4-1.2c3.6,0.8,6.1,2.7,7.6,5.6
				c0.8,1.9,1.6,3.7,2.3,5.6c0.7,1.9,1.4,3.7,2,5.6c4.1,11.1,7.9,22.4,11.3,33.7c3.4,11.4,6.7,22.8,9.7,34.4
				c3.7,13.6,6.5,27.4,8.4,41.5c1.9,14,2.6,28.3,2.2,42.7c-0.2,8-0.9,16.3-2,24.8c-1.1,8.5-3,16.6-5.7,24.4
				c-2.7,7.8-6.2,15.3-10.5,22.4c-4.3,7.1-9.9,13.3-16.7,18.4c-6.4,5-13.5,8.5-21.2,10.7c-7.7,2.2-15.6,3-23.5,2.6
				c-7.9-0.4-15.7-2.2-23.2-5.3c-7.5-3.1-14.2-7.4-20-13c-2.9-2.7-4.1-5.6-3.7-8.8c0.4-3.2,1.7-5.9,3.9-8c2.2-2.2,4.8-3.5,8-3.9
				C884.1,979.6,887.1,980.7,890,983.4z M924.3,876.6c7.2,1.9,14.7,3.2,22.4,3.9c7.7,0.7,15.2,0.3,22.4-1.4
				c-1.2-10.5-3-20.6-5.4-30.3c-2.4-9.7-5-19.5-7.9-29.4c-1.7-5.8-3.4-11.5-5.1-17c-1.8-5.6-3.6-11.1-5.4-16.7
				c-0.6,0.4-1.3,0.7-2.2,0.8c-0.8,0.1-1.8,0.3-2.8,0.5c-6.2,0-10.9,2.8-14.2,8.4c-2.3,3.5-4.1,7.2-5.6,11.1c-0.4,1-0.8,2-1.2,2.9
				c-0.4,0.9-0.8,1.9-1.2,2.9c-3.1,7.4-5.7,14.6-7.9,21.5c-2.2,6.9-3.5,13.7-3.9,20.3v5.6c0.2,1.4,0.4,2.6,0.6,3.4
				c0.4,1.9,0.7,3,0.8,3.4c0.1,0.4,0.7,1.4,1.7,3.1c1.2,1,2.4,1.9,3.4,2.5c1,0.6,1.6,1,1.9,1.2c1.6,0.6,3.2,1.2,4.8,1.9
				C921.1,875.7,922.7,876.2,924.3,876.6z"/>
			<path class="st2" d="M1093,761.5c6.6-0.8,13.5-1.1,20.7-0.8c7.2,0.3,14.1,1.5,20.7,3.7c6.6,2.2,12.6,5.4,17.9,9.7
				c5.4,4.3,9.5,10,12.4,17c2.1,5,3.1,10,3.2,15c0.1,5.1-0.6,9.9-2.2,14.5c-1.5,4.6-3.8,9.1-6.8,13.3c-3,4.2-6.4,8.1-10.4,11.6
				c-8.5,7.6-17.7,14.1-27.9,19.5c-10.1,5.4-20.7,9.5-31.9,12.4c-4.7,1.2-9.6,2.3-14.7,3.2c-5.1,0.9-10.2,1.4-15.3,1.4
				c-5.2,0-10.2-0.6-15.2-1.7c-5-1.1-9.6-3-13.9-5.7c-3.1-1.9-5-4.3-5.6-7.4c-1.2-3.5-2.6-6.8-4-9.9c-1.4-3.1-2.8-6.3-4.2-9.6
				c-1.3-3.3-2.4-6.6-3.2-9.9c-0.8-3.3-1.2-6.7-1.2-10.2c0-7,1.5-13.7,4.5-20c3-6.3,7.1-11.8,12.2-16.6c8.7-8.3,18.7-14.9,30-19.8
				C1069.7,766.4,1081.2,763.1,1093,761.5z M1128,788.1c-5.6-2.1-11.6-3.1-17.9-3.1c-6.8-0.2-13.6,0.5-20.4,2
				c-6.8,1.5-13.3,3.7-19.5,6.3c-5.8,2.3-11.7,5.4-17.8,9.4c-6.1,4-10.6,8.9-13.5,14.7c-1.7,3.1-2.4,6.2-2.3,9.4
				c0.1,3.2,0.6,6.4,1.5,9.6c0.9,3.2,2.2,6.4,3.7,9.6c1.5,3.2,2.9,6.3,4.2,9.4c3.3,0.8,5.4,1.2,6.2,1.2c0.4,0.2,0.9,0.3,1.5,0.3
				c0.6,0,1.1,0,1.5,0c4.1,0.4,7.8,0.3,11.1-0.3c2.3,0,5.2-0.4,8.7-1.2c5.4-1,10.5-2.4,15.5-4.2c5-1.8,9.5-3.7,13.6-5.7
				c4.7-2.3,9.4-4.7,13.9-7.4c4.5-2.7,8.4-5.5,11.5-8.4c2.1-1.9,4-3.8,5.9-5.9c1-1,1.8-1.9,2.2-2.5c1-1.4,1.9-2.5,2.5-3.2
				c0.6-0.7,1.1-1.6,1.5-2.6c0.8-1.4,1.2-2.6,1.2-3.4c0.2-0.4,0.4-0.9,0.5-1.5c0.1-0.6,0.3-1.1,0.5-1.5v-3.4
				c-0.2-0.8-0.3-1.4-0.3-1.9c0-0.4-0.1-0.8-0.3-1.2c-0.6-1.4-1.2-2.5-1.7-3.2c-0.5-0.7-1.1-1.5-1.7-2.3c0.2,0.2-0.1-0.1-0.8-0.9
				c-0.7-0.8-1.2-1.3-1.4-1.5l-2.5-2.5c-1-0.6-2.2-1.3-3.4-2.2C1130.4,789.1,1129.2,788.5,1128,788.1z M1107.2,697.1
				c2.7-2.1,5.6-3.2,8.7-3.6c3.1-0.3,6,0.9,8.7,3.6c2.3,2.3,3.5,5.2,3.7,8.8c0.2,3.6-1,6.6-3.7,8.8c-14.9,11.4-30.3,21.1-46.4,29.4
				c-3.5,1.9-6.8,2.1-9.9,0.8c-3.1-1.3-5.4-3.3-7-6c-1.5-2.7-2.1-5.6-1.7-8.7c0.4-3.1,2.4-5.6,5.9-7.4c7.4-3.7,14.6-7.6,21.5-11.8
				C1093.9,706.9,1100.6,702.3,1107.2,697.1z"/>
			<path class="st2" d="M1275.6,880c0.8,2.9,0.4,6-1.2,9.3c-1.7,3.3-4.1,5.3-7.4,5.9c-11.1,1.9-22.2,1.7-33.1-0.5
				c-10.9-2.2-21-6.9-30.3-14.1c-9.1-7.2-15.5-16.5-19.3-27.7c-3.8-11.2-4.5-22.5-2-33.9c2.3-10.1,7-18.9,14.2-26.3
				c7.2-7.4,15.5-13.2,24.8-17.3c8.3-3.9,16.9-7,26-9.3c9.1-2.3,18.2-3,27.2-2.2c3.5,0.4,6.4,1.7,8.8,3.9c2.4,2.2,3.6,5,3.6,8.5
				c0,3.1-1.2,6-3.6,8.7c-2.4,2.7-5.3,3.9-8.8,3.7c-6.6-0.6-13.1-0.3-19.5,0.9c-6.4,1.2-12.6,3.2-18.6,5.9c-3.5,1.7-7,3.4-10.4,5.3
				c-3.4,1.9-6.3,3.9-8.8,6.2c-2.7,2.5-4.9,5-6.7,7.4c-1.8,2.5-3,5.4-3.9,8.7c-0.8,3.3-1.1,6.8-0.9,10.5c0.2,3.7,0.9,7.4,2,11
				c1.1,3.6,2.7,6.9,4.8,9.9c2.1,3,4.5,5.5,7.4,7.6c6,4.3,12.5,7.3,19.7,8.8c7.1,1.5,14.1,1.7,20.9,0.5c3.3-0.6,6.4-0.2,9.3,1.2
				C1272.6,874,1274.6,876.5,1275.6,880z"/>
			<path class="st2" d="M1304.4,901.1c1.6-9.9,3.6-19.7,5.7-29.2c2.2-9.6,3.8-19.3,4.8-29.2c0.8-9.7,1-19.2,0.5-28.6
				c-0.5-9.4,0-18.9,1.7-28.6c0.4-3.3,2.3-5.8,5.7-7.4c3.4-1.6,6.5-2.1,9.4-1.2c3.5,1,5.9,3,7.3,5.9c1.3,2.9,1.8,6,1.4,9.3
				c-0.8,4.7-1.2,9.6-1.1,14.5c0.1,5,0.3,9.9,0.5,14.9c0,9.5-0.6,19-1.9,28.5c-1.2,9.9-2.8,19.6-4.8,29.1c-2,9.5-3.8,19.1-5.4,28.8
				c-0.6,3.3-2.6,5.8-5.9,7.4c-3.3,1.6-6.4,2.1-9.3,1.2c-3.5-1-6-3-7.4-5.9C1304.2,907.5,1303.8,904.4,1304.4,901.1z M1319.2,758.7
				c-1.4-0.4-2.9-1.1-4.3-2c-1.4-0.9-2.5-2.1-3.1-3.6c-0.6-1.6-1.1-3.1-1.5-4.3c-0.4-1.2-0.6-2.7-0.6-4.3c0-1.9,0.3-3.7,0.9-5.6
				c0.8-3.7,2.5-6.4,5-8c0.8-1.2,2-2.2,3.4-2.8c2.3-1.4,4.8-2.2,7.7-2.3c2.9-0.1,5.5,0.7,7.7,2.3c1,0.8,2.1,1.7,3.1,2.6
				c1,0.9,1.9,2.1,2.5,3.6c0.4,1,0.9,2.2,1.4,3.4c0.5,1.2,0.7,2.5,0.5,3.7c-0.2,1.4-0.4,2.8-0.6,4c-0.2,1.2-0.7,2.4-1.5,3.4
				c-1,1.4-1.9,2.5-2.5,3.1c-0.6,0.6-1.7,1.4-3.1,2.5c-0.8,0.8-2.1,1.4-3.7,1.9C1326,758.7,1322.3,759.5,1319.2,758.7z"/>
			<path class="st2" d="M1450.4,761.5c6.6-0.8,13.5-1.1,20.7-0.8c7.2,0.3,14.1,1.5,20.7,3.7c6.6,2.2,12.6,5.4,17.9,9.7
				c5.4,4.3,9.5,10,12.4,17c2.1,5,3.1,10,3.2,15c0.1,5.1-0.6,9.9-2.2,14.5c-1.5,4.6-3.8,9.1-6.8,13.3c-3,4.2-6.4,8.1-10.4,11.6
				c-8.5,7.6-17.7,14.1-27.9,19.5c-10.1,5.4-20.7,9.5-31.9,12.4c-4.7,1.2-9.6,2.3-14.7,3.2c-5.1,0.9-10.2,1.4-15.3,1.4
				c-5.2,0-10.2-0.6-15.2-1.7c-5-1.1-9.6-3-13.9-5.7c-3.1-1.9-5-4.3-5.6-7.4c-1.2-3.5-2.6-6.8-4-9.9c-1.4-3.1-2.8-6.3-4.2-9.6
				c-1.3-3.3-2.4-6.6-3.2-9.9c-0.8-3.3-1.2-6.7-1.2-10.2c0-7,1.5-13.7,4.5-20c3-6.3,7.1-11.8,12.2-16.6c8.7-8.3,18.7-14.9,30-19.8
				C1427.1,766.4,1438.7,763.1,1450.4,761.5z M1485.4,788.1c-5.6-2.1-11.6-3.1-17.9-3.1c-6.8-0.2-13.6,0.5-20.4,2
				c-6.8,1.5-13.3,3.7-19.5,6.3c-5.8,2.3-11.7,5.4-17.8,9.4c-6.1,4-10.6,8.9-13.5,14.7c-1.7,3.1-2.4,6.2-2.3,9.4
				c0.1,3.2,0.6,6.4,1.5,9.6c0.9,3.2,2.2,6.4,3.7,9.6c1.5,3.2,2.9,6.3,4.2,9.4c3.3,0.8,5.4,1.2,6.2,1.2c0.4,0.2,0.9,0.3,1.5,0.3
				c0.6,0,1.1,0,1.5,0c4.1,0.4,7.8,0.3,11.1-0.3c2.3,0,5.2-0.4,8.7-1.2c5.4-1,10.5-2.4,15.5-4.2c5-1.8,9.5-3.7,13.6-5.7
				c4.7-2.3,9.4-4.7,13.9-7.4c4.5-2.7,8.4-5.5,11.5-8.4c2.1-1.9,4-3.8,5.9-5.9c1-1,1.8-1.9,2.2-2.5c1-1.4,1.9-2.5,2.5-3.2
				c0.6-0.7,1.1-1.6,1.5-2.6c0.8-1.4,1.2-2.6,1.2-3.4c0.2-0.4,0.4-0.9,0.5-1.5c0.1-0.6,0.3-1.1,0.5-1.5v-3.4
				c-0.2-0.8-0.3-1.4-0.3-1.9c0-0.4-0.1-0.8-0.3-1.2c-0.6-1.4-1.2-2.5-1.7-3.2c-0.5-0.7-1.1-1.5-1.7-2.3c0.2,0.2-0.1-0.1-0.8-0.9
				c-0.7-0.8-1.2-1.3-1.4-1.5l-2.5-2.5c-1-0.6-2.2-1.3-3.4-2.2C1487.9,789.1,1486.6,788.5,1485.4,788.1z"/>
		</g>
	</g>
	<g class="st3">
		<path class="st2" d="M449.2,523.3c-0.7,3.1-2.4,5.7-5,7.8c-2.6,2.1-5.9,2.8-10,2c-0.6-0.1-4.6-1.3-7.5-2.1
			c-1.6,1-25.9-5.8-50.2,15.1c-24.9,21.4-31.7,46.8-35.3,58.9c-4.2,14.2-10,58.6-15.2,82.3c-5.6,25.5-17.5,47.1-39.4,64.8
			c-24.1,19.4-57.2,24.2-67.6,23.7c-4.5-0.2-8.9-0.5-13.3-1.5c-4-0.8-6.7-2.7-8.1-5.8c-1.4-3-1.7-7.8-1-10.9c0.7-3.1,2.4-5.7,5-7.8
			c2.6-2.1,5.9-2.8,10-2c0.6,0.1,4.6,1.3,7.5,2.1c1.6-1,25.9,5.8,50.2-15.1c24.9-21.4,32.6-48.3,35.3-60.6
			c3.3-14.5,8.6-59,15.2-80.5c7.7-24.9,17.5-47.1,39.4-64.8c24.1-19.4,57.2-24.1,67.6-23.7c4.5,0.2,8.9,0.5,13.3,1.5
			c4,0.8,6.7,2.7,8.1,5.8C449.6,515.5,450,520.2,449.2,523.3"/>
		<path class="st2" d="M376.6,734.8c24.3,20.9,48.6,14.2,50.2,15.1c2.9-0.8,6.9-2,7.5-2.1c4-0.8,7.3-0.1,10,2c2.6,2.1,4.3,4.7,5,7.8
			c0.7,3.1,0.4,7.8-1,10.9c-1.4,3.1-4.1,5-8.1,5.8c-4.4,1-8.9,1.3-13.3,1.5c-10.4,0.4-43.5-4.3-67.6-23.7
			c-10.6-8.5-18.3-18.2-24.4-28.6c5.4-9.7,9.2-20.1,11.8-31.3C351.6,704.9,360.2,720.7,376.6,734.8"/>
		<path class="st2" d="M299.8,590.5c-4.9-13.3-13.9-30.1-30.5-44.4C245,525.2,220.7,532,219.1,531c-2.9,0.8-6.9,1.9-7.5,2.1
			c-4,0.8-7.4,0.1-10-2c-2.6-2.1-4.3-4.7-5-7.8c-0.7-3.1-0.4-7.8,1-10.9c1.4-3.1,4.1-5,8.1-5.8c4.4-1,8.9-1.3,13.3-1.5
			c10.4-0.4,43.5,4.3,67.6,23.7c10.2,8.2,18.2,17.3,24.4,27.2c-3.1,7.2-5.7,14.6-8.1,22.3C301.9,581.9,300.8,586,299.8,590.5"/>
		<path class="st2" d="M448.8,805.3c-7.3,2.9-14.8,5.3-22.6,7.2c-3.3,0.7-6,0.2-8.1-1.4c-2.2-1.6-3.6-3.7-4.3-6.1
			c-0.7-2.4-0.5-4.9,0.5-7.4c1-2.5,3.2-4.2,6.5-5c7.4-1.9,14.5-4.2,21.3-6.9c6.8-2.7,13.8-5.3,21.1-7.9c5-1.7,9.8-3.6,14.5-5.6
			c4.6-2,9-4.4,13.2-7.4c-5-2.9-10.2-5.6-15.7-8c-5.5-2.4-10.8-5.1-15.8-8c-6-3.3-12-6.7-17.8-10.3c-5.9-3.6-11.8-7.2-17.8-10.9
			c-2.8-1.7-4.3-4-4.7-6.7c-0.3-2.8,0.1-5.2,1.4-7.5c1.3-2.2,3.2-3.8,5.7-4.8c2.5-0.9,5.2-0.6,8.1,1.2c5.8,3.6,11.7,7.2,17.6,10.8
			c5.9,3.6,11.8,7.1,17.8,10.6c7.7,4.1,15.5,8.1,23.4,11.8c7.8,3.7,15.1,8.3,21.8,13.8c2.2,1.9,3.3,4.3,3.1,7.4
			c-0.2,3-1.2,5.5-3.1,7.3c-6,6.2-12.8,11.2-20.3,15.1c-7.5,3.9-15.3,7.3-23.4,10.2C463.5,799.6,456.1,802.4,448.8,805.3"/>
		<path class="st2" d="M471.1,485.5c8.1,2.9,15.9,6.3,23.4,10.2c7.5,3.9,14.3,8.9,20.3,15.1c1.9,1.9,2.9,4.4,3.1,7.4
			c0.2,3-0.9,5.5-3.1,7.3c-6.7,5.5-14,10.1-21.8,13.8c-7.8,3.7-15.6,7.6-23.4,11.7c-6,3.5-12,7-17.8,10.6
			c-5.9,3.6-11.7,7.2-17.6,10.9c-2.9,1.7-5.7,2.1-8.1,1.2c-2.5-0.9-4.4-2.5-5.7-4.8c-1.3-2.2-1.8-4.7-1.4-7.5c0.3-2.8,1.9-5,4.7-6.7
			c6-3.6,12-7.2,17.8-10.9c5.8-3.6,11.8-7.1,17.8-10.3c5-2.9,10.2-5.6,15.8-8c5.5-2.4,10.8-5.1,15.7-8c-4.1-2.9-8.5-5.4-13.2-7.4
			c-4.7-2-9.5-3.8-14.5-5.5c-7.2-2.6-14.3-5.2-21.1-7.9c-6.8-2.7-13.9-5-21.3-6.9c-3.3-0.9-5.4-2.5-6.5-5c-1-2.5-1.2-5-0.5-7.4
			c0.7-2.4,2.1-4.4,4.3-6.1c2.2-1.6,4.9-2.1,8.1-1.4c7.7,1.9,15.3,4.3,22.6,7.2C456.1,480.2,463.5,483,471.1,485.5"/>
		<g>
			<path class="st2" d="M621.8,568.2c-9.7-5.6-17.8-12.7-24.3-21.4c-6.5-8.7-11.5-18.2-15-28.5c-3.5-10.3-5.7-21.1-6.5-32.3
				c-0.8-11.2-0.5-22.3,0.9-33.3c0.8-6.4,1.9-13,3.2-19.8c1.3-6.8,3.1-13.5,5.4-20.1c2.3-6.6,5.1-12.9,8.5-18.9
				c3.4-6,7.5-11.3,12.2-16.1c8.3-8,17.7-13,28.5-14.9c10.7-1.9,21.5-0.6,32.2,3.7c11.1,4.5,21.4,11.1,30.6,19.7
				c9.3,8.6,16.5,18.3,21.7,29.2c6,12.4,9.3,25.4,10.1,39.1c0.7,13.7-0.7,27.2-4.2,40.4c-3.5,13.6-8.8,26.4-15.8,38.4
				c2.3,2.9,4.6,5.7,7,8.5c2.4,2.8,4.9,5.6,7.6,8.5c2.7,2.9,3.8,6,3.2,9.3c-0.5,3.3-1.9,6-4,8.2c-2.2,2.2-4.8,3.4-8,3.7
				c-3.2,0.3-6.1-1-8.8-3.9c-3.9-4.1-7.7-8.6-11.5-13.3c-4.1,5-9,9.9-14.5,14.9c-2.7,2.3-5.6,4.8-8.8,7.6c-3.2,2.8-6.7,5.3-10.4,7.4
				c-3.7,2.2-7.5,3.8-11.3,5c-3.8,1.1-7.7,1.2-11.6,0.2c-5.4-1.2-9.2-3.9-11.5-8C624.5,577.4,622.8,572.9,621.8,568.2z M607.9,425.5
				c-3.9,12.4-6.4,25.1-7.4,38.2c-1,13.1-0.1,25.8,2.8,38.2c2.3,8.7,5.5,16.7,9.6,24c4.1,7.3,9.7,13.4,16.7,18.1
				c0.6-0.2,1.6-0.3,3.1-0.3c2.7,0,5,0.7,6.8,2c1.9,1.3,3.3,3.2,4.3,5.4c4.5,1.9,7.1,5.1,7.7,9.6c2.7-1.9,4.8-3.4,6.5-4.6
				c1.6-1.2,3.3-2.7,5-4.3c3.1-2.9,6-5.8,8.8-8.7c2.8-2.9,5.3-6,7.6-9.3c-2.7-3.9-5.4-7.8-8.2-11.6c-2.8-3.8-5.6-7.6-8.5-11.3
				c-2.3-2.7-3.5-5.6-3.7-8.8c-0.2-3.2,1-6,3.7-8.5c2.3-2.3,5.2-3.5,8.7-3.7c3.5-0.2,6.4,1,8.7,3.7c2.3,2.9,4.5,5.8,6.7,8.8
				c2.2,3,4.4,5.9,6.7,8.8c3.3-7.2,6-14.5,8-22c2.1-7.4,3.2-14.9,3.6-22.4c0.3-7.5-0.2-14.9-1.5-22.1c-1.3-7.2-3.9-14-7.6-20.4
				c-2.5-4.3-5.3-8.6-8.5-12.7c-3.2-4.1-6.8-7.8-10.8-11.1c-4-3.3-8.3-6.1-12.8-8.5c-4.5-2.4-9.3-4-14.2-4.8
				c-3.5-0.8-7.4-0.8-11.6,0c-4.2,0.8-7.8,2.6-10.7,5.3c-5,4.3-8.9,9.4-11.9,15.2C612.1,413.3,609.7,419.3,607.9,425.5z"/>
			<path class="st2" d="M890.1,470.7c0.2,17.7,1.4,35.5,3.7,53.2c2.3,17.7,5.3,35.3,9,52.6c0.8,3.9,0.2,7.2-2,9.7
				c-2.2,2.6-4.7,4.3-7.6,5.1c-2.9,0.8-5.8,0.6-8.7-0.6c-2.9-1.2-4.7-3.8-5.6-7.7c-2.5-11.8-4.6-23.3-6.5-34.7c-0.8,1-1.5,2-2.2,2.9
				c-0.6,0.9-1.3,1.9-2.2,2.9c-4.1,5-8.9,9.2-14.2,12.8c-5.4,3.6-11.1,6.4-17.2,8.4c-6.1,2-12.3,3-18.7,3.2
				c-6.4,0.2-12.7-0.5-18.9-2.2c-10.9-3.1-19.3-8.5-25.1-16.1c-5.8-7.6-9.9-16.3-12.4-26.2c-2.5-9.8-3.9-20-4.3-30.6
				c-0.4-10.6-0.7-20.5-0.9-29.6c0-3.9,1.2-6.9,3.7-8.8c2.5-2,5.3-2.9,8.4-2.9c3.1,0,5.9,1,8.5,2.9c2.6,2,4,4.9,4.2,8.8
				c0.2,8.3,0.4,16.6,0.5,25.1c0.1,8.5,1,16.4,2.6,23.8c0.8,4.1,1.8,7.7,2.8,10.7c1,3,2.7,6.1,5,9.4c1,1.4,1.6,2.3,1.7,2.5
				c0.1,0.2,0.4,0.4,0.8,0.6c3.1,2.5,5.2,4,6.2,4.5c1,0.5,2.3,1,3.7,1.4c8.7,2.5,17.4,2.2,26.3-0.8c8.9-3,16-8.4,21.4-16.2
				c3.1-5,5.4-10.1,7-15.5c1.5-5.4,2.6-10.8,3.2-16.2c0.6-5.5,1.1-11,1.4-16.7c0.3-5.7,0.9-11.3,1.7-16.9c0-6.2,1.6-10.3,4.8-12.2
				c3.2-2,6.5-2.6,10.1-2c2.1,0.6,3.7,1.3,5,2.2l2.5,2.2C889.9,463.6,890.7,467.2,890.1,470.7z"/>
			<path class="st2" d="M948.6,571.6c-7-3.1-12.5-7.4-16.6-12.8c-4-5.5-6.8-11.5-8.4-18.1c-1.5-6.6-2-13.5-1.4-20.6
				c0.6-7.1,2.1-14,4.3-20.6c1.9-5.2,4-10.5,6.3-16.1c2.4-5.6,5.2-10.7,8.5-15.5c3.3-4.7,7.2-8.8,11.8-12.2
				c4.5-3.4,9.9-5.6,16.1-6.7c6.4-1,12.8-1.4,19.3-1.1c6.5,0.3,12.9,1,19.3,2c2.9,0.4,5.7,1.1,8.4,2c2.7,0.9,5.4,1.9,8,2.9
				c0.2-3.1,1.6-5.7,4.2-7.7c2.6-2.1,5.3-3.1,8.2-3.1c3.5,0,6.3,1.2,8.5,3.6c2.2,2.4,3.5,5.2,3.9,8.5c1,9.5,1.5,19,1.4,28.5
				c-0.1,9.5-0.4,19-0.9,28.5c-0.5,9.5-0.9,19-1.2,28.5c-0.3,9.5-0.3,19,0.2,28.5c0.2,3.9-1,6.9-3.6,8.8c-2.6,2-5.4,2.9-8.5,2.9
				c-3.1,0-5.9-1-8.5-2.9c-2.6-2-4-4.9-4.2-8.8c-11.8,5-24.2,7.8-37.4,8.5C973.1,579.3,960.5,576.9,948.6,571.6z M950.8,504.4
				c-1.2,3.7-2.4,7.9-3.4,12.7c-1,4.7-1.3,9.3-0.9,13.6c0.4,4.3,1.8,8.3,4,11.9c2.3,3.6,6,6.1,11.1,7.6c10.5,3.3,21.1,4.2,31.7,2.8
				c10.6-1.4,20.6-5.2,29.9-11.1c0.8-10.1,1.5-19.9,2-29.4c0.5-9.5,0.7-19.1,0.5-28.8c-3.5-2.3-7.1-4.3-10.7-6
				c-3.6-1.8-7.6-2.9-11.9-3.6c-4.3-0.6-8.9-1.1-13.8-1.4c-4.8-0.3-9.5-0.3-14.1,0.2c-0.4,0-1.5,0.3-3.2,0.8
				c-1.8,0.5-2.7,0.9-2.9,1.1c-2.1,1-3.9,2.7-5.6,5c-2.7,3.7-5.1,7.7-7.1,11.9C954.3,495.8,952.4,500.1,950.8,504.4z"/>
			<path class="st2" d="M1099.3,337c3.7,0,6.6,1.2,8.7,3.7c2.1,2.5,3.3,5.4,3.7,8.7c2.1,19.6,3.2,39.2,3.4,58.8
				c0.2,19.6-0.1,39.2-0.8,58.8c-0.7,19.6-1.8,39.2-3.2,58.8c-1.4,19.6-2.9,39.1-4.3,58.5c-0.4,3.5-1.7,6.4-3.9,8.8
				c-2.2,2.4-5,3.6-8.5,3.6c-3.1,0-6-1.2-8.7-3.6c-2.7-2.4-3.9-5.3-3.7-8.8c1.4-19.4,2.9-38.9,4.5-58.5c1.5-19.6,2.7-39.2,3.4-58.8
				c0.7-19.6,1-39.2,0.8-58.8c-0.2-19.6-1.3-39.2-3.4-58.8c-0.4-3.3,0.7-6.2,3.4-8.7C1093.3,338.2,1096.2,337,1099.3,337z"/>
			<path class="st2" d="M1296.4,666.3c-5.6,2.3-11.2,2.5-16.9,0.8c-5.7-1.8-11-3.9-15.9-6.3c-4.1-2.3-8-4.7-11.8-7.3
				c-3.7-2.6-6.8-5.9-9.3-10.1c-2.3-3.7-4-7.6-5.3-11.8c-1.2-4.1-2.2-8.3-2.8-12.4c-2.5-12.4-4-24.9-4.6-37.4c0-3.3-0.1-6.5-0.3-9.7
				c-0.2-3.2-0.4-6.4-0.6-9.7c-10.5-1-21-2.6-31.6-4.8c-10.5-2.2-20.2-5.9-29.1-11.3c-6-3.7-10.9-8-14.7-13c-3.8-5-7-10.6-9.4-17
				c-1.9-5.2-3-10.6-3.4-16.4c-0.4-5.8,0-11.5,1.2-17c1.2-5.6,3.2-10.8,6-15.8c2.8-5,6.3-9.2,10.7-12.7c5.4-4.1,11.1-7.4,17.3-9.9
				c6.2-2.5,12.5-4.5,18.9-6.2c6.8-1.9,13.7-3.3,20.7-4.5c7-1.1,14.1-1.9,21.4-2.3c0.6-5,2.6-8.2,5.9-9.7c3.3-1.5,6.5-1.9,9.6-1.1
				c3.5,1,5.9,2.9,7.3,5.7c1.3,2.8,1.8,5.9,1.4,9.4c-1.9,11.1-3.1,22.3-3.9,33.4c-0.7,11.1-1.5,22.4-2.3,33.7
				c-0.4,5.6-0.9,11.1-1.4,16.7c-0.5,5.6-0.8,11.1-0.8,16.7c-0.2,5.6-0.1,11.1,0.3,16.7c0.4,5.6,0.8,11.1,1.2,16.7
				c0.4,9.3,0.9,18.8,1.4,28.6c0.5,9.8,2.4,19.1,5.7,28c0.4,0.8,0.7,1.3,0.8,1.5c0.1,0.2,0.5,0.8,1.1,1.9c1.9,2.5,3.2,4.1,4.2,4.8
				c0.9,0.7,2.2,1.5,3.9,2.3c2.7,1.2,5.7,2.8,9,4.6c3.3,1.9,6.5,2.2,9.6,0.9c3.1-1.2,6.1-0.8,9.1,1.2c3,2.1,5,4.5,6,7.4
				c1,3.5,0.6,6.6-1.2,9.3C1302,663.1,1299.5,665,1296.4,666.3z M1230.2,505.4c0.4-8.3,0.9-16.5,1.4-24.6c0.5-8.1,1.2-16.3,2-24.6
				c-5.2,0.4-10.2,1-15.2,1.9c-5,0.8-9.9,2-14.9,3.4c-4.7,1.2-9.6,2.7-14.5,4.3c-5,1.7-9.5,3.9-13.6,6.8c-3.1,2.3-5.4,5-7,8
				c-1.5,3.1-2.5,6.4-2.9,9.9c-0.4,3.5-0.3,7,0.3,10.5c0.6,3.5,1.4,6.7,2.5,9.6c0.6,1,1,1.7,1.1,2c0.1,0.3,0.4,0.7,0.8,1.1
				c0.4,0.6,1,1.6,1.9,2.9c0.8,1.3,1,1.8,0.6,1.4c0.8,0.8,1.6,1.6,2.3,2.3c0.7,0.7,1.5,1.4,2.3,2c1.9,1.4,3,2.3,3.6,2.5
				c0.5,0.2,1.1,0.5,1.7,0.9c3.3,1.9,6.5,3.3,9.6,4.3c3.1,1,6.7,2.1,10.8,3.1c4.1,1,8.3,1.9,12.5,2.6c4.2,0.7,8.4,1.3,12.5,1.7
				c0.2-5.4,0.5-10.7,0.9-16.1C1229.4,516.1,1229.8,510.7,1230.2,505.4z"/>
			<path class="st2" d="M1418.7,470.7c0.2,17.7,1.4,35.5,3.7,53.2c2.3,17.7,5.3,35.3,9,52.6c0.8,3.9,0.2,7.2-2,9.7
				c-2.2,2.6-4.7,4.3-7.6,5.1c-2.9,0.8-5.8,0.6-8.7-0.6c-2.9-1.2-4.7-3.8-5.6-7.7c-2.5-11.8-4.6-23.3-6.5-34.7c-0.8,1-1.5,2-2.2,2.9
				c-0.6,0.9-1.3,1.9-2.2,2.9c-4.1,5-8.9,9.2-14.2,12.8c-5.4,3.6-11.1,6.4-17.2,8.4c-6.1,2-12.3,3-18.7,3.2
				c-6.4,0.2-12.7-0.5-18.9-2.2c-10.9-3.1-19.3-8.5-25.1-16.1c-5.8-7.6-9.9-16.3-12.4-26.2c-2.5-9.8-3.9-20-4.3-30.6
				c-0.4-10.6-0.7-20.5-0.9-29.6c0-3.9,1.2-6.9,3.7-8.8c2.5-2,5.3-2.9,8.4-2.9c3.1,0,5.9,1,8.5,2.9c2.6,2,4,4.9,4.2,8.8
				c0.2,8.3,0.4,16.6,0.5,25.1c0.1,8.5,1,16.4,2.6,23.8c0.8,4.1,1.8,7.7,2.8,10.7c1,3,2.7,6.1,5,9.4c1,1.4,1.6,2.3,1.7,2.5
				c0.1,0.2,0.4,0.4,0.8,0.6c3.1,2.5,5.2,4,6.2,4.5c1,0.5,2.3,1,3.7,1.4c8.7,2.5,17.4,2.2,26.3-0.8c8.9-3,16-8.4,21.4-16.2
				c3.1-5,5.4-10.1,7-15.5c1.5-5.4,2.6-10.8,3.2-16.2c0.6-5.5,1.1-11,1.4-16.7c0.3-5.7,0.9-11.3,1.7-16.9c0-6.2,1.6-10.3,4.8-12.2
				c3.2-2,6.5-2.6,10.1-2c2.1,0.6,3.7,1.3,5,2.2l2.5,2.2C1418.5,463.6,1419.3,467.2,1418.7,470.7z"/>
			<path class="st2" d="M1464.2,459.9c3.9-5.4,8.6-10.1,14.1-14.2c5.5-4.1,11.3-7.4,17.5-9.7c6.2-2.4,12.6-3.6,19.2-3.7
				c6.6-0.1,13.2,1.2,19.8,3.9c6.4,2.5,12.2,5.8,17.3,10.1c5.2,4.2,9.2,9.6,12.1,16.2c2.3,5,3.6,10.3,4,16.1
				c0.4,5.8-1.1,11-4.6,15.8c-3.1,4.3-6.9,7.6-11.3,9.9c-4.4,2.3-9.2,3.9-14.2,5c-5.1,1-10.2,1.5-15.5,1.5c-5.3,0-10.3-0.1-15-0.3
				c-5.4-0.2-10.7-0.6-15.9-1.2c-5.3-0.6-10.6-1.2-15.9-1.9c1.6,9.3,5,17.5,9.9,24.8c5,7.2,11.7,12.7,20.1,16.4
				c2.3,0.8,4,1.4,5.3,1.9c0.6,0.2,1.2,0.4,1.7,0.5c0.5,0.1,1.1,0.2,1.7,0.2c1.6,0.2,3,0.4,4.2,0.5c1.1,0.1,2.2,0.1,3.2-0.2
				c1.4-0.2,2.4-0.4,2.9-0.5c0.5-0.1,1.1-0.3,1.7-0.5c2.3-0.6,4.3-1.3,6-2.2c1.8-0.8,3.9-2.2,6.3-4c1.2-1,2.9-2.6,5-4.6
				c2.1-2.1,3.8-3.9,5.3-5.6c2.1-2.9,4.6-4.8,7.6-5.9c3-1,6-0.6,9.1,1.2c2.7,1.7,4.6,4.2,5.7,7.6c1.1,3.4,0.7,6.6-1.4,9.4
				c-6,8-13.1,14.9-21.2,20.6c-8.2,5.7-17.5,8.7-28,9.1c-8.5,0.4-16.6-1.1-24.4-4.5c-7.8-3.4-14.8-8-20.7-13.8
				c-7.4-7.2-13.3-15.6-17.6-25.1c-4.3-9.5-6.7-19.2-7.1-29.1c-1.9-1.4-3.2-3.2-4.2-5.4c-0.9-2.2-1.2-4.4-0.9-6.7
				c0.3-2.3,1.1-4.4,2.3-6.3c1.2-2,3.1-3.2,5.6-3.9C1455.9,473.6,1459.4,466.5,1464.2,459.9z M1538.4,467.3
				c-2.3-2.9-5.8-5.5-10.5-7.7c-3.9-1.6-8.5-2.5-13.8-2.5c-5.3,0-9.7,0.9-13.5,2.8c-4.7,2.3-9,5.4-12.7,9.4c-3.7,4-6.7,8.5-9,13.5
				c5,0.6,9.9,1.2,14.9,1.9c5,0.6,9.9,1,14.9,1.2c2.7,0,5.4,0,8,0c2.7,0,5.4-0.1,8-0.3c0.8,0,1.6,0,2.3-0.2c0.7-0.1,1.5-0.2,2.3-0.2
				c1.9-0.4,3.2-0.7,4.2-0.8c0.9-0.1,1.9-0.4,2.9-0.8c0.8-0.2,1.9-0.5,3.1-0.9c1-0.4,1.6-0.7,1.9-0.9c0.2-0.2,0.5-0.4,0.9-0.6
				l0.9-3.7c-0.4-0.8-0.7-1.6-0.8-2.3c-0.1-0.7-0.4-1.4-0.8-2c-0.2-0.6-0.7-1.5-1.4-2.8C1539.7,469.1,1539.1,468.1,1538.4,467.3z"/>
			<path class="st2" d="M1598.2,454c0.2-3.9,1.6-6.9,4.3-8.8c2.7-2,5.6-2.9,8.7-2.9s5.8,1,8.2,2.9c2.4,2,3.5,4.9,3.2,8.8
				c0,1.2-0.1,2.5-0.2,3.9c-0.1,1.3-0.2,2.6-0.2,3.9c6.6-3.3,13.6-6.1,20.9-8.5c7.3-2.4,14.6-3.9,22-4.5c7.3-0.6,14.4,0,21.4,1.7
				c6.9,1.8,13.3,5.1,19,10.1c2.9,2.7,4.2,5.6,3.9,8.7c-0.3,3.1-1.5,5.7-3.7,7.9c-2.2,2.2-4.9,3.5-8.2,4c-3.3,0.5-6.5-0.5-9.6-2.9
				c-2.3-1.9-4.8-3.2-7.6-4c-2.8-0.8-5.8-1.2-9-1.1c-3.2,0.1-6.4,0.5-9.6,1.1c-3.2,0.6-6.2,1.3-9.1,2.2
				c-10.9,3.5-21.1,8.2-30.6,13.9c0.4,10.1,1,20.2,1.9,30.3c0.8,8.5,1.5,17.2,2.2,26.2c0.6,9,2.4,17.5,5.3,25.5
				c1.2,3.7,1,6.9-0.8,9.4c-1.8,2.6-4.1,4.3-7.1,5.1c-3,0.8-6.1,0.6-9.3-0.6c-3.2-1.2-5.4-3.7-6.7-7.4c-1.7-4.7-2.8-9.6-3.4-14.5
				c-0.6-5-1.2-9.9-1.9-14.9c-0.4-4.7-0.9-9.5-1.4-14.4c-0.5-4.8-1-9.6-1.4-14.4c-1-11.1-1.7-22.2-2-33.3
				C1597.1,476.2,1597.3,465.1,1598.2,454z"/>
		</g>
		<g>
			<path class="st2" d="M582.8,715.5c-0.4-0.4-0.8-0.8-1.1-1.2c-0.3-0.4-0.7-0.8-1.1-1.2c-2.5-2.5-3.7-5.1-3.6-7.9
				c0.1-2.8,0.9-5.3,2.5-7.4c1.5-2.2,3.6-3.8,6.2-5c2.6-1.1,5.2-1.2,7.9-0.2c3.3-0.4,6.4,0.4,9.4,2.3c3,2,4.5,5.1,4.5,9.4
				c10.5,12.6,20.4,25,29.7,37.1c9.3,12.2,17.7,25.1,25.4,38.7c3.5,6.2,6.8,12.5,9.7,19c3,6.5,5.8,13.1,8.5,19.7
				c0-8.5,0.4-16.8,1.1-25.1c0.7-8.3,1.6-16.7,2.6-25.4c2.3-17.7,4.5-35.4,6.7-53.1c2.2-17.6,3.4-35.5,3.6-53.7
				c0-3.9,1.3-6.9,3.9-8.8c2.6-2,5.4-2.9,8.5-2.9c3.1,0,5.9,1,8.5,2.9c2.6,2,3.9,4.9,3.9,8.8c-0.2,18.6-1.5,36.9-3.9,54.9
				c-2.4,18.1-4.7,36.2-7,54.3c-1,9.3-1.9,18.4-2.5,27.4c-0.6,9-0.8,18.1-0.6,27.4c0.2,8.9,0.5,17.6,0.8,26.3
				c0.3,8.7,0.3,17.4-0.2,26.3c-0.2,3.1-1.2,5.6-2.9,7.6c-1.8,2-3.9,3.2-6.3,3.9c-2.5,0.6-5,0.5-7.4-0.3c-2.5-0.8-4.5-2.5-6.2-5
				c-4.7-7.2-8.8-14.8-12.1-22.7c-3.3-7.9-6.4-15.8-9.3-23.7c-2.9-7.6-5.9-15-9-22.1c-3.1-7.1-6.6-14.2-10.5-21.2
				c-5.2-9.3-10.7-18.2-16.6-26.6c-5.9-8.5-12.1-16.7-18.7-24.8c0,8.5,0,16.8,0,24.9c0,8.2,0.2,16.5,0.6,24.9
				c0.4,14.9,1.4,29.6,3.1,44.1c1.6,14.5,3.4,29.1,5.3,43.8c0.4,3.5-0.8,6.4-3.6,8.8c-2.8,2.4-5.6,3.6-8.5,3.6
				c-3.7,0-6.6-1.2-8.7-3.6c-2.1-2.4-3.3-5.3-3.7-8.8c-2.1-14.6-3.9-29.2-5.6-43.8c-1.7-14.5-2.7-29.2-3.1-44.1
				c-0.4-13-0.6-25.9-0.5-38.8C582.7,741.4,582.8,728.5,582.8,715.5z"/>
			<path class="st2" d="M750.5,776.8c3.9-5.4,8.6-10.1,14.1-14.2c5.5-4.1,11.3-7.4,17.5-9.7c6.2-2.4,12.6-3.6,19.2-3.7
				c6.6-0.1,13.2,1.2,19.8,3.9c6.4,2.5,12.2,5.8,17.3,10.1c5.2,4.2,9.2,9.6,12.1,16.2c2.3,5,3.6,10.3,4,16.1
				c0.4,5.8-1.1,11-4.6,15.8c-3.1,4.3-6.9,7.6-11.3,9.9c-4.4,2.3-9.2,3.9-14.2,5c-5.1,1-10.2,1.5-15.5,1.5s-10.3-0.1-15-0.3
				c-5.4-0.2-10.7-0.6-15.9-1.2c-5.3-0.6-10.6-1.2-15.9-1.9c1.6,9.3,5,17.5,9.9,24.8c5,7.2,11.7,12.7,20.1,16.4
				c2.3,0.8,4,1.4,5.3,1.9c0.6,0.2,1.2,0.4,1.7,0.5c0.5,0.1,1.1,0.2,1.7,0.2c1.6,0.2,3,0.4,4.2,0.5c1.1,0.1,2.2,0.1,3.2-0.2
				c1.4-0.2,2.4-0.4,2.9-0.5c0.5-0.1,1.1-0.3,1.7-0.5c2.3-0.6,4.3-1.3,6-2.2c1.8-0.8,3.9-2.2,6.3-4c1.2-1,2.9-2.6,5-4.6
				c2.1-2.1,3.8-3.9,5.3-5.6c2.1-2.9,4.6-4.8,7.6-5.9c3-1,6-0.6,9.1,1.2c2.7,1.7,4.6,4.2,5.7,7.6c1.1,3.4,0.7,6.6-1.4,9.4
				c-6,8-13.1,14.9-21.2,20.6c-8.2,5.7-17.5,8.7-28,9.1c-8.5,0.4-16.6-1.1-24.4-4.5c-7.8-3.4-14.8-8-20.7-13.8
				c-7.4-7.2-13.3-15.6-17.6-25.1c-4.3-9.5-6.7-19.2-7.1-29.1c-1.9-1.4-3.2-3.2-4.2-5.4c-0.9-2.2-1.2-4.4-0.9-6.7
				c0.3-2.3,1.1-4.4,2.3-6.3c1.2-2,3.1-3.2,5.6-3.9C742.3,790.5,745.8,783.4,750.5,776.8z M824.8,784.2c-2.3-2.9-5.8-5.5-10.5-7.7
				c-3.9-1.6-8.5-2.5-13.8-2.5c-5.3,0-9.7,0.9-13.5,2.8c-4.7,2.3-9,5.4-12.7,9.4c-3.7,4-6.7,8.5-9,13.5c5,0.6,9.9,1.2,14.9,1.9
				c5,0.6,9.9,1,14.9,1.2c2.7,0,5.4,0,8,0c2.7,0,5.4-0.1,8-0.3c0.8,0,1.6,0,2.3-0.2c0.7-0.1,1.5-0.2,2.3-0.2
				c1.9-0.4,3.2-0.7,4.2-0.8c0.9-0.1,1.9-0.4,2.9-0.8c0.8-0.2,1.9-0.5,3.1-0.9c1-0.4,1.6-0.7,1.9-0.9c0.2-0.2,0.5-0.4,0.9-0.6
				l0.9-3.7c-0.4-0.8-0.7-1.6-0.8-2.3c-0.1-0.7-0.4-1.4-0.8-2c-0.2-0.6-0.7-1.5-1.4-2.8C826.1,786,825.4,785,824.8,784.2z"/>
			<path class="st2" d="M882.7,976.1c4.5,4.3,9.8,7.4,15.8,9.1c6,1.8,12,2.3,17.9,1.7c6-0.6,11.7-2.4,17-5.3
				c5.4-2.9,9.8-6.9,13.3-12.1c7.4-10.5,12.2-22.1,14.4-34.8c2.2-12.7,3-25.4,2.6-38.2c-9.9,1.6-20.1,2-30.5,1.1
				c-10.4-0.9-20.3-3.1-29.6-6.7c-4.7-1.9-9.2-4.1-13.5-6.7c-4.2-2.6-7.6-6.2-10.1-11c-4.3-8-6.2-16.9-5.6-26.6
				c0.4-9.3,2-18.3,4.8-27.1c2.8-8.8,5.9-17.5,9.4-26.2c1.9-4.1,3.9-8.5,6-13.2c2.2-4.6,5-8.8,8.5-12.5c3.5-3.9,7.5-6.9,12.1-9
				c4.5-2.1,9.4-3.3,14.5-3.7c-0.8-2.9-0.8-5.6,0-8.2c0.8-2.6,2.6-4.7,5.3-6.3c2.7-1.6,5.8-2.1,9.4-1.2c3.6,0.8,6.1,2.7,7.6,5.6
				c0.8,1.9,1.6,3.7,2.3,5.6c0.7,1.9,1.4,3.7,2,5.6c4.1,11.1,7.9,22.4,11.3,33.7c3.4,11.4,6.7,22.8,9.7,34.4
				c3.7,13.6,6.5,27.4,8.4,41.5c1.9,14,2.6,28.3,2.2,42.7c-0.2,8-0.9,16.3-2,24.8c-1.1,8.5-3,16.6-5.7,24.4
				c-2.7,7.8-6.2,15.3-10.5,22.4c-4.3,7.1-9.9,13.3-16.7,18.4c-6.4,5-13.5,8.5-21.2,10.7c-7.7,2.2-15.6,3-23.5,2.6
				c-7.9-0.4-15.7-2.2-23.2-5.3c-7.5-3.1-14.2-7.4-20-13c-2.9-2.7-4.1-5.6-3.7-8.8c0.4-3.2,1.7-5.9,3.9-8c2.2-2.2,4.8-3.5,8-3.9
				C876.7,972.2,879.8,973.4,882.7,976.1z M917,869.3c7.2,1.9,14.7,3.2,22.4,3.9c7.7,0.7,15.2,0.3,22.4-1.4
				c-1.2-10.5-3-20.6-5.4-30.3c-2.4-9.7-5-19.5-7.9-29.4c-1.7-5.8-3.4-11.5-5.1-17c-1.8-5.6-3.6-11.1-5.4-16.7
				c-0.6,0.4-1.3,0.7-2.2,0.8c-0.8,0.1-1.8,0.3-2.8,0.5c-6.2,0-10.9,2.8-14.2,8.4c-2.3,3.5-4.1,7.2-5.6,11.1c-0.4,1-0.8,2-1.2,2.9
				c-0.4,0.9-0.8,1.9-1.2,2.9c-3.1,7.4-5.7,14.6-7.9,21.5c-2.2,6.9-3.5,13.7-3.9,20.3v5.6c0.2,1.4,0.4,2.6,0.6,3.4
				c0.4,1.9,0.7,3,0.8,3.4c0.1,0.4,0.7,1.4,1.7,3.1c1.2,1,2.4,1.9,3.4,2.5c1,0.6,1.6,1,1.9,1.2c1.6,0.6,3.2,1.2,4.8,1.9
				C913.8,868.4,915.4,868.9,917,869.3z"/>
			<path class="st2" d="M1085.7,754.2c6.6-0.8,13.5-1.1,20.7-0.8c7.2,0.3,14.1,1.5,20.7,3.7c6.6,2.2,12.6,5.4,17.9,9.7
				c5.4,4.3,9.5,10,12.4,17c2.1,5,3.1,10,3.2,15c0.1,5.1-0.6,9.9-2.2,14.5c-1.5,4.6-3.8,9.1-6.8,13.3c-3,4.2-6.4,8.1-10.4,11.6
				c-8.5,7.6-17.7,14.1-27.9,19.5c-10.1,5.4-20.7,9.5-31.9,12.4c-4.7,1.2-9.6,2.3-14.7,3.2c-5.1,0.9-10.2,1.4-15.3,1.4
				c-5.2,0-10.2-0.6-15.2-1.7c-5-1.1-9.6-3-13.9-5.7c-3.1-1.9-5-4.3-5.6-7.4c-1.2-3.5-2.6-6.8-4-9.9c-1.4-3.1-2.8-6.3-4.2-9.6
				c-1.3-3.3-2.4-6.6-3.2-9.9c-0.8-3.3-1.2-6.7-1.2-10.2c0-7,1.5-13.7,4.5-20c3-6.3,7.1-11.8,12.2-16.6c8.7-8.3,18.7-14.9,30-19.8
				C1062.4,759.1,1073.9,755.8,1085.7,754.2z M1120.7,780.8c-5.6-2.1-11.6-3.1-17.9-3.1c-6.8-0.2-13.6,0.5-20.4,2
				c-6.8,1.5-13.3,3.7-19.5,6.3c-5.8,2.3-11.7,5.4-17.8,9.4c-6.1,4-10.6,8.9-13.5,14.7c-1.7,3.1-2.4,6.2-2.3,9.4
				c0.1,3.2,0.6,6.4,1.5,9.6c0.9,3.2,2.2,6.4,3.7,9.6c1.5,3.2,2.9,6.3,4.2,9.4c3.3,0.8,5.4,1.2,6.2,1.2c0.4,0.2,0.9,0.3,1.5,0.3
				c0.6,0,1.1,0,1.5,0c4.1,0.4,7.8,0.3,11.1-0.3c2.3,0,5.2-0.4,8.7-1.2c5.4-1,10.5-2.4,15.5-4.2c5-1.8,9.5-3.7,13.6-5.7
				c4.7-2.3,9.4-4.7,13.9-7.4c4.5-2.7,8.4-5.5,11.5-8.4c2.1-1.9,4-3.8,5.9-5.9c1-1,1.8-1.9,2.2-2.5c1-1.4,1.9-2.5,2.5-3.2
				c0.6-0.7,1.1-1.6,1.5-2.6c0.8-1.4,1.2-2.6,1.2-3.4c0.2-0.4,0.4-0.9,0.5-1.5c0.1-0.6,0.3-1.1,0.5-1.5v-3.4
				c-0.2-0.8-0.3-1.4-0.3-1.9c0-0.4-0.1-0.8-0.3-1.2c-0.6-1.4-1.2-2.5-1.7-3.2c-0.5-0.7-1.1-1.5-1.7-2.3c0.2,0.2-0.1-0.1-0.8-0.9
				c-0.7-0.8-1.2-1.3-1.4-1.5l-2.5-2.5c-1-0.6-2.2-1.3-3.4-2.2C1123.1,781.8,1121.9,781.2,1120.7,780.8z M1099.9,689.8
				c2.7-2.1,5.6-3.2,8.7-3.6c3.1-0.3,6,0.9,8.7,3.6c2.3,2.3,3.5,5.2,3.7,8.8c0.2,3.6-1,6.6-3.7,8.8c-14.9,11.4-30.3,21.1-46.4,29.4
				c-3.5,1.9-6.8,2.1-9.9,0.8c-3.1-1.3-5.4-3.3-7-6c-1.5-2.7-2.1-5.6-1.7-8.7c0.4-3.1,2.4-5.6,5.9-7.4c7.4-3.7,14.6-7.6,21.5-11.8
				C1086.6,699.6,1093.3,695,1099.9,689.8z"/>
			<path class="st2" d="M1268.3,872.7c0.8,2.9,0.4,6-1.2,9.3c-1.7,3.3-4.1,5.3-7.4,5.9c-11.1,1.9-22.2,1.7-33.1-0.5
				c-10.9-2.2-21-6.9-30.3-14.1c-9.1-7.2-15.5-16.5-19.3-27.7c-3.8-11.2-4.5-22.5-2-33.9c2.3-10.1,7-18.9,14.2-26.3
				c7.2-7.4,15.5-13.2,24.8-17.3c8.3-3.9,16.9-7,26-9.3c9.1-2.3,18.2-3,27.2-2.2c3.5,0.4,6.4,1.7,8.8,3.9c2.4,2.2,3.6,5,3.6,8.5
				c0,3.1-1.2,6-3.6,8.7c-2.4,2.7-5.3,3.9-8.8,3.7c-6.6-0.6-13.1-0.3-19.5,0.9c-6.4,1.2-12.6,3.2-18.6,5.9c-3.5,1.7-7,3.4-10.4,5.3
				c-3.4,1.9-6.3,3.9-8.8,6.2c-2.7,2.5-4.9,5-6.7,7.4c-1.8,2.5-3,5.4-3.9,8.7c-0.8,3.3-1.1,6.8-0.9,10.5c0.2,3.7,0.9,7.4,2,11
				c1.1,3.6,2.7,6.9,4.8,9.9c2.1,3,4.5,5.5,7.4,7.6c6,4.3,12.5,7.3,19.7,8.8s14.1,1.7,20.9,0.5c3.3-0.6,6.4-0.2,9.3,1.2
				C1265.3,866.7,1267.2,869.2,1268.3,872.7z"/>
			<path class="st2" d="M1297,893.7c1.6-9.9,3.6-19.7,5.7-29.2c2.2-9.6,3.8-19.3,4.8-29.2c0.8-9.7,1-19.2,0.5-28.6
				c-0.5-9.4,0-18.9,1.7-28.6c0.4-3.3,2.3-5.8,5.7-7.4c3.4-1.6,6.5-2.1,9.4-1.2c3.5,1,5.9,3,7.3,5.9c1.3,2.9,1.8,6,1.4,9.3
				c-0.8,4.7-1.2,9.6-1.1,14.5c0.1,5,0.3,9.9,0.5,14.9c0,9.5-0.6,19-1.9,28.5c-1.2,9.9-2.8,19.6-4.8,29.1c-2,9.5-3.8,19.1-5.4,28.8
				c-0.6,3.3-2.6,5.8-5.9,7.4c-3.3,1.6-6.4,2.1-9.3,1.2c-3.5-1-6-3-7.4-5.9C1296.8,900.1,1296.4,897,1297,893.7z M1311.9,751.4
				c-1.4-0.4-2.9-1.1-4.3-2c-1.4-0.9-2.5-2.1-3.1-3.6c-0.6-1.6-1.1-3.1-1.5-4.3c-0.4-1.2-0.6-2.7-0.6-4.3c0-1.9,0.3-3.7,0.9-5.6
				c0.8-3.7,2.5-6.4,5-8c0.8-1.2,2-2.2,3.4-2.8c2.3-1.4,4.8-2.2,7.7-2.3c2.9-0.1,5.5,0.7,7.7,2.3c1,0.8,2.1,1.7,3.1,2.6
				c1,0.9,1.9,2.1,2.5,3.6c0.4,1,0.9,2.2,1.4,3.4c0.5,1.2,0.7,2.5,0.5,3.7c-0.2,1.4-0.4,2.8-0.6,4c-0.2,1.2-0.7,2.4-1.5,3.4
				c-1,1.4-1.9,2.5-2.5,3.1c-0.6,0.6-1.7,1.4-3.1,2.5c-0.8,0.8-2.1,1.4-3.7,1.9C1318.7,751.4,1315,752.2,1311.9,751.4z"/>
			<path class="st2" d="M1443.1,754.2c6.6-0.8,13.5-1.1,20.7-0.8c7.2,0.3,14.1,1.5,20.7,3.7c6.6,2.2,12.6,5.4,17.9,9.7
				c5.4,4.3,9.5,10,12.4,17c2.1,5,3.1,10,3.2,15c0.1,5.1-0.6,9.9-2.2,14.5c-1.5,4.6-3.8,9.1-6.8,13.3c-3,4.2-6.4,8.1-10.4,11.6
				c-8.5,7.6-17.7,14.1-27.9,19.5c-10.1,5.4-20.7,9.5-31.9,12.4c-4.7,1.2-9.6,2.3-14.7,3.2c-5.1,0.9-10.2,1.4-15.3,1.4
				c-5.2,0-10.2-0.6-15.2-1.7c-5-1.1-9.6-3-13.9-5.7c-3.1-1.9-5-4.3-5.6-7.4c-1.2-3.5-2.6-6.8-4-9.9c-1.4-3.1-2.8-6.3-4.2-9.6
				c-1.3-3.3-2.4-6.6-3.2-9.9c-0.8-3.3-1.2-6.7-1.2-10.2c0-7,1.5-13.7,4.5-20c3-6.3,7.1-11.8,12.2-16.6c8.7-8.3,18.7-14.9,30-19.8
				C1419.8,759.1,1431.4,755.8,1443.1,754.2z M1478.1,780.8c-5.6-2.1-11.6-3.1-17.9-3.1c-6.8-0.2-13.6,0.5-20.4,2
				c-6.8,1.5-13.3,3.7-19.5,6.3c-5.8,2.3-11.7,5.4-17.8,9.4c-6.1,4-10.6,8.9-13.5,14.7c-1.7,3.1-2.4,6.2-2.3,9.4
				c0.1,3.2,0.6,6.4,1.5,9.6c0.9,3.2,2.2,6.4,3.7,9.6c1.5,3.2,2.9,6.3,4.2,9.4c3.3,0.8,5.4,1.2,6.2,1.2c0.4,0.2,0.9,0.3,1.5,0.3
				c0.6,0,1.1,0,1.5,0c4.1,0.4,7.8,0.3,11.1-0.3c2.3,0,5.2-0.4,8.7-1.2c5.4-1,10.5-2.4,15.5-4.2c5-1.8,9.5-3.7,13.6-5.7
				c4.7-2.3,9.4-4.7,13.9-7.4c4.5-2.7,8.4-5.5,11.5-8.4c2.1-1.9,4-3.8,5.9-5.9c1-1,1.8-1.9,2.2-2.5c1-1.4,1.9-2.5,2.5-3.2
				c0.6-0.7,1.1-1.6,1.5-2.6c0.8-1.4,1.2-2.6,1.2-3.4c0.2-0.4,0.4-0.9,0.5-1.5c0.1-0.6,0.3-1.1,0.5-1.5v-3.4
				c-0.2-0.8-0.3-1.4-0.3-1.9c0-0.4-0.1-0.8-0.3-1.2c-0.6-1.4-1.2-2.5-1.7-3.2c-0.5-0.7-1.1-1.5-1.7-2.3c0.2,0.2-0.1-0.1-0.8-0.9
				c-0.7-0.8-1.2-1.3-1.4-1.5l-2.5-2.5c-1-0.6-2.2-1.3-3.4-2.2C1480.6,781.8,1479.3,781.2,1478.1,780.8z"/>
		</g>
	</g>
</g>
</svg>
