<?xml version="1.0" encoding="utf-8"?>
<!-- Generator: Adobe Illustrator 22.0.1, SVG Export Plug-In . SVG Version: 6.00 Build 0)  -->
<svg version="1.1" id="Camada_1" xmlns="http://www.w3.org/2000/svg" xmlns:xlink="http://www.w3.org/1999/xlink" x="0px" y="0px"
	 viewBox="0 0 1920 1312" style="enable-background:new 0 0 1920 1312;" xml:space="preserve">
<style type="text/css">
	.st0{fill:#EA5297;}
</style>
<g id="Lolitas_C">
	<g>
		<path class="st0" d="M640.2,908.3h-4.1v13.8c1.4,0.5,2.9,0.7,4.5,0.7c2.2,0,3.9-0.7,5.1-2.1c1.2-1.4,1.8-3.2,1.8-5.4
			c0-2.1-0.6-3.8-1.9-5.1C644.3,908.9,642.5,908.3,640.2,908.3z"/>
		<path class="st0" d="M1304.4,910.1c-1.3-1.2-3.1-1.9-5.4-1.9h-4.2v13.7h4.3c2.3,0,4.1-0.6,5.4-1.9c1.3-1.3,1.9-3,1.9-5.1
			C1306.4,913,1305.7,911.4,1304.4,910.1z"/>
		<polygon class="st0" points="694.6,928.5 706.1,928.5 700.3,913.4 		"/>
		<path class="st0" d="M1235.9,907.9c-3.2,0-5.8,1.2-7.9,3.7c-2,2.5-3,5.9-3,10.1c0,4.9,1.1,8.9,3.3,11.9c2.2,3,5.2,4.4,9.1,4.4
			c3.2,0,5.9-1.3,7.9-3.8c2-2.6,3-5.9,3-10.1c0-4.8-1.1-8.7-3.4-11.7C1242.8,909.4,1239.7,907.9,1235.9,907.9z"/>
		<path class="st0" d="M454.4,910.1c-1.3-1.2-3.1-1.9-5.4-1.9h-4.2v13.7h4.3c2.3,0,4.1-0.6,5.4-1.9c1.3-1.3,1.9-3,1.9-5.1
			C456.3,913,455.7,911.4,454.4,910.1z"/>
		<polygon class="st0" points="938.8,928.5 950.3,928.5 944.5,913.4 		"/>
		<path class="st0" d="M1547.5,878.1H374.3c-25.4,0-45.9,20.6-45.9,45.9l0,0c0,25.4,20.6,45.9,45.9,45.9h1173.2
			c25.4,0,45.9-20.6,45.9-45.9l0,0C1593.4,898.7,1572.9,878.1,1547.5,878.1z M1234.8,891h10.1l-13,9.8L1234.8,891z M456.5,943.5
			l-6.8-12.6c-0.7-1.4-1.4-2.3-2-2.8s-1.3-0.7-2.1-0.7h-0.9v9.3c0,1.6,0.2,2.8,0.5,3.8s0.7,1.7,1.2,2.2s0.9,0.7,1.4,0.8H433
			c0.5-0.1,1.1-0.4,1.6-0.8c0.5-0.5,0.9-1.2,1.2-2.2c0.3-1,0.5-2.3,0.5-3.8v-26.9c0-3.9-1.2-6.3-3.7-7.1h17.9
			c4.4,0,7.9,1.1,10.5,3.4c2.6,2.3,4,5.1,4,8.5c0,2.9-0.9,5.3-2.7,7.5c-1.8,2.1-4.2,3.4-7.3,3.8c1.1,0.7,2.1,1.8,3.1,3.6l5.5,9.4
			c0.8,1.4,1.7,2.5,2.7,3.3s1.9,1.2,2.7,1.3H456.5z M528.7,938.1c-4,4.2-9,6.3-15.3,6.3c-5.9,0-10.7-1.9-14.4-5.8
			c-3.7-3.9-5.5-8.8-5.5-14.9c0-4,0.9-7.8,2.7-11.1c1.8-3.4,4.4-6,7.7-7.9c3.3-1.9,7-2.9,11-2.9c5.9,0,10.6,1.9,14.3,5.8
			c3.7,3.9,5.5,8.8,5.5,14.9C534.6,928.7,532.7,933.9,528.7,938.1z M596.9,904.8c-0.6,1.2-0.9,2.8-0.9,4.8v19.2
			c0,10.4-5.3,15.6-16,15.6c-5.9,0-10.1-1.2-12.8-3.7s-4-6.2-4-11.2v-19.9c0-4-1.1-6.2-3.2-6.9h15.1c-0.5,0.1-1,0.4-1.4,0.8
			c-0.5,0.5-0.9,1.2-1.2,2.1c-0.3,1-0.5,2.2-0.5,3.7V929c0,3.4,0.7,5.8,2.1,7.2c1.4,1.4,3.5,2.1,6.4,2.1c3,0,5.1-0.8,6.3-2.3
			c1.2-1.6,1.8-3.9,1.8-7v-19.5c0-4-1.2-6.4-3.6-6.9h14.4C598.4,902.8,597.5,903.5,596.9,904.8z M652.3,924.8
			c-2.7,2.5-6.3,3.7-10.8,3.7c-2,0-3.8-0.2-5.5-0.7v8.9c0,1.6,0.2,2.8,0.6,3.8c0.4,1,0.8,1.7,1.3,2.2s1.1,0.7,1.7,0.8h-15
			c1-0.1,1.8-0.8,2.3-2c0.6-1.2,0.9-2.8,0.9-4.8v-27c0-1.9-0.3-3.5-0.9-4.7c-0.6-1.2-1.5-2-2.7-2.3H643c4,0,7.2,1.2,9.7,3.5
			s3.7,5.3,3.7,8.9C656.4,919.1,655.1,922.3,652.3,924.8z M708.1,943.5c0.7-0.1,1.2-0.4,1.6-0.9c0.4-0.5,0.6-1.2,0.6-2
			c0-0.6-0.7-2.9-2.2-6.8h-15.6c-1.3,3.5-1.9,5.6-1.9,6.5c0,1,0.3,1.7,0.8,2.3c0.5,0.5,1.1,0.8,1.7,0.9h-13.7
			c0.8-0.1,1.7-0.9,2.8-2.2c1-1.3,2-3.2,3-5.6l12.9-33h7.2l13.5,33.1c1.7,4.4,3.7,7,5.8,7.7H708.1z M772.3,941
			c-2.8,2.2-6.5,3.4-11.4,3.4c-4.7,0-8.7-1-12.1-3.1v-11.6c2.6,5.7,6.7,8.6,12.3,8.6c1.9,0,3.5-0.4,4.8-1.2s2-2,2-3.4
			c0-1.3-0.5-2.5-1.6-3.6s-2.8-2.2-5.3-3.4c-4.9-2.2-8.1-4.2-9.7-6.1c-1.6-1.9-2.4-4.1-2.4-6.6c0-3.7,1.3-6.6,4-8.9
			c2.7-2.2,6.2-3.3,10.6-3.3c2,0,3.8,0.3,5.7,0.8c1.8,0.5,3.3,1.2,4.4,2v9.7c-1.1-1.9-2.6-3.4-4.5-4.7c-2-1.2-4-1.9-6.1-1.9
			c-2,0-3.6,0.4-4.6,1.3c-1,0.9-1.5,1.9-1.5,3.2c0,1.1,0.5,2.2,1.4,3.2s3.1,2.2,6.5,3.8c4.5,2,7.5,4,9.1,6s2.4,4.3,2.4,7
			C776.4,935.8,775.1,938.8,772.3,941z M864.6,943.5h-28c0.5-0.1,1-0.4,1.5-0.9s0.9-1.3,1.3-2.3c0.3-1,0.5-2.4,0.5-4.1v-26.6
			c0-1.8-0.3-3.3-1-4.6c-0.7-1.2-1.6-2-2.8-2.3h27.8v10.9c-0.6-2-1.5-3.3-2.7-4.1s-2.8-1.2-4.8-1.2h-7.7v11.8h6.7
			c2.6,0,4.2-0.7,4.9-2.1v9.7c-0.1-0.5-0.5-1-1.3-1.4s-2-0.6-3.5-0.6h-6.9v12.2h8.3c2.6,0,4.5-0.4,5.9-1.3c1.3-0.8,2.6-2.3,3.7-4.5
			L864.6,943.5z M952.3,943.5c0.7-0.1,1.2-0.4,1.6-0.9c0.4-0.5,0.6-1.2,0.6-2c0-0.6-0.7-2.9-2.2-6.8h-15.6c-1.3,3.5-1.9,5.6-1.9,6.5
			c0,1,0.3,1.7,0.8,2.3c0.5,0.5,1.1,0.8,1.7,0.9h-13.7c0.8-0.1,1.7-0.9,2.8-2.2c1-1.3,2-3.2,3-5.6l12.9-33h7.2l13.5,33.1
			c1.7,4.4,3.7,7,5.8,7.7H952.3z M1026.7,938.7c-1.4,1.7-3.3,3-5.7,4.1s-4.9,1.6-7.6,1.6c-6.3,0-11.3-1.9-15-5.7s-5.6-8.7-5.6-14.7
			c0-4.1,0.9-7.8,2.8-11.2c1.8-3.4,4.4-6.1,7.8-8s7.3-2.9,11.7-2.9s8,0.8,11,2.4v11.8c-0.9-2.4-2.4-4.3-4.3-5.8
			c-2-1.5-4.4-2.2-7.3-2.2c-3.6,0-6.6,1.4-8.9,4.2c-2.3,2.8-3.5,6.4-3.5,10.7c0,4.4,1.2,8,3.5,10.9s5.3,4.3,9.1,4.3
			c2.2,0,4.4-0.6,6.6-1.7c2.2-1.1,4.1-2.7,5.6-4.6v6.8H1026.7z M1080.7,943.5h-28c0.5-0.1,1-0.4,1.5-0.9s0.9-1.3,1.3-2.3
			c0.3-1,0.5-2.4,0.5-4.1v-26.6c0-1.8-0.3-3.3-1-4.6c-0.7-1.2-1.6-2-2.8-2.3h27.8v10.9c-0.6-2-1.5-3.3-2.7-4.1s-2.8-1.2-4.8-1.2
			h-7.7v11.8h6.7c2.6,0,4.2-0.7,4.9-2.1v9.7c-0.1-0.5-0.5-1-1.3-1.4s-2-0.6-3.5-0.6h-6.9v12.2h8.3c2.6,0,4.5-0.4,5.9-1.3
			c1.3-0.8,2.6-2.3,3.7-4.5L1080.7,943.5z M1131.5,941c-2.8,2.2-6.5,3.4-11.4,3.4c-4.7,0-8.7-1-12.1-3.1v-11.6
			c2.6,5.7,6.7,8.6,12.3,8.6c1.9,0,3.5-0.4,4.8-1.2s2-2,2-3.4c0-1.3-0.5-2.5-1.6-3.6s-2.8-2.2-5.3-3.4c-4.9-2.2-8.1-4.2-9.7-6.1
			c-1.6-1.9-2.4-4.1-2.4-6.6c0-3.7,1.3-6.6,4-8.9c2.7-2.2,6.2-3.3,10.6-3.3c2,0,3.8,0.3,5.7,0.8c1.8,0.5,3.3,1.2,4.4,2v9.7
			c-1.1-1.9-2.6-3.4-4.5-4.7c-2-1.2-4-1.9-6.1-1.9c-2,0-3.6,0.4-4.6,1.3c-1,0.9-1.5,1.9-1.5,3.2c0,1.1,0.5,2.2,1.4,3.2
			s3.1,2.2,6.5,3.8c4.5,2,7.5,4,9.1,6s2.4,4.3,2.4,7C1135.6,935.8,1134.2,938.8,1131.5,941z M1185.7,941c-2.8,2.2-6.5,3.4-11.4,3.4
			c-4.7,0-8.7-1-12.1-3.1v-11.6c2.6,5.7,6.7,8.6,12.3,8.6c1.9,0,3.5-0.4,4.8-1.2s2-2,2-3.4c0-1.3-0.5-2.5-1.6-3.6s-2.8-2.2-5.3-3.4
			c-4.9-2.2-8.1-4.2-9.7-6.1c-1.6-1.9-2.4-4.1-2.4-6.6c0-3.7,1.3-6.6,4-8.9c2.7-2.2,6.2-3.3,10.6-3.3c2,0,3.8,0.3,5.7,0.8
			c1.8,0.5,3.3,1.2,4.4,2v9.7c-1.1-1.9-2.6-3.4-4.5-4.7c-2-1.2-4-1.9-6.1-1.9c-2,0-3.6,0.4-4.6,1.3c-1,0.9-1.5,1.9-1.5,3.2
			c0,1.1,0.5,2.2,1.4,3.2s3.1,2.2,6.5,3.8c4.5,2,7.5,4,9.1,6s2.4,4.3,2.4,7C1189.8,935.8,1188.4,938.8,1185.7,941z M1251.3,938.1
			c-4,4.2-9,6.3-15.3,6.3c-5.9,0-10.7-1.9-14.4-5.8c-3.7-3.9-5.5-8.8-5.5-14.9c0-4,0.9-7.8,2.7-11.1c1.8-3.4,4.4-6,7.7-7.9
			c3.3-1.9,7-2.9,11-2.9c5.9,0,10.6,1.9,14.3,5.8c3.7,3.9,5.5,8.8,5.5,14.9C1257.3,928.7,1255.3,933.9,1251.3,938.1z M1306.6,943.5
			l-6.8-12.6c-0.7-1.4-1.4-2.3-2-2.8s-1.3-0.7-2.1-0.7h-0.9v9.3c0,1.6,0.2,2.8,0.5,3.8s0.7,1.7,1.2,2.2s0.9,0.7,1.4,0.8h-14.8
			c0.5-0.1,1.1-0.4,1.6-0.8c0.5-0.5,0.9-1.2,1.2-2.2c0.3-1,0.5-2.3,0.5-3.8v-26.9c0-3.9-1.2-6.3-3.7-7.1h17.9
			c4.4,0,7.9,1.1,10.5,3.4c2.6,2.3,4,5.1,4,8.5c0,2.9-0.9,5.3-2.7,7.5c-1.8,2.1-4.2,3.4-7.3,3.8c1.1,0.7,2.1,1.8,3.1,3.6l5.5,9.4
			c0.8,1.4,1.7,2.5,2.7,3.3s1.9,1.2,2.7,1.3H1306.6z M1355.9,941.6c0.6,1.1,1.3,1.8,2.3,1.9h-15c0.9-0.1,1.7-0.7,2.3-1.8
			c0.6-1.1,0.9-2.6,0.9-4.5v-27.9c0-3.7-1.1-5.9-3.2-6.6h15.1c-0.5,0.1-1,0.4-1.5,0.9s-0.9,1.2-1.2,2.1c-0.3,1-0.5,2.2-0.5,3.6v27.9
			C1355,939,1355.3,940.4,1355.9,941.6z M1419.1,938.1c-4,4.2-9,6.3-15.3,6.3c-5.9,0-10.7-1.9-14.4-5.8c-3.7-3.9-5.5-8.8-5.5-14.9
			c0-4,0.9-7.8,2.7-11.1c1.8-3.4,4.4-6,7.7-7.9c3.3-1.9,7-2.9,11-2.9c5.9,0,10.6,1.9,14.3,5.8c3.7,3.9,5.5,8.8,5.5,14.9
			C1425.1,928.7,1423.1,933.9,1419.1,938.1z M1474.9,941c-2.8,2.2-6.5,3.4-11.4,3.4c-4.7,0-8.7-1-12.1-3.1v-11.6
			c2.6,5.7,6.7,8.6,12.3,8.6c1.9,0,3.5-0.4,4.8-1.2s2-2,2-3.4c0-1.3-0.5-2.5-1.6-3.6s-2.8-2.2-5.3-3.4c-4.9-2.2-8.1-4.2-9.7-6.1
			c-1.6-1.9-2.4-4.1-2.4-6.6c0-3.7,1.3-6.6,4-8.9c2.7-2.2,6.2-3.3,10.6-3.3c2,0,3.8,0.3,5.7,0.8c1.8,0.5,3.3,1.2,4.4,2v9.7
			c-1.1-1.9-2.6-3.4-4.5-4.7c-2-1.2-4-1.9-6.1-1.9c-2,0-3.6,0.4-4.6,1.3c-1,0.9-1.5,1.9-1.5,3.2c0,1.1,0.5,2.2,1.4,3.2
			s3.1,2.2,6.5,3.8c4.5,2,7.5,4,9.1,6s2.4,4.3,2.4,7C1479,935.8,1477.7,938.8,1474.9,941z"/>
		<path class="st0" d="M513.3,907.9c-3.2,0-5.9,1.2-7.9,3.7s-3,5.9-3,10.1c0,4.9,1.1,8.9,3.3,11.9c2.2,3,5.2,4.4,9.1,4.4
			c3.2,0,5.9-1.3,7.9-3.8c2-2.6,3-5.9,3-10.1c0-4.8-1.1-8.7-3.4-11.7C520.1,909.4,517.1,907.9,513.3,907.9z"/>
		<path class="st0" d="M1403.7,907.9c-3.2,0-5.8,1.2-7.9,3.7c-2,2.5-3,5.9-3,10.1c0,4.9,1.1,8.9,3.3,11.9c2.2,3,5.2,4.4,9.1,4.4
			c3.2,0,5.9-1.3,7.9-3.8c2-2.6,3-5.9,3-10.1c0-4.8-1.1-8.7-3.4-11.7C1410.6,909.4,1407.5,907.9,1403.7,907.9z"/>
	</g>
	<path class="st0" d="M967.3,676.4c9,0.4,16.2-5.9,16.6-15.1c0.4-9-6.1-16.2-15.1-16.6c-9.2-0.4-16.2,6.1-16.6,15.1
		C951.7,669,958,676,967.3,676.4z"/>
	<path class="st0" d="M310.2,681.6L506,575.8v20.5l-119,64.4c-34.9,18.9-146.5,76.7,18.2,76.7h73.2c0,0,9.8,16.1,0,16.1H328.5
		C288.8,753.5,275.3,700.5,310.2,681.6z"/>
	<path class="st0" d="M797.5,731.3c-4.6,2.3-2.9,4.3-2.9,4.3c0,24.4-5.1,81.8-61.4,83.9c-48.8,1.9-49.7-23.6-100.1-33
		c0.4-0.8,4.6-5.1,10.6-26.2c5-17.5,7.6-27.5,10.6-53.6l0.5-6.1c33.4-20.5,62.5-72.2,64.4-114.8c0.7-14.7-1.5-29.7-6.4-42
		c-6-14.5-16.2-25.4-28-25.9c-8.3-0.4-18.3,5.1-27.5,16.1c-18.7,25.5-34.7,85.6-33.8,141.3c1.1,69.9-19.8,104.3-21,106.8
		c-0.3,0-7.1,0.1-13.3,0.5c-7.6,0.5-16.7,2.1-23.5,4.8c-11.1,4.5-17.1,10.3-17.5,18.2c-0.4,9.2,7.7,17.7,23.6,18.4
		c2.8,0.1,5.9,0,9-0.3c17.4-2.1,36-10.5,44.7-23.1c43.7,7.9,62.2,36.7,100,36.7c73,0,79.7-79,79.7-99.6c0-1.1-0.1-2.1-0.1-3.1
		C804.5,730.8,801.5,729.3,797.5,731.3z M657.5,670.9c3.4-38.3,13.8-102.9,23.2-127.1c3.7-9.1,7-12.3,9.8-12.1
		c4.3,0.2,9.1,7.5,12.6,16c4.4,11.8,6.4,25.2,5.8,38.4c-1.7,36.7-25.4,81.2-52.9,101.1C656.8,681.3,656.6,678.7,657.5,670.9z
		 M565.6,811.5c-4.7-0.2-7-1.7-6.9-3.9c0.4-9.7,26.8-11.3,34.4-11.2h0.9C587.7,804.3,576.5,812,565.6,811.5z"/>
	<path class="st0" d="M656,687.2c0,0-67.8,50.3-177.5,50.3v16.1c0,0,115.5,0.5,176.4-52.9C688,668.6,656,687.2,656,687.2"/>
	<g>
		<path class="st0" d="M904.5,204.8c0-74.5,110.6-76.9,110.6-13.9c2.8,19.3,31.7,17.7,36.1,0.9c-5.1-50.4-45.9-77.4-90.2-78.6
			c-45.7-0.6-100.6,36-97.3,93.8c1.3,29.8,9.2,47.9,27.8,75.5c40.6,61-4.6,87.2-7.9,89l-0.2,0.1l0,0l0,0L864,382l34.8,0.1l25-27.7
			h78.6l41.9,27.8l13.9,0.1C952,314.2,904.5,267,904.5,204.8z"/>
	</g>
	<g>
		<path class="st0" d="M828.4,730.1c0-1.2,0.1-2.4,0.1-3.6c-0.1,1.7-0.1,3.3-0.2,4.9C828.4,730.9,828.4,730.5,828.4,730.1z"/>
		<path class="st0" d="M1611.7,682.1l-259.1-140.3L1006,354l0,0c-0.9-0.6-1.8-1.1-2.7-1.7h-84.6L568.9,541.8l-158.7,86
			c1.7,1.2,3.2,2.9,4.2,4.9c4.7,1.2,90.5-41.1,91.6-36.2c-0.3,1,101.3-54.6,101.3-54.6l335.2-181.6c11.4-6.2,25.1-6.2,36.4,0
			l335.2,181.6l220.7,119.5c34.9,18.9,146.5,76.7-18.2,76.7h-73.2c0,0-65,0-123.9,20.2c-6.7-9.6-11.7-19-9.7-27.4
			c3.2-12.9,20.9-6.4,21.8,5c0.9,6.2,10.2,5.7,11.6,0.3c-1.6-16.2-14.8-24.9-29-25.3c-14.7-0.2-32.3,11.6-31.2,30.1
			c0,0.2,0,0.4,0,0.6c-16.8,32.4-35.2,49.5-48.5,48.9c-18.5-0.8-8.3-51.8-5.9-62.2c5.8-24.2-22.8-30.2-31.7-7.1
			c-4.3,11.2-15.1,70.2-26.8,68.7c-27.8-3.5,1.4-61.1,14.4-60.5c2.6,0.1,4.3,0.2,5.8-1.6c4.2-4.8-4.6-14.2-15.2-14.7
			c-19-0.9-36,16.5-41.2,35.3c-11.9,22.2-30.8,53.4-48.2,53.4c-23.9-0.1-22.8-57.2-22.1-72.1c1.5-33.8,8.2-71.2,12.8-92.8
			c12.9,3,36.4,7.1,53.9,7.9c23.2,1.1,45.2-2.5,54.1-17c2.2-5.6-5.4-11.4-9.3-4.5c-5.4,9.5-19.5,11.7-35.6,10.9
			c-20.6-0.9-45.2-7.3-59.5-11.2c2.2-7,2.8-9.6,5-15.7c0.6-12.5-27.4-19-31.8-5.2c-2.5,7.9-2.6,10.1-3.2,12.2
			c-11.7-2.9-29.6-5.9-48.3-6.7c-23-1-45.6,1.7-54.2,14.1c-3.6,5.5,4,11.6,8.5,6.5c7-7.5,19.5-11,34.6-10.3
			c18.9,0.9,42.1,6.9,56,10.6c-5,20.4-12.1,57.5-13.7,91.9c-0.1,3-0.2,6.4-0.2,10.1c-7.6,15.3-33.9,51-54,50
			c-7.1-0.3-8.5-10.8-8-23.1c0.7-15.4,6.6-34.8,6.9-41.2c0.3-6.2-6.8-11.7-14.9-12.1c-12.8-0.6-18.1,6.9-20.3,24.9
			c-10.1,19.3-40.4,60.9-62.3,61c-22.5,0.2-21.4-38.2-19.4-63c37.1-28,93.8-109.8,96.1-159c2.7-59.6-53.4-61.2-82.1-25.8
			c-18,22.4-33.1,76.4-40.8,127.5v0.1c-3.4,23.8-4.8,43-5.4,56.7c0,1.2-0.1,2.4-0.1,3.6c0,0.4,0,0.8-0.1,1.2
			c-0.4,11.8-0.1,18.2-0.1,18.2c1.6,33.4,9.8,56.4,38.1,57.7c28.6,1.3,57.2-28.4,74.9-54.9c0.4,21.4,6.4,42.5,26.5,43.4
			c25.7,1.2,50.8-21.8,66-45c3,34,15,73.7,52.8,66.7c16.6-3.2,31.3-18.8,44.8-41c-0.4,18.3,3.1,37.6,30.8,38.4
			c27.7,0.8,30.5-31.5,37.4-42.8c-1.1,23.4-4.2,34.2,23.1,35.5c18.7,0.9,43.7-14.1,64.6-50.6c1.7,3.5,4.1,7.1,7.2,11.6
			c-4.2,1.6-18.9,12.1-22.1,15.7c-6,6.7-14.2,15.9-16.2,27.3c-3.6,20.7,16.2,28.5,45.4,24.9c17.6-2.1,34.4-15.7,35.3-37.3
			c0.3-6.6-1-14.3-4.4-22.3l-5.7-9.3c-0.3-0.4-0.7-0.9-1-1.3c21.6-5.9,58.5-12.3,118-12.3h150.1C1633.2,754,1646.6,701,1611.7,682.1
			z M897.9,558.2c17.6-28.1,51.2-36.1,49.1,9.3c-2,43.3-50.3,117.7-85.3,145.5C866.5,667.3,874.7,595.1,897.9,558.2z M1290.2,826.9
			c-10.1,0-23.9-5.6-20-19.4c4.1-14.5,18-27.5,29.1-31c4,6.6,12,22.4,11.6,31.2C1310.5,815.3,1302.7,826.9,1290.2,826.9z"/>
		<path class="st0" d="M833.9,669.8C833.9,669.7,833.9,669.7,833.9,669.8c-3,20-4.9,39.6-5.4,56.7
			C829.1,712.8,830.6,693.6,833.9,669.8z"/>
		<path class="st0" d="M797,711.8c0,0-4.5-9.8-15.5-13.8c-11.1-3.9-31.8-2.8-39.2,0c-4.6,1.8-13.7,10-21,20.8
			c-20.1,29.9-6.8,63.4,22.1,75.3c18.4,7.5,43.5-3.2,51.2-21.8c1.3-3.3,2.5-6.7,2.5-10C809,744.7,806.9,724.5,797,711.8z
			 M790.8,751.8c-1.3,12.9-4.7,21.4-12.4,27.3c-7.7,5.9-20.1,6.7-28,3.5c-23.2-9.5-17.9-52.2,10.3-70
			C771.8,705.4,794.8,713,790.8,751.8z"/>
	</g>
	<path class="st0" d="M861.8,713.1c0,0-56.5,47.4-97.3,47.4c-28.7,0-18.5-34-18.5-34l-23.2,27.1c0,0,10,20.7,42.9,20.7
		s90.2-43.4,95-47.2C865.5,723.2,861.8,713.1,861.8,713.1z"/>
	<path class="st0" d="M418.3,724.4l-9,52.8c-0.6,3.8,2.3,7.2,6.1,7.2h9h9c3.8,0,6.7-3.4,6.1-7.2l-9-52.8
		C429.3,717.5,419.5,717.5,418.3,724.4z"/>
	<rect x="420.5" y="774.2" class="st0" width="7.7" height="107.7"/>
	<path class="st0" d="M1503.7,724.4l9,52.8c0.6,3.8-2.3,7.2-6.1,7.2h-9h-9c-3.8,0-6.7-3.4-6.1-7.2l9-52.8
		C1492.7,717.5,1502.5,717.5,1503.7,724.4z"/>
	<rect x="1493.7" y="774.2" class="st0" width="7.7" height="107.7"/>
</g>
</svg>
