<?xml version="1.0" encoding="utf-8"?>
<!-- Generator: Adobe Illustrator 22.0.1, SVG Export Plug-In . SVG Version: 6.00 Build 0)  -->
<svg version="1.1" id="EzReality_W" xmlns="http://www.w3.org/2000/svg" xmlns:xlink="http://www.w3.org/1999/xlink" x="0px"
	 y="0px" viewBox="0 0 1920 1312" style="enable-background:new 0 0 1920 1312;" xml:space="preserve">
<style type="text/css">
	.st0{fill:#FFFFFF;}
</style>
<path class="st0" d="M575.1,781.7c-11.7-33.2-21.5-65.8-21.4-107.6c-33.1,19.5-105.3,59.7-136.4,82.3c0.9-41.6,3.8-70,8.4-107.2
	c12.8-15.5,62.5-28.2,93.3-35c3.9-30.1,9.7-60.3,16.9-89.5c-30.8,6.4-61.4,13.3-91.9,20.7c5.3-20.4,11.4-40.4,18.1-60.1
	c30-7,60.2-13.5,90.5-19.4c15-3,5.1-1.3,20.1-4C583,425,597.5,381,613.4,339.8c-43.3,6.7-57.9,12.3-100.6,20.9
	c-45.9,9.4-91.5,19.8-136.7,31.4C319,542.4,254.9,803.5,321.6,984.4C395.3,904.5,480.9,836.1,575.1,781.7z"/>
<path class="st0" d="M737,642.1c-23.5,7.5-39,13.4-61.8,22.4c-4.8,1.9-9.7,3.9-14.5,5.8c8.6-21.6,30.4-80.4,78.9-174
	c2.6-14.6,7.8-42.5,11.7-62.4c-17.2,2-116.3,16.7-153.5,23.4c-5.1,18.8-9.7,38.1-13.7,57.7c30.1-5.7,60.3-10.8,90.7-15.4
	c-14.4,26.4-30,57.2-45.7,92.6c-7.2,16.2-14.5,33.2-21.7,51.3c-7.9,19.5-15.7,40.2-23.3,62c-2.5,7.1-5,14.3-7.4,21.7
	c3.1,16.4,7.3,32,12.8,46.4c50-27.9,102.4-51.8,156.7-71.4C739.2,675.1,737,642.2,737,642.1z"/>
<path class="st0" d="M804.2,622.7c-0.4-4.5-0.7-8.9-0.9-13.3c2.2,4.1,4.4,8,6.7,11.8c12.2,20.3,25.5,36.7,38.4,50
	c17.7-4.6,35.5-8.8,53.4-12.5c-13.8-12.5-28.5-28.6-42.3-49.3c-8.9-13.3-17.5-28.5-25.1-45.8c21-11.7,60.5-30.3,73.4-81.8
	c3.7-14.9,3.5-56.7,11.7-79C873,402,845.2,424,769.8,431.4c-1.9,8.7-3.7,17.4-5.4,26.2c-0.4,2.1-0.8,4.2-1.2,6.4
	c-0.6,3.1-1.1,6.2-1.6,9.3c-0.5,3-1,6-1.5,9c-0.2,1.2-0.4,2.4-0.6,3.7c-0.1,0.5-0.2,1-0.2,1.5c-0.4,2.7-0.9,5.5-1.2,8.3
	c-0.3,1.9-0.5,3.7-0.8,5.6c-0.2,1.1-0.3,2.2-0.4,3.3c-0.2,1.9-0.5,3.8-0.7,5.8c-0.4,3.5-0.8,7-1.2,10.5c-0.4,3.7-0.8,7.4-1.1,11.1
	c-0.4,3.8-0.7,7.6-1,11.4c-0.3,3.7-0.5,7.4-0.8,11.1c-0.4,6.2-0.7,12.4-0.9,18.6c-0.1,2.5-0.1,5.1-0.2,7.6c-0.1,2.4-0.1,4.7-0.1,7.1
	c0,0.3,0,0.6,0,0.9c0,2.2,0,4.3,0,6.5c0,2.3,0,4.6,0.1,6.9c0,1.4,0,2.9,0.1,4.3c0,1.5,0.1,3,0.1,4.5c0.1,2.1,0.1,4.1,0.2,6.2
	c0.1,2.4,0.2,4.8,0.4,7.2c0.1,2.3,0.3,4.6,0.4,6.8c0.1,2.2,0.3,4.5,0.5,6.7c0,0.1,0,0.2,0,0.2c0.1,1.3,0.2,2.5,0.4,3.8
	c0.2,2.3,0.4,4.6,0.7,6.9c0.2,1.8,0.4,3.5,0.6,5.3c0.4,3.2,0.8,6.4,1.3,9.6c0.2,1.2,0.4,2.5,0.6,3.7c0.2,1.4,0.4,2.8,0.7,4.2
	c0.2,1.1,0.3,2.2,0.5,3.2c0.7,4.1,1.5,8.1,2.3,12.1c0.4,2,0.8,3.9,1.3,5.9c0.4,1.6,0.8,3.2,1.1,4.7c16.7-5.9,33.5-11.4,50.5-16.4
	C808.5,661.2,805.8,641.7,804.2,622.7z M811.4,481.5c16.2-1.7,32.4-3.2,48.7-4.6c-2.3,23-27.8,48.7-55,50.3
	C806.7,511.1,808.9,495.8,811.4,481.5z"/>
<path class="st0" d="M1032.6,587.2c-24.3-0.7-60.9,4.6-71.1,6.9c-2-9.8-0.7-24.6-0.4-37.7c0-2,31-7,40.4-8.1
	c5.6-24.5,20.1-38.7,27.9-54.1c-14.6-0.2-47.9,6.5-66.4,11.3c0.6-12.9,2.5-22.6,5.1-34.8c31.5-3.1,71-4.4,104.4-2.8
	c6.4-14.6,23.3-53.9,32-71.6c-31,4.8-39.9,14.2-177.4,20.9c-10.5,76-20.2,140.2-13.2,239.1c36-7,69.4-12.1,106.4-15.4
	C1023,624.1,1029.4,601.7,1032.6,587.2z"/>
<path class="st0" d="M1103.4,552.5c2.6,0,9.5,2.9,16.8,3.3c7.6,0.4,15.5-1.9,18.2-1.9c-0.9,23.8-9.7,64.6-11.4,82.9
	c13.8,0,35.6,2.1,49.5,2.7c10.3-101.3-1.1-193.9-13.9-237.2c-4.9,2.9-13.2,10.3-24.8,10.2c-9.4-0.1-13.3-11.5-15.4-11.5
	c-24.9,56.6-81.8,170.7-92.4,239.4c14.7-1.2,41.6-2,56.4-2.6C1090.4,614.7,1098.5,571.8,1103.4,552.5z M1135.8,452
	c0.6,23.3,5.9,47,5.5,53.9c-2.1,0-7.9,2.5-13.5,2.3c-5.6-0.1-11-2.9-13-2.9C1118.9,488.4,1125.5,478.7,1135.8,452z"/>
<path class="st0" d="M1274.8,648.3c6-15.6,14.1-36.8,16-55.6c-6.7,6.4-20.1,7.6-26.4,5.7c-12-3.5-16.6-10.1-16.6-10.1
	c1.6-11.9,2.5-17.7,3.9-29.6c0.5-4.5,1-9,1.5-13.5c0.3-2.8,0.6-5.6,0.8-8.4c1.1-11.1,2.1-22.2,3-33.3c0.8-9.5,1.5-19,2.1-28.5
	c1.2-18.1,2.1-36.1,2.9-54.2c-34.1-1.5-42.1-10.4-53-19.9c-2.7,86.9-11.4,192.2-19.1,239.1c18.2,0.9,36.4,2.3,54.8,4.2
	C1260.6,645.8,1259.1,646,1274.8,648.3z"/>
<path class="st0" d="M1370.1,428.4c-28.9-2.9-34.7-17.6-54.9-19.1c4.7,19.4,5.4,51.2,4.3,69.3c-0.7,10.6-1.5,21.1-2.6,31.6
	c-1.1,11.1-2.5,22.2-4.1,33.2c-0.4,2.8-0.8,5.5-1.3,8.3c-0.5,3.5-1.1,6.9-1.8,10.4c-2.4,13.3-5.2,26.4-8.6,39.4l0,0
	c-4.2,16.5-9.4,32.6-15.4,48.5c23.1,3.6,33.9,5.3,50.3,8.7C1374.5,581.8,1375.8,463.4,1370.1,428.4z"/>
<path class="st0" d="M1387.6,671.3c19.3,5.1,35.2,13.3,55.3,14.2c40.5,1.7,49.2-33.8,34.2-51.7c-0.6,18.9-23.7,8.8-38.7,2
	c-17.8-8-13.7-5.2-13.7-5.2c5-17.1,20.6-97.9,17.8-138.4c25.9,3.5,47.9,15.6,66.2,4.4c11.1-6.8,10.5-23.8-3-51.9
	c-3-6.3-7.3-12.3-13.5-17.5c6,14.3,1.3,24.7-5.2,26.2c-58.5,13.3-62-48.5-110.4-70c4.7,6.2,7.4,13.8,8.2,18.8
	c10,64.8,5.7,182.4-32.7,260.3C1355.7,663.4,1373.5,667.6,1387.6,671.3z"/>
<path class="st0" d="M1473,724.4c-32.6,11.2-146.5-15.3-372.3,89.3c176.9-105.4,347.3-111.6,356.5-113.4
	c19.7-3.8,86.9-53.3,96.7-98.3c5.5-27.7-7.1-82.9-19.4-134.3c-1.6-6.5-11.4-34.5-16.8-41.5c16.7,7.8,32.6,19.7,54.9,24
	c2.2,6.8,4.1,13.6,5.9,20.4c0.7,2.6,1.3,5.1,2,7.7c2.5,10.1,4.7,20.2,6.4,30.4c1.5,8.6,2.8,17.2,3.7,25.8c1,8.8,1.6,17.6,2,26.3
	c5.7-15.4,18.6-48.1,23.1-90.4c0.6-5.5-1.4-11.7-7.4-21c18.3,7.6,21.5,14.7,55.5,21.1C1609.8,644.1,1511.3,711.2,1473,724.4z"/>
<path class="st0" d="M1301.9,693.9c-38.2,14.5-309.9,130.5-420.6,239.9c26.6-10.3,53.7-19.6,81.3-27.7
	c-88,82.5-161.8,180.6-216.8,290.4c16.2-70.5,39.6-138,69.2-201.8c6.5-14.2,13.5-28.2,20.6-42c-22,9.8-43.7,20.3-64.9,31.6
	c36.2-44.3,75.9-85.5,118.8-123.1c55-48.4,115.2-90.8,179.3-126.6c-27.7-0.5-55.1,0.1-82.3,1.8C777.2,749.4,582.3,825.7,423.1,948
	c166.9-152.5,383.2-250,618.2-267.5c46.7-3.5,94.2-3.8,142.2-0.8c13.4,0.8,26.9,1.9,40.4,3.3
	C1250.3,685.7,1276.3,689.4,1301.9,693.9z"/>
</svg>
