<?xml version="1.0" encoding="UTF-8"?>
<svg data-bbox="24.583 28.875 655.417 150.059" viewBox="0 0 703.89 207.276" xmlns="http://www.w3.org/2000/svg" data-type="ugc">
    <g>
        <path fill="#56b7e0" d="M157.101 118.504l28.909-16.585v64.729h-28.909v-48.144z"/>
        <path d="M373.818 96.111c-7.323 0-13.009 2.185-17.055 6.552-4.048 4.37-6.072 10.088-6.072 17.153 0 7.067 2.023 12.785 6.072 17.151 4.046 4.37 9.732 6.553 17.055 6.553s13.009-2.183 17.055-6.553c4.048-4.366 6.072-10.084 6.072-17.151 0-7.065-2.023-12.783-6.072-17.153-4.046-4.367-9.731-6.552-17.055-6.552z" fill="none"/>
        <path d="M602.954 30.198H680l-46.98 26.953v15.563h31.222v27.753H633.02v66.18h-30.066V30.198z" fill="#56b7e0"/>
        <path fill="#d60d47" d="M157.101 55.748l28.909 16.584v29.587l-28.909 16.585V55.748z"/>
        <path fill="#d60d47" d="M495.621 173.255l-10.802 5.679 2.063-12.028-8.739-8.519 12.077-1.755 5.401-10.943 5.401 10.943 12.077 1.755-8.739 8.519 2.063 12.028-10.802-5.679z"/>
        <path d="M390.874 102.662c-4.046-4.366-9.732-6.552-17.055-6.552s-13.009 2.185-17.055 6.552c-4.048 4.37-6.072 10.088-6.072 17.153 0 7.067 2.023 12.785 6.072 17.151 2.242 2.422 5.04 4.102 8.289 5.182l31.577-18.116c.177-1.359.317-2.741.317-4.218-.002-7.064-2.025-12.781-6.073-17.152z" fill="none"/>
        <path d="M356.763 136.967c-4.048-4.366-6.072-10.084-6.072-17.151 0-7.065 2.023-12.783 6.072-17.153 4.046-4.366 9.732-6.552 17.055-6.552s13.009 2.185 17.055 6.552c4.048 4.37 6.072 10.088 6.072 17.153 0 1.476-.14 2.859-.317 4.218l27.918-16.017c-.665-2.942-1.548-5.77-2.739-8.437-2.699-6.038-6.393-11.208-11.082-15.514-4.692-4.304-10.216-7.613-16.576-9.926-6.36-2.313-13.139-3.469-20.332-3.469-7.197 0-13.973 1.156-20.332 3.469-6.36 2.313-11.885 5.622-16.576 9.926-4.69 4.306-8.383 9.476-11.082 15.514-2.697 6.04-4.046 12.785-4.046 20.236 0 7.453 1.349 14.198 4.046 20.236 2.699 6.04 6.392 11.212 11.082 15.514.621.57 1.296 1.076 1.946 1.611l26.195-15.028c-3.247-1.08-6.045-2.76-8.287-5.182z" fill="#ffcc00"/>
        <path d="M373.818 168.961c7.193 0 13.973-1.157 20.332-3.469 6.36-2.313 11.883-5.62 16.576-9.926 4.688-4.302 8.383-9.474 11.082-15.514 2.697-6.038 4.046-12.783 4.046-20.236a53.2 53.2 0 0 0-1.308-11.799l-27.918 16.017c-.669 5.145-2.552 9.48-5.754 12.934-4.046 4.37-9.732 6.553-17.055 6.553-3.265 0-6.153-.503-8.767-1.372l-26.195 15.028c4.261 3.507 9.112 6.308 14.63 8.315 6.359 2.311 13.134 3.469 20.331 3.469z" fill="#d60d47"/>
        <path d="M275.612 119.816c0-7.065 2.023-12.783 6.072-17.153 4.046-4.366 9.732-6.552 17.055-6.552 2.955 0 5.716.674 8.287 2.023 2.569 1.349 4.56 3.053 5.976 5.106l19.079-20.042c-4.498-4.626-9.798-7.869-15.9-9.732-6.104-1.861-11.917-2.795-17.441-2.795-7.197 0-13.973 1.156-20.332 3.469-6.36 2.313-11.885 5.622-16.574 9.926-4.692 4.306-8.385 9.476-11.082 15.514-1.178 2.636-2.051 5.431-2.715 8.336l27.883 15.996c-.167-1.323-.308-2.662-.308-4.096z" fill="#ffcc00"/>
        <path fill="#e52328" d="M331.443 155.765l-24.745-14.196h-.001l24.747 14.196h-.001z"/>
        <path d="M261.833 155.566c4.688 4.306 10.214 7.613 16.574 9.926 6.36 2.311 13.135 3.469 20.332 3.469 5.524 0 11.338-.934 17.441-2.795 6.102-1.861 11.402-5.108 15.9-9.732l-.636-.668-24.746-14.197c-2.247 1.29-4.893 1.952-7.959 1.952-7.323 0-13.009-2.183-17.055-6.553-3.227-3.48-5.109-7.859-5.764-13.055l-27.883-15.996a53.158 53.158 0 0 0-1.334 11.9c0 7.453 1.349 14.198 4.048 20.236 2.697 6.038 6.39 11.21 11.082 15.513z" fill="#56b7e0"/>
        <path fill="#ffcc00" d="M218.935 91.215l-.162-18.501h-28.909v1.829l29.071 16.672z"/>
        <path fill="#d60d47" d="M599.099 166.648l-29.01-16.863-37.464-21.443v38.306h66.474z"/>
        <path fill="#d60d47" d="M153.247 53.923l-26.028-14.931-32.436 87.725-35.895-96.519H24.583l56.251 132.059 36.368-20.864 36.045-87.47z"/>
        <path fill="#56b7e0" d="M106.795 166.648l10.407-25.255-36.368 20.864 1.87 4.391h24.091z"/>
        <path fill="#d60d47" d="M189.864 74.543V99.71L211.8 87.127l-21.936-12.584z"/>
        <path d="M192.465 153.735c1.735 3.599 4.144 6.523 7.227 8.769 3.085 2.251 6.68 3.888 10.794 4.916 4.11 1.026 8.605 1.541 13.491 1.541 3.339 0 6.745-.194 10.214-.578a43.826 43.826 0 0 0 10.022-2.313v-24.091c-1.287 1.156-3.181 1.897-5.686 2.215-2.505.324-4.53.482-6.072.482-3.083 0-5.558-.414-7.419-1.252-1.865-.834-3.247-2.023-4.144-3.567-.9-1.541-1.477-3.373-1.733-5.492-.26-2.119-.386-4.462-.386-7.035l.161-21.602h25.29L211.8 87.127 189.864 99.71v40.92c0 5.14.868 9.51 2.601 13.105z" fill="#56b7e0"/>
        <path d="M460.807 87.236l-31.098 17.862v61.55h28.909v-39.123c0-4.626.256-8.867.772-12.721.512-3.855 1.637-7.159 3.373-9.924 1.733-2.761 4.206-4.914 7.419-6.457 1.88-.903 4.207-1.508 6.881-1.882l-16.256-9.305z" fill="#d60d47"/>
        <path d="M483.286 96.111c2.183 0 4.27.162 6.264.482 1.991.322 4.014.804 6.072 1.445V71.634c-1.415-.386-3.012-1.576-4.681-1.706l-30.133 17.308 16.256 9.304a44.545 44.545 0 0 1 6.222-.429z" fill="#ffcc00"/>
        <path fill="#ffcc00" d="M562.691 145.597V28.875l-30.066 17.249v82.33l30.066 17.143z"/>
    </g>
</svg>
