<?xml version="1.0" encoding="utf-8"?>
<!-- Generator: Adobe Illustrator 22.0.1, SVG Export Plug-In . SVG Version: 6.00 Build 0)  -->
<svg version="1.1" id="Camada_1" xmlns="http://www.w3.org/2000/svg" xmlns:xlink="http://www.w3.org/1999/xlink" x="0px" y="0px"
	 viewBox="0 0 703.9 207.3" style="enable-background:new 0 0 703.9 207.3;" xml:space="preserve">
<style type="text/css">
	.st0{fill:#F7F7F8;}
	.st1{fill:none;}
	.st2{fill:#554596;}
	.st3{fill:#9146FF;}
	.st4{fill:#E52328;}
</style>
<g>
	<path class="st0" d="M157.1,118.5l28.9-16.6v64.7h-28.9V118.5z"/>
	<path class="st1" d="M373.8,96.1c-7.3,0-13,2.2-17.1,6.6c-4,4.4-6.1,10.1-6.1,17.2s2,12.8,6.1,17.2c4,4.4,9.7,6.6,17.1,6.6
		s13-2.2,17.1-6.6c4-4.4,6.1-10.1,6.1-17.2s-2-12.8-6.1-17.2S381.1,96.1,373.8,96.1z"/>
	<path class="st0" d="M603,30.2h77l-47,27v15.6h31.2v27.8H633v66.2h-30V30.2L603,30.2z"/>
	<path class="st2" d="M157.1,55.7L186,72.3v29.6l-28.9,16.6V55.7z"/>
	<path class="st1" d="M390.9,102.7c-4-4.4-9.7-6.6-17.1-6.6s-13,2.2-17.1,6.6c-4,4.4-6.1,10.1-6.1,17.2s2,12.8,6.1,17.2
		c2.2,2.4,5,4.1,8.3,5.2l31.6-18.1c0.2-1.4,0.3-2.7,0.3-4.2C396.9,112.7,394.9,107,390.9,102.7z"/>
	<path class="st3" d="M356.8,137c-4-4.4-6.1-10.1-6.1-17.2s2-12.8,6.1-17.2c4-4.4,9.7-6.6,17.1-6.6s13,2.2,17.1,6.6
		c4,4.4,6.1,10.1,6.1,17.2c0,1.5-0.1,2.9-0.3,4.2l27.9-16c-0.7-2.9-1.5-5.8-2.7-8.4c-2.7-6-6.4-11.2-11.1-15.5s-10.2-7.6-16.6-9.9
		s-13.1-3.5-20.3-3.5c-7.2,0-14,1.2-20.3,3.5c-6.4,2.3-11.9,5.6-16.6,9.9s-8.4,9.5-11.1,15.5s-4,12.8-4,20.2c0,7.5,1.3,14.2,4,20.2
		s6.4,11.2,11.1,15.5c0.6,0.6,1.3,1.1,1.9,1.6l26.2-15C361.8,141.1,359,139.4,356.8,137L356.8,137z"/>
	<path class="st2" d="M373.8,169c7.2,0,14-1.2,20.3-3.5c6.4-2.3,11.9-5.6,16.6-9.9c4.7-4.3,8.4-9.5,11.1-15.5s4-12.8,4-20.2
		c0-4-0.4-7.9-1.3-11.8l-27.9,16c-0.7,5.1-2.6,9.5-5.8,12.9c-4,4.4-9.7,6.6-17.1,6.6c-3.3,0-6.2-0.5-8.8-1.4l-26.2,15
		c4.3,3.5,9.1,6.3,14.6,8.3C359.8,167.8,366.6,169,373.8,169L373.8,169z"/>
	<path class="st3" d="M275.6,119.8c0-7.1,2-12.8,6.1-17.2c4-4.4,9.7-6.6,17.1-6.6c3,0,5.7,0.7,8.3,2c2.6,1.3,4.6,3.1,6,5.1l19.1-20
		c-4.5-4.6-9.8-7.9-15.9-9.7c-6.1-1.9-11.9-2.8-17.4-2.8c-7.2,0-14,1.2-20.3,3.5c-6.4,2.3-11.9,5.6-16.6,9.9s-8.4,9.5-11.1,15.5
		c-1.2,2.6-2.1,5.4-2.7,8.3l27.9,16C275.8,122.6,275.6,121.2,275.6,119.8L275.6,119.8z"/>
	<path class="st4" d="M331.4,155.8l-24.7-14.2l0,0L331.4,155.8L331.4,155.8z"/>
	<path class="st0" d="M261.8,155.6c4.7,4.3,10.2,7.6,16.6,9.9c6.4,2.3,13.1,3.5,20.3,3.5c5.5,0,11.3-0.9,17.4-2.8
		c6.1-1.9,11.4-5.1,15.9-9.7l-0.6-0.7l-24.7-14.2c-2.2,1.3-4.9,2-8,2c-7.3,0-13-2.2-17.1-6.6c-3.2-3.5-5.1-7.9-5.8-13.1l-27.9-16
		c-0.9,3.9-1.3,7.9-1.3,11.9c0,7.5,1.3,14.2,4,20.2C253.4,146.1,257.1,151.3,261.8,155.6L261.8,155.6z"/>
	<path class="st3" d="M218.9,91.2l-0.2-18.5h-28.9v1.8L218.9,91.2z"/>
	<path class="st2" d="M599.1,166.6l-29-16.9l-37.5-21.4v38.3L599.1,166.6L599.1,166.6z"/>
	<path class="st2" d="M153.2,53.9l-26-14.9l-32.4,87.7L58.9,30.2H24.6l56.3,132.1l36.4-20.9C117.2,141.4,153.2,53.9,153.2,53.9z"/>
	<path class="st0" d="M106.8,166.6l10.4-25.3l-36.4,20.9l1.9,4.4L106.8,166.6L106.8,166.6z"/>
	<path class="st2" d="M189.9,74.5v25.2l21.9-12.6L189.9,74.5z"/>
	<path class="st0" d="M192.5,153.7c1.7,3.6,4.1,6.5,7.2,8.8c3.1,2.3,6.7,3.9,10.8,4.9s8.6,1.5,13.5,1.5c3.3,0,6.7-0.2,10.2-0.6
		c3.4-0.4,6.8-1.2,10-2.3v-24c-1.3,1.2-3.2,1.9-5.7,2.2s-4.5,0.5-6.1,0.5c-3.1,0-5.6-0.4-7.4-1.3c-1.9-0.8-3.2-2-4.1-3.6
		c-0.9-1.5-1.5-3.4-1.7-5.5c-0.3-2.1-0.4-4.5-0.4-7l0.2-21.6h25.3l-32.4-18.6L190,99.7v40.9C189.9,145.8,190.7,150.1,192.5,153.7z"
		/>
	<path class="st2" d="M460.8,87.2l-31.1,17.9v61.5h28.9v-39.1c0-4.6,0.3-8.9,0.8-12.7c0.5-3.9,1.6-7.2,3.4-9.9
		c1.7-2.8,4.2-4.9,7.4-6.5c1.9-0.9,4.2-1.5,6.9-1.9L460.8,87.2L460.8,87.2z"/>
	<path class="st3" d="M483.3,96.1c2.2,0,4.3,0.2,6.3,0.5s4,0.8,6.1,1.4V71.6c-1.4-0.4-3-1.6-4.7-1.7l-30.1,17.3l16.3,9.3
		C479.1,96.3,481.2,96.1,483.3,96.1z"/>
	<path class="st3" d="M562.7,145.6V28.9l-30.1,17.2v82.3L562.7,145.6L562.7,145.6z"/>
</g>
<g>
	<polygon class="st3" points="495.6,167.5 489.2,158.6 495.6,145.6 502.1,158.6 	"/>
	<polygon class="st0" points="495.6,167.5 506,170.9 516.4,160.7 502,158.6 	"/>
	<polygon class="st2" points="495.6,167.5 495.6,178.4 482.8,185.2 485.2,170.9 	"/>
	<polygon class="st2" points="495.6,167.5 506,170.9 508.5,185.2 495.6,178.4 	"/>
	<polygon class="st2" points="495.6,167.5 489.2,158.6 474.8,160.7 485.2,170.9 	"/>
</g>
</svg>
