<?xml version="1.0" encoding="utf-8"?>
<!-- Generator: Adobe Illustrator 22.0.1, SVG Export Plug-In . SVG Version: 6.00 Build 0)  -->
<svg version="1.1" id="Camada_1" xmlns="http://www.w3.org/2000/svg" xmlns:xlink="http://www.w3.org/1999/xlink" x="0px" y="0px"
	 viewBox="0 0 1920 1312" style="enable-background:new 0 0 1920 1312;" xml:space="preserve">
<style type="text/css">
	.st0{fill:#FFFFFF;}
</style>
<g id="Kafoteria">
	<g>
		<g>
			<path class="st0" d="M1178.9,651.6h-38.2v98.8c0,7.3,1.6,13.6,4.7,18.7c3.1,5.1,8.7,7.7,16.6,7.7c3.8,0,7-0.4,9.7-1.1
				c2.7-0.7,5.5-1.6,8.5-2.7l1.3,16.3c-2.3,1-5.7,2-10.2,3c-4.5,0.9-9.2,1.4-14,1.4c-8.8,0-15.7-1.4-20.6-4.2s-8.5-6.6-10.8-11.5
				c-2.3-4.8-3.7-10.5-4.2-17s-0.8-13.4-0.8-20.7v-88.8h-20.8v-19.1h20.8v-41.3l19.8-6.9v48.2h38.2V651.6z"/>
			<path class="st0" d="M1297.4,785c-6.9,2.9-14.6,5.1-22.9,6.6c-8.4,1.5-16.2,2.2-23.6,2.2c-13.2,0-24.4-2.1-33.8-6.3
				c-9.3-4.2-16.9-10-22.6-17.6c-5.8-7.5-9.9-16.4-12.6-26.7c-2.6-10.3-3.9-21.4-3.9-33.3c0-12.1,1.6-23.4,4.9-33.8
				c3.2-10.4,7.8-19.2,13.7-26.5c5.9-7.3,13-13.1,21.4-17.3s17.6-6.3,27.6-6.3c11.3,0,21,2.2,29.1,6.4c8.1,4.3,14.7,10,19.8,17.3
				c5.1,7.2,8.9,15.7,11.3,25.3s3.6,12.8,3.6,23.5v12.7h-109.6c0,8.6,1.1,20.9,3.5,28.4c2.3,7.4,5.7,13.9,10.1,19.3
				c4.4,5.4,9.9,9.8,16.5,13c6.6,3.3,14.2,4.9,22.8,4.9c3.6,0,7.5-0.4,11.8-1.1c4.3-0.7,8.5-1.6,12.6-2.7c4.1-1,8-2.3,11.6-3.8
				c3.7-1.5,6.6-2.9,8.9-4.4V785H1297.4z M1287.6,691.6c0-6.9-0.7-6.7-2.2-13.4s-3.8-12.7-7.1-17.9c-3.2-5.2-7.5-9.4-12.7-12.6
				c-5.2-3.1-11.5-4.7-18.8-4.7s-13.9,1.7-19.6,5c-5.8,3.4-10.7,7.6-14.8,12.9c-4.1,5.2-7.8,10.3-9.7,16c-1.8,5.4-3,8.2-3,14.7
				H1287.6z"/>
			<path class="st0" d="M1317.1,665.6c0-4.4,0-8.2,0-11.3s-0.1-6.1-0.2-8.8s-0.3-5.3-0.5-7.7s-0.5-3.9-0.6-5.3h20.7v28.1l0,0
				c1.9-4.4,3.8-8.7,6.3-12.9s5.5-7.9,9-11.1c3.5-3.3,7.3-5.8,11.6-7.7c4.3-1.9,9-2.8,14-2.8c2.3,0,6.1,0.2,8.7,1
				c3,0.9,7.9,4.1,9.6,5.4V652c-3.1-2.6-13.5-5.2-18.9-5.2c-8,0-14.5,2-19.6,6s-9.2,9.1-12.1,15.2c-2.9,6.2-5,13.1-6.3,20.7
				c-1.3,7.6-1.9,15-1.9,22.1V790h-19.8L1317.1,665.6L1317.1,665.6z"/>
			<path class="st0" d="M1406.1,632.9h19.8v157.5h-19.8V632.9z"/>
			<path class="st0" d="M1533.4,764.7h-0.6c-2.3,4.8-3.8,9.1-7.4,12.7c-3.7,3.7-7.8,6.8-12.4,9.3s-9.4,4.4-14.4,5.7
				s-10,1.9-15.1,1.9c-11.3,0-20.4-1.7-27.3-5s-12.2-7.4-16-12.1c-3.8-4.7-6.3-9.7-7.5-14.9c-1.3-5.2-1.9-9.6-1.9-13.2
				c0-13.4,3.2-23.9,9.6-31.4s14.4-13.1,24.2-16.8c9.7-3.7,20.4-5.9,31.9-6.8c11.5-0.8,22.5-1.3,33-1.3h3.8v-8.2
				c0-13.8-2.7-24.1-8.2-30.9c-5.4-6.8-14.9-10.2-28.3-10.2c-8.4,0-16.5,1-24.3,3c-7.9,2-15.4,5.4-22.8,10.2v-19.2
				c3.1-1.5,6.6-2.9,10.5-4.2c3.9-1.4,8-2.5,12.2-3.5c4.3-0.9,8.5-1.7,12.7-2.4c4.2-0.6,8.1-0.9,11.6-0.9c19.9,0,34.2,4.7,43,14.1
				c8.8,9.4,13.2,24.6,13.2,45.5v70.7c0,6.5,0,12.4,0.2,17.6c0.1,5.2,0.6,10.6,1.4,16h-21L1533.4,764.7L1533.4,764.7z M1533.1,709.7
				h-5.7c-8.6,0-17.3,0.4-26.2,1.1c-8.9,0.7-17,2.4-24.2,5s-13.1,6.5-17.7,11.6s-6.9,12.1-6.9,20.9c0,10.5,3.2,17.9,9.7,22.3
				c6.5,4.4,14.3,6.6,23.6,6.6c11.5,0,20.5-2.2,27-6.6c6.5-4.4,11.2-9.7,14.1-15.8c2.9-6.2,4.7-12.5,5.3-19
				c0.6-6.5,0.9-11.9,0.9-16.3L1533.1,709.7L1533.1,709.7z"/>
		</g>
		<g>
			<path class="st0" d="M453.6,691.9h0.6l45-58.9h89.1l-55,66l57.2,91h-91.9l-44.4-79.1h-0.6V790h-78.8V554.4h78.8L453.6,691.9
				L453.6,691.9z"/>
			<path class="st0" d="M611.2,632.8c5.8-1.7,11.3-3.1,16.3-4.2c5-1.1,10.1-2.1,15.2-3c5.1-0.8,10.6-1.4,16.4-1.7
				c5.8-0.3,12.6-0.5,20.3-0.5c11.3,0,22.8,0.7,34.5,2.2c11.8,1.5,22.5,4.5,32.2,9.2s19.9,11.5,26,20.5s14.8,20.8,14.8,35.6V790H709
				v-23.4h-0.6c-5.4,9.4-15.9,16.3-25.3,20.6c-9.4,4.4-19.7,6.6-30.9,6.6c-7.5,0-14.8-0.9-22-2.7s-13.6-4.6-19.2-8.4
				c-5.6-3.9-10.1-8.8-13.4-14.8c-3.3-6-5-13.3-5-21.9c0-12.5,2.5-22.7,7.7-30.5c5.1-7.8,11.7-13.9,19.7-18.3c8-4.4,17-7.3,27-8.9
				c10-1.6,19.9-2.3,29.7-2.3c5.4,0,11,0.3,16.7,0.8s12.2,1,15.8,1.4c0-5.2-3.1-9.4-5.6-12.5s-5.7-5.5-9.7-7
				c-4-1.6-8.4-2.6-13.3-3.1c-4.9-0.5-9.8-0.8-14.8-0.8c-9.4,0-18.8,1.3-28.3,3.9c-9.5,2.6-18.2,5.9-26.1,9.8v-45.7H611.2z
				 M707.2,716.9h-7.8c-4.2,0-8.3,0.2-12.3,0.5c-4.1,0.3-7.8,1.1-11.3,2.3c-3.4,1.3-6.2,3.1-8.3,5.6s-3.1,5.8-3.1,10
				c0,5.6,1.6,9.6,4.7,12c3.1,2.4,7.7,3.6,13.8,3.6c4,0,7.5-0.8,10.6-2.5s5.7-3.9,7.7-6.7s3.5-5.9,4.5-9.4c1-3.4,1.6-6.9,1.6-10.5
				v-4.9H707.2z"/>
			<path class="st0" d="M807.2,672.7h-20.4v-39.6h20v-19.7c0.2-10.8,3-20.2,6.5-28s8.4-14.2,14.7-19.2s13.6-8.6,22-10.9
				c8.4-2.3,17.8-3.4,28-3.4c9.4,0,18.5,0.6,27.4,1.7c8.9,1.2,13.8,2.5,19.3,3.9v43.4c-1.9-0.4-6.2-0.9-8.5-1.4s-5.9-0.8-10.9-0.8
				s-9.6,1.7-13.8,5s-6.2,8.3-6.2,15v14.4h19.3v39.6h-19.3v117.4h-78.1V672.7z"/>
			<path class="st0" d="M929.8,643.9c17.1-13.6,42.2-20.5,75.3-20.5c32.9,0,58,6.8,75.3,20.5s26,34.2,26,61.7
				c0,28.3-8.7,50.1-26,65.3s-42.4,22.8-75.3,22.8c-33.1,0-58.2-7.6-75.3-22.8s-25.6-37-25.6-65.3
				C904.1,678.1,912.7,657.5,929.8,643.9z M988.4,722.2c0.3,5,1.1,9.3,2.3,13c1.3,3.6,3,6.5,5.3,8.6s5.3,3.1,9.1,3.1s6.8-1,9.1-3.1
				s4.1-4.9,5.3-8.6c1.3-3.6,2.1-8,2.5-13s0.6-10.5,0.6-16.6c0-4.8-0.2-9.3-0.6-13.6c-0.4-4.3-1.2-8-2.5-11.3
				c-1.2-3.2-3-5.8-5.3-7.7s-5.3-2.8-9.1-2.8s-6.8,0.9-9.1,2.8c-2.3,1.9-4.1,4.4-5.3,7.7c-1.2,3.2-2,7-2.3,11.3s-0.5,8.8-0.5,13.6
				C987.9,711.7,988.1,717.2,988.4,722.2z"/>
		</g>
		<rect x="1406" y="572.6" class="st0" width="19.9" height="19.9"/>
		<path class="st0" d="M963.5,373.1c-24.2,0-43.9,19.6-43.9,43.9c0,24.2,19.6,43.9,43.9,43.9c24.2,0,43.9-19.6,43.9-43.9
			S987.7,373.1,963.5,373.1z"/>
		<g>
			<path class="st0" d="M963.5,337.8c-43.7,0-79.1,35.4-79.1,79.1s35.4,79.1,79.1,79.1c43.7,0,79.1-35.4,79.1-79.1
				S1007.2,337.8,963.5,337.8z M1015.5,425.9c-4.1,25.4-26.2,44.8-52.7,44.8c-29.5,0-53.4-23.9-53.4-53.4s23.9-53.4,53.4-53.4
				c26.5,0,48.5,19.3,52.7,44.7c1.9,0.7,9.2,3,18.1-0.1c4.3,4.3,4.4,13.3,0,17.7C1024.7,422.1,1017.8,425,1015.5,425.9z"/>
		</g>
		<g>
			<path class="st0" d="M1081.1,417.5c0,13.7-3.9,27.4-8.2,39.6h579v431.8H277.2V457.1h575.6c-4.3-12.3-7.5-26-7.5-39.7H237.8v511.1
				H1691v-511H1081.1z"/>
		</g>
		<g>
			<path class="st0" d="M866.5,416.9c0-54.1,43.8-97.9,97.9-97.9c54.1,0,97.9,43.8,97.9,97.9c0,13.9-3.4,28.2-8.6,40.2h42
				c3.7-12.4,6.1-26.6,6.1-40.2c0-75.9-61.5-137.4-137.4-137.4S827,341,827,416.9c0,13.6,2.5,27.8,6.2,40.2h42
				C870,445.1,866.5,430.9,866.5,416.9z"/>
		</g>
		<g>
			<path class="st0" d="M1050.8,475.8c-4.1,6.1-9,14.9-14.3,20h575.1v353.1H316.3V495.8h573.2c-5.3-5.1-10.8-13.9-14.9-20H296.3
				v393.1h1335.4V475.8H1050.8z"/>
		</g>
		<g>
			<path class="st0" d="M964.1,514.9c-31.7,0-60.6-15.7-78.5-39.1h-22.1c20.3,34,58.1,57.3,100.5,57.3s80-23.4,100.3-57.3h-22.1
				C1024.5,499.2,995.8,514.9,964.1,514.9z"/>
		</g>
	</g>
</g>
</svg>
