<?xml version="1.0" encoding="utf-8"?>
<!-- Generator: Adobe Illustrator 22.0.1, SVG Export Plug-In . SVG Version: 6.00 Build 0)  -->
<svg version="1.1" id="Camada_1" xmlns="http://www.w3.org/2000/svg" xmlns:xlink="http://www.w3.org/1999/xlink" x="0px" y="0px"
	 viewBox="0 0 1920 1312" style="enable-background:new 0 0 1920 1312;" xml:space="preserve">
<style type="text/css">
	.st0{fill:#FCCF00;}
	.st1{fill:#FFFFFF;}
	.st2{fill:url(#SVGID_1_);}
	.st3{fill:url(#SVGID_2_);}
	.st4{fill:url(#SVGID_3_);}
	.st5{fill:url(#SVGID_4_);}
	.st6{fill:url(#SVGID_5_);}
	.st7{fill:url(#SVGID_6_);}
	.st8{fill:url(#SVGID_7_);}
	.st9{fill:url(#SVGID_8_);}
	.st10{fill:url(#SVGID_9_);}
	.st11{fill:#1F272C;}
	.st12{fill:url(#SVGID_10_);}
	.st13{clip-path:url(#SVGID_12_);fill:url(#SVGID_13_);}
</style>
<g id="Camada_30">
	<rect x="510.3" y="581.2" class="st0" width="19" height="146.8"/>
	<g>
		<g>
			<path class="st0" d="M672,620.4c0,13.9-4.3,23.2-14.9,30.4v0.8c13.2,5.8,20.8,17.6,20.8,35.5c0,26.6-21.7,40.9-50.8,40.9h-59.3
				c-6.6,0-8.9-2.3-8.9-8.7V590.1c0-6.6,2.3-8.9,8.9-8.9h58.5C654.9,581.2,672,595.2,672,620.4z M617.9,614.4h-18v22.7h18
				c8.3,0,12.6-3.1,12.6-11.1C630.5,617.9,626.2,614.4,617.9,614.4z M621.8,670.4h-21.9v24.2h21.9c8.9,0,13.2-3.5,13.2-12.2
				C635.1,674.1,630.7,670.4,621.8,670.4z"/>
			<path class="st1" d="M1182.8,620.4c0,13.9-4.3,23.2-14.9,30.4v0.8c13.2,5.8,20.8,17.6,20.8,35.5c0,26.6-21.7,40.9-50.8,40.9
				h-59.3c-6.6,0-8.9-2.3-8.9-8.7V590.1c0-6.6,2.3-8.9,8.9-8.9h58.5C1165.7,581.2,1182.8,595.2,1182.8,620.4z M1128.8,614.4h-18
				v22.7h18c8.3,0,12.6-3.1,12.6-11.1C1141.4,617.9,1137,614.4,1128.8,614.4z M1132.7,670.4h-21.9v24.2h21.9
				c8.9,0,13.2-3.5,13.2-12.2C1145.9,674.1,1141.5,670.4,1132.7,670.4z"/>
			<g>
				<path class="st1" d="M1321.5,727.9h-22.2c-10.8,0-13.9-2.3-15.5-8.7l-4.7-14.8h-44.5l-4.8,14.8c-2,6.4-4.7,8.7-15,8.7h-21.7
					c-6.4,0-7.6-2.9-5.6-8.4l47.4-130.7c2-6,4.7-7.2,10.7-7.2h23.5c6,0,8.7,1.5,10.7,6.8l47.6,131.1
					C1329.5,725,1327.7,727.9,1321.5,727.9z M1256.2,618.6L1256.2,618.6c0,0,0.2,17.4-4,31.2L1244,672h25.8l-9.3-22.3
					C1256.4,635.8,1256.2,618.6,1256.2,618.6z"/>
				<path class="st0" d="M810.7,727.9h-22.2c-10.8,0-13.9-2.3-15.5-8.7l-4.7-14.8h-44.5l-4.7,14.8c-2,6.4-4.7,8.7-15,8.7h-21.7
					c-6.4,0-7.6-2.9-5.6-8.4l47.4-130.7c2-6,4.7-7.2,10.7-7.2h23.5c6,0,8.7,1.5,10.7,6.8l47.6,131.1
					C818.7,725,816.9,727.9,810.7,727.9z M745.3,618.6L745.3,618.6c0,0,0.2,17.4-4,31.2l-8.2,22.3h25.8l-9.3-22.3
					C745.5,635.8,745.3,618.6,745.3,618.6z"/>
				<path class="st0" d="M942.8,631.3c0,20.2-8.3,34.7-22.3,42.5c2.1,2.7,3.9,5.6,5.6,8.9l18.5,35.2c2.9,5.6,1.4,10.1-5.4,10.1
					h-22.3c-10.9,0-15.6-2.7-19-9.9l-13.2-28.2c-3.5-7-7-10.5-15.5-10.5h-4.7v40c0,6.4-2,8.7-8.6,8.7h-23.3c-6.6,0-8.9-2.3-8.9-8.7
					V590.3c0-6.4,2.3-8.7,8.9-8.7h58.7C922.6,581.6,942.8,599.4,942.8,631.3z M887,617.7h-22.3v27.2H887c8.7,0,13.6-5.4,13.6-13.8
					C900.6,622.9,895.9,617.7,887,617.7z"/>
				<path class="st1" d="M1388.6,578.2c31.7,0,51.5,13,60.2,36.1c2,6,0.6,9.1-5.6,11.1l-22.1,7.8c-6.4,1.8-8.8,0.8-11.1-5.6
					c-3.7-9.3-9.9-13.4-21.4-13.4c-16.3,0-22.7,7-22.7,21.5v37.5c0,14.5,6.4,21.5,22.7,21.5c11.5,0,18.1-4.5,21.4-13.4
					c2.5-6.4,5-7.8,11.1-5.5l22.1,7.8c6.2,2.1,7.6,5.2,5.6,11.1c-8.7,23.1-28.5,36-60.2,36c-40.6,0-63.5-22-63.5-57.7v-37.1
					C1325.1,600.2,1348,578.2,1388.6,578.2z"/>
				<path class="st1" d="M1579.7,727.6h-22.3c-10.9,0-14.8-1.5-18.3-8.7l-17.9-36.9c-3.3-6.6-6.2-10.3-14-10.3h-3.7V719
					c0,6.4-2.1,8.7-8.7,8.7h-23.3c-6.6,0-8.9-2.3-8.9-8.7V590c0-6.4,2.3-8.7,8.9-8.7h23.3c6.6,0,8.7,2.3,8.7,8.7v45.8h4.5l29.7-46.8
					c3.9-6.4,5.8-7.6,16.5-7.6h23.7c6.2,0,8.2,3.7,4.9,9.1l-37.5,59.8c5.1,3.7,9.1,8.9,12.6,15.9l27.2,51.6
					C1588,723.1,1586.5,727.6,1579.7,727.6z"/>
			</g>
			<path class="st0" d="M1059.6,589.8v18.6c0,6.6-2.3,8.9-8.9,8.9h-57.9v18.4h38.3c6.6,0,8.9,2.3,8.9,8.7V663c0,6.6-2.3,8.9-8.9,8.9
				h-38.3v19.9h58.1c6.4,0,8.7,2.1,8.7,8.7v18.8c0,6.5-2.3,8.7-8.7,8.7h-90.2c-6.6,0-8.9-2.2-8.9-8.7V589.8c0-6.4,2.2-8.7,8.9-8.7
				h90C1057.3,581.1,1059.6,583.4,1059.6,589.8z"/>
		</g>
	</g>
	<g>
		
			<linearGradient id="SVGID_1_" gradientUnits="userSpaceOnUse" x1="615.6" y1="656.476" x2="615.6" y2="730.176" gradientTransform="matrix(1 0 0 -1 0 1311.276)">
			<stop  offset="0" style="stop-color:#000000;stop-opacity:0"/>
			<stop  offset="1" style="stop-color:#FFFFFF;stop-opacity:0.3"/>
		</linearGradient>
		<path class="st2" d="M657.2,651.5v-0.8c10.5-7.2,14.9-16.5,14.9-30.4c0-25.2-17.1-39.2-45.6-39.2H568c-6.6,0-8.9,2.3-8.9,8.9v64.8
			h104C661.2,653.6,659.3,652.5,657.2,651.5z M617.9,637.1h-18v-22.7h18c8.3,0,12.6,3.5,12.6,11.6
			C630.5,634,626.2,637.1,617.9,637.1z"/>
		
			<linearGradient id="SVGID_2_" gradientUnits="userSpaceOnUse" x1="1126.4" y1="656.476" x2="1126.4" y2="730.176" gradientTransform="matrix(1 0 0 -1 0 1311.276)">
			<stop  offset="0" style="stop-color:#000000;stop-opacity:0"/>
			<stop  offset="1" style="stop-color:#FFFFFF;stop-opacity:0.3"/>
		</linearGradient>
		<path class="st3" d="M1168,651.5v-0.8c10.5-7.2,14.9-16.5,14.9-30.4c0-25.2-17.1-39.2-45.6-39.2h-58.5c-6.6,0-8.9,2.3-8.9,8.9
			v64.8h104C1172.1,653.6,1170.1,652.5,1168,651.5z M1128.8,637.1h-18v-22.7h18c8.3,0,12.6,3.5,12.6,11.6
			C1141.3,634,1137,637.1,1128.8,637.1z"/>
		
			<linearGradient id="SVGID_3_" gradientUnits="userSpaceOnUse" x1="1257.5" y1="656.4891" x2="1257.5" y2="729.7891" gradientTransform="matrix(1 0 0 -1 0 1311.276)">
			<stop  offset="0" style="stop-color:#000000;stop-opacity:0"/>
			<stop  offset="1" style="stop-color:#FFFFFF;stop-opacity:0.3"/>
		</linearGradient>
		<path class="st4" d="M1252.2,649.7c4.1-13.8,4-31.2,4-31.2s0.2,17.2,4.3,31.2l2.1,5h41.4l-24.1-66.5c-2.1-5.4-4.8-6.8-10.7-6.8
			h-23.5c-6,0-8.7,1.2-10.7,7.2l-24,66.1h39.4L1252.2,649.7z"/>
		
			<linearGradient id="SVGID_4_" gradientUnits="userSpaceOnUse" x1="746.7" y1="656.4891" x2="746.7" y2="729.7891" gradientTransform="matrix(1 0 0 -1 0 1311.276)">
			<stop  offset="0" style="stop-color:#000000;stop-opacity:0"/>
			<stop  offset="1" style="stop-color:#FFFFFF;stop-opacity:0.3"/>
		</linearGradient>
		<path class="st5" d="M741.4,649.7c4.1-13.8,4-31.2,4-31.2s0.2,17.2,4.3,31.2l2.1,5h41.4l-24.1-66.5c-2.1-5.4-4.7-6.8-10.7-6.8
			h-23.5c-6,0-8.7,1.2-10.7,7.2l-24,66.1h39.4L741.4,649.7z"/>
		
			<linearGradient id="SVGID_5_" gradientUnits="userSpaceOnUse" x1="883.35" y1="656.476" x2="883.35" y2="729.676" gradientTransform="matrix(1 0 0 -1 0 1311.276)">
			<stop  offset="0" style="stop-color:#000000;stop-opacity:0"/>
			<stop  offset="1" style="stop-color:#FFFFFF;stop-opacity:0.3"/>
		</linearGradient>
		<path class="st6" d="M942.8,631.3c0-31.9-20.2-49.7-51.3-49.7h-58.7c-6.6,0-8.9,2.3-8.9,8.7v64.5h114.2
			C941.2,648.1,942.8,640.3,942.8,631.3z M887,644.9h-22.3v-27.2H887c8.9,0,13.6,5.2,13.6,13.4C900.6,639.5,895.6,644.9,887,644.9z"
			/>
		
			<linearGradient id="SVGID_6_" gradientUnits="userSpaceOnUse" x1="1387.3748" y1="656.4891" x2="1387.3748" y2="733.0891" gradientTransform="matrix(1 0 0 -1 0 1311.276)">
			<stop  offset="0" style="stop-color:#000000;stop-opacity:0"/>
			<stop  offset="1" style="stop-color:#FFFFFF;stop-opacity:0.3"/>
		</linearGradient>
		<path class="st7" d="M1365.9,635.7c0-14.4,6.4-21.5,22.7-21.5c11.5,0,17.7,4.1,21.4,13.4c2.3,6.4,4.8,7.4,11.1,5.6l22.1-7.9
			c6.2-2.1,7.6-5.1,5.6-11.1c-8.7-23.1-28.5-36.1-60.2-36.1c-40.6,0-63.5,22.1-63.5,57.7v18.9h40.8V635.7z"/>
		
			<linearGradient id="SVGID_7_" gradientUnits="userSpaceOnUse" x1="1523.488" y1="656.4891" x2="1523.488" y2="730.0891" gradientTransform="matrix(1 0 0 -1 0 1311.276)">
			<stop  offset="0" style="stop-color:#000000;stop-opacity:0"/>
			<stop  offset="1" style="stop-color:#FFFFFF;stop-opacity:0.3"/>
		</linearGradient>
		<path class="st8" d="M1545.3,650.1l37.5-59.8c3.3-5.4,1.3-9.1-4.9-9.1h-23.7c-10.7,0-12.6,1.2-16.5,7.6l-29.7,46.8h-4.5v-45.8
			c0-6.4-2.1-8.7-8.7-8.7h-23.3c-6.6,0-8.9,2.3-8.9,8.7v64.9h87.9C1548.9,653,1547.2,651.5,1545.3,650.1z"/>
		
			<linearGradient id="SVGID_8_" gradientUnits="userSpaceOnUse" x1="1005.7" y1="656.4891" x2="1005.7" y2="730.1891" gradientTransform="matrix(1 0 0 -1 0 1311.276)">
			<stop  offset="0" style="stop-color:#000000;stop-opacity:0"/>
			<stop  offset="1" style="stop-color:#FFFFFF;stop-opacity:0.3"/>
		</linearGradient>
		<path class="st9" d="M1040,644.3c0-6.4-2.3-8.7-8.9-8.7h-38.3v-18.4h57.9c6.6,0,8.9-2.3,8.9-8.9v-18.6c0-6.4-2.3-8.7-8.9-8.7h-90
			c-6.6,0-8.9,2.3-8.9,8.7v65h88.1v-10.4H1040z"/>
	</g>
	<g>
		
			<linearGradient id="SVGID_9_" gradientUnits="userSpaceOnUse" x1="519.8" y1="656.776" x2="519.8" y2="730.176" gradientTransform="matrix(1 0 0 -1 0 1311.276)">
			<stop  offset="0" style="stop-color:#000000;stop-opacity:0"/>
			<stop  offset="1" style="stop-color:#FFFFFF;stop-opacity:0.3"/>
		</linearGradient>
		<rect x="510.3" y="581.1" class="st10" width="19" height="73.4"/>
	</g>
	<g>
		<path class="st1" d="M416.8,619.5c0.2-0.8,0.3-1.6,0.3-2.4c0-5.3-4.3-9.6-9.6-9.6c-5.3,0-9.6,4.3-9.6,9.6c0,0.8,0.1,1.6,0.3,2.4
			c-5.9,3.3-9.9,9.6-9.9,16.8v48.9c0,2.7,8.6,4.9,19.2,4.9s19.2-2.2,19.2-4.9v-48.9C426.7,629.1,422.7,622.8,416.8,619.5z"/>
		<path class="st11" d="M427.4,684.3c0.7,0.7,1,1.5,1,2.3c0,4.1-9.4,7.5-20.9,7.5c-11.6,0-20.9-3.4-20.9-7.5c0-0.8,0.4-1.6,1-2.3
			c-3.8,1.8-6.1,4.1-6.1,6.7c0,5.8,11.6,10.4,26,10.4c14.3,0,26-4.7,26-10.4C433.5,688.5,431.2,686.1,427.4,684.3z"/>
		<path class="st1" d="M427.4,684.3c0.7,0.7,1,1.5,1,2.3c0,4.1-9.4,7.5-20.9,7.5c-11.6,0-20.9-3.4-20.9-7.5c0-0.8,0.4-1.6,1-2.3
			c-3.8,1.8-6.1,4.1-6.1,6.7c0,5.8,11.6,10.4,26,10.4c14.3,0,26-4.7,26-10.4C433.5,688.5,431.2,686.1,427.4,684.3z"/>
		<g>
			
				<linearGradient id="SVGID_10_" gradientUnits="userSpaceOnUse" x1="386.2335" y1="692.9838" x2="413.0807" y2="646.4832" gradientTransform="matrix(1 0 0 -1 0 1311.276)">
				<stop  offset="0" style="stop-color:#FFFFFF;stop-opacity:0.3"/>
				<stop  offset="1" style="stop-color:#000000;stop-opacity:0"/>
			</linearGradient>
			<path class="st12" d="M426.7,636.3c0-7.2-4-13.5-9.9-16.8c0.2-0.8,0.3-1.6,0.3-2.4c0-5.3-4.3-9.6-9.6-9.6c-5.3,0-9.6,4.3-9.6,9.6
				c0,0.8,0.1,1.6,0.3,2.4c-5.9,3.3-9.9,9.6-9.9,16.8v42.8l38.4-38.4L426.7,636.3L426.7,636.3z"/>
		</g>
		<path class="st0" d="M407.5,582.7c-40.3,0-73,32.7-73,73s32.7,73,73,73s73-32.7,73-73S447.9,582.7,407.5,582.7z M347.3,655.7
			c0-14.3,5-27.5,13.4-37.8l84.7,84.7C435,711,421.9,716,407.5,716C374.2,716,347.3,689,347.3,655.7z M454.4,693.6l-84.7-84.7
			c10.3-8.4,23.5-13.4,37.8-13.4c33.3,0,60.3,27,60.3,60.3C467.8,670.1,462.8,683.2,454.4,693.6z"/>
		<g>
			<g>
				<defs>
					<path id="SVGID_11_" d="M407.5,582.7c-40.3,0-73,32.7-73,73s32.7,73,73,73s73-32.7,73-73S447.9,582.7,407.5,582.7z
						 M347.3,655.7c0-14.3,5-27.5,13.4-37.8l84.7,84.7C435,711,421.9,716,407.5,716C374.2,716,347.3,689,347.3,655.7z M454.4,693.6
						l-84.7-84.7c10.3-8.4,23.5-13.4,37.8-13.4c33.3,0,60.3,27,60.3,60.3C467.8,670.1,462.8,683.2,454.4,693.6z"/>
				</defs>
				<clipPath id="SVGID_12_">
					<use xlink:href="#SVGID_11_"  style="overflow:visible;"/>
				</clipPath>
				
					<radialGradient id="SVGID_13_" cx="360.5" cy="702.476" r="73" gradientTransform="matrix(1 0 0 -1 0 1311.276)" gradientUnits="userSpaceOnUse">
					<stop  offset="0" style="stop-color:#FFFFFF;stop-opacity:0.3"/>
					<stop  offset="1" style="stop-color:#000000;stop-opacity:0"/>
				</radialGradient>
				<path class="st13" d="M360.5,535.8c-40.3,0-73,32.7-73,73s32.7,73,73,73s73-32.7,73-73S400.8,535.8,360.5,535.8z"/>
			</g>
		</g>
	</g>
</g>
</svg>
