<?xml version="1.0" encoding="utf-8"?>
<!-- Generator: Adobe Illustrator 22.0.1, SVG Export Plug-In . SVG Version: 6.00 Build 0)  -->
<svg version="1.1" id="Camada_1" xmlns="http://www.w3.org/2000/svg" xmlns:xlink="http://www.w3.org/1999/xlink" x="0px" y="0px"
	 viewBox="0 0 1300 400" style="enable-background:new 0 0 1300 400;" xml:space="preserve">
<style type="text/css">
	.st0{fill:#FCCF00;}
	.st1{fill:#FFFFFF;}
	.st2{fill:url(#SVGID_1_);}
	.st3{fill:url(#SVGID_2_);}
	.st4{fill:url(#SVGID_3_);}
	.st5{fill:url(#SVGID_4_);}
	.st6{fill:url(#SVGID_5_);}
	.st7{fill:url(#SVGID_6_);}
	.st8{fill:url(#SVGID_7_);}
	.st9{fill:url(#SVGID_8_);}
	.st10{fill:url(#SVGID_9_);}
	.st11{fill:#1F272C;}
	.st12{fill:url(#SVGID_10_);}
	.st13{clip-path:url(#SVGID_12_);fill:url(#SVGID_13_);}
</style>
<g id="Camada_30">
	<rect x="200.3" y="125.2" class="st0" width="19" height="146.8"/>
	<g>
		<g>
			<path class="st0" d="M362,164.4c0,13.9-4.3,23.2-14.9,30.4v0.8c13.2,5.8,20.8,17.6,20.8,35.5c0,26.6-21.7,40.9-50.8,40.9h-59.3
				c-6.6,0-8.9-2.3-8.9-8.7V134.1c0-6.6,2.3-8.9,8.9-8.9h58.5C344.9,125.2,362,139.2,362,164.4z M307.9,158.4h-18v22.7h18
				c8.3,0,12.6-3.1,12.6-11.1C320.5,161.9,316.2,158.4,307.9,158.4z M311.8,214.4h-21.9v24.2h21.9c8.9,0,13.2-3.5,13.2-12.2
				C325.1,218.1,320.7,214.4,311.8,214.4z"/>
			<path class="st1" d="M872.8,164.4c0,13.9-4.3,23.2-14.9,30.4v0.8c13.2,5.8,20.8,17.6,20.8,35.5c0,26.6-21.7,40.9-50.8,40.9h-59.3
				c-6.6,0-8.9-2.3-8.9-8.7V134.1c0-6.6,2.3-8.9,8.9-8.9h58.5C855.7,125.2,872.8,139.2,872.8,164.4z M818.8,158.4h-18v22.7h18
				c8.3,0,12.6-3.1,12.6-11.1C831.4,161.9,827,158.4,818.8,158.4z M822.7,214.4h-21.9v24.2h21.9c8.9,0,13.2-3.5,13.2-12.2
				C835.9,218.1,831.5,214.4,822.7,214.4z"/>
			<g>
				<path class="st1" d="M1011.5,271.9h-22.2c-10.8,0-13.9-2.3-15.5-8.7l-4.7-14.8h-44.5l-4.8,14.8c-2,6.4-4.7,8.7-15,8.7h-21.7
					c-6.4,0-7.6-2.9-5.6-8.4l47.4-130.7c2-6,4.7-7.2,10.7-7.2h23.5c6,0,8.7,1.5,10.7,6.8l47.6,131.1
					C1019.5,269,1017.7,271.9,1011.5,271.9z M946.2,162.6L946.2,162.6c0,0,0.2,17.4-4,31.2L934,216h25.8l-9.3-22.3
					C946.4,179.8,946.2,162.6,946.2,162.6z"/>
				<path class="st0" d="M500.7,271.9h-22.2c-10.8,0-13.9-2.3-15.5-8.7l-4.7-14.8h-44.5l-4.7,14.8c-2,6.4-4.7,8.7-15,8.7h-21.7
					c-6.4,0-7.6-2.9-5.6-8.4l47.4-130.7c2-6,4.7-7.2,10.7-7.2h23.5c6,0,8.7,1.5,10.7,6.8l47.6,131.1
					C508.7,269,506.9,271.9,500.7,271.9z M435.3,162.6L435.3,162.6c0,0,0.2,17.4-4,31.2l-8.2,22.3h25.8l-9.3-22.3
					C435.5,179.8,435.3,162.6,435.3,162.6z"/>
				<path class="st0" d="M632.8,175.3c0,20.2-8.3,34.7-22.3,42.5c2.1,2.7,3.9,5.6,5.6,8.9l18.5,35.2c2.9,5.6,1.4,10.1-5.4,10.1
					h-22.3c-10.9,0-15.6-2.7-19-9.9l-13.2-28.2c-3.5-7-7-10.5-15.5-10.5h-4.7v40c0,6.4-2,8.7-8.6,8.7h-23.3c-6.6,0-8.9-2.3-8.9-8.7
					V134.3c0-6.4,2.3-8.7,8.9-8.7h58.7C612.6,125.6,632.8,143.4,632.8,175.3z M577,161.7h-22.3v27.2H577c8.7,0,13.6-5.4,13.6-13.8
					C590.6,166.9,585.9,161.7,577,161.7z"/>
				<path class="st1" d="M1078.6,122.2c31.7,0,51.5,13,60.2,36.1c2,6,0.6,9.1-5.6,11.1l-22.1,7.8c-6.4,1.8-8.8,0.8-11.1-5.6
					c-3.7-9.3-9.9-13.4-21.4-13.4c-16.3,0-22.7,7-22.7,21.5v37.5c0,14.5,6.4,21.5,22.7,21.5c11.5,0,18.1-4.5,21.4-13.4
					c2.5-6.4,5-7.8,11.1-5.5l22.1,7.8c6.2,2.1,7.6,5.2,5.6,11.1c-8.7,23.1-28.5,36-60.2,36c-40.6,0-63.5-22-63.5-57.7v-37.1
					C1015.1,144.2,1038,122.2,1078.6,122.2z"/>
				<path class="st1" d="M1269.7,271.6h-22.3c-10.9,0-14.8-1.5-18.3-8.7l-17.9-36.9c-3.3-6.6-6.2-10.3-14-10.3h-3.7V263
					c0,6.4-2.1,8.7-8.7,8.7h-23.3c-6.6,0-8.9-2.3-8.9-8.7V134c0-6.4,2.3-8.7,8.9-8.7h23.3c6.6,0,8.7,2.3,8.7,8.7v45.8h4.5l29.7-46.8
					c3.9-6.4,5.8-7.6,16.5-7.6h23.7c6.2,0,8.2,3.7,4.9,9.1l-37.5,59.8c5.1,3.7,9.1,8.9,12.6,15.9l27.2,51.6
					C1278,267.1,1276.5,271.6,1269.7,271.6z"/>
			</g>
			<path class="st0" d="M749.6,133.8v18.6c0,6.6-2.3,8.9-8.9,8.9h-57.9v18.4h38.3c6.6,0,8.9,2.3,8.9,8.7V207c0,6.6-2.3,8.9-8.9,8.9
				h-38.3v19.9h58.1c6.4,0,8.7,2.1,8.7,8.7v18.8c0,6.5-2.3,8.7-8.7,8.7h-90.2c-6.6,0-8.9-2.2-8.9-8.7V133.8c0-6.4,2.2-8.7,8.9-8.7
				h90C747.3,125.1,749.6,127.4,749.6,133.8z"/>
		</g>
	</g>
	<g>
		
			<linearGradient id="SVGID_1_" gradientUnits="userSpaceOnUse" x1="305.6" y1="-270.586" x2="305.6" y2="-344.286" gradientTransform="matrix(1 0 0 1 0 469.386)">
			<stop  offset="0" style="stop-color:#000000;stop-opacity:0"/>
			<stop  offset="1" style="stop-color:#FFFFFF;stop-opacity:0.3"/>
		</linearGradient>
		<path class="st2" d="M347.2,195.5v-0.8c10.5-7.2,14.9-16.5,14.9-30.4c0-25.2-17.1-39.2-45.6-39.2H258c-6.6,0-8.9,2.3-8.9,8.9v64.8
			h104C351.2,197.6,349.3,196.5,347.2,195.5z M307.9,181.1h-18v-22.7h18c8.3,0,12.6,3.5,12.6,11.6
			C320.5,178,316.2,181.1,307.9,181.1z"/>
		
			<linearGradient id="SVGID_2_" gradientUnits="userSpaceOnUse" x1="816.4" y1="-270.586" x2="816.4" y2="-344.286" gradientTransform="matrix(1 0 0 1 0 469.386)">
			<stop  offset="0" style="stop-color:#000000;stop-opacity:0"/>
			<stop  offset="1" style="stop-color:#FFFFFF;stop-opacity:0.3"/>
		</linearGradient>
		<path class="st3" d="M858,195.5v-0.8c10.5-7.2,14.9-16.5,14.9-30.4c0-25.2-17.1-39.2-45.6-39.2h-58.5c-6.6,0-8.9,2.3-8.9,8.9v64.8
			h104C862.1,197.6,860.1,196.5,858,195.5z M818.8,181.1h-18v-22.7h18c8.3,0,12.6,3.5,12.6,11.6C831.3,178,827,181.1,818.8,181.1z"
			/>
		
			<linearGradient id="SVGID_3_" gradientUnits="userSpaceOnUse" x1="947.5001" y1="-270.5991" x2="947.5001" y2="-343.899" gradientTransform="matrix(1 0 0 1 0 469.386)">
			<stop  offset="0" style="stop-color:#000000;stop-opacity:0"/>
			<stop  offset="1" style="stop-color:#FFFFFF;stop-opacity:0.3"/>
		</linearGradient>
		<path class="st4" d="M942.2,193.7c4.1-13.8,4-31.2,4-31.2s0.2,17.2,4.3,31.2l2.1,5H994l-24.1-66.5c-2.1-5.4-4.8-6.8-10.7-6.8
			h-23.5c-6,0-8.7,1.2-10.7,7.2l-24,66.1h39.4L942.2,193.7z"/>
		
			<linearGradient id="SVGID_4_" gradientUnits="userSpaceOnUse" x1="436.7" y1="-270.5991" x2="436.7" y2="-343.899" gradientTransform="matrix(1 0 0 1 0 469.386)">
			<stop  offset="0" style="stop-color:#000000;stop-opacity:0"/>
			<stop  offset="1" style="stop-color:#FFFFFF;stop-opacity:0.3"/>
		</linearGradient>
		<path class="st5" d="M431.4,193.7c4.1-13.8,4-31.2,4-31.2s0.2,17.2,4.3,31.2l2.1,5h41.4l-24.1-66.5c-2.1-5.4-4.7-6.8-10.7-6.8
			h-23.5c-6,0-8.7,1.2-10.7,7.2l-24,66.1h39.4L431.4,193.7z"/>
		
			<linearGradient id="SVGID_5_" gradientUnits="userSpaceOnUse" x1="573.35" y1="-270.586" x2="573.35" y2="-343.786" gradientTransform="matrix(1 0 0 1 0 469.386)">
			<stop  offset="0" style="stop-color:#000000;stop-opacity:0"/>
			<stop  offset="1" style="stop-color:#FFFFFF;stop-opacity:0.3"/>
		</linearGradient>
		<path class="st6" d="M632.8,175.3c0-31.9-20.2-49.7-51.3-49.7h-58.7c-6.6,0-8.9,2.3-8.9,8.7v64.5h114.2
			C631.2,192.1,632.8,184.3,632.8,175.3z M577,188.9h-22.3v-27.2H577c8.9,0,13.6,5.2,13.6,13.4C590.6,183.5,585.6,188.9,577,188.9z"
			/>
		
			<linearGradient id="SVGID_6_" gradientUnits="userSpaceOnUse" x1="1077.3748" y1="-270.5991" x2="1077.3748" y2="-347.1991" gradientTransform="matrix(1 0 0 1 0 469.386)">
			<stop  offset="0" style="stop-color:#000000;stop-opacity:0"/>
			<stop  offset="1" style="stop-color:#FFFFFF;stop-opacity:0.3"/>
		</linearGradient>
		<path class="st7" d="M1055.9,179.7c0-14.4,6.4-21.5,22.7-21.5c11.5,0,17.7,4.1,21.4,13.4c2.3,6.4,4.8,7.4,11.1,5.6l22.1-7.9
			c6.2-2.1,7.6-5.1,5.6-11.1c-8.7-23.1-28.5-36.1-60.2-36.1c-40.6,0-63.5,22.1-63.5,57.7v18.9h40.8V179.7z"/>
		
			<linearGradient id="SVGID_7_" gradientUnits="userSpaceOnUse" x1="1213.488" y1="-270.5991" x2="1213.488" y2="-344.1991" gradientTransform="matrix(1 0 0 1 0 469.386)">
			<stop  offset="0" style="stop-color:#000000;stop-opacity:0"/>
			<stop  offset="1" style="stop-color:#FFFFFF;stop-opacity:0.3"/>
		</linearGradient>
		<path class="st8" d="M1235.3,194.1l37.5-59.8c3.3-5.4,1.3-9.1-4.9-9.1h-23.7c-10.7,0-12.6,1.2-16.5,7.6l-29.7,46.8h-4.5v-45.8
			c0-6.4-2.1-8.7-8.7-8.7h-23.3c-6.6,0-8.9,2.3-8.9,8.7v64.9h87.9C1238.9,197,1237.2,195.5,1235.3,194.1z"/>
		
			<linearGradient id="SVGID_8_" gradientUnits="userSpaceOnUse" x1="695.7" y1="-270.5991" x2="695.7" y2="-344.2991" gradientTransform="matrix(1 0 0 1 0 469.386)">
			<stop  offset="0" style="stop-color:#000000;stop-opacity:0"/>
			<stop  offset="1" style="stop-color:#FFFFFF;stop-opacity:0.3"/>
		</linearGradient>
		<path class="st9" d="M730,188.3c0-6.4-2.3-8.7-8.9-8.7h-38.3v-18.4h57.9c6.6,0,8.9-2.3,8.9-8.9v-18.6c0-6.4-2.3-8.7-8.9-8.7h-90
			c-6.6,0-8.9,2.3-8.9,8.7v65h88.1v-10.4L730,188.3L730,188.3z"/>
	</g>
	<g>
		
			<linearGradient id="SVGID_9_" gradientUnits="userSpaceOnUse" x1="209.8" y1="-270.886" x2="209.8" y2="-344.286" gradientTransform="matrix(1 0 0 1 0 469.386)">
			<stop  offset="0" style="stop-color:#000000;stop-opacity:0"/>
			<stop  offset="1" style="stop-color:#FFFFFF;stop-opacity:0.3"/>
		</linearGradient>
		<rect x="200.3" y="125.1" class="st10" width="19" height="73.4"/>
	</g>
	<g>
		<path class="st1" d="M106.8,163.5c0.2-0.8,0.3-1.6,0.3-2.4c0-5.3-4.3-9.6-9.6-9.6c-5.3,0-9.6,4.3-9.6,9.6c0,0.8,0.1,1.6,0.3,2.4
			c-5.9,3.3-9.9,9.6-9.9,16.8v48.9c0,2.7,8.6,4.9,19.2,4.9s19.2-2.2,19.2-4.9v-48.9C116.7,173.1,112.7,166.8,106.8,163.5z"/>
		<path class="st11" d="M117.4,228.3c0.7,0.7,1,1.5,1,2.3c0,4.1-9.4,7.5-20.9,7.5c-11.6,0-20.9-3.4-20.9-7.5c0-0.8,0.4-1.6,1-2.3
			c-3.8,1.8-6.1,4.1-6.1,6.7c0,5.8,11.6,10.4,26,10.4c14.3,0,26-4.7,26-10.4C123.5,232.5,121.2,230.1,117.4,228.3z"/>
		<path class="st1" d="M117.4,228.3c0.7,0.7,1,1.5,1,2.3c0,4.1-9.4,7.5-20.9,7.5c-11.6,0-20.9-3.4-20.9-7.5c0-0.8,0.4-1.6,1-2.3
			c-3.8,1.8-6.1,4.1-6.1,6.7c0,5.8,11.6,10.4,26,10.4c14.3,0,26-4.7,26-10.4C123.5,232.5,121.2,230.1,117.4,228.3z"/>
		<g>
			
				<linearGradient id="SVGID_10_" gradientUnits="userSpaceOnUse" x1="76.2335" y1="-307.0938" x2="103.0807" y2="-260.5932" gradientTransform="matrix(1 0 0 1 0 469.386)">
				<stop  offset="0" style="stop-color:#FFFFFF;stop-opacity:0.3"/>
				<stop  offset="1" style="stop-color:#000000;stop-opacity:0"/>
			</linearGradient>
			<path class="st12" d="M116.7,180.3c0-7.2-4-13.5-9.9-16.8c0.2-0.8,0.3-1.6,0.3-2.4c0-5.3-4.3-9.6-9.6-9.6c-5.3,0-9.6,4.3-9.6,9.6
				c0,0.8,0.1,1.6,0.3,2.4c-5.9,3.3-9.9,9.6-9.9,16.8v42.8l38.4-38.4L116.7,180.3L116.7,180.3z"/>
		</g>
		<path class="st0" d="M97.5,126.7c-40.3,0-73,32.7-73,73s32.7,73,73,73s73-32.7,73-73S137.9,126.7,97.5,126.7z M37.3,199.7
			c0-14.3,5-27.5,13.4-37.8l84.7,84.7C125,255,111.9,260,97.5,260C64.2,260,37.3,233,37.3,199.7z M144.4,237.6l-84.7-84.7
			c10.3-8.4,23.5-13.4,37.8-13.4c33.3,0,60.3,27,60.3,60.3C157.8,214.1,152.8,227.2,144.4,237.6z"/>
		<g>
			<g>
				<g>
					<defs>
						<path id="SVGID_11_" d="M97.5,126.7c-40.3,0-73,32.7-73,73s32.7,73,73,73s73-32.7,73-73S137.9,126.7,97.5,126.7z M37.3,199.7
							c0-14.3,5-27.5,13.4-37.8l84.7,84.7C125,255,111.9,260,97.5,260C64.2,260,37.3,233,37.3,199.7z M144.4,237.6l-84.7-84.7
							c10.3-8.4,23.5-13.4,37.8-13.4c33.3,0,60.3,27,60.3,60.3C157.8,214.1,152.8,227.2,144.4,237.6z"/>
					</defs>
					<clipPath id="SVGID_12_">
						<use xlink:href="#SVGID_11_"  style="overflow:visible;"/>
					</clipPath>
					
						<radialGradient id="SVGID_13_" cx="50.5" cy="-316.586" r="73" gradientTransform="matrix(1 0 0 1 0 469.386)" gradientUnits="userSpaceOnUse">
						<stop  offset="0" style="stop-color:#FFFFFF;stop-opacity:0.3"/>
						<stop  offset="1" style="stop-color:#000000;stop-opacity:0"/>
					</radialGradient>
					<path class="st13" d="M50.5,79.8c-40.3,0-73,32.7-73,73s32.7,73,73,73s73-32.7,73-73S90.8,79.8,50.5,79.8z"/>
				</g>
			</g>
		</g>
	</g>
</g>
</svg>
