<?xml version="1.0" encoding="utf-8"?>
<!-- Generator: Adobe Illustrator 22.0.1, SVG Export Plug-In . SVG Version: 6.00 Build 0)  -->
<svg version="1.1" id="Camada_1" xmlns="http://www.w3.org/2000/svg" xmlns:xlink="http://www.w3.org/1999/xlink" x="0px" y="0px"
	 viewBox="0 0 500 500" style="enable-background:new 0 0 500 500;" xml:space="preserve">
<style type="text/css">
	.st0{fill:#FCCF00;}
	.st1{fill:url(#SVGID_1_);}
	.st2{fill:#FFFFFF;}
	.st3{fill:url(#SVGID_2_);}
	.st4{fill:url(#SVGID_3_);}
	.st5{clip-path:url(#SVGID_5_);fill:url(#SVGID_6_);}
</style>
<g id="Bareback_Icon_Tag">
	<g>
		<path class="st0" d="M427,237.1c0-1.7-0.6-2.6-2.3-2.6c-1.7,0-2.4,0.9-2.4,2.6v3.7h4.7L427,237.1L427,237.1z"/>
		<path class="st0" d="M423.1,316.1c0,0,3.6,0,6.4,0.8l4.6,1.7v-5.3l-4.6,1.9C426.7,316.1,423.1,316.1,423.1,316.1z"/>
		<path class="st0" d="M438.8,236.2c0-1.8-0.7-2.7-2.5-2.7c-1.7,0-2.5,0.9-2.5,2.7v4.5h5V236.2z"/>
		<path class="st0" d="M423.1,210.8c0,0,3.6,0,6.4,0.8l4.6,1.7V208l-4.6,1.9C426.7,210.8,423.1,210.8,423.1,210.8z"/>
		<path class="st0" d="M424.7,339.8c-1.7,0-2.4,0.9-2.4,2.6v3.7h4.7v-3.7C427,340.7,426.3,339.8,424.7,339.8z"/>
		<path class="st0" d="M411.1,98.8v300.7H450V98.8H411.1z M415.5,161.6c0-1.4,0.5-1.8,1.8-1.8h9.4v-0.9l-9.7-6.1
			c-1.3-0.8-1.6-1.2-1.6-3.4v-4.9c0-1.3,0.8-1.7,1.9-1l12.3,7.7c0.8-1.1,1.8-1.9,3.3-2.6l10.6-5.6c1.1-0.6,2.1-0.3,2.1,1.1v4.6
			c0,2.2-0.3,3-1.8,3.8l-7.6,3.7c-1.4,0.7-2.1,1.3-2.1,2.9v0.8h9.7c1.3,0,1.8,0.4,1.8,1.8v4.8c0,1.3-0.5,1.8-1.8,1.8h-26.6
			c-1.3,0-1.8-0.5-1.8-1.8v-4.9H415.5z M443.9,216.2c1.3,0.4,1.8,1,1.8,3.1v4.5c0,1.3-0.6,1.6-1.7,1.1l-27-9.8
			c-1.2-0.4-1.5-1-1.5-2.2v-4.8c0-1.2,0.3-1.8,1.4-2.2l27-9.8c1.1-0.4,1.7,0,1.7,1.2v4.6c0,2.2-0.5,2.9-1.8,3.2l-3.1,1v9.2
			L443.9,216.2z M423.5,225.9c2.9,0,4.8,0.9,6.3,3.1h0.2c1.2-2.7,3.6-4.3,7.3-4.3c5.5,0,8.4,4.5,8.4,10.5v12.2
			c0,1.4-0.5,1.8-1.8,1.8h-26.6c-1.3,0-1.8-0.5-1.8-1.8v-12C415.4,229.4,418.3,225.9,423.5,225.9z M417.2,251.3h3.8
			c1.4,0,1.8,0.5,1.8,1.8V265h3.8v-7.9c0-1.4,0.5-1.8,1.8-1.8h3.8c1.4,0,1.8,0.5,1.8,1.8v7.9h4.1v-12c0-1.3,0.4-1.8,1.8-1.8h3.9
			c1.3,0,1.8,0.5,1.8,1.8v18.6c0,1.4-0.5,1.8-1.8,1.8h-26.7c-1.3,0-1.8-0.5-1.8-1.8V253C415.4,251.8,415.9,251.3,417.2,251.3z
			 M443.9,321.5c1.3,0.4,1.8,1,1.8,3.1v4.5c0,1.3-0.6,1.6-1.7,1.1l-27-9.8c-1.2-0.4-1.5-1-1.5-2.2v-4.9c0-1.2,0.3-1.8,1.4-2.2
			l27-9.8c1.1-0.4,1.7,0,1.7,1.2v4.6c0,2.2-0.5,2.9-1.8,3.2l-3.1,1v9.2L443.9,321.5z M445.7,352.7c0,1.4-0.5,1.8-1.8,1.8h-26.6
			c-1.3,0-1.8-0.5-1.8-1.8v-12c0-5.9,2.9-9.4,8.1-9.4c2.9,0,4.8,0.9,6.3,3.1h0.2c1.2-2.7,3.6-4.3,7.3-4.3c5.5,0,8.4,4.5,8.4,10.5
			v12.1H445.7z M445.7,280.7c0,2.2-0.5,3.2-2,3.9l-5.8,2.7c-1.5,0.7-2.2,1.4-2.2,3.2v1h8.2c1.3,0,1.8,0.4,1.8,1.8v4.8
			c0,1.4-0.5,1.8-1.8,1.8h-26.6c-1.3,0-1.8-0.5-1.8-1.8V286c0-6.4,3.7-10.6,10.2-10.6c4.2,0,7.1,1.7,8.8,4.6
			c0.6-0.4,1.1-0.8,1.8-1.1l7.3-3.8c1.2-0.6,2.1-0.3,2.1,1.1V280.7z M434.4,196.6h-7.6c-7.4,0-11.9-4.7-11.9-13.1
			c0-6.5,2.7-10.6,7.4-12.4c1.2-0.4,1.9-0.1,2.3,1.1l1.6,4.6c0.4,1.3,0.2,1.8-1.1,2.3c-1.9,0.8-2.8,2-2.8,4.4c0,3.4,1.5,4.7,4.4,4.7
			h7.7c3,0,4.4-1.3,4.4-4.7c0-2.4-0.9-3.7-2.8-4.4c-1.3-0.5-1.6-1-1.1-2.3l1.6-4.6c0.4-1.3,1.1-1.6,2.3-1.1
			c4.8,1.8,7.4,5.9,7.4,12.4C446.3,191.9,441.7,196.6,434.4,196.6z"/>
		<path class="st0" d="M436.3,338.8c-1.7,0-2.5,0.9-2.5,2.7v4.5h5v-4.5C438.8,339.7,438.1,338.8,436.3,338.8z"/>
		<path class="st0" d="M425.7,284.1c-1.7,0-2.8,1-2.8,2.8v4.6h5.6v-4.6C428.6,285.1,427.5,284.1,425.7,284.1z"/>
	</g>
	<g>
		
			<linearGradient id="SVGID_1_" gradientUnits="userSpaceOnUse" x1="430.55" y1="252.076" x2="430.55" y2="402.476" gradientTransform="matrix(1 0 0 -1 0 501.276)">
			<stop  offset="0" style="stop-color:#000000;stop-opacity:0"/>
			<stop  offset="1" style="stop-color:#FFFFFF;stop-opacity:0.3"/>
		</linearGradient>
		<rect x="411.1" y="98.8" class="st1" width="38.9" height="150.4"/>
	</g>
	<g>
		<path class="st2" d="M269.5,175.4c0.4-1.6,0.6-3.2,0.6-4.9c0-10.9-8.8-19.7-19.7-19.7s-19.7,8.8-19.7,19.7c0,1.7,0.2,3.3,0.6,4.9
			c-12.1,6.7-20.3,19.6-20.3,34.4v100.3c0,5.5,17.6,10,39.4,10c21.7,0,39.3-4.5,39.3-10V209.9C289.8,195,281.6,182.1,269.5,175.4z"
			/>
		<path class="st2" d="M291.2,308.3c1.3,1.5,2.1,3.1,2.1,4.7c0,8.5-19.2,15.4-42.8,15.4c-23.7,0-42.9-6.9-42.9-15.4
			c0-1.7,0.8-3.3,2.1-4.7c-7.8,3.7-12.5,8.5-12.5,13.7c0,11.8,23.8,21.3,53.2,21.3s53.2-9.6,53.2-21.3
			C303.7,316.8,299,312,291.2,308.3z"/>
		
			<linearGradient id="SVGID_2_" gradientUnits="userSpaceOnUse" x1="234.2402" y1="207.3112" x2="266.6471" y2="151.1808" gradientTransform="matrix(1 0 0 -1 0 501.276)">
			<stop  offset="0" style="stop-color:#FFFFFF;stop-opacity:0.3"/>
			<stop  offset="1" style="stop-color:#000000;stop-opacity:0"/>
		</linearGradient>
		<path class="st3" d="M291.2,308.3c1.3,1.5,2.1,3.1,2.1,4.7c0,8.5-19.2,15.4-42.8,15.4c-23.7,0-42.9-6.9-42.9-15.4
			c0-1.7,0.8-3.3,2.1-4.7c-7.8,3.7-12.5,8.5-12.5,13.7c0,11.8,23.8,21.3,53.2,21.3s53.2-9.6,53.2-21.3
			C303.7,316.8,299,312,291.2,308.3z"/>
		<g>
			
				<linearGradient id="SVGID_3_" gradientUnits="userSpaceOnUse" x1="206.8191" y1="328.2755" x2="261.8174" y2="233.0155" gradientTransform="matrix(1 0 0 -1 0 501.276)">
				<stop  offset="0" style="stop-color:#FFFFFF;stop-opacity:0.3"/>
				<stop  offset="1" style="stop-color:#000000;stop-opacity:0"/>
			</linearGradient>
			<path class="st4" d="M289.8,209.9c0-14.8-8.2-27.7-20.3-34.4c0.4-1.6,0.6-3.2,0.6-4.9c0-10.9-8.8-19.7-19.7-19.7
				s-19.7,8.8-19.7,19.7c0,1.7,0.2,3.3,0.6,4.9c-12.1,6.7-20.3,19.6-20.3,34.4v87.7l78.7-78.7L289.8,209.9L289.8,209.9z"/>
		</g>
		<path class="st0" d="M250.5,100.1c-82.6,0-149.6,67-149.6,149.6s67,149.6,149.6,149.6s149.6-67,149.6-149.6
			S333.1,100.1,250.5,100.1z M127.1,249.7c0-29.4,10.3-56.3,27.4-77.5L328,345.7c-21.2,17.1-48.2,27.4-77.5,27.4
			C182.3,373.1,127.1,317.9,127.1,249.7z M346.5,327.2L173,153.7c21.2-17.1,48.2-27.4,77.5-27.4c68.2,0,123.4,55.3,123.4,123.4
			C373.9,279.1,363.7,306,346.5,327.2z"/>
		<g>
			<g>
				<defs>
					<path id="SVGID_4_" d="M250.5,100.1c-82.6,0-149.6,67-149.6,149.6s67,149.6,149.6,149.6s149.6-67,149.6-149.6
						S333.1,100.1,250.5,100.1z M127.1,249.7c0-29.4,10.3-56.3,27.4-77.5L328,345.7c-21.2,17.1-48.2,27.4-77.5,27.4
						C182.3,373.1,127.1,317.9,127.1,249.7z M346.5,327.2L173,153.7c21.2-17.1,48.2-27.4,77.5-27.4c68.2,0,123.4,55.3,123.4,123.4
						C373.9,279.1,363.7,306,346.5,327.2z"/>
				</defs>
				<clipPath id="SVGID_5_">
					<use xlink:href="#SVGID_4_"  style="overflow:visible;"/>
				</clipPath>
				
					<radialGradient id="SVGID_6_" cx="154.1001" cy="347.626" r="149.625" gradientTransform="matrix(1 0 0 -1 0 501.276)" gradientUnits="userSpaceOnUse">
					<stop  offset="0" style="stop-color:#FFFFFF;stop-opacity:0.3"/>
					<stop  offset="1" style="stop-color:#000000;stop-opacity:0"/>
				</radialGradient>
				<path class="st5" d="M154.1,4C71.5,4,4.5,71,4.5,153.7c0,82.6,67,149.6,149.6,149.6s149.6-67,149.6-149.6
					C303.8,71,236.8,4,154.1,4z"/>
			</g>
		</g>
	</g>
</g>
</svg>
