<?xml version="1.0" encoding="utf-8"?>
<!-- Generator: Adobe Illustrator 22.0.1, SVG Export Plug-In . SVG Version: 6.00 Build 0)  -->
<svg version="1.1" id="Camada_1" xmlns="http://www.w3.org/2000/svg" xmlns:xlink="http://www.w3.org/1999/xlink" x="0px" y="0px"
	 viewBox="0 0 500 500" style="enable-background:new 0 0 500 500;" xml:space="preserve">
<style type="text/css">
	.st0{fill:#FCCF00;}
	.st1{fill:url(#SVGID_1_);}
	.st2{fill:#FFFFFF;}
	.st3{fill:url(#SVGID_2_);}
	.st4{fill:url(#SVGID_3_);}
	.st5{fill:url(#SVGID_4_);}
	.st6{fill:url(#SVGID_5_);}
	.st7{clip-path:url(#SVGID_7_);fill:url(#SVGID_8_);}
</style>
<g id="BB_Abrev_W">
	<g>
		<rect x="181.2" y="188.6" class="st0" width="16" height="123.9"/>
		<g>
			<g>
				<path class="st0" d="M308.4,221c0,11.7-3.6,19.5-12.5,25.6v0.7c11.2,4.9,17.6,14.8,17.6,30c0,22.5-18.3,34.5-42.9,34.5h-50.1
					c-5.6,0-7.5-1.9-7.5-7.3V195.4c0-5.6,1.9-7.5,7.5-7.5h49.3C293.9,187.9,308.4,199.7,308.4,221z M262.7,215.9h-15.2v19.2h15.2
					c7,0,10.6-2.6,10.6-9.4C273.3,218.9,269.7,215.9,262.7,215.9z M266,263.2h-18.5v20.4H266c7.5,0,11.2-3,11.2-10.3
					C277.2,266.3,273.5,263.2,266,263.2z"/>
			</g>
		</g>
		<g>
			
				<linearGradient id="SVGID_1_" gradientUnits="userSpaceOnUse" x1="260.65" y1="251.276" x2="260.65" y2="313.376" gradientTransform="matrix(1 0 0 -1 0 501.276)">
				<stop  offset="0" style="stop-color:#000000;stop-opacity:0"/>
				<stop  offset="1" style="stop-color:#FFFFFF;stop-opacity:0.3"/>
			</linearGradient>
			<path class="st1" d="M295.8,247.3v-0.7c8.9-6.1,12.5-13.9,12.5-25.6c0-21.2-14.5-33.1-38.5-33.1h-49.3c-5.6,0-7.5,1.9-7.5,7.5
				V250h87.8C299.3,249,297.6,248,295.8,247.3z M262.7,235.1h-15.2v-19.2h15.2c7,0,10.6,2.9,10.6,9.8
				C273.3,232.5,269.7,235.1,262.7,235.1z"/>
			<path class="st2" d="M415.1,221.7c0,11.7-3.7,19.5-12.5,25.6v0.7c11.2,4.9,17.6,14.8,17.6,30c0,22.5-18.3,34.5-42.9,34.5h-50.1
				c-5.6,0-7.5-1.9-7.5-7.3V196.1c0-5.6,1.9-7.5,7.5-7.5h49.3C400.7,188.6,415.1,200.4,415.1,221.7z M369.5,216.6h-15.2v19.2h15.2
				c7,0,10.6-2.6,10.6-9.4C380.1,219.6,376.4,216.6,369.5,216.6z M372.8,263.8h-18.5v20.4h18.5c7.5,0,11.2-3,11.2-10.3
				C383.9,267,380.3,263.8,372.8,263.8z"/>
			
				<linearGradient id="SVGID_2_" gradientUnits="userSpaceOnUse" x1="367.45" y1="250.5703" x2="367.45" y2="312.7703" gradientTransform="matrix(1 0 0 -1 0 501.276)">
				<stop  offset="0" style="stop-color:#000000;stop-opacity:0"/>
				<stop  offset="1" style="stop-color:#FFFFFF;stop-opacity:0.3"/>
			</linearGradient>
			<path class="st3" d="M402.6,248v-0.7c8.9-6.1,12.5-13.9,12.5-25.6c0-21.2-14.4-33.1-38.5-33.1h-49.3c-5.6,0-7.5,1.9-7.5,7.5v54.7
				h87.8C406,249.7,404.4,248.7,402.6,248z M369.5,235.8h-15.2v-19.2h15.2c7,0,10.6,2.9,10.6,9.8
				C380.1,233.2,376.4,235.8,369.5,235.8z"/>
		</g>
		<g>
			
				<linearGradient id="SVGID_3_" gradientUnits="userSpaceOnUse" x1="189.2" y1="250.7738" x2="189.2" y2="312.7738" gradientTransform="matrix(1 0 0 -1 0 501.276)">
				<stop  offset="0" style="stop-color:#000000;stop-opacity:0"/>
				<stop  offset="1" style="stop-color:#FFFFFF;stop-opacity:0.3"/>
			</linearGradient>
			<rect x="181.2" y="188.6" class="st4" width="16" height="62"/>
		</g>
		<g>
			<path class="st2" d="M116,222c0.2-0.6,0.3-1.2,0.3-1.9c0-4.2-3.4-7.6-7.6-7.6s-7.6,3.4-7.6,7.6c0,0.7,0.1,1.3,0.2,1.9
				c-4.7,2.6-7.8,7.5-7.8,13.3v38.6c0,2.1,6.8,3.9,15.2,3.9s15.1-1.7,15.1-3.9v-38.6C123.9,229.5,120.7,224.6,116,222z"/>
			<path class="st2" d="M124.4,273.2c0.5,0.6,0.8,1.2,0.8,1.8c0,3.3-7.4,5.9-16.5,5.9s-16.5-2.7-16.5-5.9c0-0.6,0.3-1.3,0.8-1.8
				c-3,1.4-4.8,3.3-4.8,5.3c0,4.5,9.2,8.2,20.5,8.2s20.5-3.7,20.5-8.2C129.2,276.4,127.4,274.6,124.4,273.2z"/>
			
				<linearGradient id="SVGID_4_" gradientUnits="userSpaceOnUse" x1="102.4511" y1="233.632" x2="114.9296" y2="212.0186" gradientTransform="matrix(1 0 0 -1 0 501.276)">
				<stop  offset="0" style="stop-color:#FFFFFF;stop-opacity:0.3"/>
				<stop  offset="1" style="stop-color:#000000;stop-opacity:0"/>
			</linearGradient>
			<path class="st5" d="M124.4,273.2c0.5,0.6,0.8,1.2,0.8,1.8c0,3.3-7.4,5.9-16.5,5.9s-16.5-2.7-16.5-5.9c0-0.6,0.3-1.3,0.8-1.8
				c-3,1.4-4.8,3.3-4.8,5.3c0,4.5,9.2,8.2,20.5,8.2s20.5-3.7,20.5-8.2C129.2,276.4,127.4,274.6,124.4,273.2z"/>
			<g>
				
					<linearGradient id="SVGID_5_" gradientUnits="userSpaceOnUse" x1="92.0036" y1="280.257" x2="113.1791" y2="243.58" gradientTransform="matrix(1 0 0 -1 0 501.276)">
					<stop  offset="0" style="stop-color:#FFFFFF;stop-opacity:0.3"/>
					<stop  offset="1" style="stop-color:#000000;stop-opacity:0"/>
				</linearGradient>
				<path class="st6" d="M123.9,235.3c0-5.7-3.2-10.7-7.8-13.3c0.2-0.6,0.3-1.2,0.3-1.9c0-4.2-3.4-7.6-7.6-7.6s-7.6,3.4-7.6,7.6
					c0,0.7,0.1,1.3,0.2,1.9c-4.7,2.6-7.8,7.5-7.8,13.3V269l30.3-30.3C123.9,238.7,123.9,235.3,123.9,235.3z"/>
			</g>
			<path class="st0" d="M108.7,193c-31.8,0-57.6,25.8-57.6,57.6s25.8,57.6,57.6,57.6s57.6-25.8,57.6-57.6
				C166.3,218.8,140.5,193,108.7,193z M61.2,250.6c0-11.3,4-21.7,10.6-29.9l66.8,66.8c-8.2,6.6-18.5,10.6-29.9,10.6
				C82.5,298.1,61.2,276.8,61.2,250.6z M145.7,280.4l-66.8-66.8c8.2-6.6,18.5-10.6,29.9-10.6c26.2,0,47.5,21.3,47.5,47.5
				C156.2,261.9,152.3,272.3,145.7,280.4z"/>
			<g>
				<g>
					<defs>
						<path id="SVGID_6_" d="M108.7,193c-31.8,0-57.6,25.8-57.6,57.6s25.8,57.6,57.6,57.6s57.6-25.8,57.6-57.6
							C166.3,218.8,140.5,193,108.7,193z M61.2,250.6c0-11.3,4-21.7,10.6-29.9l66.8,66.8c-8.2,6.6-18.5,10.6-29.9,10.6
							C82.5,298.1,61.2,276.8,61.2,250.6z M145.7,280.4l-66.8-66.8c8.2-6.6,18.5-10.6,29.9-10.6c26.2,0,47.5,21.3,47.5,47.5
							C156.2,261.9,152.3,272.3,145.7,280.4z"/>
					</defs>
					<clipPath id="SVGID_7_">
						<use xlink:href="#SVGID_6_"  style="overflow:visible;"/>
					</clipPath>
					
						<radialGradient id="SVGID_8_" cx="71.6" cy="287.676" r="57.6" gradientTransform="matrix(1 0 0 -1 0 501.276)" gradientUnits="userSpaceOnUse">
						<stop  offset="0" style="stop-color:#FFFFFF;stop-opacity:0.3"/>
						<stop  offset="1" style="stop-color:#000000;stop-opacity:0"/>
					</radialGradient>
					<path class="st7" d="M71.6,156C39.8,156,14,181.8,14,213.6s25.8,57.6,57.6,57.6s57.6-25.8,57.6-57.6S103.4,156,71.6,156z"/>
				</g>
			</g>
		</g>
	</g>
</g>
</svg>
