<?xml version="1.0" encoding="utf-8"?>
<!-- Generator: Adobe Illustrator 22.0.1, SVG Export Plug-In . SVG Version: 6.00 Build 0)  -->
<svg version="1.1" id="Camada_1" xmlns="http://www.w3.org/2000/svg" xmlns:xlink="http://www.w3.org/1999/xlink" x="0px" y="0px"
	 viewBox="0 0 1920 1312" style="enable-background:new 0 0 1920 1312;" xml:space="preserve">
<style type="text/css">
	.st0{fill:#E02F32;}
	.st1{fill:#173A8F;}
	.st2{fill:url(#SVGID_1_);}
	.st3{fill:url(#SVGID_2_);}
	.st4{fill:url(#SVGID_3_);}
	.st5{fill:url(#SVGID_4_);}
	.st6{fill:url(#SVGID_5_);}
	.st7{fill:url(#SVGID_6_);}
	.st8{fill:url(#SVGID_7_);}
	.st9{fill:url(#SVGID_8_);}
	.st10{fill:url(#SVGID_9_);}
	.st11{fill:#87B81C;}
	.st12{clip-path:url(#SVGID_11_);fill:url(#SVGID_12_);}
	.st13{fill:url(#SVGID_13_);}
	.st14{fill:url(#SVGID_14_);}
</style>
<g id="CineHot">
	<path class="st0" d="M1226.7,590.2v128.4c0,6.4-2.3,8.6-8.6,8.6h-21.8c-6.3,0-8.6-2.2-8.6-8.6v-47.2h-39v47.2
		c0,6.4-2.1,8.6-8.6,8.6h-21.6c-6.6,0-8.8-2.2-8.8-8.6V590.2c0-6.6,2.2-8.8,8.8-8.8h21.6c6.6,0,8.6,2.3,8.6,8.8v45.4h39v-45.4
		c0-6.6,2.3-8.8,8.6-8.8h21.8C1224.5,581.3,1226.7,583.6,1226.7,590.2z"/>
	<path class="st0" d="M1304.8,578.5c40.4,0,58.2,23.8,58.2,59.3v36.9c0,35.5-17.8,55.6-58.2,55.6c-40.6,0-58.6-22-58.6-57.4V636
		C1246.2,600.4,1264.2,578.5,1304.8,578.5z M1304.8,614.4c-14.4,0-19.5,6.8-19.5,19.7v40.6c0,12.9,5.2,19.7,19.5,19.7
		c14.2,0,19.5-5,19.5-17.9v-40.6C1324.3,622.9,1319,614.4,1304.8,614.4z"/>
	<path class="st0" d="M1489.4,590.2v18.5c0,6.6-2.3,8.8-8.8,8.8h-30.2v101.1c0,6.4-2.3,8.6-8.8,8.6H1420c-6.6,0-8.6-2.2-8.6-8.6
		V617.4H1381c-6.6,0-8.6-2.2-8.6-8.8v-18.5c0-6.4,2-8.6,8.6-8.6h99.7C1487.1,581.6,1489.4,583.8,1489.4,590.2z"/>
	<g>
		<g>
			<g>
				<g>
					<path class="st1" d="M713.5,578.2c31.6,0,51.3,13,60,36c2.1,5.9,0.6,9-5.5,11.1l-22,7.8c-6.4,1.9-8.8,0.8-11.1-5.6
						c-3.7-9.2-9.9-13.3-21.4-13.3c-16.2,0-22.6,7-22.6,21.3v37.4c0,14.4,6.3,21.4,22.6,21.4c11.5,0,18.1-4.5,21.4-13.4
						c2.5-6.4,4.9-7.8,11.1-5.6l22,7.8c6.2,2.1,7.6,5.1,5.5,11.1c-8.6,23-28.3,35.9-60,35.9c-40.5,0-63.3-22-63.3-57.5v-36.9
						C650.3,600.2,673.1,578.2,713.5,578.2z"/>
				</g>
			</g>
			<g>
				<g>
					<path class="st1" d="M795.4,581.3h22.4c6.2,0,8.2,2.1,8.2,8.2v129.4c0,6.2-2.1,8.2-8.2,8.2h-22.4c-6.2,0-8.2-2-8.2-8.2V589.6
						C787.1,583.4,789.2,581.3,795.4,581.3z"/>
				</g>
			</g>
			<g>
				<g>
					<path class="st1" d="M962.8,589.9v128.6c0,6.4-2.3,8.6-8.6,8.6H931c-4.3,0-6.6-1.2-8.4-4.1l-25.5-48.7
						c-9-14.2-12.5-23.9-18.1-42.3l0,0c4.3,19.7,5.8,30.2,5.8,53v33.4c0,6.4-2.2,8.6-8.8,8.6h-21.4c-6.6,0-8.8-2.2-8.8-8.6V589.9
						c0-6.3,2.2-8.6,8.8-8.6h24.3c4.7,0,6.8,1.2,8.6,4.1L915,638c9,14.2,10.7,22,17.2,37.6l0,0c-6.5-21.1-7.6-31-7.6-52v-33.7
						c0-6.3,2.1-8.6,8.6-8.6h20.9C960.6,581.3,962.8,583.6,962.8,589.9z"/>
				</g>
			</g>
			<g>
				<g>
					<path class="st1" d="M1089.4,589.9v18.5c0,6.6-2.3,8.8-8.8,8.8H1023v18.3h38c6.6,0,8.8,2.2,8.8,8.6v18.5c0,6.6-2.2,8.8-8.8,8.8
						h-38v19.7h57.8c6.4,0,8.6,2.1,8.6,8.6v18.6c0,6.4-2.3,8.6-8.6,8.6h-89.6c-6.6,0-8.8-2.2-8.8-8.6V589.9c0-6.3,2.2-8.6,8.8-8.6
						h89.4C1087.1,581.3,1089.4,583.6,1089.4,589.9z"/>
				</g>
			</g>
		</g>
	</g>
	<rect x="601.8" y="581.4" class="st1" width="18.9" height="145.9"/>
	<g>
		
			<linearGradient id="SVGID_1_" gradientUnits="userSpaceOnUse" x1="1168.35" y1="656.976" x2="1168.35" y2="729.876" gradientTransform="matrix(1 0 0 -1 0 1311.276)">
			<stop  offset="0" style="stop-color:#000000;stop-opacity:0"/>
			<stop  offset="1" style="stop-color:#FFFFFF;stop-opacity:0.3"/>
		</linearGradient>
		<path class="st2" d="M1226.8,590.2c0-6.5-2.3-8.8-8.6-8.8h-21.8c-6.3,0-8.6,2.3-8.6,8.8v45.4h-39v-45.4c0-6.5-2.1-8.8-8.6-8.8
			h-21.6c-6.6,0-8.8,2.3-8.8,8.8v64.1h117.1L1226.8,590.2L1226.8,590.2z"/>
		
			<linearGradient id="SVGID_2_" gradientUnits="userSpaceOnUse" x1="1304.7" y1="657.076" x2="1304.7" y2="732.876" gradientTransform="matrix(1 0 0 -1 0 1311.276)">
			<stop  offset="0" style="stop-color:#000000;stop-opacity:0"/>
			<stop  offset="1" style="stop-color:#FFFFFF;stop-opacity:0.3"/>
		</linearGradient>
		<path class="st3" d="M1285.4,634.1c0-12.9,5.2-19.7,19.5-19.7c14.2,0,19.5,8.6,19.5,21.5v18.3h38.7v-16.5
			c0-35.5-17.8-59.3-58.2-59.3c-40.6,0-58.6,22-58.6,57.5v18.3h39L1285.4,634.1L1285.4,634.1z"/>
		
			<linearGradient id="SVGID_3_" gradientUnits="userSpaceOnUse" x1="1430.95" y1="656.976" x2="1430.95" y2="729.676" gradientTransform="matrix(1 0 0 -1 0 1311.276)">
			<stop  offset="0" style="stop-color:#000000;stop-opacity:0"/>
			<stop  offset="1" style="stop-color:#FFFFFF;stop-opacity:0.3"/>
		</linearGradient>
		<path class="st4" d="M1450.5,617.5h30.2c6.6,0,8.8-2.2,8.8-8.8v-18.5c0-6.4-2.3-8.6-8.8-8.6H1381c-6.6,0-8.6,2.3-8.6,8.6v18.5
			c0,6.6,2,8.8,8.6,8.8h30.4v36.8h39L1450.5,617.5L1450.5,617.5z"/>
		
			<linearGradient id="SVGID_4_" gradientUnits="userSpaceOnUse" x1="712.5062" y1="656.976" x2="712.5062" y2="732.976" gradientTransform="matrix(1 0 0 -1 0 1311.276)">
			<stop  offset="0" style="stop-color:#000000;stop-opacity:0"/>
			<stop  offset="1" style="stop-color:#FFFFFF;stop-opacity:0.3"/>
		</linearGradient>
		<path class="st5" d="M691.1,635.6c0-14.4,6.3-21.3,22.6-21.3c11.5,0,17.7,4.1,21.4,13.3c2.2,6.4,4.7,7.4,11.1,5.6l22-7.8
			c6.2-2.1,7.6-5.1,5.5-11.1c-8.6-23-28.3-36-60-36c-40.5,0-63.3,22-63.3,57.6v18.4h40.7V635.6z"/>
		
			<linearGradient id="SVGID_5_" gradientUnits="userSpaceOnUse" x1="806.7" y1="656.976" x2="806.7" y2="729.876" gradientTransform="matrix(1 0 0 -1 0 1311.276)">
			<stop  offset="0" style="stop-color:#000000;stop-opacity:0"/>
			<stop  offset="1" style="stop-color:#FFFFFF;stop-opacity:0.3"/>
		</linearGradient>
		<path class="st6" d="M826.1,589.6c0-6.2-2.1-8.2-8.2-8.2h-22.4c-6.2,0-8.2,2.1-8.2,8.2v64.7h38.8L826.1,589.6L826.1,589.6z"/>
		
			<linearGradient id="SVGID_6_" gradientUnits="userSpaceOnUse" x1="943.9" y1="656.976" x2="943.9" y2="729.876" gradientTransform="matrix(1 0 0 -1 0 1311.276)">
			<stop  offset="0" style="stop-color:#000000;stop-opacity:0"/>
			<stop  offset="1" style="stop-color:#FFFFFF;stop-opacity:0.3"/>
		</linearGradient>
		<path class="st7" d="M962.9,590c0-6.3-2.3-8.6-8.6-8.6h-20.9c-6.6,0-8.6,2.3-8.6,8.6v33.7c0,12.6,0.4,21.2,2.1,30.6H963L962.9,590
			L962.9,590z"/>
		
			<linearGradient id="SVGID_7_" gradientUnits="userSpaceOnUse" x1="884.8" y1="656.976" x2="884.8" y2="729.876" gradientTransform="matrix(1 0 0 -1 0 1311.276)">
			<stop  offset="0" style="stop-color:#000000;stop-opacity:0"/>
			<stop  offset="1" style="stop-color:#FFFFFF;stop-opacity:0.3"/>
		</linearGradient>
		<path class="st8" d="M879.1,632.1c2.7,9,4.9,15.8,7.5,22.2h37.2c-2.2-5-4.7-10-8.7-16.2l-27.6-52.6c-1.8-2.9-3.9-4.1-8.6-4.1
			h-24.3c-6.6,0-8.8,2.3-8.8,8.6v64.3h37.4C882.3,647.4,881,640.6,879.1,632.1z"/>
		
			<linearGradient id="SVGID_8_" gradientUnits="userSpaceOnUse" x1="1036.1" y1="656.976" x2="1036.1" y2="729.876" gradientTransform="matrix(1 0 0 -1 0 1311.276)">
			<stop  offset="0" style="stop-color:#000000;stop-opacity:0"/>
			<stop  offset="1" style="stop-color:#FFFFFF;stop-opacity:0.3"/>
		</linearGradient>
		<path class="st9" d="M1070,644.2c0-6.4-2.3-8.6-8.8-8.6h-38v-18.3h57.6c6.6,0,8.8-2.2,8.8-8.8V590c0-6.3-2.3-8.6-8.8-8.6h-89.4
			c-6.6,0-8.8,2.3-8.8,8.6v64.3h87.5L1070,644.2L1070,644.2z"/>
	</g>
	<g>
		
			<linearGradient id="SVGID_9_" gradientUnits="userSpaceOnUse" x1="611.25" y1="656.887" x2="611.25" y2="729.787" gradientTransform="matrix(1 0 0 -1 0 1311.276)">
			<stop  offset="0" style="stop-color:#000000;stop-opacity:0"/>
			<stop  offset="1" style="stop-color:#FFFFFF;stop-opacity:0.3"/>
		</linearGradient>
		<rect x="601.8" y="581.4" class="st10" width="18.9" height="72.9"/>
	</g>
	<path class="st1" d="M453,637.8l8.4-2.6l8.4-2.6l8.1-2.5l8.4-2.6l8-2.5l8.4-2.6l8.2-2.5l8.4-2.6l8-2.5l8.4-2.6l8.4-2.6l8.4-2.6
		l0.6-0.2l5.3-1.6V605l-1.8-5.7L555,594c0,0-0.4-1.4-1.3-2.6c-1.3-2-3.2-2.5-5.9-2c-1,0.1-2.2,0.4-2.2,0.4l-6.1,1.9l-8,2.5l-8.5,2.6
		l-8.2,2.5l-8.4,2.6l-8.1,2.5l-8.4,2.6l-8.1,2.5l-8.4,2.6l-8.4,2.6l-8.5,2.6l-8,2.5l-8.4,2.6l-1,0.3l-0.7,0.2
		c-5.3,1.6-6.6,4.1-4.9,9.6l0,0l0.5,1.5l2.6,8.4v0.1l0.1,0.2l7.7-2.4L453,637.8z M553.7,591.9c0.4,0.6,1,2.3,1,2.3l1.8,5.7l-3.5,6.6
		l-8.4,2.6L553.7,591.9z M539.4,592.3l6.5-2c0,0,1.3-0.4,1.8-0.4l-11.5,21.8l-8.4,2.6L539.4,592.3z M522.9,597.4l8.4-2.6l-11.6,22
		l-8.5,2.6L522.9,597.4z M506.3,602.5l8.4-2.6l-11.7,22l-8.5,2.6L506.3,602.5z M489.9,607.6l8.4-2.6l-11.6,22l-8.4,2.6L489.9,607.6z
		 M473.4,612.7l8.4-2.6l-11.6,22l-8.4,2.6L473.4,612.7z M456.5,617.8l8.4-2.6l-11.6,22l-8.5,2.6L456.5,617.8z M438.7,638.8l-1.7,3.1
		l-2.6-8.5l5.6-10.6l8.5-2.6l-9.3,17.6v0.1C439.2,638.4,439,638.7,438.7,638.8z"/>
	<path class="st1" d="M436.9,643.1v66c0,5.7,2,7.6,7.4,7.6h110.8c5.5,0,7.4-1.9,7.4-7.6v-66H436.9z M438.5,647.1
		c-0.4,0-0.8-0.4-0.8-0.8c0-0.4,0.4-0.8,0.8-0.8s0.8,0.4,0.8,0.8C439.2,646.7,438.9,647.1,438.5,647.1z M450,647.1
		c-0.4,0-0.8-0.3-0.8-0.8c0-0.4,0.3-0.8,0.8-0.8c0.4,0,0.8,0.3,0.8,0.8S450.5,647.1,450,647.1z"/>
	<g>
		<path class="st11" d="M510.9,653.6c0,0,0.8-0.4,1.7-0.4c0.9,0,4,0.9,4,4s2.6,4.2,4,4.2c0,0-5.3,6.2-11.3,0c0,0,4-0.5,4-4.1
			C513.1,654.7,510.9,653.6,510.9,653.6z"/>
		<path class="st0" d="M509.2,662.5c-1.3,1.4-2.4,3.8-2.4,6.2c-0.1,7.7-3,15.4-8.7,21.2c-10.9,11.2-28.1,11.9-39.8,2.2
			c0.7,0.9,1.5,1.8,2.3,2.6c14.2,14.6,37.3,14.6,51.5,0c7.3-7.5,10.9-17.4,10.6-27.3c-0.2-1.8-0.9-3.6-2.3-4.9
			c-1.6-1.6-3.6-0.6-5.7-0.6C512.8,661.9,510.8,660.9,509.2,662.5z"/>
		<g>
			<g>
				<defs>
					<path id="SVGID_10_" d="M509.2,662.5c-1.3,1.4-2.4,3.8-2.4,6.2c-0.1,7.7-3,15.4-8.7,21.2c-10.9,11.2-28.1,11.9-39.8,2.2
						c0.7,0.9,1.5,1.8,2.3,2.6c14.2,14.6,37.3,14.6,51.5,0c7.3-7.5,10.9-17.4,10.6-27.3c-0.2-1.8-0.9-3.6-2.3-4.9
						c-1.6-1.6-3.6-0.6-5.7-0.6C512.8,661.9,510.8,660.9,509.2,662.5z"/>
				</defs>
				<clipPath id="SVGID_11_">
					<use xlink:href="#SVGID_10_"  style="overflow:visible;"/>
				</clipPath>
				
					<radialGradient id="SVGID_12_" cx="457.2261" cy="643.076" r="37.4968" gradientTransform="matrix(0.9735 0 0 -1 41.1904 1311.276)" gradientUnits="userSpaceOnUse">
					<stop  offset="0.2562" style="stop-color:#FFFFFF;stop-opacity:0.3"/>
					<stop  offset="0.8966" style="stop-color:#000000;stop-opacity:0"/>
				</radialGradient>
				<path class="st12" d="M522.8,668.2c0-20.7-16.3-37.5-36.5-37.5c-20.1,0-36.5,16.8-36.5,37.5s16.3,37.5,36.5,37.5
					C506.5,705.6,522.8,688.9,522.8,668.2z"/>
			</g>
		</g>
	</g>
	
		<linearGradient id="SVGID_13_" gradientUnits="userSpaceOnUse" x1="495.7484" y1="668.5011" x2="495.7484" y2="721.9714" gradientTransform="matrix(1 0 0 -1 0 1311.276)">
		<stop  offset="0" style="stop-color:#000000;stop-opacity:0"/>
		<stop  offset="1" style="stop-color:#FFFFFF;stop-opacity:0.3"/>
	</linearGradient>
	<path class="st13" d="M433.7,632.5l0.5,1.5l2.6,8.4v0.1l0.1,0.2l7.7-2.4l8.5-2.6l8.4-2.6l8.4-2.6l8.1-2.5l8.4-2.6l8-2.5l8.4-2.6
		l8.2-2.5l8.4-2.6l8-2.5l8.4-2.6l8.4-2.6l8.4-2.6l0.6-0.2l5.3-1.6v-0.2l-1.8-5.7l-1.6-5.3c0,0-0.4-1.4-1.3-2.6c-1.3-2-3.2-2.5-5.9-2
		c-1,0.1-2.2,0.4-2.2,0.4l-6.1,1.9l-8,2.5l-8.5,2.6l-8.2,2.5l-8.4,2.6l-8.1,2.5l-8.4,2.6l-8.1,2.5l-8.4,2.6l-8.4,2.6l-8.5,2.6
		l-8,2.5l-8.4,2.6l-1,0.3l-0.7,0.2C433.3,624.5,432,627,433.7,632.5L433.7,632.5z M553.7,591.9c0.4,0.6,1,2.3,1,2.3l1.8,5.7
		l-3.5,6.6l-8.4,2.6L553.7,591.9z M539.3,592.3l6.5-2c0,0,1.3-0.4,1.8-0.4l-11.5,21.8l-8.4,2.6L539.3,592.3z M522.9,597.4l8.4-2.6
		l-11.6,22l-8.5,2.6L522.9,597.4z M506.3,602.5l8.4-2.6l-11.7,22l-8.5,2.6L506.3,602.5z M489.8,607.6l8.4-2.6l-11.6,22l-8.4,2.6
		L489.8,607.6z M473.3,612.7l8.4-2.6l-11.6,22l-8.4,2.6L473.3,612.7z M456.5,617.8l8.4-2.6l-11.6,22l-8.5,2.6L456.5,617.8z
		 M440,622.9l8.5-2.6l-9.3,17.6v0.1c0,0.3-0.2,0.6-0.5,0.7l-1.7,3.1l-2.6-8.5L440,622.9z"/>
	
		<linearGradient id="SVGID_14_" gradientUnits="userSpaceOnUse" x1="499.7" y1="630.7364" x2="499.7" y2="668.1364" gradientTransform="matrix(1 0 0 -1 0 1311.276)">
		<stop  offset="0" style="stop-color:#000000;stop-opacity:0"/>
		<stop  offset="1" style="stop-color:#FFFFFF;stop-opacity:0.3"/>
	</linearGradient>
	<path class="st14" d="M562.5,680.5v-37.4H436.9v37.4H562.5z M438.4,647.1c-0.4,0-0.8-0.4-0.8-0.8c0-0.4,0.4-0.8,0.8-0.8
		s0.8,0.4,0.8,0.8C439.2,646.7,438.8,647.1,438.4,647.1z M450,647.1c-0.4,0-0.8-0.3-0.8-0.8c0-0.4,0.3-0.8,0.8-0.8s0.8,0.3,0.8,0.8
		S450.4,647.1,450,647.1z"/>
</g>
</svg>
