<?xml version="1.0" encoding="utf-8"?>
<!-- Generator: Adobe Illustrator 22.0.1, SVG Export Plug-In . SVG Version: 6.00 Build 0)  -->
<svg version="1.1" id="Camada_1" xmlns="http://www.w3.org/2000/svg" xmlns:xlink="http://www.w3.org/1999/xlink" x="0px" y="0px"
	 viewBox="0 0 500 500" style="enable-background:new 0 0 500 500;" xml:space="preserve">
<style type="text/css">
	.st0{fill:#173A8F;}
	.st1{fill:url(#SVGID_1_);}
	.st2{fill:#87B81C;}
	.st3{fill:#E02F32;}
	.st4{clip-path:url(#SVGID_3_);fill:url(#SVGID_4_);}
	.st5{fill:url(#SVGID_5_);}
	.st6{fill:url(#SVGID_6_);}
</style>
<g id="Camada_1_1_">
</g>
<g id="CineHot_Icon_Tag">
	<g>
		<path class="st0" d="M436.2,196.2h-8.4c-2.7,0-4.5,1.1-4.5,4.1s1.4,4.1,4.1,4.1h8.5c2.7,0,4.1-1.1,4.1-4.1
			C439.9,197.3,438.9,196.2,436.2,196.2z"/>
		<path class="st0" d="M411.4,98.8v300.8h38.9V98.8H411.4z M416.4,163.6c0-1.4,0.5-1.8,1.8-1.8h3.9c1.4,0,1.8,0.5,1.8,1.8v6.3H445
			c1.3,0,1.8,0.5,1.8,1.8v4.5c0,1.4-0.5,1.8-1.8,1.8h-21.1v6.3c0,1.4-0.5,1.8-1.8,1.8h-3.9c-1.3,0-1.8-0.4-1.8-1.8L416.4,163.6
			L416.4,163.6z M435.4,336.5h-7.7c-7.4,0-12-4.8-12-13.2c0-6.6,2.7-10.7,7.5-12.5c1.2-0.4,1.9-0.1,2.3,1.2l1.6,4.6
			c0.4,1.3,0.2,1.8-1.2,2.3c-1.9,0.8-2.8,2.1-2.8,4.5c0,3.4,1.5,4.7,4.4,4.7h7.8c3,0,4.5-1.3,4.5-4.7c0-2.4-0.9-3.8-2.8-4.5
			c-1.3-0.5-1.6-1-1.1-2.3l1.6-4.6c0.4-1.3,1.1-1.6,2.3-1.2c4.8,1.8,7.5,5.9,7.5,12.5C447.4,331.8,442.8,336.5,435.4,336.5z
			 M425.2,279.4h-7c-1.3,0-1.8-0.4-1.8-1.8v-4.4c0-1.3,0.5-1.8,1.8-1.8H445c1.3,0,1.8,0.5,1.8,1.8v4.8c0,0.9-0.3,1.4-0.9,1.8
			l-10.1,5.3c-3,1.9-5,2.6-8.8,3.8c4.1-0.9,6.3-1.2,11-1.2h7c1.3,0,1.8,0.5,1.8,1.8v4.4c0,1.4-0.5,1.8-1.8,1.8h-26.8
			c-1.3,0-1.8-0.5-1.8-1.8v-5c0-1,0.3-1.4,0.8-1.8l11-5.7c2.9-1.9,4.6-2.2,7.8-3.6C431.6,279.2,429.6,279.4,425.2,279.4z
			 M418.2,224.6c-1.4,0-1.8-0.5-1.8-1.8v-4.5c0-1.3,0.5-1.8,1.8-1.8H445c1.3,0,1.8,0.5,1.8,1.8v4.5c0,1.3-0.5,1.8-1.8,1.8h-9.8v8.1
			h9.8c1.3,0,1.8,0.4,1.8,1.8v4.5c0,1.4-0.5,1.8-1.8,1.8h-26.7c-1.4,0-1.8-0.5-1.8-1.8v-4.5c0-1.4,0.5-1.8,1.8-1.8h9.4v-8.1H418.2z
			 M418.2,245.1h3.9c1.4,0,1.8,0.5,1.8,1.8v12h3.8V251c0-1.4,0.5-1.8,1.8-1.8h3.8c1.4,0,1.9,0.5,1.9,1.8v7.9h4.1v-12
			c0-1.3,0.4-1.8,1.8-1.8h3.9c1.3,0,1.8,0.5,1.8,1.8v18.7c0,1.4-0.5,1.8-1.8,1.8h-26.8c-1.3,0-1.8-0.5-1.8-1.8V247
			C416.4,245.5,416.9,245.1,418.2,245.1z M418.1,299.9H445c1.3,0,1.7,0.4,1.7,1.7v4.7c0,1.3-0.4,1.7-1.7,1.7h-26.9
			c-1.3,0-1.7-0.4-1.7-1.7v-4.7C416.4,300.4,416.8,299.9,418.1,299.9z M435.5,212.4h-7.7c-7.4,0-12-3.7-12-12.2
			c0-8.4,5-12.1,12.3-12.1h7.7c7.4,0,11.6,3.7,11.6,12.1C447.4,208.7,442.8,212.4,435.5,212.4z"/>
	</g>
	<path class="st0" d="M154.1,216.9l18-5.5l18.1-5.6l17.4-5.4l18.1-5.6l17.3-5.3l18.1-5.6l17.6-5.5l18.1-5.5l17.3-5.4l18.1-5.6
		l18.1-5.6l18.1-5.6l1.3-0.4l11.4-3.4l-0.1-0.4l-3.8-12.2l-3.5-11.5c0,0-1-3.1-2.7-5.6c-2.8-4.2-6.9-5.4-12.8-4.4
		c-2.2,0.2-4.7,0.9-4.7,0.9l-13.1,4.1l-17.2,5.4l-18.2,5.6l-17.6,5.4l-18.1,5.6l-17.3,5.3l-18.1,5.6l-17.3,5.4l-18.1,5.6l-18,5.6
		l-18.3,5.6l-17.3,5.3l-18.1,5.6l-2.2,0.7l-1.5,0.5c-11.4,3.5-14.2,8.8-10.6,20.6l0,0l1,3.3l5.6,18.1l0.1,0.3l0.2,0.4l16.5-5.1
		L154.1,216.9z M370.5,118.2c0.9,1.3,2.2,5,2.2,5l3.8,12.3l-7.5,14.2l-18.2,5.7L370.5,118.2z M339.7,119.1l14-4.3
		c0,0,2.8-0.8,3.9-0.8l-24.8,46.9l-18.2,5.6L339.7,119.1z M304.3,130l18.1-5.6l-25,47.3l-18.2,5.6L304.3,130z M268.7,141l18.1-5.6
		l-25.1,47.4l-18.2,5.7L268.7,141z M233.3,151.9l18.1-5.5l-25,47.3l-18.1,5.6L233.3,151.9z M197.8,162.8l18.1-5.6l-25,47.4
		l-18.1,5.6L197.8,162.8z M161.6,174l18.1-5.6l-25,47.4l-18.2,5.6L161.6,174z M123.3,219l-3.6,6.7l-5.6-18.2l12-22.7l18.2-5.6
		l-20.1,37.9c0,0.1,0.1,0.2,0.1,0.3C124.3,218.2,123.9,218.8,123.3,219z"/>
	<path class="st0" d="M119.4,228.4v141.8c0,12.3,4.2,16.4,15.9,16.4h238.3c11.9,0,16-4.1,16-16.4V228.4H119.4z M122.7,236.9
		c-0.9,0-1.7-0.8-1.7-1.7s0.8-1.7,1.7-1.7c0.9,0,1.7,0.8,1.7,1.7C124.4,236.1,123.6,236.9,122.7,236.9z M147.6,236.9
		c-0.9,0-1.7-0.7-1.7-1.7c0-0.9,0.7-1.7,1.7-1.7c0.9,0,1.7,0.7,1.7,1.7S148.5,236.9,147.6,236.9z"/>
	
		<linearGradient id="SVGID_1_" gradientUnits="userSpaceOnUse" x1="430.85" y1="251.976" x2="430.85" y2="402.376" gradientTransform="matrix(1 0 0 -1 0 501.276)">
		<stop  offset="0" style="stop-color:#000000;stop-opacity:0"/>
		<stop  offset="1" style="stop-color:#FFFFFF;stop-opacity:0.3"/>
	</linearGradient>
	<rect x="411.4" y="98.9" class="st1" width="38.9" height="150.4"/>
	<g>
		<path class="st2" d="M278.4,251c0,0,1.7-0.9,3.7-0.9s8.5,1.8,8.5,8.5c0,6.7,5.7,9,8.5,9c0,0-11.4,13.3-24.3,0c0,0,8.5-1,8.5-8.7
			C283.3,253.2,278.4,251,278.4,251z"/>
		<path class="st3" d="M274.9,270c-2.8,2.9-5.1,8.1-5.1,13.3c-0.2,16.5-6.5,33-18.8,45.6c-23.4,24-60.4,25.6-85.6,4.7
			c1.6,1.9,3.2,3.8,5,5.6c30.6,31.4,80.1,31.4,110.7,0c15.7-16.2,23.4-37.5,22.9-58.7c-0.4-3.9-2-7.6-4.9-10.6
			c-3.4-3.5-7.8-1.4-12.2-1.4C282.6,268.7,278.3,266.6,274.9,270z"/>
		<g>
			<g>
				<defs>
					<path id="SVGID_2_" d="M274.9,270c-2.8,2.9-5.1,8.1-5.1,13.3c-0.2,16.5-6.5,33-18.8,45.6c-23.4,24-60.4,25.6-85.6,4.7
						c1.6,1.9,3.2,3.8,5,5.6c30.6,31.4,80.1,31.4,110.7,0c15.7-16.2,23.4-37.5,22.9-58.7c-0.4-3.9-2-7.6-4.9-10.6
						c-3.4-3.5-7.8-1.4-12.2-1.4C282.6,268.7,278.3,266.6,274.9,270z"/>
				</defs>
				<clipPath id="SVGID_3_">
					<use xlink:href="#SVGID_2_"  style="overflow:visible;"/>
				</clipPath>
				
					<radialGradient id="SVGID_4_" cx="228.1804" cy="219.076" r="80.5671" gradientTransform="matrix(0.9735 0 0 -1 3.5664 501.276)" gradientUnits="userSpaceOnUse">
					<stop  offset="0.2562" style="stop-color:#FFFFFF;stop-opacity:0.3"/>
					<stop  offset="0.8966" style="stop-color:#000000;stop-opacity:0"/>
				</radialGradient>
				<path class="st4" d="M304.1,282.2c0-44.5-35.1-80.6-78.4-80.6s-78.4,36.1-78.4,80.6s35.1,80.6,78.4,80.6
					C268.9,362.8,304.1,326.7,304.1,282.2z"/>
			</g>
		</g>
	</g>
	
		<linearGradient id="SVGID_5_" gradientUnits="userSpaceOnUse" x1="246.0125" y1="273.676" x2="246.0125" y2="388.708" gradientTransform="matrix(1 0 0 -1 0 501.276)">
		<stop  offset="0" style="stop-color:#000000;stop-opacity:0"/>
		<stop  offset="1" style="stop-color:#FFFFFF;stop-opacity:0.3"/>
	</linearGradient>
	<path class="st5" d="M112.5,205.5l1,3.3l5.6,18.1l0.1,0.3l0.2,0.4l16.5-5.1l18.2-5.6l18-5.5l18.1-5.6l17.4-5.4l18.1-5.6l17.3-5.3
		l18-5.5l17.6-5.5l18.1-5.5l17.3-5.4l18.1-5.6l18.1-5.6l18.1-5.6l1.3-0.4L381,147l-0.1-0.4l-3.8-12.2l-3.5-11.5c0,0-1-3.1-2.7-5.6
		c-2.8-4.2-6.9-5.4-12.8-4.4c-2.2,0.2-4.7,0.9-4.7,0.9l-13.1,4.1l-17.2,5.4l-18.2,5.6l-17.6,5.4l-18.1,5.6l-17.3,5.3l-18.1,5.6
		l-17.3,5.4l-18.1,5.6l-18,5.6l-18.3,5.6l-17.3,5.3l-18.1,5.6l-2.2,0.7l-1.5,0.5C111.7,188.4,108.9,193.7,112.5,205.5L112.5,205.5z
		 M370.5,118.2c0.9,1.3,2.2,5,2.2,5l3.8,12.3l-7.5,14.2l-18.2,5.7L370.5,118.2z M339.6,119.1l14.1-4.3c0,0,2.8-0.8,3.9-0.8
		l-24.8,46.9l-18.2,5.6L339.6,119.1z M304.3,130l18.1-5.6l-25,47.3l-18.2,5.6L304.3,130z M268.6,141l18.1-5.6l-25.1,47.4l-18.2,5.7
		L268.6,141z M233.2,151.9l18.1-5.5l-25,47.3l-18.1,5.6L233.2,151.9z M197.7,162.8l18.1-5.6l-25,47.4l-18.1,5.6L197.7,162.8z
		 M161.5,174l18.1-5.6l-25,47.4l-18.2,5.6L161.5,174z M126.1,184.9l18.2-5.6l-20.1,37.9c0,0.1,0.1,0.2,0.1,0.3c0,0.7-0.4,1.2-1,1.5
		l-3.6,6.7l-5.6-18.2L126.1,184.9z"/>
	
		<linearGradient id="SVGID_6_" gradientUnits="userSpaceOnUse" x1="254.45" y1="192.476" x2="254.45" y2="272.876" gradientTransform="matrix(1 0 0 -1 0 501.276)">
		<stop  offset="0" style="stop-color:#000000;stop-opacity:0"/>
		<stop  offset="1" style="stop-color:#FFFFFF;stop-opacity:0.3"/>
	</linearGradient>
	<path class="st6" d="M389.5,308.8v-80.4H119.4v80.4H389.5z M122.6,236.9c-0.9,0-1.7-0.8-1.7-1.7s0.8-1.7,1.7-1.7
		c0.9,0,1.7,0.8,1.7,1.7C124.3,236.1,123.6,236.9,122.6,236.9z M147.6,236.9c-0.9,0-1.7-0.7-1.7-1.7c0-0.9,0.7-1.7,1.7-1.7
		c0.9,0,1.7,0.7,1.7,1.7C149.2,236.2,148.5,236.9,147.6,236.9z"/>
</g>
</svg>
