<?xml version="1.0" encoding="utf-8"?>
<!-- Generator: Adobe Illustrator 22.0.1, SVG Export Plug-In . SVG Version: 6.00 Build 0)  -->
<svg version="1.1" id="Camada_1" xmlns="http://www.w3.org/2000/svg" xmlns:xlink="http://www.w3.org/1999/xlink" x="0px" y="0px"
	 viewBox="0 0 1300 400" style="enable-background:new 0 0 1300 400;" xml:space="preserve">
<style type="text/css">
	.st0{fill:#E02F32;}
	.st1{fill:#173A8F;}
	.st2{fill:url(#SVGID_1_);}
	.st3{fill:url(#SVGID_2_);}
	.st4{fill:url(#SVGID_3_);}
	.st5{fill:url(#SVGID_4_);}
	.st6{fill:url(#SVGID_5_);}
	.st7{fill:url(#SVGID_6_);}
	.st8{fill:url(#SVGID_7_);}
	.st9{fill:url(#SVGID_8_);}
	.st10{fill:url(#SVGID_9_);}
	.st11{fill:#87B81C;}
	.st12{clip-path:url(#SVGID_11_);fill:url(#SVGID_12_);}
	.st13{fill:url(#SVGID_13_);}
	.st14{fill:url(#SVGID_14_);}
</style>
<g id="CineHot">
	<path class="st0" d="M916.7,134.2v128.4c0,6.4-2.3,8.6-8.6,8.6h-21.8c-6.3,0-8.6-2.2-8.6-8.6v-47.2h-39v47.2c0,6.4-2.1,8.6-8.6,8.6
		h-21.6c-6.6,0-8.8-2.2-8.8-8.6V134.2c0-6.6,2.2-8.8,8.8-8.8h21.6c6.6,0,8.6,2.3,8.6,8.8v45.4h39v-45.4c0-6.6,2.3-8.8,8.6-8.8h21.8
		C914.5,125.3,916.7,127.6,916.7,134.2z"/>
	<path class="st0" d="M994.8,122.5c40.4,0,58.2,23.8,58.2,59.3v36.9c0,35.5-17.8,55.6-58.2,55.6c-40.6,0-58.6-22-58.6-57.4V180
		C936.2,144.4,954.2,122.5,994.8,122.5z M994.8,158.4c-14.4,0-19.5,6.8-19.5,19.7v40.6c0,12.9,5.2,19.7,19.5,19.7
		c14.2,0,19.5-5,19.5-17.9v-40.6C1014.3,166.9,1009,158.4,994.8,158.4z"/>
	<path class="st0" d="M1179.4,134.2v18.5c0,6.6-2.3,8.8-8.8,8.8h-30.2v101.1c0,6.4-2.3,8.6-8.8,8.6H1110c-6.6,0-8.6-2.2-8.6-8.6
		V161.4H1071c-6.6,0-8.6-2.2-8.6-8.8v-18.5c0-6.4,2-8.6,8.6-8.6h99.7C1177.1,125.6,1179.4,127.8,1179.4,134.2z"/>
	<g>
		<g>
			<g>
				<g>
					<path class="st1" d="M403.5,122.2c31.6,0,51.3,13,60,36c2.1,5.9,0.6,9-5.5,11.1l-22,7.8c-6.4,1.9-8.8,0.8-11.1-5.6
						c-3.7-9.2-9.9-13.3-21.4-13.3c-16.2,0-22.6,7-22.6,21.3v37.4c0,14.4,6.3,21.4,22.6,21.4c11.5,0,18.1-4.5,21.4-13.4
						c2.5-6.4,4.9-7.8,11.1-5.6l22,7.8c6.2,2.1,7.6,5.1,5.5,11.1c-8.6,23-28.3,35.9-60,35.9c-40.5,0-63.3-22-63.3-57.5v-36.9
						C340.3,144.2,363.1,122.2,403.5,122.2z"/>
				</g>
			</g>
			<g>
				<g>
					<path class="st1" d="M485.4,125.3h22.4c6.2,0,8.2,2.1,8.2,8.2v129.4c0,6.2-2.1,8.2-8.2,8.2h-22.4c-6.2,0-8.2-2-8.2-8.2V133.6
						C477.1,127.4,479.2,125.3,485.4,125.3z"/>
				</g>
			</g>
			<g>
				<g>
					<path class="st1" d="M652.8,133.9v128.6c0,6.4-2.3,8.6-8.6,8.6H621c-4.3,0-6.6-1.2-8.4-4.1l-25.5-48.7
						c-9-14.2-12.5-23.9-18.1-42.3l0,0c4.3,19.7,5.8,30.2,5.8,53v33.4c0,6.4-2.2,8.6-8.8,8.6h-21.4c-6.6,0-8.8-2.2-8.8-8.6V133.9
						c0-6.3,2.2-8.6,8.8-8.6h24.3c4.7,0,6.8,1.2,8.6,4.1L605,182c9,14.2,10.7,22,17.2,37.6l0,0c-6.5-21.1-7.6-31-7.6-52v-33.7
						c0-6.3,2.1-8.6,8.6-8.6h20.9C650.6,125.3,652.8,127.6,652.8,133.9z"/>
				</g>
			</g>
			<g>
				<g>
					<path class="st1" d="M779.4,133.9v18.5c0,6.6-2.3,8.8-8.8,8.8H713v18.3h38c6.6,0,8.8,2.2,8.8,8.6v18.5c0,6.6-2.2,8.8-8.8,8.8
						h-38v19.7h57.8c6.4,0,8.6,2.1,8.6,8.6v18.6c0,6.4-2.3,8.6-8.6,8.6h-89.6c-6.6,0-8.8-2.2-8.8-8.6V133.9c0-6.3,2.2-8.6,8.8-8.6
						h89.4C777.1,125.3,779.4,127.6,779.4,133.9z"/>
				</g>
			</g>
		</g>
	</g>
	<rect x="291.8" y="125.4" class="st1" width="18.9" height="145.9"/>
	<g>
		
			<linearGradient id="SVGID_1_" gradientUnits="userSpaceOnUse" x1="858.35" y1="-271.086" x2="858.35" y2="-343.986" gradientTransform="matrix(1 0 0 1 0 469.386)">
			<stop  offset="0" style="stop-color:#000000;stop-opacity:0"/>
			<stop  offset="1" style="stop-color:#FFFFFF;stop-opacity:0.3"/>
		</linearGradient>
		<path class="st2" d="M916.8,134.2c0-6.5-2.3-8.8-8.6-8.8h-21.8c-6.3,0-8.6,2.3-8.6,8.8v45.4h-39v-45.4c0-6.5-2.1-8.8-8.6-8.8
			h-21.6c-6.6,0-8.8,2.3-8.8,8.8v64.1h117.1L916.8,134.2L916.8,134.2z"/>
		
			<linearGradient id="SVGID_2_" gradientUnits="userSpaceOnUse" x1="994.7" y1="-271.186" x2="994.7" y2="-346.986" gradientTransform="matrix(1 0 0 1 0 469.386)">
			<stop  offset="0" style="stop-color:#000000;stop-opacity:0"/>
			<stop  offset="1" style="stop-color:#FFFFFF;stop-opacity:0.3"/>
		</linearGradient>
		<path class="st3" d="M975.4,178.1c0-12.9,5.2-19.7,19.5-19.7c14.2,0,19.5,8.6,19.5,21.5v18.3h38.7v-16.5
			c0-35.5-17.8-59.3-58.2-59.3c-40.6,0-58.6,22-58.6,57.5v18.3h39L975.4,178.1L975.4,178.1z"/>
		
			<linearGradient id="SVGID_3_" gradientUnits="userSpaceOnUse" x1="1120.95" y1="-271.086" x2="1120.95" y2="-343.7859" gradientTransform="matrix(1 0 0 1 0 469.386)">
			<stop  offset="0" style="stop-color:#000000;stop-opacity:0"/>
			<stop  offset="1" style="stop-color:#FFFFFF;stop-opacity:0.3"/>
		</linearGradient>
		<path class="st4" d="M1140.5,161.5h30.2c6.6,0,8.8-2.2,8.8-8.8v-18.5c0-6.4-2.3-8.6-8.8-8.6H1071c-6.6,0-8.6,2.3-8.6,8.6v18.5
			c0,6.6,2,8.8,8.6,8.8h30.4v36.8h39L1140.5,161.5L1140.5,161.5z"/>
		
			<linearGradient id="SVGID_4_" gradientUnits="userSpaceOnUse" x1="402.5062" y1="-271.086" x2="402.5062" y2="-347.086" gradientTransform="matrix(1 0 0 1 0 469.386)">
			<stop  offset="0" style="stop-color:#000000;stop-opacity:0"/>
			<stop  offset="1" style="stop-color:#FFFFFF;stop-opacity:0.3"/>
		</linearGradient>
		<path class="st5" d="M381.1,179.6c0-14.4,6.3-21.3,22.6-21.3c11.5,0,17.7,4.1,21.4,13.3c2.2,6.4,4.7,7.4,11.1,5.6l22-7.8
			c6.2-2.1,7.6-5.1,5.5-11.1c-8.6-23-28.3-36-60-36c-40.5,0-63.3,22-63.3,57.6v18.4h40.7V179.6z"/>
		
			<linearGradient id="SVGID_5_" gradientUnits="userSpaceOnUse" x1="496.7" y1="-271.086" x2="496.7" y2="-343.986" gradientTransform="matrix(1 0 0 1 0 469.386)">
			<stop  offset="0" style="stop-color:#000000;stop-opacity:0"/>
			<stop  offset="1" style="stop-color:#FFFFFF;stop-opacity:0.3"/>
		</linearGradient>
		<path class="st6" d="M516.1,133.6c0-6.2-2.1-8.2-8.2-8.2h-22.4c-6.2,0-8.2,2.1-8.2,8.2v64.7h38.8L516.1,133.6L516.1,133.6z"/>
		
			<linearGradient id="SVGID_6_" gradientUnits="userSpaceOnUse" x1="633.9" y1="-271.086" x2="633.9" y2="-343.986" gradientTransform="matrix(1 0 0 1 0 469.386)">
			<stop  offset="0" style="stop-color:#000000;stop-opacity:0"/>
			<stop  offset="1" style="stop-color:#FFFFFF;stop-opacity:0.3"/>
		</linearGradient>
		<path class="st7" d="M652.9,134c0-6.3-2.3-8.6-8.6-8.6h-20.9c-6.6,0-8.6,2.3-8.6,8.6v33.7c0,12.6,0.4,21.2,2.1,30.6H653L652.9,134
			L652.9,134z"/>
		
			<linearGradient id="SVGID_7_" gradientUnits="userSpaceOnUse" x1="574.8" y1="-271.086" x2="574.8" y2="-343.986" gradientTransform="matrix(1 0 0 1 0 469.386)">
			<stop  offset="0" style="stop-color:#000000;stop-opacity:0"/>
			<stop  offset="1" style="stop-color:#FFFFFF;stop-opacity:0.3"/>
		</linearGradient>
		<path class="st8" d="M569.1,176.1c2.7,9,4.9,15.8,7.5,22.2h37.2c-2.2-5-4.7-10-8.7-16.2l-27.6-52.6c-1.8-2.9-3.9-4.1-8.6-4.1
			h-24.3c-6.6,0-8.8,2.3-8.8,8.6v64.3h37.4C572.3,191.4,571,184.6,569.1,176.1z"/>
		
			<linearGradient id="SVGID_8_" gradientUnits="userSpaceOnUse" x1="726.1" y1="-271.086" x2="726.1" y2="-343.986" gradientTransform="matrix(1 0 0 1 0 469.386)">
			<stop  offset="0" style="stop-color:#000000;stop-opacity:0"/>
			<stop  offset="1" style="stop-color:#FFFFFF;stop-opacity:0.3"/>
		</linearGradient>
		<path class="st9" d="M760,188.2c0-6.4-2.3-8.6-8.8-8.6h-38v-18.3h57.6c6.6,0,8.8-2.2,8.8-8.8V134c0-6.3-2.3-8.6-8.8-8.6h-89.4
			c-6.6,0-8.8,2.3-8.8,8.6v64.3h87.5L760,188.2L760,188.2z"/>
	</g>
	<g>
		
			<linearGradient id="SVGID_9_" gradientUnits="userSpaceOnUse" x1="301.25" y1="-270.997" x2="301.25" y2="-343.897" gradientTransform="matrix(1 0 0 1 0 469.386)">
			<stop  offset="0" style="stop-color:#000000;stop-opacity:0"/>
			<stop  offset="1" style="stop-color:#FFFFFF;stop-opacity:0.3"/>
		</linearGradient>
		<rect x="291.8" y="125.4" class="st10" width="18.9" height="72.9"/>
	</g>
	<path class="st1" d="M143,181.8l8.4-2.6l8.4-2.6l8.1-2.5l8.4-2.6l8-2.5l8.4-2.6l8.2-2.5l8.4-2.6l8-2.5l8.4-2.6l8.4-2.6l8.4-2.6
		l0.6-0.2l5.3-1.6V149l-1.8-5.7L245,138c0,0-0.4-1.4-1.3-2.6c-1.3-2-3.2-2.5-5.9-2c-1,0.1-2.2,0.4-2.2,0.4l-6.1,1.9l-8,2.5l-8.5,2.6
		l-8.2,2.5l-8.4,2.6l-8.1,2.5l-8.4,2.6l-8.1,2.5l-8.4,2.6l-8.4,2.6l-8.5,2.6l-8,2.5l-8.4,2.6l-1,0.3l-0.7,0.2
		c-5.3,1.6-6.6,4.1-4.9,9.6l0,0l0.5,1.5l2.6,8.4v0.1l0.1,0.2l7.7-2.4L143,181.8z M243.7,135.9c0.4,0.6,1,2.3,1,2.3l1.8,5.7l-3.5,6.6
		l-8.4,2.6L243.7,135.9z M229.4,136.3l6.5-2c0,0,1.3-0.4,1.8-0.4l-11.5,21.8l-8.4,2.6L229.4,136.3z M212.9,141.4l8.4-2.6l-11.6,22
		l-8.5,2.6L212.9,141.4z M196.3,146.5l8.4-2.6l-11.7,22l-8.5,2.6L196.3,146.5z M179.9,151.6l8.4-2.6l-11.6,22l-8.4,2.6L179.9,151.6z
		 M163.4,156.7l8.4-2.6l-11.6,22l-8.4,2.6L163.4,156.7z M146.5,161.8l8.4-2.6l-11.6,22l-8.5,2.6L146.5,161.8z M128.7,182.8l-1.7,3.1
		l-2.6-8.5l5.6-10.6l8.5-2.6l-9.3,17.6v0.1C129.2,182.4,129,182.7,128.7,182.8z"/>
	<path class="st1" d="M126.9,187.1v66c0,5.7,2,7.6,7.4,7.6h110.8c5.5,0,7.4-1.9,7.4-7.6v-66H126.9z M128.5,191.1
		c-0.4,0-0.8-0.4-0.8-0.8c0-0.4,0.4-0.8,0.8-0.8s0.8,0.4,0.8,0.8C129.2,190.7,128.9,191.1,128.5,191.1z M140,191.1
		c-0.4,0-0.8-0.3-0.8-0.8c0-0.4,0.3-0.8,0.8-0.8c0.4,0,0.8,0.3,0.8,0.8S140.5,191.1,140,191.1z"/>
	<g>
		<path class="st11" d="M200.9,197.6c0,0,0.8-0.4,1.7-0.4c0.9,0,4,0.9,4,4s2.6,4.2,4,4.2c0,0-5.3,6.2-11.3,0c0,0,4-0.5,4-4.1
			C203.1,198.7,200.9,197.6,200.9,197.6z"/>
		<path class="st0" d="M199.2,206.5c-1.3,1.4-2.4,3.8-2.4,6.2c-0.1,7.7-3,15.4-8.7,21.2c-10.9,11.2-28.1,11.9-39.8,2.2
			c0.7,0.9,1.5,1.8,2.3,2.6c14.2,14.6,37.3,14.6,51.5,0c7.3-7.5,10.9-17.4,10.6-27.3c-0.2-1.8-0.9-3.6-2.3-4.9
			c-1.6-1.6-3.6-0.6-5.7-0.6C202.8,205.9,200.8,204.9,199.2,206.5z"/>
		<g>
			<g>
				<g>
					<defs>
						<path id="SVGID_10_" d="M199.2,206.5c-1.3,1.4-2.4,3.8-2.4,6.2c-0.1,7.7-3,15.4-8.7,21.2c-10.9,11.2-28.1,11.9-39.8,2.2
							c0.7,0.9,1.5,1.8,2.3,2.6c14.2,14.6,37.3,14.6,51.5,0c7.3-7.5,10.9-17.4,10.6-27.3c-0.2-1.8-0.9-3.6-2.3-4.9
							c-1.6-1.6-3.6-0.6-5.7-0.6C202.8,205.9,200.8,204.9,199.2,206.5z"/>
					</defs>
					<clipPath id="SVGID_11_">
						<use xlink:href="#SVGID_10_"  style="overflow:visible;"/>
					</clipPath>
					
						<radialGradient id="SVGID_12_" cx="129.2055" cy="-257.186" r="37.4968" gradientTransform="matrix(0.9735 0 0 1 50.5184 469.386)" gradientUnits="userSpaceOnUse">
						<stop  offset="0.2562" style="stop-color:#FFFFFF;stop-opacity:0.3"/>
						<stop  offset="0.8966" style="stop-color:#000000;stop-opacity:0"/>
					</radialGradient>
					<path class="st12" d="M212.8,212.2c0-20.7-16.3-37.5-36.5-37.5c-20.1,0-36.5,16.8-36.5,37.5s16.3,37.5,36.5,37.5
						C196.5,249.6,212.8,232.9,212.8,212.2z"/>
				</g>
			</g>
		</g>
	</g>
	
		<linearGradient id="SVGID_13_" gradientUnits="userSpaceOnUse" x1="185.7484" y1="-282.6111" x2="185.7484" y2="-336.0814" gradientTransform="matrix(1 0 0 1 0 469.386)">
		<stop  offset="0" style="stop-color:#000000;stop-opacity:0"/>
		<stop  offset="1" style="stop-color:#FFFFFF;stop-opacity:0.3"/>
	</linearGradient>
	<path class="st13" d="M123.7,176.5l0.5,1.5l2.6,8.4v0.1l0.1,0.2l7.7-2.4l8.5-2.6l8.4-2.6l8.4-2.6l8.1-2.5l8.4-2.6l8-2.5l8.4-2.6
		l8.2-2.5l8.4-2.6l8-2.5l8.4-2.6l8.4-2.6l8.4-2.6l0.6-0.2l5.3-1.6v-0.2l-1.8-5.7l-1.6-5.3c0,0-0.4-1.4-1.3-2.6c-1.3-2-3.2-2.5-5.9-2
		c-1,0.1-2.2,0.4-2.2,0.4l-6.1,1.9l-8,2.5l-8.5,2.6l-8.2,2.5l-8.4,2.6l-8.1,2.5l-8.4,2.6l-8.1,2.5l-8.4,2.6l-8.4,2.6l-8.5,2.6
		l-8,2.5l-8.4,2.6l-1,0.3l-0.7,0.2C123.3,168.5,122,171,123.7,176.5L123.7,176.5z M243.7,135.9c0.4,0.6,1,2.3,1,2.3l1.8,5.7
		l-3.5,6.6l-8.4,2.6L243.7,135.9z M229.3,136.3l6.5-2c0,0,1.3-0.4,1.8-0.4l-11.5,21.8l-8.4,2.6L229.3,136.3z M212.9,141.4l8.4-2.6
		l-11.6,22l-8.5,2.6L212.9,141.4z M196.3,146.5l8.4-2.6l-11.7,22l-8.5,2.6L196.3,146.5z M179.8,151.6l8.4-2.6l-11.6,22l-8.4,2.6
		L179.8,151.6z M163.3,156.7l8.4-2.6l-11.6,22l-8.4,2.6L163.3,156.7z M146.5,161.8l8.4-2.6l-11.6,22l-8.5,2.6L146.5,161.8z
		 M130,166.9l8.5-2.6l-9.3,17.6v0.1c0,0.3-0.2,0.6-0.5,0.7l-1.7,3.1l-2.6-8.5L130,166.9z"/>
	
		<linearGradient id="SVGID_14_" gradientUnits="userSpaceOnUse" x1="189.7" y1="-244.8464" x2="189.7" y2="-282.2464" gradientTransform="matrix(1 0 0 1 0 469.386)">
		<stop  offset="0" style="stop-color:#000000;stop-opacity:0"/>
		<stop  offset="1" style="stop-color:#FFFFFF;stop-opacity:0.3"/>
	</linearGradient>
	<path class="st14" d="M252.5,224.5v-37.4H126.9v37.4H252.5z M128.4,191.1c-0.4,0-0.8-0.4-0.8-0.8c0-0.4,0.4-0.8,0.8-0.8
		s0.8,0.4,0.8,0.8C129.2,190.7,128.8,191.1,128.4,191.1z M140,191.1c-0.4,0-0.8-0.3-0.8-0.8c0-0.4,0.3-0.8,0.8-0.8s0.8,0.3,0.8,0.8
		S140.4,191.1,140,191.1z"/>
</g>
</svg>
