<?xml version="1.0" encoding="utf-8"?>
<!-- Generator: Adobe Illustrator 22.0.1, SVG Export Plug-In . SVG Version: 6.00 Build 0)  -->
<svg version="1.1" id="Camada_1" xmlns="http://www.w3.org/2000/svg" xmlns:xlink="http://www.w3.org/1999/xlink" x="0px" y="0px"
	 viewBox="0 0 500 500" style="enable-background:new 0 0 500 500;" xml:space="preserve">
<style type="text/css">
	.st0{fill:#E02F32;}
	.st1{fill:#173A8F;}
	.st2{fill:url(#SVGID_1_);}
	.st3{fill:url(#SVGID_2_);}
	.st4{fill:url(#SVGID_3_);}
	.st5{fill:#87B81C;}
	.st6{clip-path:url(#SVGID_5_);fill:url(#SVGID_6_);}
	.st7{fill:url(#SVGID_7_);}
	.st8{fill:url(#SVGID_8_);}
</style>
<g id="CH_Abrev">
	<path class="st0" d="M429.4,194.2v113c0,5.6-2,7.6-7.6,7.6h-19.2c-5.6,0-7.6-2-7.6-7.6v-41.5h-34.3v41.5c0,5.6-1.8,7.6-7.6,7.6h-19
		c-5.8,0-7.8-2-7.8-7.6v-113c0-5.8,2-7.8,7.8-7.8h19c5.8,0,7.6,2,7.6,7.8v39.9H395v-39.9c0-5.8,2-7.8,7.6-7.8h19.2
		C427.4,186.4,429.4,188.4,429.4,194.2z"/>
	<g>
		<g>
			<g>
				<g>
					<path class="st1" d="M269.2,183.7c27.8,0,45.1,11.4,52.7,31.6c1.8,5.2,0.6,7.9-4.9,9.7l-19.3,6.9c-5.6,1.6-7.8,0.7-9.7-4.9
						c-3.3-8.1-8.7-11.7-18.8-11.7c-14.3,0-19.8,6.1-19.8,18.8V267c0,12.6,5.6,18.8,19.8,18.8c10.1,0,15.9-4,18.8-11.8
						c2.2-5.6,4.3-6.9,9.7-4.9L317,276c5.4,1.8,6.7,4.5,4.9,9.8c-7.6,20.2-24.9,31.6-52.7,31.6c-35.6,0-55.6-19.3-55.6-50.6v-32.5
						C213.5,203,233.6,183.7,269.2,183.7z"/>
				</g>
			</g>
		</g>
	</g>
	<rect x="180.5" y="186.5" class="st1" width="16.6" height="128.3"/>
	<g>
		
			<linearGradient id="SVGID_1_" gradientUnits="userSpaceOnUse" x1="377.95" y1="250.776" x2="377.95" y2="314.876" gradientTransform="matrix(1 0 0 -1 0 501.276)">
			<stop  offset="0" style="stop-color:#000000;stop-opacity:0"/>
			<stop  offset="1" style="stop-color:#FFFFFF;stop-opacity:0.3"/>
		</linearGradient>
		<path class="st2" d="M429.5,194.2c0-5.8-2-7.8-7.6-7.8h-19.2c-5.6,0-7.6,2-7.6,7.8v39.9h-34.3v-39.9c0-5.8-1.8-7.8-7.6-7.8h-19
			c-5.8,0-7.8,2-7.8,7.8v56.3h103v-56.3H429.5z"/>
		
			<linearGradient id="SVGID_2_" gradientUnits="userSpaceOnUse" x1="268.1304" y1="250.776" x2="268.1304" y2="317.576" gradientTransform="matrix(1 0 0 -1 0 501.276)">
			<stop  offset="0" style="stop-color:#000000;stop-opacity:0"/>
			<stop  offset="1" style="stop-color:#FFFFFF;stop-opacity:0.3"/>
		</linearGradient>
		<path class="st3" d="M249.4,234.1c0-12.6,5.6-18.8,19.8-18.8c10.1,0,15.5,3.6,18.8,11.7c2,5.6,4.1,6.5,9.7,4.9L317,225
			c5.4-1.8,6.7-4.5,4.9-9.7c-7.6-20.2-24.9-31.6-52.7-31.6c-35.6,0-55.6,19.3-55.6,50.6v16.2h35.8L249.4,234.1L249.4,234.1z"/>
	</g>
	<g>
		
			<linearGradient id="SVGID_3_" gradientUnits="userSpaceOnUse" x1="188.8" y1="250.576" x2="188.8" y2="314.776" gradientTransform="matrix(1 0 0 -1 0 501.276)">
			<stop  offset="0" style="stop-color:#000000;stop-opacity:0"/>
			<stop  offset="1" style="stop-color:#FFFFFF;stop-opacity:0.3"/>
		</linearGradient>
		<rect x="180.5" y="186.5" class="st4" width="16.6" height="64.2"/>
	</g>
	<path class="st1" d="M65.9,236.8l7.6-2.3l7.6-2.3l7.3-2.3l7.6-2.3l7.3-2.2l7.6-2.3l7.4-2.3l7.6-2.3l7.3-2.2l7.6-2.3l7.6-2.4
		l7.6-2.3l0.5-0.2l4.8-1.4v-0.2l-1.6-5.1l-1.5-4.8c0,0-0.4-1.3-1.1-2.4c-1.2-1.8-2.9-2.3-5.4-1.8c-0.9,0.1-2,0.4-2,0.4l-5.5,1.7
		l-7.2,2.3l-7.6,2.3l-7.4,2.3l-7.6,2.3l-7.3,2.2l-7.6,2.3l-7.3,2.2l-7.6,2.3L77,216l-7.7,2.4l-7.3,2.2l-7.6,2.3l-0.9,0.3l-0.6,0.2
		c-4.8,1.5-6,3.7-4.4,8.6l0,0l0.4,1.4l2.3,7.6v0.1l0.1,0.2l6.9-2.1L65.9,236.8z M156.9,195.3c0.4,0.5,0.9,2.1,0.9,2.1l1.6,5.2
		l-3.1,5.9l-7.6,2.4L156.9,195.3z M143.9,195.7l5.9-1.8c0,0,1.2-0.3,1.7-0.3l-10.4,19.7l-7.6,2.3L143.9,195.7z M129.1,200.3l7.6-2.4
		l-10.5,19.9l-7.6,2.4L129.1,200.3z M114.1,204.9l7.6-2.4l-10.5,19.9l-7.6,2.4L114.1,204.9z M99.2,209.5l7.6-2.3L96.3,227l-7.6,2.4
		L99.2,209.5z M84.3,214.1l7.6-2.4l-10.5,19.9l-7.6,2.4L84.3,214.1z M69.1,218.7l7.6-2.4l-10.5,19.9l-7.7,2.4L69.1,218.7z M53,237.7
		l-1.5,2.8l-2.4-7.6l5-9.5l7.6-2.3L53.3,237v0.1C53.4,237.3,53.2,237.6,53,237.7z"/>
	<path class="st1" d="M51.3,241.6v59.6c0,5.1,1.8,6.9,6.7,6.9h100.1c5,0,6.7-1.7,6.7-6.9v-59.6H51.3z M52.7,245.2
		c-0.4,0-0.7-0.3-0.7-0.7s0.3-0.7,0.7-0.7s0.7,0.3,0.7,0.7S53.1,245.2,52.7,245.2z M63.2,245.2c-0.4,0-0.7-0.3-0.7-0.7
		s0.3-0.7,0.7-0.7s0.7,0.3,0.7,0.7S63.6,245.2,63.2,245.2z"/>
	<g>
		<path class="st5" d="M118.2,251.1c0,0,0.7-0.4,1.5-0.4s3.6,0.8,3.6,3.6c0,2.8,2.4,3.8,3.6,3.8c0,0-4.8,5.6-10.2,0
			c0,0,3.6-0.4,3.6-3.7C120.2,252,118.2,251.1,118.2,251.1z"/>
		<path class="st0" d="M116.7,259.1c-1.2,1.2-2.1,3.4-2.1,5.6c-0.1,7-2.7,13.9-7.9,19.2c-9.8,10.1-25.4,10.8-36,2
			c0.7,0.8,1.4,1.6,2.1,2.4c12.8,13.2,33.7,13.2,46.5,0c6.6-6.8,9.8-15.8,9.6-24.7c-0.2-1.6-0.8-3.2-2.1-4.4
			c-1.4-1.5-3.3-0.6-5.1-0.6C119.9,258.5,118.1,257.6,116.7,259.1z"/>
		<g>
			<g>
				<defs>
					<path id="SVGID_4_" d="M116.7,259.1c-1.2,1.2-2.1,3.4-2.1,5.6c-0.1,7-2.7,13.9-7.9,19.2c-9.8,10.1-25.4,10.8-36,2
						c0.7,0.8,1.4,1.6,2.1,2.4c12.8,13.2,33.7,13.2,46.5,0c6.6-6.8,9.8-15.8,9.6-24.7c-0.2-1.6-0.8-3.2-2.1-4.4
						c-1.4-1.5-3.3-0.6-5.1-0.6C119.9,258.5,118.1,257.6,116.7,259.1z"/>
				</defs>
				<clipPath id="SVGID_5_">
					<use xlink:href="#SVGID_4_"  style="overflow:visible;"/>
				</clipPath>
				
					<radialGradient id="SVGID_6_" cx="94.9321" cy="237.076" r="33.8566" gradientTransform="matrix(0.9735 0 0 -1 3.5664 501.276)" gradientUnits="userSpaceOnUse">
					<stop  offset="0.2562" style="stop-color:#FFFFFF;stop-opacity:0.3"/>
					<stop  offset="0.8966" style="stop-color:#000000;stop-opacity:0"/>
				</radialGradient>
				<path class="st6" d="M128.9,264.2c0-18.7-14.8-33.9-33-33.9s-33,15.2-33,33.9s14.8,33.9,33,33.9
					C114.2,298.1,128.9,282.9,128.9,264.2z"/>
			</g>
		</g>
	</g>
	
		<linearGradient id="SVGID_7_" gradientUnits="userSpaceOnUse" x1="104.4446" y1="259.976" x2="104.4446" y2="308.2944" gradientTransform="matrix(1 0 0 -1 0 501.276)">
		<stop  offset="0" style="stop-color:#000000;stop-opacity:0"/>
		<stop  offset="1" style="stop-color:#FFFFFF;stop-opacity:0.3"/>
	</linearGradient>
	<path class="st7" d="M48.4,232l0.4,1.4l2.3,7.6v0.1l0.1,0.2l6.9-2.1l7.6-2.4l7.6-2.3l7.6-2.3l7.3-2.3l7.6-2.3l7.3-2.2l7.6-2.3
		l7.4-2.3l7.6-2.3l7.3-2.2l7.6-2.3l7.6-2.4l7.6-2.3l0.5-0.2l4.8-1.4v-0.2l-1.6-5.1l-1.5-4.8c0,0-0.4-1.3-1.1-2.4
		c-1.2-1.8-2.9-2.3-5.4-1.8c-0.9,0.1-2,0.4-2,0.4l-5.5,1.7l-7.2,2.3l-7.6,2.3l-7.4,2.3l-7.6,2.3l-7.3,2.2l-7.6,2.3l-7.3,2.2
		l-7.6,2.3l-7.6,2.3l-7.7,2.4l-7.3,2.2l-7.6,2.3l-0.9,0.3l-0.6,0.2C48.1,224.8,46.9,227,48.4,232L48.4,232z M156.8,195.3
		c0.4,0.5,0.9,2.1,0.9,2.1l1.6,5.2l-3.1,5.9l-7.6,2.4L156.8,195.3z M143.9,195.7l5.9-1.8c0,0,1.2-0.3,1.7-0.3L141,213.2l-7.6,2.3
		L143.9,195.7z M129,200.3l7.6-2.4l-10.5,19.9l-7.6,2.4L129,200.3z M114,204.9l7.6-2.4l-10.5,19.9l-7.6,2.4L114,204.9z M99.2,209.5
		l7.6-2.3L96.2,227l-7.6,2.4L99.2,209.5z M84.2,214.1l7.6-2.4l-10.5,19.9l-7.6,2.4L84.2,214.1z M69,218.7l7.6-2.4l-10.5,19.9
		l-7.7,2.4L69,218.7z M54.1,223.3l7.6-2.3l-8.4,15.9v0.1c0,0.3-0.2,0.5-0.4,0.6l-1.5,2.8l-2.4-7.6L54.1,223.3z"/>
	
		<linearGradient id="SVGID_8_" gradientUnits="userSpaceOnUse" x1="108.05" y1="225.876" x2="108.05" y2="259.676" gradientTransform="matrix(1 0 0 -1 0 501.276)">
		<stop  offset="0" style="stop-color:#000000;stop-opacity:0"/>
		<stop  offset="1" style="stop-color:#FFFFFF;stop-opacity:0.3"/>
	</linearGradient>
	<path class="st8" d="M164.8,275.4v-33.8H51.3v33.8H164.8z M52.7,245.2c-0.4,0-0.7-0.3-0.7-0.7s0.3-0.7,0.7-0.7s0.7,0.3,0.7,0.7
		S53.1,245.2,52.7,245.2z M63.2,245.2c-0.4,0-0.7-0.3-0.7-0.7s0.3-0.7,0.7-0.7s0.7,0.3,0.7,0.7S63.6,245.2,63.2,245.2z"/>
</g>
</svg>
