<?xml version="1.0" encoding="utf-8"?>
<!-- Generator: Adobe Illustrator 22.0.1, SVG Export Plug-In . SVG Version: 6.00 Build 0)  -->
<svg version="1.1" id="Camada_1" xmlns="http://www.w3.org/2000/svg" xmlns:xlink="http://www.w3.org/1999/xlink" x="0px" y="0px"
	 viewBox="0 0 1920 1312" style="enable-background:new 0 0 1920 1312;" xml:space="preserve">
<style type="text/css">
	.st0{fill:#E02F32;}
	.st1{fill:#FFFFFF;}
	.st2{fill:#87B81C;}
	.st3{clip-path:url(#SVGID_2_);fill:url(#SVGID_3_);}
	.st4{fill:url(#SVGID_4_);}
	.st5{fill:url(#SVGID_5_);}
	.st6{fill:url(#SVGID_6_);}
	.st7{fill:url(#SVGID_7_);}
	.st8{fill:url(#SVGID_8_);}
	.st9{fill:url(#SVGID_9_);}
	.st10{fill:url(#SVGID_10_);}
	.st11{fill:url(#SVGID_11_);}
</style>
<g id="HotBoys">
	<path class="st0" d="M735.7,592.5v126.9c0,6.3-2.2,8.5-8.5,8.5h-21.6c-6.3,0-8.5-2.2-8.5-8.5v-46.6h-38.6v46.6c0,6.3-2,8.5-8.5,8.5
		h-21.3c-6.5,0-8.7-2.2-8.7-8.5V592.5c0-6.5,2.2-8.7,8.7-8.7H650c6.5,0,8.5,2.3,8.5,8.7v44.8h38.6v-44.8c0-6.5,2.3-8.7,8.5-8.7h21.6
		C733.4,583.8,735.7,586.1,735.7,592.5z"/>
	<path class="st0" d="M812.8,581c40,0,57.5,23.5,57.5,58.6v36.5c0,35-17.6,54.9-57.5,54.9c-40.1,0-57.9-21.7-57.9-56.7v-36.5
		C754.9,602.7,772.7,581,812.8,581z M812.8,616.5c-14.2,0-19.3,6.7-19.3,19.4V676c0,12.8,5.1,19.5,19.3,19.5
		c14,0,19.3-4.9,19.3-17.7v-40.1C832.1,625,826.8,616.5,812.8,616.5z"/>
	<path class="st1" d="M1188.7,581c39.9,0,57.5,23.5,57.5,58.6v36.5c0,35-17.6,54.9-57.5,54.9c-40.1,0-57.9-21.7-57.9-56.7v-36.5
		C1130.8,602.7,1148.5,581,1188.7,581z M1188.7,616.5c-14.2,0-19.3,6.7-19.3,19.4V676c0,12.8,5.1,19.5,19.3,19.5
		c14,0,19.3-4.9,19.3-17.7v-40.1C1207.9,625,1202.7,616.5,1188.7,616.5z"/>
	<path class="st0" d="M991.1,592.5v18.3c0,6.5-2.2,8.7-8.7,8.7h-29.9v99.9c0,6.3-2.2,8.5-8.7,8.5h-21.4c-6.5,0-8.5-2.2-8.5-8.5
		v-99.9h-30c-6.5,0-8.5-2.2-8.5-8.7v-18.3c0-6.3,2-8.5,8.5-8.5h98.5C988.9,584,991.1,586.3,991.1,592.5z"/>
	<path class="st1" d="M1116.6,622.4c0,13.6-4.3,22.7-14.6,29.8v0.8c13,5.7,20.5,17.2,20.5,34.9c0,26.1-21.3,40.1-49.9,40.1h-58.2
		c-6.5,0-8.7-2.2-8.7-8.5v-127c0-6.5,2.2-8.7,8.7-8.7h57.4C1099.8,583.8,1116.6,597.6,1116.6,622.4z M1063.5,616.5h-17.7v22.3h17.7
		c8.1,0,12.4-3,12.4-10.9C1075.9,619.9,1071.6,616.5,1063.5,616.5z M1067.4,671.4h-21.5v23.7h21.5c8.7,0,13-3.5,13-12
		C1080.4,675.1,1076.1,671.4,1067.4,671.4z"/>
	<path class="st1" d="M1372.8,592.5l-47.1,77.6v49.3c0,6.3-2,8.5-8.5,8.5H1296c-6.5,0-8.7-2.2-8.7-8.5v-49.3l-46.6-77.6
		c-2.8-4.7-2-8.5,4.3-8.5h24.3c10.1,0,13,0.4,16.8,7.5l20.2,40l22.2-40c3.8-7.1,6.7-7.5,16.6-7.5h23.3
		C1374.6,584,1375.4,587.9,1372.8,592.5z"/>
	<path class="st1" d="M1430.2,581c30,0,47,8.9,56.6,28.4c2.8,5.9,1.2,8.9-4.9,11.4l-20.3,8.7c-5.5,2.4-7.7,1.6-11-4.3
		c-3.9-7.7-11.1-10.5-20.5-10.5c-13.8,0-19.3,3.5-19.3,10.5c0,8.7,12,10.6,26.5,12.4c23.5,3.3,53.9,8.9,53.9,47.2
		c0,29.8-27,46.2-62.8,46.2c-30.2,0-51.3-10.3-59-31.4c-2.2-6.1-0.4-8.9,5.5-11.1l19-6.9c6.1-2,8.9-1.4,12,4.5
		c3.7,7.1,11.5,10.8,22.9,10.8c13.6,0,21.7-2.8,21.7-11.6c0-7.9-10.3-10.1-23.7-12c-23.7-3.2-57-7.5-57-46.8
		C1370,599.6,1391.5,581,1430.2,581z"/>
	<rect x="572" y="583.8" class="st0" width="18.7" height="144.2"/>
	<g>
		<path class="st2" d="M515.9,600.1c0,0,1.7-0.8,3.8-0.8c2,0,8.8,1.8,8.8,8.6c0,6.7,5.9,9,8.8,9c0,0-11.7,13.4-25.1,0
			c0,0,8.8-1,8.8-8.8C520.9,602.4,515.9,600.1,515.9,600.1z"/>
		<path class="st0" d="M512.3,619.2c-2.9,2.9-5.3,8.2-5.3,13.4c-0.2,16.6-6.7,33.2-19.4,45.9c-24.2,24.2-62.4,25.7-88.4,4.7
			c1.6,1.9,3.3,3.9,5.2,5.7c31.6,31.6,82.8,31.6,114.4,0c16.3-16.3,24.1-37.7,23.6-59c-0.4-3.9-2.1-7.7-5-10.6
			c-3.5-3.5-8.1-1.4-12.6-1.4C520.2,617.9,515.7,615.8,512.3,619.2z"/>
		<g>
			<g>
				<defs>
					<path id="SVGID_1_" d="M512.3,619.2c-2.9,2.9-5.3,8.2-5.3,13.4c-0.2,16.6-6.7,33.2-19.4,45.9c-24.2,24.2-62.4,25.7-88.4,4.7
						c1.6,1.9,3.3,3.9,5.2,5.7c31.6,31.6,82.8,31.6,114.4,0c16.3-16.3,24.1-37.7,23.6-59c-0.4-3.9-2.1-7.7-5-10.6
						c-3.5-3.5-8.1-1.4-12.6-1.4C520.2,617.9,515.7,615.8,512.3,619.2z"/>
				</defs>
				<clipPath id="SVGID_2_">
					<use xlink:href="#SVGID_1_"  style="overflow:visible;"/>
				</clipPath>
				
					<radialGradient id="SVGID_3_" cx="461.4" cy="679.676" r="81" gradientTransform="matrix(1 0 0 -1 0 1311.276)" gradientUnits="userSpaceOnUse">
					<stop  offset="0.2562" style="stop-color:#FFFFFF;stop-opacity:0.3"/>
					<stop  offset="0.8966" style="stop-color:#000000;stop-opacity:0"/>
				</radialGradient>
				<path class="st3" d="M542.4,631.6c0-44.7-36.3-81-81-81s-81,36.3-81,81s36.3,81,81,81S542.4,676.3,542.4,631.6z"/>
			</g>
		</g>
	</g>
	<g>
		
			<linearGradient id="SVGID_4_" gradientUnits="userSpaceOnUse" x1="581.35" y1="655.376" x2="581.35" y2="727.476" gradientTransform="matrix(1 0 0 -1 0 1311.276)">
			<stop  offset="0" style="stop-color:#000000;stop-opacity:0"/>
			<stop  offset="1" style="stop-color:#FFFFFF;stop-opacity:0.3"/>
		</linearGradient>
		<rect x="572" y="583.8" class="st4" width="18.7" height="72.1"/>
	</g>
	<g>
		
			<linearGradient id="SVGID_5_" gradientUnits="userSpaceOnUse" x1="677.9001" y1="655.3608" x2="677.9001" y2="727.4608" gradientTransform="matrix(1 0 0 -1 0 1311.276)">
			<stop  offset="0" style="stop-color:#000000;stop-opacity:0"/>
			<stop  offset="1" style="stop-color:#FFFFFF;stop-opacity:0.3"/>
		</linearGradient>
		<path class="st5" d="M735.7,592.6c0-6.5-2.2-8.7-8.5-8.7h-21.6c-6.3,0-8.5,2.3-8.5,8.7v44.8h-38.6v-44.8c0-6.5-2-8.7-8.5-8.7
			h-21.3c-6.5,0-8.7,2.3-8.7,8.7V656h115.8v-63.4H735.7z"/>
		
			<linearGradient id="SVGID_6_" gradientUnits="userSpaceOnUse" x1="812.6" y1="655.3608" x2="812.6" y2="730.2607" gradientTransform="matrix(1 0 0 -1 0 1311.276)">
			<stop  offset="0" style="stop-color:#000000;stop-opacity:0"/>
			<stop  offset="1" style="stop-color:#FFFFFF;stop-opacity:0.3"/>
		</linearGradient>
		<path class="st6" d="M793.5,635.9c0-12.8,5.1-19.4,19.3-19.4c14,0,19.3,8.5,19.3,21.3V656h38.2v-16.3c0-35.1-17.6-58.6-57.5-58.6
			c-40.1,0-57.9,21.7-57.9,56.8V656h38.6L793.5,635.9L793.5,635.9z"/>
		
			<linearGradient id="SVGID_7_" gradientUnits="userSpaceOnUse" x1="1188.5" y1="655.3608" x2="1188.5" y2="730.2607" gradientTransform="matrix(1 0 0 -1 0 1311.276)">
			<stop  offset="0" style="stop-color:#000000;stop-opacity:0"/>
			<stop  offset="1" style="stop-color:#FFFFFF;stop-opacity:0.3"/>
		</linearGradient>
		<path class="st7" d="M1169.4,635.9c0-12.8,5.1-19.4,19.3-19.4c14,0,19.3,8.5,19.3,21.3V656h38.2v-16.3c0-35.1-17.6-58.6-57.5-58.6
			c-40.1,0-57.9,21.7-57.9,56.8V656h38.6V635.9z"/>
		
			<linearGradient id="SVGID_8_" gradientUnits="userSpaceOnUse" x1="933.35" y1="655.376" x2="933.35" y2="727.276" gradientTransform="matrix(1 0 0 -1 0 1311.276)">
			<stop  offset="0" style="stop-color:#000000;stop-opacity:0"/>
			<stop  offset="1" style="stop-color:#FFFFFF;stop-opacity:0.3"/>
		</linearGradient>
		<path class="st8" d="M952.6,619.5h29.9c6.5,0,8.7-2.2,8.7-8.7v-18.3c0-6.3-2.2-8.5-8.7-8.5H884c-6.5,0-8.5,2.2-8.5,8.5v18.3
			c0,6.5,2,8.7,8.5,8.7h30v36.4h38.6V619.5z"/>
		
			<linearGradient id="SVGID_9_" gradientUnits="userSpaceOnUse" x1="1061.1499" y1="655.3608" x2="1061.1499" y2="727.4608" gradientTransform="matrix(1 0 0 -1 0 1311.276)">
			<stop  offset="0" style="stop-color:#000000;stop-opacity:0"/>
			<stop  offset="1" style="stop-color:#FFFFFF;stop-opacity:0.3"/>
		</linearGradient>
		<path class="st9" d="M1102,653v-0.8c10.3-7.1,14.6-16.2,14.6-29.8c0-24.7-16.8-38.5-44.8-38.5h-57.4c-6.5,0-8.7,2.3-8.7,8.7V656
			h101.7C1105.8,654.8,1104,653.8,1102,653z M1063.5,638.8h-17.7v-22.3h17.7c8.1,0,12.4,3.4,12.4,11.4
			C1075.9,635.8,1071.6,638.8,1063.5,638.8z"/>
		
			<linearGradient id="SVGID_10_" gradientUnits="userSpaceOnUse" x1="1306.6837" y1="655.3608" x2="1306.6837" y2="727.2608" gradientTransform="matrix(1 0 0 -1 0 1311.276)">
			<stop  offset="0" style="stop-color:#000000;stop-opacity:0"/>
			<stop  offset="1" style="stop-color:#FFFFFF;stop-opacity:0.3"/>
		</linearGradient>
		<path class="st10" d="M1372.8,592.6c2.6-4.7,1.8-8.5-4.2-8.5h-23.3c-9.9,0-12.8,0.4-16.6,7.5l-22.2,40l-20.2-40
			c-3.8-7.1-6.7-7.5-16.8-7.5H1245c-6.3,0-7.1,3.8-4.3,8.5l38.1,63.4h55.5L1372.8,592.6z"/>
		
			<linearGradient id="SVGID_11_" gradientUnits="userSpaceOnUse" x1="1429.2667" y1="655.3761" x2="1429.2667" y2="730.2761" gradientTransform="matrix(1 0 0 -1 0 1311.276)">
			<stop  offset="0" style="stop-color:#000000;stop-opacity:0"/>
			<stop  offset="1" style="stop-color:#FFFFFF;stop-opacity:0.3"/>
		</linearGradient>
		<path class="st11" d="M1437.5,637.6c-14.6-1.8-26.5-3.6-26.5-12.4c0-7.1,5.5-10.5,19.3-10.5c9.3,0,16.6,2.8,20.5,10.5
			c3.3,5.9,5.5,6.7,11,4.3l20.3-8.7c6.1-2.4,7.7-5.5,4.9-11.4c-9.5-19.5-26.5-28.4-56.6-28.4c-38.7,0-60.2,18.7-60.2,45.4
			c0,13.5,3.9,22.9,10,29.5h102.4C1471.6,642.9,1453.1,639.7,1437.5,637.6z"/>
	</g>
</g>
</svg>
