<?xml version="1.0" encoding="utf-8"?>
<!-- Generator: Adobe Illustrator 22.0.1, SVG Export Plug-In . SVG Version: 6.00 Build 0)  -->
<svg version="1.1" id="Camada_1" xmlns="http://www.w3.org/2000/svg" xmlns:xlink="http://www.w3.org/1999/xlink" x="0px" y="0px"
	 viewBox="0 0 500 500" style="enable-background:new 0 0 500 500;" xml:space="preserve">
<style type="text/css">
	.st0{fill:#E02F32;}
	.st1{fill:#FFFFFF;}
	.st2{fill:#87B81C;}
	.st3{clip-path:url(#SVGID_2_);fill:#E02F32;}
	.st4{clip-path:url(#SVGID_4_);fill:url(#SVGID_5_);}
	.st5{fill:url(#SVGID_6_);}
	.st6{fill:url(#SVGID_7_);}
	.st7{fill:url(#SVGID_8_);}
</style>
<g id="HB_Abrev_W">
	<path class="st0" d="M315.5,194.5v112.3c0,5.6-2,7.5-7.5,7.5h-19.1c-5.5,0-7.5-2-7.5-7.5v-41.2h-34.1v41.2c0,5.6-1.8,7.5-7.5,7.5
		h-18.9c-5.7,0-7.7-2-7.7-7.5V194.5c0-5.7,2-7.7,7.7-7.7h18.9c5.7,0,7.5,2,7.5,7.7v39.6h34.1v-39.6c0-5.7,2-7.7,7.5-7.7H308
		C313.6,186.7,315.5,188.7,315.5,194.5z"/>
	<path class="st1" d="M418.3,220.8c0,12-3.8,20.1-12.9,26.4v0.7c11.5,5,18.1,15.2,18.1,30.9c0,23.1-18.8,35.5-44.1,35.5h-51.5
		c-5.7,0-7.7-2-7.7-7.5V194.5c0-5.7,2-7.7,7.7-7.7h50.8C403.4,186.7,418.3,198.9,418.3,220.8z M371.3,215.6h-15.6v19.7h15.6
		c7.2,0,10.9-2.7,10.9-9.7C382.3,218.7,378.5,215.6,371.3,215.6z M374.7,264.2h-19v21h19c7.7,0,11.5-3.1,11.5-10.6
		C386.2,267.5,382.4,264.2,374.7,264.2z"/>
	<rect x="180.6" y="186.7" class="st0" width="16.5" height="127.5"/>
	<path class="st2" d="M143.1,201.1c0,0,1.5-0.8,3.4-0.8c1.8,0,7.8,1.6,7.8,7.6c0,5.9,5.2,8,7.8,8c0,0-10.4,11.8-22.2,0
		c0,0,7.8-0.9,7.8-7.8C147.5,203.2,143.1,201.1,143.1,201.1z"/>
	<g>
		<g>
			<defs>
				<path id="SVGID_1_" d="M139.8,218.1c-2.6,2.6-4.7,7.2-4.7,11.8c-0.2,14.7-5.9,29.4-17.1,40.6c-21.4,21.4-55.2,22.8-78.2,4.2
					c1.4,1.7,3,3.4,4.6,5c27.9,27.9,73.2,27.9,101.2,0c14.4-14.4,21.4-33.3,20.9-52.2c-0.4-3.4-1.8-6.8-4.5-9.4
					c-3.1-3.1-7.1-1.2-11.2-1.2C146.9,216.9,142.9,215,139.8,218.1z"/>
			</defs>
			<clipPath id="SVGID_2_">
				<use xlink:href="#SVGID_1_"  style="overflow:visible;"/>
			</clipPath>
			<path class="st3" d="M139.8,218.1c-2.6,2.6-4.7,7.2-4.7,11.8c-0.2,14.7-5.9,29.4-17.1,40.6c-21.4,21.4-55.2,22.8-78.2,4.2
				c1.4,1.7,3,3.4,4.6,5c27.9,27.9,73.2,27.9,101.2,0c14.4-14.4,21.4-33.3,20.9-52.2c-0.4-3.4-1.8-6.8-4.5-9.4
				c-3.1-3.1-7.1-1.2-11.2-1.2C146.9,216.9,142.9,215,139.8,218.1z"/>
		</g>
		<g>
			<defs>
				<path id="SVGID_3_" d="M139.8,218.1c-2.6,2.6-4.7,7.2-4.7,11.8c-0.2,14.7-5.9,29.4-17.1,40.6c-21.4,21.4-55.2,22.8-78.2,4.2
					c1.4,1.7,3,3.4,4.6,5c27.9,27.9,73.2,27.9,101.2,0c14.4-14.4,21.4-33.3,20.9-52.2c-0.4-3.4-1.8-6.8-4.5-9.4
					c-3.1-3.1-7.1-1.2-11.2-1.2C146.9,216.9,142.9,215,139.8,218.1z"/>
			</defs>
			<clipPath id="SVGID_4_">
				<use xlink:href="#SVGID_3_"  style="overflow:visible;"/>
			</clipPath>
			
				<radialGradient id="SVGID_5_" cx="94.8" cy="272.276" r="71.7" gradientTransform="matrix(1 0 0 -1 0 501.276)" gradientUnits="userSpaceOnUse">
				<stop  offset="0.2562" style="stop-color:#FFFFFF;stop-opacity:0.3"/>
				<stop  offset="0.8966" style="stop-color:#000000;stop-opacity:0"/>
			</radialGradient>
			<path class="st4" d="M166.5,229c0-39.6-32.1-71.7-71.7-71.7S23.1,189.4,23.1,229s32.1,71.7,71.7,71.7
				C134.4,300.6,166.5,268.5,166.5,229z"/>
		</g>
	</g>
	<g>
		
			<linearGradient id="SVGID_6_" gradientUnits="userSpaceOnUse" x1="188.85" y1="250.776" x2="188.85" y2="314.576" gradientTransform="matrix(1 0 0 -1 0 501.276)">
			<stop  offset="0" style="stop-color:#000000;stop-opacity:0"/>
			<stop  offset="1" style="stop-color:#FFFFFF;stop-opacity:0.3"/>
		</linearGradient>
		<rect x="180.6" y="186.7" class="st5" width="16.5" height="63.8"/>
	</g>
	<g>
		
			<linearGradient id="SVGID_7_" gradientUnits="userSpaceOnUse" x1="264.4" y1="250.776" x2="264.4" y2="314.476" gradientTransform="matrix(1 0 0 -1 0 501.276)">
			<stop  offset="0" style="stop-color:#000000;stop-opacity:0"/>
			<stop  offset="1" style="stop-color:#FFFFFF;stop-opacity:0.3"/>
		</linearGradient>
		<path class="st6" d="M315.5,194.5c0-5.7-2-7.7-7.5-7.7h-19.1c-5.5,0-7.5,2-7.5,7.7v39.6h-34.1v-39.6c0-5.7-1.8-7.7-7.5-7.7h-18.9
			c-5.7,0-7.7,2-7.7,7.7v56h102.4v-56H315.5z"/>
		
			<linearGradient id="SVGID_8_" gradientUnits="userSpaceOnUse" x1="369.25" y1="250.7698" x2="369.25" y2="314.4698" gradientTransform="matrix(1 0 0 -1 0 501.276)">
			<stop  offset="0" style="stop-color:#000000;stop-opacity:0"/>
			<stop  offset="1" style="stop-color:#FFFFFF;stop-opacity:0.3"/>
		</linearGradient>
		<path class="st7" d="M405.4,247.9v-0.7c9.1-6.3,12.9-14.4,12.9-26.4c0-21.9-14.9-34.1-39.6-34.1h-50.8c-5.7,0-7.7,2-7.7,7.7v56h90
			C408.7,249.5,407.1,248.7,405.4,247.9z M371.3,235.3h-15.6v-19.7h15.6c7.2,0,10.9,3,10.9,10C382.3,232.7,378.5,235.3,371.3,235.3z
			"/>
	</g>
</g>
</svg>
