<?xml version="1.0" encoding="utf-8"?>
<!-- Generator: Adobe Illustrator 22.0.1, SVG Export Plug-In . SVG Version: 6.00 Build 0)  -->
<svg version="1.1" id="Camada_1" xmlns="http://www.w3.org/2000/svg" xmlns:xlink="http://www.w3.org/1999/xlink" x="0px" y="0px"
	 viewBox="0 0 1300 400" style="enable-background:new 0 0 1300 400;" xml:space="preserve">
<style type="text/css">
	.st0{fill:#E02F32;}
	.st1{fill:#FFFFFF;}
	.st2{fill:#87B81C;}
	.st3{clip-path:url(#SVGID_2_);fill:url(#SVGID_3_);}
	.st4{fill:url(#SVGID_4_);}
	.st5{fill:url(#SVGID_5_);}
	.st6{fill:url(#SVGID_6_);}
	.st7{fill:url(#SVGID_7_);}
	.st8{fill:url(#SVGID_8_);}
	.st9{fill:url(#SVGID_9_);}
	.st10{fill:url(#SVGID_10_);}
	.st11{fill:url(#SVGID_11_);}
</style>
<g id="HotBoys">
	<path class="st0" d="M425.7,136.5v126.9c0,6.3-2.2,8.5-8.5,8.5h-21.6c-6.3,0-8.5-2.2-8.5-8.5v-46.6h-38.6v46.6c0,6.3-2,8.5-8.5,8.5
		h-21.3c-6.5,0-8.7-2.2-8.7-8.5V136.5c0-6.5,2.2-8.7,8.7-8.7H340c6.5,0,8.5,2.3,8.5,8.7v44.8h38.6v-44.8c0-6.5,2.3-8.7,8.5-8.7h21.6
		C423.4,127.8,425.7,130.1,425.7,136.5z"/>
	<path class="st0" d="M502.8,125c40,0,57.5,23.5,57.5,58.6v36.5c0,35-17.6,54.9-57.5,54.9c-40.1,0-57.9-21.7-57.9-56.7v-36.5
		C444.9,146.7,462.7,125,502.8,125z M502.8,160.5c-14.2,0-19.3,6.7-19.3,19.4V220c0,12.8,5.1,19.5,19.3,19.5
		c14,0,19.3-4.9,19.3-17.7v-40.1C522.1,169,516.8,160.5,502.8,160.5z"/>
	<path class="st1" d="M878.7,125c39.9,0,57.5,23.5,57.5,58.6v36.5c0,35-17.6,54.9-57.5,54.9c-40.1,0-57.9-21.7-57.9-56.7v-36.5
		C820.8,146.7,838.5,125,878.7,125z M878.7,160.5c-14.2,0-19.3,6.7-19.3,19.4V220c0,12.8,5.1,19.5,19.3,19.5
		c14,0,19.3-4.9,19.3-17.7v-40.1C897.9,169,892.7,160.5,878.7,160.5z"/>
	<path class="st0" d="M681.1,136.5v18.3c0,6.5-2.2,8.7-8.7,8.7h-29.9v99.9c0,6.3-2.2,8.5-8.7,8.5h-21.4c-6.5,0-8.5-2.2-8.5-8.5
		v-99.9h-30c-6.5,0-8.5-2.2-8.5-8.7v-18.3c0-6.3,2-8.5,8.5-8.5h98.5C678.9,128,681.1,130.3,681.1,136.5z"/>
	<path class="st1" d="M806.6,166.4c0,13.6-4.3,22.7-14.6,29.8v0.8c13,5.7,20.5,17.2,20.5,34.9c0,26.1-21.3,40.1-49.9,40.1h-58.2
		c-6.5,0-8.7-2.2-8.7-8.5v-127c0-6.5,2.2-8.7,8.7-8.7h57.4C789.8,127.8,806.6,141.6,806.6,166.4z M753.5,160.5h-17.7v22.3h17.7
		c8.1,0,12.4-3,12.4-10.9C765.9,163.9,761.6,160.5,753.5,160.5z M757.4,215.4h-21.5v23.7h21.5c8.7,0,13-3.5,13-12
		C770.4,219.1,766.1,215.4,757.4,215.4z"/>
	<path class="st1" d="M1062.8,136.5l-47.1,77.6v49.3c0,6.3-2,8.5-8.5,8.5H986c-6.5,0-8.7-2.2-8.7-8.5v-49.3l-46.6-77.6
		c-2.8-4.7-2-8.5,4.3-8.5h24.3c10.1,0,13,0.4,16.8,7.5l20.2,40l22.2-40c3.8-7.1,6.7-7.5,16.6-7.5h23.3
		C1064.6,128,1065.4,131.9,1062.8,136.5z"/>
	<path class="st1" d="M1120.2,125c30,0,47,8.9,56.6,28.4c2.8,5.9,1.2,8.9-4.9,11.4l-20.3,8.7c-5.5,2.4-7.7,1.6-11-4.3
		c-3.9-7.7-11.1-10.5-20.5-10.5c-13.8,0-19.3,3.5-19.3,10.5c0,8.7,12,10.6,26.5,12.4c23.5,3.3,53.9,8.9,53.9,47.2
		c0,29.8-27,46.2-62.8,46.2c-30.2,0-51.3-10.3-59-31.4c-2.2-6.1-0.4-8.9,5.5-11.1l19-6.9c6.1-2,8.9-1.4,12,4.5
		c3.7,7.1,11.5,10.8,22.9,10.8c13.6,0,21.7-2.8,21.7-11.6c0-7.9-10.3-10.1-23.7-12c-23.7-3.2-57-7.5-57-46.8
		C1060,143.6,1081.5,125,1120.2,125z"/>
	<rect x="262" y="127.8" class="st0" width="18.7" height="144.2"/>
	<g>
		<path class="st2" d="M205.9,144.1c0,0,1.7-0.8,3.8-0.8c2,0,8.8,1.8,8.8,8.6c0,6.7,5.9,9,8.8,9c0,0-11.7,13.4-25.1,0
			c0,0,8.8-1,8.8-8.8C210.9,146.4,205.9,144.1,205.9,144.1z"/>
		<path class="st0" d="M202.3,163.2c-2.9,2.9-5.3,8.2-5.3,13.4c-0.2,16.6-6.7,33.2-19.4,45.9c-24.2,24.2-62.4,25.7-88.4,4.7
			c1.6,1.9,3.3,3.9,5.2,5.7c31.6,31.6,82.8,31.6,114.4,0c16.3-16.3,24.1-37.7,23.6-59c-0.4-3.9-2.1-7.7-5-10.6
			c-3.5-3.5-8.1-1.4-12.6-1.4C210.2,161.9,205.7,159.8,202.3,163.2z"/>
		<g>
			<g>
				<g>
					<defs>
						<path id="SVGID_1_" d="M202.3,163.2c-2.9,2.9-5.3,8.2-5.3,13.4c-0.2,16.6-6.7,33.2-19.4,45.9c-24.2,24.2-62.4,25.7-88.4,4.7
							c1.6,1.9,3.3,3.9,5.2,5.7c31.6,31.6,82.8,31.6,114.4,0c16.3-16.3,24.1-37.7,23.6-59c-0.4-3.9-2.1-7.7-5-10.6
							c-3.5-3.5-8.1-1.4-12.6-1.4C210.2,161.9,205.7,159.8,202.3,163.2z"/>
					</defs>
					<clipPath id="SVGID_2_">
						<use xlink:href="#SVGID_1_"  style="overflow:visible;"/>
					</clipPath>
					
						<radialGradient id="SVGID_3_" cx="151.4" cy="-293.786" r="81" gradientTransform="matrix(1 0 0 1 0 469.386)" gradientUnits="userSpaceOnUse">
						<stop  offset="0.2562" style="stop-color:#FFFFFF;stop-opacity:0.3"/>
						<stop  offset="0.8966" style="stop-color:#000000;stop-opacity:0"/>
					</radialGradient>
					<path class="st3" d="M232.4,175.6c0-44.7-36.3-81-81-81s-81,36.3-81,81s36.3,81,81,81S232.4,220.3,232.4,175.6z"/>
				</g>
			</g>
		</g>
	</g>
	<g>
		
			<linearGradient id="SVGID_4_" gradientUnits="userSpaceOnUse" x1="271.35" y1="-269.486" x2="271.35" y2="-341.586" gradientTransform="matrix(1 0 0 1 0 469.386)">
			<stop  offset="0" style="stop-color:#000000;stop-opacity:0"/>
			<stop  offset="1" style="stop-color:#FFFFFF;stop-opacity:0.3"/>
		</linearGradient>
		<rect x="262" y="127.8" class="st4" width="18.7" height="72.1"/>
	</g>
	<g>
		
			<linearGradient id="SVGID_5_" gradientUnits="userSpaceOnUse" x1="367.9001" y1="-269.4708" x2="367.9001" y2="-341.5708" gradientTransform="matrix(1 0 0 1 0 469.386)">
			<stop  offset="0" style="stop-color:#000000;stop-opacity:0"/>
			<stop  offset="1" style="stop-color:#FFFFFF;stop-opacity:0.3"/>
		</linearGradient>
		<path class="st5" d="M425.7,136.6c0-6.5-2.2-8.7-8.5-8.7h-21.6c-6.3,0-8.5,2.3-8.5,8.7v44.8h-38.6v-44.8c0-6.5-2-8.7-8.5-8.7
			h-21.3c-6.5,0-8.7,2.3-8.7,8.7V200h115.8v-63.4H425.7z"/>
		
			<linearGradient id="SVGID_6_" gradientUnits="userSpaceOnUse" x1="502.6" y1="-269.4708" x2="502.6" y2="-344.3707" gradientTransform="matrix(1 0 0 1 0 469.386)">
			<stop  offset="0" style="stop-color:#000000;stop-opacity:0"/>
			<stop  offset="1" style="stop-color:#FFFFFF;stop-opacity:0.3"/>
		</linearGradient>
		<path class="st6" d="M483.5,179.9c0-12.8,5.1-19.4,19.3-19.4c14,0,19.3,8.5,19.3,21.3V200h38.2v-16.3c0-35.1-17.6-58.6-57.5-58.6
			c-40.1,0-57.9,21.7-57.9,56.8V200h38.6L483.5,179.9L483.5,179.9z"/>
		
			<linearGradient id="SVGID_7_" gradientUnits="userSpaceOnUse" x1="878.5001" y1="-269.4708" x2="878.5001" y2="-344.3707" gradientTransform="matrix(1 0 0 1 0 469.386)">
			<stop  offset="0" style="stop-color:#000000;stop-opacity:0"/>
			<stop  offset="1" style="stop-color:#FFFFFF;stop-opacity:0.3"/>
		</linearGradient>
		<path class="st7" d="M859.4,179.9c0-12.8,5.1-19.4,19.3-19.4c14,0,19.3,8.5,19.3,21.3V200h38.2v-16.3c0-35.1-17.6-58.6-57.5-58.6
			c-40.1,0-57.9,21.7-57.9,56.8V200h38.6V179.9z"/>
		
			<linearGradient id="SVGID_8_" gradientUnits="userSpaceOnUse" x1="623.35" y1="-269.486" x2="623.35" y2="-341.386" gradientTransform="matrix(1 0 0 1 0 469.386)">
			<stop  offset="0" style="stop-color:#000000;stop-opacity:0"/>
			<stop  offset="1" style="stop-color:#FFFFFF;stop-opacity:0.3"/>
		</linearGradient>
		<path class="st8" d="M642.6,163.5h29.9c6.5,0,8.7-2.2,8.7-8.7v-18.3c0-6.3-2.2-8.5-8.7-8.5H574c-6.5,0-8.5,2.2-8.5,8.5v18.3
			c0,6.5,2,8.7,8.5,8.7h30v36.4h38.6V163.5z"/>
		
			<linearGradient id="SVGID_9_" gradientUnits="userSpaceOnUse" x1="751.1499" y1="-269.4708" x2="751.1499" y2="-341.5707" gradientTransform="matrix(1 0 0 1 0 469.386)">
			<stop  offset="0" style="stop-color:#000000;stop-opacity:0"/>
			<stop  offset="1" style="stop-color:#FFFFFF;stop-opacity:0.3"/>
		</linearGradient>
		<path class="st9" d="M792,197v-0.8c10.3-7.1,14.6-16.2,14.6-29.8c0-24.7-16.8-38.5-44.8-38.5h-57.4c-6.5,0-8.7,2.3-8.7,8.7V200
			h101.7C795.8,198.8,794,197.8,792,197z M753.5,182.8h-17.7v-22.3h17.7c8.1,0,12.4,3.4,12.4,11.4
			C765.9,179.8,761.6,182.8,753.5,182.8z"/>
		
			<linearGradient id="SVGID_10_" gradientUnits="userSpaceOnUse" x1="996.6837" y1="-269.4708" x2="996.6837" y2="-341.3708" gradientTransform="matrix(1 0 0 1 0 469.386)">
			<stop  offset="0" style="stop-color:#000000;stop-opacity:0"/>
			<stop  offset="1" style="stop-color:#FFFFFF;stop-opacity:0.3"/>
		</linearGradient>
		<path class="st10" d="M1062.8,136.6c2.6-4.7,1.8-8.5-4.2-8.5h-23.3c-9.9,0-12.8,0.4-16.6,7.5l-22.2,40l-20.2-40
			c-3.8-7.1-6.7-7.5-16.8-7.5H935c-6.3,0-7.1,3.8-4.3,8.5l38.1,63.4h55.5L1062.8,136.6z"/>
		
			<linearGradient id="SVGID_11_" gradientUnits="userSpaceOnUse" x1="1119.2667" y1="-269.4861" x2="1119.2667" y2="-344.3861" gradientTransform="matrix(1 0 0 1 0 469.386)">
			<stop  offset="0" style="stop-color:#000000;stop-opacity:0"/>
			<stop  offset="1" style="stop-color:#FFFFFF;stop-opacity:0.3"/>
		</linearGradient>
		<path class="st11" d="M1127.5,181.6c-14.6-1.8-26.5-3.6-26.5-12.4c0-7.1,5.5-10.5,19.3-10.5c9.3,0,16.6,2.8,20.5,10.5
			c3.3,5.9,5.5,6.7,11,4.3l20.3-8.7c6.1-2.4,7.7-5.5,4.9-11.4c-9.5-19.5-26.5-28.4-56.6-28.4c-38.7,0-60.2,18.7-60.2,45.4
			c0,13.5,3.9,22.9,10,29.5h102.4C1161.6,186.9,1143.1,183.7,1127.5,181.6z"/>
	</g>
</g>
</svg>
