<?xml version="1.0" encoding="utf-8"?>
<!-- Generator: Adobe Illustrator 22.0.1, SVG Export Plug-In . SVG Version: 6.00 Build 0)  -->
<svg version="1.1" id="Camada_1" xmlns="http://www.w3.org/2000/svg" xmlns:xlink="http://www.w3.org/1999/xlink" x="0px" y="0px"
	 viewBox="0 0 1920 1312" style="enable-background:new 0 0 1920 1312;" xml:space="preserve">
<style type="text/css">
	.st0{fill:#FFFFFF;}
	.st1{fill:#E44F2C;}
	.st2{fill:url(#SVGID_1_);}
	.st3{fill:url(#SVGID_2_);}
	.st4{fill:url(#SVGID_3_);}
	.st5{fill:url(#SVGID_4_);}
	.st6{fill:url(#SVGID_5_);}
	.st7{fill:url(#SVGID_6_);}
	.st8{fill:url(#SVGID_7_);}
	.st9{fill:url(#SVGID_8_);}
	.st10{fill:url(#SVGID_9_);}
	.st11{fill:url(#SVGID_10_);}
	.st12{fill:url(#SVGID_11_);}
	.st13{clip-path:url(#SVGID_13_);fill:url(#SVGID_14_);}
	.st14{clip-path:url(#SVGID_16_);fill:url(#SVGID_17_);}
	.st15{clip-path:url(#SVGID_19_);fill:url(#SVGID_20_);}
</style>
<g id="HotMídias">
	<g>
		<path class="st0" d="M1072,591.4V719c0,6.3-2.2,8.3-8.7,8.3h-21.7c-6.5,0-8.5-2.1-8.5-8.3v-29.1c0-13.4-1-26.2,6.7-53.2l0,0
			c-2,6.7-9.3,25.2-13.6,33.5l-11.5,23c-2.3,4.1-4.2,5.9-9.8,5.9h-9.3c-5.5,0-7.5-1.4-9.7-5.9l-13.6-23c-4.3-7.7-9.8-26.4-11.8-33.5
			l0,0c7.3,29.3,6.3,39.4,6.3,53.4V719c0,6.3-2.2,8.3-8.8,8.3h-21.6c-6.5,0-8.7-2.1-8.7-8.3V591.4c0-6.6,2.2-8.6,8.7-8.6h19.9
			c7.1,0,9.2,1.2,12,6.3l31.6,66l32.2-65.8c2.8-5.5,4.6-6.5,11.4-6.5h19.9C1069.8,582.8,1072,584.9,1072,591.4z"/>
		<path class="st0" d="M1135,540.1l10.4,11.7c3.4,4,3.6,6.3-1.2,8.1l-36.8,11.4c-4.9,1.4-7.3,1.8-9.3-1l-5.7-6.7
			c-3.1-3.9-3.1-5.7,0.6-7.8l28.7-16.4C1126.3,536.9,1131,535.6,1135,540.1z"/>
		<path class="st0" d="M1090.1,583h22.4c6.1,0,8.1,2,8.1,8.2v128c0,6.1-2.1,8.2-8.1,8.2h-22.4c-6.1,0-8.1-2.1-8.1-8.2v-128
			C1082,585,1084,583,1090.1,583z"/>
		<path class="st0" d="M1263.8,583h22.3c6.1,0,8.1,2,8.1,8.2v128c0,6.1-2.1,8.2-8.1,8.2h-22.3c-6.1,0-8.1-2.1-8.1-8.2v-128
			C1255.7,585,1257.7,583,1263.8,583z"/>
		<path class="st0" d="M1245.7,639.9v30.5c0,34.9-22.3,56.9-62.4,56.9h-44.7c-6.5,0-8.8-2.3-8.8-8.6V591.6c0-6.3,2.2-8.5,8.8-8.5
			h44.7C1223.4,583,1245.7,604.8,1245.7,639.9z M1181.9,618.6h-11.8v73.2h11.8c16.5,0,25.2-7.5,25.2-22v-29.2
			C1207.1,626.1,1198.4,618.6,1181.9,618.6z"/>
		<path class="st0" d="M1429.9,727.3h-21.3c-10.6,0-13.6-2.3-15.3-8.6l-4.7-14.6h-38.8l-4.7,14.6c-2,6.3-4.7,8.6-14.8,8.6h-22.4
			c-6.3,0-7.5-2.9-5.5-8.3l46.7-128.9c2.1-5.9,4.7-7.1,10.6-7.1h18.6c5.9,0,8.5,1.4,10.5,6.7l47,129.2
			C1437.8,724.4,1435.9,727.3,1429.9,727.3z M1369.4,620L1369.4,620c0,0,0.2,14.7-3.8,28.2l-6.2,24h19.3l-5.7-23.8
			C1368.8,634.7,1369.4,620,1369.4,620z"/>
		<path class="st0" d="M1496.2,580c30.1,0,47.1,8.9,56.7,28.4c2.8,5.9,1.2,8.9-4.9,11.4l-20.3,8.8c-5.5,2.4-7.7,1.6-11-4.3
			c-3.9-7.7-11.2-10.5-20.5-10.5c-13.9,0-19.3,3.4-19.3,10.5c0,8.7,12.1,10.6,26.6,12.4c23.6,3.2,54,8.9,54,47.3
			c0,29.9-27,46.3-63,46.3c-30.2,0-51.4-10.4-59.1-31.5c-2.3-6.1-0.4-8.9,5.5-11.2l19.1-6.9c6.1-2,9-1.4,12,4.5
			c3.6,7.1,11.6,10.8,22.9,10.8c13.6,0,21.7-2.9,21.7-11.6c0-8-10.4-10.2-23.8-12c-23.8-3.3-57.1-7.5-57.1-47
			C1435.8,598.7,1457.4,580,1496.2,580z"/>
		<rect x="511.5" y="582.7" class="st1" width="18.7" height="144.7"/>
		<path class="st1" d="M675.8,591.3v127.4c0,6.3-2.2,8.6-8.5,8.6h-21.6c-6.3,0-8.5-2.2-8.5-8.6v-46.8h-38.7v46.8
			c0,6.3-2,8.6-8.6,8.6h-21.4c-6.5,0-8.8-2.2-8.8-8.6V591.3c0-6.5,2.2-8.8,8.8-8.8h21.4c6.5,0,8.6,2.3,8.6,8.8v45h38.7v-45
			c0-6.5,2.3-8.8,8.5-8.8h21.6C673.6,582.6,675.8,584.9,675.8,591.3z"/>
		<path class="st1" d="M743.3,579.8c40.1,0,57.7,23.6,57.7,58.8v36.6c0,35.2-17.6,55.2-57.7,55.2c-40.3,0-58.1-21.8-58.1-57v-36.6
			C685.2,601.5,703,579.8,743.3,579.8z M743.3,615.4c-14.2,0-19.4,6.7-19.4,19.5v40.3c0,12.8,5.1,19.5,19.4,19.5
			c14.1,0,19.3-4.9,19.3-17.8v-40.3C762.6,623.9,757.3,615.4,743.3,615.4z"/>
		<path class="st1" d="M918.1,591.3v18.3c0,6.5-2.2,8.7-8.7,8.7h-30v100.3c0,6.3-2.2,8.6-8.8,8.6h-21.4c-6.5,0-8.5-2.2-8.5-8.6
			V618.4h-30.2c-6.5,0-8.5-2.2-8.5-8.7v-18.3c0-6.3,2-8.5,8.5-8.5h98.9C915.9,582.8,918.1,585,918.1,591.3z"/>
	</g>
	<g>
		
			<linearGradient id="SVGID_1_" gradientUnits="userSpaceOnUse" x1="999.7" y1="656.076" x2="999.7" y2="728.476" gradientTransform="matrix(1 0 0 -1 0 1311.276)">
			<stop  offset="0" style="stop-color:#000000;stop-opacity:0"/>
			<stop  offset="1" style="stop-color:#FFFFFF;stop-opacity:0.3"/>
		</linearGradient>
		<path class="st2" d="M960.2,636.7c1.1,3.9,3.3,11.3,5.7,18.5h66.8c3-7.3,5.8-14.7,6.9-18.5c-2,7.1-3.4,13.1-4.4,18.5h36.7v-63.8
			c0-6.6-2.2-8.6-8.7-8.6h-19.9c-6.7,0-8.5,1-11.4,6.5l-32.2,65.8l-31.6-66c-2.8-5.1-4.9-6.3-12-6.3h-19.9c-6.5,0-8.7,2-8.7,8.6
			v63.8h36.7C963.3,650,962,643.9,960.2,636.7z"/>
		
			<linearGradient id="SVGID_2_" gradientUnits="userSpaceOnUse" x1="1119.0032" y1="738.7775" x2="1119.0032" y2="774.14" gradientTransform="matrix(1 0 0 -1 0 1311.276)">
			<stop  offset="0" style="stop-color:#000000;stop-opacity:0"/>
			<stop  offset="1" style="stop-color:#FFFFFF;stop-opacity:0.3"/>
		</linearGradient>
		<path class="st3" d="M1098.1,570.4c2,2.9,4.5,2.5,9.3,1l36.8-11.4c4.9-1.8,4.7-4.1,1.2-8.1l-10.4-11.7c-4-4.5-8.7-3.3-13.4-0.6
			l-28.7,16.4c-3.7,2.1-3.7,3.9-0.6,7.8L1098.1,570.4z"/>
		
			<linearGradient id="SVGID_3_" gradientUnits="userSpaceOnUse" x1="1101.2999" y1="656.076" x2="1101.2999" y2="728.276" gradientTransform="matrix(1 0 0 -1 0 1311.276)">
			<stop  offset="0" style="stop-color:#000000;stop-opacity:0"/>
			<stop  offset="1" style="stop-color:#FFFFFF;stop-opacity:0.3"/>
		</linearGradient>
		<path class="st4" d="M1120.6,591.2c0-6.1-2.1-8.2-8.1-8.2h-22.4c-6.1,0-8.1,2-8.1,8.2v64h38.6V591.2z"/>
		
			<linearGradient id="SVGID_4_" gradientUnits="userSpaceOnUse" x1="1275.1" y1="656.076" x2="1275.1" y2="728.276" gradientTransform="matrix(1 0 0 -1 0 1311.276)">
			<stop  offset="0" style="stop-color:#000000;stop-opacity:0"/>
			<stop  offset="1" style="stop-color:#FFFFFF;stop-opacity:0.3"/>
		</linearGradient>
		<path class="st5" d="M1294.3,591.2c0-6.1-2.1-8.2-8.1-8.2h-22.3c-6.1,0-8.1,2-8.1,8.2v64h38.6L1294.3,591.2L1294.3,591.2z"/>
		
			<linearGradient id="SVGID_5_" gradientUnits="userSpaceOnUse" x1="1187.8499" y1="656.0887" x2="1187.8499" y2="728.2887" gradientTransform="matrix(1 0 0 -1 0 1311.276)">
			<stop  offset="0" style="stop-color:#000000;stop-opacity:0"/>
			<stop  offset="1" style="stop-color:#FFFFFF;stop-opacity:0.3"/>
		</linearGradient>
		<path class="st6" d="M1170.2,618.6h11.8c16.5,0,25.2,7.5,25.2,22v14.7h38.6V640c0-35.1-22.3-56.9-62.4-56.9h-44.7
			c-6.5,0-8.8,2.2-8.8,8.5v63.6h40.3V618.6z"/>
		
			<linearGradient id="SVGID_6_" gradientUnits="userSpaceOnUse" x1="1369.0499" y1="656.0887" x2="1369.0499" y2="728.2886" gradientTransform="matrix(1 0 0 -1 0 1311.276)">
			<stop  offset="0" style="stop-color:#000000;stop-opacity:0"/>
			<stop  offset="1" style="stop-color:#FFFFFF;stop-opacity:0.3"/>
		</linearGradient>
		<path class="st7" d="M1365.5,648.2c3.1-10.5,3.7-21.5,3.8-26.1c0,4.5,0.4,15.7,3.6,26.3l1.6,6.8h38.1l-23.8-65.4
			c-2-5.3-4.6-6.7-10.5-6.7h-18.6c-5.9,0-8.5,1.2-10.6,7.1l-23.6,65.1h38.3L1365.5,648.2z"/>
		
			<linearGradient id="SVGID_7_" gradientUnits="userSpaceOnUse" x1="1495.0167" y1="656.076" x2="1495.0167" y2="731.2761" gradientTransform="matrix(1 0 0 -1 0 1311.276)">
			<stop  offset="0" style="stop-color:#000000;stop-opacity:0"/>
			<stop  offset="1" style="stop-color:#FFFFFF;stop-opacity:0.3"/>
		</linearGradient>
		<path class="st8" d="M1503.5,636.7c-14.6-1.8-26.6-3.7-26.6-12.4c0-7.1,5.5-10.5,19.3-10.5c9.3,0,16.6,2.8,20.5,10.5
			c3.2,5.9,5.5,6.7,11,4.3l20.3-8.8c6.1-2.4,7.7-5.5,4.9-11.4c-9.6-19.5-26.6-28.4-56.7-28.4c-38.8,0-60.4,18.7-60.4,45.5
			c0,13.6,4,23.1,10.2,29.7h102.5C1537.7,642.1,1519.1,638.8,1503.5,636.7z"/>
		
			<linearGradient id="SVGID_8_" gradientUnits="userSpaceOnUse" x1="617.8" y1="656.076" x2="617.8" y2="728.676" gradientTransform="matrix(1 0 0 -1 0 1311.276)">
			<stop  offset="0" style="stop-color:#000000;stop-opacity:0"/>
			<stop  offset="1" style="stop-color:#FFFFFF;stop-opacity:0.3"/>
		</linearGradient>
		<path class="st9" d="M675.8,591.4c0-6.5-2.2-8.8-8.5-8.8h-21.6c-6.3,0-8.5,2.3-8.5,8.8v45h-38.7v-45c0-6.5-2-8.8-8.6-8.8h-21.4
			c-6.5,0-8.8,2.3-8.8,8.8v63.8h116.2v-63.8H675.8z"/>
		
			<linearGradient id="SVGID_9_" gradientUnits="userSpaceOnUse" x1="743.1" y1="656.0759" x2="743.1" y2="731.476" gradientTransform="matrix(1 0 0 -1 0 1311.276)">
			<stop  offset="0" style="stop-color:#000000;stop-opacity:0"/>
			<stop  offset="1" style="stop-color:#FFFFFF;stop-opacity:0.3"/>
		</linearGradient>
		<path class="st10" d="M723.9,634.9c0-12.8,5.1-19.5,19.4-19.5c14.1,0,19.3,8.5,19.3,21.3v18.5H801v-16.6
			c0-35.2-17.6-58.8-57.7-58.8c-40.3,0-58.1,21.8-58.1,57v18.4h38.7V634.9z"/>
		
			<linearGradient id="SVGID_10_" gradientUnits="userSpaceOnUse" x1="860.05" y1="656.076" x2="860.05" y2="728.376" gradientTransform="matrix(1 0 0 -1 0 1311.276)">
			<stop  offset="0" style="stop-color:#000000;stop-opacity:0"/>
			<stop  offset="1" style="stop-color:#FFFFFF;stop-opacity:0.3"/>
		</linearGradient>
		<path class="st11" d="M879.4,618.4h30c6.5,0,8.7-2.2,8.7-8.7v-18.3c0-6.3-2.2-8.5-8.7-8.5h-98.9c-6.5,0-8.5,2.2-8.5,8.5v18.3
			c0,6.5,2,8.7,8.5,8.7h30.2v36.8h38.7V618.4z"/>
	</g>
	<g>
		
			<linearGradient id="SVGID_11_" gradientUnits="userSpaceOnUse" x1="520.85" y1="656.176" x2="520.85" y2="728.576" gradientTransform="matrix(1 0 0 -1 0 1311.276)">
			<stop  offset="0" style="stop-color:#000000;stop-opacity:0"/>
			<stop  offset="1" style="stop-color:#FFFFFF;stop-opacity:0.3"/>
		</linearGradient>
		<rect x="511.5" y="582.7" class="st12" width="18.7" height="72.4"/>
	</g>
	<g>
		<path class="st1" d="M428.5,619.7c-23.6,0-42.8,19.2-42.8,42.8c0,23.7,19.2,42.8,42.8,42.8c23.6,0,42.8-19.2,42.8-42.8
			S452.1,619.7,428.5,619.7z M444.8,664.5l-20.7,20.7c-1.5,1.5-2.5,1.5-4,0l0.1-45.4c1.5-1.5,2.5-1.5,4,0.1l20.6,20.6
			C446.3,662,446.3,663,444.8,664.5z"/>
		<path class="st1" d="M477.9,629.2c-5-5.8-12.2-11.3-15.4-14.3c-3-2.8-6.3-7.1-6.3-11c-4-1.7-8.5-3.3-13.2-4.4
			c3.8-8.2,11.4-32.1-13.3-62.5c0,0,2.6,7,2.6,22.8c0,13.8-13.7,30.9-22.3,40.1c5.1-9.2,5.9-26.3-13.2-42.8c0,0,6.1,6.1,6.1,21.9
			c0,12.6-24.9,32.5-35.1,60.5c-2.3,6-3.7,12.3-4.1,19c0,0.1,0,0.2,0,0.3c-0.1,1.2-0.1,2.4-0.1,3.7c0,35.8,29.1,64.9,64.9,64.9
			c35,0,63.5-27.7,64.8-62.4C493.3,649.5,481.8,633.1,477.9,629.2z M428.5,714.4c-28.7,0-51.9-23.3-51.9-51.9s23.3-51.9,51.9-51.9
			c28.7,0,51.9,23.3,51.9,51.9S457.1,714.4,428.5,714.4z"/>
		<path class="st1" d="M489.7,641.3c0,0-3.6-14.4-12-24s-7.8-21.9-7.8-21.9c0.2-5.1,4.4-9.5,9.6-9.5c5.3,0,9.5,4.3,9.5,9.5
			c0,0.8-0.1,1.6-0.3,2.3c1.4-2.3,2.3-5,2.3-8c0-8.5-6.9-15.3-15.3-15.3c-0.6,0-1.2,0.1-1.9,0.1c-12.4,1.3-15.2,14.8-15.2,18.8
			c0,8.1,2.2,12.7,17.6,28C482.7,627.8,485.3,631.1,489.7,641.3z"/>
	</g>
	<g>
		<g>
			<g>
				<defs>
					<path id="SVGID_12_" d="M428.4,619.7c-23.6,0-42.8,19.2-42.8,42.8c0,23.7,19.2,42.8,42.8,42.8c23.6,0,42.8-19.2,42.8-42.8
						C471.2,638.9,452,619.7,428.4,619.7z M444.7,664.5L424,685.2c-1.5,1.5-2.5,1.5-4,0l0.1-45.4c1.5-1.5,2.5-1.5,4,0.1l20.6,20.6
						C446.2,662,446.2,663,444.7,664.5z"/>
				</defs>
				<clipPath id="SVGID_13_">
					<use xlink:href="#SVGID_12_"  style="overflow:visible;"/>
				</clipPath>
				
					<radialGradient id="SVGID_14_" cx="391.4" cy="697.8759" r="88.6" gradientTransform="matrix(1 0 0 -1 0 1311.276)" gradientUnits="userSpaceOnUse">
					<stop  offset="0.2562" style="stop-color:#FFFFFF;stop-opacity:0.3"/>
					<stop  offset="0.8966" style="stop-color:#000000;stop-opacity:0"/>
				</radialGradient>
				<path class="st13" d="M480,613.4c0-48.9-39.7-88.6-88.6-88.6s-88.6,39.7-88.6,88.6c0,49,39.7,88.6,88.6,88.6
					C440.3,702.1,480,662.4,480,613.4z"/>
			</g>
		</g>
		<g>
			<g>
				<defs>
					<path id="SVGID_15_" d="M477.8,629.2c-5-5.8-12.2-11.3-15.4-14.3c-3-2.8-6.3-7.1-6.3-11c-4-1.7-8.5-3.3-13.2-4.4
						c3.8-8.2,11.4-32.1-13.3-62.5c0,0,2.6,7,2.6,22.8c0,13.8-13.7,30.9-22.3,40.1c5.1-9.2,5.9-26.3-13.2-42.8c0,0,6.1,6.1,6.1,21.9
						c0,12.6-24.9,32.5-35.1,60.5c-2.3,6-3.7,12.3-4.1,19c0,0.1,0,0.2,0,0.3c-0.1,1.2-0.1,2.4-0.1,3.7c0,35.8,29.1,64.9,64.9,64.9
						c35,0,63.5-27.7,64.8-62.4C493.2,649.5,481.7,633.1,477.8,629.2z M428.4,714.4c-28.7,0-51.9-23.3-51.9-51.9
						s23.3-51.9,51.9-51.9c28.7,0,51.9,23.3,51.9,51.9S457.1,714.4,428.4,714.4z"/>
				</defs>
				<clipPath id="SVGID_16_">
					<use xlink:href="#SVGID_15_"  style="overflow:visible;"/>
				</clipPath>
				
					<radialGradient id="SVGID_17_" cx="391.4" cy="697.8759" r="88.6" gradientTransform="matrix(1 0 0 -1 0 1311.276)" gradientUnits="userSpaceOnUse">
					<stop  offset="0.2562" style="stop-color:#FFFFFF;stop-opacity:0.3"/>
					<stop  offset="0.8966" style="stop-color:#000000;stop-opacity:0"/>
				</radialGradient>
				<path class="st14" d="M480,613.4c0-48.9-39.7-88.6-88.6-88.6s-88.6,39.7-88.6,88.6c0,49,39.7,88.6,88.6,88.6
					C440.3,702.1,480,662.4,480,613.4z"/>
			</g>
		</g>
		<g>
			<g>
				<defs>
					<path id="SVGID_18_" d="M489.6,641.3c0,0-3.6-14.4-12-24s-7.8-21.9-7.8-21.9c0.2-5.1,4.4-9.5,9.5-9.5c5.3,0,9.5,4.3,9.5,9.5
						c0,0.8-0.1,1.6-0.3,2.3c1.4-2.3,2.3-5,2.3-8c0-8.5-6.9-15.3-15.3-15.3c-0.6,0-1.2,0.1-1.9,0.1c-12.4,1.3-15.2,14.8-15.2,18.8
						c0,8.1,2.2,12.7,17.6,28C482.7,627.8,485.2,631.1,489.6,641.3z"/>
				</defs>
				<clipPath id="SVGID_19_">
					<use xlink:href="#SVGID_18_"  style="overflow:visible;"/>
				</clipPath>
				
					<radialGradient id="SVGID_20_" cx="391.4" cy="697.8759" r="88.6" gradientTransform="matrix(1 0 0 -1 0 1311.276)" gradientUnits="userSpaceOnUse">
					<stop  offset="0.2562" style="stop-color:#FFFFFF;stop-opacity:0.3"/>
					<stop  offset="0.8966" style="stop-color:#000000;stop-opacity:0"/>
				</radialGradient>
				<path class="st15" d="M480,613.4c0-48.9-39.7-88.6-88.6-88.6s-88.6,39.7-88.6,88.6c0,49,39.7,88.6,88.6,88.6
					C440.3,702.1,480,662.4,480,613.4z"/>
			</g>
		</g>
	</g>
</g>
</svg>
