<?xml version="1.0" encoding="utf-8"?>
<!-- Generator: Adobe Illustrator 22.0.1, SVG Export Plug-In . SVG Version: 6.00 Build 0)  -->
<svg version="1.1" id="Camada_1" xmlns="http://www.w3.org/2000/svg" xmlns:xlink="http://www.w3.org/1999/xlink" x="0px" y="0px"
	 viewBox="0 0 500 500" style="enable-background:new 0 0 500 500;" xml:space="preserve">
<style type="text/css">
	.st0{fill:#FFFFFF;}
	.st1{fill:#E44F2C;}
	.st2{fill:url(#SVGID_1_);}
	.st3{fill:url(#SVGID_2_);}
	.st4{fill:url(#SVGID_3_);}
	.st5{clip-path:url(#SVGID_5_);fill:url(#SVGID_6_);}
	.st6{clip-path:url(#SVGID_8_);fill:url(#SVGID_9_);}
	.st7{clip-path:url(#SVGID_11_);fill:url(#SVGID_12_);}
</style>
<g id="HM_Abrev_W">
	<g>
		<path class="st0" d="M446.7,194.2v112.1c0,5.5-2,7.3-7.7,7.3h-19c-5.7,0-7.5-1.8-7.5-7.3v-25.5c0-11.8-0.9-23,5.9-46.8l0,0
			c-1.8,5.9-8.2,22.1-12,29.4l-10.1,20.2c-2,3.6-3.7,5.2-8.6,5.2h-8.2c-4.8,0-6.6-1.2-8.5-5.2l-12-20.2c-3.8-6.8-8.6-23.2-10.4-29.4
			l0,0c6.4,25.7,5.6,34.6,5.6,47v25.4c0,5.5-2,7.3-7.7,7.3h-19c-5.7,0-7.6-1.8-7.6-7.3V194.2c0-5.8,2-7.5,7.6-7.5H345
			c6.3,0,8.1,1.1,10.6,5.5l27.8,58l28.3-57.9c2.5-4.8,4.1-5.7,10-5.7h17.5C444.8,186.7,446.7,188.5,446.7,194.2z"/>
		<rect x="180.8" y="186.6" class="st1" width="16.5" height="127.1"/>
		<path class="st1" d="M315.8,194.2v112c0,5.6-2,7.5-7.5,7.5h-19c-5.5,0-7.5-2-7.5-7.5V265h-34v41.1c0,5.6-1.8,7.5-7.5,7.5h-18.8
			c-5.7,0-7.7-2-7.7-7.5v-112c0-5.7,2-7.7,7.7-7.7h18.8c5.7,0,7.5,2,7.5,7.7v39.5h34v-39.5c0-5.7,2-7.7,7.5-7.7h19
			C313.8,186.5,315.8,188.5,315.8,194.2z"/>
	</g>
	<g>
		
			<linearGradient id="SVGID_1_" gradientUnits="userSpaceOnUse" x1="383.2" y1="250.9982" x2="383.2" y2="314.5982" gradientTransform="matrix(1 0 0 -1 0 501.276)">
			<stop  offset="0" style="stop-color:#000000;stop-opacity:0"/>
			<stop  offset="1" style="stop-color:#FFFFFF;stop-opacity:0.3"/>
		</linearGradient>
		<path class="st2" d="M348.5,234c1,3.5,2.9,10,5,16.3h58.7c2.6-6.4,5.1-12.9,6.1-16.3c-1.8,6.2-3,11.5-3.9,16.3h32.3v-56
			c0-5.8-2-7.5-7.7-7.5h-17.5c-5.9,0-7.5,0.9-10,5.7l-28.3,57.9l-27.8-58c-2.5-4.4-4.3-5.5-10.6-5.5h-17.5c-5.7,0-7.6,1.8-7.6,7.5
			v56H352C351.2,245.7,350.1,240.4,348.5,234z"/>
		
			<linearGradient id="SVGID_2_" gradientUnits="userSpaceOnUse" x1="264.85" y1="250.976" x2="264.85" y2="314.776" gradientTransform="matrix(1 0 0 -1 0 501.276)">
			<stop  offset="0" style="stop-color:#000000;stop-opacity:0"/>
			<stop  offset="1" style="stop-color:#FFFFFF;stop-opacity:0.3"/>
		</linearGradient>
		<path class="st3" d="M315.8,194.2c0-5.7-2-7.7-7.5-7.7h-19c-5.5,0-7.5,2-7.5,7.7v39.5h-34v-39.5c0-5.7-1.8-7.7-7.5-7.7h-18.8
			c-5.7,0-7.7,2-7.7,7.7v56.1h102.1v-56.1H315.8z"/>
	</g>
	<g>
		
			<linearGradient id="SVGID_3_" gradientUnits="userSpaceOnUse" x1="189.05" y1="251.076" x2="189.05" y2="314.676" gradientTransform="matrix(1 0 0 -1 0 501.276)">
			<stop  offset="0" style="stop-color:#000000;stop-opacity:0"/>
			<stop  offset="1" style="stop-color:#FFFFFF;stop-opacity:0.3"/>
		</linearGradient>
		<rect x="180.8" y="186.6" class="st4" width="16.5" height="63.6"/>
	</g>
	<g>
		<path class="st1" d="M107.8,219.1c-20.8,0-37.6,16.9-37.6,37.6c0,20.8,16.9,37.6,37.6,37.6s37.6-16.9,37.6-37.6
			C145.4,235.9,128.6,219.1,107.8,219.1z M122.2,258.5L104,276.7c-1.3,1.3-2.2,1.3-3.6,0l0.1-39.9c1.3-1.3,2.2-1.3,3.5,0.1
			l18.1,18.1C123.5,256.3,123.4,257.2,122.2,258.5z"/>
		<path class="st1" d="M151.2,227.4c-4.4-5.1-10.7-9.9-13.6-12.6c-2.6-2.5-5.5-6.2-5.5-9.7c-3.5-1.5-7.4-2.9-11.6-3.9
			c3.4-7.2,10-28.2-11.7-54.9c0,0,2.3,6.1,2.3,20.1c0,12.1-12,27.1-19.5,35.2c4.4-8.1,5.1-23.1-11.6-37.6c0,0,5.3,5.3,5.3,19.2
			c0,11.1-21.9,28.5-30.8,53.2c-2,5.2-3.2,10.8-3.6,16.7c0,0.1,0,0.2,0,0.3c-0.1,1.1-0.1,2.1-0.1,3.2c0,31.5,25.5,57,57,57
			c30.8,0,55.8-24.3,57-54.8C164.8,245.3,154.6,230.8,151.2,227.4z M107.8,302.3c-25.2,0-45.6-20.4-45.6-45.6s20.4-45.6,45.6-45.6
			s45.6,20.4,45.6,45.6S133,302.3,107.8,302.3z"/>
		<path class="st1" d="M161.6,238.1c0,0-3.1-12.7-10.5-21.1c-7.4-8.4-6.8-19.2-6.8-19.2c0.1-4.5,3.8-8.4,8.4-8.4
			c4.6,0,8.4,3.8,8.4,8.4c0,0.7-0.1,1.4-0.3,2c1.2-2,2-4.4,2-7c0-7.4-6-13.5-13.5-13.5c-0.6,0-1.1,0-1.6,0.1
			c-10.9,1.1-13.4,13-13.4,16.5c0,7.1,2,11.2,15.5,24.6C155.5,226.2,157.7,229.1,161.6,238.1z"/>
	</g>
	<g>
		<g>
			<g>
				<defs>
					<path id="SVGID_4_" d="M107.7,219.1c-20.8,0-37.6,16.9-37.6,37.6c0,20.8,16.8,37.6,37.6,37.6s37.6-16.9,37.6-37.6
						C145.4,235.9,128.5,219.1,107.7,219.1z M122.1,258.5l-18.2,18.2c-1.3,1.3-2.2,1.3-3.5,0l0.1-39.9c1.3-1.3,2.2-1.3,3.5,0.1
						l18.1,18.1C123.4,256.3,123.4,257.2,122.1,258.5z"/>
				</defs>
				<clipPath id="SVGID_5_">
					<use xlink:href="#SVGID_4_"  style="overflow:visible;"/>
				</clipPath>
				
					<radialGradient id="SVGID_6_" cx="75.2" cy="287.676" r="77.9" gradientTransform="matrix(1 0 0 -1 0 501.276)" gradientUnits="userSpaceOnUse">
					<stop  offset="0.2562" style="stop-color:#FFFFFF;stop-opacity:0.3"/>
					<stop  offset="0.8966" style="stop-color:#000000;stop-opacity:0"/>
				</radialGradient>
				<path class="st5" d="M153.1,213.6c0-43-34.9-77.9-77.9-77.9s-77.9,34.9-77.9,77.9s34.9,77.9,77.9,77.9S153.1,256.6,153.1,213.6z
					"/>
			</g>
		</g>
		<g>
			<g>
				<defs>
					<path id="SVGID_7_" d="M151.1,227.4c-4.4-5.1-10.7-9.9-13.6-12.6c-2.6-2.5-5.5-6.2-5.5-9.7c-3.5-1.5-7.4-2.9-11.6-3.9
						c3.4-7.2,10-28.2-11.7-54.9c0,0,2.3,6.1,2.3,20.1c0,12.1-12,27.1-19.6,35.2c4.4-8.1,5.1-23.1-11.6-37.6c0,0,5.3,5.3,5.3,19.2
						c0,11.1-21.9,28.5-30.8,53.2c-2,5.2-3.2,10.8-3.6,16.7c0,0.1,0,0.2,0,0.3c-0.1,1.1-0.1,2.1-0.1,3.2c0,31.5,25.5,57,57,57
						c30.7,0,55.8-24.3,57-54.8C164.7,245.3,154.6,230.8,151.1,227.4z M107.7,302.3c-25.2,0-45.6-20.4-45.6-45.6
						s20.4-45.6,45.6-45.6s45.6,20.4,45.6,45.6C153.4,281.9,132.9,302.3,107.7,302.3z"/>
				</defs>
				<clipPath id="SVGID_8_">
					<use xlink:href="#SVGID_7_"  style="overflow:visible;"/>
				</clipPath>
				
					<radialGradient id="SVGID_9_" cx="75.2" cy="287.676" r="77.9" gradientTransform="matrix(1 0 0 -1 0 501.276)" gradientUnits="userSpaceOnUse">
					<stop  offset="0.2562" style="stop-color:#FFFFFF;stop-opacity:0.3"/>
					<stop  offset="0.8966" style="stop-color:#000000;stop-opacity:0"/>
				</radialGradient>
				<path class="st6" d="M153.1,213.6c0-43-34.9-77.9-77.9-77.9s-77.9,34.9-77.9,77.9s34.9,77.9,77.9,77.9S153.1,256.6,153.1,213.6z
					"/>
			</g>
		</g>
		<g>
			<g>
				<defs>
					<path id="SVGID_10_" d="M161.6,238.1c0,0-3.1-12.7-10.5-21.1c-7.4-8.4-6.8-19.2-6.8-19.2c0.1-4.5,3.8-8.4,8.4-8.4
						c4.6,0,8.4,3.8,8.4,8.4c0,0.7-0.1,1.4-0.3,2c1.3-2,2-4.4,2-7c0-7.4-6-13.5-13.5-13.5c-0.6,0-1.1,0-1.6,0.1
						c-10.9,1.1-13.4,13-13.4,16.5c0,7.1,1.9,11.2,15.5,24.6C155.4,226.2,157.7,229.1,161.6,238.1z"/>
				</defs>
				<clipPath id="SVGID_11_">
					<use xlink:href="#SVGID_10_"  style="overflow:visible;"/>
				</clipPath>
				
					<radialGradient id="SVGID_12_" cx="75.2" cy="287.676" r="77.9" gradientTransform="matrix(1 0 0 -1 0 501.276)" gradientUnits="userSpaceOnUse">
					<stop  offset="0.2562" style="stop-color:#FFFFFF;stop-opacity:0.3"/>
					<stop  offset="0.8966" style="stop-color:#000000;stop-opacity:0"/>
				</radialGradient>
				<path class="st7" d="M153.1,213.6c0-43-34.9-77.9-77.9-77.9s-77.9,34.9-77.9,77.9s34.9,77.9,77.9,77.9S153.1,256.6,153.1,213.6z
					"/>
			</g>
		</g>
	</g>
</g>
</svg>
