<?xml version="1.0" encoding="utf-8"?>
<!-- Generator: Adobe Illustrator 22.0.1, SVG Export Plug-In . SVG Version: 6.00 Build 0)  -->
<svg version="1.1" id="Camada_1" xmlns="http://www.w3.org/2000/svg" xmlns:xlink="http://www.w3.org/1999/xlink" x="0px" y="0px"
	 viewBox="0 0 1920 1312" style="enable-background:new 0 0 1920 1312;" xml:space="preserve">
<style type="text/css">
	.st0{fill:#E02B38;}
	.st1{fill:#FFFFFF;}
	.st2{fill:url(#SVGID_1_);}
	.st3{fill:#87B81C;}
	.st4{fill:#E02F32;}
	.st5{clip-path:url(#SVGID_3_);fill:url(#SVGID_4_);}
	.st6{fill:url(#SVGID_5_);}
	.st7{fill:url(#SVGID_6_);}
	.st8{fill:url(#SVGID_7_);}
	.st9{fill:url(#SVGID_8_);}
	.st10{fill:url(#SVGID_9_);}
	.st11{fill:url(#SVGID_10_);}
</style>
<g id="HOTv">
	<path class="st0" d="M954,581.9h-21.9c-6.4,0-8.6,2.3-8.6,8.9v45.5h-39.2v-45.5c0-6.6-2.1-8.9-8.7-8.9h-21.7
		c-6.6,0-8.9,2.3-8.9,8.9v129c0,6.4,2.3,8.6,8.9,8.6h21.7c6.6,0,8.7-2.3,8.7-8.6v-47.4h39.2v47.4c0,6.4,2.3,8.6,8.6,8.6H954
		c6.4,0,8.6-2.3,8.6-8.6v-129C962.6,584.2,960.4,581.9,954,581.9z"/>
	<path class="st0" d="M1041.2,579c-40.8,0-58.8,22-58.8,57.7v37.1c0,35.7,18,57.7,58.8,57.7c40.6,0,58.4-20.2,58.4-55.8v-37.1
		C1099.6,602.8,1081.8,579,1041.2,579z M1060.7,677.4c0,13-5.3,18-19.6,18c-14.4,0-19.6-6.8-19.6-19.8v-40.8
		c0-13,5.2-19.8,19.6-19.8c14.2,0,19.6,8.6,19.6,21.6V677.4z"/>
	<path class="st0" d="M1222.2,609.3v-18.5c0-6.4-2.3-8.6-8.9-8.6h-100.1c-6.6,0-8.7,2.3-8.7,8.6v18.5c0,6.6,2,8.9,8.7,8.9h30.5
		v101.6c0,6.4,2,8.6,8.6,8.6h21.7c6.6,0,8.9-2.3,8.9-8.6V618.1h30.3C1220,618.1,1222.2,615.9,1222.2,609.3z"/>
	<path class="st1" d="M1280.5,640.5h-13.9c-6,0-7.9,1.4-8.9,5.2l-8.7,30c-2.1,7.3-6.1,27.6-6.1,27.6s-3.7-20.3-5.7-27.6l-8.6-30
		c-1-3.8-3-5.2-9.2-5.2h-13.3c-3.7,0-4.8,1.7-3.6,5.1l27.3,78.7c1.1,3.2,2.8,4.1,6.4,4.1h14c3.6,0,5.2-0.7,6.4-4.3l27.2-78.5
		C1285,642.2,1284.2,640.5,1280.5,640.5z"/>
	<rect x="796.3" y="581.9" class="st1" width="19" height="146.5"/>
	<path class="st1" d="M708.5,591.5h-31.3c-35.6,0-57.7,18-57.7,58.8c0,40.6,22,58.4,57.7,58.4h31.3c35.6,0,57.7-17.9,57.7-58.4
		C766.2,609.6,744.2,591.5,708.5,591.5z M692.9,704.6c-3.2,0-5.8-2.6-5.8-5.8s2.6-5.8,5.8-5.8s5.8,2.6,5.8,5.8
		S696.1,704.6,692.9,704.6z M725,689.4h-68.3c-13,0-18-24.8-18-39c0-14.4,6.8-39.4,19.8-39.4h68.3c13,0,19.8,25,19.8,39.4
		C746.6,664.6,738,689.4,725,689.4z"/>
	<rect x="648.6" y="718.4" class="st1" width="88.6" height="10.1"/>
	
		<linearGradient id="SVGID_1_" gradientUnits="userSpaceOnUse" x1="692.95" y1="652.376" x2="692.95" y2="719.676" gradientTransform="matrix(1 0 0 -1 0 1311.276)">
		<stop  offset="0" style="stop-color:#000000;stop-opacity:0"/>
		<stop  offset="1" style="stop-color:#FFFFFF;stop-opacity:0.3"/>
	</linearGradient>
	<path class="st2" d="M638.7,650.4c0-14.4,6.8-39.4,19.8-39.4h68.3c13,0,19.8,25,19.8,39.4c0,2.6-0.3,5.5-0.8,8.5h20.1
		c0.2-2.7,0.4-5.5,0.4-8.5c0-40.8-22-58.8-57.7-58.8h-31.3c-35.6,0-57.7,18-57.7,58.8c0,3,0.1,5.8,0.4,8.5h19.3
		C638.9,655.8,638.7,652.9,638.7,650.4z"/>
	<g>
		<path class="st3" d="M714.1,622.8c0,0,0.8-0.4,1.9-0.4c1,0,4.3,0.9,4.3,4.2s2.9,4.4,4.3,4.4c0,0-5.7,6.6-12.3,0
			c0,0,4.3-0.5,4.3-4.3C716.5,623.9,714.1,622.8,714.1,622.8z"/>
		<path class="st4" d="M712.3,632.2c-1.4,1.4-2.6,4-2.6,6.5c-0.1,8.1-3.3,16.3-9.5,22.5c-11.9,11.8-30.6,12.6-43.3,2.3
			c0.8,0.9,1.6,1.9,2.5,2.8c15.5,15.5,40.6,15.5,56,0c8-8,11.8-18.5,11.6-28.9c-0.2-1.9-1-3.8-2.5-5.2c-1.7-1.7-4-0.7-6.2-0.7
			C716.2,631.5,714,630.5,712.3,632.2z"/>
		<g>
			<g>
				<defs>
					<path id="SVGID_2_" d="M712.3,632.2c-1.4,1.4-2.6,4-2.6,6.5c-0.1,8.1-3.3,16.3-9.5,22.5c-11.9,11.8-30.6,12.6-43.3,2.3
						c0.8,0.9,1.6,1.9,2.5,2.8c15.5,15.5,40.6,15.5,56,0c8-8,11.8-18.5,11.6-28.9c-0.2-1.9-1-3.8-2.5-5.2c-1.7-1.7-4-0.7-6.2-0.7
						C716.2,631.5,714,630.5,712.3,632.2z"/>
				</defs>
				<clipPath id="SVGID_3_">
					<use xlink:href="#SVGID_2_"  style="overflow:visible;"/>
				</clipPath>
				
					<radialGradient id="SVGID_4_" cx="687.3" cy="673.076" r="39.7" gradientTransform="matrix(1 0 0 -1 0 1311.276)" gradientUnits="userSpaceOnUse">
					<stop  offset="0.2562" style="stop-color:#FFFFFF;stop-opacity:0.3"/>
					<stop  offset="0.8966" style="stop-color:#000000;stop-opacity:0"/>
				</radialGradient>
				<path class="st5" d="M727,638.2c0-21.9-17.8-39.7-39.7-39.7s-39.7,17.8-39.7,39.7s17.8,39.7,39.7,39.7
					C709.3,677.9,727,660.2,727,638.2z"/>
			</g>
		</g>
	</g>
	<g>
		
			<linearGradient id="SVGID_5_" gradientUnits="userSpaceOnUse" x1="805.8" y1="656.176" x2="805.8" y2="729.376" gradientTransform="matrix(1 0 0 -1 0 1311.276)">
			<stop  offset="0" style="stop-color:#000000;stop-opacity:0"/>
			<stop  offset="1" style="stop-color:#FFFFFF;stop-opacity:0.3"/>
		</linearGradient>
		<rect x="796.3" y="581.9" class="st6" width="19" height="73.2"/>
	</g>
	<g>
		
			<linearGradient id="SVGID_6_" gradientUnits="userSpaceOnUse" x1="903.7999" y1="656.076" x2="903.7999" y2="729.476" gradientTransform="matrix(1 0 0 -1 0 1311.276)">
			<stop  offset="0" style="stop-color:#000000;stop-opacity:0"/>
			<stop  offset="1" style="stop-color:#FFFFFF;stop-opacity:0.3"/>
		</linearGradient>
		<path class="st7" d="M962.6,590.7c0-6.6-2.3-8.9-8.6-8.9h-21.9c-6.4,0-8.6,2.3-8.6,8.9v45.5h-39.2v-45.5c0-6.6-2.1-8.9-8.7-8.9
			h-21.7c-6.6,0-8.9,2.3-8.9,8.9v64.5h117.6L962.6,590.7L962.6,590.7z"/>
		
			<linearGradient id="SVGID_7_" gradientUnits="userSpaceOnUse" x1="1041" y1="656.074" x2="1041" y2="732.274" gradientTransform="matrix(1 0 0 -1 0 1311.276)">
			<stop  offset="0" style="stop-color:#000000;stop-opacity:0"/>
			<stop  offset="1" style="stop-color:#FFFFFF;stop-opacity:0.3"/>
		</linearGradient>
		<path class="st8" d="M1021.5,634.8c0-13,5.2-19.8,19.6-19.8c14.2,0,19.6,8.6,19.6,21.6v18.5h38.9v-16.7
			c0-35.7-17.8-59.5-58.4-59.5c-40.8,0-58.8,22-58.8,57.7v18.5h39.2L1021.5,634.8L1021.5,634.8z"/>
		
			<linearGradient id="SVGID_8_" gradientUnits="userSpaceOnUse" x1="1163.4" y1="656.076" x2="1163.4" y2="729.176" gradientTransform="matrix(1 0 0 -1 0 1311.276)">
			<stop  offset="0" style="stop-color:#000000;stop-opacity:0"/>
			<stop  offset="1" style="stop-color:#FFFFFF;stop-opacity:0.3"/>
		</linearGradient>
		<path class="st9" d="M1213.4,582.1h-100.1c-6.6,0-8.7,2.3-8.7,8.6v18.5c0,6.6,2,8.9,8.7,8.9h30.5v37.1h39.2v-37.1h30.3
			c6.6,0,8.9-2.3,8.9-8.9v-18.5C1222.2,584.3,1220,582.1,1213.4,582.1z"/>
	</g>
	<g>
		
			<linearGradient id="SVGID_9_" gradientUnits="userSpaceOnUse" x1="1265.6309" y1="626.876" x2="1265.6309" y2="670.8099" gradientTransform="matrix(1 0 0 -1 0 1311.276)">
			<stop  offset="0" style="stop-color:#000000;stop-opacity:0"/>
			<stop  offset="1" style="stop-color:#FFFFFF;stop-opacity:0.3"/>
		</linearGradient>
		<path class="st10" d="M1283.8,645.5c1.3-3.4,0.4-5.1-3.3-5.1h-13.9c-6,0-7.9,1.4-8.9,5.2l-8.7,30c-0.6,2.1-1.4,5.3-2.1,8.8h23.4
			L1283.8,645.5z"/>
		
			<linearGradient id="SVGID_10_" gradientUnits="userSpaceOnUse" x1="1220.7679" y1="626.876" x2="1220.7679" y2="670.8099" gradientTransform="matrix(1 0 0 -1 0 1311.276)">
			<stop  offset="0" style="stop-color:#000000;stop-opacity:0"/>
			<stop  offset="1" style="stop-color:#FFFFFF;stop-opacity:0.3"/>
		</linearGradient>
		<path class="st11" d="M1237.3,675.6l-8.6-30c-1-3.8-3-5.2-9.2-5.2h-13.3c-3.7,0-4.8,1.7-3.6,5.1l13.5,38.9h23.3
			C1238.6,680.9,1237.8,677.7,1237.3,675.6z"/>
	</g>
</g>
</svg>
