<?xml version="1.0" encoding="utf-8"?>
<!-- Generator: Adobe Illustrator 22.0.1, SVG Export Plug-In . SVG Version: 6.00 Build 0)  -->
<svg version="1.1" id="Camada_1" xmlns="http://www.w3.org/2000/svg" xmlns:xlink="http://www.w3.org/1999/xlink" x="0px" y="0px"
	 viewBox="0 0 500 500" style="enable-background:new 0 0 500 500;" xml:space="preserve">
<style type="text/css">
	.st0{fill:url(#SVGID_1_);}
	.st1{fill:#FFFFFF;}
	.st2{fill:#E02F32;}
	.st3{fill:#87B81C;}
	.st4{clip-path:url(#SVGID_3_);fill:url(#SVGID_4_);}
	.st5{fill:url(#SVGID_5_);}
	.st6{fill:url(#SVGID_6_);}
	.st7{fill:url(#SVGID_7_);}
	.st8{fill:url(#SVGID_8_);}
	.st9{fill:url(#SVGID_9_);}
</style>
<g id="HOTv_Abrev_W">
	
		<linearGradient id="SVGID_1_" gradientUnits="userSpaceOnUse" x1="108" y1="251.5154" x2="108" y2="304.1154" gradientTransform="matrix(1 0 0 -1 0 501.276)">
		<stop  offset="0" style="stop-color:#000000;stop-opacity:0"/>
		<stop  offset="1" style="stop-color:#FFFFFF;stop-opacity:0.3"/>
	</linearGradient>
	<path class="st0" d="M65.7,243.1c0-11.3,5.3-30.8,15.5-30.8h53.4c10.1,0,15.5,19.5,15.5,30.8c0,2-0.2,4.3-0.6,6.6H165
		c0.2-2.1,0.3-4.3,0.3-6.6c0-31.9-17.2-46-45.1-46H95.8c-27.8,0-45.1,14.1-45.1,46c0,2.3,0.1,4.5,0.3,6.6h15.1
		C65.8,247.4,65.7,245.1,65.7,243.1z"/>
	<g>
		<path class="st1" d="M120.2,197.2H95.8c-27.8,0-45.1,14.1-45.1,46c0,31.7,17.2,45.7,45.1,45.7h24.5c27.8,0,45.1-14,45.1-45.7
			C165.3,211.3,148.1,197.2,120.2,197.2z M108,285.5c-2.5,0-4.5-2-4.5-4.6c0-2.5,2-4.5,4.5-4.5s4.5,2,4.5,4.5
			C112.5,283.5,110.5,285.5,108,285.5z M133.1,273.6H79.7c-10.1,0-14-19.4-14-30.5c0-11.3,5.3-30.8,15.5-30.8h53.4
			c10.2,0,15.5,19.5,15.5,30.8C150,254.2,143.3,273.6,133.1,273.6z"/>
		<rect x="73.4" y="296.3" class="st1" width="69.2" height="7.9"/>
		<path class="st2" d="M315.3,194.5v16.2c0,5.8-2,7.7-7.7,7.7h-26.5V307c0,5.6-2,7.5-7.7,7.5h-18.9c-5.8,0-7.5-2-7.5-7.5v-88.6
			h-26.6c-5.8,0-7.5-2-7.5-7.7v-16.2c0-5.6,1.8-7.5,7.5-7.5h87.3C313.4,186.9,315.3,188.9,315.3,194.5z"/>
		<g>
			<path class="st1" d="M355.2,242.2l-23.7,68.5c-1.1,3.1-2.5,3.7-5.6,3.7h-12.2c-3.1,0-4.6-0.8-5.6-3.5l-23.8-68.7
				c-1.1-2.9-0.1-4.4,3.1-4.4H299c5.5,0,7.2,1.2,8.1,4.5l7.5,26.1c1.7,6.4,5,24.1,5,24.1l0,0c0,0,3.5-17.7,5.3-24.1l7.5-26.1
				c0.9-3.3,2.5-4.5,7.7-4.5h12.1C355.5,237.8,356.3,239.3,355.2,242.2z"/>
		</g>
		<rect x="180.7" y="186.7" class="st1" width="16.5" height="127.7"/>
	</g>
	<g>
		<path class="st3" d="M124.6,221.6c0,0,0.7-0.3,1.5-0.3s3.4,0.7,3.4,3.3s2.2,3.4,3.4,3.4c0,0-4.5,5.1-9.6,0c0,0,3.4-0.4,3.4-3.4
			C126.5,222.5,124.6,221.6,124.6,221.6z"/>
		<path class="st2" d="M123.2,228.9c-1.1,1.1-2,3.1-2,5.1c-0.1,6.4-2.6,12.7-7.4,17.6c-9.3,9.3-23.9,9.9-33.9,1.8
			c0.6,0.7,1.3,1.5,2,2.2c12.1,12.1,31.7,12.1,43.8,0c6.2-6.2,9.2-14.4,9.1-22.6c-0.1-1.5-0.8-2.9-1.9-4.1c-1.3-1.3-3.1-0.5-4.8-0.5
			C126.2,228.4,124.5,227.6,123.2,228.9z"/>
		<g>
			<g>
				<defs>
					<path id="SVGID_2_" d="M123.2,228.9c-1.1,1.1-2,3.1-2,5.1c-0.1,6.4-2.6,12.7-7.4,17.6c-9.3,9.3-23.9,9.9-33.9,1.8
						c0.6,0.7,1.3,1.5,2,2.2c12.1,12.1,31.7,12.1,43.8,0c6.2-6.2,9.2-14.4,9.1-22.6c-0.1-1.5-0.8-2.9-1.9-4.1
						c-1.3-1.3-3.1-0.5-4.8-0.5C126.2,228.4,124.5,227.6,123.2,228.9z"/>
				</defs>
				<clipPath id="SVGID_3_">
					<use xlink:href="#SVGID_2_"  style="overflow:visible;"/>
				</clipPath>
				
					<radialGradient id="SVGID_4_" cx="103.7" cy="267.576" r="31" gradientTransform="matrix(1 0 0 -1 0 501.276)" gradientUnits="userSpaceOnUse">
					<stop  offset="0.2562" style="stop-color:#FFFFFF;stop-opacity:0.3"/>
					<stop  offset="0.8966" style="stop-color:#000000;stop-opacity:0"/>
				</radialGradient>
				<path class="st4" d="M134.7,233.7c0-17.1-13.9-31-31-31s-31,13.9-31,31s13.9,31,31,31S134.7,250.8,134.7,233.7z"/>
			</g>
		</g>
	</g>
	<g>
		
			<linearGradient id="SVGID_5_" gradientUnits="userSpaceOnUse" x1="188.95" y1="250.576" x2="188.95" y2="314.476" gradientTransform="matrix(1 0 0 -1 0 501.276)">
			<stop  offset="0" style="stop-color:#000000;stop-opacity:0"/>
			<stop  offset="1" style="stop-color:#FFFFFF;stop-opacity:0.3"/>
		</linearGradient>
		<rect x="180.7" y="186.8" class="st5" width="16.5" height="63.9"/>
	</g>
	<g>
		
			<linearGradient id="SVGID_6_" gradientUnits="userSpaceOnUse" x1="264.1" y1="250.5898" x2="264.1" y2="314.2898" gradientTransform="matrix(1 0 0 -1 0 501.276)">
			<stop  offset="0" style="stop-color:#000000;stop-opacity:0"/>
			<stop  offset="1" style="stop-color:#FFFFFF;stop-opacity:0.3"/>
		</linearGradient>
		<path class="st6" d="M307.6,186.9h-87.3c-5.8,0-7.5,2-7.5,7.5v16.2c0,5.8,1.8,7.7,7.5,7.7H247v32.3h34.2v-32.3h26.5
			c5.7,0,7.7-2,7.7-7.7v-16.2C315.3,188.9,313.4,186.9,307.6,186.9z"/>
	</g>
	<g>
		
			<linearGradient id="SVGID_7_" gradientUnits="userSpaceOnUse" x1="339.3917" y1="225.176" x2="339.3917" y2="263.476" gradientTransform="matrix(1 0 0 -1 0 501.276)">
			<stop  offset="0" style="stop-color:#000000;stop-opacity:0"/>
			<stop  offset="1" style="stop-color:#FFFFFF;stop-opacity:0.3"/>
		</linearGradient>
		<path class="st7" d="M355.2,242.2c1.1-2.9,0.4-4.4-2.9-4.4h-12.1c-5.2,0-6.9,1.2-7.7,4.5l-7.5,26.1c-0.5,1.8-1.2,4.6-1.9,7.7h20.4
			L355.2,242.2z"/>
		
			<linearGradient id="SVGID_8_" gradientUnits="userSpaceOnUse" x1="300.1348" y1="225.1396" x2="300.1348" y2="263.4396" gradientTransform="matrix(1 0 0 -1 0 501.276)">
			<stop  offset="0" style="stop-color:#000000;stop-opacity:0"/>
			<stop  offset="1" style="stop-color:#FFFFFF;stop-opacity:0.3"/>
		</linearGradient>
		<path class="st8" d="M314.6,268.5l-7.5-26.1c-0.9-3.3-2.6-4.5-8.1-4.5h-11.6c-3.2,0-4.2,1.5-3.1,4.4l11.8,33.9h20.3
			C315.8,273.1,315.1,270.3,314.6,268.5z"/>
	</g>
	
		<linearGradient id="SVGID_9_" gradientUnits="userSpaceOnUse" x1="108" y1="251.5154" x2="108" y2="304.1154" gradientTransform="matrix(1 0 0 -1 0 501.276)">
		<stop  offset="0" style="stop-color:#000000;stop-opacity:0"/>
		<stop  offset="1" style="stop-color:#FFFFFF;stop-opacity:0.3"/>
	</linearGradient>
	<path class="st9" d="M65.7,243.1c0-11.3,5.3-30.8,15.5-30.8h53.4c10.1,0,15.5,19.5,15.5,30.8c0,2-0.2,4.3-0.6,6.6H165
		c0.2-2.1,0.3-4.3,0.3-6.6c0-31.9-17.2-46-45.1-46H95.8c-27.8,0-45.1,14.1-45.1,46c0,2.3,0.1,4.5,0.3,6.6h15.1
		C65.8,247.4,65.7,245.1,65.7,243.1z"/>
</g>
</svg>
