<?xml version="1.0" encoding="utf-8"?>
<!-- Generator: Adobe Illustrator 22.0.1, SVG Export Plug-In . SVG Version: 6.00 Build 0)  -->
<svg version="1.1" id="Camada_1" xmlns="http://www.w3.org/2000/svg" xmlns:xlink="http://www.w3.org/1999/xlink" x="0px" y="0px"
	 viewBox="0 0 500 500" style="enable-background:new 0 0 500 500;" xml:space="preserve">
<style type="text/css">
	.st0{fill:url(#SVGID_1_);}
	.st1{fill:#FFFFFF;}
	.st2{fill:#87B81C;}
	.st3{fill:#E02F32;}
	.st4{clip-path:url(#SVGID_3_);fill:url(#SVGID_4_);}
	.st5{fill:url(#SVGID_5_);}
	.st6{fill:url(#SVGID_6_);}
</style>
<g id="Camada_1_1_">
</g>
<g id="HOTv_Icon_Tag_White">
	
		<linearGradient id="SVGID_1_" gradientUnits="userSpaceOnUse" x1="249.9" y1="244.676" x2="249.9" y2="382.676" gradientTransform="matrix(1 0 0 -1 0 501.276)">
		<stop  offset="0" style="stop-color:#000000;stop-opacity:0"/>
		<stop  offset="1" style="stop-color:#FFFFFF;stop-opacity:0.3"/>
	</linearGradient>
	<path class="st0" d="M138.9,239.2c0-29.6,14-80.8,40.6-80.8h140.1c26.6,0,40.6,51.2,40.6,80.8c0,5.2-0.6,11.2-1.7,17.4h41.1
		c0.5-5.6,0.7-11.3,0.7-17.4c0-83.7-45.2-120.6-118.4-120.6h-64.2c-73,0-118.2,36.9-118.2,120.6c0,6,0.3,11.8,0.8,17.4H140
		C139.3,250.4,138.9,244.4,138.9,239.2z"/>
	<path class="st1" d="M282,118.6h-64.2c-73,0-118.2,36.9-118.2,120.6c0,83.2,45.1,119.8,118.2,119.8H282
		c73.1,0,118.4-36.6,118.4-119.8C400.4,155.5,355.2,118.6,282,118.6z M250,350.5c-6.6,0-11.9-5.3-11.9-12c0-6.5,5.3-11.9,11.9-11.9
		c6.6,0,11.9,5.3,11.9,11.9C261.9,345.2,256.6,350.5,250,350.5z M315.9,319.2H175.8c-26.6,0-36.9-50.8-36.9-80
		c0-29.6,14-80.8,40.6-80.8h140.1c26.6,0,40.6,51.2,40.6,80.8C360.2,268.4,342.6,319.2,315.9,319.2z"/>
	<rect x="159.2" y="378.8" class="st1" width="181.6" height="20.8"/>
	<g>
		<path class="st1" d="M411.1,98.8v300.3H450V98.8H411.1z M427.8,216.9c0-1.3,0.3-1.7,1.1-1.9l6.2-1.8c1.5-0.4,5.7-1.2,5.7-1.2
			s-4.2-0.8-5.7-1.3l-6.2-1.8c-0.8-0.2-1.1-0.6-1.1-1.9v-2.9c0-0.8,0.3-0.9,1-0.7l16.3,5.6c0.7,0.3,0.9,0.6,0.9,1.3v2.9
			c0,0.7-0.2,1.1-0.8,1.3l-16.3,5.7c-0.7,0.2-1,0-1-0.8v-2.5H427.8z M415.7,218.2c0-1.4,0.5-1.8,1.8-1.8h3.8c1.4,0,1.8,0.5,1.8,1.8
			v6.3h21c1.3,0,1.8,0.5,1.8,1.8v4.5c0,1.4-0.5,1.8-1.8,1.8h-21v6.3c0,1.4-0.5,1.8-1.8,1.8h-3.8c-1.3,0-1.8-0.4-1.8-1.8V218.2z
			 M446,276.4c0,1.3-0.5,1.8-1.8,1.8h-9.8v8.1h9.8c1.3,0,1.8,0.4,1.8,1.8v4.5c0,1.4-0.5,1.8-1.8,1.8h-26.7c-1.4,0-1.8-0.5-1.8-1.8
			v-4.5c0-1.4,0.5-1.8,1.8-1.8h9.4v-8.1h-9.4c-1.4,0-1.8-0.5-1.8-1.8v-4.5c0-1.3,0.5-1.8,1.8-1.8h26.7c1.3,0,1.8,0.5,1.8,1.8V276.4z
			 M434.7,266H427c-7.4,0-11.9-3.7-11.9-12.2c0-8.4,4.9-12.1,12.3-12.1h7.7c7.4,0,11.6,3.7,11.6,12.1
			C446.6,262.2,442.1,266,434.7,266z"/>
		<path class="st1" d="M435.4,249.7H427c-2.7,0-4.5,1.1-4.5,4.1c0,3,1.4,4.1,4.1,4.1h8.4c2.7,0,4.1-1.1,4.1-4.1
			C439.2,250.9,438.1,249.7,435.4,249.7z"/>
	</g>
	<g>
		<path class="st2" d="M293.4,182.8c0,0,1.7-0.9,3.8-0.9c2,0,8.8,1.8,8.8,8.6c0,6.7,5.9,9,8.8,9c0,0-11.8,13.4-25.3,0
			c0,0,8.8-1,8.8-8.8C298.5,185,293.4,182.8,293.4,182.8z"/>
		<path class="st3" d="M289.8,202c-2.9,2.9-5.3,8.2-5.3,13.4c-0.2,16.7-6.7,33.4-19.5,46.1c-24.3,24.3-62.7,25.9-88.8,4.7
			c1.6,1.9,3.3,3.9,5.2,5.7c31.7,31.8,83.2,31.8,114.9,0c16.3-16.3,24.3-37.9,23.8-59.3c-0.4-3.9-2.1-7.7-5.1-10.7
			c-3.5-3.5-8.1-1.4-12.7-1.4C297.8,200.6,293.2,198.5,289.8,202z"/>
		<g>
			<g>
				<defs>
					<path id="SVGID_2_" d="M289.8,202c-2.9,2.9-5.3,8.2-5.3,13.4c-0.2,16.7-6.7,33.4-19.5,46.1c-24.3,24.3-62.7,25.9-88.8,4.7
						c1.6,1.9,3.3,3.9,5.2,5.7c31.7,31.8,83.2,31.8,114.9,0c16.3-16.3,24.3-37.9,23.8-59.3c-0.4-3.9-2.1-7.7-5.1-10.7
						c-3.5-3.5-8.1-1.4-12.7-1.4C297.8,200.6,293.2,198.5,289.8,202z"/>
				</defs>
				<clipPath id="SVGID_3_">
					<use xlink:href="#SVGID_2_"  style="overflow:visible;"/>
				</clipPath>
				
					<radialGradient id="SVGID_4_" cx="238.6" cy="286.976" r="81.4" gradientTransform="matrix(1 0 0 -1 0 501.276)" gradientUnits="userSpaceOnUse">
					<stop  offset="0.2562" style="stop-color:#FFFFFF;stop-opacity:0.3"/>
					<stop  offset="0.8966" style="stop-color:#000000;stop-opacity:0"/>
				</radialGradient>
				<path class="st4" d="M320,214.3c0-44.9-36.4-81.4-81.4-81.4s-81.4,36.4-81.4,81.4s36.4,81.4,81.4,81.4
					C283.6,295.7,320,259.3,320,214.3z"/>
			</g>
		</g>
	</g>
	<g>
		
			<linearGradient id="SVGID_5_" gradientUnits="userSpaceOnUse" x1="430.55" y1="252.176" x2="430.55" y2="402.376" gradientTransform="matrix(1 0 0 -1 0 501.276)">
			<stop  offset="0" style="stop-color:#000000;stop-opacity:0"/>
			<stop  offset="1" style="stop-color:#FFFFFF;stop-opacity:0.3"/>
		</linearGradient>
		<rect x="411.1" y="98.9" class="st5" width="38.9" height="150.2"/>
	</g>
	
		<linearGradient id="SVGID_6_" gradientUnits="userSpaceOnUse" x1="249.9" y1="244.676" x2="249.9" y2="382.676" gradientTransform="matrix(1 0 0 -1 0 501.276)">
		<stop  offset="0" style="stop-color:#000000;stop-opacity:0"/>
		<stop  offset="1" style="stop-color:#FFFFFF;stop-opacity:0.3"/>
	</linearGradient>
	<path class="st6" d="M138.9,239.2c0-29.6,14-80.8,40.6-80.8h140.1c26.6,0,40.6,51.2,40.6,80.8c0,5.2-0.6,11.2-1.7,17.4h41.1
		c0.5-5.6,0.7-11.3,0.7-17.4c0-83.7-45.2-120.6-118.4-120.6h-64.2c-73,0-118.2,36.9-118.2,120.6c0,6,0.3,11.8,0.8,17.4H140
		C139.3,250.4,138.9,244.4,138.9,239.2z"/>
</g>
</svg>
