<?xml version="1.0" encoding="utf-8"?>
<!-- Generator: Adobe Illustrator 22.0.1, SVG Export Plug-In . SVG Version: 6.00 Build 0)  -->
<svg version="1.1" id="Camada_1" xmlns="http://www.w3.org/2000/svg" xmlns:xlink="http://www.w3.org/1999/xlink" x="0px" y="0px"
	 viewBox="0 0 500 500" style="enable-background:new 0 0 500 500;" xml:space="preserve">
<style type="text/css">
	.st0{fill:#87B81C;}
	.st1{fill:#E02F32;}
	.st2{fill:url(#SVGID_1_);}
</style>
<g id="Camada_1_1_">
	<g>
		<g>
			<path class="st0" d="M426.5,198.8h8.4c2.7,0,4.1-1.1,4.1-4s-1-4-3.7-4h-8.4c-2.7,0-4.4,1.1-4.4,4
				C422.4,197.8,423.8,198.8,426.5,198.8z"/>
			<path class="st0" d="M426.5,305.9h8.4c2.7,0,4.1-1.1,4.1-4s-1-4-3.7-4h-8.4c-2.7,0-4.4,1.1-4.4,4
				C422.4,304.9,423.8,305.9,426.5,305.9z"/>
			<path class="st0" d="M426.5,255.1h8.4c2.7,0,4.1-1.1,4.1-4s-1-4-3.7-4h-8.4c-2.7,0-4.4,1.1-4.4,4
				C422.4,254,423.8,255.1,426.5,255.1z"/>
			<path class="st0" d="M411.3,98.8v300.9h38.9V98.8H411.3z M415.9,158.3c0-1.4,0.5-1.8,1.8-1.8h3.8c1.3,0,1.8,0.5,1.8,1.8v6.2h20.9
				c1.3,0,1.8,0.5,1.8,1.8v4.5c0,1.4-0.5,1.8-1.8,1.8h-20.9v6.3c0,1.4-0.5,1.8-1.8,1.8h-3.8c-1.3,0-1.8-0.4-1.8-1.8V158.3z
				 M427.3,182.8h7.6c7.3,0,11.5,3.7,11.5,12c0,8.4-4.5,12.1-11.8,12.1H427c-7.3,0-11.9-3.7-11.9-12.1
				C415,186.5,419.9,182.8,427.3,182.8z M444.1,227c1.3,0,1.8,0.4,1.8,1.8v4.5c0,1.4-0.5,1.8-1.8,1.8h-26.5c-1.4,0-1.8-0.5-1.8-1.8
				v-4.5c0-1.3,0.5-1.8,1.8-1.8h9.4v-8.1h-9.4c-1.4,0-1.8-0.5-1.8-1.8v-4.5c0-1.3,0.5-1.8,1.8-1.8h26.5c1.3,0,1.8,0.5,1.8,1.8v4.5
				c0,1.3-0.5,1.8-1.8,1.8h-9.7v8.1H444.1z M427.3,239.1h7.6c7.3,0,11.5,3.7,11.5,12c0,8.4-4.5,12.1-11.8,12.1H427
				c-7.3,0-11.9-3.7-11.9-12.1C415,242.7,419.9,239.1,427.3,239.1z M445.8,268.1v17.5c0,1.4-0.5,1.8-1.8,1.8h-26.6
				c-1.3,0-1.8-0.5-1.8-1.8v-4.5c0-1.4,0.5-1.8,1.8-1.8h20.3v-11.2c0-1.3,0.4-1.8,1.8-1.8h4.5C445.3,266.3,445.8,266.8,445.8,268.1z
				 M427.3,289.9h7.6c7.3,0,11.5,3.7,11.5,12c0,8.4-4.5,12.1-11.8,12.1H427c-7.3,0-11.9-3.7-11.9-12.1
				C415,293.6,419.9,289.9,427.3,289.9z M439.9,341.8c-1.3,0.5-1.9,0.1-2.3-1.1l-1.4-4c-0.4-1.3-0.3-1.9,0.9-2.5
				c1.5-0.8,2.2-2.4,2.2-4.8c0-2.9-0.6-4.6-2.4-4.6c-1.7,0-2.1,2.2-2.5,5c-0.7,5-1.6,11.9-9.8,11.9c-5.6,0-9.5-4.5-9.5-12.6
				c0-6.3,1.9-9.9,6-11.9c1.2-0.6,1.9-0.3,2.4,1l1.8,4.3c0.5,1.1,0.3,1.6-0.9,2.3c-1.6,0.8-2.2,2.3-2.2,4.3c0,2.9,0.7,4,2.2,4
				c1.8,0,2.2-2.5,2.6-5.6c0.7-4.9,1.9-11.3,9.9-11.3c6.3,0,9.7,5.7,9.7,13.2C446.4,335.8,444.3,340.2,439.9,341.8z"/>
		</g>
	</g>
	<g>
		<path class="st1" d="M382,173c-5.3-0.1-7.2-3.1-11.3-3.6c-8.8-1.1-16.1,4.6-23.9,6.8c-6.8,5.4-11.6,13.5-12.7,23
			c-1.1,8.9,0.8,11.1-2.1,35.2c-9.6,82.2-117.4,87.1-150.9,82.8c-33.5-4.2-38.1,18.2-38.1,18.2s-0.6,7.2,5.9,1.9
			c20.4-16.6,66.9,10.9,75,14.2c49.5,19.6,109.3-10.1,121.9-19.3c43.4-31.4,51.9-110.2,52.5-115.2c0.6-5.1,1.1-9.5,1.1-9.5
			C401.2,193,393.9,179.5,382,173z"/>
		<path class="st0" d="M345.5,177.7c0,0-1-0.1-2.9-1.7c-1.9-1.6,4.4,0.5,11.7-3.2c0,0-0.5-5,0.3-11.1c1-6-5.4-18.9-7.9-23.3
			c-2.5-4.5-7.8-11.6-15.2-11.9c-3.5-0.1,1.7-6.9,12.4-6.5c2.4,0.1,7.3,6.7,10,9.7c2.7,2.9,14.9,25.8,14.8,30.6
			c0,0,5.2,4.6,8.2,10.1c0.4,1.1,1,1.6,2.7,1.6c1.6,0.1,4.1-1.3,4.1-1.3s1.1,0.3,1.3,1.3c0.3,1-0.6,1.9-1.3,2.4
			C383.6,174.4,362.9,171.5,345.5,177.7z"/>
	</g>
	<path class="st0" d="M301.3,168c-17.2,0-31.2,13.9-31.2,31.1c0,10.3,4.9,19.3,12.5,25L213,293.8h-55c-1.3-0.7-2.8-1.1-4.3-1.1
		c-4,0-7.4,2.5-8.7,6l-0.1-0.1l-44.5,44.6l11.5,11.5l44.5-44.5l-0.1-0.1c0,0,0.1,0,0.1-0.1v0.1h63l0,0l0.2,0.2l16.2-16.2h38.5h16.3
		v-16.2v-38.6l9.1-9.1c0.6,0,1.1,0.1,1.7,0.1c17.2,0,31.1-13.9,31.1-31.2C332.4,181.9,318.5,168,301.3,168z M274.2,277.9h-22.3
		l22.3-22.3V277.9z"/>
	<g>
		
			<linearGradient id="SVGID_1_" gradientUnits="userSpaceOnUse" x1="430.75" y1="251.976" x2="430.75" y2="402.476" gradientTransform="matrix(1 0 0 -1 0 501.276)">
			<stop  offset="0" style="stop-color:#000000;stop-opacity:0"/>
			<stop  offset="1" style="stop-color:#FFFFFF;stop-opacity:0.3"/>
		</linearGradient>
		<rect x="411.3" y="98.8" class="st2" width="38.9" height="150.5"/>
	</g>
</g>
</svg>
