<?xml version="1.0" encoding="utf-8"?>
<!-- Generator: Adobe Illustrator 22.0.1, SVG Export Plug-In . SVG Version: 6.00 Build 0)  -->
<svg version="1.1" id="Camada_1" xmlns="http://www.w3.org/2000/svg" xmlns:xlink="http://www.w3.org/1999/xlink" x="0px" y="0px"
	 viewBox="0 0 500 500" style="enable-background:new 0 0 500 500;" xml:space="preserve">
<style type="text/css">
	.st0{fill:#E02F32;}
	.st1{fill:#87B81C;}
	.st2{fill:url(#SVGID_1_);}
	.st3{fill:url(#SVGID_2_);}
	.st4{fill:url(#SVGID_3_);}
</style>
<g id="SH_Abrev">
	<g>
		<g>
			<path class="st0" d="M157.9,224.8c-2,0-2.7-1.2-4.3-1.4c-3.4-0.4-6.1,1.7-9.1,2.6c-2.6,2.1-4.4,5.1-4.8,8.8
				c-0.4,3.4,0.3,4.2-0.8,13.4c-3.7,31.3-44.7,33.2-57.4,31.5C68.7,278,67,286.6,67,286.6s-0.2,2.7,2.2,0.7
				c7.8-6.3,25.4,4.2,28.6,5.4c18.8,7.5,41.6-3.9,46.4-7.3c16.5-11.9,19.7-41.9,20-43.8c0.2-1.9,0.4-3.6,0.4-3.6
				C165.2,232.4,162.4,227.2,157.9,224.8z"/>
			<path class="st1" d="M144,226.5c0,0-0.4,0-1.1-0.6c-0.7-0.6,1.7,0.2,4.5-1.2c0,0-0.2-1.9,0.1-4.2c0.4-2.3-2-7.2-3-8.9
				s-3-4.4-5.8-4.5c-1.3,0,0.6-2.6,4.7-2.5c0.9,0,2.8,2.6,3.8,3.7c1,1.1,5.7,9.8,5.6,11.6c0,0,2,1.7,3.1,3.8c0.1,0.4,0.4,0.6,1,0.6
				c0.6,0.1,1.6-0.5,1.6-0.5s0.4,0.1,0.5,0.5s-0.2,0.7-0.5,0.9C158.5,225.3,150.6,224.2,144,226.5z"/>
		</g>
	</g>
	<path class="st0" d="M425.2,195.2v111c0,5.5-1.9,7.5-7.4,7.5H399c-5.5,0-7.4-1.9-7.4-7.5v-40.8h-33.7v40.8c0,5.5-1.8,7.5-7.4,7.5
		h-18.7c-5.7,0-7.6-1.9-7.6-7.5v-111c0-5.7,1.9-7.6,7.6-7.6h18.7c5.7,0,7.4,2,7.4,7.6v39.2h33.7v-39.2c0-5.7,2-7.6,7.4-7.6h18.8
		C423.2,187.6,425.2,189.5,425.2,195.2z"/>
	<path class="st1" d="M266.6,184c26.4,0,41.3,7.8,49.7,25c2.5,5.2,1.1,7.8-4.3,10l-17.8,7.7c-4.8,2.1-6.8,1.4-9.6-3.7
		c-3.4-6.8-9.8-9.3-18-9.3c-12.1,0-16.9,3-16.9,9.3c0,7.7,10.5,9.2,23.3,10.9c20.7,2.8,47.4,7.8,47.4,41.5
		c0,26.2-23.7,38.7-55.2,38.7c-26.5,0-45.1-7.2-51.9-25.7c-2-5.4-0.3-7.8,4.8-9.8l16.7-6.1c5.3-1.8,7.8-1.2,10.5,3.9
		c3.2,6.2,10.2,9.4,20.1,9.4c11.9,0,19.1-2.5,19.1-10.2c0-7-9.1-8.9-20.8-10.5c-20.9-2.9-50.1-6.6-50.1-41.1
		C213.7,200.4,232.6,184,266.6,184z"/>
	<rect x="181" y="186.8" class="st1" width="16.3" height="126.1"/>
	<path class="st1" d="M127.2,222.9c-6.6,0-11.9,5.3-11.9,11.8c0,3.9,1.9,7.3,4.8,9.5l-26.5,26.5H72.7c-0.5-0.3-1.1-0.4-1.7-0.4
		c-1.5,0-2.8,0.9-3.3,2.3l0,0l-16.9,17l4.4,4.4L72,276.9l0,0l0,0v0.1h24l0,0l0.1,0.1l6.1-6.2h14.7h6.2v-6.2V250l3.5-3.5
		c0.2,0,0.4,0,0.7,0c6.5,0,11.8-5.3,11.8-11.9C139.1,228.2,133.8,222.9,127.2,222.9z M116.9,264.7h-8.5l8.5-8.5V264.7z"/>
	
		<linearGradient id="SVGID_1_" gradientUnits="userSpaceOnUse" x1="374.7" y1="250.676" x2="374.7" y2="313.676" gradientTransform="matrix(1 0 0 -1 0 501.276)">
		<stop  offset="0" style="stop-color:#000000;stop-opacity:0"/>
		<stop  offset="1" style="stop-color:#FFFFFF;stop-opacity:0.3"/>
	</linearGradient>
	<path class="st2" d="M425.2,195.2c0-5.7-1.9-7.6-7.5-7.6h-18.8c-5.5,0-7.4,2-7.4,7.6v39.2h-33.7v-39.2c0-5.7-1.8-7.6-7.4-7.6h-18.7
		c-5.7,0-7.6,2-7.6,7.6v55.4h101.2L425.2,195.2L425.2,195.2z"/>
	
		<linearGradient id="SVGID_2_" gradientUnits="userSpaceOnUse" x1="265.589" y1="250.6851" x2="265.589" y2="317.1851" gradientTransform="matrix(1 0 0 -1 0 501.276)">
		<stop  offset="0" style="stop-color:#000000;stop-opacity:0"/>
		<stop  offset="1" style="stop-color:#FFFFFF;stop-opacity:0.3"/>
	</linearGradient>
	<path class="st3" d="M273,233.8c-12.8-1.6-23.3-3.2-23.3-10.9c0-6.2,4.8-9.3,16.9-9.3c8.2,0,14.6,2.5,18,9.3
		c2.8,5.2,4.8,5.9,9.6,3.7L312,219c5.3-2.1,6.8-4.8,4.3-10c-8.4-17.1-23.3-25-49.7-25c-34,0-52.9,16.4-52.9,39.9
		c0,12.4,3.7,20.8,9.5,26.6H313C303.6,238.6,287,235.7,273,233.8z"/>
	<g>
		
			<linearGradient id="SVGID_3_" gradientUnits="userSpaceOnUse" x1="189.15" y1="251.4036" x2="189.15" y2="314.4036" gradientTransform="matrix(1 0 0 -1 0 501.276)">
			<stop  offset="0" style="stop-color:#000000;stop-opacity:0"/>
			<stop  offset="1" style="stop-color:#FFFFFF;stop-opacity:0.3"/>
		</linearGradient>
		<rect x="181" y="186.8" class="st4" width="16.3" height="63"/>
	</g>
</g>
</svg>
