<?xml version="1.0" encoding="utf-8"?>
<!-- Generator: Adobe Illustrator 22.0.1, SVG Export Plug-In . SVG Version: 6.00 Build 0)  -->
<svg version="1.1" id="Camada_1" xmlns="http://www.w3.org/2000/svg" xmlns:xlink="http://www.w3.org/1999/xlink" x="0px" y="0px"
	 viewBox="0 0 1300 400" style="enable-background:new 0 0 1300 400;" xml:space="preserve">
<style type="text/css">
	.st0{fill:#E02F32;}
	.st1{fill:#87B81C;}
	.st2{fill:url(#SVGID_1_);}
	.st3{fill:url(#SVGID_2_);}
	.st4{fill:url(#SVGID_3_);}
	.st5{fill:url(#SVGID_4_);}
	.st6{fill:url(#SVGID_5_);}
	.st7{fill:url(#SVGID_6_);}
	.st8{fill:url(#SVGID_7_);}
	.st9{fill:url(#SVGID_8_);}
</style>
<g id="SoloHot">
	<path class="st0" d="M945.2,135.5V263c0,6.3-2.2,8.6-8.6,8.6H915c-6.3,0-8.6-2.2-8.6-8.6v-46.8h-38.8V263c0,6.3-2,8.6-8.6,8.6
		h-21.4c-6.5,0-8.8-2.2-8.8-8.6V135.5c0-6.5,2.2-8.8,8.8-8.8H859c6.5,0,8.6,2.3,8.6,8.8v45h38.8v-45c0-6.5,2.3-8.8,8.6-8.8h21.6
		C942.9,126.8,945.2,129,945.2,135.5z"/>
	<path class="st0" d="M1207,135.5v18.3c0,6.5-2.2,8.7-8.8,8.7h-30V263c0,6.3-2.3,8.6-8.8,8.6H1138c-6.5,0-8.6-2.2-8.6-8.6V162.6
		h-30.2c-6.5,0-8.6-2.2-8.6-8.7v-18.3c0-6.3,2-8.5,8.6-8.5h98.9C1204.7,127,1207,129.2,1207,135.5z"/>
	<path class="st1" d="M376.6,122.7c30.3,0,47.5,9,57.1,28.7c2.9,5.9,1.2,9-4.9,11.4l-20.5,8.8c-5.5,2.5-7.8,1.6-11-4.3
		c-3.9-7.8-11.3-10.6-20.7-10.6c-13.9,0-19.4,3.5-19.4,10.6c0,8.8,12.1,10.6,26.8,12.5c23.7,3.2,54.4,9,54.4,47.7
		c0,30.1-27.2,46.6-63.4,46.6c-30.5,0-51.8-10.4-59.6-31.7c-2.3-6.1-0.4-9,5.5-11.2l19.2-7c6.1-2,9-1.4,12.1,4.5
		c3.7,7.1,11.7,10.8,23.1,10.8c13.7,0,21.9-2.9,21.9-11.7c0-8-10.4-10.2-23.9-12.1c-24-3.3-57.5-7.6-57.5-47.2
		C315.8,141.5,337.5,122.7,376.6,122.7z"/>
	<path class="st1" d="M615.9,134.4v97.7H670c6.3,0,8.6,2,8.6,8.6v21.7c0,6.4-2.3,8.6-8.6,8.6h-84.1c-6.5,0-8.8-2.2-8.8-8.6v-128
		c0-6.3,2.3-8.6,8.8-8.6h21.4C613.9,125.8,615.9,128.1,615.9,134.4z"/>
	<rect x="267.7" y="125.9" class="st1" width="18.7" height="144.8"/>
	<path class="st1" d="M751.8,123c40.1,0,57.8,23.6,57.8,58.8v36.6c0,35.2-17.6,55.2-57.8,55.2c-40.3,0-58.1-21.8-58.1-57V180
		C693.7,144.8,711.5,123,751.8,123z M751.8,158.7c-14.3,0-19.4,6.7-19.4,19.5v40.3c0,12.8,5.1,19.6,19.4,19.6
		c14.1,0,19.3-4.9,19.3-17.8V180C771.2,167.2,765.9,158.7,751.8,158.7z"/>
	<path class="st1" d="M507.4,123c40.1,0,57.8,23.6,57.8,58.8v36.6c0,35.2-17.6,55.2-57.8,55.2c-40.3,0-58.1-21.8-58.1-57V180
		C449.3,144.8,467.1,123,507.4,123z M507.4,158.7c-14.3,0-19.4,6.7-19.4,19.5v40.3c0,12.8,5.1,19.6,19.4,19.6
		c14.1,0,19.4-4.9,19.4-17.8V180C526.8,167.2,521.5,158.7,507.4,158.7z"/>
	<path class="st0" d="M1022.6,123c40.1,0,57.8,23.6,57.8,58.8v36.6c0,35.2-17.6,55.2-57.8,55.2c-40.3,0-58.1-21.8-58.1-57V180
		C964.4,144.8,982.2,123,1022.6,123z M1022.6,158.7c-14.3,0-19.4,6.7-19.4,19.5v40.3c0,12.8,5.1,19.6,19.4,19.6
		c14.1,0,19.4-4.9,19.4-17.8V180C1041.9,167.2,1036.6,158.7,1022.6,158.7z"/>
	<g>
		<path class="st0" d="M228.6,161.6c-2.6-0.1-3.5-1.5-5.4-1.7c-4.3-0.5-7.7,2.2-11.5,3.3c-3.3,2.6-5.6,6.5-6.1,11.1
			c-0.5,4.3,0.4,5.4-1,16.9c-4.6,39.6-56.5,41.9-72.6,39.9s-18.3,8.8-18.3,8.8s-0.3,3.4,2.8,0.9c9.8-8,32.2,5.3,36.1,6.8
			c23.8,9.4,52.6-4.9,58.7-9.3c20.9-15.1,25-53,25.3-55.4c0.3-2.5,0.5-4.6,0.5-4.6C237.8,171.3,234.3,164.8,228.6,161.6z"/>
		<path class="st1" d="M211,163.9c0,0-0.5-0.1-1.4-0.8c-0.9-0.8,2.1,0.3,5.6-1.6c0,0-0.3-2.4,0.1-5.4c0.5-2.9-2.6-9.1-3.8-11.2
			c-1.2-2.2-3.8-5.6-7.3-5.7c-1.7-0.1,0.8-3.3,6-3.2c1.2,0.1,3.5,3.2,4.8,4.6c1.3,1.4,7.2,12.4,7.1,14.7c0,0,2.5,2.2,3.9,4.9
			c0.2,0.5,0.5,0.8,1.3,0.8c0.8,0.1,2-0.6,2-0.6s0.5,0.1,0.6,0.6s-0.3,0.9-0.6,1.2C229.3,162.3,219.4,160.9,211,163.9z"/>
	</g>
	<path class="st1" d="M189.7,159.3c-8.3,0-15,6.7-15,15c0,4.9,2.4,9.3,6,12l-33.5,33.5h-26.5c-0.6-0.3-1.3-0.5-2.1-0.5
		c-1.9,0-3.6,1.2-4.2,2.9l0,0L93,243.5l5.5,5.5l21.4-21.4l0,0l0,0v0.1h30.3l0,0l0.1,0.1l7.8-7.8h18.5h7.8v-7.8v-18.6l4.4-4.4
		c0.3,0,0.6,0,0.8,0c8.3,0,15-6.7,15-15C204.7,165.9,198,159.3,189.7,159.3z M176.7,212.1H166l10.7-10.7V212.1z"/>
	<g>
		
			<linearGradient id="SVGID_1_" gradientUnits="userSpaceOnUse" x1="886.9999" y1="-270.286" x2="886.9999" y2="-342.686" gradientTransform="matrix(1 0 0 1 0 469.386)">
			<stop  offset="0" style="stop-color:#000000;stop-opacity:0"/>
			<stop  offset="1" style="stop-color:#FFFFFF;stop-opacity:0.3"/>
		</linearGradient>
		<path class="st2" d="M945.2,135.5c0-6.5-2.2-8.8-8.6-8.8H915c-6.3,0-8.6,2.3-8.6,8.8v45h-38.8v-45c0-6.5-2-8.8-8.6-8.8h-21.4
			c-6.5,0-8.8,2.3-8.8,8.8v63.6h116.3L945.2,135.5L945.2,135.5z"/>
		
			<linearGradient id="SVGID_2_" gradientUnits="userSpaceOnUse" x1="1148.85" y1="-270.186" x2="1148.85" y2="-342.286" gradientTransform="matrix(1 0 0 1 0 469.386)">
			<stop  offset="0" style="stop-color:#000000;stop-opacity:0"/>
			<stop  offset="1" style="stop-color:#FFFFFF;stop-opacity:0.3"/>
		</linearGradient>
		<path class="st3" d="M1168.2,162.6h30c6.5,0,8.8-2.2,8.8-8.7v-18.3c0-6.3-2.2-8.5-8.8-8.5h-98.9c-6.5,0-8.6,2.2-8.6,8.5v18.3
			c0,6.5,2,8.7,8.6,8.7h30.2v36.6h38.8L1168.2,162.6L1168.2,162.6z"/>
		
			<linearGradient id="SVGID_3_" gradientUnits="userSpaceOnUse" x1="375.4388" y1="-270.186" x2="375.4388" y2="-346.686" gradientTransform="matrix(1 0 0 1 0 469.386)">
			<stop  offset="0" style="stop-color:#000000;stop-opacity:0"/>
			<stop  offset="1" style="stop-color:#FFFFFF;stop-opacity:0.3"/>
		</linearGradient>
		<path class="st4" d="M384,179.8c-14.7-1.9-26.8-3.7-26.8-12.5c0-7.2,5.5-10.6,19.4-10.6c9.4,0,16.8,2.9,20.7,10.6
			c3.3,5.9,5.5,6.8,11,4.3l20.5-8.8c6.1-2.5,7.8-5.5,4.9-11.4c-9.6-19.7-26.8-28.7-57.1-28.7c-39.1,0-60.8,18.8-60.8,45.9
			c0,14.2,4.3,23.9,10.9,30.6h103.1C419.1,185.4,400,182,384,179.8z"/>
		
			<linearGradient id="SVGID_4_" gradientUnits="userSpaceOnUse" x1="596.4501" y1="-270.2859" x2="596.4501" y2="-343.5859" gradientTransform="matrix(1 0 0 1 0 469.386)">
			<stop  offset="0" style="stop-color:#000000;stop-opacity:0"/>
			<stop  offset="1" style="stop-color:#FFFFFF;stop-opacity:0.3"/>
		</linearGradient>
		<path class="st5" d="M615.9,134.4c0-6.3-2-8.6-8.6-8.6h-21.5c-6.5,0-8.8,2.3-8.8,8.6v64.7h38.9L615.9,134.4L615.9,134.4z"/>
		
			<linearGradient id="SVGID_5_" gradientUnits="userSpaceOnUse" x1="751.5501" y1="-270.186" x2="751.5501" y2="-346.2859" gradientTransform="matrix(1 0 0 1 0 469.386)">
			<stop  offset="0" style="stop-color:#000000;stop-opacity:0"/>
			<stop  offset="1" style="stop-color:#FFFFFF;stop-opacity:0.3"/>
		</linearGradient>
		<path class="st6" d="M732.4,178.2c0-12.8,5.1-19.5,19.4-19.5c14.1,0,19.3,8.5,19.3,21.3v19.2h38.4v-17.3
			c0-35.3-17.6-58.8-57.8-58.8c-40.3,0-58.1,21.8-58.1,57v19.1h38.7L732.4,178.2L732.4,178.2z"/>
		
			<linearGradient id="SVGID_6_" gradientUnits="userSpaceOnUse" x1="507.3501" y1="-270.186" x2="507.3501" y2="-346.2859" gradientTransform="matrix(1 0 0 1 0 469.386)">
			<stop  offset="0" style="stop-color:#000000;stop-opacity:0"/>
			<stop  offset="1" style="stop-color:#FFFFFF;stop-opacity:0.3"/>
		</linearGradient>
		<path class="st7" d="M488.1,178.2c0-12.8,5.1-19.5,19.4-19.5c14.1,0,19.4,8.5,19.4,21.3v19.2h38.4v-17.3
			c0-35.3-17.6-58.8-57.8-58.8c-40.3,0-58.1,21.8-58.1,57v19.1h38.8v-21H488.1z"/>
		
			<linearGradient id="SVGID_7_" gradientUnits="userSpaceOnUse" x1="1022.45" y1="-270.186" x2="1022.45" y2="-346.2859" gradientTransform="matrix(1 0 0 1 0 469.386)">
			<stop  offset="0" style="stop-color:#000000;stop-opacity:0"/>
			<stop  offset="1" style="stop-color:#FFFFFF;stop-opacity:0.3"/>
		</linearGradient>
		<path class="st8" d="M1003.2,178.2c0-12.8,5.1-19.5,19.4-19.5c14.1,0,19.4,8.5,19.4,21.3v19.2h38.4v-17.3
			c0-35.3-17.6-58.8-57.8-58.8c-40.3,0-58.1,21.8-58.1,57v19.1h38.7V178.2z"/>
	</g>
	<g>
		
			<linearGradient id="SVGID_8_" gradientUnits="userSpaceOnUse" x1="277.05" y1="-271.0859" x2="277.05" y2="-343.486" gradientTransform="matrix(1 0 0 1 0 469.386)">
			<stop  offset="0" style="stop-color:#000000;stop-opacity:0"/>
			<stop  offset="1" style="stop-color:#FFFFFF;stop-opacity:0.3"/>
		</linearGradient>
		<rect x="267.7" y="125.9" class="st9" width="18.7" height="72.4"/>
	</g>
</g>
</svg>
