<?xml version="1.0" encoding="utf-8"?>
<!-- Generator: Adobe Illustrator 22.0.1, SVG Export Plug-In . SVG Version: 6.00 Build 0)  -->
<svg version="1.1" id="Camada_1" xmlns="http://www.w3.org/2000/svg" xmlns:xlink="http://www.w3.org/1999/xlink" x="0px" y="0px"
	 viewBox="0 0 1920 1312" style="enable-background:new 0 0 1920 1312;" xml:space="preserve">
<style type="text/css">
	.st0{fill:#FFFFFF;}
</style>
<g id="Kafo">
	<path class="st0" d="M1464.4,522.7c-73.4,0-132.9,59.5-132.9,132.9s59.5,132.9,132.9,132.9s132.9-59.5,132.9-132.9
		S1537.8,522.7,1464.4,522.7z"/>
	<g>
		<path class="st0" d="M322.5,602.2h0.8l60.9-79.6h120.5L430.3,612l77.4,123H383.3l-60-107h-0.8v107H215.9V416.3h106.6V602.2z"/>
		<path class="st0" d="M535.7,522.3c7.9-2.2,15.2-4.1,22-5.7c6.8-1.5,13.6-2.9,20.5-4c6.9-1.1,14.3-1.9,22.2-2.3s17.1-0.6,27.5-0.6
			c15.2,0,30.8,1,46.7,3c15.9,2,30.4,6.1,43.6,12.5c13.1,6.4,26.9,15.6,35.2,27.7c8.3,12.1,20,28.2,20,48.2V735H668v-31.7h-0.8
			c-7.3,12.7-21.6,22-34.2,27.9c-12.7,5.9-26.6,8.9-41.9,8.9c-10.2,0-20.1-1.2-29.8-3.6c-9.7-2.4-18.4-6.2-26-11.4
			s-13.7-11.9-18.2-20.1c-4.5-8.2-6.8-18-6.8-29.6c0-16.9,3.4-30.7,10.4-41.2c6.9-10.6,15.8-18.8,26.6-24.7c10.9-5.9,23-9.9,36.6-12
			c13.5-2.1,26.9-3.2,40.2-3.2c7.3,0,14.9,0.4,22.6,1.1c7.7,0.7,16.5,1.3,21.3,1.9c0-7-4.2-12.7-7.6-16.9c-3.4-4.2-7.8-7.4-13.1-9.5
			c-5.4-2.1-11.4-3.5-18-4.2s-13.3-1.1-20.1-1.1c-12.7,0-25.5,1.8-38.3,5.3s-24.6,8-35.3,13.3L535.7,522.3L535.7,522.3z
			 M665.5,636.1h-10.6c-5.6,0-11.2,0.2-16.7,0.6c-5.5,0.4-10.6,1.5-15.2,3.2c-4.7,1.7-8.4,4.2-11.2,7.6c-2.8,3.4-4.2,7.9-4.2,13.5
			c0,7.6,2.1,13.1,6.3,16.3s10.4,4.9,18.6,4.9c5.4,0,10.1-1.1,14.4-3.4c4.2-2.3,7.7-5.3,10.4-9.1s4.7-8,6.1-12.7
			c1.4-4.7,2.1-9.4,2.1-14.2L665.5,636.1L665.5,636.1z"/>
		<path class="st0" d="M800.9,576.3h-27.5v-53.6h27.1v-26.6c0.3-14.7,4-27.3,8.8-37.9s11.4-19.2,19.9-26s18.4-11.7,29.8-14.8
			c11.4-3.1,24-4.7,37.9-4.7c12.7,0,25,0.8,37,2.3c12,1.6,18.7,3.3,26.1,5.3v58.8c-2.5-0.6-8.4-1.2-11.5-1.9
			c-3.1-0.7-8-1.1-14.8-1.1s-13,2.3-18.6,6.8s-8.5,11.3-8.5,20.3v19.4h26.1v53.6h-26.1V735H801V576.3H800.9z"/>
		<path class="st0" d="M966.7,537.3c23.1-18.5,57.1-27.7,101.9-27.7c44.5,0,78.5,9.2,101.9,27.7s35.1,46.3,35.1,83.5
			c0,38.4-11.7,67.8-35.1,88.4c-23.4,20.6-57.4,30.9-101.9,30.9c-44.8,0-78.8-10.3-101.9-30.9c-23.1-20.6-34.7-50-34.7-88.4
			C932,583.6,943.6,555.8,966.7,537.3z M1046,643.3c0.4,6.8,1.5,12.6,3.2,17.6c1.7,4.9,4.1,8.8,7.2,11.6s7.2,4.2,12.3,4.2
			c5.1,0,9.2-1.4,12.3-4.2c3.1-2.8,5.5-6.7,7.2-11.6c1.7-4.9,2.8-10.8,3.4-17.6s0.9-14.2,0.9-22.4c0-6.5-0.3-12.6-0.9-18.4
			c-0.6-5.8-1.7-10.8-3.4-15.2c-1.7-4.4-4.1-7.8-7.2-10.4c-3.1-2.5-7.2-3.8-12.3-3.8c-5.1,0-9.2,1.3-12.3,3.8
			c-3.1,2.5-5.5,6-7.2,10.4s-2.7,9.5-3.2,15.2c-0.4,5.8-0.6,11.9-0.6,18.4C1045.4,629,1045.6,636.5,1046,643.3z"/>
	</g>
	<g>
		<path class="st0" d="M337.8,797c-4.4-0.5-8.5-0.8-12.3-0.8c-13.8,0.2-24.4,4.5-31.8,12.9c-7.5,8.4-11.3,19.4-11.3,32.9
			c0,13.6,3.7,24.5,11.1,32.9c7.3,8.5,17.9,12.8,31.9,12.9c3.7,0,7.8-0.4,12.3-1.1c4.5-0.6,8.3-1.8,11.4-3.5l0.6,9.1
			c-3.1,1.6-7.1,2.8-11.7,3.5c-4.8,0.7-9,1.1-12.6,1.1c-16.8-0.2-29.9-5.3-39.2-15.2c-9.5-9.8-14.3-23.1-14.3-39.7
			c0.1-16.4,4.9-29.7,14.4-39.7c9.4-9.9,22.5-15,39.1-15.2c3.4,0,7.7,0.3,12.6,0.8c4.9,0.6,8.8,1.7,11.7,3.2l-0.6,9.7
			C345.8,798.9,342,797.7,337.8,797z"/>
		<path class="st0" d="M407.1,788.9h27.4c20.3-0.3,30.7,8.9,31.2,27.5c-0.1,6.9-2.4,12.4-6.8,16.6c-4.5,4.3-10,6.9-16.7,7.9v0.3
			c4.1,0.5,7,1.8,8.8,4c1,1,1.9,2.3,2.6,3.8c0.8,1.5,1.6,3.2,2.3,5l18.1,41.1h-11.6L447,859.2c-2.8-6.6-5.8-10.7-8.8-12.3
			c-1.5-0.9-3.2-1.5-5.2-1.7c-1.9-0.1-4.2-0.2-6.7-0.2h-8.7v50h-10.5L407.1,788.9L407.1,788.9z M417.6,835.9h11.1
			c6.6,0.1,12.6-1.3,17.9-4.3c5.5-2.9,8.3-8,8.5-15.2c0-4.4-0.7-7.8-2.1-10.3s-3.4-4.4-5.8-5.5c-2.4-1.2-5.3-2-8.5-2.3
			c-3.3-0.2-6.7-0.3-10.3-0.3h-10.8L417.6,835.9L417.6,835.9z"/>
		<path class="st0" d="M518.9,788.9h10.5v106.2h-10.5V788.9z"/>
		<path class="st0" d="M615.3,788.9h11.9l42.1,106.2h-10.9L647,866.6h-53.3L582.4,895h-10.5L615.3,788.9z M597.5,857.5h45.9
			l-23-58.6L597.5,857.5z"/>
		<path class="st0" d="M774.7,797c-4.4-0.5-8.5-0.8-12.3-0.8c-13.8,0.2-24.4,4.5-31.8,12.9c-7.5,8.4-11.3,19.3-11.3,32.8
			c0,13.6,3.7,24.5,11.1,32.8c7.3,8.5,17.9,12.8,31.9,12.9c3.7,0,7.8-0.3,12.3-1c4.5-0.6,8.3-1.7,11.4-3.4l0.6,9.1
			c-3.2,1.6-7.1,2.8-11.7,3.5c-4.8,0.7-9,1.1-12.6,1.1c-0.8,0-1.5-0.1-2.1-0.2l-2.3,6.5c1.5-0.3,3.2-0.5,5-0.5
			c3.1,0,5.8,0.8,7.9,2.4c2,1.7,3.1,4.2,3.2,7.5c-0.2,4.3-2.1,7.1-5.6,8.5c-3.6,1.3-7.4,2-11.1,2c-3.3-0.1-6.5-0.7-9.6-1.7
			c-3-0.9-5-1.5-5.8-1.7l1.1-5.6c1.1,0.7,2.9,1.6,5.5,2.6c2.5,1.1,5.2,1.7,8.1,1.8c5.1,0,7.7-1.9,7.9-5.6c-0.1-3.8-2-5.6-5.8-5.6
			c-2.1,0-4.3,0.2-6.4,0.6l3.8-11.6c-15-1.4-26.6-7-34.7-16.7c-8.4-9.6-12.6-22.2-12.6-37.7c0.1-16.4,4.9-29.7,14.5-39.7
			c9.4-9.9,22.5-15,39.1-15.2c3.5,0,7.7,0.3,12.6,0.8c4.9,0.6,8.8,1.7,11.7,3.2l-0.6,9.7C782.7,798.9,778.9,797.7,774.7,797z"/>
		<path class="st0" d="M850.2,803.6c7.6-10.7,19.4-16.3,35.3-16.6c16,0.3,27.9,5.8,35.6,16.6c7.6,10.7,11.3,23.4,11.1,38.3
			c-0.1,16.5-4.1,29.7-11.9,39.6c-7.9,10-19.5,15.2-34.8,15.4c-15.2-0.2-26.7-5.3-34.5-15.4c-7.9-9.8-12-23-12.2-39.6
			C838.7,827.1,842.5,814.3,850.2,803.6z M858.1,810.5c-5.9,9.2-8.8,19.7-8.8,31.5s2.9,22.2,8.8,31.2c5.9,9.5,15,14.4,27.4,14.6
			c12.5-0.2,21.7-5.1,27.5-14.6c5.8-9,8.7-19.4,8.7-31.2s-2.9-22.3-8.7-31.5c-5.9-9.2-15.1-14-27.5-14.3
			C873.1,796.5,864,801.3,858.1,810.5z M865.1,781.1c0.8-3.6,2.2-6.7,4.1-9.4c2-2.7,4.8-4.1,8.2-4.3c3.1,0.1,6.2,0.7,9.3,1.8
			c3,1.2,5.3,1.9,6.7,2c1.7,0,3.3-0.5,4.7-1.4c1.3-0.9,2.2-2.2,2.7-3.8h5.6c-0.9,5.4-2.7,9-5.3,10.8c-2.7,1.8-5.2,2.7-7.3,2.6
			c-3.6-0.1-6.7-0.8-9.4-2c-2.7-1.1-5.1-1.7-7.1-1.8c-1.9,0-3.3,0.5-4.1,1.4c-1,0.9-1.9,2.3-2.6,4.1L865.1,781.1L865.1,781.1z"/>
		<path class="st0" d="M982.4,788.9h52v9.1h-41.5v37.9h39.4v9.1h-39.4v40.9h43.4v9.1h-53.9V788.9z"/>
		<path class="st0" d="M1107.9,887.8c6.8,0,12.5-1.8,17-5.3c4.5-3.6,6.7-9,6.8-16.4c-0.1-5.2-2.6-9.5-7.6-13.1
			c-2.2-1.8-4.8-3.5-7.8-5.2c-2.9-1.6-5.9-3.2-9-4.9c-3-1.7-6-3.5-8.8-5.5c-2.9-1.8-5.6-3.9-7.9-6.1c-5-4.4-7.5-9.9-7.6-16.6
			c0.1-8.6,3.4-15.4,9.9-20.4c6.3-4.8,14.2-7.2,23.7-7.3c2.7,0,6,0.2,9.7,0.6c3.8,0.6,7.5,1.6,11.1,2.9l-1.7,9.6
			c-5.2-2.6-11.6-4-19.3-4c-2.7,0-5.4,0.3-8.1,0.8c-2.6,0.6-5.1,1.7-7.5,3.2c-2.1,1.3-3.9,3.1-5.3,5.5s-2.1,5.4-2.1,8.8
			c0,2.5,0.7,4.9,2.1,7s3.2,4,5.5,5.6c2.3,1.7,5,3.3,7.9,4.9c2.8,1.6,5.8,3.3,8.8,5c6.4,3,12,6.9,16.7,11.6c2.3,2.2,4.2,4.9,5.6,7.9
			c1.3,3,2,6.5,2,10.5c-0.2,10.5-3.9,18.2-11.1,23c-7.1,4.7-15,7-23.7,7c-10.3-0.2-18.4-1.7-24-4.6l1.1-10.8
			C1090.4,885.7,1098.2,887.8,1107.9,887.8z"/>
	</g>
	<g>
		<path class="st0" d="M1464.4,415.9c-132.4,0-239.7,107.3-239.7,239.7s107.3,239.7,239.7,239.7s239.7-107.3,239.7-239.7
			S1596.8,415.9,1464.4,415.9z M1622.1,682.7c-12.5,77-79.2,135.9-159.8,135.9c-89.4,0-161.9-72.5-161.9-161.9
			s72.5-161.9,161.9-161.9c80.3,0,147,58.5,159.7,135.3c5.9,2,27.9,9.1,54.8-0.4c13.1,13.1,13.4,40.3,0.1,53.6
			C1649.8,671.3,1628.8,680.1,1622.1,682.7z"/>
	</g>
</g>
</svg>
