<?xml version="1.0" encoding="utf-8"?>
<!-- Generator: Adobe Illustrator 22.0.1, SVG Export Plug-In . SVG Version: 6.00 Build 0)  -->
<svg version="1.1" id="Camada_1" xmlns="http://www.w3.org/2000/svg" xmlns:xlink="http://www.w3.org/1999/xlink" x="0px" y="0px"
	 viewBox="0 0 100 100" style="enable-background:new 0 0 100 100;" xml:space="preserve">
<style type="text/css">
	.st0{opacity:0.1;}
	.st1{fill:#3C1911;}
	.st2{fill:#F9A51A;}
</style>
<g class="st0">
	<path class="st1" d="M50,24.1c-14.3,0-25.8,11.6-25.8,25.9S35.8,75.8,50,75.8c14.3,0,25.9-11.6,25.9-25.8
		C75.9,35.7,64.3,24.1,50,24.1z"/>
	<g>
		<path class="st2" d="M50,3.4C24.2,3.4,3.4,24.2,3.4,50S24.3,96.6,50,96.6S96.6,75.8,96.6,50S75.8,3.4,50,3.4z M81.1,55.1
			C78.7,70,65.7,81.5,50,81.5c-17.4,0-31.5-14.1-31.5-31.5S32.6,18.5,50,18.5c15.6,0,28.6,11.4,31.1,26.3c1.1,0.4,4.4,1.8,9.7-0.1
			c2.5,2.6,2.6,7.8,0,10.4C85.5,52.8,82.4,54.5,81.1,55.1z"/>
	</g>
</g>
</svg>
