<?xml version="1.0" encoding="utf-8"?>
<!-- Generator: Adobe Illustrator 22.0.1, SVG Export Plug-In . SVG Version: 6.00 Build 0)  -->
<svg version="1.1" id="Camada_1" xmlns="http://www.w3.org/2000/svg" xmlns:xlink="http://www.w3.org/1999/xlink" x="0px" y="0px"
	 viewBox="0 0 100 100" style="enable-background:new 0 0 100 100;" xml:space="preserve">
<style type="text/css">
	.st0{fill:#3C1911;}
	.st1{fill:#F9A51A;}
</style>
<g>
	<path class="st0" d="M50,24.9c-13.9,0-25.1,11.3-25.1,25.1S36.2,75.1,50,75.1c13.9,0,25.1-11.3,25.1-25.1
		C75.1,36.1,63.9,24.9,50,24.9z"/>
	<g>
		<path class="st1" d="M50,4.7C24.9,4.7,4.7,24.9,4.7,50S25,95.2,50,95.2S95.3,75.1,95.3,50S75.1,4.7,50,4.7z M80.2,55
			c-2.3,14.5-15,25.6-30.2,25.6c-16.9,0-30.6-13.7-30.6-30.6S33.1,19.4,50,19.4c15.1,0,27.8,11.1,30.2,25.5c1.1,0.4,4.3,1.7,9.4-0.1
			c2.4,2.5,2.5,7.6,0,10.1C84.5,52.7,81.5,54.4,80.2,55z"/>
	</g>
</g>
</svg>
