<?xml version="1.0" encoding="utf-8"?>
<!-- Generator: Adobe Illustrator 22.0.1, SVG Export Plug-In . SVG Version: 6.00 Build 0)  -->
<svg version="1.1" id="Camada_1" xmlns="http://www.w3.org/2000/svg" xmlns:xlink="http://www.w3.org/1999/xlink" x="0px" y="0px"
	 viewBox="0 0 1920 1312" style="enable-background:new 0 0 1920 1312;" xml:space="preserve">
<style type="text/css">
	.st0{fill:#6A5927;}
	.st1{fill:#FFDD00;}
</style>
<g id="Qualquer_Negócio">
	<g>
		<path class="st0" d="M456.6,530.6c-0.7,3.1-2.4,5.7-5,7.8s-5.9,2.8-10,2c-0.6-0.1-4.6-1.3-7.5-2.1c-1.6,1-25.9-5.8-50.2,15.1
			c-24.9,21.4-31.7,46.8-35.3,58.9c-4.2,14.2-10,58.6-15.2,82.3c-5.6,25.5-17.5,47.1-39.4,64.8c-24.1,19.4-57.2,24.2-67.6,23.7
			c-4.5-0.2-8.9-0.5-13.3-1.5c-4-0.8-6.7-2.7-8.1-5.8c-1.4-3-1.7-7.8-1-10.9c0.7-3.1,2.4-5.7,5-7.8s5.9-2.8,10-2
			c0.6,0.1,4.6,1.3,7.5,2.1c1.6-1,25.9,5.8,50.2-15.1c24.9-21.4,32.6-48.3,35.3-60.6c3.3-14.5,8.6-59,15.2-80.5
			c7.7-24.9,17.5-47.1,39.4-64.8c24.1-19.4,57.2-24.1,67.6-23.7c4.5,0.2,8.9,0.5,13.3,1.5c4,0.8,6.7,2.7,8.1,5.8
			C457,522.8,457.3,527.5,456.6,530.6"/>
		<path class="st0" d="M383.9,742.1c24.3,20.9,48.6,14.2,50.2,15.1c2.9-0.8,6.9-2,7.5-2.1c4-0.8,7.3-0.1,10,2c2.6,2.1,4.3,4.7,5,7.8
			s0.4,7.8-1,10.9c-1.4,3.1-4.1,5-8.1,5.8c-4.4,1-8.9,1.3-13.3,1.5c-10.4,0.4-43.5-4.3-67.6-23.7c-10.6-8.5-18.3-18.2-24.4-28.6
			c5.4-9.7,9.2-20.1,11.8-31.3C358.9,712.2,367.5,728,383.9,742.1"/>
		<path class="st0" d="M307.1,597.9c-4.9-13.3-13.9-30.1-30.5-44.4c-24.3-20.9-48.6-14.2-50.2-15.1c-2.9,0.8-6.9,1.9-7.5,2.1
			c-4,0.8-7.4,0.1-10-2s-4.3-4.7-5-7.8s-0.4-7.8,1-10.9c1.4-3.1,4.1-5,8.1-5.8c4.4-1,8.9-1.3,13.3-1.5c10.4-0.4,43.5,4.3,67.6,23.7
			c10.2,8.2,18.2,17.3,24.4,27.2c-3.1,7.2-5.7,14.6-8.1,22.3C309.2,589.3,308.2,593.4,307.1,597.9"/>
		<path class="st0" d="M456.1,812.6c-7.3,2.9-14.8,5.3-22.6,7.2c-3.3,0.7-6,0.2-8.1-1.4c-2.2-1.6-3.6-3.7-4.3-6.1
			c-0.7-2.4-0.5-4.9,0.5-7.4s3.2-4.2,6.5-5c7.4-1.9,14.5-4.2,21.3-6.9s13.8-5.3,21.1-7.9c5-1.7,9.8-3.6,14.5-5.6
			c4.6-2,9-4.4,13.2-7.4c-5-2.9-10.2-5.6-15.7-8s-10.8-5.1-15.8-8c-6-3.3-12-6.7-17.8-10.3c-5.9-3.6-11.8-7.2-17.8-10.9
			c-2.8-1.7-4.3-4-4.7-6.7c-0.3-2.8,0.1-5.2,1.4-7.5c1.3-2.2,3.2-3.8,5.7-4.8c2.5-0.9,5.2-0.6,8.1,1.2c5.8,3.6,11.7,7.2,17.6,10.8
			S471,735,477,738.5c7.7,4.1,15.5,8.1,23.4,11.8c7.8,3.7,15.1,8.3,21.8,13.8c2.2,1.9,3.3,4.3,3.1,7.4c-0.2,3-1.2,5.5-3.1,7.3
			c-6,6.2-12.8,11.2-20.3,15.1c-7.5,3.9-15.3,7.3-23.4,10.2C470.9,807,463.4,809.7,456.1,812.6"/>
		<path class="st0" d="M478.4,492.9c8.1,2.9,15.9,6.3,23.4,10.2c7.5,3.9,14.3,8.9,20.3,15.1c1.9,1.9,2.9,4.4,3.1,7.4
			c0.2,3-0.9,5.5-3.1,7.3c-6.7,5.5-14,10.1-21.8,13.8s-15.6,7.6-23.4,11.7c-6,3.5-12,7-17.8,10.6c-5.9,3.6-11.7,7.2-17.6,10.9
			c-2.9,1.7-5.7,2.1-8.1,1.2c-2.5-0.9-4.4-2.5-5.7-4.8c-1.3-2.2-1.8-4.7-1.4-7.5c0.3-2.8,1.9-5,4.7-6.7c6-3.6,12-7.2,17.8-10.9
			c5.8-3.6,11.8-7.1,17.8-10.3c5-2.9,10.2-5.6,15.8-8c5.5-2.4,10.8-5.1,15.7-8c-4.1-2.9-8.5-5.4-13.2-7.4s-9.5-3.8-14.5-5.5
			c-7.2-2.6-14.3-5.2-21.1-7.9c-6.8-2.7-13.9-5-21.3-6.9c-3.3-0.9-5.4-2.5-6.5-5c-1-2.5-1.2-5-0.5-7.4s2.1-4.4,4.3-6.1
			c2.2-1.6,4.9-2.1,8.1-1.4c7.7,1.9,15.3,4.3,22.6,7.2C463.4,487.5,470.9,490.3,478.4,492.9"/>
		<g>
			<path class="st0" d="M629.1,575.5c-9.7-5.6-17.8-12.7-24.3-21.4s-11.5-18.2-15-28.5s-5.7-21.1-6.5-32.3
				c-0.8-11.2-0.5-22.3,0.9-33.3c0.8-6.4,1.9-13,3.2-19.8s3.1-13.5,5.4-20.1c2.3-6.6,5.1-12.9,8.5-18.9s7.5-11.3,12.2-16.1
				c8.3-8,17.7-13,28.5-14.9c10.7-1.9,21.5-0.6,32.2,3.7c11.1,4.5,21.4,11.1,30.6,19.7c9.3,8.6,16.5,18.3,21.7,29.2
				c6,12.4,9.3,25.4,10.1,39.1c0.7,13.7-0.7,27.2-4.2,40.4c-3.5,13.6-8.8,26.4-15.8,38.4c2.3,2.9,4.6,5.7,7,8.5s4.9,5.6,7.6,8.5
				c2.7,2.9,3.8,6,3.2,9.3c-0.5,3.3-1.9,6-4,8.2c-2.2,2.2-4.8,3.4-8,3.7s-6.1-1-8.8-3.9c-3.9-4.1-7.7-8.6-11.5-13.3
				c-4.1,5-9,9.9-14.5,14.9c-2.7,2.3-5.6,4.8-8.8,7.6s-6.7,5.3-10.4,7.4c-3.7,2.2-7.5,3.8-11.3,5c-3.8,1.1-7.7,1.2-11.6,0.2
				c-5.4-1.2-9.2-3.9-11.5-8C631.8,584.7,630.1,580.2,629.1,575.5z M615.2,432.8c-3.9,12.4-6.4,25.1-7.4,38.2s-0.1,25.8,2.8,38.2
				c2.3,8.7,5.5,16.7,9.6,24s9.7,13.4,16.7,18.1c0.6-0.2,1.6-0.3,3.1-0.3c2.7,0,5,0.7,6.8,2c1.9,1.3,3.3,3.2,4.3,5.4
				c4.5,1.9,7.1,5.1,7.7,9.6c2.7-1.9,4.8-3.4,6.5-4.6c1.6-1.2,3.3-2.7,5-4.3c3.1-2.9,6-5.8,8.8-8.7s5.3-6,7.6-9.3
				c-2.7-3.9-5.4-7.8-8.2-11.6s-5.6-7.6-8.5-11.3c-2.3-2.7-3.5-5.6-3.7-8.8s1-6,3.7-8.5c2.3-2.3,5.2-3.5,8.7-3.7s6.4,1,8.7,3.7
				c2.3,2.9,4.5,5.8,6.7,8.8s4.4,5.9,6.7,8.8c3.3-7.2,6-14.5,8-22c2.1-7.4,3.2-14.9,3.6-22.4c0.3-7.5-0.2-14.9-1.5-22.1
				s-3.9-14-7.6-20.4c-2.5-4.3-5.3-8.6-8.5-12.7s-6.8-7.8-10.8-11.1c-4-3.3-8.3-6.1-12.8-8.5s-9.3-4-14.2-4.8
				c-3.5-0.8-7.4-0.8-11.6,0c-4.2,0.8-7.8,2.6-10.7,5.3c-5,4.3-8.9,9.4-11.9,15.2C619.5,420.7,617,426.6,615.2,432.8z"/>
			<path class="st0" d="M897.4,478c0.2,17.7,1.4,35.5,3.7,53.2s5.3,35.3,9,52.6c0.8,3.9,0.2,7.2-2,9.7c-2.2,2.6-4.7,4.3-7.6,5.1
				c-2.9,0.8-5.8,0.6-8.7-0.6c-2.9-1.2-4.7-3.8-5.6-7.7c-2.5-11.8-4.6-23.3-6.5-34.7c-0.8,1-1.5,2-2.2,2.9c-0.6,0.9-1.3,1.9-2.2,2.9
				c-4.1,5-8.9,9.2-14.2,12.8c-5.4,3.6-11.1,6.4-17.2,8.4c-6.1,2-12.3,3-18.7,3.2s-12.7-0.5-18.9-2.2c-10.9-3.1-19.3-8.5-25.1-16.1
				s-9.9-16.3-12.4-26.2c-2.5-9.8-3.9-20-4.3-30.6c-0.4-10.6-0.7-20.5-0.9-29.6c0-3.9,1.2-6.9,3.7-8.8c2.5-2,5.3-2.9,8.4-2.9
				c3.1,0,5.9,1,8.5,2.9c2.6,2,4,4.9,4.2,8.8c0.2,8.3,0.4,16.6,0.5,25.1c0.1,8.5,1,16.4,2.6,23.8c0.8,4.1,1.8,7.7,2.8,10.7
				s2.7,6.1,5,9.4c1,1.4,1.6,2.3,1.7,2.5c0.1,0.2,0.4,0.4,0.8,0.6c3.1,2.5,5.2,4,6.2,4.5s2.3,1,3.7,1.4c8.7,2.5,17.4,2.2,26.3-0.8
				c8.9-3,16-8.4,21.4-16.2c3.1-5,5.4-10.1,7-15.5c1.5-5.4,2.6-10.8,3.2-16.2c0.6-5.5,1.1-11,1.4-16.7c0.3-5.7,0.9-11.3,1.7-16.9
				c0-6.2,1.6-10.3,4.8-12.2c3.2-2,6.5-2.6,10.1-2c2.1,0.6,3.7,1.3,5,2.2l2.5,2.2C897.2,470.9,898,474.5,897.4,478z"/>
			<path class="st0" d="M955.9,578.9c-7-3.1-12.5-7.4-16.6-12.8c-4-5.5-6.8-11.5-8.4-18.1c-1.5-6.6-2-13.5-1.4-20.6s2.1-14,4.3-20.6
				c1.9-5.2,4-10.5,6.3-16.1c2.4-5.6,5.2-10.7,8.5-15.5c3.3-4.7,7.2-8.8,11.8-12.2c4.5-3.4,9.9-5.6,16.1-6.7
				c6.4-1,12.8-1.4,19.3-1.1s12.9,1,19.3,2c2.9,0.4,5.7,1.1,8.4,2s5.4,1.9,8,2.9c0.2-3.1,1.6-5.7,4.2-7.7c2.6-2.1,5.3-3.1,8.2-3.1
				c3.5,0,6.3,1.2,8.5,3.6s3.5,5.2,3.9,8.5c1,9.5,1.5,19,1.4,28.5s-0.4,19-0.9,28.5s-0.9,19-1.2,28.5c-0.3,9.5-0.3,19,0.2,28.5
				c0.2,3.9-1,6.9-3.6,8.8c-2.6,2-5.4,2.9-8.5,2.9s-5.9-1-8.5-2.9c-2.6-2-4-4.9-4.2-8.8c-11.8,5-24.2,7.8-37.4,8.5
				C980.5,586.6,967.9,584.3,955.9,578.9z M958.1,511.7c-1.2,3.7-2.4,7.9-3.4,12.7c-1,4.7-1.3,9.3-0.9,13.6c0.4,4.3,1.8,8.3,4,11.9
				c2.3,3.6,6,6.1,11.1,7.6c10.5,3.3,21.1,4.2,31.7,2.8c10.6-1.4,20.6-5.2,29.9-11.1c0.8-10.1,1.5-19.9,2-29.4s0.7-19.1,0.5-28.8
				c-3.5-2.3-7.1-4.3-10.7-6c-3.6-1.8-7.6-2.9-11.9-3.6c-4.3-0.6-8.9-1.1-13.8-1.4c-4.8-0.3-9.5-0.3-14.1,0.2
				c-0.4,0-1.5,0.3-3.2,0.8c-1.8,0.5-2.7,0.9-2.9,1.1c-2.1,1-3.9,2.7-5.6,5c-2.7,3.7-5.1,7.7-7.1,11.9
				C961.6,503.1,959.7,507.4,958.1,511.7z"/>
			<path class="st0" d="M1106.6,344.3c3.7,0,6.6,1.2,8.7,3.7s3.3,5.4,3.7,8.7c2.1,19.6,3.2,39.2,3.4,58.8
				c0.2,19.6-0.1,39.2-0.8,58.8c-0.7,19.6-1.8,39.2-3.2,58.8c-1.4,19.6-2.9,39.1-4.3,58.5c-0.4,3.5-1.7,6.4-3.9,8.8
				c-2.2,2.4-5,3.6-8.5,3.6c-3.1,0-6-1.2-8.7-3.6c-2.7-2.4-3.9-5.3-3.7-8.8c1.4-19.4,2.9-38.9,4.5-58.5c1.5-19.6,2.7-39.2,3.4-58.8
				c0.7-19.6,1-39.2,0.8-58.8c-0.2-19.6-1.3-39.2-3.4-58.8c-0.4-3.3,0.7-6.2,3.4-8.7C1100.6,345.6,1103.5,344.3,1106.6,344.3z"/>
			<path class="st0" d="M1303.8,673.6c-5.6,2.3-11.2,2.5-16.9,0.8c-5.7-1.8-11-3.9-15.9-6.3c-4.1-2.3-8-4.7-11.8-7.3
				c-3.7-2.6-6.8-5.9-9.3-10.1c-2.3-3.7-4-7.6-5.3-11.8c-1.2-4.1-2.2-8.3-2.8-12.4c-2.5-12.4-4-24.9-4.6-37.4c0-3.3-0.1-6.5-0.3-9.7
				c-0.2-3.2-0.4-6.4-0.6-9.7c-10.5-1-21-2.6-31.6-4.8c-10.5-2.2-20.2-5.9-29.1-11.3c-6-3.7-10.9-8-14.7-13c-3.8-5-7-10.6-9.4-17
				c-1.9-5.2-3-10.6-3.4-16.4c-0.4-5.8,0-11.5,1.2-17c1.2-5.6,3.2-10.8,6-15.8s6.3-9.2,10.7-12.7c5.4-4.1,11.1-7.4,17.3-9.9
				c6.2-2.5,12.5-4.5,18.9-6.2c6.8-1.9,13.7-3.3,20.7-4.5c7-1.1,14.1-1.9,21.4-2.3c0.6-5,2.6-8.2,5.9-9.7s6.5-1.9,9.6-1.1
				c3.5,1,5.9,2.9,7.3,5.7c1.3,2.8,1.8,5.9,1.4,9.4c-1.9,11.1-3.1,22.3-3.9,33.4c-0.7,11.1-1.5,22.4-2.3,33.7
				c-0.4,5.6-0.9,11.1-1.4,16.7s-0.8,11.1-0.8,16.7c-0.2,5.6-0.1,11.1,0.3,16.7c0.4,5.6,0.8,11.1,1.2,16.7
				c0.4,9.3,0.9,18.8,1.4,28.6s2.4,19.1,5.7,28c0.4,0.8,0.7,1.3,0.8,1.5c0.1,0.2,0.5,0.8,1.1,1.9c1.9,2.5,3.2,4.1,4.2,4.8
				c0.9,0.7,2.2,1.5,3.9,2.3c2.7,1.2,5.7,2.8,9,4.6c3.3,1.9,6.5,2.2,9.6,0.9c3.1-1.2,6.1-0.8,9.1,1.2c3,2.1,5,4.5,6,7.4
				c1,3.5,0.6,6.6-1.2,9.3C1309.3,670.4,1306.8,672.4,1303.8,673.6z M1237.5,512.7c0.4-8.3,0.9-16.5,1.4-24.6s1.2-16.3,2-24.6
				c-5.2,0.4-10.2,1-15.2,1.9c-5,0.8-9.9,2-14.9,3.4c-4.7,1.2-9.6,2.7-14.5,4.3c-5,1.7-9.5,3.9-13.6,6.8c-3.1,2.3-5.4,5-7,8
				c-1.5,3.1-2.5,6.4-2.9,9.9s-0.3,7,0.3,10.5c0.6,3.5,1.4,6.7,2.5,9.6c0.6,1,1,1.7,1.1,2s0.4,0.7,0.8,1.1c0.4,0.6,1,1.6,1.9,2.9
				c0.8,1.3,1,1.8,0.6,1.4c0.8,0.8,1.6,1.6,2.3,2.3c0.7,0.7,1.5,1.4,2.3,2c1.9,1.4,3,2.3,3.6,2.5c0.5,0.2,1.1,0.5,1.7,0.9
				c3.3,1.9,6.5,3.3,9.6,4.3s6.7,2.1,10.8,3.1c4.1,1,8.3,1.9,12.5,2.6c4.2,0.7,8.4,1.3,12.5,1.7c0.2-5.4,0.5-10.7,0.9-16.1
				C1236.7,523.4,1237.1,518,1237.5,512.7z"/>
			<path class="st0" d="M1426,478c0.2,17.7,1.4,35.5,3.7,53.2c2.3,17.7,5.3,35.3,9,52.6c0.8,3.9,0.2,7.2-2,9.7
				c-2.2,2.6-4.7,4.3-7.6,5.1s-5.8,0.6-8.7-0.6c-2.9-1.2-4.7-3.8-5.6-7.7c-2.5-11.8-4.6-23.3-6.5-34.7c-0.8,1-1.5,2-2.2,2.9
				c-0.6,0.9-1.3,1.9-2.2,2.9c-4.1,5-8.9,9.2-14.2,12.8c-5.4,3.6-11.1,6.4-17.2,8.4s-12.3,3-18.7,3.2c-6.4,0.2-12.7-0.5-18.9-2.2
				c-10.9-3.1-19.3-8.5-25.1-16.1c-5.8-7.6-9.9-16.3-12.4-26.2c-2.5-9.8-3.9-20-4.3-30.6s-0.7-20.5-0.9-29.6c0-3.9,1.2-6.9,3.7-8.8
				c2.5-2,5.3-2.9,8.4-2.9s5.9,1,8.5,2.9c2.6,2,4,4.9,4.2,8.8c0.2,8.3,0.4,16.6,0.5,25.1c0.1,8.5,1,16.4,2.6,23.8
				c0.8,4.1,1.8,7.7,2.8,10.7s2.7,6.1,5,9.4c1,1.4,1.6,2.3,1.7,2.5s0.4,0.4,0.8,0.6c3.1,2.5,5.2,4,6.2,4.5s2.3,1,3.7,1.4
				c8.7,2.5,17.4,2.2,26.3-0.8s16-8.4,21.4-16.2c3.1-5,5.4-10.1,7-15.5c1.5-5.4,2.6-10.8,3.2-16.2c0.6-5.5,1.1-11,1.4-16.7
				s0.9-11.3,1.7-16.9c0-6.2,1.6-10.3,4.8-12.2c3.2-2,6.5-2.6,10.1-2c2.1,0.6,3.7,1.3,5,2.2l2.5,2.2
				C1425.8,470.9,1426.6,474.5,1426,478z"/>
			<path class="st0" d="M1471.5,467.2c3.9-5.4,8.6-10.1,14.1-14.2s11.3-7.4,17.5-9.7c6.2-2.4,12.6-3.6,19.2-3.7s13.2,1.2,19.8,3.9
				c6.4,2.5,12.2,5.8,17.3,10.1c5.2,4.2,9.2,9.6,12.1,16.2c2.3,5,3.6,10.3,4,16.1c0.4,5.8-1.1,11-4.6,15.8
				c-3.1,4.3-6.9,7.6-11.3,9.9s-9.2,3.9-14.2,5c-5.1,1-10.2,1.5-15.5,1.5s-10.3-0.1-15-0.3c-5.4-0.2-10.7-0.6-15.9-1.2
				c-5.3-0.6-10.6-1.2-15.9-1.9c1.6,9.3,5,17.5,9.9,24.8c5,7.2,11.7,12.7,20.1,16.4c2.3,0.8,4,1.4,5.3,1.9c0.6,0.2,1.2,0.4,1.7,0.5
				s1.1,0.2,1.7,0.2c1.6,0.2,3,0.4,4.2,0.5c1.1,0.1,2.2,0.1,3.2-0.2c1.4-0.2,2.4-0.4,2.9-0.5s1.1-0.3,1.7-0.5c2.3-0.6,4.3-1.3,6-2.2
				c1.8-0.8,3.9-2.2,6.3-4c1.2-1,2.9-2.6,5-4.6c2.1-2.1,3.8-3.9,5.3-5.6c2.1-2.9,4.6-4.8,7.6-5.9c3-1,6-0.6,9.1,1.2
				c2.7,1.7,4.6,4.2,5.7,7.6c1.1,3.4,0.7,6.6-1.4,9.4c-6,8-13.1,14.9-21.2,20.6c-8.2,5.7-17.5,8.7-28,9.1
				c-8.5,0.4-16.6-1.1-24.4-4.5s-14.8-8-20.7-13.8c-7.4-7.2-13.3-15.6-17.6-25.1c-4.3-9.5-6.7-19.2-7.1-29.1
				c-1.9-1.4-3.2-3.2-4.2-5.4c-0.9-2.2-1.2-4.4-0.9-6.7c0.3-2.3,1.1-4.4,2.3-6.3c1.2-2,3.1-3.2,5.6-3.9
				C1463.2,480.9,1466.7,473.8,1471.5,467.2z M1545.8,474.6c-2.3-2.9-5.8-5.5-10.5-7.7c-3.9-1.6-8.5-2.5-13.8-2.5s-9.7,0.9-13.5,2.8
				c-4.7,2.3-9,5.4-12.7,9.4s-6.7,8.5-9,13.5c5,0.6,9.9,1.2,14.9,1.9c5,0.6,9.9,1,14.9,1.2c2.7,0,5.4,0,8,0c2.7,0,5.4-0.1,8-0.3
				c0.8,0,1.6,0,2.3-0.2c0.7-0.1,1.5-0.2,2.3-0.2c1.9-0.4,3.2-0.7,4.2-0.8c0.9-0.1,1.9-0.4,2.9-0.8c0.8-0.2,1.9-0.5,3.1-0.9
				c1-0.4,1.6-0.7,1.9-0.9c0.2-0.2,0.5-0.4,0.9-0.6l0.9-3.7c-0.4-0.8-0.7-1.6-0.8-2.3c-0.1-0.7-0.4-1.4-0.8-2
				c-0.2-0.6-0.7-1.5-1.4-2.8C1547,476.5,1546.4,475.4,1545.8,474.6z"/>
			<path class="st0" d="M1605.5,461.3c0.2-3.9,1.6-6.9,4.3-8.8c2.7-2,5.6-2.9,8.7-2.9s5.8,1,8.2,2.9c2.4,2,3.5,4.9,3.2,8.8
				c0,1.2-0.1,2.5-0.2,3.9c-0.1,1.3-0.2,2.6-0.2,3.9c6.6-3.3,13.6-6.1,20.9-8.5s14.6-3.9,22-4.5c7.3-0.6,14.4,0,21.4,1.7
				c6.9,1.8,13.3,5.1,19,10.1c2.9,2.7,4.2,5.6,3.9,8.7c-0.3,3.1-1.5,5.7-3.7,7.9c-2.2,2.2-4.9,3.5-8.2,4c-3.3,0.5-6.5-0.5-9.6-2.9
				c-2.3-1.9-4.8-3.2-7.6-4c-2.8-0.8-5.8-1.2-9-1.1s-6.4,0.5-9.6,1.1s-6.2,1.3-9.1,2.2c-10.9,3.5-21.1,8.2-30.6,13.9
				c0.4,10.1,1,20.2,1.9,30.3c0.8,8.5,1.5,17.2,2.2,26.2c0.6,9,2.4,17.5,5.3,25.5c1.2,3.7,1,6.9-0.8,9.4c-1.8,2.6-4.1,4.3-7.1,5.1
				s-6.1,0.6-9.3-0.6c-3.2-1.2-5.4-3.7-6.7-7.4c-1.7-4.7-2.8-9.6-3.4-14.5c-0.6-5-1.2-9.9-1.9-14.9c-0.4-4.7-0.9-9.5-1.4-14.4
				c-0.5-4.8-1-9.6-1.4-14.4c-1-11.1-1.7-22.2-2-33.3C1604.4,483.5,1604.7,472.4,1605.5,461.3z"/>
		</g>
		<g>
			<path class="st0" d="M590.1,722.8c-0.4-0.4-0.8-0.8-1.1-1.2s-0.7-0.8-1.1-1.2c-2.5-2.5-3.7-5.1-3.6-7.9c0.1-2.8,0.9-5.3,2.5-7.4
				c1.5-2.2,3.6-3.8,6.2-5c2.6-1.1,5.2-1.2,7.9-0.2c3.3-0.4,6.4,0.4,9.4,2.3c3,2,4.5,5.1,4.5,9.4c10.5,12.6,20.4,25,29.7,37.1
				c9.3,12.2,17.7,25.1,25.4,38.7c3.5,6.2,6.8,12.5,9.7,19c3,6.5,5.8,13.1,8.5,19.7c0-8.5,0.4-16.8,1.1-25.1
				c0.7-8.3,1.6-16.7,2.6-25.4c2.3-17.7,4.5-35.4,6.7-53.1c2.2-17.6,3.4-35.5,3.6-53.7c0-3.9,1.3-6.9,3.9-8.8c2.6-2,5.4-2.9,8.5-2.9
				s5.9,1,8.5,2.9c2.6,2,3.9,4.9,3.9,8.8c-0.2,18.6-1.5,36.9-3.9,54.9c-2.4,18.1-4.7,36.2-7,54.3c-1,9.3-1.9,18.4-2.5,27.4
				s-0.8,18.1-0.6,27.4c0.2,8.9,0.5,17.6,0.8,26.3s0.3,17.4-0.2,26.3c-0.2,3.1-1.2,5.6-2.9,7.6c-1.8,2-3.9,3.2-6.3,3.9
				c-2.5,0.6-5,0.5-7.4-0.3c-2.5-0.8-4.5-2.5-6.2-5c-4.7-7.2-8.8-14.8-12.1-22.7s-6.4-15.8-9.3-23.7c-2.9-7.6-5.9-15-9-22.1
				s-6.6-14.2-10.5-21.2c-5.2-9.3-10.7-18.2-16.6-26.6c-5.9-8.5-12.1-16.7-18.7-24.8c0,8.5,0,16.8,0,24.9c0,8.2,0.2,16.5,0.6,24.9
				c0.4,14.9,1.4,29.6,3.1,44.1c1.6,14.5,3.4,29.1,5.3,43.8c0.4,3.5-0.8,6.4-3.6,8.8c-2.8,2.4-5.6,3.6-8.5,3.6
				c-3.7,0-6.6-1.2-8.7-3.6c-2.1-2.4-3.3-5.3-3.7-8.8c-2.1-14.6-3.9-29.2-5.6-43.8c-1.7-14.5-2.7-29.2-3.1-44.1
				c-0.4-13-0.6-25.9-0.5-38.8C590.1,748.8,590.1,735.8,590.1,722.8z"/>
			<path class="st0" d="M757.8,784.1c3.9-5.4,8.6-10.1,14.1-14.2c5.5-4.1,11.3-7.4,17.5-9.7c6.2-2.4,12.6-3.6,19.2-3.7
				c6.6-0.1,13.2,1.2,19.8,3.9c6.4,2.5,12.2,5.8,17.3,10.1c5.2,4.2,9.2,9.6,12.1,16.2c2.3,5,3.6,10.3,4,16.1s-1.1,11-4.6,15.8
				c-3.1,4.3-6.9,7.6-11.3,9.9c-4.4,2.3-9.2,3.9-14.2,5c-5.1,1-10.2,1.5-15.5,1.5s-10.3-0.1-15-0.3c-5.4-0.2-10.7-0.6-15.9-1.2
				c-5.3-0.6-10.6-1.2-15.9-1.9c1.6,9.3,5,17.5,9.9,24.8c5,7.2,11.7,12.7,20.1,16.4c2.3,0.8,4,1.4,5.3,1.9c0.6,0.2,1.2,0.4,1.7,0.5
				s1.1,0.2,1.7,0.2c1.6,0.2,3,0.4,4.2,0.5c1.1,0.1,2.2,0.1,3.2-0.2c1.4-0.2,2.4-0.4,2.9-0.5s1.1-0.3,1.7-0.5c2.3-0.6,4.3-1.3,6-2.2
				c1.8-0.8,3.9-2.2,6.3-4c1.2-1,2.9-2.6,5-4.6c2.1-2.1,3.8-3.9,5.3-5.6c2.1-2.9,4.6-4.8,7.6-5.9c3-1,6-0.6,9.1,1.2
				c2.7,1.7,4.6,4.2,5.7,7.6c1.1,3.4,0.7,6.6-1.4,9.4c-6,8-13.1,14.9-21.2,20.6c-8.2,5.7-17.5,8.7-28,9.1
				c-8.5,0.4-16.6-1.1-24.4-4.5c-7.8-3.4-14.8-8-20.7-13.8c-7.4-7.2-13.3-15.6-17.6-25.1s-6.7-19.2-7.1-29.1
				c-1.9-1.4-3.2-3.2-4.2-5.4c-0.9-2.2-1.2-4.4-0.9-6.7s1.1-4.4,2.3-6.3c1.2-2,3.1-3.2,5.6-3.9C749.6,797.8,753.1,790.7,757.8,784.1
				z M832.1,791.5c-2.3-2.9-5.8-5.5-10.5-7.7c-3.9-1.6-8.5-2.5-13.8-2.5s-9.7,0.9-13.5,2.8c-4.7,2.3-9,5.4-12.7,9.4s-6.7,8.5-9,13.5
				c5,0.6,9.9,1.2,14.9,1.9c5,0.6,9.9,1,14.9,1.2c2.7,0,5.4,0,8,0c2.7,0,5.4-0.1,8-0.3c0.8,0,1.6,0,2.3-0.2c0.7-0.1,1.5-0.2,2.3-0.2
				c1.9-0.4,3.2-0.7,4.2-0.8c0.9-0.1,1.9-0.4,2.9-0.8c0.8-0.2,1.9-0.5,3.1-0.9c1-0.4,1.6-0.7,1.9-0.9c0.2-0.2,0.5-0.4,0.9-0.6
				l0.9-3.7c-0.4-0.8-0.7-1.6-0.8-2.3s-0.4-1.4-0.8-2c-0.2-0.6-0.7-1.5-1.4-2.8C833.4,793.4,832.7,792.3,832.1,791.5z"/>
			<path class="st0" d="M890,983.4c4.5,4.3,9.8,7.4,15.8,9.1c6,1.8,12,2.3,17.9,1.7c6-0.6,11.7-2.4,17-5.3
				c5.4-2.9,9.8-6.9,13.3-12.1c7.4-10.5,12.2-22.1,14.4-34.8s3-25.4,2.6-38.2c-9.9,1.6-20.1,2-30.5,1.1s-20.3-3.1-29.6-6.7
				c-4.7-1.9-9.2-4.1-13.5-6.7c-4.2-2.6-7.6-6.2-10.1-11c-4.3-8-6.2-16.9-5.6-26.6c0.4-9.3,2-18.3,4.8-27.1s5.9-17.5,9.4-26.2
				c1.9-4.1,3.9-8.5,6-13.2c2.2-4.6,5-8.8,8.5-12.5c3.5-3.9,7.5-6.9,12.1-9c4.5-2.1,9.4-3.3,14.5-3.7c-0.8-2.9-0.8-5.6,0-8.2
				c0.8-2.6,2.6-4.7,5.3-6.3s5.8-2.1,9.4-1.2c3.6,0.8,6.1,2.7,7.6,5.6c0.8,1.9,1.6,3.7,2.3,5.6c0.7,1.9,1.4,3.7,2,5.6
				c4.1,11.1,7.9,22.4,11.3,33.7c3.4,11.4,6.7,22.8,9.7,34.4c3.7,13.6,6.5,27.4,8.4,41.5c1.9,14,2.6,28.3,2.2,42.7
				c-0.2,8-0.9,16.3-2,24.8s-3,16.6-5.7,24.4c-2.7,7.8-6.2,15.3-10.5,22.4c-4.3,7.1-9.9,13.3-16.7,18.4c-6.4,5-13.5,8.5-21.2,10.7
				s-15.6,3-23.5,2.6s-15.7-2.2-23.2-5.3s-14.2-7.4-20-13c-2.9-2.7-4.1-5.6-3.7-8.8c0.4-3.2,1.7-5.9,3.9-8c2.2-2.2,4.8-3.5,8-3.9
				C884.1,979.6,887.1,980.7,890,983.4z M924.3,876.6c7.2,1.9,14.7,3.2,22.4,3.9s15.2,0.3,22.4-1.4c-1.2-10.5-3-20.6-5.4-30.3
				s-5-19.5-7.9-29.4c-1.7-5.8-3.4-11.5-5.1-17c-1.8-5.6-3.6-11.1-5.4-16.7c-0.6,0.4-1.3,0.7-2.2,0.8c-0.8,0.1-1.8,0.3-2.8,0.5
				c-6.2,0-10.9,2.8-14.2,8.4c-2.3,3.5-4.1,7.2-5.6,11.1c-0.4,1-0.8,2-1.2,2.9s-0.8,1.9-1.2,2.9c-3.1,7.4-5.7,14.6-7.9,21.5
				s-3.5,13.7-3.9,20.3v5.6c0.2,1.4,0.4,2.6,0.6,3.4c0.4,1.9,0.7,3,0.8,3.4s0.7,1.4,1.7,3.1c1.2,1,2.4,1.9,3.4,2.5s1.6,1,1.9,1.2
				c1.6,0.6,3.2,1.2,4.8,1.9C921.1,875.7,922.7,876.2,924.3,876.6z"/>
			<path class="st0" d="M1093,761.5c6.6-0.8,13.5-1.1,20.7-0.8s14.1,1.5,20.7,3.7s12.6,5.4,17.9,9.7c5.4,4.3,9.5,10,12.4,17
				c2.1,5,3.1,10,3.2,15c0.1,5.1-0.6,9.9-2.2,14.5c-1.5,4.6-3.8,9.1-6.8,13.3s-6.4,8.1-10.4,11.6c-8.5,7.6-17.7,14.1-27.9,19.5
				c-10.1,5.4-20.7,9.5-31.9,12.4c-4.7,1.2-9.6,2.3-14.7,3.2s-10.2,1.4-15.3,1.4c-5.2,0-10.2-0.6-15.2-1.7c-5-1.1-9.6-3-13.9-5.7
				c-3.1-1.9-5-4.3-5.6-7.4c-1.2-3.5-2.6-6.8-4-9.9c-1.4-3.1-2.8-6.3-4.2-9.6c-1.3-3.3-2.4-6.6-3.2-9.9c-0.8-3.3-1.2-6.7-1.2-10.2
				c0-7,1.5-13.7,4.5-20s7.1-11.8,12.2-16.6c8.7-8.3,18.7-14.9,30-19.8C1069.7,766.4,1081.2,763.1,1093,761.5z M1128,788.1
				c-5.6-2.1-11.6-3.1-17.9-3.1c-6.8-0.2-13.6,0.5-20.4,2s-13.3,3.7-19.5,6.3c-5.8,2.3-11.7,5.4-17.8,9.4c-6.1,4-10.6,8.9-13.5,14.7
				c-1.7,3.1-2.4,6.2-2.3,9.4s0.6,6.4,1.5,9.6c0.9,3.2,2.2,6.4,3.7,9.6c1.5,3.2,2.9,6.3,4.2,9.4c3.3,0.8,5.4,1.2,6.2,1.2
				c0.4,0.2,0.9,0.3,1.5,0.3s1.1,0,1.5,0c4.1,0.4,7.8,0.3,11.1-0.3c2.3,0,5.2-0.4,8.7-1.2c5.4-1,10.5-2.4,15.5-4.2s9.5-3.7,13.6-5.7
				c4.7-2.3,9.4-4.7,13.9-7.4s8.4-5.5,11.5-8.4c2.1-1.9,4-3.8,5.9-5.9c1-1,1.8-1.9,2.2-2.5c1-1.4,1.9-2.5,2.5-3.2s1.1-1.6,1.5-2.6
				c0.8-1.4,1.2-2.6,1.2-3.4c0.2-0.4,0.4-0.9,0.5-1.5s0.3-1.1,0.5-1.5v-3.4c-0.2-0.8-0.3-1.4-0.3-1.9c0-0.4-0.1-0.8-0.3-1.2
				c-0.6-1.4-1.2-2.5-1.7-3.2s-1.1-1.5-1.7-2.3c0.2,0.2-0.1-0.1-0.8-0.9c-0.7-0.8-1.2-1.3-1.4-1.5l-2.5-2.5c-1-0.6-2.2-1.3-3.4-2.2
				C1130.4,789.1,1129.2,788.5,1128,788.1z M1107.2,697.1c2.7-2.1,5.6-3.2,8.7-3.6c3.1-0.3,6,0.9,8.7,3.6c2.3,2.3,3.5,5.2,3.7,8.8
				s-1,6.6-3.7,8.8c-14.9,11.4-30.3,21.1-46.4,29.4c-3.5,1.9-6.8,2.1-9.9,0.8s-5.4-3.3-7-6c-1.5-2.7-2.1-5.6-1.7-8.7
				c0.4-3.1,2.4-5.6,5.9-7.4c7.4-3.7,14.6-7.6,21.5-11.8C1093.9,706.9,1100.6,702.3,1107.2,697.1z"/>
			<path class="st0" d="M1275.6,880c0.8,2.9,0.4,6-1.2,9.3c-1.7,3.3-4.1,5.3-7.4,5.9c-11.1,1.9-22.2,1.7-33.1-0.5s-21-6.9-30.3-14.1
				c-9.1-7.2-15.5-16.5-19.3-27.7s-4.5-22.5-2-33.9c2.3-10.1,7-18.9,14.2-26.3c7.2-7.4,15.5-13.2,24.8-17.3c8.3-3.9,16.9-7,26-9.3
				s18.2-3,27.2-2.2c3.5,0.4,6.4,1.7,8.8,3.9s3.6,5,3.6,8.5c0,3.1-1.2,6-3.6,8.7s-5.3,3.9-8.8,3.7c-6.6-0.6-13.1-0.3-19.5,0.9
				s-12.6,3.2-18.6,5.9c-3.5,1.7-7,3.4-10.4,5.3c-3.4,1.9-6.3,3.9-8.8,6.2c-2.7,2.5-4.9,5-6.7,7.4c-1.8,2.5-3,5.4-3.9,8.7
				c-0.8,3.3-1.1,6.8-0.9,10.5s0.9,7.4,2,11s2.7,6.9,4.8,9.9c2.1,3,4.5,5.5,7.4,7.6c6,4.3,12.5,7.3,19.7,8.8
				c7.1,1.5,14.1,1.7,20.9,0.5c3.3-0.6,6.4-0.2,9.3,1.2C1272.6,874,1274.6,876.5,1275.6,880z"/>
			<path class="st0" d="M1304.4,901.1c1.6-9.9,3.6-19.7,5.7-29.2c2.2-9.6,3.8-19.3,4.8-29.2c0.8-9.7,1-19.2,0.5-28.6
				c-0.5-9.4,0-18.9,1.7-28.6c0.4-3.3,2.3-5.8,5.7-7.4c3.4-1.6,6.5-2.1,9.4-1.2c3.5,1,5.9,3,7.3,5.9c1.3,2.9,1.8,6,1.4,9.3
				c-0.8,4.7-1.2,9.6-1.1,14.5c0.1,5,0.3,9.9,0.5,14.9c0,9.5-0.6,19-1.9,28.5c-1.2,9.9-2.8,19.6-4.8,29.1s-3.8,19.1-5.4,28.8
				c-0.6,3.3-2.6,5.8-5.9,7.4c-3.3,1.6-6.4,2.1-9.3,1.2c-3.5-1-6-3-7.4-5.9C1304.2,907.5,1303.8,904.4,1304.4,901.1z M1319.2,758.7
				c-1.4-0.4-2.9-1.1-4.3-2s-2.5-2.1-3.1-3.6c-0.6-1.6-1.1-3.1-1.5-4.3s-0.6-2.7-0.6-4.3c0-1.9,0.3-3.7,0.9-5.6c0.8-3.7,2.5-6.4,5-8
				c0.8-1.2,2-2.2,3.4-2.8c2.3-1.4,4.8-2.2,7.7-2.3c2.9-0.1,5.5,0.7,7.7,2.3c1,0.8,2.1,1.7,3.1,2.6c1,0.9,1.9,2.1,2.5,3.6
				c0.4,1,0.9,2.2,1.4,3.4s0.7,2.5,0.5,3.7c-0.2,1.4-0.4,2.8-0.6,4s-0.7,2.4-1.5,3.4c-1,1.4-1.9,2.5-2.5,3.1s-1.7,1.4-3.1,2.5
				c-0.8,0.8-2.1,1.4-3.7,1.9C1326,758.7,1322.3,759.5,1319.2,758.7z"/>
			<path class="st0" d="M1450.4,761.5c6.6-0.8,13.5-1.1,20.7-0.8s14.1,1.5,20.7,3.7s12.6,5.4,17.9,9.7c5.4,4.3,9.5,10,12.4,17
				c2.1,5,3.1,10,3.2,15c0.1,5.1-0.6,9.9-2.2,14.5c-1.5,4.6-3.8,9.1-6.8,13.3s-6.4,8.1-10.4,11.6c-8.5,7.6-17.7,14.1-27.9,19.5
				c-10.1,5.4-20.7,9.5-31.9,12.4c-4.7,1.2-9.6,2.3-14.7,3.2s-10.2,1.4-15.3,1.4c-5.2,0-10.2-0.6-15.2-1.7c-5-1.1-9.6-3-13.9-5.7
				c-3.1-1.9-5-4.3-5.6-7.4c-1.2-3.5-2.6-6.8-4-9.9c-1.4-3.1-2.8-6.3-4.2-9.6c-1.3-3.3-2.4-6.6-3.2-9.9c-0.8-3.3-1.2-6.7-1.2-10.2
				c0-7,1.5-13.7,4.5-20s7.1-11.8,12.2-16.6c8.7-8.3,18.7-14.9,30-19.8C1427.1,766.4,1438.7,763.1,1450.4,761.5z M1485.4,788.1
				c-5.6-2.1-11.6-3.1-17.9-3.1c-6.8-0.2-13.6,0.5-20.4,2s-13.3,3.7-19.5,6.3c-5.8,2.3-11.7,5.4-17.8,9.4c-6.1,4-10.6,8.9-13.5,14.7
				c-1.7,3.1-2.4,6.2-2.3,9.4s0.6,6.4,1.5,9.6c0.9,3.2,2.2,6.4,3.7,9.6c1.5,3.2,2.9,6.3,4.2,9.4c3.3,0.8,5.4,1.2,6.2,1.2
				c0.4,0.2,0.9,0.3,1.5,0.3s1.1,0,1.5,0c4.1,0.4,7.8,0.3,11.1-0.3c2.3,0,5.2-0.4,8.7-1.2c5.4-1,10.5-2.4,15.5-4.2s9.5-3.7,13.6-5.7
				c4.7-2.3,9.4-4.7,13.9-7.4s8.4-5.5,11.5-8.4c2.1-1.9,4-3.8,5.9-5.9c1-1,1.8-1.9,2.2-2.5c1-1.4,1.9-2.5,2.5-3.2s1.1-1.6,1.5-2.6
				c0.8-1.4,1.2-2.6,1.2-3.4c0.2-0.4,0.4-0.9,0.5-1.5s0.3-1.1,0.5-1.5v-3.4c-0.2-0.8-0.3-1.4-0.3-1.9c0-0.4-0.1-0.8-0.3-1.2
				c-0.6-1.4-1.2-2.5-1.7-3.2s-1.1-1.5-1.7-2.3c0.2,0.2-0.1-0.1-0.8-0.9c-0.7-0.8-1.2-1.3-1.4-1.5l-2.5-2.5c-1-0.6-2.2-1.3-3.4-2.2
				C1487.9,789.1,1486.6,788.5,1485.4,788.1z"/>
		</g>
	</g>
	<g>
		<path class="st1" d="M449.2,523.3c-0.7,3.1-2.4,5.7-5,7.8s-5.9,2.8-10,2c-0.6-0.1-4.6-1.3-7.5-2.1c-1.6,1-25.9-5.8-50.2,15.1
			c-24.9,21.4-31.7,46.8-35.3,58.9c-4.2,14.2-10,58.6-15.2,82.3c-5.6,25.5-17.5,47.1-39.4,64.8c-24.1,19.4-57.2,24.2-67.6,23.7
			c-4.5-0.2-8.9-0.5-13.3-1.5c-4-0.8-6.7-2.7-8.1-5.8c-1.4-3-1.7-7.8-1-10.9c0.7-3.1,2.4-5.7,5-7.8s5.9-2.8,10-2
			c0.6,0.1,4.6,1.3,7.5,2.1c1.6-1,25.9,5.8,50.2-15.1c24.9-21.4,32.6-48.3,35.3-60.6c3.3-14.5,8.6-59,15.2-80.5
			c7.7-24.9,17.5-47.1,39.4-64.8c24.1-19.4,57.2-24.1,67.6-23.7c4.5,0.2,8.9,0.5,13.3,1.5c4,0.8,6.7,2.7,8.1,5.8
			C449.6,515.5,450,520.2,449.2,523.3"/>
		<path class="st1" d="M376.6,734.8c24.3,20.9,48.6,14.2,50.2,15.1c2.9-0.8,6.9-2,7.5-2.1c4-0.8,7.3-0.1,10,2c2.6,2.1,4.3,4.7,5,7.8
			s0.4,7.8-1,10.9c-1.4,3.1-4.1,5-8.1,5.8c-4.4,1-8.9,1.3-13.3,1.5c-10.4,0.4-43.5-4.3-67.6-23.7c-10.6-8.5-18.3-18.2-24.4-28.6
			c5.4-9.7,9.2-20.1,11.8-31.3C351.6,704.9,360.2,720.7,376.6,734.8"/>
		<path class="st1" d="M299.8,590.5c-4.9-13.3-13.9-30.1-30.5-44.4C245,525.2,220.7,532,219.1,531c-2.9,0.8-6.9,1.9-7.5,2.1
			c-4,0.8-7.4,0.1-10-2s-4.3-4.7-5-7.8s-0.4-7.8,1-10.9c1.4-3.1,4.1-5,8.1-5.8c4.4-1,8.9-1.3,13.3-1.5c10.4-0.4,43.5,4.3,67.6,23.7
			c10.2,8.2,18.2,17.3,24.4,27.2c-3.1,7.2-5.7,14.6-8.1,22.3C301.9,581.9,300.8,586,299.8,590.5"/>
		<path class="st1" d="M448.8,805.3c-7.3,2.9-14.8,5.3-22.6,7.2c-3.3,0.7-6,0.2-8.1-1.4c-2.2-1.6-3.6-3.7-4.3-6.1
			c-0.7-2.4-0.5-4.9,0.5-7.4s3.2-4.2,6.5-5c7.4-1.9,14.5-4.2,21.3-6.9s13.8-5.3,21.1-7.9c5-1.7,9.8-3.6,14.5-5.6
			c4.6-2,9-4.4,13.2-7.4c-5-2.9-10.2-5.6-15.7-8s-10.8-5.1-15.8-8c-6-3.3-12-6.7-17.8-10.3c-5.9-3.6-11.8-7.2-17.8-10.9
			c-2.8-1.7-4.3-4-4.7-6.7c-0.3-2.8,0.1-5.2,1.4-7.5c1.3-2.2,3.2-3.8,5.7-4.8c2.5-0.9,5.2-0.6,8.1,1.2c5.8,3.6,11.7,7.2,17.6,10.8
			s11.8,7.1,17.8,10.6c7.7,4.1,15.5,8.1,23.4,11.8c7.8,3.7,15.1,8.3,21.8,13.8c2.2,1.9,3.3,4.3,3.1,7.4c-0.2,3-1.2,5.5-3.1,7.3
			c-6,6.2-12.8,11.2-20.3,15.1c-7.5,3.9-15.3,7.3-23.4,10.2C463.5,799.6,456.1,802.4,448.8,805.3"/>
		<path class="st1" d="M471.1,485.5c8.1,2.9,15.9,6.3,23.4,10.2c7.5,3.9,14.3,8.9,20.3,15.1c1.9,1.9,2.9,4.4,3.1,7.4
			c0.2,3-0.9,5.5-3.1,7.3c-6.7,5.5-14,10.1-21.8,13.8s-15.6,7.6-23.4,11.7c-6,3.5-12,7-17.8,10.6c-5.9,3.6-11.7,7.2-17.6,10.9
			c-2.9,1.7-5.7,2.1-8.1,1.2c-2.5-0.9-4.4-2.5-5.7-4.8c-1.3-2.2-1.8-4.7-1.4-7.5c0.3-2.8,1.9-5,4.7-6.7c6-3.6,12-7.2,17.8-10.9
			c5.8-3.6,11.8-7.1,17.8-10.3c5-2.9,10.2-5.6,15.8-8c5.5-2.4,10.8-5.1,15.7-8c-4.1-2.9-8.5-5.4-13.2-7.4c-4.7-2-9.5-3.8-14.5-5.5
			c-7.2-2.6-14.3-5.2-21.1-7.9c-6.8-2.7-13.9-5-21.3-6.9c-3.3-0.9-5.4-2.5-6.5-5c-1-2.5-1.2-5-0.5-7.4s2.1-4.4,4.3-6.1
			c2.2-1.6,4.9-2.1,8.1-1.4c7.7,1.9,15.3,4.3,22.6,7.2C456.1,480.2,463.5,483,471.1,485.5"/>
		<g>
			<path class="st1" d="M621.8,568.2c-9.7-5.6-17.8-12.7-24.3-21.4s-11.5-18.2-15-28.5s-5.7-21.1-6.5-32.3
				c-0.8-11.2-0.5-22.3,0.9-33.3c0.8-6.4,1.9-13,3.2-19.8s3.1-13.5,5.4-20.1c2.3-6.6,5.1-12.9,8.5-18.9s7.5-11.3,12.2-16.1
				c8.3-8,17.7-13,28.5-14.9c10.7-1.9,21.5-0.6,32.2,3.7c11.1,4.5,21.4,11.1,30.6,19.7c9.3,8.6,16.5,18.3,21.7,29.2
				c6,12.4,9.3,25.4,10.1,39.1c0.7,13.7-0.7,27.2-4.2,40.4c-3.5,13.6-8.8,26.4-15.8,38.4c2.3,2.9,4.6,5.7,7,8.5s4.9,5.6,7.6,8.5
				c2.7,2.9,3.8,6,3.2,9.3c-0.5,3.3-1.9,6-4,8.2c-2.2,2.2-4.8,3.4-8,3.7s-6.1-1-8.8-3.9c-3.9-4.1-7.7-8.6-11.5-13.3
				c-4.1,5-9,9.9-14.5,14.9c-2.7,2.3-5.6,4.8-8.8,7.6s-6.7,5.3-10.4,7.4c-3.7,2.2-7.5,3.8-11.3,5c-3.8,1.1-7.7,1.2-11.6,0.2
				c-5.4-1.2-9.2-3.9-11.5-8C624.5,577.4,622.8,572.9,621.8,568.2z M607.9,425.5c-3.9,12.4-6.4,25.1-7.4,38.2s-0.1,25.8,2.8,38.2
				c2.3,8.7,5.5,16.7,9.6,24s9.7,13.4,16.7,18.1c0.6-0.2,1.6-0.3,3.1-0.3c2.7,0,5,0.7,6.8,2c1.9,1.3,3.3,3.2,4.3,5.4
				c4.5,1.9,7.1,5.1,7.7,9.6c2.7-1.9,4.8-3.4,6.5-4.6c1.6-1.2,3.3-2.7,5-4.3c3.1-2.9,6-5.8,8.8-8.7s5.3-6,7.6-9.3
				c-2.7-3.9-5.4-7.8-8.2-11.6s-5.6-7.6-8.5-11.3c-2.3-2.7-3.5-5.6-3.7-8.8c-0.2-3.2,1-6,3.7-8.5c2.3-2.3,5.2-3.5,8.7-3.7
				s6.4,1,8.7,3.7c2.3,2.9,4.5,5.8,6.7,8.8s4.4,5.9,6.7,8.8c3.3-7.2,6-14.5,8-22c2.1-7.4,3.2-14.9,3.6-22.4
				c0.3-7.5-0.2-14.9-1.5-22.1s-3.9-14-7.6-20.4c-2.5-4.3-5.3-8.6-8.5-12.7s-6.8-7.8-10.8-11.1c-4-3.3-8.3-6.1-12.8-8.5
				s-9.3-4-14.2-4.8c-3.5-0.8-7.4-0.8-11.6,0c-4.2,0.8-7.8,2.6-10.7,5.3c-5,4.3-8.9,9.4-11.9,15.2
				C612.1,413.3,609.7,419.3,607.9,425.5z"/>
			<path class="st1" d="M890.1,470.7c0.2,17.7,1.4,35.5,3.7,53.2s5.3,35.3,9,52.6c0.8,3.9,0.2,7.2-2,9.7c-2.2,2.6-4.7,4.3-7.6,5.1
				c-2.9,0.8-5.8,0.6-8.7-0.6c-2.9-1.2-4.7-3.8-5.6-7.7c-2.5-11.8-4.6-23.3-6.5-34.7c-0.8,1-1.5,2-2.2,2.9c-0.6,0.9-1.3,1.9-2.2,2.9
				c-4.1,5-8.9,9.2-14.2,12.8c-5.4,3.6-11.1,6.4-17.2,8.4c-6.1,2-12.3,3-18.7,3.2s-12.7-0.5-18.9-2.2c-10.9-3.1-19.3-8.5-25.1-16.1
				s-9.9-16.3-12.4-26.2c-2.5-9.8-3.9-20-4.3-30.6c-0.4-10.6-0.7-20.5-0.9-29.6c0-3.9,1.2-6.9,3.7-8.8c2.5-2,5.3-2.9,8.4-2.9
				c3.1,0,5.9,1,8.5,2.9c2.6,2,4,4.9,4.2,8.8c0.2,8.3,0.4,16.6,0.5,25.1s1,16.4,2.6,23.8c0.8,4.1,1.8,7.7,2.8,10.7s2.7,6.1,5,9.4
				c1,1.4,1.6,2.3,1.7,2.5c0.1,0.2,0.4,0.4,0.8,0.6c3.1,2.5,5.2,4,6.2,4.5s2.3,1,3.7,1.4c8.7,2.5,17.4,2.2,26.3-0.8
				c8.9-3,16-8.4,21.4-16.2c3.1-5,5.4-10.1,7-15.5c1.5-5.4,2.6-10.8,3.2-16.2c0.6-5.5,1.1-11,1.4-16.7c0.3-5.7,0.9-11.3,1.7-16.9
				c0-6.2,1.6-10.3,4.8-12.2c3.2-2,6.5-2.6,10.1-2c2.1,0.6,3.7,1.3,5,2.2l2.5,2.2C889.9,463.6,890.7,467.2,890.1,470.7z"/>
			<path class="st1" d="M948.6,571.6c-7-3.1-12.5-7.4-16.6-12.8c-4-5.5-6.8-11.5-8.4-18.1c-1.5-6.6-2-13.5-1.4-20.6s2.1-14,4.3-20.6
				c1.9-5.2,4-10.5,6.3-16.1c2.4-5.6,5.2-10.7,8.5-15.5c3.3-4.7,7.2-8.8,11.8-12.2c4.5-3.4,9.9-5.6,16.1-6.7
				c6.4-1,12.8-1.4,19.3-1.1s12.9,1,19.3,2c2.9,0.4,5.7,1.1,8.4,2s5.4,1.9,8,2.9c0.2-3.1,1.6-5.7,4.2-7.7c2.6-2.1,5.3-3.1,8.2-3.1
				c3.5,0,6.3,1.2,8.5,3.6s3.5,5.2,3.9,8.5c1,9.5,1.5,19,1.4,28.5s-0.4,19-0.9,28.5s-0.9,19-1.2,28.5c-0.3,9.5-0.3,19,0.2,28.5
				c0.2,3.9-1,6.9-3.6,8.8c-2.6,2-5.4,2.9-8.5,2.9s-5.9-1-8.5-2.9c-2.6-2-4-4.9-4.2-8.8c-11.8,5-24.2,7.8-37.4,8.5
				C973.1,579.3,960.5,576.9,948.6,571.6z M950.8,504.4c-1.2,3.7-2.4,7.9-3.4,12.7c-1,4.7-1.3,9.3-0.9,13.6c0.4,4.3,1.8,8.3,4,11.9
				c2.3,3.6,6,6.1,11.1,7.6c10.5,3.3,21.1,4.2,31.7,2.8c10.6-1.4,20.6-5.2,29.9-11.1c0.8-10.1,1.5-19.9,2-29.4s0.7-19.1,0.5-28.8
				c-3.5-2.3-7.1-4.3-10.7-6c-3.6-1.8-7.6-2.9-11.9-3.6c-4.3-0.6-8.9-1.1-13.8-1.4c-4.8-0.3-9.5-0.3-14.1,0.2
				c-0.4,0-1.5,0.3-3.2,0.8c-1.8,0.5-2.7,0.9-2.9,1.1c-2.1,1-3.9,2.7-5.6,5c-2.7,3.7-5.1,7.7-7.1,11.9
				C954.3,495.8,952.4,500.1,950.8,504.4z"/>
			<path class="st1" d="M1099.3,337c3.7,0,6.6,1.2,8.7,3.7s3.3,5.4,3.7,8.7c2.1,19.6,3.2,39.2,3.4,58.8c0.2,19.6-0.1,39.2-0.8,58.8
				c-0.7,19.6-1.8,39.2-3.2,58.8c-1.4,19.6-2.9,39.1-4.3,58.5c-0.4,3.5-1.7,6.4-3.9,8.8c-2.2,2.4-5,3.6-8.5,3.6
				c-3.1,0-6-1.2-8.7-3.6c-2.7-2.4-3.9-5.3-3.7-8.8c1.4-19.4,2.9-38.9,4.5-58.5c1.5-19.6,2.7-39.2,3.4-58.8
				c0.7-19.6,1-39.2,0.8-58.8c-0.2-19.6-1.3-39.2-3.4-58.8c-0.4-3.3,0.7-6.2,3.4-8.7C1093.3,338.2,1096.2,337,1099.3,337z"/>
			<path class="st1" d="M1296.4,666.3c-5.6,2.3-11.2,2.5-16.9,0.8c-5.7-1.8-11-3.9-15.9-6.3c-4.1-2.3-8-4.7-11.8-7.3
				c-3.7-2.6-6.8-5.9-9.3-10.1c-2.3-3.7-4-7.6-5.3-11.8c-1.2-4.1-2.2-8.3-2.8-12.4c-2.5-12.4-4-24.9-4.6-37.4c0-3.3-0.1-6.5-0.3-9.7
				c-0.2-3.2-0.4-6.4-0.6-9.7c-10.5-1-21-2.6-31.6-4.8c-10.5-2.2-20.2-5.9-29.1-11.3c-6-3.7-10.9-8-14.7-13c-3.8-5-7-10.6-9.4-17
				c-1.9-5.2-3-10.6-3.4-16.4s0-11.5,1.2-17c1.2-5.6,3.2-10.8,6-15.8s6.3-9.2,10.7-12.7c5.4-4.1,11.1-7.4,17.3-9.9
				c6.2-2.5,12.5-4.5,18.9-6.2c6.8-1.9,13.7-3.3,20.7-4.5c7-1.1,14.1-1.9,21.4-2.3c0.6-5,2.6-8.2,5.9-9.7s6.5-1.9,9.6-1.1
				c3.5,1,5.9,2.9,7.3,5.7c1.3,2.8,1.8,5.9,1.4,9.4c-1.9,11.1-3.1,22.3-3.9,33.4c-0.7,11.1-1.5,22.4-2.3,33.7
				c-0.4,5.6-0.9,11.1-1.4,16.7s-0.8,11.1-0.8,16.7c-0.2,5.6-0.1,11.1,0.3,16.7c0.4,5.6,0.8,11.1,1.2,16.7
				c0.4,9.3,0.9,18.8,1.4,28.6s2.4,19.1,5.7,28c0.4,0.8,0.7,1.3,0.8,1.5c0.1,0.2,0.5,0.8,1.1,1.9c1.9,2.5,3.2,4.1,4.2,4.8
				c0.9,0.7,2.2,1.5,3.9,2.3c2.7,1.2,5.7,2.8,9,4.6c3.3,1.9,6.5,2.2,9.6,0.9c3.1-1.2,6.1-0.8,9.1,1.2c3,2.1,5,4.5,6,7.4
				c1,3.5,0.6,6.6-1.2,9.3C1302,663.1,1299.5,665,1296.4,666.3z M1230.2,505.4c0.4-8.3,0.9-16.5,1.4-24.6s1.2-16.3,2-24.6
				c-5.2,0.4-10.2,1-15.2,1.9c-5,0.8-9.9,2-14.9,3.4c-4.7,1.2-9.6,2.7-14.5,4.3c-5,1.7-9.5,3.9-13.6,6.8c-3.1,2.3-5.4,5-7,8
				c-1.5,3.1-2.5,6.4-2.9,9.9s-0.3,7,0.3,10.5c0.6,3.5,1.4,6.7,2.5,9.6c0.6,1,1,1.7,1.1,2c0.1,0.3,0.4,0.7,0.8,1.1
				c0.4,0.6,1,1.6,1.9,2.9c0.8,1.3,1,1.8,0.6,1.4c0.8,0.8,1.6,1.6,2.3,2.3c0.7,0.7,1.5,1.4,2.3,2c1.9,1.4,3,2.3,3.6,2.5
				c0.5,0.2,1.1,0.5,1.7,0.9c3.3,1.9,6.5,3.3,9.6,4.3s6.7,2.1,10.8,3.1c4.1,1,8.3,1.9,12.5,2.6c4.2,0.7,8.4,1.3,12.5,1.7
				c0.2-5.4,0.5-10.7,0.9-16.1C1229.4,516.1,1229.8,510.7,1230.2,505.4z"/>
			<path class="st1" d="M1418.7,470.7c0.2,17.7,1.4,35.5,3.7,53.2c2.3,17.7,5.3,35.3,9,52.6c0.8,3.9,0.2,7.2-2,9.7
				c-2.2,2.6-4.7,4.3-7.6,5.1s-5.8,0.6-8.7-0.6c-2.9-1.2-4.7-3.8-5.6-7.7c-2.5-11.8-4.6-23.3-6.5-34.7c-0.8,1-1.5,2-2.2,2.9
				c-0.6,0.9-1.3,1.9-2.2,2.9c-4.1,5-8.9,9.2-14.2,12.8c-5.4,3.6-11.1,6.4-17.2,8.4s-12.3,3-18.7,3.2c-6.4,0.2-12.7-0.5-18.9-2.2
				c-10.9-3.1-19.3-8.5-25.1-16.1c-5.8-7.6-9.9-16.3-12.4-26.2c-2.5-9.8-3.9-20-4.3-30.6s-0.7-20.5-0.9-29.6c0-3.9,1.2-6.9,3.7-8.8
				c2.5-2,5.3-2.9,8.4-2.9s5.9,1,8.5,2.9c2.6,2,4,4.9,4.2,8.8c0.2,8.3,0.4,16.6,0.5,25.1s1,16.4,2.6,23.8c0.8,4.1,1.8,7.7,2.8,10.7
				s2.7,6.1,5,9.4c1,1.4,1.6,2.3,1.7,2.5s0.4,0.4,0.8,0.6c3.1,2.5,5.2,4,6.2,4.5s2.3,1,3.7,1.4c8.7,2.5,17.4,2.2,26.3-0.8
				s16-8.4,21.4-16.2c3.1-5,5.4-10.1,7-15.5c1.5-5.4,2.6-10.8,3.2-16.2c0.6-5.5,1.1-11,1.4-16.7s0.9-11.3,1.7-16.9
				c0-6.2,1.6-10.3,4.8-12.2c3.2-2,6.5-2.6,10.1-2c2.1,0.6,3.7,1.3,5,2.2l2.5,2.2C1418.5,463.6,1419.3,467.2,1418.7,470.7z"/>
			<path class="st1" d="M1464.2,459.9c3.9-5.4,8.6-10.1,14.1-14.2s11.3-7.4,17.5-9.7c6.2-2.4,12.6-3.6,19.2-3.7s13.2,1.2,19.8,3.9
				c6.4,2.5,12.2,5.8,17.3,10.1c5.2,4.2,9.2,9.6,12.1,16.2c2.3,5,3.6,10.3,4,16.1c0.4,5.8-1.1,11-4.6,15.8
				c-3.1,4.3-6.9,7.6-11.3,9.9s-9.2,3.9-14.2,5c-5.1,1-10.2,1.5-15.5,1.5s-10.3-0.1-15-0.3c-5.4-0.2-10.7-0.6-15.9-1.2
				c-5.3-0.6-10.6-1.2-15.9-1.9c1.6,9.3,5,17.5,9.9,24.8c5,7.2,11.7,12.7,20.1,16.4c2.3,0.8,4,1.4,5.3,1.9c0.6,0.2,1.2,0.4,1.7,0.5
				s1.1,0.2,1.7,0.2c1.6,0.2,3,0.4,4.2,0.5c1.1,0.1,2.2,0.1,3.2-0.2c1.4-0.2,2.4-0.4,2.9-0.5s1.1-0.3,1.7-0.5c2.3-0.6,4.3-1.3,6-2.2
				c1.8-0.8,3.9-2.2,6.3-4c1.2-1,2.9-2.6,5-4.6c2.1-2.1,3.8-3.9,5.3-5.6c2.1-2.9,4.6-4.8,7.6-5.9c3-1,6-0.6,9.1,1.2
				c2.7,1.7,4.6,4.2,5.7,7.6c1.1,3.4,0.7,6.6-1.4,9.4c-6,8-13.1,14.9-21.2,20.6c-8.2,5.7-17.5,8.7-28,9.1
				c-8.5,0.4-16.6-1.1-24.4-4.5s-14.8-8-20.7-13.8c-7.4-7.2-13.3-15.6-17.6-25.1c-4.3-9.5-6.7-19.2-7.1-29.1
				c-1.9-1.4-3.2-3.2-4.2-5.4c-0.9-2.2-1.2-4.4-0.9-6.7c0.3-2.3,1.1-4.4,2.3-6.3c1.2-2,3.1-3.2,5.6-3.9
				C1455.9,473.6,1459.4,466.5,1464.2,459.9z M1538.4,467.3c-2.3-2.9-5.8-5.5-10.5-7.7c-3.9-1.6-8.5-2.5-13.8-2.5s-9.7,0.9-13.5,2.8
				c-4.7,2.3-9,5.4-12.7,9.4s-6.7,8.5-9,13.5c5,0.6,9.9,1.2,14.9,1.9c5,0.6,9.9,1,14.9,1.2c2.7,0,5.4,0,8,0c2.7,0,5.4-0.1,8-0.3
				c0.8,0,1.6,0,2.3-0.2c0.7-0.1,1.5-0.2,2.3-0.2c1.9-0.4,3.2-0.7,4.2-0.8c0.9-0.1,1.9-0.4,2.9-0.8c0.8-0.2,1.9-0.5,3.1-0.9
				c1-0.4,1.6-0.7,1.9-0.9c0.2-0.2,0.5-0.4,0.9-0.6l0.9-3.7c-0.4-0.8-0.7-1.6-0.8-2.3c-0.1-0.7-0.4-1.4-0.8-2
				c-0.2-0.6-0.7-1.5-1.4-2.8C1539.7,469.1,1539.1,468.1,1538.4,467.3z"/>
			<path class="st1" d="M1598.2,454c0.2-3.9,1.6-6.9,4.3-8.8c2.7-2,5.6-2.9,8.7-2.9s5.8,1,8.2,2.9c2.4,2,3.5,4.9,3.2,8.8
				c0,1.2-0.1,2.5-0.2,3.9c-0.1,1.3-0.2,2.6-0.2,3.9c6.6-3.3,13.6-6.1,20.9-8.5s14.6-3.9,22-4.5c7.3-0.6,14.4,0,21.4,1.7
				c6.9,1.8,13.3,5.1,19,10.1c2.9,2.7,4.2,5.6,3.9,8.7c-0.3,3.1-1.5,5.7-3.7,7.9c-2.2,2.2-4.9,3.5-8.2,4c-3.3,0.5-6.5-0.5-9.6-2.9
				c-2.3-1.9-4.8-3.2-7.6-4c-2.8-0.8-5.8-1.2-9-1.1s-6.4,0.5-9.6,1.1s-6.2,1.3-9.1,2.2c-10.9,3.5-21.1,8.2-30.6,13.9
				c0.4,10.1,1,20.2,1.9,30.3c0.8,8.5,1.5,17.2,2.2,26.2c0.6,9,2.4,17.5,5.3,25.5c1.2,3.7,1,6.9-0.8,9.4c-1.8,2.6-4.1,4.3-7.1,5.1
				s-6.1,0.6-9.3-0.6c-3.2-1.2-5.4-3.7-6.7-7.4c-1.7-4.7-2.8-9.6-3.4-14.5c-0.6-5-1.2-9.9-1.9-14.9c-0.4-4.7-0.9-9.5-1.4-14.4
				c-0.5-4.8-1-9.6-1.4-14.4c-1-11.1-1.7-22.2-2-33.3C1597.1,476.2,1597.3,465.1,1598.2,454z"/>
		</g>
		<g>
			<path class="st1" d="M582.8,715.5c-0.4-0.4-0.8-0.8-1.1-1.2s-0.7-0.8-1.1-1.2c-2.5-2.5-3.7-5.1-3.6-7.9c0.1-2.8,0.9-5.3,2.5-7.4
				c1.5-2.2,3.6-3.8,6.2-5c2.6-1.1,5.2-1.2,7.9-0.2c3.3-0.4,6.4,0.4,9.4,2.3c3,2,4.5,5.1,4.5,9.4c10.5,12.6,20.4,25,29.7,37.1
				c9.3,12.2,17.7,25.1,25.4,38.7c3.5,6.2,6.8,12.5,9.7,19c3,6.5,5.8,13.1,8.5,19.7c0-8.5,0.4-16.8,1.1-25.1
				c0.7-8.3,1.6-16.7,2.6-25.4c2.3-17.7,4.5-35.4,6.7-53.1c2.2-17.6,3.4-35.5,3.6-53.7c0-3.9,1.3-6.9,3.9-8.8c2.6-2,5.4-2.9,8.5-2.9
				s5.9,1,8.5,2.9c2.6,2,3.9,4.9,3.9,8.8c-0.2,18.6-1.5,36.9-3.9,54.9c-2.4,18.1-4.7,36.2-7,54.3c-1,9.3-1.9,18.4-2.5,27.4
				s-0.8,18.1-0.6,27.4c0.2,8.9,0.5,17.6,0.8,26.3s0.3,17.4-0.2,26.3c-0.2,3.1-1.2,5.6-2.9,7.6c-1.8,2-3.9,3.2-6.3,3.9
				c-2.5,0.6-5,0.5-7.4-0.3c-2.5-0.8-4.5-2.5-6.2-5c-4.7-7.2-8.8-14.8-12.1-22.7s-6.4-15.8-9.3-23.7c-2.9-7.6-5.9-15-9-22.1
				s-6.6-14.2-10.5-21.2c-5.2-9.3-10.7-18.2-16.6-26.6c-5.9-8.5-12.1-16.7-18.7-24.8c0,8.5,0,16.8,0,24.9c0,8.2,0.2,16.5,0.6,24.9
				c0.4,14.9,1.4,29.6,3.1,44.1c1.6,14.5,3.4,29.1,5.3,43.8c0.4,3.5-0.8,6.4-3.6,8.8c-2.8,2.4-5.6,3.6-8.5,3.6
				c-3.7,0-6.6-1.2-8.7-3.6c-2.1-2.4-3.3-5.3-3.7-8.8c-2.1-14.6-3.9-29.2-5.6-43.8c-1.7-14.5-2.7-29.2-3.1-44.1
				c-0.4-13-0.6-25.9-0.5-38.8C582.7,741.4,582.8,728.5,582.8,715.5z"/>
			<path class="st1" d="M750.5,776.8c3.9-5.4,8.6-10.1,14.1-14.2c5.5-4.1,11.3-7.4,17.5-9.7c6.2-2.4,12.6-3.6,19.2-3.7
				c6.6-0.1,13.2,1.2,19.8,3.9c6.4,2.5,12.2,5.8,17.3,10.1c5.2,4.2,9.2,9.6,12.1,16.2c2.3,5,3.6,10.3,4,16.1s-1.1,11-4.6,15.8
				c-3.1,4.3-6.9,7.6-11.3,9.9c-4.4,2.3-9.2,3.9-14.2,5c-5.1,1-10.2,1.5-15.5,1.5s-10.3-0.1-15-0.3c-5.4-0.2-10.7-0.6-15.9-1.2
				c-5.3-0.6-10.6-1.2-15.9-1.9c1.6,9.3,5,17.5,9.9,24.8c5,7.2,11.7,12.7,20.1,16.4c2.3,0.8,4,1.4,5.3,1.9c0.6,0.2,1.2,0.4,1.7,0.5
				s1.1,0.2,1.7,0.2c1.6,0.2,3,0.4,4.2,0.5c1.1,0.1,2.2,0.1,3.2-0.2c1.4-0.2,2.4-0.4,2.9-0.5s1.1-0.3,1.7-0.5c2.3-0.6,4.3-1.3,6-2.2
				c1.8-0.8,3.9-2.2,6.3-4c1.2-1,2.9-2.6,5-4.6c2.1-2.1,3.8-3.9,5.3-5.6c2.1-2.9,4.6-4.8,7.6-5.9c3-1,6-0.6,9.1,1.2
				c2.7,1.7,4.6,4.2,5.7,7.6c1.1,3.4,0.7,6.6-1.4,9.4c-6,8-13.1,14.9-21.2,20.6c-8.2,5.7-17.5,8.7-28,9.1
				c-8.5,0.4-16.6-1.1-24.4-4.5c-7.8-3.4-14.8-8-20.7-13.8c-7.4-7.2-13.3-15.6-17.6-25.1s-6.7-19.2-7.1-29.1
				c-1.9-1.4-3.2-3.2-4.2-5.4c-0.9-2.2-1.2-4.4-0.9-6.7s1.1-4.4,2.3-6.3c1.2-2,3.1-3.2,5.6-3.9C742.3,790.5,745.8,783.4,750.5,776.8
				z M824.8,784.2c-2.3-2.9-5.8-5.5-10.5-7.7c-3.9-1.6-8.5-2.5-13.8-2.5s-9.7,0.9-13.5,2.8c-4.7,2.3-9,5.4-12.7,9.4s-6.7,8.5-9,13.5
				c5,0.6,9.9,1.2,14.9,1.9c5,0.6,9.9,1,14.9,1.2c2.7,0,5.4,0,8,0c2.7,0,5.4-0.1,8-0.3c0.8,0,1.6,0,2.3-0.2c0.7-0.1,1.5-0.2,2.3-0.2
				c1.9-0.4,3.2-0.7,4.2-0.8c0.9-0.1,1.9-0.4,2.9-0.8c0.8-0.2,1.9-0.5,3.1-0.9c1-0.4,1.6-0.7,1.9-0.9c0.2-0.2,0.5-0.4,0.9-0.6
				l0.9-3.7c-0.4-0.8-0.7-1.6-0.8-2.3s-0.4-1.4-0.8-2c-0.2-0.6-0.7-1.5-1.4-2.8C826.1,786,825.4,785,824.8,784.2z"/>
			<path class="st1" d="M882.7,976.1c4.5,4.3,9.8,7.4,15.8,9.1c6,1.8,12,2.3,17.9,1.7c6-0.6,11.7-2.4,17-5.3
				c5.4-2.9,9.8-6.9,13.3-12.1c7.4-10.5,12.2-22.1,14.4-34.8s3-25.4,2.6-38.2c-9.9,1.6-20.1,2-30.5,1.1s-20.3-3.1-29.6-6.7
				c-4.7-1.9-9.2-4.1-13.5-6.7c-4.2-2.6-7.6-6.2-10.1-11c-4.3-8-6.2-16.9-5.6-26.6c0.4-9.3,2-18.3,4.8-27.1s5.9-17.5,9.4-26.2
				c1.9-4.1,3.9-8.5,6-13.2c2.2-4.6,5-8.8,8.5-12.5c3.5-3.9,7.5-6.9,12.1-9c4.5-2.1,9.4-3.3,14.5-3.7c-0.8-2.9-0.8-5.6,0-8.2
				c0.8-2.6,2.6-4.7,5.3-6.3s5.8-2.1,9.4-1.2c3.6,0.8,6.1,2.7,7.6,5.6c0.8,1.9,1.6,3.7,2.3,5.6c0.7,1.9,1.4,3.7,2,5.6
				c4.1,11.1,7.9,22.4,11.3,33.7c3.4,11.4,6.7,22.8,9.7,34.4c3.7,13.6,6.5,27.4,8.4,41.5c1.9,14,2.6,28.3,2.2,42.7
				c-0.2,8-0.9,16.3-2,24.8s-3,16.6-5.7,24.4c-2.7,7.8-6.2,15.3-10.5,22.4c-4.3,7.1-9.9,13.3-16.7,18.4c-6.4,5-13.5,8.5-21.2,10.7
				s-15.6,3-23.5,2.6s-15.7-2.2-23.2-5.3s-14.2-7.4-20-13c-2.9-2.7-4.1-5.6-3.7-8.8c0.4-3.2,1.7-5.9,3.9-8c2.2-2.2,4.8-3.5,8-3.9
				C876.7,972.2,879.8,973.4,882.7,976.1z M917,869.3c7.2,1.9,14.7,3.2,22.4,3.9s15.2,0.3,22.4-1.4c-1.2-10.5-3-20.6-5.4-30.3
				s-5-19.5-7.9-29.4c-1.7-5.8-3.4-11.5-5.1-17c-1.8-5.6-3.6-11.1-5.4-16.7c-0.6,0.4-1.3,0.7-2.2,0.8c-0.8,0.1-1.8,0.3-2.8,0.5
				c-6.2,0-10.9,2.8-14.2,8.4c-2.3,3.5-4.1,7.2-5.6,11.1c-0.4,1-0.8,2-1.2,2.9s-0.8,1.9-1.2,2.9c-3.1,7.4-5.7,14.6-7.9,21.5
				s-3.5,13.7-3.9,20.3v5.6c0.2,1.4,0.4,2.6,0.6,3.4c0.4,1.9,0.7,3,0.8,3.4s0.7,1.4,1.7,3.1c1.2,1,2.4,1.9,3.4,2.5s1.6,1,1.9,1.2
				c1.6,0.6,3.2,1.2,4.8,1.9C913.8,868.4,915.4,868.9,917,869.3z"/>
			<path class="st1" d="M1085.7,754.2c6.6-0.8,13.5-1.1,20.7-0.8s14.1,1.5,20.7,3.7s12.6,5.4,17.9,9.7c5.4,4.3,9.5,10,12.4,17
				c2.1,5,3.1,10,3.2,15c0.1,5.1-0.6,9.9-2.2,14.5c-1.5,4.6-3.8,9.1-6.8,13.3s-6.4,8.1-10.4,11.6c-8.5,7.6-17.7,14.1-27.9,19.5
				c-10.1,5.4-20.7,9.5-31.9,12.4c-4.7,1.2-9.6,2.3-14.7,3.2s-10.2,1.4-15.3,1.4c-5.2,0-10.2-0.6-15.2-1.7c-5-1.1-9.6-3-13.9-5.7
				c-3.1-1.9-5-4.3-5.6-7.4c-1.2-3.5-2.6-6.8-4-9.9c-1.4-3.1-2.8-6.3-4.2-9.6c-1.3-3.3-2.4-6.6-3.2-9.9c-0.8-3.3-1.2-6.7-1.2-10.2
				c0-7,1.5-13.7,4.5-20s7.1-11.8,12.2-16.6c8.7-8.3,18.7-14.9,30-19.8C1062.4,759.1,1073.9,755.8,1085.7,754.2z M1120.7,780.8
				c-5.6-2.1-11.6-3.1-17.9-3.1c-6.8-0.2-13.6,0.5-20.4,2s-13.3,3.7-19.5,6.3c-5.8,2.3-11.7,5.4-17.8,9.4c-6.1,4-10.6,8.9-13.5,14.7
				c-1.7,3.1-2.4,6.2-2.3,9.4s0.6,6.4,1.5,9.6c0.9,3.2,2.2,6.4,3.7,9.6c1.5,3.2,2.9,6.3,4.2,9.4c3.3,0.8,5.4,1.2,6.2,1.2
				c0.4,0.2,0.9,0.3,1.5,0.3s1.1,0,1.5,0c4.1,0.4,7.8,0.3,11.1-0.3c2.3,0,5.2-0.4,8.7-1.2c5.4-1,10.5-2.4,15.5-4.2s9.5-3.7,13.6-5.7
				c4.7-2.3,9.4-4.7,13.9-7.4s8.4-5.5,11.5-8.4c2.1-1.9,4-3.8,5.9-5.9c1-1,1.8-1.9,2.2-2.5c1-1.4,1.9-2.5,2.5-3.2s1.1-1.6,1.5-2.6
				c0.8-1.4,1.2-2.6,1.2-3.4c0.2-0.4,0.4-0.9,0.5-1.5s0.3-1.1,0.5-1.5v-3.4c-0.2-0.8-0.3-1.4-0.3-1.9c0-0.4-0.1-0.8-0.3-1.2
				c-0.6-1.4-1.2-2.5-1.7-3.2s-1.1-1.5-1.7-2.3c0.2,0.2-0.1-0.1-0.8-0.9c-0.7-0.8-1.2-1.3-1.4-1.5l-2.5-2.5c-1-0.6-2.2-1.3-3.4-2.2
				C1123.1,781.8,1121.9,781.2,1120.7,780.8z M1099.9,689.8c2.7-2.1,5.6-3.2,8.7-3.6c3.1-0.3,6,0.9,8.7,3.6c2.3,2.3,3.5,5.2,3.7,8.8
				s-1,6.6-3.7,8.8c-14.9,11.4-30.3,21.1-46.4,29.4c-3.5,1.9-6.8,2.1-9.9,0.8s-5.4-3.3-7-6c-1.5-2.7-2.1-5.6-1.7-8.7
				c0.4-3.1,2.4-5.6,5.9-7.4c7.4-3.7,14.6-7.6,21.5-11.8C1086.6,699.6,1093.3,695,1099.9,689.8z"/>
			<path class="st1" d="M1268.3,872.7c0.8,2.9,0.4,6-1.2,9.3c-1.7,3.3-4.1,5.3-7.4,5.9c-11.1,1.9-22.2,1.7-33.1-0.5
				s-21-6.9-30.3-14.1c-9.1-7.2-15.5-16.5-19.3-27.7s-4.5-22.5-2-33.9c2.3-10.1,7-18.9,14.2-26.3c7.2-7.4,15.5-13.2,24.8-17.3
				c8.3-3.9,16.9-7,26-9.3s18.2-3,27.2-2.2c3.5,0.4,6.4,1.7,8.8,3.9s3.6,5,3.6,8.5c0,3.1-1.2,6-3.6,8.7s-5.3,3.9-8.8,3.7
				c-6.6-0.6-13.1-0.3-19.5,0.9s-12.6,3.2-18.6,5.9c-3.5,1.7-7,3.4-10.4,5.3c-3.4,1.9-6.3,3.9-8.8,6.2c-2.7,2.5-4.9,5-6.7,7.4
				c-1.8,2.5-3,5.4-3.9,8.7c-0.8,3.3-1.1,6.8-0.9,10.5s0.9,7.4,2,11s2.7,6.9,4.8,9.9c2.1,3,4.5,5.5,7.4,7.6c6,4.3,12.5,7.3,19.7,8.8
				s14.1,1.7,20.9,0.5c3.3-0.6,6.4-0.2,9.3,1.2C1265.3,866.7,1267.2,869.2,1268.3,872.7z"/>
			<path class="st1" d="M1297,893.7c1.6-9.9,3.6-19.7,5.7-29.2c2.2-9.6,3.8-19.3,4.8-29.2c0.8-9.7,1-19.2,0.5-28.6
				c-0.5-9.4,0-18.9,1.7-28.6c0.4-3.3,2.3-5.8,5.7-7.4c3.4-1.6,6.5-2.1,9.4-1.2c3.5,1,5.9,3,7.3,5.9c1.3,2.9,1.8,6,1.4,9.3
				c-0.8,4.7-1.2,9.6-1.1,14.5c0.1,5,0.3,9.9,0.5,14.9c0,9.5-0.6,19-1.9,28.5c-1.2,9.9-2.8,19.6-4.8,29.1s-3.8,19.1-5.4,28.8
				c-0.6,3.3-2.6,5.8-5.9,7.4c-3.3,1.6-6.4,2.1-9.3,1.2c-3.5-1-6-3-7.4-5.9C1296.8,900.1,1296.4,897,1297,893.7z M1311.9,751.4
				c-1.4-0.4-2.9-1.1-4.3-2s-2.5-2.1-3.1-3.6c-0.6-1.6-1.1-3.1-1.5-4.3s-0.6-2.7-0.6-4.3c0-1.9,0.3-3.7,0.9-5.6c0.8-3.7,2.5-6.4,5-8
				c0.8-1.2,2-2.2,3.4-2.8c2.3-1.4,4.8-2.2,7.7-2.3c2.9-0.1,5.5,0.7,7.7,2.3c1,0.8,2.1,1.7,3.1,2.6c1,0.9,1.9,2.1,2.5,3.6
				c0.4,1,0.9,2.2,1.4,3.4s0.7,2.5,0.5,3.7c-0.2,1.4-0.4,2.8-0.6,4s-0.7,2.4-1.5,3.4c-1,1.4-1.9,2.5-2.5,3.1s-1.7,1.4-3.1,2.5
				c-0.8,0.8-2.1,1.4-3.7,1.9C1318.7,751.4,1315,752.2,1311.9,751.4z"/>
			<path class="st1" d="M1443.1,754.2c6.6-0.8,13.5-1.1,20.7-0.8s14.1,1.5,20.7,3.7s12.6,5.4,17.9,9.7c5.4,4.3,9.5,10,12.4,17
				c2.1,5,3.1,10,3.2,15c0.1,5.1-0.6,9.9-2.2,14.5c-1.5,4.6-3.8,9.1-6.8,13.3s-6.4,8.1-10.4,11.6c-8.5,7.6-17.7,14.1-27.9,19.5
				c-10.1,5.4-20.7,9.5-31.9,12.4c-4.7,1.2-9.6,2.3-14.7,3.2s-10.2,1.4-15.3,1.4c-5.2,0-10.2-0.6-15.2-1.7c-5-1.1-9.6-3-13.9-5.7
				c-3.1-1.9-5-4.3-5.6-7.4c-1.2-3.5-2.6-6.8-4-9.9c-1.4-3.1-2.8-6.3-4.2-9.6c-1.3-3.3-2.4-6.6-3.2-9.9c-0.8-3.3-1.2-6.7-1.2-10.2
				c0-7,1.5-13.7,4.5-20s7.1-11.8,12.2-16.6c8.7-8.3,18.7-14.9,30-19.8C1419.8,759.1,1431.4,755.8,1443.1,754.2z M1478.1,780.8
				c-5.6-2.1-11.6-3.1-17.9-3.1c-6.8-0.2-13.6,0.5-20.4,2s-13.3,3.7-19.5,6.3c-5.8,2.3-11.7,5.4-17.8,9.4c-6.1,4-10.6,8.9-13.5,14.7
				c-1.7,3.1-2.4,6.2-2.3,9.4s0.6,6.4,1.5,9.6c0.9,3.2,2.2,6.4,3.7,9.6c1.5,3.2,2.9,6.3,4.2,9.4c3.3,0.8,5.4,1.2,6.2,1.2
				c0.4,0.2,0.9,0.3,1.5,0.3s1.1,0,1.5,0c4.1,0.4,7.8,0.3,11.1-0.3c2.3,0,5.2-0.4,8.7-1.2c5.4-1,10.5-2.4,15.5-4.2s9.5-3.7,13.6-5.7
				c4.7-2.3,9.4-4.7,13.9-7.4s8.4-5.5,11.5-8.4c2.1-1.9,4-3.8,5.9-5.9c1-1,1.8-1.9,2.2-2.5c1-1.4,1.9-2.5,2.5-3.2s1.1-1.6,1.5-2.6
				c0.8-1.4,1.2-2.6,1.2-3.4c0.2-0.4,0.4-0.9,0.5-1.5s0.3-1.1,0.5-1.5v-3.4c-0.2-0.8-0.3-1.4-0.3-1.9c0-0.4-0.1-0.8-0.3-1.2
				c-0.6-1.4-1.2-2.5-1.7-3.2s-1.1-1.5-1.7-2.3c0.2,0.2-0.1-0.1-0.8-0.9c-0.7-0.8-1.2-1.3-1.4-1.5l-2.5-2.5c-1-0.6-2.2-1.3-3.4-2.2
				C1480.6,781.8,1479.3,781.2,1478.1,780.8z"/>
		</g>
	</g>
</g>
</svg>
