<?xml version="1.0" encoding="utf-8"?>
<!-- Generator: Adobe Illustrator 22.0.1, SVG Export Plug-In . SVG Version: 6.00 Build 0)  -->
<svg version="1.1" id="Camada_1" xmlns="http://www.w3.org/2000/svg" xmlns:xlink="http://www.w3.org/1999/xlink" x="0px" y="0px"
	 viewBox="0 0 1920 1312" style="enable-background:new 0 0 1920 1312;" xml:space="preserve">
<style type="text/css">
	.st0{fill:#FFFFFF;}
</style>
<g id="AraujoeCorrei">
	<g>
		<path class="st0" d="M497.9,966.3l-12.8,30.1h-12.9l48.9-111.1l47.7,111.1h-13.1l-12.5-30.1H497.9z M520.8,912.9l-18.1,42.4h35.9
			L520.8,912.9z"/>
		<path class="st0" d="M590.9,937.5h0.3c2-2.6,4-4.8,6-6.5c2.1-1.7,4.9-2.5,8.6-2.5c1.9,0,3.6,0.3,5.3,0.8c1.6,0.5,3.3,1.3,4.9,2.2
			l-5.3,10.3c-1.1-0.7-2.2-1.4-3.1-2c-0.9-0.6-2.2-0.9-3.7-0.9c-3.1,0-5.5,0.9-7.2,2.6c-1.7,1.7-3,3.9-3.9,6.4
			c-0.8,2.5-1.4,5.2-1.5,8c-0.2,2.8-0.3,5.3-0.3,7.4v33.1h-11.3v-66.1H591L590.9,937.5L590.9,937.5z"/>
		<path class="st0" d="M687.7,996.4h-11.2v-9.2h-0.3c-5.8,7.3-13.4,11-22.8,11c-4.9,0-9.3-1-13.1-2.9c-3.9-1.9-7.2-4.5-10-7.7
			s-4.9-6.9-6.3-11c-1.5-4.2-2.2-8.6-2.2-13.2c0-4.7,0.7-9.2,2.2-13.4c1.4-4.3,3.5-8,6.3-11.2c2.7-3.2,6-5.7,10-7.6
			c3.9-1.9,8.4-2.8,13.4-2.8c4.5,0,8.7,1,12.7,3c3.9,2,7.3,4.7,10,8.3h0.3v-9.4h11.2v66.1H687.7z M654.8,938.9c-3.3,0-6.2,0.7-8.9,2
			c-2.6,1.3-4.9,3.1-6.8,5.3c-1.9,2.2-3.3,4.7-4.4,7.6c-1,2.9-1.5,5.8-1.5,8.9c0,3.3,0.5,6.4,1.4,9.4s2.3,5.7,4.1,8s4.1,4.2,6.7,5.6
			c2.7,1.4,5.8,2.1,9.4,2.1c3.7,0,6.8-0.7,9.6-2c2.7-1.3,5-3.2,6.9-5.5s3.3-4.9,4.2-7.9s1.4-6.2,1.4-9.6c0-3.3-0.5-6.4-1.5-9.3
			c-1-2.9-2.5-5.4-4.4-7.6c-1.9-2.2-4.2-3.9-7-5.1C661.3,939.5,658.2,938.9,654.8,938.9z"/>
		<path class="st0" d="M718.9,967.1c0,2.8,0.1,5.4,0.4,7.9c0.3,2.5,0.9,4.7,1.9,6.5c1,1.9,2.5,3.4,4.5,4.5s4.7,1.7,8.1,1.7
			c3.4,0,6.1-0.6,8.1-1.7c2-1.1,3.5-2.6,4.5-4.5s1.6-4.1,1.9-6.5c0.3-2.5,0.4-5.1,0.4-7.9v-36.8h11.2v38.1c0,4.4-0.4,8.4-1.3,12.1
			c-0.9,3.7-2.4,6.8-4.4,9.4c-2.1,2.6-4.8,4.7-8.1,6.1c-3.3,1.5-7.4,2.2-12.3,2.2c-4.9,0-9-0.7-12.3-2.2c-3.3-1.4-6-3.5-8.1-6.1
			s-3.5-5.8-4.4-9.4c-0.9-3.6-1.3-7.7-1.3-12.1v-38.1h11.2L718.9,967.1L718.9,967.1z"/>
		<path class="st0" d="M788.2,897.4c2.2,0,4,0.8,5.6,2.4c1.6,1.6,2.4,3.5,2.4,5.6c0,2.2-0.8,4.1-2.4,5.7c-1.6,1.5-3.5,2.3-5.6,2.3
			c-2.2,0-4-0.8-5.6-2.3c-1.6-1.6-2.4-3.5-2.4-5.7s0.8-4,2.4-5.6C784.2,898.2,786,897.4,788.2,897.4z M793.8,1033.5h-11.2V930.3
			h11.2V1033.5z"/>
		<path class="st0" d="M846.1,998.2c-4.8,0-9.3-0.9-13.5-2.7s-7.9-4.2-11-7.4c-3.1-3.1-5.6-6.8-7.4-11c-1.8-4.2-2.7-8.8-2.7-13.6
			c0-4.9,0.9-9.4,2.7-13.6c1.8-4.2,4.2-7.9,7.4-11.1c3.1-3.2,6.8-5.7,11-7.5s8.8-2.7,13.6-2.7c4.9,0,9.4,0.9,13.6,2.7
			c4.2,1.8,7.9,4.3,11,7.5s5.6,6.9,7.4,11.1c1.8,4.2,2.7,8.8,2.7,13.6c0,4.9-0.9,9.4-2.7,13.6c-1.8,4.2-4.3,7.9-7.4,11
			c-3.1,3.2-6.8,5.6-11,7.4C855.4,997.3,850.9,998.2,846.1,998.2z M846.1,938.9c-3.5,0-6.6,0.7-9.6,2c-2.9,1.3-5.4,3.1-7.4,5.3
			c-2.1,2.2-3.7,4.8-4.8,7.7c-1.1,3-1.7,6.1-1.7,9.5s0.6,6.6,1.7,9.5c1.1,3,2.7,5.5,4.8,7.8c2.1,2.2,4.5,4,7.4,5.3s6.1,1.9,9.6,1.9
			s6.7-0.6,9.6-1.9c2.9-1.3,5.4-3,7.4-5.3c2.1-2.3,3.7-4.9,4.8-7.8c1.1-3,1.7-6.1,1.7-9.5s-0.6-6.5-1.7-9.5c-1.1-3-2.7-5.5-4.8-7.7
			s-4.5-4-7.4-5.3C852.8,939.5,849.6,938.9,846.1,938.9z"/>
		<path class="st0" d="M945.2,965.7c0,3.1,0.5,6,1.6,8.7s2.6,5,4.4,7c1.9,2,4.1,3.5,6.8,4.7s5.6,1.8,8.8,1.8c4.8,0,8.8-1.3,12-3.9
			s5.9-5.8,8.1-9.8l9.6,5.5c-3.2,5.9-7.4,10.5-12.6,13.7c-5.2,3.2-11.2,4.9-17.9,4.9c-5,0-9.4-0.9-13.4-2.7s-7.4-4.2-10.2-7.3
			c-2.8-3-5-6.6-6.5-10.8c-1.5-4.1-2.2-8.6-2.2-13.4c0-4.9,0.7-9.5,2.1-13.8c1.4-4.3,3.5-8.1,6.2-11.4c2.7-3.2,6.1-5.8,10-7.6
			c4-1.9,8.6-2.8,13.7-2.8c5.4,0,10,1,14.1,3c4,2,7.4,4.8,10,8.2c2.7,3.5,4.6,7.5,5.8,11.9c1.2,4.5,1.7,9.2,1.4,14.1L945.2,965.7
			L945.2,965.7z M985.3,956.2c-0.4-2.3-1.1-4.6-2.3-6.7c-1.2-2.1-2.6-4-4.3-5.5c-1.7-1.6-3.6-2.8-5.8-3.7s-4.5-1.4-7-1.4
			c-2.4,0-4.8,0.5-7,1.4s-4.3,2.1-6.1,3.7c-1.8,1.6-3.4,3.4-4.6,5.5c-1.2,2.1-2,4.3-2.4,6.7H985.3z"/>
		<path class="st0" d="M1136.7,913.5c-4.2-4.4-9.1-7.9-14.7-10.3c-5.6-2.5-11.5-3.7-17.6-3.7c-5.9,0-11.5,1.2-16.7,3.6
			c-5.2,2.4-9.7,5.6-13.6,9.6c-3.8,4-6.9,8.7-9.1,14c-2.3,5.3-3.4,10.8-3.4,16.7s1.1,11.4,3.4,16.7c2.2,5.3,5.3,10,9.2,14
			c3.9,4,8.5,7.2,13.7,9.6c5.2,2.4,10.8,3.6,16.7,3.6c6,0,11.8-1.3,17.4-3.9c5.6-2.6,10.5-6,14.7-10.2v14.6c-4.6,3.3-9.6,5.8-15,7.7
			c-5.4,1.8-11,2.7-16.6,2.7c-7.5,0-14.6-1.4-21.3-4.3c-6.7-2.9-12.6-6.8-17.6-11.7s-9-10.7-11.9-17.3c-3-6.6-4.4-13.7-4.4-21.2
			c0-7.6,1.4-14.7,4.3-21.4s6.9-12.5,11.9-17.6c5-5,10.9-9,17.6-11.9s13.8-4.3,21.4-4.3c11.8,0,22.3,3.5,31.6,10.4V913.5z"/>
		<path class="st0" d="M1185.5,998.2c-4.8,0-9.3-0.9-13.5-2.7s-7.9-4.2-11-7.4c-3.2-3.1-5.6-6.8-7.5-11c-1.8-4.2-2.7-8.8-2.7-13.6
			c0-4.9,0.9-9.4,2.7-13.6c1.8-4.2,4.2-7.9,7.4-11.1c3.2-3.2,6.8-5.7,11.1-7.5c4.2-1.8,8.8-2.7,13.6-2.7s9.4,0.9,13.6,2.7
			s7.9,4.3,11,7.5s5.6,6.9,7.4,11.1c1.8,4.2,2.7,8.8,2.7,13.6c0,4.9-0.9,9.4-2.7,13.6c-1.8,4.2-4.3,7.9-7.4,11
			c-3.1,3.2-6.8,5.6-11,7.4C1194.8,997.3,1190.3,998.2,1185.5,998.2z M1185.5,938.9c-3.5,0-6.7,0.7-9.6,2s-5.4,3.1-7.5,5.3
			s-3.6,4.8-4.8,7.7c-1.1,3-1.7,6.1-1.7,9.5s0.5,6.6,1.7,9.5c1.1,3,2.7,5.5,4.8,7.8c2.1,2.2,4.6,4,7.5,5.3s6.1,1.9,9.6,1.9
			s6.6-0.6,9.6-1.9c2.9-1.3,5.4-3,7.4-5.3c2.1-2.3,3.7-4.9,4.8-7.8c1.1-3,1.7-6.1,1.7-9.5s-0.6-6.5-1.7-9.5s-2.7-5.5-4.8-7.7
			c-2.1-2.2-4.6-4-7.4-5.3C1192.2,939.5,1189,938.9,1185.5,938.9z"/>
		<path class="st0" d="M1246.4,937.5h0.3c2-2.6,4-4.8,6.1-6.5s4.9-2.5,8.6-2.5c1.9,0,3.6,0.3,5.3,0.8c1.6,0.5,3.2,1.3,4.9,2.2
			l-5.4,10.3c-1.1-0.7-2.2-1.4-3.1-2s-2.2-0.9-3.7-0.9c-3.1,0-5.5,0.9-7.2,2.6c-1.7,1.7-3,3.9-3.9,6.4c-0.8,2.5-1.3,5.2-1.6,8
			c-0.2,2.8-0.3,5.3-0.3,7.4v33.1h-11.2v-66.1h11.2L1246.4,937.5L1246.4,937.5z"/>
		<path class="st0" d="M1293.5,937.5h0.3c2-2.6,4-4.8,6.1-6.5s4.9-2.5,8.6-2.5c1.9,0,3.6,0.3,5.3,0.8c1.6,0.5,3.2,1.3,4.9,2.2
			l-5.4,10.3c-1.1-0.7-2.2-1.4-3.1-2s-2.2-0.9-3.7-0.9c-3.1,0-5.5,0.9-7.2,2.6c-1.7,1.7-3,3.9-3.9,6.4c-0.8,2.5-1.4,5.2-1.6,8
			s-0.3,5.3-0.3,7.4v33.1h-11.2v-66.1h11.2L1293.5,937.5L1293.5,937.5z"/>
		<path class="st0" d="M1335.5,965.7c0,3.1,0.5,6,1.6,8.7s2.5,5,4.4,7s4.1,3.5,6.8,4.7c2.7,1.2,5.6,1.8,8.8,1.8
			c4.8,0,8.8-1.3,12-3.9c3.2-2.6,5.9-5.8,8.1-9.8l9.6,5.5c-3.2,5.9-7.4,10.5-12.6,13.7s-11.2,4.9-17.9,4.9c-5,0-9.4-0.9-13.4-2.7
			s-7.4-4.2-10.2-7.3c-2.8-3-5-6.6-6.5-10.8c-1.5-4.1-2.2-8.6-2.2-13.4c0-4.9,0.7-9.5,2.1-13.8s3.5-8.1,6.2-11.4
			c2.7-3.2,6.1-5.8,10-7.6c4-1.9,8.6-2.8,13.7-2.8c5.3,0,10,1,14.1,3c4,2,7.4,4.8,10.1,8.2c2.7,3.5,4.6,7.5,5.8,11.9
			c1.2,4.5,1.7,9.2,1.4,14.1L1335.5,965.7L1335.5,965.7z M1375.6,956.2c-0.4-2.3-1.1-4.6-2.3-6.7c-1.2-2.1-2.6-4-4.3-5.5
			c-1.7-1.6-3.6-2.8-5.8-3.7c-2.2-0.9-4.5-1.4-7-1.4c-2.4,0-4.8,0.5-7,1.4s-4.3,2.1-6.1,3.7c-1.8,1.6-3.4,3.4-4.6,5.5
			s-2,4.3-2.4,6.7H1375.6z"/>
		<path class="st0" d="M1410.6,897.4c2.2,0,4,0.8,5.6,2.4c1.6,1.6,2.4,3.5,2.4,5.6c0,2.2-0.8,4.1-2.4,5.7c-1.6,1.5-3.5,2.3-5.6,2.3
			c-2.2,0-4.1-0.8-5.6-2.3c-1.6-1.6-2.4-3.5-2.4-5.7s0.8-4,2.4-5.6C1406.6,898.2,1408.4,897.4,1410.6,897.4z M1416.2,996.4H1405
			v-66.1h11.2V996.4z"/>
		<path class="st0" d="M1500,996.4h-11.3v-9.2h-0.3c-5.8,7.3-13.4,11-22.8,11c-4.9,0-9.3-1-13.2-2.9c-3.9-1.9-7.2-4.5-10-7.7
			s-4.9-6.9-6.3-11c-1.5-4.2-2.2-8.6-2.2-13.2c0-4.7,0.7-9.2,2.2-13.4c1.4-4.3,3.5-8,6.2-11.2s6-5.7,10-7.6
			c3.9-1.9,8.4-2.8,13.4-2.8c4.5,0,8.7,1,12.7,3c3.9,2,7.3,4.7,10,8.3h0.3v-9.4h11.3L1500,996.4L1500,996.4z M1467.1,938.9
			c-3.3,0-6.2,0.7-8.9,2c-2.6,1.3-4.9,3.1-6.8,5.3s-3.3,4.7-4.3,7.6c-1,2.9-1.6,5.8-1.6,8.9c0,3.3,0.5,6.4,1.4,9.4s2.3,5.7,4.1,8
			c1.8,2.3,4.1,4.2,6.8,5.6c2.7,1.4,5.8,2.1,9.3,2.1c3.7,0,6.8-0.7,9.6-2c2.7-1.3,5-3.2,6.9-5.5s3.3-4.9,4.2-7.9
			c0.9-3,1.4-6.2,1.4-9.6c0-3.3-0.5-6.4-1.6-9.3c-1-2.9-2.5-5.4-4.3-7.6c-1.9-2.2-4.2-3.9-7-5.1
			C1473.7,939.5,1470.6,938.9,1467.1,938.9z"/>
	</g>
	<g>
		<path class="st0" d="M331.2,1033c-2.1-2.2-4.6-3.9-7.3-5.2c-2.8-1.2-5.7-1.9-8.8-1.9c-3,0-5.7,0.6-8.3,1.8
			c-2.6,1.2-4.9,2.8-6.8,4.8s-3.4,4.3-4.6,7c-1.1,2.7-1.7,5.4-1.7,8.3s0.6,5.7,1.7,8.3c1.1,2.7,2.7,5,4.6,7s4.2,3.6,6.9,4.8
			c2.6,1.2,5.4,1.8,8.4,1.8s5.9-0.7,8.7-1.9c2.8-1.3,5.2-3,7.3-5.1v7.3c-2.3,1.6-4.8,2.9-7.5,3.8s-5.5,1.4-8.3,1.4
			c-3.7,0-7.3-0.7-10.6-2.2c-3.4-1.4-6.3-3.4-8.8-5.8c-2.5-2.5-4.5-5.4-6-8.7c-1.5-3.3-2.2-6.8-2.2-10.6c0-3.8,0.7-7.4,2.2-10.7
			c1.5-3.4,3.4-6.3,5.9-8.8s5.4-4.5,8.8-5.9s6.9-2.2,10.7-2.2c5.9,0,11.2,1.7,15.8,5.2v7.5H331.2z"/>
		<path class="st0" d="M355.6,1075.3c-2.4,0-4.6-0.4-6.7-1.3s-3.9-2.1-5.5-3.7s-2.8-3.4-3.7-5.5c-0.9-2.1-1.4-4.4-1.4-6.8
			s0.4-4.7,1.3-6.8c0.9-2.1,2.1-4,3.7-5.5c1.6-1.6,3.4-2.9,5.5-3.8s4.4-1.4,6.8-1.4s4.7,0.5,6.8,1.4c2.1,0.9,3.9,2.2,5.5,3.8
			c1.6,1.6,2.8,3.4,3.7,5.5c0.9,2.1,1.3,4.4,1.3,6.8s-0.5,4.7-1.4,6.8c-0.9,2.1-2.2,4-3.7,5.5c-1.6,1.6-3.4,2.8-5.5,3.7
			C360.2,1074.8,358,1075.3,355.6,1075.3z M355.6,1045.6c-1.7,0-3.3,0.3-4.8,1s-2.7,1.5-3.7,2.6s-1.8,2.4-2.4,3.9s-0.8,3.1-0.8,4.7
			c0,1.7,0.3,3.3,0.8,4.8c0.6,1.5,1.4,2.8,2.4,3.9s2.3,2,3.7,2.6c1.5,0.6,3,1,4.8,1c1.7,0,3.3-0.3,4.8-1c1.5-0.6,2.7-1.5,3.7-2.6
			s1.8-2.4,2.4-3.9s0.8-3.1,0.8-4.8c0-1.7-0.3-3.3-0.8-4.7c-0.6-1.5-1.4-2.8-2.4-3.9s-2.3-2-3.7-2.6
			C358.9,1045.9,357.3,1045.6,355.6,1045.6z"/>
		<path class="st0" d="M386.3,1045.3h0.1c1.2-1.6,2.5-2.8,4-3.7c1.5-0.8,3.3-1.3,5.4-1.3c2.3,0,4.2,0.4,5.6,1.2
			c1.4,0.8,2.6,1.8,3.4,3.1c0.8,1.3,1.4,2.8,1.7,4.6c0.3,1.7,0.5,3.5,0.5,5.5v19.6h-5.6v-18.6c0-1.3-0.1-2.6-0.2-3.8
			c-0.1-1.2-0.4-2.3-0.8-3.3c-0.4-0.9-1.1-1.6-2.1-2.2c-0.9-0.6-2.2-0.8-3.9-0.8c-1.9,0-3.4,0.4-4.5,1.2c-1.1,0.8-1.9,1.9-2.5,3.1
			c-0.5,1.3-0.9,2.7-1,4.2s-0.2,3-0.2,4.5v15.7h-5.6v-33h5.6v4H386.3z"/>
		<path class="st0" d="M431.2,1049c-0.4-0.9-1-1.7-1.8-2.4c-0.8-0.7-1.7-1-2.7-1s-1.9,0.3-2.8,1s-1.3,1.6-1.3,2.7
			c0,0.7,0.2,1.4,0.7,1.9c0.4,0.5,1,1,1.7,1.5c0.7,0.4,1.5,0.8,2.4,1.2c0.9,0.3,1.9,0.7,2.8,1.1c1,0.4,1.9,0.9,2.8,1.4
			s1.7,1.1,2.4,1.9c0.7,0.7,1.3,1.6,1.7,2.6c0.4,1,0.7,2.2,0.7,3.6c0,1.6-0.3,3-0.9,4.3s-1.4,2.5-2.4,3.4s-2.2,1.7-3.5,2.2
			s-2.8,0.8-4.3,0.8c-2.8,0-5.2-0.7-7.3-2.2c-2-1.5-3.5-3.5-4.4-6.1l5-2.1c0.7,1.6,1.5,2.8,2.5,3.8s2.4,1.5,4.2,1.5
			c1.5,0,2.8-0.5,3.8-1.4s1.5-2.2,1.5-3.6c0-1.2-0.4-2.2-1.1-3s-1.6-1.4-2.8-2c-1.1-0.6-2.3-1.1-3.6-1.6c-1.3-0.5-2.5-1.1-3.6-1.8
			c-1.1-0.7-2.1-1.6-2.8-2.7c-0.7-1.1-1.1-2.5-1.1-4.2c0-1.4,0.3-2.7,0.8-3.8c0.5-1.2,1.2-2.2,2.2-3c0.9-0.8,2-1.5,3.1-1.9
			c1.2-0.5,2.4-0.7,3.8-0.7c1.9,0,3.7,0.6,5.3,1.8c1.6,1.2,2.8,2.6,3.5,4.4L431.2,1049z"/>
		<path class="st0" d="M451.1,1059.7c0,1.4,0.1,2.7,0.2,4c0.1,1.2,0.5,2.3,1,3.3c0.5,0.9,1.2,1.7,2.3,2.2c1,0.6,2.3,0.8,4,0.8
			s3-0.3,4-0.8c1-0.6,1.8-1.3,2.3-2.2c0.5-0.9,0.8-2,0.9-3.3c0.1-1.2,0.2-2.6,0.2-4v-18.4h5.6v19.1c0,2.2-0.2,4.2-0.7,6
			c-0.4,1.8-1.2,3.4-2.2,4.7s-2.4,2.3-4.1,3.1c-1.7,0.7-3.7,1.1-6.1,1.1s-4.5-0.4-6.2-1.1s-3-1.8-4-3.1c-1-1.3-1.8-2.9-2.2-4.7
			c-0.4-1.8-0.7-3.8-0.7-6v-19.1h5.6v18.4H451.1z"/>
		<path class="st0" d="M487.3,1074.4h-5.6v-58h5.6V1074.4z"/>
		<path class="st0" d="M503.7,1074.4h-5.6v-27.8h-3.5v-5.2h3.5v-11.9h5.6v11.9h5.9v5.2h-5.9V1074.4z"/>
		<path class="st0" d="M529.1,1075.3c-2.4,0-4.6-0.4-6.7-1.3c-2.1-0.9-3.9-2.1-5.5-3.7s-2.8-3.4-3.7-5.5s-1.4-4.4-1.4-6.8
			s0.4-4.7,1.3-6.8c0.9-2.1,2.1-4,3.7-5.5c1.6-1.6,3.4-2.9,5.5-3.8s4.4-1.4,6.8-1.4c2.4,0,4.7,0.5,6.8,1.4s3.9,2.2,5.5,3.8
			c1.6,1.6,2.8,3.4,3.7,5.5s1.3,4.4,1.3,6.8s-0.5,4.7-1.4,6.8c-0.9,2.1-2.2,4-3.7,5.5c-1.6,1.6-3.4,2.8-5.5,3.7
			C533.7,1074.8,531.5,1075.3,529.1,1075.3z M529.1,1045.6c-1.7,0-3.3,0.3-4.8,1s-2.7,1.5-3.7,2.6s-1.8,2.4-2.4,3.9
			c-0.6,1.5-0.8,3.1-0.8,4.7c0,1.7,0.3,3.3,0.8,4.8c0.6,1.5,1.4,2.8,2.4,3.9s2.3,2,3.7,2.6c1.5,0.6,3,1,4.8,1c1.7,0,3.3-0.3,4.8-1
			c1.5-0.6,2.7-1.5,3.7-2.6s1.8-2.4,2.4-3.9c0.6-1.5,0.8-3.1,0.8-4.8c0-1.7-0.3-3.3-0.8-4.7c-0.6-1.5-1.4-2.8-2.4-3.9
			s-2.3-2-3.7-2.6C532.4,1045.9,530.8,1045.6,529.1,1045.6z"/>
		<path class="st0" d="M559.5,1044.9L559.5,1044.9c1.1-1.3,2.1-2.4,3.1-3.2c1-0.8,2.5-1.3,4.3-1.3c0.9,0,1.8,0.2,2.6,0.4
			c0.8,0.3,1.6,0.7,2.4,1.1l-2.7,5.1c-0.6-0.4-1.1-0.7-1.5-1c-0.5-0.3-1.1-0.5-1.8-0.5c-1.5,0-2.8,0.4-3.6,1.3
			c-0.9,0.9-1.5,1.9-1.9,3.2c-0.4,1.3-0.7,2.6-0.8,4s-0.1,2.6-0.1,3.7v16.5h-5.6v-33h5.6V1044.9z"/>
		<path class="st0" d="M581.6,1024.9c1.1,0,2,0.4,2.8,1.2c0.8,0.8,1.2,1.7,1.2,2.8c0,1.1-0.4,2.1-1.2,2.8c-0.8,0.8-1.7,1.2-2.8,1.2
			s-2-0.4-2.8-1.2c-0.8-0.8-1.2-1.7-1.2-2.8c0-1.1,0.4-2,1.2-2.8C579.6,1025.3,580.5,1024.9,581.6,1024.9z M584.4,1074.4h-5.6v-33
			h5.6V1074.4z"/>
		<path class="st0" d="M626.3,1074.4h-5.6v-4.6h-0.1c-2.9,3.6-6.7,5.5-11.4,5.5c-2.4,0-4.6-0.5-6.6-1.4c-1.9-1-3.6-2.2-5-3.8
			c-1.4-1.6-2.4-3.4-3.2-5.5c-0.7-2.1-1.1-4.3-1.1-6.6c0-2.3,0.4-4.6,1.1-6.7c0.7-2.1,1.8-4,3.1-5.6c1.4-1.6,3-2.9,5-3.8
			s4.2-1.4,6.7-1.4c2.2,0,4.4,0.5,6.3,1.5c2,1,3.6,2.4,5,4.1h0.1v-4.7h5.6v33H626.3z M609.9,1045.6c-1.6,0-3.1,0.3-4.4,1
			c-1.3,0.7-2.4,1.5-3.4,2.6c-0.9,1.1-1.7,2.4-2.2,3.8s-0.8,2.9-0.8,4.5s0.2,3.2,0.7,4.7s1.2,2.8,2.1,4c0.9,1.2,2,2.1,3.4,2.8
			c1.3,0.7,2.9,1.1,4.7,1.1s3.4-0.3,4.8-1c1.4-0.7,2.5-1.6,3.4-2.7c0.9-1.2,1.6-2.5,2.1-4s0.7-3.1,0.7-4.8c0-1.6-0.3-3.2-0.8-4.6
			s-1.2-2.7-2.2-3.8c-0.9-1.1-2.1-1.9-3.5-2.6C613.2,1045.9,611.6,1045.6,609.9,1045.6z"/>
		<path class="st0" d="M661.2,1059c0,1.5,0.3,3,0.8,4.3c0.5,1.4,1.3,2.5,2.2,3.5s2.1,1.8,3.4,2.3c1.3,0.6,2.8,0.9,4.4,0.9
			c2.4,0,4.4-0.6,6-1.9s3-2.9,4-4.9l4.8,2.7c-1.6,3-3.7,5.2-6.3,6.8c-2.6,1.6-5.6,2.4-9,2.4c-2.5,0-4.7-0.4-6.7-1.3
			s-3.7-2.1-5.1-3.6c-1.4-1.5-2.5-3.3-3.2-5.4s-1.1-4.3-1.1-6.7c0-2.4,0.4-4.8,1.1-6.9c0.7-2.2,1.7-4.1,3.1-5.7c1.4-1.6,3-2.9,5-3.8
			s4.3-1.4,6.9-1.4c2.7,0,5,0.5,7,1.5s3.7,2.4,5,4.1s2.3,3.7,2.9,6c0.6,2.3,0.8,4.6,0.7,7L661.2,1059L661.2,1059z M681.2,1054.3
			c-0.2-1.2-0.6-2.3-1.2-3.3c-0.6-1.1-1.3-2-2.1-2.8s-1.8-1.4-2.9-1.9c-1.1-0.4-2.3-0.7-3.5-0.7s-2.4,0.2-3.5,0.7
			c-1.1,0.4-2.2,1.1-3.1,1.9c-0.9,0.8-1.7,1.7-2.3,2.8c-0.6,1.1-1,2.2-1.2,3.3H681.2z"/>
		<path class="st0" d="M724.5,1059.3l-6.4,15h-6.5l24.5-55.5l23.8,55.5h-6.5l-6.2-15H724.5z M735.9,1032.6l-9.1,21.2h17.9
			L735.9,1032.6z"/>
		<path class="st0" d="M779,1049c-0.4-0.9-1-1.7-1.8-2.4c-0.8-0.7-1.7-1-2.7-1s-1.9,0.3-2.8,1c-0.9,0.7-1.3,1.6-1.3,2.7
			c0,0.7,0.2,1.4,0.7,1.9c0.4,0.5,1,1,1.7,1.5c0.7,0.4,1.5,0.8,2.4,1.2c0.9,0.3,1.9,0.7,2.8,1.1c1,0.4,1.9,0.9,2.8,1.4
			c0.9,0.5,1.7,1.1,2.4,1.9c0.7,0.7,1.3,1.6,1.7,2.6s0.7,2.2,0.7,3.6c0,1.6-0.3,3-0.9,4.3c-0.6,1.3-1.4,2.5-2.4,3.4
			s-2.2,1.7-3.5,2.2s-2.8,0.8-4.3,0.8c-2.8,0-5.2-0.7-7.3-2.2c-2-1.5-3.5-3.5-4.4-6.1l5-2.1c0.7,1.6,1.5,2.8,2.5,3.8
			s2.4,1.5,4.2,1.5c1.5,0,2.8-0.5,3.8-1.4s1.5-2.2,1.5-3.6c0-1.2-0.4-2.2-1.1-3c-0.7-0.8-1.6-1.4-2.8-2c-1.1-0.6-2.3-1.1-3.6-1.6
			s-2.5-1.1-3.6-1.8c-1.1-0.7-2.1-1.6-2.8-2.7s-1.1-2.5-1.1-4.2c0-1.4,0.3-2.7,0.8-3.8c0.5-1.2,1.2-2.2,2.2-3c0.9-0.8,2-1.5,3.1-1.9
			c1.2-0.5,2.4-0.7,3.8-0.7c1.9,0,3.7,0.6,5.3,1.8c1.6,1.2,2.8,2.6,3.5,4.4L779,1049z"/>
		<path class="st0" d="M807.1,1049c-0.4-0.9-1-1.7-1.8-2.4c-0.8-0.7-1.7-1-2.7-1s-1.9,0.3-2.8,1c-0.9,0.7-1.3,1.6-1.3,2.7
			c0,0.7,0.2,1.4,0.7,1.9c0.4,0.5,1,1,1.7,1.5c0.7,0.4,1.5,0.8,2.4,1.2c0.9,0.3,1.9,0.7,2.8,1.1c1,0.4,1.9,0.9,2.8,1.4
			c0.9,0.5,1.7,1.1,2.4,1.9c0.7,0.7,1.3,1.6,1.7,2.6s0.7,2.2,0.7,3.6c0,1.6-0.3,3-0.9,4.3c-0.6,1.3-1.4,2.5-2.4,3.4
			s-2.2,1.7-3.5,2.2s-2.8,0.8-4.3,0.8c-2.8,0-5.2-0.7-7.3-2.2c-2-1.5-3.5-3.5-4.4-6.1l5-2.1c0.7,1.6,1.5,2.8,2.5,3.8
			s2.4,1.5,4.2,1.5c1.5,0,2.8-0.5,3.8-1.4s1.5-2.2,1.5-3.6c0-1.2-0.4-2.2-1.1-3c-0.7-0.8-1.6-1.4-2.8-2c-1.1-0.6-2.3-1.1-3.6-1.6
			s-2.5-1.1-3.6-1.8c-1.1-0.7-2.1-1.6-2.8-2.7s-1.1-2.5-1.1-4.2c0-1.4,0.3-2.7,0.8-3.8c0.5-1.2,1.2-2.2,2.2-3c0.9-0.8,2-1.5,3.1-1.9
			c1.2-0.5,2.4-0.7,3.8-0.7c1.9,0,3.7,0.6,5.3,1.8c1.6,1.2,2.8,2.6,3.5,4.4L807.1,1049z"/>
		<path class="st0" d="M824.6,1059c0,1.5,0.3,3,0.8,4.3c0.5,1.4,1.3,2.5,2.2,3.5s2.1,1.8,3.4,2.3c1.3,0.6,2.8,0.9,4.4,0.9
			c2.4,0,4.4-0.6,6-1.9s3-2.9,4-4.9l4.8,2.7c-1.6,3-3.7,5.2-6.3,6.8c-2.6,1.6-5.6,2.4-9,2.4c-2.5,0-4.7-0.4-6.7-1.3
			s-3.7-2.1-5.1-3.6c-1.4-1.5-2.5-3.3-3.2-5.4s-1.1-4.3-1.1-6.7c0-2.4,0.4-4.8,1.1-6.9c0.7-2.2,1.7-4.1,3.1-5.7c1.4-1.6,3-2.9,5-3.8
			s4.3-1.4,6.9-1.4c2.7,0,5,0.5,7,1.5s3.7,2.4,5,4.1s2.3,3.7,2.9,6c0.6,2.3,0.8,4.6,0.7,7L824.6,1059L824.6,1059z M844.6,1054.3
			c-0.2-1.2-0.6-2.3-1.2-3.3c-0.6-1.1-1.3-2-2.1-2.8s-1.8-1.4-2.9-1.9c-1.1-0.4-2.3-0.7-3.5-0.7s-2.4,0.2-3.5,0.7
			c-1.1,0.4-2.2,1.1-3.1,1.9c-0.9,0.8-1.7,1.7-2.3,2.8c-0.6,1.1-1,2.2-1.2,3.3H844.6z"/>
		<path class="st0" d="M871.6,1049c-0.4-0.9-1-1.7-1.8-2.4c-0.8-0.7-1.7-1-2.7-1s-1.9,0.3-2.8,1c-0.9,0.7-1.3,1.6-1.3,2.7
			c0,0.7,0.2,1.4,0.7,1.9c0.4,0.5,1,1,1.7,1.5c0.7,0.4,1.5,0.8,2.4,1.2c0.9,0.3,1.9,0.7,2.8,1.1c1,0.4,1.9,0.9,2.8,1.4
			c0.9,0.5,1.7,1.1,2.4,1.9c0.7,0.7,1.3,1.6,1.7,2.6s0.7,2.2,0.7,3.6c0,1.6-0.3,3-0.9,4.3s-1.4,2.5-2.4,3.4s-2.2,1.7-3.5,2.2
			s-2.8,0.8-4.3,0.8c-2.8,0-5.2-0.7-7.3-2.2c-2-1.5-3.5-3.5-4.4-6.1l5-2.1c0.7,1.6,1.5,2.8,2.5,3.8s2.4,1.5,4.2,1.5
			c1.5,0,2.8-0.5,3.8-1.4s1.5-2.2,1.5-3.6c0-1.2-0.4-2.2-1.1-3c-0.7-0.8-1.6-1.4-2.8-2c-1.1-0.6-2.3-1.1-3.6-1.6s-2.5-1.1-3.6-1.8
			c-1.1-0.7-2.1-1.6-2.8-2.7s-1.1-2.5-1.1-4.2c0-1.4,0.3-2.7,0.8-3.8c0.5-1.2,1.2-2.2,2.2-3c0.9-0.8,2-1.5,3.1-1.9
			c1.2-0.5,2.4-0.7,3.8-0.7c1.9,0,3.7,0.6,5.3,1.8c1.6,1.2,2.8,2.6,3.5,4.4L871.6,1049z"/>
		<path class="st0" d="M899.6,1049c-0.4-0.9-1-1.7-1.8-2.4c-0.8-0.7-1.7-1-2.7-1s-1.9,0.3-2.8,1c-0.9,0.7-1.3,1.6-1.3,2.7
			c0,0.7,0.2,1.4,0.7,1.9c0.4,0.5,1,1,1.7,1.5c0.7,0.4,1.5,0.8,2.4,1.2c0.9,0.3,1.9,0.7,2.8,1.1c1,0.4,1.9,0.9,2.8,1.4
			c0.9,0.5,1.7,1.1,2.4,1.9c0.7,0.7,1.3,1.6,1.7,2.6s0.7,2.2,0.7,3.6c0,1.6-0.3,3-0.9,4.3c-0.6,1.3-1.4,2.5-2.4,3.4
			s-2.2,1.7-3.5,2.2s-2.8,0.8-4.3,0.8c-2.8,0-5.2-0.7-7.3-2.2c-2-1.5-3.5-3.5-4.4-6.1l5-2.1c0.7,1.6,1.5,2.8,2.5,3.8
			s2.4,1.5,4.2,1.5c1.5,0,2.8-0.5,3.8-1.4s1.5-2.2,1.5-3.6c0-1.2-0.4-2.2-1.1-3c-0.7-0.8-1.6-1.4-2.8-2c-1.1-0.6-2.3-1.1-3.6-1.6
			s-2.5-1.1-3.6-1.8c-1.1-0.7-2.1-1.6-2.8-2.7s-1.1-2.5-1.1-4.2c0-1.4,0.3-2.7,0.8-3.8c0.5-1.2,1.2-2.2,2.2-3c0.9-0.8,2-1.5,3.1-1.9
			c1.2-0.5,2.4-0.7,3.8-0.7c1.9,0,3.7,0.6,5.3,1.8c1.6,1.2,2.8,2.6,3.5,4.4L899.6,1049z"/>
		<path class="st0" d="M928.7,1075.3c-2.4,0-4.6-0.4-6.7-1.3c-2.1-0.9-3.9-2.1-5.5-3.7s-2.8-3.4-3.7-5.5s-1.4-4.4-1.4-6.8
			s0.4-4.7,1.3-6.8c0.9-2.1,2.1-4,3.7-5.5c1.6-1.6,3.4-2.9,5.5-3.8s4.4-1.4,6.8-1.4c2.4,0,4.7,0.5,6.8,1.4s3.9,2.2,5.5,3.8
			c1.6,1.6,2.8,3.4,3.7,5.5s1.3,4.4,1.3,6.8s-0.5,4.7-1.4,6.8c-0.9,2.1-2.2,4-3.7,5.5c-1.6,1.6-3.4,2.8-5.5,3.7
			C933.4,1074.8,931.1,1075.3,928.7,1075.3z M928.7,1045.6c-1.7,0-3.3,0.3-4.8,1s-2.7,1.5-3.7,2.6s-1.8,2.4-2.4,3.9
			c-0.6,1.5-0.8,3.1-0.8,4.7c0,1.7,0.3,3.3,0.8,4.8c0.6,1.5,1.4,2.8,2.4,3.9s2.3,2,3.7,2.6c1.5,0.6,3,1,4.8,1c1.7,0,3.3-0.3,4.8-1
			c1.5-0.6,2.7-1.5,3.7-2.6s1.8-2.4,2.4-3.9c0.6-1.5,0.8-3.1,0.8-4.8c0-1.7-0.3-3.3-0.8-4.7c-0.6-1.5-1.4-2.8-2.4-3.9
			s-2.3-2-3.7-2.6C932.1,1045.9,930.5,1045.6,928.7,1045.6z"/>
		<path class="st0" d="M959.2,1044.9L959.2,1044.9c1.1-1.3,2.1-2.4,3.1-3.2c1-0.8,2.5-1.3,4.3-1.3c0.9,0,1.8,0.2,2.6,0.4
			c0.8,0.3,1.6,0.7,2.4,1.1l-2.7,5.1c-0.6-0.4-1.1-0.7-1.5-1c-0.5-0.3-1.1-0.5-1.8-0.5c-1.5,0-2.8,0.4-3.6,1.3
			c-0.9,0.9-1.5,1.9-1.9,3.2c-0.4,1.3-0.7,2.6-0.8,4s-0.1,2.6-0.1,3.7v16.5h-5.6v-33h5.6V1044.9z"/>
		<path class="st0" d="M981.3,1024.9c1.1,0,2,0.4,2.8,1.2c0.8,0.8,1.2,1.7,1.2,2.8c0,1.1-0.4,2.1-1.2,2.8c-0.8,0.8-1.7,1.2-2.8,1.2
			s-2-0.4-2.8-1.2c-0.8-0.8-1.2-1.7-1.2-2.8c0-1.1,0.4-2,1.2-2.8C979.2,1025.3,980.2,1024.9,981.3,1024.9z M984.1,1074.4h-5.6v-33
			h5.6V1074.4z"/>
		<path class="st0" d="M1026,1074.4h-5.6v-4.6h-0.1c-2.9,3.6-6.7,5.5-11.4,5.5c-2.4,0-4.6-0.5-6.6-1.4c-1.9-1-3.6-2.2-5-3.8
			c-1.4-1.6-2.4-3.4-3.2-5.5c-0.7-2.1-1.1-4.3-1.1-6.6c0-2.3,0.4-4.6,1.1-6.7c0.7-2.1,1.8-4,3.1-5.6c1.4-1.6,3-2.9,5-3.8
			s4.2-1.4,6.7-1.4c2.2,0,4.4,0.5,6.3,1.5c2,1,3.6,2.4,5,4.1h0.1v-4.7h5.6L1026,1074.4L1026,1074.4z M1009.5,1045.6
			c-1.6,0-3.1,0.3-4.4,1c-1.3,0.7-2.4,1.5-3.4,2.6c-0.9,1.1-1.7,2.4-2.2,3.8s-0.8,2.9-0.8,4.5s0.2,3.2,0.7,4.7s1.2,2.8,2.1,4
			c0.9,1.2,2,2.1,3.4,2.8c1.3,0.7,2.9,1.1,4.7,1.1s3.4-0.3,4.8-1c1.3-0.7,2.5-1.6,3.4-2.7c0.9-1.2,1.6-2.5,2.1-4s0.7-3.1,0.7-4.8
			c0-1.6-0.3-3.2-0.8-4.6s-1.2-2.7-2.2-3.8c-0.9-1.1-2.1-1.9-3.5-2.6C1012.8,1045.9,1011.3,1045.6,1009.5,1045.6z"/>
		<path class="st0" d="M1063.9,1026.8v15.7h17.6v5.5h-17.6v26.3h-5.9v-53h24.1v5.5H1063.9z"/>
		<path class="st0" d="M1095.5,1024.9c1.1,0,2,0.4,2.8,1.2c0.8,0.8,1.2,1.7,1.2,2.8c0,1.1-0.4,2.1-1.2,2.8c-0.8,0.8-1.7,1.2-2.8,1.2
			c-1.1,0-2-0.4-2.8-1.2c-0.8-0.8-1.2-1.7-1.2-2.8c0-1.1,0.4-2,1.2-2.8C1093.5,1025.3,1094.4,1024.9,1095.5,1024.9z M1098.3,1074.4
			h-5.6v-33h5.6V1074.4z"/>
		<path class="st0" d="M1115.7,1045.3h0.2c1.2-1.6,2.5-2.8,4-3.7c1.5-0.8,3.3-1.3,5.4-1.3c2.3,0,4.2,0.4,5.6,1.2
			c1.4,0.8,2.6,1.8,3.5,3.1c0.8,1.3,1.4,2.8,1.7,4.6c0.3,1.7,0.5,3.5,0.5,5.5v19.6h-5.6v-18.6c0-1.3-0.1-2.6-0.2-3.8
			c-0.1-1.2-0.4-2.3-0.8-3.3c-0.4-0.9-1.1-1.6-2.1-2.2c-0.9-0.6-2.2-0.8-3.9-0.8c-1.9,0-3.4,0.4-4.5,1.2c-1.1,0.8-1.9,1.9-2.5,3.1
			c-0.5,1.3-0.9,2.7-1,4.2s-0.2,3-0.2,4.5v15.7h-5.6v-33h5.6L1115.7,1045.3L1115.7,1045.3z"/>
		<path class="st0" d="M1177.3,1074.4h-5.6v-4.6h-0.1c-2.9,3.6-6.7,5.5-11.4,5.5c-2.4,0-4.6-0.5-6.6-1.4c-1.9-1-3.6-2.2-5-3.8
			c-1.4-1.6-2.4-3.4-3.2-5.5c-0.7-2.1-1.1-4.3-1.1-6.6c0-2.3,0.4-4.6,1.1-6.7s1.8-4,3.1-5.6c1.4-1.6,3-2.9,5-3.8s4.2-1.4,6.7-1.4
			c2.2,0,4.4,0.5,6.3,1.5c2,1,3.6,2.4,5,4.1h0.1v-4.7h5.6L1177.3,1074.4L1177.3,1074.4z M1160.9,1045.6c-1.6,0-3.1,0.3-4.4,1
			s-2.4,1.5-3.4,2.6c-0.9,1.1-1.7,2.4-2.2,3.8s-0.8,2.9-0.8,4.5s0.2,3.2,0.7,4.7s1.2,2.8,2.1,4s2,2.1,3.4,2.8
			c1.3,0.7,2.9,1.1,4.7,1.1c1.8,0,3.4-0.3,4.8-1s2.5-1.6,3.4-2.7c0.9-1.2,1.6-2.5,2.1-4s0.7-3.1,0.7-4.8c0-1.6-0.3-3.2-0.8-4.6
			s-1.2-2.7-2.2-3.8c-0.9-1.1-2.1-1.9-3.5-2.6C1164.2,1045.9,1162.6,1045.6,1160.9,1045.6z"/>
		<path class="st0" d="M1193.4,1045.3L1193.4,1045.3c1.3-1.6,2.6-2.8,4.2-3.7c1.5-0.8,3.3-1.3,5.4-1.3c2.3,0,4.2,0.4,5.6,1.2
			c1.4,0.8,2.6,1.8,3.4,3.1c0.8,1.3,1.4,2.8,1.7,4.6c0.3,1.7,0.5,3.5,0.5,5.5v19.6h-5.6v-18.6c0-1.3-0.1-2.6-0.2-3.8
			c-0.1-1.2-0.4-2.3-0.8-3.3c-0.4-0.9-1.1-1.6-2.1-2.2c-0.9-0.6-2.2-0.8-3.9-0.8c-1.9,0-3.4,0.4-4.5,1.2c-1.1,0.8-1.9,1.9-2.4,3.1
			c-0.5,1.3-0.9,2.7-1,4.2s-0.2,3-0.2,4.5v15.7h-5.6v-33h5.6L1193.4,1045.3L1193.4,1045.3z"/>
		<path class="st0" d="M1249.4,1051.1L1249.4,1051.1c-1.4-1.6-2.9-3-4.5-4s-3.6-1.5-5.8-1.5c-1.7,0-3.3,0.3-4.7,1
			c-1.4,0.7-2.7,1.5-3.7,2.7c-1,1.1-1.8,2.4-2.4,3.9s-0.9,3-0.9,4.7c0,1.6,0.3,3.2,0.8,4.7s1.3,2.8,2.3,3.9s2.2,2,3.6,2.7s3,1,4.7,1
			c2.4,0,4.4-0.5,6.2-1.5c1.7-1,3.2-2.4,4.6-4.2h0.2v7.5c-1.6,1.1-3.3,1.9-5,2.5s-3.5,0.9-5.5,0.9c-2.5,0-4.8-0.4-7-1.3
			s-4-2.1-5.6-3.7s-2.8-3.4-3.7-5.5c-0.9-2.1-1.3-4.4-1.3-6.9c0-2.4,0.5-4.7,1.4-6.8c0.9-2.1,2.2-4,3.8-5.6c1.6-1.6,3.5-2.8,5.6-3.7
			c2.2-0.9,4.4-1.4,6.9-1.4c1.8,0,3.5,0.3,5.3,0.8c1.8,0.6,3.4,1.4,4.9,2.5v7.3H1249.4z"/>
		<path class="st0" d="M1261.1,1059c0,1.5,0.3,3,0.8,4.3c0.5,1.4,1.3,2.5,2.2,3.5c0.9,1,2.1,1.8,3.4,2.3c1.3,0.6,2.8,0.9,4.4,0.9
			c2.4,0,4.4-0.6,6-1.9s3-2.9,4.1-4.9l4.8,2.7c-1.6,3-3.7,5.2-6.3,6.8c-2.6,1.6-5.6,2.4-9,2.4c-2.5,0-4.7-0.4-6.7-1.3
			s-3.7-2.1-5.1-3.6s-2.5-3.3-3.2-5.4c-0.8-2.1-1.1-4.3-1.1-6.7c0-2.4,0.3-4.8,1.1-6.9c0.7-2.2,1.7-4.1,3.1-5.7s3-2.9,5-3.8
			s4.3-1.4,6.8-1.4c2.7,0,5,0.5,7,1.5s3.7,2.4,5,4.1s2.3,3.7,2.9,6s0.8,4.6,0.7,7L1261.1,1059L1261.1,1059z M1281.2,1054.3
			c-0.2-1.2-0.6-2.3-1.2-3.3c-0.6-1.1-1.3-2-2.1-2.8c-0.8-0.8-1.8-1.4-2.9-1.9c-1.1-0.4-2.3-0.7-3.5-0.7s-2.4,0.2-3.5,0.7
			c-1.1,0.4-2.2,1.1-3.1,1.9s-1.7,1.7-2.3,2.8c-0.6,1.1-1,2.2-1.2,3.3H1281.2z"/>
		<path class="st0" d="M1298.7,1024.9c1.1,0,2,0.4,2.8,1.2c0.8,0.8,1.2,1.7,1.2,2.8c0,1.1-0.4,2.1-1.2,2.8c-0.8,0.8-1.7,1.2-2.8,1.2
			c-1.1,0-2-0.4-2.8-1.2c-0.8-0.8-1.2-1.7-1.2-2.8c0-1.1,0.4-2,1.2-2.8C1296.7,1025.3,1297.6,1024.9,1298.7,1024.9z M1301.5,1074.4
			h-5.6v-33h5.6V1074.4z"/>
		<path class="st0" d="M1318.6,1044.9L1318.6,1044.9c1.1-1.3,2.1-2.4,3.1-3.2c1-0.8,2.4-1.3,4.3-1.3c0.9,0,1.8,0.2,2.7,0.4
			c0.8,0.3,1.6,0.7,2.4,1.1l-2.7,5.1c-0.6-0.4-1.1-0.7-1.6-1s-1.1-0.5-1.8-0.5c-1.5,0-2.7,0.4-3.6,1.3s-1.5,1.9-1.9,3.2
			c-0.4,1.3-0.7,2.6-0.8,4c-0.1,1.4-0.1,2.6-0.1,3.7v16.5h-5.6v-33h5.6V1044.9z"/>
		<path class="st0" d="M1366.9,1074.4h-5.6v-4.6h-0.1c-2.9,3.6-6.7,5.5-11.4,5.5c-2.4,0-4.6-0.5-6.6-1.4c-1.9-1-3.6-2.2-5-3.8
			c-1.4-1.6-2.4-3.4-3.2-5.5c-0.7-2.1-1.1-4.3-1.1-6.6c0-2.3,0.4-4.6,1.1-6.7s1.8-4,3.1-5.6c1.3-1.6,3-2.9,5-3.8s4.2-1.4,6.7-1.4
			c2.2,0,4.3,0.5,6.3,1.5s3.6,2.4,5,4.1h0.1v-4.7h5.6L1366.9,1074.4L1366.9,1074.4z M1350.5,1045.6c-1.6,0-3.1,0.3-4.4,1
			s-2.4,1.5-3.4,2.6c-0.9,1.1-1.6,2.4-2.2,3.8c-0.5,1.4-0.8,2.9-0.8,4.5s0.2,3.2,0.7,4.7s1.2,2.8,2.1,4s2,2.1,3.4,2.8
			c1.3,0.7,2.9,1.1,4.7,1.1c1.8,0,3.4-0.3,4.8-1s2.5-1.6,3.5-2.7c0.9-1.2,1.6-2.5,2.1-4s0.7-3.1,0.7-4.8c0-1.6-0.3-3.2-0.8-4.6
			s-1.2-2.7-2.2-3.8c-0.9-1.1-2.1-1.9-3.5-2.6C1353.8,1045.9,1352.2,1045.6,1350.5,1045.6z"/>
		<path class="st0" d="M1439.4,1033c-2.1-2.2-4.6-3.9-7.3-5.2c-2.8-1.2-5.7-1.9-8.8-1.9c-3,0-5.7,0.6-8.3,1.8
			c-2.6,1.2-4.9,2.8-6.8,4.8s-3.4,4.3-4.6,7c-1.1,2.7-1.7,5.4-1.7,8.3s0.5,5.7,1.7,8.3c1.1,2.7,2.7,5,4.6,7s4.2,3.6,6.8,4.8
			s5.4,1.8,8.4,1.8s5.9-0.7,8.7-1.9s5.2-3,7.3-5.1v7.3c-2.3,1.6-4.8,2.9-7.5,3.8s-5.5,1.4-8.3,1.4c-3.8,0-7.3-0.7-10.6-2.2
			c-3.4-1.4-6.3-3.4-8.8-5.8c-2.5-2.5-4.5-5.4-6-8.7c-1.5-3.3-2.2-6.8-2.2-10.6c0-3.8,0.7-7.4,2.2-10.7c1.4-3.4,3.4-6.3,5.9-8.8
			s5.4-4.5,8.8-5.9s6.9-2.2,10.7-2.2c5.9,0,11.2,1.7,15.8,5.2L1439.4,1033L1439.4,1033z"/>
		<path class="st0" d="M1463.8,1075.3c-2.4,0-4.6-0.4-6.8-1.3s-3.9-2.1-5.5-3.7s-2.8-3.4-3.7-5.5c-0.9-2.1-1.4-4.4-1.4-6.8
			s0.5-4.7,1.3-6.8c0.9-2.1,2.1-4,3.7-5.5c1.6-1.6,3.4-2.9,5.5-3.8s4.4-1.4,6.8-1.4s4.7,0.5,6.8,1.4c2.1,0.9,3.9,2.2,5.5,3.8
			c1.6,1.6,2.8,3.4,3.7,5.5c0.9,2.1,1.3,4.4,1.3,6.8s-0.5,4.7-1.4,6.8c-0.9,2.1-2.2,4-3.7,5.5c-1.6,1.6-3.4,2.8-5.5,3.7
			C1468.4,1074.8,1466.2,1075.3,1463.8,1075.3z M1463.8,1045.6c-1.7,0-3.3,0.3-4.8,1c-1.4,0.7-2.7,1.5-3.7,2.6s-1.8,2.4-2.4,3.9
			s-0.8,3.1-0.8,4.7c0,1.7,0.3,3.3,0.8,4.8s1.3,2.8,2.4,3.9c1,1.1,2.3,2,3.7,2.6c1.5,0.6,3,1,4.8,1c1.7,0,3.3-0.3,4.8-1
			c1.4-0.6,2.7-1.5,3.7-2.6s1.8-2.4,2.4-3.9s0.8-3.1,0.8-4.8c0-1.7-0.3-3.3-0.8-4.7c-0.5-1.5-1.4-2.8-2.4-3.9s-2.3-2-3.7-2.6
			C1467.1,1045.9,1465.5,1045.6,1463.8,1045.6z"/>
		<path class="st0" d="M1494.5,1045.3h0.2c1.2-1.6,2.5-2.8,4-3.7c1.5-0.8,3.3-1.3,5.4-1.3c2.3,0,4.2,0.4,5.6,1.2
			c1.4,0.8,2.6,1.8,3.5,3.1c0.8,1.3,1.4,2.8,1.7,4.6c0.3,1.7,0.5,3.5,0.5,5.5v19.6h-5.6v-18.6c0-1.3-0.1-2.6-0.2-3.8
			c-0.1-1.2-0.4-2.3-0.8-3.3c-0.4-0.9-1.1-1.6-2.1-2.2c-0.9-0.6-2.2-0.8-3.9-0.8c-1.9,0-3.4,0.4-4.5,1.2c-1.1,0.8-1.9,1.9-2.5,3.1
			c-0.5,1.3-0.9,2.7-1,4.2s-0.2,3-0.2,4.5v15.7h-5.6v-33h5.6L1494.5,1045.3L1494.5,1045.3z"/>
		<path class="st0" d="M1531.9,1074.4h-5.6v-27.8h-3.5v-5.2h3.5v-11.9h5.6v11.9h5.9v5.2h-5.9V1074.4z"/>
		<path class="st0" d="M1573.1,1074.4h-5.6v-4.6h-0.1c-2.9,3.6-6.7,5.5-11.4,5.5c-2.4,0-4.6-0.5-6.6-1.4c-1.9-1-3.6-2.2-5-3.8
			c-1.4-1.6-2.4-3.4-3.2-5.5c-0.7-2.1-1.1-4.3-1.1-6.6c0-2.3,0.4-4.6,1.1-6.7s1.8-4,3.1-5.6c1.4-1.6,3-2.9,5-3.8s4.2-1.4,6.7-1.4
			c2.2,0,4.4,0.5,6.3,1.5c2,1,3.6,2.4,5,4.1h0.1v-4.7h5.6L1573.1,1074.4L1573.1,1074.4z M1556.6,1045.6c-1.6,0-3.1,0.3-4.4,1
			s-2.4,1.5-3.4,2.6c-0.9,1.1-1.7,2.4-2.2,3.8s-0.8,2.9-0.8,4.5s0.2,3.2,0.7,4.7s1.2,2.8,2.1,4s2,2.1,3.4,2.8
			c1.3,0.7,2.9,1.1,4.7,1.1c1.8,0,3.4-0.3,4.8-1c1.3-0.7,2.5-1.6,3.4-2.7c0.9-1.2,1.6-2.5,2.1-4s0.7-3.1,0.7-4.8
			c0-1.6-0.3-3.2-0.8-4.6s-1.2-2.7-2.2-3.8c-0.9-1.1-2.1-1.9-3.5-2.6C1559.9,1045.9,1558.3,1045.6,1556.6,1045.6z M1567.8,1024.7
			l-10.8,10.8l-3.5-2l8.4-11.5L1567.8,1024.7z"/>
		<path class="st0" d="M1583.2,1016.4h5.6v29.7h0.1c1.3-1.8,3-3.2,5-4.1c2-1,4.1-1.5,6.3-1.5c2.4,0,4.6,0.5,6.6,1.4s3.6,2.2,5,3.8
			c1.4,1.6,2.4,3.4,3.2,5.5c0.7,2.1,1.1,4.3,1.1,6.7c0,2.3-0.4,4.5-1.1,6.6c-0.8,2.1-1.8,4-3.2,5.6c-1.4,1.6-3,2.9-4.9,3.8
			c-1.9,1-4.1,1.4-6.6,1.4c-2.3,0-4.4-0.5-6.4-1.4s-3.6-2.3-5-4.1h-0.1v4.6h-5.6V1016.4z M1599.3,1045.6c-1.6,0-3.1,0.3-4.4,1
			s-2.4,1.5-3.4,2.6c-0.9,1.1-1.6,2.4-2.2,3.8c-0.5,1.4-0.8,2.9-0.8,4.5s0.3,3.2,0.7,4.7c0.5,1.5,1.2,2.8,2.1,4s2,2.1,3.4,2.8
			c1.3,0.7,2.9,1.1,4.7,1.1c1.8,0,3.4-0.3,4.8-1s2.5-1.6,3.5-2.7c0.9-1.2,1.6-2.5,2.1-4s0.7-3.1,0.7-4.8c0-1.6-0.3-3.2-0.8-4.6
			s-1.2-2.7-2.2-3.8c-0.9-1.1-2.1-1.9-3.5-2.6C1602.6,1045.9,1601,1045.6,1599.3,1045.6z"/>
		<path class="st0" d="M1627.9,1024.9c1.1,0,2,0.4,2.8,1.2c0.8,0.8,1.2,1.7,1.2,2.8c0,1.1-0.4,2.1-1.2,2.8c-0.8,0.8-1.7,1.2-2.8,1.2
			c-1.1,0-2-0.4-2.8-1.2c-0.8-0.8-1.2-1.7-1.2-2.8c0-1.1,0.4-2,1.2-2.8C1625.9,1025.3,1626.8,1024.9,1627.9,1024.9z M1630.7,1074.4
			h-5.6v-33h5.6V1074.4z"/>
		<path class="st0" d="M1647.9,1074.4h-5.6v-58h5.6V1074.4z"/>
	</g>
	<polygon class="st0" points="1092.5,397.4 1092.5,464.3 1210.6,464.1 1210.8,582.3 1277.7,582.2 1277.5,397.2 	"/>
	<g>
		<path class="st0" d="M1093,558.2l-96-224.5c0,0-13.2-2.1-30.6-2.2c-17.2-0.1-24.6,1-24.6,1l-202,458.6c0,0,24.5,26.1,52.1,44.1
			l47.8-112.5h126.7v-61.3h-99.9L968,423.8l100.3,237.6h24.8l143.2-193v-13.7l-62.7,0.8L1093,558.2z"/>
	</g>
	<g>
		<path class="st0" d="M1210.7,581.8c-0.3,32-6.5,62.6-19,91.8c-12.7,29.9-30,56.3-52,79c-5.3,5.5-10.8,10.7-16.6,15.6
			c-18.2,14.6-38.1,27.1-60,37.2c-31.1,14.5-63.4,21.6-96.8,21.8c-33.4-0.2-65.7-7.3-96.8-21.8c-21.9-10.1-41.8-22.6-60-37.2
			c-5.8-5-11.3-10.2-16.6-15.7c-22-22.8-39.3-49.1-52-79s-19.1-61.4-19.1-94.2s6.3-64.2,19.1-94.1c12.7-29.9,29.9-56.3,51.6-79
			c21.7-22.8,47.3-40.9,76.7-54.5c29.4-13.5,60.8-20.2,94.2-20.2c35,0,68.2,7,99.7,21c13.4,5.9,25.9,13.1,37.9,21l45.1-45.1v-0.1
			c-52.4-39.2-112-58.8-178.7-58.8c-42.9,0-83.4,8.2-121.2,24.6c-37.9,16.4-71,38.8-99.3,67.1c-28.4,28.4-50.8,61.5-67.2,99.3
			c-16.4,37.9-24.6,78.3-24.6,121.2c0,42.4,8.3,82.3,25,119.6s39.2,69.9,67.5,97.7s61.4,49.8,99.3,66c14.5,6.2,29.5,10.8,44.6,14.6
			c1.8,0.5,3.5,0.9,5.3,1.4c5.1,1.2,10.3,2.3,15.5,3.2c6.1,1.1,12.2,2,18.3,2.7c2.3,0.3,4.6,0.6,7,0.8c9.1,0.9,18.3,1.4,27.4,1.4
			c0.4,0,0.7,0,1.1,0c0.4,0,0.7,0,1.1,0c9.2,0,18.3-0.6,27.5-1.4c2.3-0.2,4.7-0.6,7-0.8c6.1-0.8,12.2-1.6,18.3-2.7
			c5.2-0.9,10.4-2,15.5-3.2c1.8-0.4,3.5-0.9,5.3-1.4c15.2-3.8,30.1-8.4,44.6-14.6c37.9-16.2,71-38.2,99.3-66s50.8-60.4,67.5-97.7
			c16.7-37.4,25-77.2,25-119.6h-66.5V581.8z"/>
	</g>
</g>
</svg>
