<?xml version="1.0" encoding="utf-8"?>
<!-- Generator: Adobe Illustrator 26.0.1, SVG Export Plug-In . SVG Version: 6.00 Build 0)  -->
<svg version="1.1" id="Camada_1" xmlns="http://www.w3.org/2000/svg" xmlns:xlink="http://www.w3.org/1999/xlink" x="0px" y="0px"
	 viewBox="0 0 1920 1312" style="enable-background:new 0 0 1920 1312;" xml:space="preserve">
<style type="text/css">
	.st0{fill:#FFFFFF;}
	.st1{fill:#86CCEA;}
	.st2{fill:#B1D075;}
	.st3{fill:#FFE95F;}
	.st4{fill:#FBC977;}
	.st5{fill:#BA8ABD;}
	.st6{fill:#EE9DC3;}
	.st7{fill:#9D7D6F;}
</style>
<path class="st0" d="M401.2,534.6c0,0-31.5-24.6-91.8-3.7c-60.3,20.9-65.9,85.2-63.5,117.3c2.3,32.1,48.5,125.3,165,77.5
	c0,0,26.6,17,82.4,3.4c0,0-47.1,30.9,0,67.6v19.9c0,0-15.1,46.4,42,46.4c29.3,0,40.8-15.8,40.8-15.8s41.3,18.6,56.6-6.5
	c0,0,16.2,14.4,39.4,0.5c0,0,36.6,24.8,74.7-21c0,0,9.5,33.1,54.6,19.2c0,0,18.2,7.9,29.4-6.2c0,0,3.7,5.3,28.1,5.3
	s36.9-24.4,36.9-24.4s29.7,32.2,74.2,13.5c0,0,21.1,10.5,33-5.8c0,0,17.5,13.9,43-1.4c0,0,22.3,11.7,51.9-4.8
	c0,0,31.5,15.5,54.3-4.9c0,0,5.4,6,25.4,6c20,0,26.8-10.9,26.8-10.9s17.8,11.8,40.6,2c0,0,19,9.3,35.2-1.4c0,0,11.6,5.1,26-2.8
	c0,0,25,6.9,38.5-2.3c0,0,20.4,7.9,39,0c18.6-7.9,75.1-79.3,18.6-95c0,0-26-21.4-47.8-13.5c0,0-12.5-7.5-13.9-19.7
	c0,0,11.6-2.5,15.8-10.4c0,0,26.8,22.7,70.4,12.1c43.7-10.7,45.1-47.8,45.1-47.8s9.7,40.3,86.7,40.3c77,0,98.3-77.5,92.3-121
	c-6-43.6-35.7-101.1-111.8-96.9c-38.5-0.2-60.7,27.9-60.7,27.9s-5.1-21.4-43.1-21.4s-84.9,6.5-84.9,6.5s-28.7,3.3-30.6,19
	c0,0-27.8-19.9-64-14.4s-56.1,14.4-72.8,47.8c0,0-13-45.4-65.8-39.4c-38.6,2.3-49.6,24.1-49.6,24.1s-73.1-48.2-134.2,19
	c0,0-18.2-32.9-74.2-26c-56,7-69.5,35-69.5,35s-19.9-41.9-95.1-22.4c-40.8,11.1-51,39.9-51,39.9s-19.5-37.1-76.5-35.2
	c-44.1,2.3-66.9,28-66.9,28s-14.2-24.3-49.5-21C415.1,519.8,410.9,525.3,401.2,534.6"/>
<path class="st1" d="M352.7,630.8c0,0-16.4-1.7-16.7,9.4c-0.3,11.1,7.7,19.8,21.6,15.3c13.9-4.5,29.6-8.7,34.8-5.6
	c5.2,3.1,13.6,11.8,13.6,20.5c0,8.7-0.7,27.5-16,29.6c-15.3,2.1-31.7,10.4-47.6,7.7c-16-2.8-55.5-18.4-58.9-42.4
	c-3.4-24-13.5-52.5,6.3-73.4c19.8-20.9,33-35.5,55.7-33c22.6,2.4,46.3,3.8,52.2,16.7c5.9,12.9,12.2,30.3,8.3,39.7
	c-3.8,9.4-4.9,19.1-11.1,21.9C388.5,639.9,363.5,636.7,352.7,630.8"/>
<path class="st2" d="M431.8,596.7c0,0-9.3-1.4-11.1-7.4c-1.9-6-10.7-23.2,0-28.3c10.7-5.1,20.4-13.5,32-9.3
	c11.6,4.2,29.7,8.6,28.3,21.9c-1.4,13.3-6.5,19.3-10.2,21.2c-3.7,1.9,13.4,7.9,14.4,22.3c0.9,14.4-2.3,76.5-2.3,76.5l-52.4,7
	l-10.2-64.5C420.2,636.2,424.4,606,431.8,596.7"/>
<path class="st3" d="M564.4,544.8c0,0-32.5-1.4-45,24.6c-12.5,26-20.4,26.4-19.5,47.3c0.9,20.9,7.9,51.5,25,61.2
	c17.2,9.7,29.7,15.3,42.2,15.3s28.3-3.7,36.2-8.3c7.9-4.6,21.3-17.2,26.4-27.8c5.1-10.7,13.9-29.7,8.3-43.6
	c-5.6-13.9-1.9-45-24.1-56.6C591.8,545.3,564.4,544.8,564.4,544.8"/>
<path class="st4" d="M1544.7,484.4c0,0-32.5-1.4-45,24.6c-12.5,26-20.4,26.4-19.5,47.3c0.9,20.9,7.9,51.5,25,61.2
	c17.2,9.7,29.7,15.3,42.2,15.3s28.3-3.7,36.2-8.3c7.9-4.6,21.3-17.2,26.4-27.8c5.1-10.7,13.9-29.7,8.3-43.6s-1.9-45-24.1-56.6
	C1572.1,484.8,1544.7,484.4,1544.7,484.4"/>
<path class="st5" d="M1002.7,518.4c0,0-32.5-1.4-45,24.6c-12.5,26-20.4,26.4-19.5,47.3c0.9,20.9,7.9,51.5,25,61.2
	c17.2,9.7,29.7,15.3,42.2,15.3s28.3-3.7,36.2-8.3c7.9-4.6,21.3-17.2,26.4-27.8c5.1-10.7,13.9-29.7,8.3-43.6
	c-5.6-13.9-1.9-45-24.1-56.6C1030,518.8,1002.7,518.4,1002.7,518.4"/>
<path class="st4" d="M751.8,616.7c0,0-22.7-7.4-28.7-7.4c-6,0-18.6,2.3-13,14.4c5.6,12.1,17.2,9.7,23.2,7.9c6-1.8,23.2-4.2,25.5-4.2
	c2.3,0,15.3,0.7,19,5.7c3.7,5,0.9,12.9,0,20.8c-0.9,7.9,1.9,20.4-11.6,20.9c-13.5,0.5-18.1,10-40.3,5.5
	c-22.3-4.5-38.5,0.6-45.9-13.8c-7.4-14.4-27.4-31.1-26.4-52.9c0.9-21.8,2.3-51.5,15.8-53.3c13.5-1.9,33.4-27.8,50.1-24.6
	c16.7,3.3,47.8,5.1,53.8,17.6c6,12.5,17.2,35.7,6.5,44.5C769,606.5,751.8,616.7,751.8,616.7"/>
<path class="st6" d="M891.8,608.8c0,0-22.7-7.4-28.7-7.4c-6,0-18.6,2.3-13,14.4c5.6,12.1,17.2,9.7,23.2,7.9c6-1.8,23.2-4.2,25.5-4.2
	c2.3,0,15.3,0.7,19,5.7c3.7,5,0.9,12.9,0,20.8c-0.9,7.9,1.9,20.4-11.6,20.9c-13.5,0.5-18.1,10-40.3,5.5
	c-22.3-4.5-38.5,0.6-45.9-13.8c-7.4-14.4-27.4-31.1-26.4-52.9c0.9-21.8,2.3-51.5,15.8-53.3c13.5-1.9,33.4-27.8,50.1-24.6
	c16.7,3.3,47.8,5.1,53.8,17.6c6,12.5,17.2,35.7,6.5,44.5C909,598.6,891.8,608.8,891.8,608.8"/>
<path class="st1" d="M1091.5,527.4v77.7c0,0,6.3,41.7,8.3,44.5c2.1,2.8,20.2,9,20.2,9l59.1-6.3l11.8-9v-35.1l-16-7.9h-20.2l-5.6-76
	C1149.2,524.4,1120,486.5,1091.5,527.4"/>
<path class="st2" d="M1271.7,636.2c0,0,10.2,14.8,30.6,12.1c20.4-2.8,27.4-9.7,26-41.3c-1.4-31.5,7.9-105.3-66.3-105.3
	c-74.2,0-55.7,94.1-55.7,105.3S1206.3,678.8,1271.7,636.2"/>
<path class="st3" d="M1370.9,555.5c0,0-32.9,3.3-32.9-25.5c0-28.7-2.3-34.3,52.9-34.3s68.6-11.1,68.6,27.4c0,38.5-17.6,26.4-25,26.4
	c-7.4,0,0.5,37.1,0.5,54.7c0,17.6-3.7,36.6-29.7,36.6C1379.3,640.8,1370.9,631.1,1370.9,555.5"/>
<g>
	<path class="st7" d="M348,551l3.1-0.2c26.7-1.6,45.8,9.1,57.2,32.3c1.9,4.8,3,8.9,3.2,12.4l0.6,10.5c0.6,9.4-3,19-10.6,28.8
		c-4,4.1-7.3,6.7-10.2,7.8l0,0.3c13.3,4.5,20.4,13.3,21.2,26.2l0.2,3.8c0.7,10.7-5,20.5-17.1,29.6c-10,6.1-22.3,9.6-36.8,10.5
		l-3.8,0.2c-27.5,1.7-49.9-8.2-67.2-29.6c-9.5-12.8-14.8-27.5-15.8-44.1l-0.2-3.1c-1.7-27.9,8.8-51.1,31.7-69.6
		C317.3,557.2,332.1,552,348,551z M285.5,637.7c1.4,22.7,11.3,40,29.8,52c11.8,7.6,25.4,10.8,41,9.9c23.6-1.5,37.5-8.6,41.9-21.3
		c0.9-2,1.3-4.5,1.1-7.2c-0.7-11.3-7.4-16.5-20.2-15.7c-2.8,0.2-9.1,1.9-18.9,5.2c-2.3,0.4-4.5,0.6-6.6,0.8l-3.8,0.2
		c-10.7,0.7-17.6-3.6-20.7-12.7c-0.3-1.6-0.5-2.9-0.6-4c-0.6-9.2,3.3-15.3,11.6-18.4c1-0.5,2.9-0.9,5.7-1.1
		c8.1-0.5,16.3,1.8,24.4,7.1c2.2,0.2,3.7,0.3,4.6,0.2l1.9-0.1c11-0.7,18.1-7.6,21.3-20.9c0.8-3.7,1.1-7.3,0.9-10.9
		c-0.8-13.8-7.9-24.3-21-31.6c-7.9-3.8-17.1-5.4-27.6-4.8c-26.4,1.6-45.8,14.1-58.2,37.3C286.9,613,284.7,625,285.5,637.7z
		 M342.3,642.6l0.2,3.3c1.1,1.6,3.7,2.2,7.6,2l1.8-0.1c4.1-0.2,8.3-1.2,12.6-2.9l0-0.3c-1.4-0.4-4-1.6-7.7-3.7
		c-4.3-1.5-7.8-2.1-10.4-2C343.4,639,342.1,640.3,342.3,642.6z"/>
	<path class="st7" d="M439.1,545.4l15.3-0.9c12.4-0.8,22.4,5.5,29.8,18.8c1.4,3.8,2.2,6.9,2.3,9.5l0.5,7.7
		c-0.1,7.8-2.9,12.9-8.5,15.2l0,0.2c6.7,6.2,10.3,13.4,10.8,21.4l3.6,57.8c1,16.3-4.3,26.2-15.8,29.7c-2.9,0.9-6.1,1.4-9.7,1.6
		l-21.2,1.3c-11.7,0.7-19.8-2.5-24.2-9.7c-2.9-4.9-4.5-11-5-18.2l-3.6-57.8c-0.5-8,2.2-15.5,8.1-22.5l0-0.2
		c-6.4-2.3-9.9-7-10.3-14.1l-0.5-7.7c-0.8-12.4,5.5-22.4,18.8-29.8C433.2,546.2,436.4,545.5,439.1,545.4z M424.3,580.9l0,0.7
		c0.2,3.6,1.4,5.3,3.6,5.2c2.6-0.2,3.8-0.2,3.8-0.1l2.2-0.3l30.1-1.9l2.1,0c4.6-0.3,6.9-1.4,6.8-3.4c0.2-1.1,0.2-2.4,0.1-4
		c-0.6-9.2-4.6-15.2-12.1-18.1c-2.3-0.8-5.7-1-10.4-0.8l-6.4,0.4C430.1,559.6,423.4,567,424.3,580.9z M427,624.8l2.8,46.2
		c0.8,13.5,2.7,20.6,5.5,21.3c0.1,1.6,6.8,2,20,1.2l1-0.1c13.2-0.8,19.8-2.2,19.7-4c2.4-1.3,3.3-5.7,2.9-13.3c0.2,0,0.2-2.7-0.2-8.2
		l-2.8-46.2c-0.6-9.4-4.3-15.5-11.1-18.4c-2.7-1.1-5.4-1.6-8-1.4l-13.4,0.8c-7.9,0.5-13.2,5.1-15.9,13.9
		C427,618.3,426.8,621,427,624.8z"/>
	<path class="st7" d="M563.6,537.7l2.4-0.1c27.7-1.7,50.1,9.8,67,34.7c6.9,12.4,10.7,23.6,11.3,33.7l0.9,14.5
		c1.2,18.7-5.2,37-19.2,55c-14.3,14.9-31.3,22.9-51,24.1l-4,0.2c-21,1.3-39.7-6-55.9-22.1c-13.4-14.4-20.7-31.8-21.9-52.2l-0.2-3.8
		c-1.6-25.7,7-47.6,25.7-65.8C531.7,544.8,546.7,538.7,563.6,537.7z M506.5,623.2c1.3,20.9,9.7,37.8,25.3,50.7
		c12.2,9,25.1,13.2,38.5,12.3l4.9-0.3c21-1.3,37.4-12.3,49.2-33c5.8-12.7,8.4-25.7,7.6-38.9c-1.1-18.2-7.5-33.1-19.2-44.6
		c-11.6-8.8-26.5-12.7-44.6-11.6c-2.5,0.5-5.7,0.9-9.5,1.1c4.2-3.1,11.3-4.9,21.2-5.5l0.3,0c1.4-0.1,3.4-0.1,6.1,0l0.3,0l0-0.3
		c-7.6-1.6-13.5-2.3-17.8-2l-6.4,0.4c-16.8,1-31.5,9.7-44,26C509.4,591.7,505.5,606.9,506.5,623.2z"/>
	<path class="st7" d="M723,527.8l3.1-0.2c26.7-1.7,45.8,9.1,57.2,32.3c1.9,4.8,3,8.9,3.2,12.4l0.6,10.5c0.6,9.4-3,19-10.6,28.8
		c-3.9,4.1-7.3,6.7-10.2,7.8l0,0.3c13.3,4.5,20.4,13.2,21.2,26.1l0.2,3.8c0.7,10.7-5,20.5-17.1,29.6c-10,6.1-22.2,9.6-36.8,10.5
		l-3.8,0.2c-27.5,1.7-49.9-8.2-67.2-29.6c-9.5-12.8-14.8-27.5-15.8-44.1l-0.2-3.1c-1.7-27.9,8.8-51.1,31.7-69.6
		C692.3,534,707.1,528.8,723,527.8z M660.5,614.6c1.4,22.6,11.3,40,29.8,52c11.8,7.5,25.4,10.8,41,9.9c23.6-1.5,37.5-8.6,41.9-21.3
		c0.9-2,1.3-4.5,1.1-7.3c-0.7-11.2-7.4-16.5-20.2-15.7c-2.8,0.2-9.1,1.9-18.9,5.2c-2.3,0.4-4.5,0.6-6.6,0.8l-3.8,0.2
		c-10.7,0.7-17.6-3.6-20.7-12.7c-0.3-1.6-0.5-2.9-0.6-4c-0.6-9.2,3.3-15.3,11.6-18.4c1-0.5,2.9-0.9,5.7-1.1
		c8.1-0.5,16.2,1.8,24.4,7.1c2.2,0.2,3.8,0.3,4.6,0.2l1.9-0.1c11-0.7,18.1-7.7,21.3-20.9c0.8-3.7,1.1-7.3,0.9-10.9
		c-0.9-13.8-7.9-24.3-21-31.6c-7.9-3.8-17.1-5.4-27.6-4.8c-26.4,1.6-45.8,14.1-58.2,37.3C661.9,589.8,659.7,601.8,660.5,614.6z
		 M717.3,619.4l0.2,3.3c1.1,1.6,3.7,2.2,7.6,2l1.7-0.1c4.1-0.2,8.3-1.2,12.6-2.9l0-0.4c-1.4-0.4-4-1.6-7.7-3.7
		c-4.3-1.5-7.8-2.1-10.4-2C718.5,615.9,717.2,617.1,717.3,619.4z"/>
	<path class="st7" d="M865.3,519l3.1-0.2c26.7-1.7,45.8,9.1,57.2,32.3c1.9,4.8,3,8.9,3.2,12.4l0.7,10.5c0.6,9.4-3,19-10.6,28.8
		c-4,4.1-7.3,6.7-10.2,7.8l0,0.3c13.3,4.5,20.4,13.3,21.2,26.2l0.2,3.8c0.7,10.7-5,20.5-17.1,29.6c-10,6.1-22.3,9.6-36.8,10.5
		l-3.8,0.2c-27.5,1.7-49.9-8.2-67.2-29.6c-9.5-12.8-14.8-27.5-15.8-44.1l-0.2-3.1c-1.7-27.9,8.8-51.1,31.7-69.6
		C834.6,525.2,849.4,520,865.3,519z M802.8,605.8c1.4,22.7,11.3,40,29.8,52c11.8,7.6,25.4,10.8,41,9.9c23.6-1.5,37.5-8.6,41.9-21.3
		c0.9-2,1.3-4.5,1.1-7.2c-0.7-11.3-7.4-16.5-20.2-15.7c-2.8,0.2-9.1,1.9-18.9,5.2c-2.3,0.4-4.5,0.6-6.6,0.8l-3.8,0.2
		c-10.7,0.7-17.6-3.6-20.7-12.7c-0.3-1.6-0.5-2.9-0.6-4c-0.6-9.2,3.3-15.3,11.6-18.4c1-0.5,2.9-0.9,5.7-1.1
		c8.1-0.5,16.3,1.8,24.4,7.1c2.2,0.2,3.8,0.3,4.6,0.2l1.9-0.1c11-0.7,18.1-7.6,21.3-20.9c0.8-3.7,1.1-7.3,0.9-10.9
		c-0.8-13.8-7.9-24.3-21-31.6c-7.9-3.8-17.1-5.4-27.6-4.8c-26.4,1.6-45.8,14.1-58.2,37.3C804.2,581,802,593,802.8,605.8z
		 M859.6,610.7l0.2,3.3c1.2,1.6,3.7,2.2,7.6,2l1.8-0.1c4.1-0.2,8.2-1.2,12.6-2.9l0-0.3c-1.4-0.4-4-1.6-7.8-3.7
		c-4.3-1.5-7.8-2.1-10.4-2C860.8,607.1,859.5,608.3,859.6,610.7z"/>
	<path class="st7" d="M1003.4,510.5l2.4-0.2c27.8-1.7,50.1,9.8,67,34.7c6.9,12.4,10.7,23.6,11.3,33.7l0.9,14.5
		c1.2,18.7-5.2,37-19.2,55c-14.4,14.9-31.3,22.9-51,24.1l-4,0.2c-21,1.3-39.7-6.1-55.9-22.1c-13.4-14.4-20.7-31.8-21.9-52.2
		l-0.2-3.8c-1.6-25.7,7-47.6,25.7-65.8C971.5,517.7,986.5,511.5,1003.4,510.5z M946.3,596c1.3,20.9,9.7,37.8,25.3,50.7
		c12.2,9,25.1,13.1,38.5,12.3l4.9-0.3c21-1.3,37.4-12.3,49.2-32.9c5.9-12.7,8.4-25.7,7.6-38.9c-1.1-18.2-7.5-33.1-19.2-44.6
		c-11.6-8.8-26.5-12.7-44.6-11.6c-2.5,0.5-5.7,0.9-9.5,1.1c4.2-3,11.3-4.9,21.2-5.5l0.4,0c1.4-0.1,3.4-0.1,6.1,0l0.3,0l0-0.3
		c-7.6-1.6-13.5-2.3-17.8-2l-6.4,0.4c-16.8,1-31.5,9.7-44,26C949.2,564.5,945.3,579.8,946.3,596z"/>
	<path class="st7" d="M1111.1,503.8l15-0.9c12.9-0.8,23,5.5,30.2,18.8c1.5,3.5,2.4,7.7,2.7,12.6l3.6,57.8l1.4-0.1
		c21.4-1.3,32.6,6.6,33.6,23.8l1.2,20.2c0.7,12-6,20.2-20.1,24.8c-3.9,1.2-8.1,1.9-12.6,2.2l-44.9,2.8c-12.2,0.7-22.1-5.5-29.7-18.8
		c-1.3-4-2-7.2-2.2-9.5l-6.3-101.9c-0.8-12.2,5.5-22.1,18.8-29.7C1105.8,504.7,1108.9,504,1111.1,503.8z M1096.7,534.8l6.3,101.9
		c0.4,6.5,4.3,11.3,11.7,14.3c1.9,1,5.5,1.4,10.7,1.1l30.3-1.9c16.2-1,25.3-3.4,27.2-7.1c1.4-1.8,2-4,1.9-6.6l-1.2-20.2
		c-0.3-5.7-3-9.1-8-10.2c-3-0.5-6.2-0.7-9.6-0.5l-9.9,0.6c-2.9,0.2-4.6,3.7-5.1,10.6l-0.7,0l-5.2-83.8c-0.5-8.5-5.7-14-15.6-16.7
		c-3.1,0-5.5,0-7,0.1l-5.4,0.3c-10.4,0.7-16.9,4.7-19.3,12.2C1097,531.5,1096.6,533.4,1096.7,534.8z"/>
	<path class="st7" d="M1260,494.6l3.3-0.2c26.2-1.6,46.6,9.3,61.1,32.6c5.2,10.7,8.2,22.2,8.9,34.2l3.8,61.8
		c0.7,11.4-5.2,20.8-17.8,28.2c-3.1,1.7-6.8,2.7-10.8,2.9l-11.8,0.7c-9.7,0.6-18.3-2.7-25.6-9.8l-0.9,0.1
		c-7.3,8-14.4,12.3-21.4,12.7l-15.2,0.9c-13.9,0.9-24.3-6.2-31.2-21.3c-0.7-2.5-1.2-4.5-1.2-6l-3.8-61c-1.9-30.3,9.6-53,34.4-68
		C1240.9,497.9,1250.3,495.3,1260,494.6z M1211.1,568.8l3.8,60.8c0.4,7.2,4.8,12.2,13.2,14.9c1.1,0.5,2.7,0.7,4.8,0.6l14.3-0.9
		c6.3-0.4,10-3.1,11.1-8c1.2-5,2.6-9,4.4-12c-0.1-1.8,2.1-3.3,6.6-4.2l0.7,0c6.6-0.4,10,1.1,10.2,4.4c2.1,10.8,4.6,16.2,7.5,16
		c1.1,0.9,2.5,1.2,4.3,1.1l15.8-1c7.8-0.5,13.1-5.4,16-14.8l-4-64.4c-1.6-26.3-13.6-43.1-36-50.6c-7.1-2-13.4-2.8-18.7-2.5l-4.2,0.3
		c-15.3,0.9-27.9,7-37.7,18.2C1214.1,538.6,1210.1,552.7,1211.1,568.8z M1269.1,608.3l0.3,0c5.8-0.4,9.2,2.5,10.1,8.5
		c-0.5,1.3-1,2.1-1.6,2.4c-4.9,0-7.8,0-8.7,0l-6.2,0.9l-1.3-1.8l-0.1-1.8C1262.3,611.2,1264.8,608.5,1269.1,608.3z"/>
	<path class="st7" d="M1358.9,488.5l75.6-4.7c12.8-0.8,22.8,5.5,30,18.8c1.1,2.8,1.7,5,1.8,6.5l1.2,19.3c0.4,7.3-3.6,15-12.2,23.1
		c-6.3,3.8-11.7,5.8-16.2,6.1l3.5,57c0.7,11.7-4.1,21.2-14.5,28.5c-4.4,2.7-8.9,4.2-13.7,4.5l-15.5,1c-12.4,0.8-22.4-5.5-29.8-19
		c-1.4-4-2.3-8.9-2.7-14.7l-3.2-52.3c0-0.5-2.3-0.8-6.9-1c-8.8-2.1-15.7-7-20.8-14.5c-2.6-4.8-4.1-9.4-4.3-13.5l-0.8-13.2
		c-0.7-11.4,4.8-20.9,16.4-28.5C1350.9,490,1355,488.8,1358.9,488.5z M1344,521.1l0.7,10.8c0.5,8.4,5.4,13.8,14.8,16.4
		c3.9,0.2,12.2-0.1,25-0.8l1.4-0.1l0,0.7c-4.8,0.3-7.8,4-8.9,11l3.7,59.7c0.4,6.7,4.2,11.7,11.2,14.9c2.3,1,4.7,1.5,7.2,1.3
		l13.4-0.8c8.6-0.5,14-5.7,16.3-15.5c0.1-1.5,0.2-3,0.1-4.5l-3.4-54.5c-0.5-7.3-3.6-11.8-9.4-13.4l-1.2,0.1l0-0.7l1.6-0.1
		c19.6-1.2,29.4-2.6,29.3-4.3c5.9-4.2,8.7-9.6,8.3-16.1l-0.7-10.8c-0.5-8.6-5.6-14.1-15.2-16.5c-1.5-0.1-2.8-0.2-3.7-0.1l-73.7,4.6
		c-8.7,0.5-14.3,5.5-16.7,15C1344,518.9,1343.9,520.2,1344,521.1z"/>
	<path class="st7" d="M1541.8,477.2l2.4-0.2c27.8-1.7,50.1,9.8,67,34.7c6.9,12.4,10.7,23.6,11.3,33.7l0.9,14.5
		c1.2,18.7-5.2,37-19.2,55c-14.4,14.9-31.3,22.9-51,24.1l-4,0.2c-21,1.3-39.7-6.1-55.9-22.1c-13.4-14.4-20.7-31.8-21.9-52.2
		l-0.2-3.8c-1.6-25.7,7-47.6,25.7-65.8C1509.9,484.4,1524.9,478.3,1541.8,477.2z M1484.7,562.8c1.3,20.9,9.7,37.8,25.3,50.7
		c12.2,9,25.1,13.1,38.5,12.3l4.9-0.3c21-1.3,37.4-12.3,49.2-32.9c5.9-12.7,8.4-25.7,7.6-38.9c-1.1-18.2-7.5-33.1-19.2-44.6
		c-11.6-8.8-26.5-12.7-44.6-11.6c-2.5,0.5-5.7,0.9-9.5,1.1c4.2-3.1,11.3-4.9,21.2-5.5l0.4,0c1.4-0.1,3.4-0.1,6.1,0l0.3,0l0-0.3
		c-7.6-1.6-13.5-2.3-17.8-2l-6.4,0.4c-16.8,1-31.5,9.7-44,26C1487.7,531.2,1483.7,546.5,1484.7,562.8z"/>
</g>
<g>
	<path class="st7" d="M544.6,826.3c5.6-0.4,10.4-2.7,14.5-6.9c4.1-4.2,5.9-8.9,5.6-14.1c-0.3-5.1-2.3-9.8-5.8-13.9
		c-3.4,2-6.8,3.1-10.3,3.3c-8,0.5-12.2-1.7-12.5-6.7c-0.1-1.5,0.8-2.8,2.7-4.2c1.9-1.3,4.7-2.1,8.4-2.3c3.7-0.2,7.8,0.6,12.3,2.5
		c3.9-4.7,5.6-9.9,5.2-15.5c-0.5-7-3.9-12.3-10.2-16c-6.3-3.7-13-5.3-20-4.8c-1.5,0.1-2.5,0.2-3.3,0.4c0.1,3,0.2,7.9,0.2,14.5
		c0,10,0.7,25.3,2.1,45.7c0.5,7.9,0.2,11.9-0.9,12c-4.5,0.3-7.4-0.1-8.7-1.3c-1.3-1.2-2.2-4.7-2.6-10.6c-0.1-1.5-0.2-7.4-0.3-18
		c-0.1-10.5-0.4-19-0.8-25.5c-0.4-6.4-0.5-11.2-0.3-14.2c-5.4,2.2-8.1,5.5-8.3,9.6c-0.2,3.4-0.8,5.9-1.8,7.3c-1,1.4-2.4,2.2-4.2,2.3
		c-1.8,0.1-3.1-0.3-3.8-1.2c-0.7-0.9-1.1-1.9-1.1-3c-0.6-9,6-15.7,19.8-20.1c1.3-7.2,3.9-10.9,7.7-11.2c1.6-0.1,2.5,2.8,2.9,8.6
		c2.7-0.5,6-0.9,10-1.1c4-0.3,8.6,0.2,13.9,1.3c5.3,1.2,10,3.5,14.1,7c4.1,3.5,6.3,7.7,6.6,12.3c0.6,8.7-3.1,16.9-11.1,24.4
		c6.1,4.2,9.4,9.4,9.8,15.8c0.4,6.3-1.2,11.7-4.9,16.1c-6.9,8.1-16.5,12.5-28.9,13.4c-8.4,0.6-14.5,0.4-18.2-0.5
		c-0.8-0.2-1.5-0.7-2.4-1.5c-0.8-0.8-1.3-1.9-1.4-3.3c-0.1-2.2,1.9-3.4,6.2-3.7c1.4-0.1,4.4,0.4,9,1.6
		C538.7,826,542.2,826.5,544.6,826.3z M555.4,788.2c-3.3-2.4-6.3-3.5-9.1-3.3c-2.8,0.2-4.1,0.8-4,2c0.2,2.4,2.8,3.4,7.9,3.1
		C552,789.8,553.8,789.2,555.4,788.2z"/>
	<path class="st7" d="M630.8,790.6c4.1-1.6,6.9-3,8.4-4.1c1.5-1.1,2.7-1.9,3.5-2.5l1.8-1.2c0.5-0.3,0.9-0.5,1.2-0.5
		c0.8-0.1,1.3,0.4,1.3,1.3c0.1,0.9-1.4,2.7-4.5,5.2c-3.1,2.6-6.9,4.9-11.6,7.1c-0.2,8.8-2.4,16-6.8,21.7c-4.4,5.7-11,8.9-19.9,9.5
		c-6.5,0.4-11.6-1.8-15.3-6.7c-3.8-4.9-5.9-10.8-6.4-17.7c-0.5-6.9,1.1-13.6,4.8-20c3.7-6.4,8.8-9.8,15.2-10.2
		c2.8-2.3,6.2-3.5,10.2-3.8c4-0.3,7.9,1.6,11.6,5.6C628.1,778.4,630.3,783.8,630.8,790.6z M621.2,799.3l-5.6,0.7
		c-4.8,0.3-8.9-0.8-12.5-3.5c-3.5-2.6-5.4-5.7-5.6-9.1c-0.2-3.4,0.1-6.4,1.1-9c-4.2,3.8-6,10.9-5.3,21.3c0.3,5,1.7,9.7,4.1,14
		c2.4,4.4,5.8,6.4,10.3,6.1c4.5-0.3,7.8-2.4,10.1-6.4C620.1,809.6,621.2,804.8,621.2,799.3z M609.8,774.1c-1.7,0.1-2.9,0.9-3.7,2.5
		c-0.8,1.6-1.2,3.2-1.1,5c0.3,3.9,1.8,6.9,4.6,9.1c2.8,2.2,6,3.2,9.5,3l1.9-0.1c-0.6-5.1-1.7-9.6-3.5-13.7
		C615.7,775.7,613.2,773.8,609.8,774.1z"/>
	<path class="st7" d="M656.1,823.7c-2.3,0.2-4.4,0-6.4-0.4c-2-0.4-3.2-0.9-3.6-1.4c-1.1-1.2-2.1-7.6-2.8-19.3
		c-0.8-11.7-0.6-27.7,0.7-47.9c1.1-16.7,5.6-25.3,13.6-25.8c1.9-0.1,3.3,0.8,4.3,2.8c1,2,1.5,3.9,1.6,5.8
		c0.9,13.5-2.2,28.9-9.3,46.2c0.3,8.7,0.6,16.2,1,22.6c0.4,6.4,1.2,9.5,2.4,9.5c1.8-0.2,4.1-2.6,6.9-7.1c2.8-4.5,5.6-10.3,8.2-17.2
		c2.6-7,4.3-10.5,4.9-10.5c0.7,0,1,0.3,1.1,1.2c0.2,2.9-1,7.6-3.6,14.2C668,814.1,661.7,823.3,656.1,823.7z M659.6,739.1
		c-0.2-3.3-0.7-5-1.6-4.9c-3.1,0.2-4.5,13.3-4.2,39.3C658.3,758.9,660.2,747.4,659.6,739.1z"/>
	<path class="st7" d="M722.8,784.5c4.1-1.6,6.9-3,8.4-4.1c1.6-1.1,2.7-1.9,3.5-2.5l1.8-1.2c0.5-0.3,0.9-0.5,1.2-0.6
		c0.8-0.1,1.3,0.4,1.3,1.3c0.1,0.9-1.4,2.7-4.5,5.2c-3.1,2.6-6.9,4.9-11.6,7.1c-0.1,8.8-2.4,16-6.8,21.7c-4.4,5.7-11.1,8.9-19.9,9.5
		c-6.4,0.4-11.6-1.8-15.3-6.7c-3.8-4.9-5.9-10.8-6.4-17.7c-0.5-6.9,1.2-13.6,4.8-20c3.7-6.4,8.8-9.8,15.2-10.3
		c2.8-2.3,6.2-3.5,10.2-3.8c4-0.3,7.8,1.6,11.6,5.6C720.1,772.2,722.3,777.6,722.8,784.5z M713.2,793.1l-5.6,0.7
		c-4.8,0.3-8.9-0.8-12.4-3.5c-3.5-2.6-5.4-5.7-5.6-9.1s0.1-6.4,1.1-9c-4.2,3.8-6,10.9-5.3,21.3c0.3,5,1.7,9.7,4.1,14.1
		c2.4,4.4,5.8,6.4,10.3,6.1c4.5-0.3,7.8-2.4,10.1-6.4C712,803.4,713.2,798.6,713.2,793.1z M701.8,767.9c-1.7,0.1-2.9,0.9-3.7,2.5
		c-0.8,1.6-1.2,3.2-1.1,5c0.2,3.8,1.8,6.9,4.6,9.1c2.8,2.2,6,3.2,9.5,3l1.9-0.1c-0.5-5.1-1.7-9.6-3.5-13.7S705.1,767.7,701.8,767.9z
		"/>
	<path class="st7" d="M811.3,813.3c-3.5,0.2-6.3-0.4-8.4-1.8c-0.9-0.8-1.5-2.9-1.7-6.5c-0.2-3.5-0.4-8.2-0.5-13.9
		c-2.3,7.7-4.8,13.5-7.4,17.6c-2.7,4-6.2,6.2-10.6,6.5c-4.4,0.3-8.3-1.4-11.6-5c-3.3-3.6-5.3-9.7-5.8-18.1c-0.6-8.4,1.3-16,5.6-22.8
		c4.3-6.8,10.3-10.4,18-10.9c3.7-0.2,7.7,0.9,12,3.6c0.3-20.4,1-31.9,2.2-34.6c0.6-1.2,1.9-2.9,4.1-5.3c2.2-2.3,4.1-3.6,5.6-3.7
		c1.6-0.1,2.5,2.3,2.8,7.2c0.4,5.7,0.2,10.7-0.6,14.9c-2.1,10.9-3.4,17.8-3.9,20.8c-0.7,11.3-0.5,24.6,0.5,39.7
		c0.2,2.8,0.6,4.2,1.2,4.1c1.9-0.2,4.2-2.6,7-7.1c2.8-4.5,5.6-10.2,8.2-17.2c2.6-7,4.2-10.5,4.9-10.6c0.7,0,1.1,0.3,1.1,1.2
		c0.2,2.9-1,7.6-3.6,14.2C823.4,803.7,817.1,812.9,811.3,813.3z M788.3,764.1c-2.8,0.2-5.5,2.6-8,7.3c-2.5,4.7-3.6,9.9-3.2,15.8
		s1.5,10.6,3.2,14.3c1.7,3.6,3.8,5.4,6.1,5.2c4.7-0.3,9.4-10,14.2-29.1c0.1-5.8,0.2-9.2,0.1-10.2
		C797.5,764.9,793.4,763.8,788.3,764.1z"/>
	<path class="st7" d="M851.4,810.6c-5.8,0.4-10.6-1.5-14.3-5.7c-3.7-4.2-5.8-9.1-6.2-14.7c-0.8-11.3,1.1-20.1,5.4-26.2
		c4.4-6.1,10.4-9.5,18-10c3.5-0.2,6.5,0.5,8.9,2.3c2.4,1.8,3.7,4.3,4,7.6c0.4,6.2-1.8,11.6-6.8,16.2c-5,4.6-11.2,7.2-18.8,7.9
		c0.7,4,2.3,7.4,4.8,10.2c2.5,2.8,5.4,4.1,8.5,3.9c3.1-0.2,5.9-1.1,8.3-2.7c2.4-1.6,4.5-3.8,6.4-6.7c4-6,7.3-12.8,9.9-20.2
		c0.7-1.9,1.3-3.3,1.7-4.2c0.4-0.9,0.9-1.3,1.5-1.3c0.6,0,0.9,0.4,0.9,1.2c0.3,5.2-2.3,13.2-7.9,24
		C869.6,803.8,861.5,810,851.4,810.6z M841.3,784.4c6.1-1.4,10.4-3.7,13.1-6.8c2.7-3.1,3.8-7,3.5-11.7c-0.3-4.7-2-6.9-5-6.7
		c-3.6,0.2-6.5,3-8.7,8.2C842.1,772.5,841.1,778.2,841.3,784.4z"/>
	<path class="st7" d="M974,775.8c0.7-1.1,1.6-3,2.8-5.7c2.9-6.2,4.7-9.2,5.4-9.3c0.7,0,1,0.3,1.1,1.2c0.3,5.1-1.9,11.7-6.7,19.9
		c-8.6,14.7-20.9,22.5-36.8,23.6c-4.5,0.3-8.6-0.5-12.5-2.3c-3.9-1.8-7-4.3-9.4-7.4c-4.9-6.2-7.6-13-8.1-20.1
		c-1.2-18.1,2.5-33,11.2-44.7c8.7-11.7,19.4-18,32.3-18.8c4.9-0.3,9,0.8,12.3,3.5c3.3,2.7,5.1,6.2,5.4,10.5
		c0.3,4.4-0.5,8.5-2.5,12.4c-1.9,3.9-4.4,5.9-7.5,6.1c-3.1,0.2-4.7-0.5-4.8-2.2c-0.1-1.9,0.8-4.1,2.6-6.6c1.9-2.5,2.7-5,2.6-7.4
		c-0.5-7.4-4.7-10.8-12.5-10.3c-7.9,0.5-14.6,6.2-20.2,17.2c-5.6,10.9-8.1,21.9-7.3,33.1c0.5,7.7,3.2,14.4,7.9,20.1
		c4.8,5.7,11.1,8.2,19,7.7C957.7,795.7,966.2,788.8,974,775.8z"/>
	<path class="st7" d="M996.5,791.6l0.5,4.8c0.2,2.9-0.5,4.4-2.2,4.5c-2.5,0.2-4.9,0-7.2-0.5c-2.3-0.5-3.5-1.4-3.6-2.6
		c-0.1-1.2-0.1-5.3,0-12.4c0.1-7.1,0-12.3-0.2-15.9l-0.6-9c-1.8-26.6,1.8-43.9,10.8-51.8c2.1-1.8,4.2-2.8,6.5-2.9
		c1-0.1,2.2,1,3.4,3.2c1.2,2.2,1.9,5.2,2.1,8.8c0.6,8.9-0.3,17.4-2.8,25.4c-2.5,8-5.2,14.2-8,18.5c0.1,2.6,0.3,6.7,0.7,12.2
		c0.4-0.7,2.3-4.3,5.8-11c3.5-6.7,6.6-11.7,9.1-14.9c2.6-3.2,4.9-4.9,7.1-5c2.2-0.1,4.2,0.4,6,1.8c1.8,1.3,2.8,3.1,2.9,5.3
		c0.3,4.6,0.3,11.3-0.1,20.3c-0.4,9-0.5,14.6-0.3,16.9c0.2,2.3,0.6,3.5,1.2,3.5c1.8-0.2,4.1-2.6,6.9-7.1c2.8-4.5,5.5-10.3,8.2-17.2
		c2.6-7,4.2-10.5,4.9-10.5c0.7,0,1.1,0.3,1.1,1.2c0.2,2.9-1,7.6-3.6,14.2c-7,18-13.4,27.2-19,27.6c-4.1,0.3-7.2-0.4-9.4-1.9
		c-0.8-0.7-1.2-2.6-1.5-5.6s-0.3-8.1-0.2-15c0.1-6.9,0.1-12.1-0.2-15.6c-0.2-3.4-0.9-5.1-2.1-5c-1.2,0.1-4.1,3.8-8.7,11.3
		c-4.6,7.5-7,12.2-7.2,14.2C996.4,785,996.3,788.4,996.5,791.6z M1002,721.6c-0.3-4.4-1-6.5-2.2-6.4c-1.9,0.1-3.3,6-4.3,17.7
		c-0.5,6.2-0.7,13.4-0.6,21.5C1000.3,741.1,1002.6,730.2,1002,721.6z"/>
	<path class="st7" d="M1092.7,759.7c4.1-1.6,6.9-3,8.4-4.1c1.5-1.1,2.7-1.9,3.5-2.5l1.8-1.2c0.5-0.3,0.9-0.5,1.2-0.6
		c0.8-0.1,1.3,0.4,1.3,1.3c0.1,0.9-1.4,2.7-4.5,5.2s-6.9,4.9-11.6,7.1c-0.1,8.8-2.4,16-6.8,21.7c-4.4,5.7-11,8.9-19.9,9.5
		c-6.4,0.4-11.6-1.8-15.3-6.7c-3.8-4.9-5.9-10.8-6.3-17.7c-0.5-6.9,1.1-13.6,4.8-20c3.7-6.4,8.7-9.8,15.2-10.3
		c2.8-2.3,6.2-3.5,10.2-3.8c4-0.3,7.8,1.6,11.6,5.6C1090,747.4,1092.2,752.8,1092.7,759.7z M1083.1,768.3l-5.6,0.7
		c-4.8,0.3-8.9-0.8-12.4-3.5c-3.5-2.6-5.4-5.7-5.6-9.1s0.1-6.4,1.1-9c-4.2,3.8-6,10.9-5.3,21.3c0.3,5,1.7,9.7,4.1,14.1
		c2.4,4.4,5.8,6.4,10.3,6.1c4.5-0.3,7.8-2.4,10.1-6.4C1081.9,778.6,1083.1,773.8,1083.1,768.3z M1071.7,743.1
		c-1.7,0.1-2.9,1-3.7,2.5c-0.8,1.6-1.2,3.2-1.1,5c0.3,3.8,1.8,6.9,4.6,9.1c2.8,2.2,6,3.2,9.5,3l1.9-0.1c-0.6-5.1-1.7-9.7-3.5-13.7
		C1077.6,744.8,1075,742.9,1071.7,743.1z"/>
	<path class="st7" d="M1130,753.1l0.7-8c-0.1-1.1-0.5-2.2-1.3-3c-0.8-0.9-1.8-1.3-2.9-1.2c-3.8,0.3-7,3.4-9.4,9.3
		c-2.4,6-3.5,11.6-3.1,16.9c0.3,5.3,1.7,9.5,4.1,12.6c2.4,3.1,5.2,4.6,8.4,4.4c3.2-0.2,5.9-1.1,8.3-2.8c2.4-1.6,4.5-3.8,6.4-6.7
		c4-6,7.3-12.7,9.9-20.2c0.7-1.9,1.3-3.3,1.7-4.2c0.4-0.9,0.9-1.3,1.5-1.3c0.6,0,0.9,0.4,0.9,1.2c0.2,3.4-0.7,7.6-2.8,12.6
		c-2.1,4.9-3.8,8.7-5.3,11.4c-1.4,2.7-3.3,5.5-5.6,8.4c-4.8,6.2-11.1,9.5-18.9,10c-5.9,0.4-10.6-1.4-13.9-5.4
		c-3.4-4-5.2-8.4-5.5-13.2c-0.8-11.8,1.2-21,5.9-27.6c4.7-6.5,11-10.1,18.9-10.6c3.3-0.2,6,0.5,8,2c2.1,1.6,3.1,3.5,3.3,5.7
		c0.3,4.1-0.2,7.1-1.6,9.2c-1.3,2.1-3,3.2-5.1,3.3C1131.1,756,1130.2,755.1,1130,753.1z"/>
	<path class="st7" d="M1200.1,752.5c4.1-1.6,6.9-3,8.4-4.1c1.5-1.1,2.7-1.9,3.5-2.5l1.8-1.2c0.5-0.3,0.9-0.5,1.2-0.6
		c0.8-0.1,1.3,0.4,1.3,1.3c0.1,0.9-1.4,2.7-4.5,5.2c-3.1,2.6-6.9,4.9-11.6,7.1c-0.2,8.8-2.4,16-6.8,21.7c-4.4,5.7-11.1,8.9-19.9,9.5
		c-6.4,0.4-11.5-1.8-15.3-6.7c-3.8-4.9-5.9-10.8-6.4-17.7c-0.5-6.9,1.2-13.6,4.9-20c3.7-6.4,8.7-9.8,15.2-10.3
		c2.8-2.3,6.2-3.5,10.2-3.8c4-0.3,7.8,1.6,11.6,5.6C1197.4,740.2,1199.6,745.6,1200.1,752.5z M1190.5,761.1l-5.6,0.7
		c-4.8,0.3-8.9-0.8-12.5-3.5c-3.5-2.6-5.4-5.7-5.6-9.1c-0.2-3.4,0.2-6.4,1.1-9c-4.2,3.8-6,10.9-5.3,21.3c0.3,5,1.7,9.7,4.1,14.1
		c2.4,4.4,5.8,6.4,10.3,6.1c4.5-0.3,7.8-2.4,10.1-6.4C1189.3,771.4,1190.5,766.6,1190.5,761.1z M1179.1,735.9
		c-1.7,0.1-2.9,0.9-3.8,2.5c-0.8,1.6-1.2,3.2-1.1,5c0.3,3.8,1.8,6.9,4.6,9.1c2.8,2.2,6,3.2,9.5,3l1.9-0.1c-0.5-5.1-1.7-9.6-3.5-13.7
		C1185,737.6,1182.5,735.7,1179.1,735.9z"/>
	<path class="st7" d="M1225.4,785.6c-2.3,0.2-4.4,0-6.4-0.4c-2-0.4-3.2-0.9-3.6-1.4c-1.1-1.2-2.1-7.6-2.9-19.3
		c-0.8-11.7-0.5-27.6,0.7-47.9c1.1-16.7,5.6-25.3,13.6-25.8c1.9-0.1,3.3,0.8,4.2,2.8c1,2,1.5,3.9,1.6,5.8
		c0.9,13.5-2.2,28.9-9.3,46.2c0.3,8.6,0.6,16.2,1.1,22.6c0.4,6.4,1.2,9.6,2.3,9.5c1.8-0.2,4.1-2.6,6.9-7.1
		c2.8-4.5,5.5-10.3,8.2-17.2c2.6-7,4.3-10.5,4.9-10.5c0.7-0.1,1,0.3,1.1,1.2c0.2,2.9-1,7.6-3.6,14.2
		C1237.3,776,1231,785.2,1225.4,785.6z M1228.9,700.9c-0.2-3.3-0.8-5-1.6-4.9c-3.1,0.2-4.5,13.3-4.2,39.3
		C1227.5,720.7,1229.5,709.2,1228.9,700.9z"/>
	<path class="st7" d="M1289.7,781.2c-4.1,0.3-7.2-0.4-9.4-1.9c-0.8-0.7-1.3-2.5-1.5-5.5c-0.2-3-0.4-7-0.5-12
		c-2.2,6.9-4.6,12.1-7,15.6c-2.4,3.4-5.7,5.3-9.9,5.6c-4.2,0.3-7.9-1.4-11.3-5.1c-3.4-3.7-5.3-9.7-5.9-18.1
		c-0.6-8.4,1.3-15.9,5.6-22.7c4.3-6.8,10.3-10.4,18-10.9c3.3-0.2,7.2,1.7,11.7,5.8c0.8-1.2,2.1-2.7,4.2-4.4c2-1.8,3.8-2.7,5.3-2.8
		c1.5-0.1,2.4,1.8,2.7,5.8c0.1,1-0.1,3.1-0.5,6.1c-0.4,3.1-0.9,5.3-1.5,6.7c-0.8,2.4-0.7,10.9,0.3,25.5c0.2,2.8,0.6,4.2,1.2,4.2
		c1.8-0.2,4.1-2.6,6.9-7.1c2.8-4.5,5.6-10.3,8.2-17.2c2.6-7,4.3-10.5,4.9-10.5c0.7-0.1,1,0.3,1.1,1.2c0.2,2.9-1,7.6-3.6,14.2
		C1301.7,771.7,1295.4,780.9,1289.7,781.2z M1267.4,732.6c-2.9,0.2-5.9,2.6-8.8,7.1c-3,4.5-4.3,9.7-3.9,15.5
		c0.4,5.8,1.6,10.6,3.6,14.2c2,3.6,4.3,5.3,7.1,5.2c3.4-0.2,7.9-9.1,13.4-26.7c0.1-0.8,0.1-2.3,0.1-4.3c0-2,0-3.6,0.1-4.6
		c-1-1.6-2.8-3.1-5.2-4.4C1271.2,733.1,1269.2,732.5,1267.4,732.6z"/>
	<path class="st7" d="M1343.6,751.3c-7,18-13.4,27.2-19.1,27.6c-5.7,0.4-9-0.1-10.1-1.4c-1.1-1.3-1.9-5.7-2.4-13.3
		c-0.5-7.6-0.5-18.6,0-33c-5.3-0.7-8.2-2.6-8.7-5.8c-0.1-1.7,0.9-2.6,3.1-2.7c2.2-0.1,4.1,0.1,5.8,0.9c0.4-7.6,1-15.2,1.8-23
		c0.2-2,1-3.9,2.6-5.8s3.1-2.9,4.7-3c1.3-0.1,2.2,2,2.4,6.3c0.1,2,0,11.1-0.3,27.4c2.8-0.7,5.8-2,9.1-3.7c3.3-1.8,5.2-2.7,5.8-2.8
		c1.9-0.1,2.8,0.4,2.9,1.5c0.2,1-1.7,2.6-5.5,4.7c-3.8,2.1-8,3.7-12.5,5c-0.2,15.2-0.1,26.8,0.4,34.6c0.3,4.2,1,6.2,2.3,6.1
		c1.9-0.2,4.2-2.6,7-7.1c2.8-4.5,5.6-10.2,8.2-17.2c2.6-7,4.2-10.5,4.9-10.6c0.7,0,1.1,0.3,1.1,1.2
		C1347.4,740,1346.2,744.8,1343.6,751.3z"/>
	<path class="st7" d="M1365,776.2c-5.8,0.4-10.6-1.5-14.3-5.7c-3.7-4.2-5.8-9.1-6.1-14.7c-0.8-11.3,1-20.1,5.4-26.2
		c4.4-6.1,10.4-9.5,18-10c3.5-0.2,6.5,0.5,8.9,2.3c2.4,1.8,3.7,4.3,4,7.6c0.4,6.2-1.9,11.6-6.8,16.2c-5,4.6-11.2,7.2-18.8,7.9
		c0.7,4,2.3,7.4,4.8,10.2c2.5,2.8,5.4,4.1,8.5,3.9c3.1-0.2,5.9-1.1,8.3-2.7c2.4-1.6,4.5-3.8,6.4-6.7c4-6,7.3-12.8,9.9-20.2
		c0.7-1.9,1.3-3.3,1.7-4.2c0.4-0.9,0.9-1.3,1.5-1.3c0.6,0,0.9,0.4,0.9,1.2c0.3,5.2-2.3,13.2-7.9,24
		C1383.2,769.4,1375.1,775.5,1365,776.2z M1355,749.9c6.1-1.4,10.4-3.7,13.1-6.8c2.7-3.1,3.8-7,3.5-11.7c-0.3-4.7-2-6.9-5-6.7
		c-3.7,0.2-6.5,3-8.7,8.2C1355.8,738.1,1354.8,743.8,1355,749.9z"/>
</g>
</svg>
