<?xml version="1.0" encoding="utf-8"?>
<!-- Generator: Adobe Illustrator 26.0.1, SVG Export Plug-In . SVG Version: 6.00 Build 0)  -->
<svg version="1.1" id="Camada_1" xmlns="http://www.w3.org/2000/svg" xmlns:xlink="http://www.w3.org/1999/xlink" x="0px" y="0px"
	 viewBox="0 0 1920 1312" style="enable-background:new 0 0 1920 1312;" xml:space="preserve">
<style type="text/css">
	.st0{fill:#FFFFFF;}
	.st1{fill:#BABABA;}
	.st2{fill:#BDBDBD;}
	.st3{fill:#E0E0E0;}
	.st4{fill:#CFCFCF;}
	.st5{fill:#9E9E9E;}
	.st6{fill:#B9B9B9;}
	.st7{fill:#858585;}
</style>
<path class="st0" d="M401.9,534.1c0,0-31.5-24.6-91.8-3.7c-60.3,20.9-65.9,85.2-63.5,117.3c2.3,32.1,48.5,125.3,165,77.5
	c0,0,26.6,17,82.4,3.4c0,0-47.1,30.9,0,67.6v19.9c0,0-15.1,46.4,42,46.4c29.3,0,40.8-15.8,40.8-15.8s41.3,18.6,56.6-6.5
	c0,0,16.2,14.4,39.4,0.5c0,0,36.6,24.8,74.7-21c0,0,9.5,33.1,54.6,19.2c0,0,18.2,7.9,29.4-6.2c0,0,3.7,5.3,28.1,5.3
	c24.4,0,36.9-24.4,36.9-24.4s29.7,32.2,74.2,13.5c0,0,21.1,10.5,33-5.8c0,0,17.5,13.9,43-1.4c0,0,22.3,11.7,51.9-4.8
	c0,0,31.5,15.5,54.3-4.9c0,0,5.4,6,25.4,6c20,0,26.8-10.9,26.8-10.9s17.8,11.8,40.6,2c0,0,19,9.3,35.2-1.4c0,0,11.6,5.1,26-2.8
	c0,0,25,6.9,38.5-2.3c0,0,20.4,7.9,39,0c18.6-7.9,75.1-79.3,18.6-95c0,0-26-21.4-47.8-13.5c0,0-12.5-7.5-13.9-19.7
	c0,0,11.6-2.5,15.8-10.4c0,0,26.8,22.7,70.4,12.1c43.7-10.7,45.1-47.8,45.1-47.8s9.7,40.3,86.7,40.3c77,0,98.3-77.5,92.3-121
	c-6-43.6-35.7-101.1-111.8-96.9c-38.5-0.2-60.7,27.9-60.7,27.9s-5.1-21.4-43.1-21.4c-38,0-84.9,6.5-84.9,6.5s-28.7,3.3-30.6,19
	c0,0-27.8-19.9-64-14.4c-36.2,5.6-56.1,14.4-72.8,47.8c0,0-13-45.4-65.8-39.4c-38.6,2.3-49.6,24.1-49.6,24.1s-73.1-48.2-134.2,19
	c0,0-18.2-32.9-74.2-26c-56,7-69.5,35-69.5,35s-19.9-41.9-95.1-22.4c-40.8,11.1-51,39.9-51,39.9s-19.5-37.1-76.5-35.2
	c-44.1,2.3-66.9,28-66.9,28s-14.2-24.3-49.5-21C415.8,519.3,411.6,524.8,401.9,534.1"/>
<path class="st1" d="M353.4,630.3c0,0-16.4-1.7-16.7,9.4c-0.3,11.1,7.7,19.8,21.6,15.3c13.9-4.5,29.6-8.7,34.8-5.6
	c5.2,3.1,13.6,11.8,13.6,20.5c0,8.7-0.7,27.5-16,29.6c-15.3,2.1-31.7,10.4-47.6,7.7c-16-2.8-55.5-18.4-58.9-42.4
	c-3.4-24-13.5-52.5,6.3-73.4c19.8-20.9,33-35.5,55.7-33c22.6,2.4,46.3,3.8,52.2,16.7c5.9,12.9,12.2,30.3,8.3,39.7
	c-3.8,9.4-4.9,19.1-11.1,21.9C389.2,639.4,364.2,636.2,353.4,630.3"/>
<path class="st2" d="M432.5,596.2c0,0-9.3-1.4-11.1-7.4c-1.9-6-10.7-23.2,0-28.3c10.7-5.1,20.4-13.5,32-9.3
	c11.6,4.2,29.7,8.6,28.3,21.9c-1.4,13.3-6.5,19.3-10.2,21.2c-3.7,1.9,13.4,7.9,14.4,22.3c0.9,14.4-2.3,76.5-2.3,76.5l-52.4,7
	l-10.2-64.5C420.9,635.7,425,605.5,432.5,596.2"/>
<path class="st3" d="M565.1,544.3c0,0-32.5-1.4-45,24.6c-12.5,26-20.4,26.4-19.5,47.3c0.9,20.9,7.9,51.5,25,61.2
	c17.2,9.7,29.7,15.3,42.2,15.3s28.3-3.7,36.2-8.3c7.9-4.6,21.3-17.2,26.4-27.8c5.1-10.7,13.9-29.7,8.3-43.6
	c-5.6-13.9-1.9-45-24.1-56.6C592.5,544.8,565.1,544.3,565.1,544.3"/>
<path class="st4" d="M1545.4,483.9c0,0-32.5-1.4-45,24.6c-12.5,26-20.4,26.4-19.5,47.3c0.9,20.9,7.9,51.5,25,61.2
	c17.2,9.7,29.7,15.3,42.2,15.3s28.3-3.7,36.2-8.3c7.9-4.6,21.3-17.2,26.4-27.8c5.1-10.7,13.9-29.7,8.3-43.6
	c-5.6-13.9-1.9-45-24.1-56.6C1572.7,484.3,1545.4,483.9,1545.4,483.9"/>
<path class="st5" d="M1003.4,517.9c0,0-32.5-1.4-45,24.6c-12.5,26-20.4,26.4-19.5,47.3c0.9,20.9,7.9,51.5,25,61.2
	c17.2,9.7,29.7,15.3,42.2,15.3c12.5,0,28.3-3.7,36.2-8.3c7.9-4.6,21.3-17.2,26.4-27.8c5.1-10.7,13.9-29.7,8.3-43.6
	s-1.9-45-24.1-56.6C1030.7,518.3,1003.4,517.9,1003.4,517.9"/>
<path class="st4" d="M752.5,616.2c0,0-22.7-7.4-28.7-7.4c-6,0-18.6,2.3-13,14.4c5.6,12.1,17.2,9.7,23.2,7.9c6-1.8,23.2-4.2,25.5-4.2
	c2.3,0,15.3,0.7,19,5.7c3.7,5,0.9,12.9,0,20.8c-0.9,7.9,1.9,20.4-11.6,20.9c-13.5,0.5-18.1,10-40.3,5.5
	c-22.3-4.5-38.5,0.6-45.9-13.8c-7.4-14.4-27.4-31.1-26.4-52.9c0.9-21.8,2.3-51.5,15.8-53.3c13.5-1.9,33.4-27.8,50.1-24.6
	c16.7,3.3,47.8,5.1,53.8,17.6c6,12.5,17.2,35.7,6.5,44.5C769.6,606,752.5,616.2,752.5,616.2"/>
<path class="st6" d="M892.5,608.3c0,0-22.7-7.4-28.7-7.4c-6,0-18.6,2.3-13,14.4c5.6,12.1,17.2,9.7,23.2,7.9c6-1.8,23.2-4.2,25.5-4.2
	c2.3,0,15.3,0.7,19,5.7c3.7,5,0.9,12.9,0,20.8c-0.9,7.9,1.9,20.4-11.6,20.9c-13.5,0.5-18.1,10-40.3,5.5
	c-22.3-4.5-38.5,0.6-45.9-13.8c-7.4-14.4-27.4-31.1-26.4-52.9c0.9-21.8,2.3-51.5,15.8-53.3c13.5-1.9,33.4-27.8,50.1-24.6
	c16.7,3.3,47.8,5.1,53.8,17.6c6,12.5,17.2,35.7,6.5,44.5C909.7,598.1,892.5,608.3,892.5,608.3"/>
<path class="st1" d="M1092.2,526.9v77.7c0,0,6.3,41.7,8.3,44.5c2.1,2.8,20.2,9,20.2,9l59.1-6.3l11.8-9v-35.1l-16-7.9h-20.2l-5.6-76
	C1149.9,523.9,1120.7,486,1092.2,526.9"/>
<path class="st2" d="M1272.3,635.7c0,0,10.2,14.8,30.6,12.1c20.4-2.8,27.4-9.7,26-41.3c-1.4-31.5,7.9-105.3-66.3-105.3
	c-74.2,0-55.7,94.1-55.7,105.3S1207,678.3,1272.3,635.7"/>
<path class="st3" d="M1371.6,555c0,0-32.9,3.3-32.9-25.5c0-28.7-2.3-34.3,52.9-34.3s68.6-11.1,68.6,27.4c0,38.5-17.6,26.4-25,26.4
	c-7.4,0,0.5,37.1,0.5,54.7c0,17.6-3.7,36.6-29.7,36.6C1379.9,640.3,1371.6,630.6,1371.6,555"/>
<g>
	<path class="st7" d="M348.7,550.5l3.1-0.2c26.7-1.6,45.8,9.1,57.2,32.3c1.9,4.8,3,8.9,3.2,12.4l0.6,10.5c0.6,9.4-3,19-10.6,28.8
		c-4,4.1-7.3,6.7-10.2,7.8l0,0.3c13.3,4.5,20.4,13.3,21.2,26.2l0.2,3.8c0.7,10.7-5,20.5-17.1,29.6c-10,6.1-22.3,9.6-36.8,10.5
		l-3.8,0.2c-27.5,1.7-49.9-8.2-67.2-29.6c-9.5-12.8-14.8-27.5-15.8-44.1l-0.2-3.1c-1.7-27.9,8.8-51.1,31.7-69.6
		C318,556.7,332.7,551.5,348.7,550.5z M286.2,637.2c1.4,22.7,11.3,40,29.8,52c11.8,7.6,25.4,10.8,41,9.9
		c23.6-1.5,37.5-8.6,41.9-21.3c0.9-2,1.3-4.5,1.1-7.2c-0.7-11.3-7.4-16.5-20.2-15.7c-2.8,0.2-9.1,1.9-18.9,5.2
		c-2.3,0.4-4.5,0.6-6.6,0.8l-3.8,0.2c-10.7,0.7-17.6-3.6-20.7-12.7c-0.3-1.6-0.5-2.9-0.6-4c-0.6-9.2,3.3-15.3,11.6-18.4
		c1-0.5,2.9-0.9,5.7-1.1c8.1-0.5,16.3,1.8,24.4,7.1c2.2,0.2,3.7,0.3,4.6,0.2l1.9-0.1c11-0.7,18.1-7.6,21.3-20.9
		c0.8-3.7,1.1-7.3,0.9-10.9c-0.8-13.8-7.9-24.3-21-31.6c-7.9-3.8-17.1-5.4-27.6-4.8c-26.4,1.6-45.8,14.1-58.2,37.3
		C287.5,612.5,285.4,624.5,286.2,637.2z M342.9,642.1l0.2,3.3c1.1,1.6,3.7,2.2,7.6,2l1.7-0.1c4.1-0.2,8.3-1.2,12.6-2.9l0-0.3
		c-1.4-0.4-4-1.6-7.7-3.7c-4.3-1.5-7.8-2.1-10.4-2C344.1,638.5,342.8,639.8,342.9,642.1z"/>
	<path class="st7" d="M439.8,544.9l15.3-0.9c12.4-0.8,22.4,5.5,29.8,18.8c1.4,3.8,2.2,6.9,2.3,9.5l0.5,7.7
		c-0.1,7.8-2.9,12.9-8.5,15.2l0,0.2c6.7,6.2,10.3,13.4,10.8,21.4l3.6,57.8c1,16.3-4.3,26.2-15.8,29.7c-2.9,0.9-6.1,1.4-9.7,1.6
		l-21.2,1.3c-11.7,0.7-19.8-2.5-24.2-9.7c-2.9-4.9-4.5-11-5-18.2l-3.6-57.8c-0.5-8,2.2-15.5,8.1-22.5l0-0.2
		c-6.4-2.3-9.9-7-10.3-14.1l-0.5-7.7c-0.8-12.4,5.5-22.4,18.8-29.8C433.9,545.7,437.1,545,439.8,544.9z M425,580.4l0,0.7
		c0.2,3.6,1.4,5.3,3.6,5.2c2.6-0.2,3.8-0.2,3.8-0.1l2.2-0.3l30.1-1.9l2.1,0c4.6-0.3,6.9-1.4,6.8-3.4c0.2-1.1,0.2-2.4,0.1-4
		c-0.6-9.2-4.6-15.2-12.1-18.1c-2.3-0.8-5.7-1-10.4-0.8l-6.4,0.4C430.8,559.1,424.1,566.5,425,580.4z M427.7,624.3l2.8,46.2
		c0.8,13.5,2.7,20.6,5.5,21.3c0.1,1.6,6.8,2,20,1.2l1-0.1c13.2-0.8,19.8-2.2,19.7-4c2.4-1.3,3.3-5.7,2.9-13.3c0.2,0,0.2-2.7-0.2-8.2
		l-2.8-46.2c-0.6-9.4-4.3-15.5-11.1-18.4c-2.7-1.1-5.4-1.6-8-1.4l-13.4,0.8c-7.9,0.5-13.2,5.1-15.9,13.9
		C427.6,617.8,427.5,620.5,427.7,624.3z"/>
	<path class="st7" d="M564.3,537.2l2.4-0.1c27.7-1.7,50.1,9.8,67,34.7c6.9,12.4,10.7,23.6,11.3,33.7l0.9,14.5
		c1.2,18.7-5.2,37-19.2,55c-14.3,14.9-31.3,22.9-51,24.1l-4,0.2c-21,1.3-39.7-6-55.9-22.1c-13.4-14.4-20.7-31.8-21.9-52.2l-0.2-3.8
		c-1.6-25.7,7-47.6,25.7-65.8C532.4,544.3,547.3,538.2,564.3,537.2z M507.1,622.7c1.3,20.9,9.7,37.8,25.3,50.7
		c12.2,9,25.1,13.2,38.5,12.3l4.9-0.3c21-1.3,37.4-12.3,49.2-33c5.8-12.7,8.4-25.7,7.6-38.9c-1.1-18.2-7.5-33.1-19.2-44.6
		c-11.6-8.8-26.5-12.7-44.6-11.6c-2.5,0.5-5.7,0.9-9.5,1.1c4.2-3.1,11.3-4.9,21.2-5.5l0.3,0c1.4-0.1,3.4-0.1,6.1,0l0.3,0l0-0.3
		c-7.6-1.6-13.5-2.3-17.8-2l-6.4,0.4c-16.8,1-31.5,9.7-44,26C510.1,591.2,506.1,606.4,507.1,622.7z"/>
	<path class="st7" d="M723.7,527.3l3.1-0.2c26.7-1.7,45.8,9.1,57.2,32.3c1.9,4.8,3,8.9,3.2,12.4l0.6,10.5c0.6,9.4-3,19-10.6,28.8
		c-3.9,4.1-7.3,6.7-10.2,7.8l0,0.3c13.3,4.5,20.4,13.2,21.2,26.1l0.2,3.8c0.7,10.7-5,20.5-17.1,29.6c-10,6.1-22.2,9.6-36.8,10.5
		l-3.8,0.2c-27.5,1.7-49.9-8.2-67.2-29.6c-9.5-12.8-14.8-27.5-15.8-44.1l-0.2-3.1c-1.7-27.9,8.8-51.1,31.7-69.6
		C693,533.5,707.8,528.3,723.7,527.3z M661.2,614.1c1.4,22.6,11.3,40,29.8,52c11.8,7.5,25.4,10.8,41,9.9
		c23.6-1.5,37.5-8.6,41.9-21.3c0.9-2,1.3-4.5,1.1-7.3c-0.7-11.2-7.4-16.5-20.2-15.7c-2.8,0.2-9.1,1.9-18.9,5.2
		c-2.3,0.4-4.5,0.6-6.6,0.8l-3.8,0.2c-10.7,0.7-17.6-3.6-20.7-12.7c-0.3-1.6-0.5-2.9-0.6-4c-0.6-9.2,3.3-15.3,11.6-18.4
		c1-0.5,2.9-0.9,5.7-1.1c8.1-0.5,16.2,1.8,24.4,7.1c2.2,0.2,3.7,0.3,4.6,0.2l1.9-0.1c11-0.7,18.1-7.7,21.3-20.9
		c0.8-3.7,1.1-7.3,0.9-10.9c-0.9-13.8-7.9-24.3-21-31.6c-7.9-3.8-17.1-5.4-27.6-4.8c-26.4,1.6-45.8,14.1-58.2,37.3
		C662.6,589.3,660.4,601.3,661.2,614.1z M718,618.9l0.2,3.3c1.1,1.6,3.7,2.2,7.6,2l1.7-0.1c4.1-0.2,8.3-1.2,12.6-2.9l0-0.4
		c-1.4-0.4-4-1.6-7.7-3.7c-4.3-1.5-7.8-2.1-10.4-2C719.2,615.4,717.8,616.6,718,618.9z"/>
	<path class="st7" d="M866,518.5l3.1-0.2c26.7-1.7,45.8,9.1,57.2,32.3c1.9,4.8,3,8.9,3.2,12.4l0.7,10.5c0.6,9.4-3,19-10.6,28.8
		c-4,4.1-7.3,6.7-10.2,7.8l0,0.3c13.3,4.5,20.4,13.3,21.2,26.2l0.2,3.8c0.7,10.7-5,20.5-17.1,29.6c-10,6.1-22.3,9.6-36.8,10.5
		l-3.8,0.2c-27.5,1.7-49.9-8.2-67.2-29.6c-9.5-12.8-14.8-27.5-15.8-44.1l-0.2-3.1c-1.7-27.9,8.8-51.1,31.7-69.6
		C835.3,524.7,850.1,519.5,866,518.5z M803.5,605.3c1.4,22.7,11.3,40,29.8,52c11.8,7.6,25.4,10.8,41,9.9
		c23.6-1.5,37.5-8.6,41.9-21.3c0.9-2,1.3-4.5,1.1-7.2c-0.7-11.3-7.4-16.5-20.2-15.7c-2.8,0.2-9.1,1.9-18.9,5.2
		c-2.3,0.4-4.5,0.6-6.6,0.8l-3.8,0.2c-10.7,0.7-17.6-3.6-20.7-12.7c-0.3-1.6-0.5-2.9-0.6-4c-0.6-9.2,3.3-15.3,11.6-18.4
		c1-0.5,2.9-0.9,5.7-1.1c8.1-0.5,16.3,1.8,24.4,7.1c2.2,0.2,3.8,0.3,4.6,0.2l1.9-0.1c11-0.7,18.1-7.6,21.3-20.9
		c0.8-3.7,1.1-7.3,0.9-10.9c-0.8-13.8-7.9-24.3-21-31.6c-7.9-3.8-17.1-5.4-27.6-4.8c-26.4,1.6-45.8,14.1-58.2,37.3
		C804.9,580.5,802.7,592.5,803.5,605.3z M860.3,610.2l0.2,3.3c1.2,1.6,3.7,2.2,7.6,2l1.8-0.1c4.1-0.2,8.2-1.2,12.6-2.9l0-0.3
		c-1.4-0.4-4-1.6-7.8-3.7c-4.3-1.5-7.8-2.1-10.4-2C861.5,606.6,860.1,607.8,860.3,610.2z"/>
	<path class="st7" d="M1004.1,510l2.4-0.2c27.8-1.7,50.1,9.8,67,34.7c6.9,12.4,10.7,23.6,11.3,33.7l0.9,14.5
		c1.2,18.7-5.2,37-19.2,55c-14.4,14.9-31.3,22.9-51,24.1l-4,0.2c-21,1.3-39.7-6.1-55.9-22.1c-13.4-14.4-20.7-31.8-21.9-52.2
		l-0.2-3.8c-1.6-25.7,7-47.6,25.7-65.8C972.2,517.2,987.1,511,1004.1,510z M947,595.5c1.3,20.9,9.7,37.8,25.3,50.7
		c12.2,9,25.1,13.1,38.5,12.3l4.9-0.3c21-1.3,37.4-12.3,49.2-32.9c5.9-12.7,8.4-25.7,7.6-38.9c-1.1-18.2-7.5-33.1-19.2-44.6
		c-11.6-8.8-26.5-12.7-44.6-11.6c-2.5,0.5-5.7,0.9-9.5,1.1c4.2-3,11.3-4.9,21.2-5.5l0.4,0c1.4-0.1,3.4-0.1,6.1,0l0.3,0l0-0.3
		c-7.6-1.6-13.5-2.3-17.8-2l-6.4,0.4c-16.8,1-31.5,9.7-44,26C949.9,564,946,579.3,947,595.5z"/>
	<path class="st7" d="M1111.7,503.3l15-0.9c12.9-0.8,23,5.5,30.2,18.8c1.5,3.5,2.4,7.7,2.7,12.6l3.6,57.8l1.4-0.1
		c21.4-1.3,32.6,6.6,33.6,23.8l1.2,20.2c0.7,12-6,20.2-20.1,24.8c-3.9,1.2-8.1,1.9-12.6,2.2l-44.9,2.8c-12.2,0.7-22.1-5.5-29.7-18.8
		c-1.3-4-2-7.2-2.2-9.5l-6.3-101.9c-0.8-12.2,5.5-22.1,18.8-29.7C1106.4,504.2,1109.5,503.5,1111.7,503.3z M1097.4,534.3l6.3,101.9
		c0.4,6.5,4.3,11.3,11.7,14.3c1.9,1,5.5,1.4,10.7,1.1l30.3-1.9c16.2-1,25.3-3.4,27.2-7.1c1.4-1.8,2-4,1.9-6.6l-1.2-20.2
		c-0.3-5.7-3-9.1-8-10.2c-3-0.5-6.2-0.7-9.6-0.5l-9.9,0.6c-2.9,0.2-4.6,3.7-5.1,10.6l-0.7,0l-5.2-83.8c-0.5-8.5-5.7-14-15.6-16.7
		c-3.1,0-5.5,0-7,0.1l-5.4,0.3c-10.4,0.7-16.9,4.7-19.3,12.2C1097.7,531,1097.3,532.9,1097.4,534.3z"/>
	<path class="st7" d="M1260.7,494.1l3.3-0.2c26.2-1.6,46.6,9.3,61.1,32.6c5.2,10.7,8.2,22.2,8.9,34.2l3.8,61.8
		c0.7,11.4-5.2,20.8-17.8,28.2c-3.1,1.7-6.8,2.7-10.8,2.9l-11.8,0.7c-9.7,0.6-18.3-2.7-25.6-9.8l-0.9,0.1
		c-7.3,8-14.4,12.3-21.4,12.7l-15.2,0.9c-13.9,0.9-24.3-6.2-31.2-21.3c-0.7-2.5-1.2-4.5-1.2-6l-3.8-61c-1.9-30.3,9.6-53,34.4-68
		C1241.5,497.4,1250.9,494.8,1260.7,494.1z M1211.8,568.3l3.8,60.8c0.4,7.2,4.8,12.2,13.2,14.9c1.1,0.5,2.7,0.7,4.8,0.6l14.3-0.9
		c6.3-0.4,10-3.1,11.1-8c1.2-5,2.6-9,4.4-12c-0.1-1.8,2.1-3.3,6.6-4.2l0.7,0c6.6-0.4,10,1.1,10.2,4.4c2.1,10.8,4.6,16.2,7.5,16
		c1.1,0.9,2.5,1.2,4.3,1.1l15.8-1c7.8-0.5,13.1-5.4,16-14.8l-4-64.4c-1.6-26.3-13.6-43.1-36-50.6c-7.1-2-13.4-2.8-18.7-2.5l-4.2,0.3
		c-15.3,0.9-27.9,7-37.7,18.2C1214.8,538.1,1210.8,552.2,1211.8,568.3z M1269.8,607.8l0.3,0c5.8-0.4,9.2,2.5,10.1,8.5
		c-0.5,1.3-1,2.1-1.6,2.4c-4.9,0-7.8,0-8.7,0l-6.2,0.9l-1.3-1.8l-0.1-1.8C1263,610.7,1265.5,608,1269.8,607.8z"/>
	<path class="st7" d="M1359.6,488l75.6-4.7c12.8-0.8,22.8,5.5,30,18.8c1.1,2.8,1.7,5,1.8,6.5l1.2,19.3c0.4,7.3-3.6,15-12.2,23.1
		c-6.3,3.8-11.7,5.8-16.2,6.1l3.5,57c0.7,11.7-4.1,21.2-14.5,28.5c-4.4,2.7-8.9,4.2-13.7,4.5l-15.5,1c-12.4,0.8-22.4-5.5-29.8-19
		c-1.4-4-2.3-8.9-2.7-14.7l-3.2-52.3c0-0.5-2.3-0.8-6.9-1c-8.8-2.1-15.7-7-20.8-14.5c-2.6-4.8-4.1-9.4-4.3-13.5l-0.8-13.2
		c-0.7-11.4,4.8-20.9,16.4-28.5C1351.6,489.5,1355.7,488.3,1359.6,488z M1344.7,520.6l0.7,10.8c0.5,8.4,5.4,13.8,14.8,16.4
		c3.9,0.2,12.2-0.1,25-0.8l1.4-0.1l0,0.7c-4.8,0.3-7.8,4-8.9,11l3.7,59.7c0.4,6.7,4.2,11.7,11.2,14.9c2.3,1,4.7,1.5,7.2,1.3
		l13.4-0.8c8.6-0.5,14-5.7,16.3-15.5c0.1-1.5,0.2-3,0.1-4.5l-3.4-54.5c-0.5-7.3-3.6-11.8-9.4-13.4l-1.2,0.1l0-0.7l1.6-0.1
		c19.6-1.2,29.4-2.6,29.3-4.3c5.9-4.2,8.7-9.6,8.3-16.1l-0.7-10.8c-0.5-8.6-5.6-14.1-15.2-16.5c-1.5-0.1-2.7-0.2-3.7-0.1l-73.7,4.6
		c-8.7,0.5-14.3,5.5-16.7,15C1344.7,518.4,1344.6,519.7,1344.7,520.6z"/>
	<path class="st7" d="M1542.5,476.7l2.4-0.2c27.8-1.7,50.1,9.8,67,34.7c6.9,12.4,10.7,23.6,11.3,33.7l0.9,14.5
		c1.2,18.7-5.2,37-19.2,55c-14.4,14.9-31.3,22.9-51,24.1l-4,0.2c-21,1.3-39.7-6.1-55.9-22.1c-13.4-14.4-20.7-31.8-21.9-52.2
		l-0.2-3.8c-1.6-25.7,7-47.6,25.7-65.8C1510.6,483.9,1525.6,477.8,1542.5,476.7z M1485.4,562.3c1.3,20.9,9.7,37.8,25.3,50.7
		c12.2,9,25.1,13.1,38.5,12.3l4.9-0.3c21-1.3,37.4-12.3,49.2-32.9c5.9-12.7,8.4-25.7,7.6-38.9c-1.1-18.2-7.5-33.1-19.2-44.6
		c-11.6-8.8-26.5-12.7-44.6-11.6c-2.5,0.5-5.7,0.9-9.5,1.1c4.2-3.1,11.3-4.9,21.2-5.5l0.4,0c1.4-0.1,3.4-0.1,6.1,0l0.3,0l0-0.3
		c-7.6-1.6-13.5-2.3-17.8-2l-6.4,0.4c-16.8,1-31.5,9.7-44,26C1488.3,530.7,1484.4,546,1485.4,562.3z"/>
</g>
<g>
	<path class="st7" d="M545.3,825.8c5.6-0.4,10.4-2.7,14.5-6.9c4.1-4.2,5.9-8.9,5.6-14.1c-0.3-5.1-2.3-9.8-5.8-13.9
		c-3.4,2-6.8,3.1-10.3,3.3c-8,0.5-12.2-1.7-12.5-6.7c-0.1-1.5,0.8-2.8,2.7-4.2c1.9-1.3,4.7-2.1,8.4-2.3c3.7-0.2,7.8,0.6,12.3,2.5
		c3.9-4.7,5.6-9.9,5.2-15.5c-0.5-7-3.9-12.3-10.2-16c-6.3-3.7-13-5.3-20-4.8c-1.5,0.1-2.5,0.2-3.3,0.4c0.1,3,0.2,7.9,0.2,14.5
		c0,10,0.8,25.3,2.1,45.7c0.5,7.9,0.2,11.9-0.9,12c-4.5,0.3-7.4-0.1-8.7-1.3c-1.3-1.2-2.2-4.7-2.6-10.6c-0.1-1.5-0.2-7.4-0.3-18
		c-0.1-10.5-0.4-19-0.8-25.5c-0.4-6.4-0.5-11.2-0.3-14.2c-5.4,2.2-8.1,5.5-8.3,9.6c-0.2,3.4-0.8,5.9-1.8,7.3s-2.4,2.2-4.2,2.3
		c-1.8,0.1-3.1-0.3-3.8-1.2c-0.7-0.9-1.1-1.9-1.1-3c-0.6-9,6-15.7,19.8-20.1c1.3-7.2,3.9-10.9,7.7-11.2c1.6-0.1,2.5,2.8,2.9,8.6
		c2.7-0.5,6-0.9,10-1.1c4-0.3,8.6,0.2,13.9,1.3c5.3,1.2,10,3.5,14.1,7c4.1,3.5,6.3,7.7,6.6,12.3c0.6,8.7-3.1,16.9-11.1,24.4
		c6.1,4.2,9.4,9.4,9.8,15.8c0.4,6.3-1.2,11.7-4.9,16.1c-6.9,8.1-16.5,12.5-28.9,13.4c-8.4,0.6-14.5,0.4-18.2-0.5
		c-0.8-0.2-1.5-0.7-2.4-1.5c-0.8-0.8-1.3-1.9-1.4-3.3c-0.1-2.2,1.9-3.4,6.2-3.7c1.4-0.1,4.4,0.4,9,1.6
		C539.4,825.5,542.9,826,545.3,825.8z M556,787.7c-3.3-2.4-6.3-3.5-9.1-3.3c-2.8,0.2-4.1,0.8-4,2c0.2,2.4,2.8,3.4,7.9,3.1
		C552.7,789.3,554.4,788.7,556,787.7z"/>
	<path class="st7" d="M631.5,790.1c4.1-1.6,6.9-3,8.4-4.1c1.5-1.1,2.7-1.9,3.5-2.5l1.8-1.2c0.5-0.3,0.9-0.5,1.2-0.5
		c0.8-0.1,1.3,0.4,1.3,1.3c0.1,0.9-1.4,2.7-4.5,5.2c-3.1,2.6-6.9,4.9-11.6,7.1c-0.2,8.8-2.4,16-6.8,21.7c-4.4,5.7-11,8.9-19.9,9.5
		c-6.5,0.4-11.6-1.8-15.3-6.7c-3.8-4.9-5.9-10.8-6.4-17.7c-0.5-6.9,1.1-13.6,4.8-20c3.7-6.4,8.8-9.8,15.2-10.2
		c2.8-2.3,6.2-3.5,10.2-3.8c4-0.3,7.9,1.6,11.6,5.6C628.8,777.9,631,783.3,631.5,790.1z M621.9,798.8l-5.6,0.7
		c-4.8,0.3-8.9-0.8-12.5-3.5c-3.5-2.6-5.4-5.7-5.6-9.1c-0.2-3.4,0.1-6.4,1.1-9c-4.2,3.8-6,10.9-5.3,21.3c0.3,5,1.7,9.7,4.1,14
		c2.4,4.4,5.8,6.4,10.3,6.1c4.5-0.3,7.8-2.4,10.1-6.4C620.7,809.1,621.9,804.3,621.9,798.8z M610.5,773.6c-1.7,0.1-2.9,0.9-3.7,2.5
		c-0.8,1.6-1.2,3.2-1.1,5c0.3,3.9,1.8,6.9,4.6,9.1c2.8,2.2,6,3.2,9.5,3l1.9-0.1c-0.6-5.1-1.7-9.6-3.5-13.7
		C616.4,775.2,613.8,773.3,610.5,773.6z"/>
	<path class="st7" d="M656.8,823.2c-2.3,0.2-4.4,0-6.4-0.4c-2-0.4-3.2-0.9-3.6-1.4c-1.1-1.2-2.1-7.6-2.8-19.3
		c-0.8-11.7-0.6-27.7,0.7-47.9c1.1-16.7,5.6-25.3,13.6-25.8c1.9-0.1,3.3,0.8,4.3,2.8c1,2,1.5,3.9,1.6,5.8
		c0.9,13.5-2.2,28.9-9.3,46.2c0.3,8.7,0.6,16.2,1,22.6c0.4,6.4,1.2,9.5,2.4,9.5c1.8-0.2,4.1-2.6,6.9-7.1c2.8-4.5,5.6-10.3,8.2-17.2
		c2.6-7,4.3-10.5,4.9-10.5c0.7,0,1,0.3,1.1,1.2c0.2,2.9-1,7.6-3.6,14.2C668.7,813.6,662.4,822.8,656.8,823.2z M660.3,738.6
		c-0.2-3.3-0.8-5-1.6-4.9c-3.1,0.2-4.5,13.3-4.2,39.3C658.9,758.4,660.9,746.9,660.3,738.6z"/>
	<path class="st7" d="M723.5,784c4.1-1.6,6.9-3,8.4-4.1c1.6-1.1,2.7-1.9,3.5-2.5l1.8-1.2c0.5-0.3,0.9-0.5,1.2-0.6
		c0.8-0.1,1.3,0.4,1.3,1.3c0.1,0.9-1.4,2.7-4.5,5.2c-3.1,2.6-6.9,4.9-11.6,7.1c-0.1,8.8-2.4,16-6.8,21.7c-4.4,5.7-11.1,8.9-19.9,9.5
		c-6.4,0.4-11.6-1.8-15.3-6.7c-3.8-4.9-5.9-10.8-6.4-17.7c-0.5-6.9,1.2-13.6,4.8-20c3.7-6.4,8.8-9.8,15.2-10.3
		c2.8-2.3,6.2-3.5,10.2-3.8c4-0.3,7.8,1.6,11.6,5.6S722.9,777.1,723.5,784z M713.9,792.6l-5.6,0.7c-4.8,0.3-8.9-0.8-12.4-3.5
		c-3.5-2.6-5.4-5.7-5.6-9.1s0.1-6.4,1.1-9c-4.2,3.8-6,10.9-5.3,21.3c0.3,5,1.7,9.7,4.1,14.1c2.4,4.4,5.8,6.4,10.3,6.1
		c4.5-0.3,7.8-2.4,10.1-6.4C712.7,802.9,713.8,798.1,713.9,792.6z M702.5,767.4c-1.7,0.1-2.9,0.9-3.7,2.5c-0.8,1.6-1.2,3.2-1.1,5
		c0.2,3.8,1.8,6.9,4.6,9.1c2.8,2.2,6,3.2,9.5,3l1.9-0.1c-0.5-5.1-1.7-9.6-3.5-13.7S705.8,767.2,702.5,767.4z"/>
	<path class="st7" d="M812,812.8c-3.5,0.2-6.3-0.4-8.4-1.8c-0.9-0.8-1.5-2.9-1.7-6.5c-0.2-3.5-0.4-8.2-0.5-13.9
		c-2.3,7.7-4.8,13.5-7.4,17.6c-2.7,4-6.2,6.2-10.6,6.5c-4.4,0.3-8.3-1.4-11.6-5c-3.3-3.6-5.3-9.7-5.8-18.1c-0.6-8.4,1.3-16,5.6-22.8
		c4.3-6.8,10.3-10.4,18-10.9c3.7-0.2,7.7,0.9,12,3.6c0.3-20.4,1-31.9,2.2-34.6c0.6-1.2,1.9-2.9,4.1-5.3c2.2-2.3,4.1-3.6,5.6-3.7
		c1.6-0.1,2.5,2.3,2.8,7.2c0.4,5.7,0.2,10.7-0.6,14.9c-2.1,10.9-3.4,17.8-3.9,20.8c-0.7,11.3-0.5,24.6,0.5,39.7
		c0.2,2.8,0.6,4.2,1.2,4.1c1.9-0.2,4.2-2.6,7-7.1c2.8-4.5,5.6-10.2,8.2-17.2c2.6-7,4.2-10.5,4.9-10.6c0.7,0,1.1,0.3,1.1,1.2
		c0.2,2.9-1,7.6-3.6,14.2C824.1,803.2,817.7,812.4,812,812.8z M789,763.6c-2.8,0.2-5.5,2.6-8,7.3c-2.5,4.7-3.6,9.9-3.2,15.8
		s1.5,10.6,3.2,14.3c1.8,3.6,3.8,5.4,6.1,5.2c4.7-0.3,9.4-10,14.2-29.1c0.1-5.8,0.2-9.2,0.1-10.2C798.2,764.4,794.1,763.3,789,763.6
		z"/>
	<path class="st7" d="M852.1,810.1c-5.8,0.4-10.6-1.5-14.3-5.7c-3.7-4.2-5.8-9.1-6.2-14.7c-0.8-11.3,1.1-20.1,5.4-26.2
		c4.4-6.1,10.4-9.5,18-10c3.5-0.2,6.5,0.5,8.9,2.3c2.4,1.8,3.7,4.3,4,7.6c0.4,6.2-1.8,11.6-6.8,16.2c-5,4.6-11.2,7.2-18.8,7.9
		c0.7,4,2.3,7.4,4.8,10.2c2.5,2.8,5.4,4.1,8.5,3.9c3.1-0.2,5.9-1.1,8.3-2.7c2.4-1.6,4.5-3.8,6.4-6.7c4-6,7.3-12.8,9.9-20.2
		c0.7-1.9,1.3-3.3,1.7-4.2c0.4-0.9,0.9-1.3,1.5-1.3c0.6,0,0.9,0.4,0.9,1.2c0.3,5.2-2.3,13.2-7.9,24
		C870.3,803.3,862.2,809.5,852.1,810.1z M842,783.9c6.1-1.4,10.4-3.7,13.1-6.8c2.7-3.1,3.8-7,3.5-11.7c-0.3-4.7-2-6.9-5-6.7
		c-3.6,0.2-6.5,3-8.7,8.2C842.8,772,841.8,777.7,842,783.9z"/>
	<path class="st7" d="M974.7,775.3c0.7-1.1,1.6-3,2.8-5.7c2.9-6.2,4.7-9.2,5.4-9.3c0.7,0,1,0.3,1.1,1.2c0.3,5.1-1.9,11.7-6.7,19.9
		c-8.6,14.7-20.9,22.5-36.8,23.6c-4.5,0.3-8.6-0.5-12.5-2.3c-3.9-1.8-7-4.3-9.4-7.4c-4.9-6.2-7.6-13-8.1-20.1
		c-1.2-18.1,2.5-33,11.2-44.7c8.7-11.7,19.4-18,32.3-18.8c4.9-0.3,9,0.8,12.3,3.5c3.3,2.7,5.1,6.2,5.4,10.5
		c0.3,4.4-0.5,8.5-2.5,12.4c-1.9,3.9-4.4,5.9-7.5,6.1c-3.1,0.2-4.7-0.5-4.8-2.2c-0.1-1.9,0.8-4.1,2.6-6.6c1.9-2.5,2.7-5,2.6-7.4
		c-0.5-7.4-4.7-10.8-12.5-10.3c-7.9,0.5-14.6,6.2-20.2,17.2c-5.6,10.9-8.1,21.9-7.3,33.1c0.5,7.7,3.2,14.4,7.9,20.1
		c4.8,5.7,11.1,8.2,19,7.7C958.3,795.2,966.9,788.3,974.7,775.3z"/>
	<path class="st7" d="M997.2,791.1l0.5,4.8c0.2,2.9-0.5,4.4-2.2,4.5c-2.5,0.2-4.9,0-7.2-0.5c-2.3-0.5-3.5-1.4-3.6-2.6
		c-0.1-1.2-0.1-5.3,0-12.4c0.1-7.1,0-12.3-0.2-15.9l-0.6-9c-1.8-26.6,1.8-43.9,10.8-51.8c2.1-1.8,4.2-2.8,6.5-2.9
		c1-0.1,2.2,1,3.4,3.2c1.2,2.2,1.9,5.2,2.1,8.8c0.6,8.9-0.3,17.4-2.8,25.4c-2.5,8-5.2,14.2-8,18.5c0.1,2.6,0.3,6.7,0.7,12.2
		c0.4-0.7,2.3-4.3,5.8-11c3.5-6.7,6.6-11.7,9.1-14.9c2.6-3.2,4.9-4.9,7.1-5c2.2-0.1,4.2,0.4,6,1.8c1.8,1.3,2.8,3.1,2.9,5.3
		c0.3,4.6,0.3,11.3-0.1,20.3c-0.4,9-0.5,14.6-0.3,16.9c0.2,2.3,0.6,3.5,1.2,3.5c1.8-0.2,4.1-2.6,6.9-7.1c2.8-4.5,5.5-10.3,8.2-17.2
		c2.6-7,4.2-10.5,4.9-10.5c0.7,0,1.1,0.3,1.1,1.2c0.2,2.9-1,7.6-3.6,14.2c-7,18-13.4,27.2-19,27.6c-4.1,0.3-7.2-0.4-9.4-1.9
		c-0.8-0.7-1.2-2.6-1.5-5.6c-0.2-3.1-0.3-8.1-0.2-15c0.1-6.9,0.1-12.1-0.2-15.6c-0.2-3.4-0.9-5.1-2.1-5c-1.2,0.1-4.1,3.8-8.7,11.3
		c-4.6,7.5-7,12.2-7.2,14.2C997.1,784.5,997,787.9,997.2,791.1z M1002.7,721.1c-0.3-4.4-1-6.5-2.2-6.4c-1.9,0.1-3.3,6-4.3,17.7
		c-0.5,6.2-0.7,13.4-0.6,21.5C1000.9,740.6,1003.3,729.7,1002.7,721.1z"/>
	<path class="st7" d="M1093.4,759.2c4.1-1.6,6.9-3,8.4-4.1c1.5-1.1,2.7-1.9,3.5-2.5l1.8-1.2c0.5-0.3,0.9-0.5,1.2-0.6
		c0.8-0.1,1.3,0.4,1.3,1.3c0.1,0.9-1.4,2.7-4.5,5.2s-6.9,4.9-11.6,7.1c-0.1,8.8-2.4,16-6.8,21.7c-4.4,5.7-11,8.9-19.9,9.5
		c-6.4,0.4-11.6-1.8-15.3-6.7c-3.8-4.9-5.9-10.8-6.3-17.7c-0.5-6.9,1.1-13.6,4.8-20c3.7-6.4,8.7-9.8,15.2-10.3
		c2.8-2.3,6.2-3.5,10.2-3.8c4-0.3,7.8,1.6,11.6,5.6C1090.7,746.9,1092.8,752.3,1093.4,759.2z M1083.8,767.8l-5.6,0.7
		c-4.8,0.3-8.9-0.8-12.4-3.5c-3.5-2.6-5.4-5.7-5.6-9.1s0.1-6.4,1.1-9c-4.2,3.8-6,10.9-5.3,21.3c0.3,5,1.7,9.7,4.1,14.1
		c2.4,4.4,5.8,6.4,10.3,6.1c4.5-0.3,7.8-2.4,10.1-6.4C1082.6,778.1,1083.7,773.3,1083.8,767.8z M1072.4,742.6
		c-1.7,0.1-2.9,1-3.8,2.5c-0.8,1.6-1.2,3.2-1.1,5c0.3,3.8,1.8,6.9,4.6,9.1c2.8,2.2,6,3.2,9.5,3l1.9-0.1c-0.6-5.1-1.7-9.7-3.5-13.7
		C1078.3,744.3,1075.7,742.4,1072.4,742.6z"/>
	<path class="st7" d="M1130.7,752.6l0.7-8c-0.1-1.1-0.5-2.2-1.3-3c-0.8-0.9-1.8-1.3-2.9-1.2c-3.8,0.3-7,3.4-9.4,9.3
		c-2.4,6-3.5,11.6-3.1,16.9c0.3,5.3,1.7,9.5,4.1,12.6c2.4,3.1,5.2,4.6,8.4,4.4c3.2-0.2,5.9-1.1,8.3-2.8c2.4-1.6,4.5-3.8,6.4-6.7
		c4-6,7.3-12.7,9.9-20.2c0.7-1.9,1.3-3.3,1.7-4.2c0.4-0.9,0.9-1.3,1.5-1.3c0.6,0,0.9,0.4,0.9,1.2c0.2,3.4-0.7,7.6-2.8,12.6
		c-2.1,4.9-3.8,8.7-5.3,11.4c-1.4,2.7-3.3,5.5-5.6,8.4c-4.8,6.2-11.1,9.5-18.9,10c-5.9,0.4-10.6-1.4-13.9-5.4
		c-3.4-4-5.2-8.4-5.5-13.2c-0.8-11.8,1.2-21,5.9-27.6c4.7-6.5,11-10.1,18.9-10.6c3.3-0.2,6,0.5,8,2c2.1,1.6,3.1,3.5,3.3,5.7
		c0.3,4.1-0.2,7.1-1.6,9.2c-1.3,2.1-3,3.2-5.1,3.3C1131.8,755.5,1130.8,754.6,1130.7,752.6z"/>
	<path class="st7" d="M1200.8,752c4.1-1.6,6.9-3,8.4-4.1c1.5-1.1,2.7-1.9,3.5-2.5l1.8-1.2c0.5-0.3,0.9-0.5,1.2-0.6
		c0.8-0.1,1.3,0.4,1.3,1.3c0.1,0.9-1.4,2.7-4.5,5.2c-3.1,2.6-6.9,4.9-11.6,7.1c-0.2,8.8-2.4,16-6.8,21.7c-4.4,5.7-11.1,8.9-19.9,9.5
		c-6.4,0.4-11.5-1.8-15.3-6.7c-3.8-4.9-5.9-10.8-6.4-17.7c-0.5-6.9,1.2-13.6,4.9-20c3.7-6.4,8.8-9.8,15.2-10.3
		c2.8-2.3,6.2-3.5,10.2-3.8c4-0.3,7.8,1.6,11.6,5.6C1198.1,739.7,1200.2,745.1,1200.8,752z M1191.2,760.6l-5.6,0.7
		c-4.8,0.3-8.9-0.8-12.5-3.5c-3.5-2.6-5.4-5.7-5.6-9.1c-0.2-3.4,0.2-6.4,1.1-9c-4.2,3.8-6,10.9-5.3,21.3c0.3,5,1.7,9.7,4.1,14.1
		c2.4,4.4,5.8,6.4,10.3,6.1c4.5-0.3,7.8-2.4,10.1-6.4C1190,770.9,1191.2,766.1,1191.2,760.6z M1179.8,735.4
		c-1.7,0.1-2.9,0.9-3.8,2.5c-0.8,1.6-1.2,3.2-1.1,5c0.3,3.8,1.8,6.9,4.6,9.1c2.8,2.2,6,3.2,9.5,3l1.9-0.1c-0.5-5.1-1.7-9.6-3.5-13.7
		C1185.7,737.1,1183.1,735.2,1179.8,735.4z"/>
	<path class="st7" d="M1226,785.1c-2.3,0.2-4.4,0-6.4-0.4c-2-0.4-3.2-0.9-3.6-1.4c-1.1-1.2-2.1-7.6-2.9-19.3
		c-0.8-11.7-0.5-27.6,0.7-47.9c1.1-16.7,5.6-25.3,13.6-25.8c1.9-0.1,3.3,0.8,4.2,2.8c1,2,1.5,3.9,1.6,5.8
		c0.9,13.5-2.2,28.9-9.3,46.2c0.3,8.6,0.6,16.2,1.1,22.6c0.4,6.4,1.2,9.6,2.3,9.5c1.8-0.2,4.1-2.6,6.9-7.1
		c2.8-4.5,5.5-10.3,8.2-17.2c2.6-7,4.3-10.5,4.9-10.5c0.7-0.1,1,0.3,1.1,1.2c0.2,2.9-1,7.6-3.6,14.2
		C1238,775.5,1231.7,784.7,1226,785.1z M1229.6,700.4c-0.2-3.3-0.8-5-1.6-4.9c-3.1,0.2-4.5,13.3-4.2,39.3
		C1228.2,720.2,1230.2,708.7,1229.6,700.4z"/>
	<path class="st7" d="M1290.4,780.7c-4.1,0.3-7.2-0.4-9.4-1.9c-0.8-0.7-1.3-2.5-1.5-5.5c-0.2-3-0.4-7-0.5-12
		c-2.2,6.9-4.6,12.1-7,15.6c-2.4,3.4-5.7,5.3-9.9,5.6c-4.2,0.3-7.9-1.4-11.3-5.1c-3.4-3.7-5.3-9.7-5.9-18.1
		c-0.6-8.4,1.3-15.9,5.6-22.7c4.3-6.8,10.3-10.4,18-10.9c3.3-0.2,7.2,1.7,11.7,5.8c0.8-1.2,2.1-2.7,4.2-4.4c2-1.8,3.8-2.7,5.3-2.8
		c1.5-0.1,2.4,1.8,2.7,5.8c0.1,1-0.1,3.1-0.5,6.1c-0.4,3.1-0.9,5.3-1.5,6.7c-0.8,2.4-0.7,10.9,0.3,25.5c0.2,2.8,0.6,4.2,1.2,4.2
		c1.8-0.2,4.1-2.6,6.9-7.1c2.8-4.5,5.6-10.3,8.2-17.2c2.6-7,4.3-10.5,4.9-10.5c0.7-0.1,1,0.3,1.1,1.2c0.2,2.9-1,7.6-3.6,14.2
		C1302.4,771.2,1296,780.4,1290.4,780.7z M1268.1,732.1c-2.9,0.2-5.9,2.6-8.8,7.1c-3,4.5-4.3,9.7-3.9,15.5
		c0.4,5.8,1.6,10.6,3.6,14.2c2,3.6,4.3,5.3,7.1,5.2c3.4-0.2,7.9-9.1,13.4-26.7c0.1-0.8,0.1-2.3,0.1-4.3c0-2,0-3.6,0.1-4.6
		c-1-1.6-2.8-3.1-5.2-4.4C1271.9,732.6,1269.8,732,1268.1,732.1z"/>
	<path class="st7" d="M1344.3,750.8c-7,18-13.4,27.2-19.1,27.6c-5.7,0.4-9-0.1-10.1-1.4c-1.1-1.3-1.9-5.7-2.4-13.3
		c-0.5-7.6-0.5-18.6,0-33c-5.3-0.7-8.2-2.6-8.7-5.8c-0.1-1.7,0.9-2.6,3.1-2.7c2.2-0.1,4.1,0.1,5.8,0.9c0.4-7.6,1-15.2,1.8-23
		c0.2-2,1-3.9,2.6-5.8s3.1-2.9,4.7-3c1.3-0.1,2.2,2,2.4,6.3c0.1,2,0,11.1-0.3,27.4c2.8-0.7,5.8-2,9.1-3.7c3.3-1.8,5.2-2.7,5.8-2.8
		c1.9-0.1,2.8,0.4,2.9,1.5c0.2,1-1.7,2.6-5.5,4.7c-3.8,2.1-8,3.7-12.5,5c-0.2,15.2-0.1,26.8,0.4,34.6c0.3,4.2,1,6.2,2.3,6.1
		c1.9-0.2,4.2-2.6,7-7.1c2.8-4.5,5.6-10.2,8.2-17.2c2.6-7,4.2-10.5,4.9-10.6c0.7,0,1.1,0.3,1.1,1.2
		C1348.1,739.5,1346.9,744.3,1344.3,750.8z"/>
	<path class="st7" d="M1365.7,775.7c-5.8,0.4-10.6-1.5-14.3-5.7c-3.7-4.2-5.8-9.1-6.1-14.7c-0.8-11.3,1-20.1,5.4-26.2
		c4.4-6.1,10.4-9.5,18-10c3.5-0.2,6.5,0.5,8.9,2.3c2.4,1.8,3.7,4.3,4,7.6c0.4,6.2-1.9,11.6-6.8,16.2c-5,4.6-11.2,7.2-18.8,7.9
		c0.7,4,2.3,7.4,4.8,10.2c2.5,2.8,5.4,4.1,8.5,3.9c3.1-0.2,5.9-1.1,8.3-2.7c2.4-1.6,4.5-3.8,6.4-6.7c4-6,7.3-12.8,9.9-20.2
		c0.7-1.9,1.3-3.3,1.7-4.2c0.4-0.9,0.9-1.3,1.5-1.3c0.6,0,0.9,0.4,0.9,1.2c0.3,5.2-2.3,13.2-7.9,24
		C1383.9,768.9,1375.8,775,1365.7,775.7z M1355.7,749.4c6.1-1.4,10.4-3.7,13.1-6.8c2.7-3.1,3.8-7,3.5-11.7c-0.3-4.7-2-6.9-5-6.7
		c-3.7,0.2-6.5,3-8.7,8.2C1356.4,737.6,1355.4,743.3,1355.7,749.4z"/>
</g>
</svg>
