<?xml version="1.0" encoding="utf-8"?>
<!-- Generator: Adobe Illustrator 26.0.1, SVG Export Plug-In . SVG Version: 6.00 Build 0)  -->
<svg version="1.1" id="Camada_1" xmlns="http://www.w3.org/2000/svg" xmlns:xlink="http://www.w3.org/1999/xlink" x="0px" y="0px"
	 viewBox="0 0 1920 1312" style="enable-background:new 0 0 1920 1312;" xml:space="preserve">
<style type="text/css">
	.st0{fill:#EF7D00;}
	.st1{fill:#57AFFF;}
</style>
<g id="CLUE_Design">
	<g>
		<path class="st0" d="M817.4,760.8c-21.6,9.9-45.9,16.2-67.5,16.2c-76.9,0-146.2-63-146.2-152.1c0-73.8,52.6-132.3,121.9-143.1
			c52.6-7.2,98.5,5.8,134.1,43.2c13.5,15.3-10.8,33.7-23.4,20.2c-30.6-32.4-66.1-37.3-105.7-32.8c-55.3,8.5-94.5,47.7-94.5,112.9
			c0,68.4,52.6,120.6,114.7,120.6c16.6,0,35.1-4.5,52.2-13c13.9-7.2,26.5-18.4,32.7-30.2c8.7-16.3,36,0.3,26.1,18
			C851.6,739,836.7,751.4,817.4,760.8z"/>
		<path class="st0" d="M914.8,776.9c-12.1,0-17.1-5.9-17.1-16.7V495.8c0-21.1,33.3-21.1,33.3,0v251.4l146.7,0.1
			c22.9,0,22.9,29.7,0,29.7L914.8,776.9z"/>
		<path class="st0" d="M1355.6,496.4c0-22,33.8-22,33.8-0.4v154.2c0,86.4-67,130-132.7,130s-130.7-43.6-130.7-130V493.9
			c0-19.8,33.7-19.8,33.7,0.4v155.9c0,130,195.9,130,195.9,0L1355.6,496.4L1355.6,496.4z"/>
		<path class="st0" d="M1453.4,747.4l180.7-0.2c18.9,0,21.6,29.7,0,29.7h-192.6c-12.6,0-20.7-9-20.7-19.8V499.8
			c0-10.3,8.1-19.3,20.7-19.3h193.1c19.3,0,18.4,28.8-0.4,28.8h-180.7V616h148.4c18,0,18.9,28.8,0,28.8h-148.4L1453.4,747.4
			L1453.4,747.4z"/>
	</g>
	<g>
		<path class="st0" d="M920.8,850.1c5.8,0,11.5,2.4,14.1,7.1v-17.4c0-4,6.4-4,6.4,0v52.7c0,1.9-1.2,3.1-3.2,3.1s-3-1.1-3-3.1v-4.1
			c-3,5.4-9.1,7.7-14.3,7.7c-2.7,0-5.7-0.5-8.4-1.7l0.1,0.1c-9.5-3.9-14.3-12.6-14-22.7C898.8,859.4,907.7,850.1,920.8,850.1z
			 M934.9,876.5v-6.9c0-7.7-5.9-13.1-13.9-13.4c-6.2,0-12.4,3.3-14.9,9.3c-0.7,1.8-1.2,4.2-1.3,6.5c-0.1,5.7,1.7,10.9,6.5,14.8
			c2.5,2,5.7,3.1,9,3.3C928.2,890.1,934.9,885,934.9,876.5z"/>
		<path class="st0" d="M992.1,851.6c9.9,2.7,16,10.7,16.1,21.9v-0.1c0.2,1.9-0.7,4-4.3,4h-34.5c1.1,7.2,7.2,13.1,16,13.1
			c4,0,8.2-1,11.6-3.7c3.1-2.8,7.6,0.8,4.2,4.3c-4,3.8-9.9,5.3-15.5,5.2c-6.8,0-13.6-2.6-17.7-7.8c-9.4-12.4-5.3-32.5,10.9-37
			C983.1,850.3,987.8,850.4,992.1,851.6L992.1,851.6z M969.3,872.1h32.9c-0.6-7.4-5.2-13.1-12-14.8h0.1c-2.9-0.8-6.5-0.8-9.4,0.1
			C973.9,859.2,969.8,865,969.3,872.1z"/>
		<path class="st0" d="M1035.1,884.7c0.9,3.9,7.7,5.9,14,5.9c4.3,0,13.4-1.9,13.4-7.9c0-5.6-6.6-5.9-13.7-6.4
			c-9.4-0.9-19.6-1.7-19.6-12.4c0-9.3,10.6-13.3,19-13.3c6.7,0,16.1,1.1,19.1,9c1.2,3.9-4.8,5.6-5.9,2.3c-1.9-5.1-9.2-5.4-13.2-5.4
			c-5.1,0-12.7,2.2-12.7,7.6c0,5.6,6.5,5.5,13.4,6c9.6,0.9,19.8,1.7,19.8,12.7s-12.6,13.7-19.8,13.7c-7.2,0-18.4-1.8-20.2-10.6
			C1028,882.2,1034.3,880.3,1035.1,884.7z"/>
		<path class="st0" d="M1101.2,844.1c0,3.9-6.5,4-6.5,0v-3.9c0-4,6.5-4,6.5,0V844.1z M1094.8,853.6c0-3.8,6.4-3.8,6.4-0.1v39.4
			c0,3.8-6.4,3.8-6.4,0V853.6z"/>
		<path class="st0" d="M1168.9,893.2c0,12.7-9.6,19.2-21.6,19.2c-6.6,0-12-1.6-16.7-6c-3.5-3.4,1.3-7.4,4.3-4.5
			c4.4,3.3,7.5,4.4,12.4,4.4c7.9,0,15.4-4,15.4-13v-4.7c-3.1,5.5-8.7,7.6-14,7.7c-3.3,0.1-6.5-0.4-9.4-1.7
			c-8.1-3.3-13.1-11.3-13.3-20.1c-0.3-10.1,4.5-18.8,14-22.7c2.7-1.1,5.6-1.5,8.2-1.5c5.3,0,11.4,2,14.3,6.8v-3.3
			c0-1.9,1.1-3.1,3.1-3.1c1.9,0,3.2,1.2,3.2,3.1L1168.9,893.2L1168.9,893.2z M1138.8,859.5L1138.8,859.5c-4.7,3.9-6.5,9.2-6.4,14.8
			c0.1,2.3,0.5,4.6,1.3,6.5c2.4,6.1,8.7,9.4,14.9,9.3h-0.1c7.9-0.3,14-6,14-13.4v-6.9c0-5.5-2.3-9.7-7.4-12
			C1149.9,855.5,1143.6,855.8,1138.8,859.5z"/>
		<path class="st0" d="M1229.4,870.3c0-8-6.5-13.6-13.5-13.6c-8.5,0-16.4,7-16.4,16.5v20.2c0,1.9-1.1,3.1-3.1,3.1s-3.3-1.1-3.3-3.1
			v-39.1c0-4,6.3-4.1,6.3,0.1v5.4c3.1-6.4,9.9-9.1,16.7-9.1c10.1,0,19.8,7,19.8,19.5v23.1c0,1.9-1.1,3.1-3.1,3.1
			c-1.9,0-3.2-1.1-3.2-3.1v-23L1229.4,870.3L1229.4,870.3z"/>
		<path class="st0" d="M1333.8,893.7c0,12.7-9.6,19.2-21.6,19.2c-6.6,0-12-1.6-16.7-6c-3.5-3.4,1.3-7.4,4.3-4.5
			c4.4,3.3,7.5,4.4,12.4,4.4c7.9,0,15.4-4,15.4-13V889c-3.1,5.5-8.7,7.6-14,7.7c-3.3,0.1-6.5-0.4-9.4-1.7
			c-8.1-3.3-13.1-11.3-13.3-20.1c-0.3-10.1,4.4-18.8,14-22.7c2.7-1.1,5.6-1.5,8.2-1.5c5.3,0,11.4,2,14.3,6.8v-3.3
			c0-1.9,1.1-3.1,3.1-3.1c1.9,0,3.2,1.2,3.2,3.1L1333.8,893.7L1333.8,893.7z M1303.7,860L1303.7,860c-4.7,3.9-6.5,9.2-6.4,14.8
			c0.1,2.3,0.5,4.6,1.3,6.5c2.4,6.1,8.7,9.4,14.9,9.3h-0.1c7.9-0.3,14-6,14-13.4v-6.9c0-5.5-2.3-9.7-7.4-12
			C1314.7,856,1308.5,856.4,1303.7,860z"/>
		<path class="st0" d="M1362.2,858.5c2.8-5.8,8-7.4,13-7.4c2,0,3.3,1.1,3.3,3.1c0,1.9-1.3,3-3.3,3c-9,0-12.8,7.2-12.8,16v19.7
			c0,1.8-1.5,3.1-3.1,3.1c-1.9,0-3.2-1.2-3.2-3.1v-38.7c0-3.8,6.2-4.2,6.2,0L1362.2,858.5L1362.2,858.5z"/>
		<path class="st0" d="M1401.1,851.4c2.9-1.3,6-1.7,9.3-1.7c5,0.1,10.6,1.7,13.8,6.8v-3.3c0-1.8,1.1-3.1,3.1-3.1
			c1.9,0,3.2,1.3,3.2,3.1v38.7c0,1.9-1.3,3.1-3.2,3.1c-2,0-3.1-1.2-3.1-3.1v-4.2c-2.5,5.1-9,7.9-14.1,7.9c-4.2,0-8.9-1.1-12.6-3.8
			c-6.6-4.5-10-12-9.8-20.5C1387.9,862.6,1392.8,854.5,1401.1,851.4L1401.1,851.4z M1424.2,876.1v-6.9c0-8.6-6-13.1-13.9-13.4
			c-6.2-0.1-12.5,3.2-14.9,9.3c-0.8,1.8-1.2,4.2-1.3,6.5c-0.2,5.7,1.7,10.9,6.4,14.8c2.6,2,5.8,3.1,9,3.3
			C1417.5,889.7,1423.8,884.8,1424.2,876.1z M1414.3,834.8c2.6-3.4,8,0,5.2,2.7l-7.2,6.7c-2.9,2.4-6.1-0.4-4.5-2.6L1414.3,834.8z"/>
		<path class="st0" d="M1464.3,857.8v35.6c0,3.8-6.4,3.8-6.4,0v-35.6h-4.7c-3.4,0-3.3-5.3,0.1-5.3h4.6v-1.9
			c0-11.2,13.3-16.1,21.4-9.8c3.1,2.6-1,6.7-3.6,4.4c-3.6-3.3-11.4-1.3-11.4,5.4v1.8h8.4c3.1,0,3.1,5.3,0,5.3L1464.3,857.8
			L1464.3,857.8z"/>
		<path class="st0" d="M1505.1,844.1c0,3.9-6.5,4-6.5,0v-3.9c0-4,6.5-4,6.5,0V844.1z M1498.7,853.6c0-3.8,6.4-3.8,6.4-0.1v39.4
			c0,3.8-6.4,3.8-6.4,0V853.6z"/>
		<path class="st0" d="M1551.5,854.8c-9.5,0-16,7.8-16,17.7c0,3.9,1.1,8.4,3.8,11.5c3.1,3.8,7.9,5.8,12.6,5.8
			c4.6,0,9.7-1.6,12.7-5.8c2.2-3,7.4,0.4,4.5,3.8c-4.3,5.2-10.8,7.8-17.3,7.8s-13.2-2.7-17.5-7.8c-3.7-4.5-5.5-10.7-5.1-17.1
			c0.7-12.9,9.9-21.7,23.1-21.7c6.3,0,11.3,2.1,16.1,7.4c2.5,2.9-2.2,6.5-4.6,3.7C1560.4,856.3,1555.9,854.8,1551.5,854.8z"/>
		<path class="st0" d="M1589.4,887.5c-3.9-4.6-5.6-10.2-5.3-16.8c0.9-9.7,6.5-17.8,16.1-20.5c2.1-0.6,4.5-0.8,6.6-0.8
			s4.2,0.2,6.5,0.8c9.5,2.7,15.4,10.7,16.2,20.5c0.3,6.5-1.4,12.1-5.2,16.8c-4.3,5.1-10.6,7.9-17.5,7.9
			C1599.9,895.3,1593.7,892.6,1589.4,887.5z M1606.8,855.4c-1.7,0-3.3,0.3-4.6,0.6c-7.3,1.9-11.6,8.7-11.6,16.6
			c0,3.9,1.2,8,3.8,11.1c3.1,3.7,7.7,5.8,12.5,5.8c4.7,0,9.5-2.3,12.6-5.8c2.4-3,3.8-7.2,3.8-10.9c0-7.9-4.3-14.8-11.7-16.8
			C1610.2,855.6,1608.4,855.4,1606.8,855.4z"/>
	</g>
	<g>
		<path class="st1" d="M494.7,642.3c0-6.1-4.3-11.2-10-12.6c0.1-1,0.1-2,0.1-2.9c0-21.4-17.5-38.8-39-38.8c-4.5,0-8.9,0.8-12.9,2.2
			c-6.9-6.2-16-10-26.1-10s-19.2,3.8-26.1,10c-4-1.4-8.4-2.2-12.9-2.2c-21.5,0-39,17.4-39,38.8c0,1,0.1,2,0.1,3
			c-5.6,1.4-9.8,6.5-9.8,12.5s4.2,11.1,9.8,12.5c-0.1,1-0.1,2-0.1,3c0,21.4,17.5,38.8,39,38.8c4.5,0,8.9-0.8,12.9-2.2
			c6.9,6.2,16,10,26.1,10c10,0,19.2-3.8,26.1-10c4,1.4,8.4,2.2,12.9,2.2c21.5,0,39-17.4,39-38.8c0-1-0.1-2-0.1-3
			C490.4,653.5,494.7,648.4,494.7,642.3z"/>
		<path class="st0" d="M642.5,850.8c-7.1-10.7-20.9-14.3-32.1-8.8c-5.2-10-12.7-21.9-22.4-34.9l0,0c-16.8-22.4-35.7-44.8-52.6-63.9
			c21.9-27.8,34.9-62.8,34.9-100.9c0-90.2-73.2-163.4-163.4-163.4s-163.4,73.2-163.4,163.4s73.2,163.4,163.4,163.4
			c37.8,0,72.6-12.8,100.3-34.4c19.1,16.9,41.6,35.8,64.1,52.6l0,0c13,9.6,23.5,15.8,34,21.4c-9.8,8.1-12.1,22.5-4.9,33.3
			c1.5,2.3-8.4,19.7-28.2,6.9c0,0,28.3,23.3,63.2,0.3C646.9,878.1,650.1,862.4,642.5,850.8z M406.8,778.7
			c-75.4,0-136.4-61.1-136.4-136.4c0-75.4,61.1-136.4,136.4-136.4c75.4,0,136.4,61.1,136.4,136.4
			C543.3,717.6,482.2,778.7,406.8,778.7z"/>
	</g>
</g>
</svg>
