<?xml version="1.0" encoding="utf-8"?>
<!-- Generator: Adobe Illustrator 22.0.1, SVG Export Plug-In . SVG Version: 6.00 Build 0)  -->
<svg version="1.1" id="Camada_1" xmlns="http://www.w3.org/2000/svg" xmlns:xlink="http://www.w3.org/1999/xlink" x="0px" y="0px"
	 viewBox="0 0 1920 1312" style="enable-background:new 0 0 1920 1312;" xml:space="preserve">
<style type="text/css">
	.st0{fill:#FF4848;}
</style>
<g id="Camada_38">
	<g>
		<rect x="182.9" y="604.8" class="st0" width="13.1" height="13.1"/>
		<rect x="287.1" y="604.8" class="st0" width="13.1" height="13.1"/>
		<rect x="300.2" y="618" class="st0" width="39.4" height="65.7"/>
		<rect x="457" y="604.8" class="st0" width="13.1" height="13.1"/>
		<polygon class="st0" points="404.4,618 417.6,618 417.6,631.1 430.7,631.1 430.7,644.2 443.8,644.2 443.8,631.1 457,631.1 
			457,618 430.7,618 430.7,604.8 417.6,604.8 417.6,591.7 391.3,591.7 391.3,604.8 404.4,604.8 		"/>
		<rect x="586.6" y="618" class="st0" width="39.4" height="65.7"/>
		<rect x="677.7" y="604.8" class="st0" width="13.1" height="13.1"/>
		<rect x="690.8" y="618" class="st0" width="39.4" height="26.3"/>
		<rect x="795" y="618" class="st0" width="39.4" height="26.3"/>
		<rect x="886.1" y="604.8" class="st0" width="13.1" height="13.1"/>
		<rect x="899.2" y="618" class="st0" width="39.4" height="26.3"/>
		<rect x="912.4" y="565.4" class="st0" width="13.1" height="13.1"/>
		<rect x="1003.5" y="618" class="st0" width="39.4" height="26.3"/>
		<rect x="1159.4" y="618" class="st0" width="39.4" height="65.7"/>
		<rect x="1250.4" y="604.8" class="st0" width="13.1" height="13.1"/>
		<polygon class="st0" points="1329.3,604.8 1316.1,604.8 1316.1,591.7 1263.6,591.7 1263.6,604.8 1303,604.8 1303,618 1316.1,618 
			1316.1,696.8 1303,696.8 1303,657.4 1263.6,657.4 1263.6,696.8 1250.4,696.8 1250.4,618 1238.2,618 1237.3,618 1225,618 
			1225,604.8 1211.9,604.8 1211.9,591.7 1146.2,591.7 1146.2,604.8 1198.8,604.8 1198.8,618 1211.9,618 1211.9,683.6 1198.8,683.6 
			1198.8,696.8 1146.2,696.8 1146.2,604.8 1133.9,604.8 1133.1,604.8 1120.8,604.8 1120.8,591.7 1094.5,591.7 1094.5,604.8 
			1107.7,604.8 1107.7,696.8 1094.5,696.8 1094.5,604.8 1081.4,604.8 1081.4,618 1069.1,618 1069.1,604.8 1056,604.8 1056,591.7 
			990.3,591.7 990.3,604.8 1042.9,604.8 1042.9,618 1056,618 1056,644.2 1042.9,644.2 1042.9,657.4 1003.5,657.4 1003.5,696.8 
			990.3,696.8 990.3,604.8 977.2,604.8 977.2,618 964.9,618 964.9,604.8 951.8,604.8 951.8,591.7 964.9,591.7 964.9,565.4 
			951.8,565.4 951.8,552.3 925.5,552.3 925.5,565.4 938.6,565.4 938.6,578.6 925.5,578.6 925.5,591.7 912.4,591.7 912.4,578.6 
			899.2,578.6 899.2,604.8 938.6,604.8 938.6,618 951.8,618 951.8,696.8 938.6,696.8 938.6,657.4 899.2,657.4 899.2,696.8 
			886.1,696.8 886.1,618 873.8,618 873,618 860.7,618 860.7,604.8 847.6,604.8 847.6,591.7 781.9,591.7 781.9,604.8 834.4,604.8 
			834.4,618 847.6,618 847.6,644.2 834.4,644.2 834.4,657.4 847.6,657.4 847.6,696.8 834.4,696.8 834.4,657.4 795,657.4 795,696.8 
			781.9,696.8 781.9,604.8 768.8,604.8 768.8,618 756.5,618 756.5,604.8 743.4,604.8 743.4,591.7 690.8,591.7 690.8,604.8 
			730.2,604.8 730.2,618 743.4,618 743.4,696.8 730.2,696.8 730.2,657.4 690.8,657.4 690.8,696.8 677.7,696.8 677.7,618 665.4,618 
			664.5,618 652.3,618 652.3,604.8 639.1,604.8 639.1,591.7 573.5,591.7 573.5,604.8 626,604.8 626,618 639.1,618 639.1,683.6 
			626,683.6 626,696.8 573.5,696.8 573.5,604.8 561.2,604.8 560.3,604.8 548,604.8 548,591.7 521.8,591.7 521.8,604.8 534.9,604.8 
			534.9,696.8 521.8,696.8 521.8,604.8 509.5,604.8 508.6,604.8 496.4,604.8 496.4,591.7 470.1,591.7 470.1,604.8 483.2,604.8 
			483.2,696.8 470.1,696.8 470.1,631.1 457,631.1 457,644.2 443.8,644.2 443.8,657.4 430.7,657.4 430.7,644.2 417.6,644.2 
			417.6,631.1 404.4,631.1 404.4,696.8 391.3,696.8 391.3,604.8 378.2,604.8 378.2,618 365.9,618 365.9,604.8 352.8,604.8 
			352.8,591.7 300.2,591.7 300.2,604.8 339.6,604.8 339.6,618 352.8,618 352.8,683.6 339.6,683.6 339.6,696.8 300.2,696.8 
			300.2,683.6 287.1,683.6 287.1,680.6 287.1,637.7 287.1,618 274.8,618 274.8,604.8 261.7,604.8 261.7,591.7 196,591.7 196,604.8 
			248.5,604.8 248.5,618 196,618 196,683.6 248.5,683.6 248.5,696.8 196,696.8 196,683.6 182.9,683.6 182.9,618 169.7,618 
			169.7,696.8 182.9,696.8 182.9,709.9 196,709.9 196,723 274.8,723 274.8,696.8 287.1,696.8 287.1,709.9 300.2,709.9 300.2,723 
			365.9,723 365.9,709.9 378.2,709.9 379,709.9 391.3,709.9 391.3,723 430.7,723 430.7,683.6 457,683.6 457,709.9 470.1,709.9 
			470.1,723 509.5,723 509.5,709.9 521.8,709.9 521.8,723 561.2,723 561.2,709.9 573.5,709.9 573.5,723 652.3,723 652.3,709.9 
			664.5,709.9 665.4,709.9 677.7,709.9 677.7,723 717.1,723 717.1,709.9 730.2,709.9 730.2,723 769.6,723 769.6,709.9 781.9,709.9 
			781.9,723 821.3,723 821.3,709.9 834.4,709.9 834.4,723 873.8,723 873.8,709.9 886.1,709.9 886.1,723 925.5,723 925.5,709.9 
			938.6,709.9 938.6,723 978.1,723 978.1,709.9 990.3,709.9 990.3,723 1029.7,723 1029.7,683.6 1056,683.6 1056,670.5 1069.1,670.5 
			1069.1,657.4 1081.4,657.4 1081.4,709.9 1094.5,709.9 1094.5,723 1133.9,723 1133.9,709.9 1146.2,709.9 1146.2,723 1225,723 
			1225,709.9 1237.3,709.9 1238.2,709.9 1250.4,709.9 1250.4,723 1289.8,723 1289.8,709.9 1303,709.9 1303,723 1342.4,723 
			1342.4,618 1329.3,618 		"/>
		<rect x="1263.6" y="618" class="st0" width="39.4" height="26.3"/>
		<polygon class="st0" points="1390.2,670.5 1363.9,670.5 1363.9,683.6 1377,683.6 1377,696.8 1363.9,696.8 1363.9,683.6 
			1350.8,683.6 1350.8,709.9 1363.9,709.9 1363.9,723 1403.3,723 1403.3,683.6 1390.2,683.6 		"/>
		<rect x="1512.9" y="557.9" class="st0" width="10.9" height="12.3"/>
		<polygon class="st0" points="1536,547 1536,534.7 1523.8,534.7 1523.8,547 1523.8,557.9 1536,557.9 		"/>
		<rect x="1512.9" y="523.8" class="st0" width="10.9" height="10.9"/>
		<rect x="1500.6" y="511.5" class="st0" width="12.3" height="12.3"/>
		<rect x="1500.6" y="570.2" class="st0" width="12.3" height="10.9"/>
		<rect x="1489.7" y="581.1" class="st0" width="10.9" height="12.3"/>
		<rect x="1500.6" y="593.3" class="st0" width="12.3" height="10.9"/>
		<rect x="1587.9" y="529.3" class="st0" width="12.3" height="10.9"/>
		<polygon class="st0" points="1611,511.5 1611,499.3 1600.1,499.3 1600.1,511.5 1600.1,529.3 1611,529.3 		"/>
		<rect x="1587.9" y="482.9" class="st0" width="12.3" height="16.4"/>
		<rect x="1576.9" y="470.6" class="st0" width="10.9" height="12.3"/>
		<rect x="1576.9" y="540.2" class="st0" width="10.9" height="17.7"/>
		<rect x="1564.7" y="557.9" class="st0" width="12.3" height="12.3"/>
		<rect x="1576.9" y="570.2" class="st0" width="10.9" height="17.7"/>
		<rect x="1658.8" y="563.3" class="st0" width="10.9" height="12.3"/>
		<polygon class="st0" points="1681.9,552.4 1681.9,540.2 1669.7,540.2 1669.7,552.4 1669.7,563.3 1681.9,563.3 		"/>
		<rect x="1658.8" y="529.3" class="st0" width="10.9" height="10.9"/>
		<rect x="1646.5" y="517" class="st0" width="12.3" height="12.3"/>
		<rect x="1646.5" y="575.6" class="st0" width="12.3" height="12.3"/>
		<rect x="1635.6" y="587.9" class="st0" width="10.9" height="10.9"/>
		<rect x="1646.5" y="598.8" class="st0" width="12.3" height="12.3"/>
	</g>
</g>
<path class="st0" d="M1413.3,618v23.2h5.5v23.2h6.8v23.2h10.9v12.3h5.5v10.9h12v12.3h263.5v-12.3h12.1v-10.9h5.5v-12.3h10.9v-23.2
	h6.8v-23.2h5.5V618H1413.3z M1519.6,653.6h-40.9v28.6h40.9v17.7h-40.9v-17.7h-12.3v-28.6h12.3v-17.7h40.9V653.6z M1589.1,653.6
	h-40.9v28.6h40.9v17.7h-40.9v-17.7h-12.3v-28.6h12.3v-17.7h40.9V653.6z M1600,682.2h-10.9v-28.6h10.9V682.2z M1670.9,700h-17.7
	v-46.4H1630V700h-12.2v-64.1h35.5v17.7h17.6V700z M1705,699.9h-10.9v-46.3H1671v-17.7h23.2v17.7h10.9L1705,699.9z"/>
</svg>
