<?xml version="1.0" encoding="utf-8"?>
<!-- Generator: Adobe Illustrator 22.0.1, SVG Export Plug-In . SVG Version: 6.00 Build 0)  -->
<svg version="1.1" id="Camada_1" xmlns="http://www.w3.org/2000/svg" xmlns:xlink="http://www.w3.org/1999/xlink" x="0px" y="0px"
	 viewBox="0 0 1920 1312" style="enable-background:new 0 0 1920 1312;" xml:space="preserve">
<style type="text/css">
	.st0{fill:#7A70B7;}
</style>
<g>
	<path class="st0" d="M1631.9,628.3c-11.9,0-22.2,7-26.8,17.2h-67.3v24.7h67.3c4.7,10.1,14.9,17.1,26.8,17.1
		c16.3,0,29.5-13.2,29.5-29.5S1648.2,628.3,1631.9,628.3z"/>
	<polygon class="st0" points="1060.1,583.1 1141.9,583.1 1141.9,558.5 1032.5,558.5 1032.5,645.5 1060.1,645.5 	"/>
	<polygon class="st0" points="1032.5,751.1 1144.5,751.1 1144.5,726.5 1060.1,726.5 1060.1,670.2 1032.5,670.2 	"/>
	<path class="st0" d="M1216.9,603.2c14.6-13.9,32.9-20.9,55-20.9c21.5,0,43.6,6.4,66.2,19.3v-29.7c-24.8-10.6-47.3-15.9-67.5-15.9
		c-29.4,0-54.1,9.6-74.1,28.7c-16.7,16-26.3,38.6-29.1,60.8h28.8C1198.8,630.5,1205.7,614,1216.9,603.2z"/>
	<path class="st0" d="M1216.6,707.8c-11.8-11.2-18.6-21.3-20.8-37.6h-28.7c1.5,13.5,5.6,22.7,12.5,34.7
		c8.7,15.2,20.6,27.1,35.6,35.8c15,8.6,33.3,13,54.8,13c26.5,0,49.9-5.5,70.2-16.6v-30.4c-22.3,14.4-45.1,21.5-68.5,21.5
		C1249.3,728.2,1231,721.4,1216.6,707.8z"/>
	<rect x="939.2" y="645.5" class="st0" width="93.3" height="24.7"/>
	<path class="st0" d="M911.5,645.5h27.7v-62.7h67.2v-24.6H845.3v24.6h66.1L911.5,645.5h-87l-136-235.4H402.6l-143,247.6l143,247.6
		h285.9l135.8-235.1h87.1v81.2h27.8v-81.2h-27.7V645.5z M545.8,727.9c-7.6,7.6-19.3,13.9-34.9,18.7c-15.6,4.8-31.1,7.3-46.3,7.3
		c-33.6,0-61.2-9.3-82.8-27.8c-21.6-18.6-32.4-42.1-32.4-70.8c0-29.3,10.8-53.1,32.4-71.6c21.6-18.5,49.6-27.7,83.9-27.7
		c28.4,0,53.7,5.3,76.1,15.9V614c-24.6-11.9-48.6-17.8-72.1-17.8c-22.6,0-40.1,5.7-52.3,17.1c-12.3,11.4-18.4,26-18.4,43.6
		c0,16.9,6.1,30.7,18.4,41.1c12.2,10.5,28.4,15.7,48.3,15.7c10.6,0,21.2-2.3,31.9-6.9v-22.5h-27.9v-35.4h76.1V727.9z M706.9,738
		c-13.6,10.6-31.5,15.9-53.6,15.9c-23.9,0-47.1-6.2-69.6-18.6v-41.6c12.9,8.6,24.3,15,34.2,18.9c9.9,4,20.5,5.9,31.6,5.9
		c18.9,0,28.3-5.9,28.3-17.8c0-4-1.9-7.9-5.7-11.5s-12.9-8-27.3-13.1c-14.4-5.2-25.8-9.9-34.2-14.4c-8.4-4.4-15.7-10.7-21.8-18.9
		s-9.2-18.7-9.2-31.5c0-16.6,6.7-29.9,20-40.1c13.3-10.2,31.2-15.3,53.6-15.3c20.6,0,42.4,5,65.3,14.9v37.7
		c-25.6-11.5-46-17.3-61.2-17.3c-8.7,0-15.5,1.4-20.6,4.3c-5.1,2.9-7.7,6.8-7.7,11.5c0,3.7,1.8,7.2,5.5,10.5s12.7,7.6,26.9,12.8
		c14.3,5.2,25.7,10.1,34.2,14.6c8.6,4.5,16,10.9,22.2,19.1c6.2,8.2,9.3,18.5,9.3,31.1C727.2,713.2,720.4,727.4,706.9,738z"/>
	<path class="st0" d="M1167.4,645.5h-107.3v24.7h107c-0.4-3.6-0.7-7.3-0.7-11C1166.5,654.5,1166.9,649.9,1167.4,645.5z"/>
	<path class="st0" d="M1195,659.2c0,3.8,0.3,7.5,0.8,11h178.3v-24.7h-177.9C1195.5,649.9,1195,654.4,1195,659.2z"/>
	<rect x="1374.2" y="670.2" class="st0" width="27.6" height="81.2"/>
	<rect x="1374.2" y="558.5" class="st0" width="27.6" height="87"/>
	<polygon class="st0" points="1510.2,645.5 1401.8,645.5 1401.8,670.2 1510.2,670.2 1510.2,751.4 1537.8,751.4 1537.8,670.2 
		1510.2,670.2 1510.2,645.5 1537.8,645.5 1537.8,558.5 1510.2,558.5 	"/>
</g>
</svg>
