<?xml version="1.0" encoding="utf-8"?>
<!-- Generator: Adobe Illustrator 22.0.1, SVG Export Plug-In . SVG Version: 6.00 Build 0)  -->
<svg version="1.1" id="Camada_1" xmlns="http://www.w3.org/2000/svg" xmlns:xlink="http://www.w3.org/1999/xlink" x="0px" y="0px"
	 viewBox="0 0 1920 1312" style="enable-background:new 0 0 1920 1312;" xml:space="preserve">
<style type="text/css">
	.st0{fill:#FFFFFF;}
</style>
<g id="GS_-_Tech">
	<g>
		<path class="st0" d="M1661,657.7c0,16.3-13.2,29.5-29.5,29.5S1602,674,1602,657.7s13.2-29.5,29.5-29.5S1661,641.4,1661,657.7z"/>
		<path class="st0" d="M688.1,409.9H402.2l-143,247.6l143,247.6h285.9l143-247.6L688.1,409.9z M545.4,727.8
			c-7.6,7.6-19.3,13.9-34.9,18.7s-31.1,7.3-46.3,7.3c-33.6,0-61.2-9.3-82.8-27.8c-21.6-18.6-32.4-42.1-32.4-70.8
			c0-29.3,10.8-53.1,32.4-71.6s49.6-27.7,83.9-27.7c28.4,0,53.7,5.3,76.1,15.9v42.1C516.8,602,492.8,596,469.3,596
			c-22.6,0-40.1,5.7-52.3,17.1c-12.3,11.4-18.4,26-18.4,43.6c0,16.9,6.1,30.7,18.4,41.1c12.2,10.5,28.4,15.7,48.3,15.7
			c10.6,0,21.2-2.3,31.9-6.9v-22.5h-27.9v-35.4h76.1L545.4,727.8L545.4,727.8z M706.5,737.9c-13.6,10.6-31.5,15.9-53.6,15.9
			c-23.9,0-47.1-6.2-69.6-18.6v-41.6c12.9,8.6,24.3,15,34.2,18.9c9.9,4,20.5,5.9,31.6,5.9c18.9,0,28.3-5.9,28.3-17.8
			c0-4-1.9-7.9-5.7-11.5s-12.9-8-27.3-13.1c-14.4-5.2-25.8-9.9-34.2-14.4c-8.4-4.4-15.7-10.7-21.8-18.9s-9.2-18.7-9.2-31.5
			c0-16.6,6.7-29.9,20-40.1c13.3-10.2,31.2-15.3,53.6-15.3c20.6,0,42.4,5,65.3,14.9v37.7c-25.6-11.5-46-17.3-61.2-17.3
			c-8.7,0-15.5,1.4-20.6,4.3c-5.1,2.9-7.7,6.8-7.7,11.5c0,3.7,1.8,7.2,5.5,10.5s12.7,7.6,26.9,12.8c14.3,5.2,25.7,10.1,34.2,14.6
			c8.6,4.5,16,10.9,22.2,19.1c6.2,8.2,9.3,18.5,9.3,31.1C726.8,713.1,720,727.3,706.5,737.9z"/>
		<g>
			<rect x="911" y="670.1" class="st0" width="27.8" height="81.2"/>
			<polygon class="st0" points="938.8,582.6 1006,582.6 1006,558.1 844.9,558.1 844.9,582.6 911,582.6 911,645.3 938.8,645.3 			"/>
			<polygon class="st0" points="1059.8,582.9 1141.5,582.9 1141.5,558.3 1032.1,558.3 1032.1,645.3 1059.8,645.3 			"/>
			<polygon class="st0" points="1032.1,751 1144.1,751 1144.1,726.4 1059.8,726.4 1059.8,670.1 1032.1,670.1 			"/>
			<path class="st0" d="M1216.6,603c14.6-13.9,32.9-20.9,55-20.9c21.5,0,43.6,6.4,66.2,19.3v-29.7c-24.8-10.6-47.3-15.9-67.5-15.9
				c-29.4,0-54.1,9.6-74.1,28.7c-16.7,16-26.3,38.6-29.1,60.8h28.8C1198.4,630.3,1205.3,613.8,1216.6,603z"/>
			<path class="st0" d="M1179.2,704.7c8.7,15.2,20.6,27.1,35.6,35.8c15,8.6,33.3,13,54.8,13c26.5,0,49.9-5.5,70.2-16.6v-30.4
				c-22.3,14.4-45.1,21.5-68.5,21.5c-22.4,0-40.7-6.8-55.1-20.4c-11.8-11.2-18.6-21.3-20.8-37.6h-28.7
				C1168.2,683.6,1172.3,692.7,1179.2,704.7z"/>
			<rect x="938.8" y="645.3" class="st0" width="93.3" height="24.7"/>
			<rect x="790.9" y="645.3" class="st0" width="120.2" height="24.7"/>
			<rect x="1401.4" y="645.3" class="st0" width="108.4" height="24.7"/>
			<path class="st0" d="M1167,645.3h-107.3V670h107c-0.4-3.6-0.7-7.3-0.7-11C1166.1,654.3,1166.5,649.8,1167,645.3z"/>
			<rect x="1537.4" y="645.3" class="st0" width="94.1" height="24.7"/>
			<path class="st0" d="M1195.8,645.3c-0.7,4.4-1.2,8.9-1.2,13.7c0,3.8,0.3,7.5,0.8,11h178.3v-24.7H1195.8z"/>
			<rect x="1373.8" y="670.1" class="st0" width="27.6" height="81.2"/>
			<rect x="1373.8" y="558.3" class="st0" width="27.6" height="87"/>
			<rect x="1509.8" y="670.1" class="st0" width="27.6" height="81.2"/>
			<rect x="1509.8" y="558.3" class="st0" width="27.6" height="87"/>
		</g>
	</g>
</g>
</svg>
