<?xml version="1.0" encoding="utf-8"?>
<!-- Generator: Adobe Illustrator 22.0.1, SVG Export Plug-In . SVG Version: 6.00 Build 0)  -->
<svg version="1.1" id="Camada_1" xmlns="http://www.w3.org/2000/svg" xmlns:xlink="http://www.w3.org/1999/xlink" x="0px" y="0px"
	 viewBox="0 0 1920 1312" style="enable-background:new 0 0 1920 1312;" xml:space="preserve">
<style type="text/css">
	.st0{fill:#FFCC05;}
	.st1{fill:#CD3827;}
	.st2{opacity:0.2;fill:url(#SVGID_1_);enable-background:new    ;}
	.st3{opacity:0.2;fill:url(#SVGID_2_);enable-background:new    ;}
	.st4{opacity:0.2;fill:url(#SVGID_3_);enable-background:new    ;}
	.st5{opacity:0.2;fill:url(#SVGID_4_);enable-background:new    ;}
	.st6{opacity:0.2;fill:url(#SVGID_5_);enable-background:new    ;}
	.st7{opacity:0.2;fill:url(#SVGID_6_);enable-background:new    ;}
	.st8{opacity:0.2;fill:url(#SVGID_7_);enable-background:new    ;}
	.st9{opacity:0.2;fill:url(#SVGID_8_);enable-background:new    ;}
	.st10{opacity:0.2;fill:url(#SVGID_9_);enable-background:new    ;}
	.st11{opacity:0.2;fill:url(#SVGID_10_);enable-background:new    ;}
	.st12{opacity:0.2;fill:url(#SVGID_11_);enable-background:new    ;}
	.st13{opacity:0.2;fill:url(#SVGID_12_);enable-background:new    ;}
	.st14{opacity:0.2;fill:url(#SVGID_13_);enable-background:new    ;}
	.st15{opacity:0.2;fill:url(#SVGID_14_);enable-background:new    ;}
	.st16{opacity:0.2;fill:url(#SVGID_15_);enable-background:new    ;}
	.st17{opacity:0.2;fill:url(#SVGID_16_);enable-background:new    ;}
	.st18{opacity:0.2;fill:url(#SVGID_17_);enable-background:new    ;}
	.st19{opacity:0.2;fill:url(#SVGID_18_);enable-background:new    ;}
	.st20{opacity:0.2;fill:url(#SVGID_19_);enable-background:new    ;}
	.st21{opacity:0.2;fill:url(#SVGID_20_);enable-background:new    ;}
	.st22{opacity:0.2;fill:url(#SVGID_21_);enable-background:new    ;}
	.st23{opacity:0.2;fill:url(#SVGID_22_);enable-background:new    ;}
	.st24{opacity:0.2;fill:url(#SVGID_23_);enable-background:new    ;}
	.st25{opacity:0.2;fill:url(#SVGID_24_);enable-background:new    ;}
	.st26{opacity:0.2;fill:url(#SVGID_25_);enable-background:new    ;}
	.st27{opacity:0.2;fill:url(#SVGID_26_);enable-background:new    ;}
	.st28{opacity:0.2;fill:url(#SVGID_27_);enable-background:new    ;}
	.st29{opacity:0.2;fill:url(#SVGID_28_);enable-background:new    ;}
	.st30{opacity:0.2;fill:url(#SVGID_29_);enable-background:new    ;}
	.st31{opacity:0.2;fill:url(#SVGID_30_);enable-background:new    ;}
	.st32{opacity:0.2;fill:url(#SVGID_31_);enable-background:new    ;}
	.st33{opacity:0.2;fill:url(#SVGID_32_);enable-background:new    ;}
	.st34{opacity:0.2;fill:url(#SVGID_33_);enable-background:new    ;}
	.st35{opacity:0.2;fill:url(#SVGID_34_);enable-background:new    ;}
	.st36{opacity:0.2;fill:url(#SVGID_35_);enable-background:new    ;}
</style>
<g id="Prato_Pratico_C">
	<g>
		<path class="st0" d="M292,647.1h150.4c21.7,0,35.9,5.7,42.6,17.2c0.9,1.6,1.3,3.8,1.3,6.8c0,8.1-8.9,23.3-26.6,45.8
			c-8.4,14.1-19.8,26.6-33.9,37.5c-22.4,14.2-45.7,21.3-69.9,21.3h-96.5l-33.3,43.7h-61.2v-0.5C237.5,719.7,279.9,662.5,292,647.1z
			 M320.6,690.8L290,733.5h65.2c22.4,0,37.7-7.5,45.9-22.4c4-5.6,6-9.2,6-10.9c0-6.2-8.7-9.4-26-9.4L320.6,690.8L320.6,690.8z"/>
		<path class="st0" d="M536.7,646.1h147.8c27.7,0,43.9,6.8,48.6,20.3l0.7,3.6c0,7.6-9.5,23.8-28.6,48.4c-11,17.2-23,28.1-35.9,32.8
			l-17.3,3.1v0.5c8.9,0,14.2,3.3,16,9.9v1.6c0,3.4-10.7,19.2-32,47.4l-3.8,4.9h-63.8l31-42.9H506l-33.1,43.7H411
			c2.7-5.1,22.5-32.5,58.4-81.2C512.4,678.3,534.8,647.5,536.7,646.1z M537.3,733h52.6c30.1,0,47.6-5.4,52.6-16.1
			c6.7-9,10-14.9,10-17.7v-3.6c-2.7-3.5-8-5.2-16-5.2h-67.9L537.3,733z"/>
		<path class="st0" d="M932,647.1c23.9,0,39.2,5.6,45.9,16.7l1.3,6.2v1.6c0,7.4-8.4,21.8-25.3,43.2
			c-49.6,67.9-75.3,102.6-77.2,104.1h-61.2l30-42.7H751c-1.8,1.4-12.2,15.6-31.3,42.7l-0.7,0.5h-62.6v-0.5
			c60.8-83.7,94.1-128.8,99.9-135.3c17-14.6,30.5-23.4,40.6-26.5c12.8-5.5,26.1-8.6,39.9-9.4L932,647.1z M781.6,734h94.5
			c16-19.4,24-30.4,24-32.8v-2.1c0-5.6-7.5-8.3-22.6-8.3h-31.3c-24.6,0-42.3,11.4-56.6,31.7C784.6,729.6,781.6,733.1,781.6,734z"/>
		<path class="st0" d="M1024.7,646.1h189.7v1l-53.7,43.7h-53.4l-94.5,128.6h-61.9l-1.3-1l94.5-128h-70.5v-1L1024.7,646.1z"/>
		<path class="st0" d="M1295.5,648.2v1l-123.2,169.7l-0.7,0.5H1111l-0.7-0.5h-0.7l122.5-170.7H1295.5z"/>
		<path class="st0" d="M1407.7,647.1h130.2c0,0-31.9,43.7-33.7,43.7h-93.9c-24.9,0-44.8,12.5-59.9,37.5
			c-16.4,19.7-24.6,31.8-24.6,36.4v2.1c0,5.9,5.1,8.8,15.3,8.8h131.8l1.3,1c-2.7,2.8-12.9,16.8-30.6,42.2l-84.5,0.5h-70.6
			c-29.7,0-44.6-7.1-44.6-21.3v-1.6c0-9.7,6.9-22.7,20.6-39c32.2-44,51.9-70,59.2-78.1c13.8-13.8,35.1-23.9,63.9-30.2
			C1395.4,647.8,1402.1,647.1,1407.7,647.1z"/>
		<path class="st0" d="M1655.9,646.7h92.5c23,0,36.9,6.4,41.9,19.3l0.7,3.6c0,8.1-8.9,23.3-26.6,45.8
			c-29.4,41.6-47.2,65.5-53.3,71.8c-15.2,12.8-29.4,21.2-42.6,25c-12.4,4.5-30.6,6.8-54.6,6.8H1530c-19,0-31.6-4.7-37.9-14.1
			c-1.3-3.3-2-6.1-2-8.3c0-8.6,10.4-25.8,31.3-51.5c26-35.9,42.6-57.6,49.9-65.1C1596.8,657.8,1625,646.7,1655.9,646.7z M1575,765.4
			v1c0,5.9,5.8,8.8,17.3,8.8h37.9c22.6,0,40.6-11.8,53.9-35.4c17.3-21.8,26-35,26-39.6v-1.6c0-4.4-4.9-7-14.6-7.8h-40.6
			c-21.9,0-41.2,13.2-57.9,39.6C1582.3,748.8,1575,760.4,1575,765.4z"/>
		<polygon class="st0" points="1646.5,730.3 1640.9,730.3 1669.1,691.4 1674.7,691.4 		"/>
		<polygon class="st0" points="1677.8,725.5 1649.5,725.5 1646.5,730.3 1674.7,730.3 		"/>
		<path class="st1" d="M289.9,640.9h150.4c21.7,0,35.9,5.7,42.6,17.2c0.9,1.6,1.3,3.8,1.3,6.8c0,8.1-8.9,23.3-26.6,45.8
			c-8.4,14.1-19.8,26.6-33.9,37.5c-22.4,14.2-45.7,21.3-69.9,21.3h-96.5L224,813.2h-61.2v-0.5C235.5,713.5,277.9,656.2,289.9,640.9z
			 M318.6,684.6L288,727.3h65.2c22.4,0,37.7-7.5,45.9-22.4c4-5.6,6-9.2,6-10.9c0-6.2-8.7-9.4-26-9.4L318.6,684.6L318.6,684.6z"/>
		<path class="st1" d="M534.6,639.8h147.8c27.7,0,43.9,6.8,48.6,20.3l0.7,3.6c0,7.6-9.5,23.8-28.6,48.4c-11,17.2-23,28.1-35.9,32.8
			l-17.3,3.1v0.5c8.9,0,14.2,3.3,16,9.9v1.6c0,3.4-10.7,19.2-32,47.4l-3.8,4.9h-63.8l31-42.9H504l-33.1,43.7H409
			c2.7-5.1,22.5-32.5,58.4-81.2C510.3,672,532.8,641.3,534.6,639.8z M535.3,726.8h52.6c30.1,0,47.6-5.4,52.6-16.1
			c6.7-9,10-14.9,10-17.7v-3.6c-2.7-3.5-8-5.2-16-5.2h-67.9L535.3,726.8z"/>
		<path class="st1" d="M930,640.9c23.9,0,39.2,5.6,45.9,16.7l1.3,6.2v1.6c0,7.4-8.4,21.8-25.3,43.2
			c-49.6,67.9-75.3,102.6-77.2,104.1h-61.2l30-42.7H749c-1.8,1.4-12.2,15.6-31.3,42.7l-0.7,0.5h-62.6v-0.5
			c60.8-83.7,94.1-128.8,99.9-135.3c17-14.6,30.5-23.4,40.6-26.5c12.8-5.5,26.1-8.6,39.9-9.4L930,640.9z M779.5,727.8H874
			c16-19.4,24-30.4,24-32.8v-2.1c0-5.6-7.5-8.3-22.6-8.3h-31.3c-24.6,0-42.3,11.4-56.6,31.7C782.6,723.3,779.5,726.8,779.5,727.8z"
			/>
		<path class="st1" d="M1024,639.8h188.4v1l-53.7,43.7h-53.4l-94.5,128.6h-61.9l-1.3-1l99.3-128h-75.3v-1L1024,639.8z"/>
		<path class="st1" d="M1293.4,641.9v1l-123.2,169.7l-0.7,0.5H1109l-0.7-0.5h-0.7l122.5-170.7H1293.4z"/>
		<path class="st1" d="M1653.8,640.5h92.5c23,0,36.9,6.4,41.9,19.3l0.7,3.6c0,8.1-8.9,23.3-26.6,45.8
			c-29.4,41.6-47.2,65.5-53.3,71.8c-15.2,12.8-29.4,21.2-42.6,25c-12.4,4.5-30.6,6.8-54.6,6.8H1528c-19,0-31.6-4.7-37.9-14.1
			c-1.3-3.3-2-6.1-2-8.3c0-8.6,10.4-25.8,31.3-51.5c26-35.9,42.6-57.6,49.9-65.1C1594.8,651.6,1623,640.5,1653.8,640.5z M1573,759.2
			v1c0,5.9,5.8,8.8,17.3,8.8h37.9c22.6,0,40.6-11.8,53.9-35.4c17.3-21.8,26-35,26-39.6v-1.6c0-4.4-4.9-7-14.6-7.8h-40.6
			c-21.9,0-41.2,13.2-57.9,39.6C1580.3,742.6,1573,754.2,1573,759.2z"/>
		<path class="st1" d="M1405.6,640.9h130.2c0,0-31.9,43.7-33.7,43.7h-93.9c-24.9,0-44.8,12.5-59.9,37.5
			c-16.4,19.7-24.6,31.8-24.6,36.4v2.1c0,5.9,5.1,8.8,15.3,8.8h131.8l1.3,1c-2.7,2.8-12.9,16.8-30.6,42.2l-84.5,0.5h-70.6
			c-29.7,0-44.6-7.1-44.6-21.3v-1.6c0-9.7,6.9-22.7,20.6-39c32.2-44,51.9-70,59.2-78.1c13.8-13.8,35.1-23.9,63.9-30.2
			C1393.4,641.6,1400.1,640.9,1405.6,640.9z"/>
		<polygon class="st1" points="1643.1,726.9 1637.5,726.9 1665.7,688 1671.3,688 		"/>
		<polygon class="st1" points="1674.3,722.1 1646.1,722.1 1643.1,726.9 1671.3,726.9 		"/>
		
			<linearGradient id="SVGID_1_" gradientUnits="userSpaceOnUse" x1="405.4235" y1="650.1823" x2="295.6765" y2="840.2697" gradientTransform="matrix(1 0 0 -1 0 1311.276)">
			<stop  offset="0" style="stop-color:#E5342B;stop-opacity:0"/>
			<stop  offset="1" style="stop-color:#FAE804"/>
		</linearGradient>
		<polygon class="st2" points="440.4,640.9 289.9,640.9 260.7,491.2 411.2,491.2 		"/>
		
			<linearGradient id="SVGID_2_" gradientUnits="userSpaceOnUse" x1="1162.9728" y1="642.9392" x2="1037.8806" y2="859.6055" gradientTransform="matrix(1 0 0 -1 0 1311.276)">
			<stop  offset="0" style="stop-color:#E5342B;stop-opacity:0"/>
			<stop  offset="1" style="stop-color:#FAE804"/>
		</linearGradient>
		<polygon class="st3" points="1212.4,639.8 1024,639.8 987.6,480.7 1183.2,491.2 		"/>
		
			<linearGradient id="SVGID_3_" gradientUnits="userSpaceOnUse" x1="1021.3992" y1="657.0276" x2="937.8007" y2="801.8243" gradientTransform="matrix(1 0 0 -1 0 1311.276)">
			<stop  offset="0" style="stop-color:#E5342B;stop-opacity:0"/>
			<stop  offset="1" style="stop-color:#FAE804"/>
		</linearGradient>
		<polygon class="st4" points="1024,639.8 971.6,683 942,534.4 987.6,480.7 		"/>
		
			<linearGradient id="SVGID_4_" gradientUnits="userSpaceOnUse" x1="1039.911" y1="623.1986" x2="948.889" y2="780.8533" gradientTransform="matrix(1 0 0 -1 0 1311.276)">
			<stop  offset="0" style="stop-color:#E5342B;stop-opacity:0"/>
			<stop  offset="1" style="stop-color:#FAE804"/>
		</linearGradient>
		<polygon class="st5" points="1046.8,684.1 971.6,684.1 942,534.4 1017.2,534.4 		"/>
		
			<linearGradient id="SVGID_5_" gradientUnits="userSpaceOnUse" x1="818.0985" y1="660.5911" x2="739.5555" y2="796.6315" gradientTransform="matrix(1 0 0 -1 0 1311.276)">
			<stop  offset="0" style="stop-color:#E5342B;stop-opacity:0"/>
			<stop  offset="1" style="stop-color:#FAE804"/>
		</linearGradient>
		<path class="st6" d="M765.6,501.1c-10.1,3.1-23.6,11.9-40.5,26.5L754.2,677c17-14.6,30.5-23.4,40.6-26.5
			c12.8-5.5,26.1-8.6,39.9-9.4l-29.3-149.4C791.8,492.5,778.3,495.6,765.6,501.1z"/>
		
			<linearGradient id="SVGID_6_" gradientUnits="userSpaceOnUse" x1="742.7092" y1="549.0614" x2="636.6908" y2="732.6906" gradientTransform="matrix(1 0 0 -1 0 1311.276)">
			<stop  offset="0" style="stop-color:#E5342B;stop-opacity:0"/>
			<stop  offset="1" style="stop-color:#FAE804"/>
		</linearGradient>
		<polygon class="st7" points="754.2,677.3 654.4,813.2 625.2,663.4 725,527.6 		"/>
		
			<linearGradient id="SVGID_7_" gradientUnits="userSpaceOnUse" x1="860.086" y1="575.385" x2="764.314" y2="741.267" gradientTransform="matrix(1 0 0 -1 0 1311.276)">
			<stop  offset="0" style="stop-color:#E5342B;stop-opacity:0"/>
			<stop  offset="1" style="stop-color:#FAE804"/>
		</linearGradient>
		<polygon class="st8" points="874.1,727.8 779.5,727.8 750.3,578.1 844.9,578.1 		"/>
		
			<linearGradient id="SVGID_8_" gradientUnits="userSpaceOnUse" x1="915.6528" y1="662.0926" x2="819.9222" y2="827.9026" gradientTransform="matrix(1 0 0 -1 0 1311.276)">
			<stop  offset="0" style="stop-color:#E5342B;stop-opacity:0"/>
			<stop  offset="1" style="stop-color:#FAE804"/>
		</linearGradient>
		<polygon class="st9" points="930,640.9 834.8,641.4 805.5,491.7 900.8,491.2 		"/>
		
			<linearGradient id="SVGID_9_" gradientUnits="userSpaceOnUse" x1="759.7982" y1="522.7855" x2="676.9018" y2="666.3665" gradientTransform="matrix(1 0 0 -1 0 1311.276)">
			<stop  offset="0" style="stop-color:#E5342B;stop-opacity:0"/>
			<stop  offset="1" style="stop-color:#FAE804"/>
		</linearGradient>
		<polygon class="st10" points="748.9,770 717,813.2 687.8,663.4 719.7,620.2 		"/>
		
			<linearGradient id="SVGID_10_" gradientUnits="userSpaceOnUse" x1="1033.7614" y1="548.9791" x2="930.9387" y2="727.0729" gradientTransform="matrix(1 0 0 -1 0 1311.276)">
			<stop  offset="0" style="stop-color:#E5342B;stop-opacity:0"/>
			<stop  offset="1" style="stop-color:#FAE804"/>
		</linearGradient>
		<polygon class="st11" points="1046.8,684.1 947.5,812.1 918.3,663.4 1017.2,534.4 		"/>
		
			<linearGradient id="SVGID_11_" gradientUnits="userSpaceOnUse" x1="1097.1321" y1="547.9199" x2="994.0679" y2="726.4321" gradientTransform="matrix(1 0 0 -1 0 1311.276)">
			<stop  offset="0" style="stop-color:#E5342B;stop-opacity:0"/>
			<stop  offset="1" style="stop-color:#FAE804"/>
		</linearGradient>
		<polygon class="st12" points="1105.3,684.6 1010.8,813.2 981.5,663.4 1080.4,535 		"/>
		
			<linearGradient id="SVGID_12_" gradientUnits="userSpaceOnUse" x1="806.5276" y1="599.6494" x2="731.6724" y2="729.3026" gradientTransform="matrix(1 0 0 -1 0 1311.276)">
			<stop  offset="0" style="stop-color:#E5342B;stop-opacity:0"/>
			<stop  offset="1" style="stop-color:#FAE804"/>
		</linearGradient>
		<polygon class="st13" points="787.5,716.4 779.9,727 750.3,578.1 758.3,566.6 		"/>
		
			<linearGradient id="SVGID_13_" gradientUnits="userSpaceOnUse" x1="829.4451" y1="533.2191" x2="733.655" y2="699.1329" gradientTransform="matrix(1 0 0 -1 0 1311.276)">
			<stop  offset="0" style="stop-color:#E5342B;stop-opacity:0"/>
			<stop  offset="1" style="stop-color:#FAE804"/>
		</linearGradient>
		<polygon class="st14" points="843.4,770 748.9,770 719.7,620.2 814.2,620.2 		"/>
		
			<linearGradient id="SVGID_14_" gradientUnits="userSpaceOnUse" x1="715.0076" y1="496.9257" x2="627.1924" y2="649.0262" gradientTransform="matrix(1 0 0 -1 0 1311.276)">
			<stop  offset="0" style="stop-color:#E5342B;stop-opacity:0"/>
			<stop  offset="1" style="stop-color:#FAE804"/>
		</linearGradient>
		<polygon class="st15" points="717,813.2 654.4,813.2 625.2,663.4 687.8,663.4 		"/>
		
			<linearGradient id="SVGID_15_" gradientUnits="userSpaceOnUse" x1="1008.5076" y1="496.7525" x2="920.5174" y2="649.1562" gradientTransform="matrix(1 0 0 -1 0 1311.276)">
			<stop  offset="0" style="stop-color:#E5342B;stop-opacity:0"/>
			<stop  offset="1" style="stop-color:#FAE804"/>
		</linearGradient>
		<polygon class="st16" points="1010.8,813.2 947.5,813.2 918.3,663.4 981.5,663.4 		"/>
		
			<linearGradient id="SVGID_16_" gradientUnits="userSpaceOnUse" x1="1161.5018" y1="625.6956" x2="1076.0232" y2="773.749" gradientTransform="matrix(1 0 0 -1 0 1311.276)">
			<stop  offset="0" style="stop-color:#E5342B;stop-opacity:0"/>
			<stop  offset="1" style="stop-color:#FAE804"/>
		</linearGradient>
		<polygon class="st17" points="1163.2,684.6 1105.3,684.6 1080.4,535 1130.2,535 		"/>
		
			<linearGradient id="SVGID_17_" gradientUnits="userSpaceOnUse" x1="855.4183" y1="522.8776" x2="772.2817" y2="666.8745" gradientTransform="matrix(1 0 0 -1 0 1311.276)">
			<stop  offset="0" style="stop-color:#E5342B;stop-opacity:0"/>
			<stop  offset="1" style="stop-color:#FAE804"/>
		</linearGradient>
		<polygon class="st18" points="843.4,770 813.5,812.6 784.3,662.9 814.2,620.2 		"/>
		
			<linearGradient id="SVGID_18_" gradientUnits="userSpaceOnUse" x1="515.1032" y1="559.3347" x2="399.2968" y2="759.9172" gradientTransform="matrix(1 0 0 -1 0 1311.276)">
			<stop  offset="0" style="stop-color:#E5342B;stop-opacity:0"/>
			<stop  offset="1" style="stop-color:#FAE804"/>
		</linearGradient>
		<polygon class="st19" points="534.6,639.8 409,813.2 380.3,663.4 505.4,490.1 		"/>
		
			<linearGradient id="SVGID_19_" gradientUnits="userSpaceOnUse" x1="873.211" y1="497.8163" x2="785.789" y2="649.2357" gradientTransform="matrix(1 0 0 -1 0 1311.276)">
			<stop  offset="0" style="stop-color:#E5342B;stop-opacity:0"/>
			<stop  offset="1" style="stop-color:#FAE804"/>
		</linearGradient>
		<polygon class="st20" points="874.7,812.6 813.5,812.6 784.3,662.9 845.5,662.9 		"/>
		
			<linearGradient id="SVGID_20_" gradientUnits="userSpaceOnUse" x1="648.4359" y1="651.8669" x2="539.3641" y2="840.7852" gradientTransform="matrix(1 0 0 -1 0 1311.276)">
			<stop  offset="0" style="stop-color:#E5342B;stop-opacity:0"/>
			<stop  offset="1" style="stop-color:#FAE804"/>
		</linearGradient>
		<polygon class="st21" points="682.4,639.8 534.6,639.8 505.4,490.1 653.2,490.1 		"/>
		
			<linearGradient id="SVGID_21_" gradientUnits="userSpaceOnUse" x1="269.2276" y1="559.522" x2="154.2725" y2="758.63" gradientTransform="matrix(1 0 0 -1 0 1311.276)">
			<stop  offset="0" style="stop-color:#E5342B;stop-opacity:0"/>
			<stop  offset="1" style="stop-color:#FAE804"/>
		</linearGradient>
		<polygon class="st22" points="289.9,640.9 162.8,813.2 135.9,663 260.7,491.2 		"/>
		
			<linearGradient id="SVGID_22_" gradientUnits="userSpaceOnUse" x1="268.3806" y1="523.6991" x2="186.0194" y2="666.3529" gradientTransform="matrix(1 0 0 -1 0 1311.276)">
			<stop  offset="0" style="stop-color:#E5342B;stop-opacity:0"/>
			<stop  offset="1" style="stop-color:#FAE804"/>
		</linearGradient>
		<polygon class="st23" points="257.3,769.4 224,813.2 197.1,663 230.4,619.3 		"/>
		
			<linearGradient id="SVGID_23_" gradientUnits="userSpaceOnUse" x1="514.2565" y1="523.1078" x2="431.4435" y2="666.5441" gradientTransform="matrix(1 0 0 -1 0 1311.276)">
			<stop  offset="0" style="stop-color:#E5342B;stop-opacity:0"/>
			<stop  offset="1" style="stop-color:#FAE804"/>
		</linearGradient>
		<polygon class="st24" points="504,769.4 470.9,813.2 442.2,663 474.8,619.7 		"/>
		
			<linearGradient id="SVGID_24_" gradientUnits="userSpaceOnUse" x1="608.5741" y1="523.4407" x2="525.6259" y2="667.1113" gradientTransform="matrix(1 0 0 -1 0 1311.276)">
			<stop  offset="0" style="stop-color:#E5342B;stop-opacity:0"/>
			<stop  offset="1" style="stop-color:#FAE804"/>
		</linearGradient>
		<polygon class="st25" points="597.2,769.4 566.2,812.3 536.6,663.4 568,619.7 		"/>
		
			<linearGradient id="SVGID_25_" gradientUnits="userSpaceOnUse" x1="577.7433" y1="608.9807" x2="494.9567" y2="752.3713" gradientTransform="matrix(1 0 0 -1 0 1311.276)">
			<stop  offset="0" style="stop-color:#E5342B;stop-opacity:0"/>
			<stop  offset="1" style="stop-color:#FAE804"/>
		</linearGradient>
		<polygon class="st26" points="566.6,684.1 535.3,726.8 506.1,577 537.4,534.4 		"/>
		
			<linearGradient id="SVGID_26_" gradientUnits="userSpaceOnUse" x1="331.0891" y1="608.9112" x2="248.511" y2="751.9408" gradientTransform="matrix(1 0 0 -1 0 1311.276)">
			<stop  offset="0" style="stop-color:#E5342B;stop-opacity:0"/>
			<stop  offset="1" style="stop-color:#FAE804"/>
		</linearGradient>
		<polygon class="st27" points="318.6,684.6 287.9,727.3 261,577.1 291.7,534.4 		"/>
		
			<linearGradient id="SVGID_27_" gradientUnits="userSpaceOnUse" x1="378.8443" y1="626.5284" x2="291.9557" y2="777.0236" gradientTransform="matrix(1 0 0 -1 0 1311.276)">
			<stop  offset="0" style="stop-color:#E5342B;stop-opacity:0"/>
			<stop  offset="1" style="stop-color:#FAE804"/>
		</linearGradient>
		<polygon class="st28" points="379.1,684.6 318.6,684.6 291.7,534.4 352.2,534.4 		"/>
		
			<linearGradient id="SVGID_28_" gradientUnits="userSpaceOnUse" x1="583.711" y1="534.0881" x2="488.289" y2="699.3639" gradientTransform="matrix(1 0 0 -1 0 1311.276)">
			<stop  offset="0" style="stop-color:#E5342B;stop-opacity:0"/>
			<stop  offset="1" style="stop-color:#FAE804"/>
		</linearGradient>
		<polygon class="st29" points="597.2,769.4 504,769.4 474.8,619.7 568,619.7 		"/>
		
			<linearGradient id="SVGID_29_" gradientUnits="userSpaceOnUse" x1="630.4985" y1="624.8658" x2="541.4014" y2="779.1862" gradientTransform="matrix(1 0 0 -1 0 1311.276)">
			<stop  offset="0" style="stop-color:#E5342B;stop-opacity:0"/>
			<stop  offset="1" style="stop-color:#FAE804"/>
		</linearGradient>
		<polygon class="st30" points="634.5,684.1 566.6,684.1 537.4,534.4 605.3,534.4 		"/>
		
			<linearGradient id="SVGID_30_" gradientUnits="userSpaceOnUse" x1="589.6577" y1="585.4908" x2="503.9509" y2="733.9393" gradientTransform="matrix(1 0 0 -1 0 1311.276)">
			<stop  offset="0" style="stop-color:#E5342B;stop-opacity:0"/>
			<stop  offset="1" style="stop-color:#FAE804"/>
		</linearGradient>
		<polygon class="st31" points="587.9,726.8 535.3,726.8 505.4,576.5 558.7,577 		"/>
		
			<linearGradient id="SVGID_31_" gradientUnits="userSpaceOnUse" x1="350.1952" y1="582.2411" x2="261.7048" y2="735.5109" gradientTransform="matrix(1 0 0 -1 0 1311.276)">
			<stop  offset="0" style="stop-color:#E5342B;stop-opacity:0"/>
			<stop  offset="1" style="stop-color:#FAE804"/>
		</linearGradient>
		<polygon class="st32" points="353.2,727.3 287.9,727.3 258.7,577.5 324,577.5 		"/>
		
			<linearGradient id="SVGID_32_" gradientUnits="userSpaceOnUse" x1="340.0851" y1="533.9" x2="244.2149" y2="699.952" gradientTransform="matrix(1 0 0 -1 0 1311.276)">
			<stop  offset="0" style="stop-color:#E5342B;stop-opacity:0"/>
			<stop  offset="1" style="stop-color:#FAE804"/>
		</linearGradient>
		<polygon class="st33" points="353.9,769.4 257.3,769.4 230.4,619.3 327,619.3 		"/>
		
			<linearGradient id="SVGID_33_" gradientUnits="userSpaceOnUse" x1="223.5684" y1="497.6268" x2="136.4182" y2="648.5752" gradientTransform="matrix(1 0 0 -1 0 1311.276)">
			<stop  offset="0" style="stop-color:#E5342B;stop-opacity:0"/>
			<stop  offset="1" style="stop-color:#FAE804"/>
		</linearGradient>
		<polygon class="st34" points="224,813.4 162.8,813.2 135.9,663 197.1,663 		"/>
		
			<linearGradient id="SVGID_34_" gradientUnits="userSpaceOnUse" x1="469.4443" y1="497.2355" x2="381.7557" y2="649.1165" gradientTransform="matrix(1 0 0 -1 0 1311.276)">
			<stop  offset="0" style="stop-color:#E5342B;stop-opacity:0"/>
			<stop  offset="1" style="stop-color:#FAE804"/>
		</linearGradient>
		<polygon class="st35" points="470.9,813.2 409,813.2 380.3,663 442.2,663 		"/>
		
			<linearGradient id="SVGID_35_" gradientUnits="userSpaceOnUse" x1="627.1754" y1="497.3452" x2="539.3497" y2="649.4635" gradientTransform="matrix(1 0 0 -1 0 1311.276)">
			<stop  offset="0" style="stop-color:#E5342B;stop-opacity:0"/>
			<stop  offset="1" style="stop-color:#FAE804"/>
		</linearGradient>
		<polygon class="st36" points="630,812.3 566.2,812.3 536.6,663.4 600.3,663.4 		"/>
		<path class="st1" d="M263,490.7h150.4c21.7,0,35.9,5.7,42.6,17.2c0.9,1.6,1.3,3.8,1.3,6.8c0,8.1-8.9,23.3-26.6,45.8
			c-8.4,14.1-19.8,26.6-33.9,37.5c-22.4,14.2-45.7,21.3-69.9,21.3h-96.5L197.1,663h-61.2l-6.5-9.5L263,490.7z M291.7,534.4
			L261,577.1h65.2c22.4,0,37.7-7.5,45.9-22.4c4-5.6,6-9.2,6-10.9c0-6.2-8.7-9.4-26-9.4L291.7,534.4L291.7,534.4z"/>
		<path class="st1" d="M505.5,490.2h147.8c27.7,0,43.9,6.8,48.6,20.3l0.7,3.6c0,7.6-9.5,23.8-28.6,48.4c-11,17.2-23,28.1-35.9,32.8
			l-17.3,3.1v0.5c8.9,0,14.2,3.3,16,9.9v1.6c0,3.4-10.7,19.2-32,47.4l-4.3,5.7h-63.7l-6.5-9.5l37.9-34.2H475L442.2,663h-61.9
			l-6.5-9.5C373.8,653.5,503.6,491.7,505.5,490.2z M506.1,577.1h52.6c30.1,0,47.6-5.4,52.6-16.1c6.7-9,10-14.9,10-17.7v-3.6
			c-2.7-3.5-8-5.2-16-5.2h-67.9L506.1,577.1z"/>
		<path class="st1" d="M900.8,491.2c23.9,0,39.2,5.6,45.9,16.7l1.3,6.2v1.6c0,7.4-8.4,21.8-25.3,43.2
			c-49.6,67.9-75.3,102.6-77.2,104.1h-61.2l-6.5-9.5l36.4-33.1h-94.5l-32,43.2h-62.6l-6.5-9.5c56.7-78,100.8-120,106.3-126.3
			c17-14.6,30.5-23.4,40.6-26.5c12.8-5.5,26.1-8.6,39.9-9.4L900.8,491.2z M750.4,578.2h94.5c16-19.4,24-30.4,24-32.8v-2.1
			c0-5.6-7.5-8.3-22.6-8.3H815c-24.6,0-42.3,11.4-56.6,31.7C753.4,573.7,750.4,577.2,750.4,578.2z"/>
		<path class="st1" d="M987.6,480.7h189.1l6.5,9.5v1l-53,43.7h-49.8l-98.8,128.6h-61.9l-1.3-1l-6.5-9.5l105.3-118.5H942l-6.5-9.5
			L987.6,480.7z"/>
		<path class="st1" d="M1282.5,491.2h92.5c23,0,36.9,6.4,41.9,19.3l0.7,3.6c0,8.1-8.9,23.3-26.6,45.8
			c-29.4,41.6-47.2,65.5-53.3,71.8c-15.2,12.8-29.4,21.2-42.6,25c-12.4,4.5-30.6,6.8-54.6,6.8h-83.9c-19,0-31.6-4.7-37.9-14.1
			c-1.3-3.3-2-6.1-2-8.3c0-8.6,10.4-25.8,31.3-51.5c26-35.9,42.6-57.6,49.9-65.1C1223.4,502.3,1251.6,491.2,1282.5,491.2z
			 M1201.6,609.9v1c0,5.9,5.8,8.8,17.3,8.8h37.9c22.6,0,40.6-11.8,53.9-35.4c17.3-21.8,26-35,26-39.6v-1.6c0-4.4-4.9-7-14.6-7.8
			h-40.6c-21.9,0-41.2,13.2-57.9,39.6C1208.9,593.3,1201.6,605,1201.6,609.9z"/>
		<path class="st0" d="M256.6,481.2H407c21.7,0,35.9,5.7,42.6,17.2c0.9,1.6,1.3,3.8,1.3,6.8c0,8.1-8.9,23.3-26.6,45.8
			c-8.4,14.1-19.8,26.6-33.9,37.5c-22.4,14.2-45.7,21.3-69.9,21.3H224l-33.3,43.7h-61.2C129.4,653.5,244.7,496.2,256.6,481.2z
			 M285.2,524.9l-30.6,42.7h65.2c22.4,0,37.7-7.5,45.9-22.4c4-5.6,6-9.2,6-10.9c0-6.2-8.7-9.4-26-9.4L285.2,524.9L285.2,524.9z"/>
		<path class="st0" d="M499,480.7h147.8c27.7,0,43.9,6.8,48.6,20.3l0.7,3.6c0,7.6-9.5,23.8-28.6,48.4c-11,17.2-23,28.1-35.9,32.8
			l-17.3,3.1v0.5c8.9,0,14.2,3.3,16,9.9v1.6c0,3.4-10.7,19.2-32,47.4L594,654h-63.7l31.4-43.7h-93.2l-32.6,43.2H374
			c2.7-5.1,22-32,57.9-80.7C474.7,512.8,497.1,482.1,499,480.7z M499.6,567.6h52.6c30.1,0,47.6-5.4,52.6-16.1c6.7-9,10-14.9,10-17.7
			v-3.6c-2.7-3.5-8-5.2-16-5.2h-67.9L499.6,567.6z"/>
		<path class="st0" d="M894.3,481.7c23.9,0,39.2,5.6,45.9,16.7l1.3,6.2v1.6c0,7.4-8.4,21.8-25.3,43.2
			C866.6,617.3,840.9,652,839,653.5h-61.2l30-42.7h-94.5c-1.8,1.4-12.2,15.6-31.3,42.7l-0.7,0.5h-62.6v-0.5
			c60.8-83.7,94.1-128.8,99.9-135.3c17-14.6,30.5-23.4,40.6-26.5c12.8-5.5,26.1-8.6,39.9-9.4L894.3,481.7z M743.9,568.6h94.5
			c16-19.4,24-30.4,24-32.8v-2.1c0-5.6-7.5-8.3-22.6-8.3h-31.3c-24.6,0-42.3,11.4-56.6,31.7C746.9,564.2,743.9,567.7,743.9,568.6z"
			/>
		<path class="st0" d="M987.6,480.7h189.1v1l-54.2,43.7h-48.6L975.1,654h-61.9l-1.3-1l98.8-128h-75.1v-1L987.6,480.7z"/>
		<path class="st0" d="M1276,481.7h92.5c23,0,36.9,6.4,41.9,19.3l0.7,3.6c0,8.1-8.9,23.3-26.6,45.8c-29.4,41.6-47.2,65.5-53.3,71.8
			c-15.2,12.8-29.4,21.2-42.6,25c-12.4,4.5-30.6,6.8-54.6,6.8h-83.9c-19,0-31.6-4.7-37.9-14.1c-1.3-3.3-2-6.1-2-8.3
			c0-8.6,10.4-25.8,31.3-51.5c26-35.9,42.6-57.6,49.9-65.1C1216.9,492.8,1245.1,481.7,1276,481.7z M1195.1,600.4v1
			c0,5.9,5.8,8.8,17.3,8.8h37.9c22.6,0,40.6-11.8,53.9-35.4c17.3-21.8,26-35,26-39.6v-1.6c0-4.4-4.9-7-14.6-7.8H1275
			c-21.9,0-41.2,13.2-57.9,39.6C1202.4,583.8,1195.1,595.4,1195.1,600.4z"/>
	</g>
</g>
</svg>
