<?xml version="1.0" encoding="utf-8"?>
<!-- Generator: Adobe Illustrator 22.0.1, SVG Export Plug-In . SVG Version: 6.00 Build 0)  -->
<svg version="1.1" id="Camada_1" xmlns="http://www.w3.org/2000/svg" xmlns:xlink="http://www.w3.org/1999/xlink" x="0px" y="0px"
	 viewBox="0 0 1920 1312" style="enable-background:new 0 0 1920 1312;" xml:space="preserve">
<style type="text/css">
	.st0{fill:#FFFFFF;}
	.st1{fill:#999999;}
	.st2{opacity:0.2;fill:url(#SVGID_1_);enable-background:new    ;}
	.st3{opacity:0.2;fill:url(#SVGID_2_);enable-background:new    ;}
	.st4{opacity:0.2;fill:url(#SVGID_3_);enable-background:new    ;}
	.st5{opacity:0.2;fill:url(#SVGID_4_);enable-background:new    ;}
	.st6{opacity:0.2;fill:url(#SVGID_5_);enable-background:new    ;}
	.st7{opacity:0.2;fill:url(#SVGID_6_);enable-background:new    ;}
	.st8{opacity:0.2;fill:url(#SVGID_7_);enable-background:new    ;}
	.st9{opacity:0.2;fill:url(#SVGID_8_);enable-background:new    ;}
	.st10{opacity:0.2;fill:url(#SVGID_9_);enable-background:new    ;}
	.st11{opacity:0.2;fill:url(#SVGID_10_);enable-background:new    ;}
	.st12{opacity:0.2;fill:url(#SVGID_11_);enable-background:new    ;}
	.st13{opacity:0.2;fill:url(#SVGID_12_);enable-background:new    ;}
	.st14{opacity:0.2;fill:url(#SVGID_13_);enable-background:new    ;}
	.st15{opacity:0.2;fill:url(#SVGID_14_);enable-background:new    ;}
	.st16{opacity:0.2;fill:url(#SVGID_15_);enable-background:new    ;}
	.st17{opacity:0.2;fill:url(#SVGID_16_);enable-background:new    ;}
	.st18{opacity:0.2;fill:url(#SVGID_17_);enable-background:new    ;}
	.st19{opacity:0.2;fill:url(#SVGID_18_);enable-background:new    ;}
	.st20{opacity:0.2;fill:url(#SVGID_19_);enable-background:new    ;}
	.st21{opacity:0.2;fill:url(#SVGID_20_);enable-background:new    ;}
	.st22{opacity:0.2;fill:url(#SVGID_21_);enable-background:new    ;}
	.st23{opacity:0.2;fill:url(#SVGID_22_);enable-background:new    ;}
	.st24{opacity:0.2;fill:url(#SVGID_23_);enable-background:new    ;}
	.st25{opacity:0.2;fill:url(#SVGID_24_);enable-background:new    ;}
	.st26{opacity:0.2;fill:url(#SVGID_25_);enable-background:new    ;}
	.st27{opacity:0.2;fill:url(#SVGID_26_);enable-background:new    ;}
	.st28{opacity:0.2;fill:url(#SVGID_27_);enable-background:new    ;}
	.st29{opacity:0.2;fill:url(#SVGID_28_);enable-background:new    ;}
	.st30{opacity:0.2;fill:url(#SVGID_29_);enable-background:new    ;}
	.st31{opacity:0.2;fill:url(#SVGID_30_);enable-background:new    ;}
	.st32{opacity:0.2;fill:url(#SVGID_31_);enable-background:new    ;}
	.st33{opacity:0.2;fill:url(#SVGID_32_);enable-background:new    ;}
	.st34{opacity:0.2;fill:url(#SVGID_33_);enable-background:new    ;}
	.st35{opacity:0.2;fill:url(#SVGID_34_);enable-background:new    ;}
	.st36{opacity:0.2;fill:url(#SVGID_35_);enable-background:new    ;}
</style>
<g id="Prato_Pratico">
	<g>
		<path class="st0" d="M292.2,651.9h150.6c21.8,0,36,5.7,42.7,17.2c0.9,1.6,1.3,3.8,1.3,6.8c0,8.1-8.9,23.4-26.7,45.9
			c-8.4,14.2-19.8,26.7-34,37.5c-22.4,14.2-45.8,21.4-70,21.4h-96.6l-33.3,43.8h-61.3V824C237.6,724.6,280,667.2,292.2,651.9z
			 M320.8,695.6l-30.7,42.7h65.3c22.4,0,37.8-7.5,46-22.4c4-5.6,6-9.2,6-10.9c0-6.3-8.7-9.4-26-9.4L320.8,695.6L320.8,695.6z"/>
		<path class="st0" d="M537.2,650.8h148c27.8,0,44,6.8,48.7,20.3l0.7,3.6c0,7.6-9.6,23.8-28.7,48.5c-11,17.2-23,28.1-36,32.8
			l-17.3,3.1v0.5c8.9,0,14.2,3.3,16,9.9v1.6c0,3.4-10.7,19.2-32,47.4l-3.8,4.9h-63.9l31.1-43h-93.3l-33.2,43.8h-62
			c2.7-5.1,22.5-32.6,58.5-81.3C512.8,683,535.3,652.3,537.2,650.8z M537.8,737.8h52.7c30.1,0,47.7-5.4,52.7-16.2
			c6.7-9,10-14.9,10-17.7v-3.6c-2.7-3.5-8-5.2-16-5.2h-68L537.8,737.8z"/>
		<path class="st0" d="M933,651.9c23.9,0,39.2,5.6,46,16.7l1.3,6.3v1.6c0,7.4-8.4,21.8-25.3,43.3c-49.7,68-75.4,102.7-77.3,104.2
			h-61.3l30-42.7h-94.6c-1.8,1.4-12.2,15.6-31.3,42.7l-0.7,0.5H657V824c60.9-83.8,94.2-129,100-135.5c17-14.6,30.5-23.4,40.7-26.6
			c12.8-5.5,26.1-8.6,40-9.4L933,651.9z M782.3,738.9H877c16-19.5,24-30.4,24-32.8V704c0-5.6-7.6-8.3-22.7-8.3H847
			c-24.7,0-42.3,11.4-56.7,31.8C785.4,734.4,782.3,737.9,782.3,738.9z"/>
		<path class="st0" d="M1025.8,650.8h189.9v1l-53.8,43.8h-53.4l-94.6,128.7h-62l-1.3-1l94.6-128.2h-70.6v-1L1025.8,650.8z"/>
		<path class="st0" d="M1296.9,652.9v1l-123.3,169.9l-0.7,0.5h-60.7l-0.7-0.5h-0.7l122.6-170.9H1296.9z"/>
		<path class="st0" d="M1409.2,651.9h130.4c0,0-32,43.8-33.7,43.8h-94c-24.9,0-44.9,12.5-60,37.5c-16.4,19.7-24.7,31.9-24.7,36.5
			v2.1c0,5.9,5.1,8.9,15.3,8.9h132l1.3,1c-2.7,2.8-12.9,16.8-30.7,42.2l-84.6,0.5h-70.6c-29.8,0-44.7-7.1-44.7-21.4v-1.6
			c0-9.7,6.9-22.8,20.7-39.1c32.2-44,52-70.1,59.3-78.2c13.8-13.8,35.1-23.9,64-30.2C1397,652.6,1403.6,651.9,1409.2,651.9z"/>
		<path class="st0" d="M1657.7,651.5h92.6c23,0,37,6.4,42,19.3l0.7,3.6c0,8.1-8.9,23.4-26.7,45.9c-29.4,41.6-47.2,65.6-53.3,71.9
			c-15.2,12.9-29.4,21.2-42.7,25c-12.4,4.5-30.7,6.8-54.7,6.8h-84c-19,0-31.7-4.7-38-14.1c-1.3-3.3-2-6.1-2-8.3
			c0-8.6,10.4-25.8,31.3-51.6c26-36,42.7-57.7,50-65.1C1598.6,662.6,1626.8,651.5,1657.7,651.5z M1576.7,770.3v1
			c0,5.9,5.8,8.9,17.3,8.9h38c22.7,0,40.7-11.8,54-35.4c17.3-21.8,26-35,26-39.6v-1.6c0-4.4-4.9-7-14.7-7.8h-40.7
			c-21.9,0-41.2,13.2-58,39.6C1584.1,753.7,1576.7,765.3,1576.7,770.3z"/>
		<polygon class="st0" points="1648.3,735.2 1642.7,735.2 1671,696.2 1676.6,696.2 		"/>
		<polygon class="st0" points="1679.6,730.3 1651.4,730.3 1648.3,735.2 1676.6,735.2 		"/>
		<path class="st1" d="M290.1,645.6h150.6c21.8,0,36,5.7,42.7,17.2c0.9,1.6,1.3,3.8,1.3,6.8c0,8.1-8.9,23.4-26.7,45.9
			c-8.4,14.2-19.8,26.7-34,37.5c-22.4,14.2-45.8,21.4-70,21.4h-96.6l-33.3,43.8h-61.3v-0.5C235.6,718.3,278,661,290.1,645.6z
			 M318.8,689.4l-30.7,42.7h65.3c22.4,0,37.8-7.5,46-22.4c4-5.6,6-9.2,6-10.9c0-6.3-8.7-9.4-26-9.4L318.8,689.4L318.8,689.4z"/>
		<path class="st1" d="M535.1,644.6h148c27.8,0,44,6.8,48.7,20.3l0.7,3.6c0,7.6-9.6,23.8-28.7,48.5c-11,17.2-23,28.1-36,32.8
			l-17.3,3.1v0.5c8.9,0,14.2,3.3,16,9.9v1.6c0,3.4-10.7,19.2-32,47.4l-3.8,4.9h-63.9l31.1-43h-93.3L471.4,818h-62
			c2.7-5.1,22.5-32.6,58.5-81.3C510.8,676.8,533.2,646.1,535.1,644.6z M535.8,731.6h52.7c30.1,0,47.7-5.4,52.7-16.2
			c6.7-9,10-14.9,10-17.7v-3.6c-2.7-3.5-8-5.2-16-5.2h-68L535.8,731.6z"/>
		<path class="st1" d="M931,645.6c23.9,0,39.2,5.6,46,16.7l1.3,6.3v1.6c0,7.4-8.4,21.8-25.3,43.3c-49.7,68-75.4,102.7-77.3,104.2
			h-61.3l30-42.7h-94.6c-1.8,1.4-12.2,15.6-31.3,42.7l-0.7,0.5H655v-0.5c60.9-83.8,94.2-129,100-135.5c17-14.6,30.5-23.4,40.7-26.6
			c12.8-5.5,26.1-8.6,40-9.4L931,645.6z M780.3,732.7H875c16-19.5,24-30.4,24-32.8v-2.1c0-5.6-7.6-8.3-22.7-8.3H845
			c-24.7,0-42.3,11.4-56.7,31.8C783.4,728.2,780.3,731.7,780.3,732.7z"/>
		<path class="st1" d="M1025,644.6h188.7v1l-53.8,43.8h-53.4l-94.6,128.7h-62l-1.3-1l99.4-128.2h-75.3v-1L1025,644.6z"/>
		<path class="st1" d="M1294.9,646.7v1l-123.3,169.9l-0.7,0.5h-60.7l-0.7-0.5h-0.7l122.6-170.9L1294.9,646.7L1294.9,646.7z"/>
		<path class="st1" d="M1655.7,645.2h92.6c23,0,37,6.4,42,19.3l0.7,3.6c0,8.1-8.9,23.4-26.7,45.9c-29.4,41.6-47.2,65.6-53.3,71.9
			c-15.2,12.9-29.4,21.2-42.7,25c-12.4,4.5-30.7,6.8-54.7,6.8h-84c-19,0-31.7-4.7-38-14.1c-1.3-3.3-2-6.1-2-8.3
			c0-8.6,10.4-25.8,31.3-51.6c26-36,42.7-57.7,50-65.1C1596.6,656.3,1624.8,645.2,1655.7,645.2z M1574.7,764v1
			c0,5.9,5.8,8.9,17.3,8.9h38c22.7,0,40.7-11.8,54-35.4c17.3-21.8,26-35,26-39.6v-1.6c0-4.4-4.9-7-14.7-7.8h-40.7
			c-21.9,0-41.2,13.2-58,39.6C1582,747.5,1574.7,759.1,1574.7,764z"/>
		<path class="st1" d="M1407.2,645.6h130.4c0,0-32,43.8-33.7,43.8h-94c-24.9,0-44.9,12.5-60,37.5c-16.4,19.7-24.7,31.9-24.7,36.5
			v2.1c0,5.9,5.1,8.9,15.3,8.9h132l1.3,1c-2.7,2.8-12.9,16.8-30.7,42.2l-84.6,0.5h-70.6c-29.8,0-44.7-7.1-44.7-21.4v-1.6
			c0-9.7,6.9-22.8,20.7-39.1c32.2-44,52-70.1,59.3-78.2c13.8-13.8,35.1-23.9,64-30.2C1395,646.3,1401.6,645.6,1407.2,645.6z"/>
		<polygon class="st1" points="1644.9,731.7 1639.3,731.7 1667.5,692.8 1673.1,692.8 		"/>
		<polygon class="st1" points="1676.2,726.9 1647.9,726.9 1644.9,731.7 1673.1,731.7 		"/>
		
			<linearGradient id="SVGID_1_" gradientUnits="userSpaceOnUse" x1="405.7543" y1="645.4424" x2="295.8707" y2="835.7664" gradientTransform="matrix(1 0 0 -1 0 1311.276)">
			<stop  offset="0" style="stop-color:#686868;stop-opacity:0"/>
			<stop  offset="1" style="stop-color:#D4D4D4"/>
		</linearGradient>
		<polygon class="st2" points="440.8,645.6 290.1,645.6 260.9,495.7 411.5,495.7 		"/>
		
			<linearGradient id="SVGID_2_" gradientUnits="userSpaceOnUse" x1="1164.2036" y1="638.0993" x2="1038.9314" y2="855.0771" gradientTransform="matrix(1 0 0 -1 0 1311.276)">
			<stop  offset="0" style="stop-color:#686868;stop-opacity:0"/>
			<stop  offset="1" style="stop-color:#D4D4D4"/>
		</linearGradient>
		<polygon class="st3" points="1213.7,644.6 1025,644.6 988.7,485.2 1184.5,495.8 		"/>
		
			<linearGradient id="SVGID_3_" gradientUnits="userSpaceOnUse" x1="1022.5016" y1="652.2867" x2="938.7983" y2="797.2653" gradientTransform="matrix(1 0 0 -1 0 1311.276)">
			<stop  offset="0" style="stop-color:#686868;stop-opacity:0"/>
			<stop  offset="1" style="stop-color:#D4D4D4"/>
		</linearGradient>
		<polygon class="st4" points="1025,644.6 972.6,687.8 943,539 988.7,485.2 		"/>
		
			<linearGradient id="SVGID_4_" gradientUnits="userSpaceOnUse" x1="1040.9952" y1="618.3895" x2="949.8615" y2="776.2375" gradientTransform="matrix(1 0 0 -1 0 1311.276)">
			<stop  offset="0" style="stop-color:#686868;stop-opacity:0"/>
			<stop  offset="1" style="stop-color:#D4D4D4"/>
		</linearGradient>
		<polygon class="st5" points="1047.9,688.9 972.6,688.9 943,539 1018.3,539.1 		"/>
		
			<linearGradient id="SVGID_5_" gradientUnits="userSpaceOnUse" x1="819.0451" y1="655.8603" x2="740.3523" y2="792.1604" gradientTransform="matrix(1 0 0 -1 0 1311.276)">
			<stop  offset="0" style="stop-color:#686868;stop-opacity:0"/>
			<stop  offset="1" style="stop-color:#D4D4D4"/>
		</linearGradient>
		<path class="st6" d="M766.3,505.6c-10.1,3.1-23.6,12-40.6,26.6L755,681.8c17-14.6,30.5-23.4,40.7-26.6c12.8-5.5,26.1-8.6,40-9.4
			l-29.3-149.6C792.6,497.1,779.1,500.2,766.3,505.6z"/>
		
			<linearGradient id="SVGID_6_" gradientUnits="userSpaceOnUse" x1="743.4492" y1="544.2422" x2="637.3508" y2="728.0098" gradientTransform="matrix(1 0 0 -1 0 1311.276)">
			<stop  offset="0" style="stop-color:#686868;stop-opacity:0"/>
			<stop  offset="1" style="stop-color:#D4D4D4"/>
		</linearGradient>
		<polygon class="st7" points="755,682.1 655,818.1 625.8,668.2 725.8,532.2 		"/>
		
			<linearGradient id="SVGID_7_" gradientUnits="userSpaceOnUse" x1="860.976" y1="570.4792" x2="765.049" y2="736.6295" gradientTransform="matrix(1 0 0 -1 0 1311.276)">
			<stop  offset="0" style="stop-color:#686868;stop-opacity:0"/>
			<stop  offset="1" style="stop-color:#D4D4D4"/>
		</linearGradient>
		<polygon class="st8" points="875,732.7 780.3,732.7 751.1,582.7 845.7,582.7 		"/>
		
			<linearGradient id="SVGID_8_" gradientUnits="userSpaceOnUse" x1="916.5618" y1="657.3401" x2="820.7382" y2="823.3119" gradientTransform="matrix(1 0 0 -1 0 1311.276)">
			<stop  offset="0" style="stop-color:#686868;stop-opacity:0"/>
			<stop  offset="1" style="stop-color:#D4D4D4"/>
		</linearGradient>
		<polygon class="st9" points="931,645.6 835.6,646.2 806.3,496.3 901.7,495.7 		"/>
		
			<linearGradient id="SVGID_9_" gradientUnits="userSpaceOnUse" x1="760.5415" y1="517.9105" x2="677.5585" y2="661.6415" gradientTransform="matrix(1 0 0 -1 0 1311.276)">
			<stop  offset="0" style="stop-color:#686868;stop-opacity:0"/>
			<stop  offset="1" style="stop-color:#D4D4D4"/>
		</linearGradient>
		<polygon class="st10" points="749.7,774.9 717.7,818.1 688.4,668.2 720.4,624.9 		"/>
		
			<linearGradient id="SVGID_10_" gradientUnits="userSpaceOnUse" x1="1034.8638" y1="544.0382" x2="931.9362" y2="722.3138" gradientTransform="matrix(1 0 0 -1 0 1311.276)">
			<stop  offset="0" style="stop-color:#686868;stop-opacity:0"/>
			<stop  offset="1" style="stop-color:#D4D4D4"/>
		</linearGradient>
		<polygon class="st11" points="1047.9,688.9 948.5,817.1 919.3,668.2 1018.3,539.1 		"/>
		
			<linearGradient id="SVGID_11_" gradientUnits="userSpaceOnUse" x1="1098.272" y1="543.1007" x2="995.1279" y2="721.7513" gradientTransform="matrix(1 0 0 -1 0 1311.276)">
			<stop  offset="0" style="stop-color:#686868;stop-opacity:0"/>
			<stop  offset="1" style="stop-color:#D4D4D4"/>
		</linearGradient>
		<polygon class="st12" points="1106.5,689.4 1011.8,818.1 982.6,668.2 1081.6,539.6 		"/>
		
			<linearGradient id="SVGID_12_" gradientUnits="userSpaceOnUse" x1="807.3709" y1="594.7744" x2="732.4291" y2="724.5776" gradientTransform="matrix(1 0 0 -1 0 1311.276)">
			<stop  offset="0" style="stop-color:#686868;stop-opacity:0"/>
			<stop  offset="1" style="stop-color:#D4D4D4"/>
		</linearGradient>
		<polygon class="st13" points="788.3,721.2 780.7,731.9 751.1,582.7 759.1,571.3 		"/>
		
			<linearGradient id="SVGID_13_" gradientUnits="userSpaceOnUse" x1="830.351" y1="528.3225" x2="734.424" y2="694.4727" gradientTransform="matrix(1 0 0 -1 0 1311.276)">
			<stop  offset="0" style="stop-color:#686868;stop-opacity:0"/>
			<stop  offset="1" style="stop-color:#D4D4D4"/>
		</linearGradient>
		<polygon class="st14" points="844.3,774.9 749.7,774.9 720.4,624.9 815.1,624.9 		"/>
		
			<linearGradient id="SVGID_14_" gradientUnits="userSpaceOnUse" x1="715.6543" y1="491.9949" x2="627.7707" y2="644.2138" gradientTransform="matrix(1 0 0 -1 0 1311.276)">
			<stop  offset="0" style="stop-color:#686868;stop-opacity:0"/>
			<stop  offset="1" style="stop-color:#D4D4D4"/>
		</linearGradient>
		<polygon class="st15" points="717.7,818.1 655,818.1 625.8,668.2 688.4,668.2 		"/>
		
			<linearGradient id="SVGID_15_" gradientUnits="userSpaceOnUse" x1="1009.5667" y1="491.8867" x2="921.5333" y2="644.3654" gradientTransform="matrix(1 0 0 -1 0 1311.276)">
			<stop  offset="0" style="stop-color:#686868;stop-opacity:0"/>
			<stop  offset="1" style="stop-color:#D4D4D4"/>
		</linearGradient>
		<polygon class="st16" points="1011.8,818.1 948.5,818.1 919.3,668.2 982.6,668.2 		"/>
		
			<linearGradient id="SVGID_16_" gradientUnits="userSpaceOnUse" x1="1162.8076" y1="620.8989" x2="1077.2173" y2="769.1457" gradientTransform="matrix(1 0 0 -1 0 1311.276)">
			<stop  offset="0" style="stop-color:#686868;stop-opacity:0"/>
			<stop  offset="1" style="stop-color:#D4D4D4"/>
		</linearGradient>
		<polygon class="st17" points="1164.5,689.4 1106.5,689.4 1081.6,539.6 1131.5,539.6 		"/>
		
			<linearGradient id="SVGID_17_" gradientUnits="userSpaceOnUse" x1="856.3208" y1="517.9368" x2="773.0792" y2="662.1152" gradientTransform="matrix(1 0 0 -1 0 1311.276)">
			<stop  offset="0" style="stop-color:#686868;stop-opacity:0"/>
			<stop  offset="1" style="stop-color:#D4D4D4"/>
		</linearGradient>
		<polygon class="st18" points="844.3,774.9 814.3,817.6 785.1,667.7 815.1,624.9 		"/>
		
			<linearGradient id="SVGID_18_" gradientUnits="userSpaceOnUse" x1="515.5432" y1="554.5155" x2="399.6569" y2="755.2365" gradientTransform="matrix(1 0 0 -1 0 1311.276)">
			<stop  offset="0" style="stop-color:#686868;stop-opacity:0"/>
			<stop  offset="1" style="stop-color:#D4D4D4"/>
		</linearGradient>
		<polygon class="st19" points="535.1,644.6 409.3,818.1 380.6,668.2 505.9,494.7 		"/>
		
			<linearGradient id="SVGID_19_" gradientUnits="userSpaceOnUse" x1="874.1168" y1="492.8197" x2="786.5832" y2="644.4323" gradientTransform="matrix(1 0 0 -1 0 1311.276)">
			<stop  offset="0" style="stop-color:#686868;stop-opacity:0"/>
			<stop  offset="1" style="stop-color:#D4D4D4"/>
		</linearGradient>
		<polygon class="st20" points="875.6,817.6 814.3,817.6 785.1,667.7 846.4,667.7 		"/>
		
			<linearGradient id="SVGID_20_" gradientUnits="userSpaceOnUse" x1="649.0668" y1="647.0269" x2="539.8582" y2="836.1818" gradientTransform="matrix(1 0 0 -1 0 1311.276)">
			<stop  offset="0" style="stop-color:#686868;stop-opacity:0"/>
			<stop  offset="1" style="stop-color:#D4D4D4"/>
		</linearGradient>
		<polygon class="st21" points="683.1,644.6 535.1,644.6 505.9,494.7 653.8,494.7 		"/>
		
			<linearGradient id="SVGID_21_" gradientUnits="userSpaceOnUse" x1="269.3891" y1="554.7153" x2="154.3109" y2="754.0367" gradientTransform="matrix(1 0 0 -1 0 1311.276)">
			<stop  offset="0" style="stop-color:#686868;stop-opacity:0"/>
			<stop  offset="1" style="stop-color:#D4D4D4"/>
		</linearGradient>
		<polygon class="st22" points="290.1,645.6 162.8,818.1 135.9,667.8 260.9,495.7 		"/>
		
			<linearGradient id="SVGID_22_" gradientUnits="userSpaceOnUse" x1="268.5864" y1="518.8025" x2="186.1136" y2="661.6495" gradientTransform="matrix(1 0 0 -1 0 1311.276)">
			<stop  offset="0" style="stop-color:#686868;stop-opacity:0"/>
			<stop  offset="1" style="stop-color:#D4D4D4"/>
		</linearGradient>
		<polygon class="st23" points="257.5,774.3 224.2,818.1 197.2,667.8 230.5,624 		"/>
		
			<linearGradient id="SVGID_23_" gradientUnits="userSpaceOnUse" x1="514.6998" y1="518.2329" x2="431.8002" y2="661.8191" gradientTransform="matrix(1 0 0 -1 0 1311.276)">
			<stop  offset="0" style="stop-color:#686868;stop-opacity:0"/>
			<stop  offset="1" style="stop-color:#D4D4D4"/>
		</linearGradient>
		<polygon class="st24" points="504.5,774.3 471.3,818.1 442.6,667.8 475.2,624.4 		"/>
		
			<linearGradient id="SVGID_24_" gradientUnits="userSpaceOnUse" x1="609.1391" y1="518.4783" x2="526.0609" y2="662.3737" gradientTransform="matrix(1 0 0 -1 0 1311.276)">
			<stop  offset="0" style="stop-color:#686868;stop-opacity:0"/>
			<stop  offset="1" style="stop-color:#D4D4D4"/>
		</linearGradient>
		<polygon class="st25" points="597.8,774.3 566.7,817.3 537.1,668.2 568.5,624.4 		"/>
		
			<linearGradient id="SVGID_25_" gradientUnits="userSpaceOnUse" x1="578.2866" y1="604.2057" x2="495.4134" y2="747.7463" gradientTransform="matrix(1 0 0 -1 0 1311.276)">
			<stop  offset="0" style="stop-color:#686868;stop-opacity:0"/>
			<stop  offset="1" style="stop-color:#D4D4D4"/>
		</linearGradient>
		<polygon class="st26" points="567.1,688.9 535.8,731.6 506.6,581.7 537.9,539 		"/>
		
			<linearGradient id="SVGID_26_" gradientUnits="userSpaceOnUse" x1="331.3107" y1="604.1237" x2="248.6893" y2="747.2283" gradientTransform="matrix(1 0 0 -1 0 1311.276)">
			<stop  offset="0" style="stop-color:#686868;stop-opacity:0"/>
			<stop  offset="1" style="stop-color:#D4D4D4"/>
		</linearGradient>
		<polygon class="st27" points="318.8,689.4 288.1,732.1 261.2,581.8 291.9,539.1 		"/>
		
			<linearGradient id="SVGID_27_" gradientUnits="userSpaceOnUse" x1="379.1284" y1="621.7192" x2="292.1716" y2="772.3328" gradientTransform="matrix(1 0 0 -1 0 1311.276)">
			<stop  offset="0" style="stop-color:#686868;stop-opacity:0"/>
			<stop  offset="1" style="stop-color:#D4D4D4"/>
		</linearGradient>
		<polygon class="st28" points="379.4,689.4 318.8,689.4 291.9,539.1 352.5,539.1 		"/>
		
			<linearGradient id="SVGID_28_" gradientUnits="userSpaceOnUse" x1="584.2793" y1="529.1699" x2="488.7207" y2="694.6821" gradientTransform="matrix(1 0 0 -1 0 1311.276)">
			<stop  offset="0" style="stop-color:#686868;stop-opacity:0"/>
			<stop  offset="1" style="stop-color:#D4D4D4"/>
		</linearGradient>
		<polygon class="st29" points="597.8,774.3 504.5,774.3 475.2,624.4 568.5,624.4 		"/>
		
			<linearGradient id="SVGID_29_" gradientUnits="userSpaceOnUse" x1="631.1043" y1="620.0691" x2="541.8957" y2="774.5829" gradientTransform="matrix(1 0 0 -1 0 1311.276)">
			<stop  offset="0" style="stop-color:#686868;stop-opacity:0"/>
			<stop  offset="1" style="stop-color:#D4D4D4"/>
		</linearGradient>
		<polygon class="st30" points="635.1,688.9 567.1,688.9 537.9,539 605.9,539 		"/>
		
			<linearGradient id="SVGID_30_" gradientUnits="userSpaceOnUse" x1="590.2042" y1="580.66" x2="504.4293" y2="729.2269" gradientTransform="matrix(1 0 0 -1 0 1311.276)">
			<stop  offset="0" style="stop-color:#686868;stop-opacity:0"/>
			<stop  offset="1" style="stop-color:#D4D4D4"/>
		</linearGradient>
		<polygon class="st31" points="588.5,731.6 535.8,731.6 505.9,581.2 559.2,581.7 		"/>
		
			<linearGradient id="SVGID_31_" gradientUnits="userSpaceOnUse" x1="350.4418" y1="577.4104" x2="261.8832" y2="730.7983" gradientTransform="matrix(1 0 0 -1 0 1311.276)">
			<stop  offset="0" style="stop-color:#686868;stop-opacity:0"/>
			<stop  offset="1" style="stop-color:#D4D4D4"/>
		</linearGradient>
		<polygon class="st32" points="353.5,732.1 288.1,732.1 258.9,582.2 324.2,582.2 		"/>
		
			<linearGradient id="SVGID_32_" gradientUnits="userSpaceOnUse" x1="340.3284" y1="529.025" x2="244.3466" y2="695.2703" gradientTransform="matrix(1 0 0 -1 0 1311.276)">
			<stop  offset="0" style="stop-color:#686868;stop-opacity:0"/>
			<stop  offset="1" style="stop-color:#D4D4D4"/>
		</linearGradient>
		<polygon class="st33" points="354.1,774.3 257.5,774.3 230.5,624 327.2,624 		"/>
		
			<linearGradient id="SVGID_33_" gradientUnits="userSpaceOnUse" x1="223.6775" y1="492.6743" x2="136.4341" y2="643.7844" gradientTransform="matrix(1 0 0 -1 0 1311.276)">
			<stop  offset="0" style="stop-color:#686868;stop-opacity:0"/>
			<stop  offset="1" style="stop-color:#D4D4D4"/>
		</linearGradient>
		<polygon class="st34" points="224.2,818.3 162.8,818.1 135.9,667.8 197.2,667.8 		"/>
		
			<linearGradient id="SVGID_34_" gradientUnits="userSpaceOnUse" x1="469.8284" y1="492.3264" x2="382.0716" y2="644.3256" gradientTransform="matrix(1 0 0 -1 0 1311.276)">
			<stop  offset="0" style="stop-color:#686868;stop-opacity:0"/>
			<stop  offset="1" style="stop-color:#D4D4D4"/>
		</linearGradient>
		<polygon class="st35" points="471.3,818.1 409.3,818.1 380.6,667.8 442.6,667.8 		"/>
		
			<linearGradient id="SVGID_35_" gradientUnits="userSpaceOnUse" x1="627.7812" y1="492.3486" x2="539.8439" y2="644.6602" gradientTransform="matrix(1 0 0 -1 0 1311.276)">
			<stop  offset="0" style="stop-color:#686868;stop-opacity:0"/>
			<stop  offset="1" style="stop-color:#D4D4D4"/>
		</linearGradient>
		<polygon class="st36" points="630.6,817.3 566.7,817.3 537.1,668.2 600.9,668.2 		"/>
		<path class="st1" d="M263.2,495.3h150.6c21.8,0,36,5.7,42.7,17.2c0.9,1.6,1.3,3.8,1.3,6.8c0,8.1-8.9,23.4-26.7,45.9
			c-8.4,14.2-19.8,26.7-34,37.5c-22.4,14.2-45.8,21.4-70,21.4h-96.6l-33.3,43.8h-61.3l-6.5-9.5L263.2,495.3z M291.9,539.1
			l-30.7,42.7h65.3c22.4,0,37.8-7.5,46-22.4c4-5.6,6-9.2,6-10.9c0-6.3-8.7-9.4-26-9.4L291.9,539.1L291.9,539.1z"/>
		<path class="st1" d="M505.9,494.8h148c27.8,0,44,6.8,48.7,20.3l0.7,3.6c0,7.6-9.6,23.8-28.7,48.5c-11,17.2-23,28.1-36,32.8
			l-17.3,3.1v0.5c8.9,0,14.2,3.3,16,9.9v1.6c0,3.4-10.7,19.2-32,47.4l-4.3,5.7h-63.8l-6.5-9.5l37.9-34.2h-93.3l-32.7,43.3h-62
			l-6.5-9.5C374.1,658.2,504,496.2,505.9,494.8z M506.6,581.8h52.7c30.1,0,47.7-5.4,52.7-16.2c6.7-9,10-14.9,10-17.7v-3.6
			c-2.7-3.5-8-5.2-16-5.2h-68L506.6,581.8z"/>
		<path class="st1" d="M901.7,495.8c23.9,0,39.2,5.6,46,16.7l1.3,6.3v1.6c0,7.4-8.4,21.8-25.3,43.3c-49.7,68-75.4,102.7-77.3,104.2
			h-61.3l-6.5-9.5l36.5-33.2h-94.6l-32,43.3h-62.6l-6.5-9.5c56.8-78.1,100.9-120.2,106.5-126.5c17-14.6,30.5-23.4,40.7-26.6
			c12.8-5.5,26.1-8.6,40-9.4L901.7,495.8z M751.1,582.8h94.6c16-19.5,24-30.4,24-32.8v-2.1c0-5.6-7.6-8.3-22.7-8.3h-31.3
			c-24.7,0-42.3,11.4-56.7,31.8C754.2,578.4,751.1,581.9,751.1,582.8z"/>
		<path class="st1" d="M988.7,485.2H1178l6.5,9.5v1l-53,43.8h-49.9l-99,128.7h-62l-1.3-1l-6.5-9.5l105.5-118.6H943l-6.5-9.5
			L988.7,485.2z"/>
		<path class="st1" d="M1283.9,495.8h92.6c23,0,37,6.4,42,19.3l0.7,3.6c0,8.1-8.9,23.4-26.7,45.9c-29.4,41.6-47.2,65.6-53.3,71.9
			c-15.2,12.9-29.4,21.2-42.7,25c-12.4,4.5-30.7,6.8-54.7,6.8h-84c-19,0-31.7-4.7-38-14.1c-1.3-3.3-2-6.1-2-8.3
			c0-8.6,10.4-25.8,31.3-51.6c26-36,42.7-57.7,50-65.1C1224.8,506.9,1253,495.8,1283.9,495.8z M1202.9,614.6v1
			c0,5.9,5.8,8.9,17.3,8.9h38c22.7,0,40.7-11.8,54-35.4c17.3-21.8,26-35,26-39.6v-1.6c0-4.4-4.9-7-14.7-7.8h-40.7
			c-21.9,0-41.2,13.2-58,39.6C1210.2,598,1202.9,609.7,1202.9,614.6z"/>
		<path class="st0" d="M256.7,485.7h150.6c21.8,0,36,5.7,42.7,17.2c0.9,1.6,1.3,3.8,1.3,6.8c0,8.1-8.9,23.4-26.7,45.9
			c-8.4,14.2-19.8,26.7-34,37.5c-22.4,14.2-45.8,21.4-70,21.4H224l-33.3,43.8h-61.3C129.4,658.2,244.8,500.8,256.7,485.7z
			 M285.4,529.5l-30.7,42.7H320c22.4,0,37.8-7.5,46-22.4c4-5.6,6-9.2,6-10.9c0-6.3-8.7-9.4-26-9.4L285.4,529.5L285.4,529.5z"/>
		<path class="st0" d="M499.4,485.2h148c27.8,0,44,6.8,48.7,20.3l0.7,3.6c0,7.6-9.6,23.8-28.7,48.5c-11,17.2-23,28.1-36,32.8
			l-17.3,3.1v0.5c8.9,0,14.2,3.3,16,9.9v1.6c0,3.4-10.7,19.2-32,47.4l-4.3,5.7h-63.8l31.4-43.8h-93.3l-32.7,43.3h-62
			c2.7-5.1,22-32,58-80.8C475.1,517.4,497.5,486.7,499.4,485.2z M500.1,572.2h52.7c30.1,0,47.7-5.4,52.7-16.2c6.7-9,10-14.9,10-17.7
			v-3.6c-2.7-3.5-8-5.2-16-5.2h-68L500.1,572.2z"/>
		<path class="st0" d="M895.2,486.3c23.9,0,39.2,5.6,46,16.7l1.3,6.3v1.6c0,7.4-8.4,21.8-25.3,43.3c-49.7,68-75.4,102.7-77.3,104.2
			h-61.3l30-42.7H714c-1.8,1.4-12.2,15.6-31.3,42.7l-0.7,0.5h-62.6v-0.5c60.9-83.8,94.2-129,100-135.5c17-14.6,30.5-23.4,40.7-26.6
			c12.8-5.5,26.1-8.6,40-9.4L895.2,486.3z M744.6,573.3h94.6c16-19.5,24-30.4,24-32.8v-2.1c0-5.6-7.6-8.3-22.7-8.3h-31.3
			c-24.7,0-42.3,11.4-56.7,31.8C747.7,568.8,744.6,572.3,744.6,573.3z"/>
		<path class="st0" d="M988.7,485.2H1178v1l-54.2,43.8h-48.7l-99,128.7h-62l-1.3-1l99-128.2h-75.2v-1L988.7,485.2z"/>
		<path class="st0" d="M1277.4,486.3h92.6c23,0,37,6.4,42,19.3l0.7,3.6c0,8.1-8.9,23.4-26.7,45.9c-29.4,41.6-47.2,65.6-53.3,71.9
			c-15.2,12.9-29.4,21.2-42.7,25c-12.4,4.5-30.7,6.8-54.7,6.8h-84c-19,0-31.7-4.7-38-14.1c-1.3-3.3-2-6.1-2-8.3
			c0-8.6,10.4-25.8,31.3-51.6c26-36,42.7-57.7,50-65.1C1218.3,497.4,1246.5,486.3,1277.4,486.3z M1196.4,605.1v1
			c0,5.9,5.8,8.9,17.3,8.9h38c22.7,0,40.7-11.8,54-35.4c17.3-21.8,26-35,26-39.6v-1.6c0-4.4-4.9-7-14.7-7.8h-40.7
			c-21.9,0-41.2,13.2-58,39.6C1203.7,588.5,1196.4,600.1,1196.4,605.1z"/>
	</g>
</g>
</svg>
