<?xml version="1.0" encoding="utf-8"?>
<!-- Generator: Adobe Illustrator 22.0.1, SVG Export Plug-In . SVG Version: 6.00 Build 0)  -->
<svg version="1.1" id="Camada_1" xmlns="http://www.w3.org/2000/svg" xmlns:xlink="http://www.w3.org/1999/xlink" x="0px" y="0px"
	 viewBox="0 0 1920 1312" style="enable-background:new 0 0 1920 1312;" xml:space="preserve">
<style type="text/css">
	.st0{fill:#FFFFFF;}
</style>
<g id="Ruth_William">
	<path class="st0" d="M1050.9,674.9c0,0,26.4-11,26.4,23.1s-71.6,88.1-106.8,24.2c-1.1,0-9.9,0-9.9,0s11,46.3,58.4,46.3
		c47.4,0,74.9-43,74.9-71.6S1060.8,651.7,1050.9,674.9z"/>
	<path class="st0" d="M1136.8,663.9c17.6,26.5-11,64.9-63.9,64.9c-28.2,0-50.7-8.1-65.6-15.7c-2.1,1.4-4.4,2.6-6.9,3.6
		c18.1,10.8,44,20.6,78.7,20.6C1155.8,737.3,1167.6,670.5,1136.8,663.9z"/>
	<path class="st0" d="M1283.3,649c0-24.2-2.8-82.6-36.9-82.6s-33.6,45.7-2.2,45.7c21.5,0,12.1-22.6,12.1-22.6s0.6,10.5-11.6,10.5
		s-8.8-19.8,3.3-19.8c12.1,0,30.8,9.9,30.8,67.2c0,36.7-12.7,58.2-26.7,72.8c-5.6-5-13.3-8.2-20-11.7c13.4-15.5,19.1-31.9,19.1-44.4
		c0-33.5-47.4-34.2-47.4,12c0,19.1,7.5,28.1,16.4,34.3c-20.3,20.3-63.9,40.6-126.5,40.6c-55.2,0-89.2-18.7-105.7-31.1
		c-1.9,0.2-3.8,0.3-5.8,0.3c-2.1,0-4.2-0.1-6.2-0.4c-0.1,0-0.3,0.1-0.4,0.1c21.2,18.7,57.8,38.2,118.1,38.2
		c67.1,0,109.1-20.2,132.8-43.7c6.7,4,13.3,7.5,17.4,13.4c-21.2,18.2-40.7,24.4-20.8,45.7c7.7,8.3,36.9,2.1,36.9-36.2
		c0-5.3-1.6-9.6-4.1-13C1277.6,698.4,1283.3,668.5,1283.3,649z M1225.5,704.5c-4.9-3.3-8.3-7.3-8.3-13.1c0-24.2,22-24.2,15.4,0
		C1231.5,695.5,1229.1,700,1225.5,704.5z M1237.6,742.1c3.4-2.6,6.4-5.4,9.4-8.2c0.7,2.4,1.1,5.1,1.1,8.2
		C1248.1,776.7,1210.6,763,1237.6,742.1z"/>
	<g>
		<path class="st0" d="M962.2,260.5c-124.6,0-225.6,101-225.6,225.6s101,225.6,225.6,225.6s225.6-101,225.6-225.6
			S1086.8,260.5,962.2,260.5z M962.2,701.3C843.3,701.3,747,605,747,486.1s96.4-215.2,215.2-215.2s215.2,96.4,215.2,215.2
			S1081.1,701.3,962.2,701.3z"/>
		<path class="st0" d="M962.2,246.6c-132.3,0-239.5,107.2-239.5,239.5S830,725.6,962.2,725.6s239.5-107.2,239.5-239.5
			S1094.5,246.6,962.2,246.6z M962.2,715.4c-126.7,0-229.3-102.7-229.3-229.3c0-126.7,102.7-229.3,229.3-229.3
			c126.7,0,229.3,102.7,229.3,229.3C1191.6,612.8,1088.9,715.4,962.2,715.4z"/>
	</g>
	<polygon class="st0" points="960.6,805.6 948.3,771.2 960.6,736.8 972.9,771.2 	"/>
	<polygon class="st0" points="962.2,166.6 974.5,201 962.2,235.4 949.9,201 	"/>
	<path class="st0" d="M985.9,755.8c0,0,8.7,5.3,8.7,20.9c0,15.6-14.7,18.1-21.7,11.2c2.5,8.7,9.9,12.4,18,12.4
		C1006.1,800.3,1023.2,770.3,985.9,755.8z"/>
	<path class="st0" d="M983.1,218.9c3.6-3.1,6.5-6.4,8.4-9.7c1.8-3.1,2.9-7.7,2.9-13.8c0-15.6-14.7-18.1-21.7-11.2
		c2.5-8.7,9.9-12.4,18-12.4c12,0,27.5,22.3,1.6,46.3c-32.8,30.5,2.6,31.2,2.6,31.2s-8,7.1-19.2,1.3
		C964.6,244.9,973,227.7,983.1,218.9z"/>
	<path class="st0" d="M994.2,210.2c0,0-8.7,12.1,0,18.2c8.7,6.2,30.2,26.2,13.9,24.5s18.5,4.4,18.5,4.4s11.4,1.5-21.9-27.7
		c-19.6-17.2-3.7-28.6-3.7-28.6L994.2,210.2z"/>
	<path class="st0" d="M1012.4,239.8c0,0,7.2-12.8,11.9-13.4l-3-1.3c0,0-10.3,8.6-12.6,13C1008.3,237.6,1012.4,239.8,1012.4,239.8z"
		/>
	<path class="st0" d="M1028.5,184.7c0,0-13.3,9.2-15.5,25.3s4.5,17.9,9.5,17.7c4.9-0.1,15.9-6.6,9.3-17.1
		C1022.3,195.7,1028.5,184.7,1028.5,184.7z"/>
	<g>
		<path class="st0" d="M1023.4,229.7c0,0-0.5-0.1-1.2-0.3c0,3.8,9,12.8,18.1,9.2c19.1-7.6,24.6-6.8,24.6-6.8s-9.1-12.6-25.3-15.5
			c-0.9-0.2-3.4-0.1-4.2-0.1C1037.3,228.9,1023.4,229.7,1023.4,229.7z"/>
	</g>
	<path class="st0" d="M1125.9,313.4c0,0,12.5-7.8,12.7-12.5l1.4,3c0,0-8.1,10.7-12.4,13.3C1128.2,317.3,1125.9,313.4,1125.9,313.4z"
		/>
	<path class="st0" d="M1166.6,270.9c0,0,1.9,16.1-8.6,28.5s-16.3,8.6-19.6,4.7c-3.1-3.7-5.6-16.2,6.6-18.3
		C1162.5,282.8,1166.6,270.9,1166.6,270.9z"/>
	<path class="st0" d="M1215.2,648.9c0,0-13.5-6-14.4-10.6l-1,3.1c0,0,9.5,9.4,14.2,11.3C1213.5,653.1,1215.2,648.9,1215.2,648.9z"/>
	<path class="st0" d="M1158.9,638.1c0,0,10.5,12.3,26.7,13.1c16.2,0.7,17.4-6.1,16.8-11.1c-0.6-4.8-8.1-15.2-17.9-7.6
		C1170.4,643.1,1158.9,638.1,1158.9,638.1z"/>
	<g>
		<path class="st0" d="M1204.1,638.9c0,0-0.1,0.5-0.2,1.3c3.8-0.4,11.9-10.1,7.4-18.9c-9.4-18.3-9.1-23.9-9.1-23.9
			s-11.7,10.2-13.1,26.7c-0.1,0.9,0.3,3.4,0.3,4.2C1202,625.1,1204.1,638.9,1204.1,638.9z"/>
	</g>
	<path class="st0" d="M1165.5,612.8c0,0,49.5-72.4,90.7-81.5s-42.5-11.9-56.3-53.6c-2.2,2.5,0,16.5,0,16.5s18.2,14.3,41.4,23.5
		c25.4,10.1,13.6,4.6-15.5,23.8s-60.3,64.3-60.3,64.3L1165.5,612.8L1165.5,612.8z"/>
	<path class="st0" d="M1177.5,580.8c0,0,38.3-45.3,40.1-84.9c1.9-39.6-12.7-92.5-40.1-98.7c-2.9,2.1,4.1,7.4,4.1,7.4
		s31.5,13,31.5,90.1c0,32.8-35.6,77.5-35.6,77.5V580.8z"/>
	<path class="st0" d="M1122.6,663.9c0,0-16.5,45.6,14,40.6c1.6,0.8-7.1,10.9-7.1,10.9s-16-7.7-16-22.5s6.6-30.9,6.6-30.9
		L1122.6,663.9z"/>
	<path class="st0" d="M1139.2,306.5c0,0,8.2,9.7,20.7-7c11.6-3.9,11.4,5.8,20.7,4.7C1171.2,311.6,1150.8,323.5,1139.2,306.5z"/>
	<path class="st0" d="M1133.5,307.8c0,0-0.8-4.1-1.8-6.9c0.2,0.2,1.8-0.9,1.8-0.9s2.2,7.1,1.7,7.8
		C1134.7,308.5,1133.5,307.8,1133.5,307.8z"/>
	<path class="st0" d="M1121.3,261.6c0,0,1.4,10.5,0,16.7s-1.5,18.2,10.4,22.5c0.5,1.6,1.8-0.9,1.8-0.9s3.9-5.7,1.5-16.5
		C1132.4,271.9,1126.5,265.2,1121.3,261.6z"/>
	<path class="st0" d="M1071.7,279.7c0,0-7.3-4.5-6.7-16.5c0.5-12.1,14.8-34,36.4-26.4c23.4,8.2,6.8,37.1-7.2,24.9
		c-10.7-8.7,3.1-20.7,10.4-16.7c0.3-0.3,1.1-6.8-12.9-6.8s-26.1,24.1-17.4,36.5C1082.9,287,1071.7,279.7,1071.7,279.7z"/>
	<path class="st0" d="M1162,363c0,0,4.5,7.3,16.5,6.7c12.1-0.5,34-14.8,26.4-36.4c-8.2-23.4-37.1-6.8-24.9,7.2
		c8.7,10.7,20.7-3.1,16.7-10.4c0.3-0.3,6.8-1.1,6.8,12.9c0,14.1-24.1,26.1-36.5,17.4C1154.8,351.8,1162,363,1162,363z"/>
	<path class="st0" d="M760.8,363c0,0-4.5,7.3-16.5,6.7c-12.1-0.5-34-14.8-26.4-36.4c8.2-23.4,37.1-6.8,24.9,7.2
		c-8.7,10.7-20.7-3.1-16.7-10.4c-0.3-0.3-6.8-1.1-6.8,12.9c0,14.1,24.1,26.1,36.5,17.4C768.1,351.8,760.8,363,760.8,363z"/>
	<path class="st0" d="M871.9,674.9c0,0-26.4-11-26.4,23.1s71.6,88.1,106.8,24.2c1.1,0,9.9,0,9.9,0s-11,46.3-58.4,46.3
		s-74.9-43-74.9-71.6S862,651.7,871.9,674.9z"/>
	<path class="st0" d="M786,663.9c-17.6,26.5,11,64.9,63.9,64.9c28.2,0,50.7-8.1,65.6-15.7c2.1,1.4,4.4,2.6,6.9,3.6
		c-18.1,10.8-44,20.6-78.7,20.6C767,737.3,755.2,670.5,786,663.9z"/>
	<path class="st0" d="M639.5,649c0-24.2,2.8-82.6,36.9-82.6s33.6,45.7,2.2,45.7c-21.5,0-12.1-22.6-12.1-22.6S666,600,678.1,600
		s8.8-19.8-3.3-19.8s-30.8,9.9-30.8,67.2c0,36.7,12.7,58.2,26.7,72.8c5.6-5,13.3-8.2,20-11.7c-13.4-15.5-19.1-31.9-19.1-44.4
		c0-33.5,47.4-34.2,47.4,12c0,19.1-7.5,28.1-16.4,34.3c20.3,20.3,63.9,40.6,126.5,40.6c55.2,0,89.2-18.7,105.7-31.1
		c1.9,0.2,3.8,0.3,5.8,0.3c2.1,0,4.2-0.1,6.2-0.4c0.1,0,0.3,0.1,0.4,0.1C925.9,738.6,889.3,758,829,758
		c-67.1,0-109.1-20.2-132.8-43.7c-6.7,4-13.3,7.5-17.4,13.4c21.2,18.2,40.7,24.4,20.8,45.7c-7.7,8.3-36.9,2.1-36.9-36.2
		c0-5.3,1.6-9.6,4.1-13C645.3,698.4,639.5,668.5,639.5,649z M697.3,704.5c4.9-3.3,8.3-7.3,8.3-13.1c0-24.2-22-24.2-15.4,0
		C691.3,695.5,693.7,700,697.3,704.5z M685.2,742.1c-3.4-2.6-6.4-5.4-9.4-8.2c-0.7,2.4-1.1,5.1-1.1,8.2
		C674.8,776.7,712.2,763,685.2,742.1z"/>
	<path class="st0" d="M936.9,755.8c0,0-8.7,5.3-8.7,20.9c0,15.6,14.7,18.1,21.7,11.2c-2.5,8.7-9.9,12.4-18,12.4
		C916.8,800.3,899.6,770.3,936.9,755.8z"/>
	<path class="st0" d="M939.7,218.9c-3.6-3.1-6.5-6.4-8.4-9.7c-1.8-3.1-2.9-7.7-2.9-13.8c0-15.6,14.7-18.1,21.7-11.2
		c-2.5-8.7-9.9-12.4-18-12.4c-12,0-27.5,22.3-1.6,46.3c32.8,30.5-2.6,31.2-2.6,31.2s8,7.1,19.2,1.3
		C958.3,244.9,949.8,227.7,939.7,218.9z"/>
	<path class="st0" d="M928.6,210.2c0,0,8.7,12.1,0,18.2c-8.7,6.2-30.2,26.2-13.9,24.5s-18.5,4.4-18.5,4.4s-11.4,1.5,21.9-27.7
		c19.6-17.2,3.7-28.6,3.7-28.6L928.6,210.2z"/>
	<path class="st0" d="M910.5,239.8c0,0-7.2-12.8-11.9-13.4l3-1.3c0,0,10.3,8.6,12.6,13C914.5,237.6,910.5,239.8,910.5,239.8z"/>
	<path class="st0" d="M894.3,184.7c0,0,13.3,9.2,15.5,25.3s-4.5,17.9-9.5,17.7c-4.9-0.1-15.9-6.6-9.3-17.1
		C900.5,195.7,894.3,184.7,894.3,184.7z"/>
	<g>
		<path class="st0" d="M899.4,229.7c0,0,0.5-0.1,1.2-0.3c0,3.8-9,12.8-18.1,9.2c-19.1-7.6-24.6-6.8-24.6-6.8s9.1-12.6,25.3-15.5
			c0.9-0.2,3.4-0.1,4.2-0.1C885.5,228.9,899.4,229.7,899.4,229.7z"/>
	</g>
	<path class="st0" d="M797,313.4c0,0-12.5-7.8-12.7-12.5l-1.4,3c0,0,8.1,10.7,12.4,13.3C794.6,317.3,797,313.4,797,313.4z"/>
	<path class="st0" d="M756.2,270.9c0,0-1.9,16.1,8.6,28.5s16.3,8.6,19.6,4.7c3.1-3.7,5.6-16.2-6.6-18.3
		C760.3,282.8,756.2,270.9,756.2,270.9z"/>
	<path class="st0" d="M707.6,648.9c0,0,13.5-6,14.4-10.6l1,3.1c0,0-9.5,9.4-14.2,11.3C709.4,653.1,707.6,648.9,707.6,648.9z"/>
	<path class="st0" d="M764,638.1c0,0-10.5,12.3-26.7,13.1c-16.2,0.7-17.4-6.1-16.8-11.1c0.6-4.8,8.1-15.2,17.9-7.6
		C752.4,643.1,764,638.1,764,638.1z"/>
	<g>
		<path class="st0" d="M718.7,638.9c0,0,0.1,0.5,0.2,1.3c-3.8-0.4-11.9-10.1-7.4-18.9c9.4-18.3,9.1-23.9,9.1-23.9
			s11.7,10.2,13.1,26.7c0.1,0.9-0.3,3.4-0.3,4.2C720.8,625.1,718.7,638.9,718.7,638.9z"/>
	</g>
	<path class="st0" d="M757.4,612.8c0,0-49.5-72.4-90.7-81.5s42.5-11.9,56.3-53.6c2.2,2.5,0,16.5,0,16.5s-18.2,14.3-41.4,23.5
		c-25.4,10.1-13.6,4.6,15.5,23.8s60.3,64.3,60.3,64.3L757.4,612.8L757.4,612.8z"/>
	<path class="st0" d="M745.4,580.8c0,0-38.3-45.3-40.1-84.9s12.7-92.5,40.1-98.7c2.9,2.1-4.1,7.4-4.1,7.4s-31.5,13-31.5,90.1
		c0,32.8,35.6,77.5,35.6,77.5V580.8z"/>
	<path class="st0" d="M800.2,663.9c0,0,16.5,45.6-14,40.6c-1.6,0.8,7.1,10.9,7.1,10.9s16-7.7,16-22.5s-6.6-30.9-6.6-30.9
		L800.2,663.9z"/>
	<path class="st0" d="M783.6,306.5c0,0-8.2,9.7-20.7-7c-11.6-3.9-11.4,5.8-20.7,4.7C751.6,311.6,772,323.5,783.6,306.5z"/>
	<path class="st0" d="M789.4,307.8c0,0,0.8-4.1,1.8-6.9c-0.2,0.2-1.8-0.9-1.8-0.9s-2.2,7.1-1.7,7.8
		C788.1,308.5,789.4,307.8,789.4,307.8z"/>
	<path class="st0" d="M801.6,261.6c0,0-1.4,10.5,0,16.7s1.5,18.2-10.4,22.5c-0.5,1.6-1.8-0.9-1.8-0.9s-3.9-5.7-1.5-16.5
		C790.4,271.9,796.3,265.2,801.6,261.6z"/>
	<path class="st0" d="M851.1,279.7c0,0,7.3-4.5,6.7-16.5c-0.5-12.1-14.8-34-36.4-26.4c-23.4,8.2-6.8,37.1,7.2,24.9
		c10.7-8.7-3.1-20.7-10.4-16.7c-0.3-0.3-1.1-6.8,12.9-6.8s26.1,24.1,17.4,36.5C839.9,287,851.1,279.7,851.1,279.7z"/>
	<g>
		<path class="st0" d="M591.2,1061.2c2.3,6.8,6.8,10.1,13.4,10.1c2.8,0,5.1-0.7,6.9-2c1.8-1.3,2.8-3.1,2.8-5.4c0-1.5-0.3-2.7-1-3.8
			c-0.7-1.1-1.5-2.1-2.5-2.9c-1-0.9-2.2-1.6-3.6-2.3c-1.3-0.7-2.7-1.4-4.1-2.1c-1.4-0.7-2.8-1.4-4.1-2.2c-1.4-0.8-2.6-1.6-3.6-2.6
			s-1.9-2.1-2.5-3.3c-0.7-1.3-1-2.7-1-4.5c0-3.4,1.4-6.1,4.3-8.3c2.9-2.2,6.4-3.3,10.5-3.3c1.9,0,3.8,0.3,5.7,0.8
			c1.9,0.6,3.5,1.3,4.8,2.2v8.7c-0.9-2.8-2.4-4.9-4.3-6.3c-1.9-1.4-4.3-2.1-7.1-2.1c-2.6,0-4.7,0.7-6.4,2.1s-2.5,3.1-2.5,5.1
			c0,1.6,0.6,3.1,1.7,4.4c1.1,1.3,3,2.6,5.6,3.9l4.1,2c3.2,1.6,5.5,3,7,4.2s2.6,2.6,3.3,4.1c0.8,1.5,1.1,3.2,1.1,5.1
			c0,2.3-0.6,4.3-1.9,6.1c-1.2,1.8-3,3.3-5.4,4.3s-5.3,1.5-8.7,1.5c-2.4,0-4.7-0.3-6.8-1c-2.1-0.6-4-1.5-5.7-2.5V1061.2z"/>
		<path class="st0" d="M641.7,1074.7c-3.2,0-6.1-0.7-8.5-2.1s-4.3-3.3-5.6-5.8s-2-5.2-2-8.1c0-3,0.7-5.9,2.1-8.6
			c1.4-2.7,3.4-4.8,6-6.3s5.5-2.3,8.8-2.3c3.2,0,6.1,0.7,8.5,2.1s4.3,3.3,5.7,5.8c1.3,2.5,2,5.2,2,8.2c0,3.1-0.7,6-2.2,8.6
			c-1.5,2.7-3.5,4.7-6,6.2C648,1074,645.1,1074.7,641.7,1074.7z M643,1071.5c2,0,3.8-0.6,5.3-1.7s2.6-2.7,3.5-4.6
			c0.8-1.9,1.2-4,1.2-6.2c0-2.5-0.5-4.9-1.5-7.1s-2.4-3.9-4.1-5.2c-1.8-1.3-3.8-2-6.1-2c-1.9,0-3.6,0.5-5.1,1.5s-2.7,2.5-3.6,4.5
			c-0.9,2-1.4,4.2-1.4,6.4c0,2.5,0.5,4.9,1.5,7.1s2.4,4,4.1,5.3C638.7,1070.9,640.7,1071.5,643,1071.5z"/>
		<path class="st0" d="M667.3,1037.3c0-2.3-0.3-3.9-0.8-4.9c-0.6-1-1.5-1.5-2.9-1.5h-0.7l9.9-3.5v19.8c1.1-1.6,2.7-3,4.8-4.1
			s4.2-1.6,6.4-1.6c2.4,0,4.6,0.6,6.5,1.9c1.9,1.2,3.4,3,4.4,5.3s1.6,5,1.6,8.1c0,3.2-0.7,6.2-2.1,9c-1.4,2.8-3.3,4.9-5.7,6.5
			c-2.4,1.5-5.1,2.3-8.1,2.3c-1.8,0-3.3-0.1-4.4-0.3c-1.1-0.2-1.9-0.4-2.6-0.6c-0.7-0.2-1.2-0.4-1.7-0.6c-0.4-0.2-0.9-0.3-1.5-0.3
			c-0.7,0-1.3,0.2-1.7,0.6c-0.5,0.4-0.9,0.8-1.4,1.3V1037.3z M672.6,1065.8c0,1.8,0.7,3.2,2,4.2s3.3,1.5,5.9,1.5
			c2,0,3.8-0.6,5.3-1.8c1.6-1.2,2.8-2.8,3.6-4.8c0.9-2,1.3-4.3,1.3-6.7c0-3.8-0.8-6.9-2.5-9.2c-1.6-2.4-3.8-3.5-6.5-3.5
			c-1.6,0-3.1,0.4-4.5,1.3s-2.6,2-3.4,3.4c-0.8,1.4-1.3,2.9-1.3,4.4v11.2H672.6z"/>
		<path class="st0" d="M704.7,1050.2c0-1.3-0.1-2.3-0.3-3s-0.5-1.3-0.9-1.6c-0.4-0.3-1.1-0.5-1.9-0.5h-0.7l9-3.6v8.3
			c0.8-2.2,2.3-4.1,4.4-5.7c2.1-1.6,4.3-2.4,6.5-2.4c1,0,2.1,0.2,3.2,0.7v6.9c-0.6-0.8-1.4-1.5-2.3-2.1c-0.9-0.6-1.9-0.8-3.1-0.8
			c-1.5,0-2.9,0.6-4.3,1.7c-1.4,1.1-2.4,2.6-3.2,4.5s-1.1,4-1.1,6.2v9.2c0,1.7,0.3,3,0.8,4.1c0.5,1,1.2,1.6,2.1,1.8h-11.1
			c1-0.2,1.7-0.8,2.2-1.8s0.8-2.4,0.8-4v-17.9H704.7z"/>
		<path class="st0" d="M730.6,1054.2c-0.6-1.2-0.9-2.4-0.9-3.6c0-1.6,0.6-3.1,1.7-4.5c1.1-1.4,2.7-2.5,4.8-3.3s4.4-1.2,7.1-1.2
			c3.4,0,6.1,0.8,8,2.5s2.9,3.9,2.9,6.9v14.3c0,1.9,0.5,3.4,1.4,4.5s2.3,1.7,4,1.7c0.3,0,0.7,0,1.2-0.1l-5.5,3.7
			c-1.5-0.2-2.7-0.8-3.8-1.9c-1.1-1-1.7-2.1-1.9-3.1c-0.9,1.5-2.3,2.6-4.3,3.4s-4.2,1.3-6.6,1.3c-2.9,0-5.2-0.7-7-2
			s-2.7-3.1-2.7-5.3c0-2.6,1.7-4.9,5-7s8.3-3.8,14.8-5.1v-3.4c0-2.4-0.6-4.3-1.8-5.5c-1.2-1.3-2.9-1.9-5.1-1.9c-2.2,0-4,0.4-5.3,1.3
			s-2,2-2,3.3c0,0.8,0.2,1.4,0.5,1.9s0.8,0.9,1.3,1.1L730.6,1054.2z M748.9,1058c-4.9,1-8.5,2.2-10.9,3.6s-3.5,3-3.5,4.9
			c0,1.5,0.6,2.7,1.7,3.6c1.1,0.9,2.6,1.4,4.3,1.4c2.2,0,4.1-0.6,5.8-1.9s2.5-2.8,2.5-4.6v-7H748.9z"/>
		<path class="st0" d="M765.4,1051c0-2.2-0.2-3.8-0.7-4.6c-0.5-0.9-1.4-1.3-2.8-1.3H761l9.6-3.7v6.2c1.2-1.6,3-3,5.4-4.2
			s4.7-1.8,6.9-1.8c2.9,0,5.2,0.9,6.9,2.7c1.7,1.8,2.5,4.3,2.5,7.5v16.2c0,1.6,0.3,3,0.8,4s1.2,1.6,2.1,1.8h-11
			c0.9-0.2,1.6-0.8,2.1-1.8s0.7-2.3,0.7-3.9v-14.9c0-2.5-0.6-4.4-1.7-5.7c-1.1-1.3-2.7-2-4.7-2c-1.5,0-3,0.4-4.5,1.2
			c-1.6,0.8-2.8,1.9-3.8,3.2c-1,1.3-1.5,2.7-1.5,4.2v14.2c0,1.6,0.3,2.9,0.8,3.9s1.2,1.5,2.1,1.7h-11.2c1-0.2,1.8-0.8,2.3-1.8
			s0.7-2.3,0.7-3.9L765.4,1051L765.4,1051z"/>
		<path class="st0" d="M821.3,1052.9c0.2-0.5,0.3-1.2,0.3-2.1c0-1.7-0.6-3.1-1.8-4.2s-2.7-1.6-4.5-1.6c-2.9,0-5.2,1.1-7,3.4
			s-2.7,5.3-2.7,8.9c0,2.5,0.5,4.8,1.4,6.9s2.2,3.7,3.9,4.9c1.7,1.2,3.7,1.8,6,1.8c3.8,0,7.4-2.1,10.8-6.2c-0.8,3.1-2.3,5.6-4.5,7.4
			s-4.8,2.7-7.8,2.7s-5.6-0.6-7.9-1.9c-2.2-1.3-3.9-3.1-5.1-5.4c-1.2-2.3-1.8-4.9-1.8-7.9c0-3.4,0.7-6.5,2.1-9.2
			c1.4-2.8,3.4-4.9,5.9-6.4s5.2-2.3,8.3-2.3c3,0,5.4,0.8,7.3,2.5c1.9,1.7,2.9,3.8,3.1,6.5L821.3,1052.9z"/>
		<path class="st0" d="M837.8,1057.6c0,2.5,0.5,4.8,1.5,6.8s2.4,3.5,4.2,4.6s3.8,1.6,5.9,1.6c1.9,0,3.9-0.5,5.9-1.4s3.8-2.4,5.4-4.4
			c-1.1,3.3-2.7,5.8-4.9,7.5s-4.9,2.5-8.2,2.5c-3,0-5.6-0.7-7.9-2c-2.3-1.3-4-3.3-5.3-5.8s-1.9-5.2-1.9-8.3c0-3.2,0.6-6.1,1.9-8.7
			c1.3-2.6,3-4.6,5.3-6.1s4.8-2.2,7.7-2.2c3.8,0,6.9,1.4,9.2,4.3s3.6,6.8,3.8,11.7L837.8,1057.6L837.8,1057.6z M854.3,1054.9
			c0-3.2-0.7-5.7-2.1-7.6c-1.3-1.9-3.1-2.8-5.4-2.8c-1.6,0-3.1,0.5-4.4,1.4c-1.3,0.9-2.4,2.2-3.1,3.8c-0.8,1.6-1.2,3.4-1.4,5.3h16.4
			V1054.9z"/>
		<path class="st0" d="M868.4,1037.5c0-2.2-0.3-3.8-0.8-4.7c-0.5-0.9-1.5-1.4-2.9-1.4h-0.6l9.7-3.5v40.2c0,1.6,0.3,3,0.8,4
			s1.2,1.6,2.1,1.8h-11.2c0.9-0.2,1.6-0.8,2.1-1.8s0.8-2.3,0.8-4L868.4,1037.5L868.4,1037.5z"/>
		<path class="st0" d="M884.9,1037.5c0-2.3-0.3-3.9-0.8-4.9c-0.6-1-1.5-1.4-2.9-1.4h-0.7l9.7-3.8v20c1.2-1.7,3-3.1,5.3-4.2
			s4.6-1.7,6.8-1.7c3,0,5.3,0.9,6.9,2.7c1.6,1.8,2.4,4.3,2.4,7.5v16.2c0,1.6,0.3,2.9,0.8,4s1.2,1.7,2.2,1.8h-10.9
			c0.8-0.1,1.5-0.7,1.9-1.7c0.5-1,0.7-2.3,0.7-3.9v-15c0-2.5-0.6-4.4-1.7-5.7c-1.1-1.3-2.7-2-4.8-2c-1.5,0-3,0.4-4.6,1.2
			c-1.6,0.8-2.8,1.9-3.7,3.2c-0.9,1.3-1.4,2.7-1.4,4.2v14.2c0,1.6,0.2,2.9,0.7,3.9s1.2,1.6,2.1,1.7h-11.1c1-0.2,1.8-0.8,2.3-1.9
			c0.5-1,0.7-2.3,0.7-3.9L884.9,1037.5L884.9,1037.5z"/>
		<path class="st0" d="M922,1054.2c-0.6-1.2-0.9-2.4-0.9-3.6c0-1.6,0.6-3.1,1.7-4.5c1.1-1.4,2.7-2.5,4.8-3.3s4.4-1.2,7.1-1.2
			c3.4,0,6.1,0.8,8,2.5s2.9,3.9,2.9,6.9v14.3c0,1.9,0.5,3.4,1.4,4.5s2.3,1.7,4,1.7c0.3,0,0.7,0,1.2-0.1l-5.5,3.7
			c-1.5-0.2-2.7-0.8-3.8-1.9c-1.1-1-1.7-2.1-1.9-3.1c-0.9,1.5-2.3,2.6-4.3,3.4s-4.2,1.3-6.6,1.3c-2.9,0-5.2-0.7-7-2
			s-2.7-3.1-2.7-5.3c0-2.6,1.7-4.9,5-7s8.3-3.8,14.8-5.1v-3.4c0-2.4-0.6-4.3-1.8-5.5c-1.2-1.3-2.9-1.9-5.1-1.9c-2.2,0-4,0.4-5.3,1.3
			s-2,2-2,3.3c0,0.8,0.2,1.4,0.5,1.9s0.8,0.9,1.3,1.1L922,1054.2z M940.2,1058c-4.9,1-8.5,2.2-10.9,3.6s-3.5,3-3.5,4.9
			c0,1.5,0.6,2.7,1.7,3.6c1.1,0.9,2.6,1.4,4.3,1.4c2.2,0,4.1-0.6,5.8-1.9s2.5-2.8,2.5-4.6v-7H940.2z"/>
		<path class="st0" d="M954.1,1064.4c1.9,4.9,5.2,7.3,9.7,7.3c2.2,0,3.9-0.4,5.2-1.2c1.3-0.8,2-2,2-3.4c0-1.1-0.4-2.1-1.2-3
			s-2.1-1.8-3.9-2.7l-3.4-1.7c-3.1-1.5-5.2-2.9-6.4-4.2c-1.1-1.3-1.7-2.9-1.7-4.8c0-2.6,1-4.8,3.1-6.5c2-1.7,4.7-2.6,7.9-2.6
			c3.3,0,6.2,0.7,8.6,2.1v6.8c-2.1-3.9-5-5.9-8.7-5.9c-1.8,0-3.3,0.4-4.5,1.3s-1.8,2-1.8,3.3c0,1,0.2,1.8,0.6,2.4
			c0.4,0.6,1.1,1.2,2,1.9c0.9,0.6,2.5,1.5,4.7,2.5c3,1.4,5.1,2.5,6.2,3.4c1.1,0.8,1.9,1.8,2.5,2.8s0.8,2.2,0.8,3.5
			c0,2.7-1.1,4.9-3.2,6.6c-2.2,1.7-5.1,2.5-8.9,2.5c-1.8,0-3.6-0.2-5.4-0.7c-1.8-0.5-3.2-1.1-4.3-1.9v-7.8H954.1z"/>
		<path class="st0" d="M1001.7,1057.6c0,2.5,0.5,4.8,1.5,6.8s2.4,3.5,4.2,4.6s3.8,1.6,5.9,1.6c1.9,0,3.9-0.5,5.9-1.4
			s3.8-2.4,5.4-4.4c-1.1,3.3-2.7,5.8-4.9,7.5s-4.9,2.5-8.2,2.5c-3,0-5.6-0.7-7.9-2s-4-3.3-5.3-5.8s-1.9-5.2-1.9-8.3
			c0-3.2,0.6-6.1,1.9-8.7c1.3-2.6,3-4.6,5.3-6.1s4.8-2.2,7.7-2.2c3.8,0,6.9,1.4,9.2,4.3s3.6,6.8,3.8,11.7L1001.7,1057.6
			L1001.7,1057.6z M1018.2,1054.9c0-3.2-0.7-5.7-2.1-7.6c-1.3-1.9-3.1-2.8-5.4-2.8c-1.6,0-3.1,0.5-4.4,1.4c-1.3,0.9-2.4,2.2-3.1,3.8
			s-1.2,3.4-1.4,5.3h16.4V1054.9z"/>
		<path class="st0" d="M1049.6,1035.9c0-1.8-0.3-3.3-0.9-4.3c-0.6-1.1-1.5-1.7-2.6-2h19.3c4.8,0,9.1,0.9,12.8,2.7
			c3.7,1.8,6.6,4.3,8.6,7.6c2,3.3,3,7.1,3,11.4c0,4.4-1,8.3-2.9,11.8c-2,3.4-4.8,6.1-8.6,7.9c-3.8,1.9-8.1,2.8-13.1,2.8h-18.9
			c1.1-0.1,1.9-0.8,2.5-2s0.9-2.8,0.9-4.7v-31.2H1049.6z M1065.7,1070.4c3.4,0,6.4-0.7,9-2.2s4.7-3.7,6.3-6.6
			c1.6-2.9,2.3-6.3,2.3-10c0-6.1-1.7-10.8-5-14s-8.2-4.8-14.5-4.8h-8.4v37.6H1065.7z"/>
		<path class="st0" d="M1101.4,1057.6c0,2.5,0.5,4.8,1.5,6.8s2.4,3.5,4.2,4.6c1.8,1.1,3.8,1.6,5.9,1.6c1.9,0,3.9-0.5,5.9-1.4
			s3.8-2.4,5.4-4.4c-1.1,3.3-2.7,5.8-4.9,7.5c-2.2,1.7-4.9,2.5-8.2,2.5c-3,0-5.6-0.7-7.9-2s-4-3.3-5.3-5.8s-1.9-5.2-1.9-8.3
			c0-3.2,0.6-6.1,1.9-8.7s3-4.6,5.3-6.1s4.8-2.2,7.7-2.2c3.8,0,6.9,1.4,9.2,4.3c2.3,2.9,3.6,6.8,3.8,11.7L1101.4,1057.6
			L1101.4,1057.6z M1117.9,1054.9c0-3.2-0.7-5.7-2.1-7.6c-1.3-1.9-3.1-2.8-5.4-2.8c-1.6,0-3.1,0.5-4.4,1.4s-2.4,2.2-3.1,3.8
			c-0.8,1.6-1.2,3.4-1.4,5.3h16.4V1054.9z"/>
		<path class="st0" d="M1131.9,1050.6c0-1.9-0.2-3.3-0.7-4.2c-0.5-0.9-1.3-1.3-2.5-1.3h-0.7l9-3.7l0.1,6c1.3-1.9,2.9-3.3,4.8-4.3
			s3.9-1.5,5.9-1.5c2.5,0,4.7,0.7,6.8,2c2.1,1.3,3.6,3.1,4.8,5.4c1.1,2.3,1.7,5,1.7,8.2s-0.7,6.2-2,8.9c-1.4,2.7-3.3,4.8-5.7,6.3
			c-2.4,1.5-5.2,2.3-8.4,2.3c-3.5,0-6.1-0.9-7.8-2.7v8c0,1.6,0.3,3,0.8,4s1.2,1.6,2.1,1.8h-11c0.9-0.2,1.6-0.8,2.1-1.8
			s0.7-2.4,0.7-3.9L1131.9,1050.6L1131.9,1050.6z M1137.2,1064.5c0,2.2,0.6,3.9,1.9,5.2c1.3,1.2,3.2,1.9,5.7,1.9
			c3.1,0,5.7-1.2,7.6-3.7s2.9-5.6,2.9-9.4c0-4-0.9-7.1-2.6-9.5c-1.7-2.3-4-3.5-6.8-3.5c-1.5,0-2.9,0.4-4.3,1.2s-2.5,1.8-3.3,3.1
			c-0.8,1.3-1.2,2.7-1.2,4.2v10.5H1137.2z"/>
		<path class="st0" d="M1169.4,1050.4c0-1.9-0.3-3.3-0.8-4.1c-0.5-0.8-1.4-1.2-2.7-1.2h-0.8l9.6-3.7v26.6c0,1.7,0.3,3,0.8,4
			s1.3,1.6,2.3,1.8h-11.6c1-0.2,1.8-0.8,2.3-1.8s0.8-2.4,0.8-3.9L1169.4,1050.4L1169.4,1050.4z M1167.8,1032.6c0-1,0.4-1.8,1.1-2.4
			s1.6-0.9,2.7-0.9s2,0.3,2.7,0.9s1.1,1.4,1.1,2.4c0,0.9-0.3,1.7-1,2.3c-0.7,0.7-1.6,1-2.8,1c-1.2,0-2.1-0.3-2.8-1
			C1168.1,1034.3,1167.8,1033.5,1167.8,1032.6z"/>
		<path class="st0" d="M1185.8,1037.5c0-2.2-0.3-3.8-0.8-4.7c-0.5-0.9-1.5-1.4-2.9-1.4h-0.6l9.7-3.5v40.2c0,1.6,0.3,3,0.8,4
			s1.2,1.6,2.1,1.8h-11.2c0.9-0.2,1.6-0.8,2.1-1.8s0.8-2.3,0.8-4V1037.5z"/>
		<path class="st0" d="M1201.5,1054.2c-0.6-1.2-0.9-2.4-0.9-3.6c0-1.6,0.6-3.1,1.7-4.5s2.7-2.5,4.8-3.3c2.1-0.8,4.4-1.2,7.1-1.2
			c3.4,0,6.1,0.8,8,2.5s2.9,3.9,2.9,6.9v14.3c0,1.9,0.5,3.4,1.4,4.5s2.3,1.7,4,1.7c0.3,0,0.7,0,1.2-0.1l-5.5,3.7
			c-1.5-0.2-2.7-0.8-3.8-1.9c-1.1-1-1.7-2.1-1.9-3.1c-0.9,1.5-2.3,2.6-4.3,3.4s-4.2,1.3-6.6,1.3c-2.9,0-5.2-0.7-7-2
			s-2.7-3.1-2.7-5.3c0-2.6,1.7-4.9,5-7s8.3-3.8,14.8-5.1v-3.4c0-2.4-0.6-4.3-1.8-5.5c-1.2-1.3-2.9-1.9-5.1-1.9s-4,0.4-5.3,1.3
			s-2,2-2,3.3c0,0.8,0.2,1.4,0.5,1.9s0.8,0.9,1.3,1.1L1201.5,1054.2z M1219.7,1058c-4.9,1-8.5,2.2-10.9,3.6s-3.5,3-3.5,4.9
			c0,1.5,0.6,2.7,1.7,3.6s2.6,1.4,4.3,1.4c2.2,0,4.1-0.6,5.8-1.9c1.7-1.3,2.5-2.8,2.5-4.6L1219.7,1058L1219.7,1058z"/>
		<path class="st0" d="M1245.7,1074.5c-3.7-0.5-6.7-2.1-8.9-4.8c-2.2-2.7-3.3-6.1-3.3-10.2c0-3.4,0.7-6.5,2.1-9.2
			c1.4-2.8,3.4-4.9,5.9-6.4s5.2-2.3,8.2-2.3s5.4,0.8,7.3,2.5s2.9,3.8,3.1,6.5l-5.7,2.3c0.2-0.5,0.3-1.2,0.3-2.1
			c0-1.7-0.6-3.1-1.8-4.2c-1.2-1.1-2.7-1.6-4.5-1.6c-2.9,0-5.3,1.1-7.1,3.4s-2.7,5.3-2.7,8.9c0,2.5,0.5,4.8,1.4,6.9s2.2,3.7,4,4.9
			c1.7,1.2,3.7,1.8,5.9,1.8c3.9,0,7.5-2.1,10.8-6.2c-0.8,3-2.2,5.3-4.3,7.2c-2.1,1.8-4.6,2.8-7.5,2.9l-1,1.5
			c1.7,0.2,3.1,0.7,4.1,1.5c1.1,0.8,1.6,1.8,1.6,3.1c0,1.3-0.6,2.5-1.9,3.4s-3,1.4-5.1,1.4c-2,0-3.8-0.4-5.3-1.3
			c0.7,0.1,1.5,0.2,2.4,0.2c1.6,0,2.8-0.4,3.9-1.1c1-0.7,1.6-1.6,1.6-2.6c0-0.9-0.5-1.6-1.4-2.2s-2.2-0.9-3.9-1L1245.7,1074.5z"/>
		<path class="st0" d="M1267.6,1054.2c-0.6-1.2-0.9-2.4-0.9-3.6c0-1.6,0.6-3.1,1.7-4.5s2.7-2.5,4.8-3.3c2.1-0.8,4.4-1.2,7.1-1.2
			c3.4,0,6.1,0.8,8,2.5s2.9,3.9,2.9,6.9v14.3c0,1.9,0.5,3.4,1.4,4.5s2.3,1.7,4,1.7c0.3,0,0.7,0,1.2-0.1l-5.5,3.7
			c-1.5-0.2-2.7-0.8-3.8-1.9c-1.1-1-1.7-2.1-1.9-3.1c-0.9,1.5-2.3,2.6-4.3,3.4s-4.2,1.3-6.6,1.3c-2.9,0-5.2-0.7-7-2
			s-2.7-3.1-2.7-5.3c0-2.6,1.7-4.9,5-7s8.3-3.8,14.8-5.1v-3.4c0-2.4-0.6-4.3-1.8-5.5c-1.2-1.3-2.9-1.9-5.1-1.9s-4,0.4-5.3,1.3
			s-2,2-2,3.3c0,0.8,0.2,1.4,0.5,1.9s0.8,0.9,1.3,1.1L1267.6,1054.2z M1270.4,1037.9c-0.4-0.5-0.6-1.1-0.6-1.8
			c0-1.7,0.5-3.2,1.5-4.4s2.3-1.9,4-1.9c0.8,0,1.6,0.2,2.6,0.6c0.9,0.4,1.8,0.8,2.7,1.3c0.8,0.5,1.7,0.9,2.5,1.3s1.6,0.6,2.1,0.6
			c1.1,0,1.9-0.4,2.6-1.3s1-2,1.1-3.3c0.4,0.5,0.6,1.1,0.6,1.7c0,1.7-0.5,3.2-1.6,4.5s-2.5,1.9-4.1,1.9c-0.7,0-1.5-0.2-2.4-0.6
			c-0.8-0.4-1.7-0.8-2.5-1.3s-1.7-1-2.5-1.4s-1.5-0.6-2.2-0.6c-1.1,0-2,0.5-2.7,1.4C1270.9,1035.5,1270.5,1036.6,1270.4,1037.9z
			 M1285.8,1058c-4.9,1-8.5,2.2-10.9,3.6s-3.5,3-3.5,4.9c0,1.5,0.6,2.7,1.7,3.6s2.6,1.4,4.3,1.4c2.2,0,4.1-0.6,5.8-1.9
			c1.7-1.3,2.5-2.8,2.5-4.6L1285.8,1058L1285.8,1058z"/>
		<path class="st0" d="M1315.8,1074.7c-3.2,0-6.1-0.7-8.5-2.1s-4.3-3.3-5.6-5.8c-1.3-2.5-2-5.2-2-8.1c0-3,0.7-5.9,2.1-8.6
			s3.4-4.8,6-6.3s5.5-2.3,8.8-2.3c3.2,0,6.1,0.7,8.5,2.1s4.3,3.3,5.7,5.8c1.3,2.5,2,5.2,2,8.2c0,3.1-0.7,6-2.2,8.6
			c-1.5,2.7-3.5,4.7-6,6.2S1319.2,1074.7,1315.8,1074.7z M1317.1,1071.5c2,0,3.8-0.6,5.3-1.7s2.6-2.7,3.5-4.6c0.8-1.9,1.2-4,1.2-6.2
			c0-2.5-0.5-4.9-1.5-7.1s-2.4-3.9-4.1-5.2c-1.8-1.3-3.8-2-6.1-2c-1.9,0-3.6,0.5-5.1,1.5s-2.7,2.5-3.6,4.5s-1.4,4.2-1.4,6.4
			c0,2.5,0.5,4.9,1.5,7.1s2.4,4,4.1,5.3C1312.8,1070.9,1314.8,1071.5,1317.1,1071.5z"/>
	</g>
	<g>
		<path class="st0" d="M618.5,920.8c-3.7-0.1-6.5-1.5-8.4-4c-2-2.5-2.5-5.4-1.7-8.6c1.3-5.8,4.8-9.4,10.5-11
			c5.1-1.1,9.9-1.4,14.7-0.8c4.7,0.6,9.4,0.7,14,0.4c4.6,0,7.4,1,8.3,3c0.9,2,0.7,4.6-0.5,7.8c-1.3,4.6-2.1,9.8-2.4,15.4
			c-0.4,5.6-0.5,11.4-0.4,17.2s0.2,11.5,0.4,17.1s0.2,10.6,0.1,15.3c0.1,2.1,0.7,3.9,1.8,5.4s2.4,2.8,3.9,3.9c2,1.7,2.7,3.4,2.1,5.3
			c-0.4,1.1-1.1,1.8-1.9,2.1c-0.8,0.3-1.7,0.5-2.5,0.6c-3.1,0.3-6,0.5-8.9,0.5c-2.8,0.1-5.6,0-8.4-0.3c-2.3-0.3-4.3-0.8-6.1-1.5
			s-3.1-2.2-3.8-4.6c-2.8,0.7-5.5,1.5-8,2.5s-5.1,1.6-7.8,1.9c-3.5,0.4-7.1,0.8-10.8,1.1s-7.3,0.2-11-0.2s-7.2-1.2-10.5-2.4
			c-3.4-1.2-6.5-3-9.3-5.4c-4.6-4.5-7.7-9.3-9.1-14.5c-1.4-5.2-2.1-10.7-2.1-16.4c0-5.8,0.2-11.7,0.6-17.8
			c0.4-6.1,0.1-12.3-0.8-18.7c-0.3-1.5-0.7-3-1.4-4.4c-0.6-1.4-1.7-2.7-3.1-3.8c-0.7-0.6-1.3-1.2-1.9-1.8c-0.6-0.6-0.6-1.4,0-2.2
			c0.3-0.7,0.8-1.2,1.7-1.6c0.8-0.3,1.6-0.7,2.3-0.9c0.8-0.4,2.7-0.8,5.6-1.1c2.9-0.3,6-0.4,9.4-0.4s6.6,0.1,9.6,0.2
			c3,0.1,5.1,0.4,6.2,0.8c1.5,0.7,2.4,1.7,2.6,3c0.2,1.3-0.4,2.3-1.8,3.2c-2.2,1.4-3.6,3.1-4,5.1s-0.6,4-0.6,6.1
			c0,4.1-0.1,8.4-0.4,13.1c-0.3,4.6-0.4,9.2-0.4,13.8s0.2,9,0.6,13.2c0.4,4.2,1.4,8,2.8,11.3c1.5,3.3,3.5,6,6.2,8s6.3,3.1,10.8,3.3
			c4.4,0.7,8.3,0.6,11.7-0.4s7.1-2.5,10.9-4.4c1.3-0.7,1.9-2,1.9-3.8c0.1-10.7,0.3-20.6,0.6-29.7c0.3-9.1-0.1-18.6-1.3-28.5
			c-0.6-3.5-2.7-5.6-6.3-6.3c-1.5-0.3-3-0.1-4.4,0.6c-1.4,0.7-2.5,1.8-3.2,3.2c-1.5,3-1.2,5.9,1.1,8.9c0.3,0.4,0.6,0.8,1.1,1.2
			C617.2,919.6,617.8,920.1,618.5,920.8z"/>
		<path class="st0" d="M681.1,908.4c-0.8,0.1-1.6,0.2-2.2,0.1c-0.6-0.1-1.2-0.2-1.7-0.3s-1-0.2-1.5-0.2s-1.2,0.1-2,0.2
			c-1.4,0.4-2.8,1-4.1,1.8s-2.8,1.5-4.5,2.2c-0.3-2.2-0.5-4.3-0.6-6.2s0-3.8,0.4-5.8c0.3-0.8,0.7-1.4,1.4-1.6c0.6-0.2,1.3-0.3,2-0.3
			c2.8,0,5.2-0.1,7.2-0.3s4.1-0.3,6.5-0.3c0-4.1-0.1-7.8-0.4-11.1c-0.3-3.3-1.2-6.6-2.7-9.8c-0.6-1.8-0.6-3.3-0.2-4.3
			c0.4-1.1,1.5-1.9,3.4-2.6c3.9-1.4,7.8-2.8,11.5-4.2s7.4-2.8,11.1-4.2c0.7-0.3,1.4-0.5,2.2-0.7s1.4,0.1,2,0.9
			c0.7,1.3,0.7,2.7,0,4.2c-1.5,3.9-2.8,8.8-3.8,14.7c-1,5.8-1.3,11.5-1.1,17c1.7,0,3.5,0,5.5-0.1s3.9-0.3,5.9-0.7s3.8-1.1,5.5-1.9
			c1.7-0.8,3.2-2,4.4-3.4c1.1,0.6,1.7,1.3,1.7,2.1s0,1.7,0,2.5c0.3,3.5-0.3,6.5-1.7,9s-3.8,3.9-7.2,4.3c-2,0.3-4.2,0-6.7-0.9
			s-4.7-1.3-6.5-1.2c-0.4,10.7-0.5,21.4-0.1,32c0.4,10.7,0.7,21.3,0.9,31.8c0.3,2.3,1,3.9,2.1,5.1c1.1,1.1,2.5,1.7,4,1.7
			c1.5-0.1,3.1-0.9,4.5-2.3c1.5-1.4,2.4-3,2.6-4.8c0.1-0.6,0.2-1.1,0.1-1.6c-0.1-0.5-0.1-1-0.1-1.6c-0.6-2.8-1.8-3.9-3.7-3.2
			s-3.2,2.1-3.9,4.2c-0.8-2.1-1.1-3.8-0.8-5.2c0.3-1.3,1.1-2.6,2.3-3.7c1.3-1,2.7-1.4,4.4-1.3c1.7,0.1,3.2,0.8,4.4,1.9
			c1.8,1.5,3.2,3.7,4,6.4s1.1,5.5,0.7,8.3c-0.4,2.8-1.3,5.4-2.7,7.8c-1.5,2.4-3.6,4.1-6.4,5.1c-2,0.6-4.1,1-6.3,1.3
			c-2.3,0.3-4.5,0.5-6.9,0.5c-2.3,0.1-4.5,0.1-6.6,0s-4-0.2-5.7-0.5c-2.1-0.1-3.9-1-5.3-2.5c-1.4-1.5-2.6-3.3-3.5-5.2
			s-1.6-3.8-2-5.8s-0.6-3.5-0.6-4.6L681.1,908.4z"/>
		<path class="st0" d="M782.5,917c0.8,2,1.1,3.5,0.6,4.6c-0.4,1.1-1.2,2.1-2.3,3c-4.8,3.5-9.9,3.3-15.2-0.6
			c-0.3,0.7-0.5,1.3-0.6,1.7s-0.2,0.9-0.2,1.5v36.5c0,3.4,0.6,6.8,1.8,10.2s2.8,6.6,4.7,9.4l0.6,1.3c1.7,3.5,0.6,5.5-3.4,5.9
			c-5.9-0.3-11.4-0.5-16.6-0.5c-5.2-0.1-10.5-0.1-15.8-0.1c-3.2-0.3-4.3-2-3.2-5.3l0.8-1.5c2-2.5,3.7-5.3,5.3-8.4
			c1.5-3.1,2.4-6.1,2.5-9.1c0.4-8.1,0.8-15.9,1.2-23.2c0.3-7.3,0.6-14.4,0.7-21.4c0.1-7,0.1-13.8-0.1-20.7c-0.2-6.8-0.7-13.8-1.4-21
			c-0.3-2.5-1.2-5.4-2.6-8.7c-1.5-3.3-3.4-5.7-5.8-7.3c-1.5-1.1-2.2-2.4-1.9-3.7s1.3-2.4,3-3.1l23.9-9.7c5.2-2.1,7.7-0.3,7.7,5.3
			c0,2.3-0.1,4.5-0.4,6.6c-0.3,2.2-0.6,4.3-0.8,6.4c-0.6,5.9-0.8,11.7-0.7,17.4s0.2,11.5,0.3,17.4c2.7-2.8,6.2-5.1,10.7-6.9
			c4.4-1.8,9.1-2.7,14.1-2.8c4.9-0.1,9.9,0.7,14.8,2.4c4.9,1.8,9.3,4.7,13.1,8.9c3.8,4.1,6.8,9.6,9,16.3s3,15,2.4,24.9
			c0.4,4.9,0.7,9.8,0.7,14.5c0.1,4.8,0.1,9.6,0.1,14.5c0,2.5,0.3,4.9,1.1,7c0.7,2.1,2.2,3.8,4.6,5.1c0.1,0,0.2,0,0.2,0.1
			s0.1,0.1,0.2,0.1c0.6,0.6,1.1,1.1,1.7,1.7c0.6,0.6,0.6,1.3,0,2.1c-0.3,0.4-0.7,0.8-1.4,1.1c-0.6,0.3-1.3,0.5-2,0.6
			c-1.8,0.3-4.3,0.5-7.3,0.7s-6.1,0.3-9.4,0.3c-3.2,0-6.4-0.1-9.5-0.4c-3.1-0.3-5.6-0.6-7.4-1.1c-1.1-0.3-1.8-0.8-2-1.6
			s0-1.6,0.7-2.4l1.1-0.8c2.4-1.5,3.9-3.4,4.5-5.7c0.6-2.2,0.9-4.6,0.9-7.2c0-2.8,0.1-6.4,0.4-10.6c0.3-4.3,0.4-8.9,0.3-13.7
			c-0.1-4.8-0.4-9.8-0.9-14.8c-0.6-5-1.7-9.5-3.3-13.6s-3.9-7.5-6.7-10.2c-2.9-2.7-6.6-4.4-11.3-5c-4.5-0.4-8.2,0.8-11.2,3.8
			c-1.8,1.7-2.7,3.7-2.6,6.1c0.1,2.4,1,4.4,2.8,5.9c2.4,2.3,4.9,2.3,7.6,0L782.5,917z"/>
		<path class="st0" d="M1038.2,868.5c-1.5,2.3-2.8,3.6-3.9,4.1s-2.4,0.2-4.1-0.7c-2.4-1.3-4.1-3.4-5.3-6.5c-1.1-3.1-1.3-6.4-0.6-9.9
			c1.5-7.7,5.4-12.6,11.6-14.8c4.9-1.5,9.8-2.5,14.8-2.8c4.9-0.3,9.8-0.7,14.8-1.2c5.3-0.6,7.5,2.3,6.5,8.4
			c-2.1,12.6-5.2,25.4-9.3,38.3c-4.1,12.9-8.8,25.5-14.1,38.1c-5.3,12.5-11.1,24.6-17.3,36.4c-6.2,11.7-12.4,22.9-18.8,33.4
			c-1.1,2-2.6,3.1-4.3,3.3c-1.8,0.2-3.2-0.6-4.3-2.4c-4.2-13.8-8.2-27.8-11.9-42.1s-8.3-28.1-13.6-41.6c-6.4,14.5-12.4,28.5-18,42
			s-11.6,27.1-17.9,40.7c-1.3,2.8-3.1,4-5.5,3.5s-4.3-2.1-5.7-4.7c-4.1-9.1-7.6-18-10.5-26.5c-3-8.5-5.7-17.1-8.1-25.8
			c-2.5-8.7-4.7-17.8-6.9-27.3c-2.1-9.5-4.4-19.9-7-31.1c-0.6-2.5-1.2-5.2-1.8-8.1c-0.6-2.9-1.4-5.6-2.4-8.2c-1-2.6-2.1-4.9-3.4-7
			c-1.3-2-2.7-3.4-4.4-4.1c-1.1-1-2-2.1-2.6-3.4c-0.6-1.3-0.9-2.5-0.8-3.7c0.1-1.2,0.5-2.2,1.4-3.1c0.8-0.8,2.1-1.5,3.8-1.9
			c7.4,0,15-0.1,22.6-0.4c7.6-0.3,14.7,0.1,21.3,1.3c1.5,0.8,2.5,1.7,3,2.6c0.4,0.9,0.5,1.9,0.2,3s-0.8,2-1.5,3
			c-0.7,0.9-1.5,1.8-2.3,2.6c-1.3,0.8-2.4,2-3.3,3.4c-0.9,1.4-1.7,3-2.2,4.7c-0.6,1.8-0.9,3.6-0.9,5.5c-0.1,1.9,0.1,3.6,0.5,5.2
			c0.6,6,1.5,12.6,2.8,19.8s3,14.4,4.9,21.7s4,14.4,6.3,21.2s4.7,12.9,7.3,18.2c3.7-7.4,7-15,10-22.6s5.9-15.2,8.7-22.9
			s5.6-15.3,8.2-23c2.7-7.7,5.5-15.2,8.4-22.7c0.6-1.1,1.4-1.8,2.4-2.1c1.1-0.3,2.1-0.3,3.1,0s1.9,0.8,2.6,1.6
			c0.8,0.8,1.2,1.7,1.4,2.6c2.1,7.7,4.1,15.1,6,22c1.9,7,3.9,13.9,6.1,20.9c2.2,7,4.5,14.1,7.1,21.5c2.5,7.4,5.4,15.3,8.6,23.7
			c2.1-2.7,4.6-6.5,7.6-11.5s5.8-10.4,8.6-16.3c2.8-5.9,5.3-12,7.6-18.2c2.2-6.3,3.7-11.9,4.4-17c0.4-3.1,0.9-6.3,1.4-9.7
			s0.6-6.6,0.3-9.7c-0.3-3.1-1-5.8-2.2-8.1s-3.3-4-6.2-5.2c-1.3-0.6-2.6-0.6-3.9-0.2c-1.3,0.4-2.5,1.1-3.5,2.1s-1.8,2.2-2.3,3.6
			c-0.6,1.4-0.8,2.7-0.8,4C1031,868.5,1033.4,869.8,1038.2,868.5z"/>
		<path class="st0" d="M1078.5,989.5c-2.8-0.7-4.4-1.7-4.7-3.1c-0.4-1.3,0.6-2.8,2.8-4.3c2.7-1.7,4-4.2,4-7.6
			c0-5.3,0.1-10.2,0.2-14.5c0.1-4.4,0.2-8.5,0.3-12.4c0.1-3.9,0.2-7.8,0.3-11.6c0.1-3.8,0.2-7.7,0.2-11.8c-0.1-3-0.6-5.6-1.5-8
			c-0.8-2.4-2.5-4.5-5.1-6.3c-1.5-1.1-2.2-2.4-2-3.7s1.3-2.4,3.3-3.1c4.1-1.8,8-3.7,11.7-5.7s7.6-3.5,11.5-4.6
			c2.7-0.6,4.4,0.1,5.3,2.1c0.8,2,0.9,3.9,0.2,5.9c-0.8,6.3-1.3,12.3-1.5,18c-0.1,5.7-0.2,11.4-0.1,17s0.2,11.3,0.3,17
			c0.1,5.7,0.2,11.7,0.2,18c0.3,2.3,0.8,4.3,1.5,6.1s2,3.4,4,4.8c2.2,1.8,3,3.6,2.1,5.3c-0.8,1.7-2.4,2.5-4.6,2.5
			c-6,0-10.9,0-14.5,0c-3.7,0-6.5,0-8.4,0c-2,0-3.3,0-4.1,0C1079.1,989.5,1078.6,989.5,1078.5,989.5z M1074,885.8l8.4-13.5
			c1.1-1.8,2.3-3.7,3.6-5.5c1.3-1.8,2.6-3.6,4-5.3c1.1-1.3,2.4-2.2,3.8-2.8s3-0.6,4.6,0.1c1.7,0.7,2.9,1.7,3.6,3s1.2,2.7,1.5,4.4
			c0.1,1.4,0.1,3-0.2,4.6c-0.3,1.7-0.8,3.3-1.7,5c-0.8,1.6-2,3.1-3.4,4.3c-1.4,1.3-3,2.2-4.9,2.7c-3.2,1.1-6.4,1.8-9.6,2.1
			C1080.7,885.3,1077.4,885.5,1074,885.8z"/>
		<path class="st0" d="M1152.3,974.2c0,1.5,0.6,3,1.8,4.4c1.2,1.4,2.4,2.7,3.7,4c2,1.8,2.5,3.4,1.6,4.7s-2.3,2.2-4.1,2.6
			c-4.5,0.7-9.6,0.8-15.3,0.4c-5.7-0.4-10.7-0.8-15.1-1.3c-2.2-0.3-3.6-1.3-4.1-3s0.2-3.2,2.2-4.4c3.7-2.5,5.4-6,5.3-10.3l0.2-93.6
			c-0.3-1.1-0.7-1.8-1.4-2.1c-0.6-0.3-1.4-0.3-2.2-0.2c-0.8,0.1-1.7,0.2-2.6,0.3s-1.7-0.2-2.4-0.7c-1.5-1.1-2.3-2.5-2.3-4
			s0.8-2.9,2.3-4c3.7-2.5,7.3-5.1,10.9-7.6s7.2-5,10.9-7.4c2.7-2,5-2.4,7.1-1.2c2,1.2,3.1,3.2,3.1,6L1152.3,974.2z"/>
		<path class="st0" d="M1199.7,974.2c0,1.5,0.6,3,1.8,4.4c1.2,1.4,2.4,2.7,3.7,4c2,1.8,2.5,3.4,1.6,4.7s-2.3,2.2-4.1,2.6
			c-4.5,0.7-9.6,0.8-15.3,0.4c-5.7-0.4-10.7-0.8-15.1-1.3c-2.2-0.3-3.6-1.3-4.1-3s0.2-3.2,2.2-4.4c3.7-2.5,5.4-6,5.3-10.3l0.2-93.6
			c-0.3-1.1-0.7-1.8-1.4-2.1c-0.6-0.3-1.4-0.3-2.2-0.2c-0.8,0.1-1.7,0.2-2.6,0.3s-1.7-0.2-2.4-0.7c-1.5-1.1-2.3-2.5-2.3-4
			s0.8-2.9,2.3-4c3.7-2.5,7.3-5.1,10.9-7.6s7.2-5,10.9-7.4c2.7-2,5-2.4,7.1-1.2c2,1.2,3.1,3.2,3.1,6L1199.7,974.2z"/>
		<path class="st0" d="M1217.4,989.5c-2.8-0.7-4.4-1.7-4.7-3.1c-0.4-1.3,0.6-2.8,2.8-4.3c2.7-1.7,4-4.2,4-7.6
			c0-5.3,0.1-10.2,0.2-14.5c0.1-4.4,0.2-8.5,0.3-12.4c0.1-3.9,0.2-7.8,0.3-11.6c0.1-3.8,0.2-7.7,0.2-11.8c-0.1-3-0.6-5.6-1.5-8
			c-0.8-2.4-2.5-4.5-5.1-6.3c-1.5-1.1-2.2-2.4-2-3.7s1.3-2.4,3.3-3.1c4.1-1.8,8-3.7,11.7-5.7s7.6-3.5,11.5-4.6
			c2.7-0.6,4.4,0.1,5.3,2.1c0.8,2,0.9,3.9,0.2,5.9c-0.8,6.3-1.3,12.3-1.5,18c-0.1,5.7-0.2,11.4-0.1,17s0.2,11.3,0.3,17
			c0.1,5.7,0.2,11.7,0.2,18c0.3,2.3,0.8,4.3,1.5,6.1s2,3.4,4,4.8c2.2,1.8,3,3.6,2.1,5.3c-0.8,1.7-2.4,2.5-4.6,2.5
			c-6,0-10.9,0-14.5,0c-3.7,0-6.5,0-8.4,0c-2,0-3.3,0-4.1,0C1218,989.5,1217.5,989.5,1217.4,989.5z M1213,885.8l8.4-13.5
			c1.1-1.8,2.3-3.7,3.6-5.5c1.3-1.8,2.6-3.6,4-5.3c1.1-1.3,2.4-2.2,3.8-2.8s3-0.6,4.6,0.1c1.7,0.7,2.9,1.7,3.6,3s1.2,2.7,1.5,4.4
			c0.1,1.4,0.1,3-0.2,4.6c-0.3,1.7-0.8,3.3-1.7,5c-0.8,1.6-2,3.1-3.4,4.3c-1.4,1.3-3,2.2-4.9,2.7c-3.2,1.1-6.4,1.8-9.6,2.1
			C1219.6,885.3,1216.3,885.5,1213,885.8z"/>
		<path class="st0" d="M1319,982c-5.1,4.9-10.4,8.2-16.1,9.8s-11.3,1.9-16.8,0.7c-5.5-1.1-10.6-3.4-15.4-6.9
			c-4.8-3.4-8.7-7.7-11.9-12.8c-3.2-5.1-5.2-10.8-6.2-17.3s-0.5-13.2,1.5-20.2c4.4-15.5,13.5-26.6,27.4-33.5
			c8-3.8,16.5-5.3,25.5-4.4c4.4,0.4,8.6,1.2,12.9,2.2c4.2,1.1,8.3,2.8,12.2,5.2c0.6,0.3,1.2,0.4,1.8,0.4c0.6,0,1.2-0.1,1.8-0.2
			c2.2-0.6,4.4-1.2,6.3-1.8c2-0.6,4.1-0.9,6.3-0.9c3.2,0.7,4.1,2.4,2.7,5.1c-1.4,3-3.1,5.6-5.2,8c-2,2.4-3.3,5.2-3.9,8.4v47.4
			c-0.1,2.3,0.1,3.8,0.7,4.5c0.6,0.8,1.4,1.1,2.4,0.8c1-0.2,2-0.7,3.2-1.5c1.1-0.8,2.1-1.5,3-2.2c0.4,0.4,1,1.1,1.8,1.9
			c0.8,0.8,0.9,1.9,0.3,3.2c-1.8,3.2-4.6,6.1-8.3,8.6c-3.7,2.5-7.5,4.2-11.4,5.1c-3.9,0.8-7.2,0.6-10.1-0.7
			C1320.7,989.6,1319.2,986.6,1319,982z M1326.4,910.5c-4.1-1.1-8.3-1.9-12.5-2.2c-4.3-0.3-8.4-0.1-12.4,0.8
			c-4,0.9-7.8,2.6-11.3,5.1s-6.6,5.9-9.3,10.4c-2.1,4.6-3.4,9.9-4,15.9s-0.1,11.7,1.3,17.1c1.4,5.4,3.9,10.1,7.6,13.9
			c3.7,3.9,8.6,6,15,6.4c3.5,0.7,6.8,0,9.9-2s5-4.9,5.7-8.5c0.6-2.5,0.2-4.4-1.1-5.7c-1.3-1.3-2.8-1.9-4.7-1.9
			c-1.9,0-3.8,0.6-5.6,1.9c-1.8,1.3-3,3.2-3.6,5.7c-0.6-2.8-0.4-5,0.4-6.6s1.9-3.1,3.2-4.5c2-2.4,4.2-3.4,6.7-3.1
			c2.5,0.4,5.1,1.1,7.6,2.2l-0.4-29.9c-0.3-3.2,0-6.1,0.9-8.5c0.9-2.5,2.8-4.2,5.8-5.2l0.2-0.2c0.1-0.1,0.2-0.3,0.2-0.4
			C1326,911,1326.1,910.8,1326.4,910.5z"/>
		<path class="st0" d="M1429.9,904c8.4-5.3,16.7-8.2,24.9-8.4c8.1-0.3,15.3,1.6,21.4,5.6s10.8,10,14.1,17.9c3.3,7.9,4.3,17.6,3.1,29
			c-0.3,3.1-0.6,7-0.9,11.7c-0.4,4.7-0.6,9.6-0.6,14.5c-0.1,5,0.2,9.8,0.8,14.4c0.6,4.6,1.9,8.3,3.7,11.1c1.8,2.7,4.4,4.2,7.7,4.4
			c3.3,0.2,7.6-1.5,13-5.2c0.1,1.8-0.3,3.5-1.3,5.1c-1,1.5-2.3,2.9-3.8,4s-3.2,2-5,2.7s-3.4,1.1-5,1.3c-9.4,0-17-2-22.8-6
			s-9.1-9.9-10.1-17.8c-0.6-4.1-0.8-8.1-0.8-12s0.1-7.8,0.3-11.7c0.2-3.9,0.4-7.7,0.5-11.5s0.1-7.7,0-11.6c0.1-5.5-0.5-10.7-2-15.6
			c-1.5-4.9-3.6-8.8-6.3-11.7c-2.7-2.9-6.1-4.5-10.1-4.7c-4-0.3-8.5,1.5-13.6,5.3c0.7,3,1.2,6.6,1.4,11c0.2,4.4,0.3,9,0.4,14
			s0.1,10.2,0,15.5s0,10.5,0.3,15.4c0.1,2.1,0.5,4.1,1.2,5.9c0.6,1.8,1.7,3.3,3.3,4.4c1.5,1.1,2.4,2.8,2.5,5s-0.8,3.6-2.7,4.3
			c-0.3,0-0.5,0-0.6,0.1s-0.3,0.1-0.4,0.1c-1.7,0-3.7,0-6,0s-4.7,0-7.1-0.1s-4.7-0.1-7.1-0.2c-2.3-0.1-4.3-0.1-6-0.1
			c-1.1,0-2.1-0.1-3-0.4c-0.8-0.3-1.5-1.2-1.9-2.7c-0.3-1.5-0.1-2.8,0.4-3.8c0.6-1,1.2-1.9,1.9-2.7c2.2-2.2,3.4-5.3,3.4-9.1
			c-0.1-7.3-0.2-14.6-0.3-21.8c-0.1-7.2-0.2-14.5-0.5-21.8c-0.4-7.7-1.9-13.1-4.5-16c-2.6-3-6.8-3.9-12.5-2.7
			c-4.5,1.1-7.5,3.4-9.1,7c-1.5,3.5-2.3,7.6-2.3,12.2c0,8.7-0.2,16.8-0.5,24.3c-0.4,7.5-0.5,15.6-0.5,24.4c-0.4,3,0.3,5,2.1,6.1
			c0.3,0.1,0.5,0.4,0.6,0.6c0.1,0.3,0.3,0.6,0.6,0.8c0.7,1.1,0.9,2.2,0.7,3.2c-0.2,1-0.9,1.7-2,2.1c-0.8,0.3-1.5,0.4-2.1,0.4
			c-1.1,0-2.7,0-4.6,0c-2,0-4,0-6.2,0s-4.3,0-6.2-0.1c-2-0.1-3.5-0.1-4.6-0.1c-0.6,0-1.3-0.1-2.1-0.4c-0.7-0.3-1.4-0.5-2-0.7
			s-1.1-0.9-1.4-2s-0.2-2,0.3-2.5c0.5-0.6,1-1.2,1.6-1.9c0.7-0.7,1.2-1.5,1.4-2.3c0.2-0.8,0.3-1.8,0.3-2.7l1.3-63
			c0-1.7-0.4-3.7-1.2-6c-0.8-2.3-1.7-4.2-2.8-5.6c-1-1.1-1.4-2.3-1.2-3.6c0.2-1.3,0.9-2.2,2.2-2.7c1-0.4,2.5-0.8,4.4-1.2
			c2-0.3,4-0.7,6.2-1.1c2.2-0.3,4.2-0.7,6.2-1.1c2-0.4,3.5-0.7,4.6-0.9c1.1-0.3,2.1,0.1,3,1.1c0.8,1,1.4,2.3,1.7,3.8
			c0.1,0.8,0.2,2.1,0.3,3.8c0.1,1.7,0.2,3,0.5,4c2.5-2.7,5.6-5,9.1-7s7.2-3.2,11-3.6c3.8-0.4,7.6,0.1,11.4,1.5
			C1423.6,896.9,1427,899.7,1429.9,904z"/>
	</g>
	<path class="st0" d="M547.8,963.4c-1.7-2.8-3.8-5-6.2-6.5c-2.5-1.5-5.1-2.2-7.9-2.1c-2.8,0.1-5.3,1.3-7.6,3.6c2,0,3.9,0.2,5.9,0.6
		c2,0.4,3.4,1.8,4.2,4.2c1,2.1,1.3,4.2,1.1,6.3c-0.3,2.1-1,4.1-2.1,5.9c-1.1,1.8-2.6,3.4-4.4,4.8c-1.8,1.4-3.8,2.5-5.9,3.2
		c-5.9,1.3-11.7,0.8-17.3-1.3c-5.6-2.1-11.1-5.1-16.4-9s-10.4-8.3-15.3-13.2c-4.8-4.9-9.4-9.6-13.6-13.9c5.5-0.1,11.2-0.4,17.3-0.8
		c6-0.4,12-1.2,18-2.3s11.8-2.7,17.4-4.7c5.6-2,10.7-4.8,15.3-8.3s8.5-7.9,11.7-13.1c3.2-5.2,5.4-11.5,6.5-18.8
		c0.8-6.5,0.1-12.5-2.2-18c-2.3-5.6-5.6-10.5-9.7-15c-4.1-4.4-8.9-8.3-14.3-11.5c-5.4-3.2-10.9-5.7-16.6-7.4
		c-6.3-2.2-13.1-3.9-20.2-4.8c-7.2-1-14.6-1.6-22.2-1.8c-7.7-0.2-15.5-0.2-23.4-0.1c-7.9,0.1-15.8,0.1-23.5,0
		c-1.5,0-3.1-0.1-4.5-0.2c-1.5-0.1-3-0.1-4.5,0c-1.1,0-1.9,0.2-2.4,0.7s-0.7,1.1-0.6,1.7c0.1,0.6,0.3,1.3,0.7,2.1
		c0.4,0.8,1,1.4,1.7,1.8c1.8,1.5,3.4,3.4,4.6,5.5c1.3,2.1,2,4.5,2.1,7.2l-0.2,113.6c0.1,3-0.1,5.7-0.8,8.2c-0.7,2.5-2.4,4.6-5.1,6.3
		l-0.8,0.6c-0.7,1.5-1.1,2.8-1.3,3.8c-0.1,1,0.9,1.8,3.2,2.3c1.7,0.4,4.4,0.7,8.1,0.9s7.7,0.3,11.8,0.3c4.1,0,8.2-0.1,12-0.2
		c3.9-0.1,6.8-0.4,8.7-0.6c1.1,0,2-0.3,2.6-0.9c0.6-0.6,1-1.4,1.2-2.3c0.1-0.9,0-1.8-0.3-2.7c-0.4-0.9-0.9-1.6-1.6-2.2
		c-2-1.1-3.4-2.5-4.4-4.2s-1.7-3.5-2.1-5.5c-1.1-4.8-1.6-9.6-1.5-14.3c0.1-4.8,0.1-9.6,0-14.5c3.9-0.1,6.3-0.2,7.2-0.2
		c0.6,0,1,0,1.1,0c3.2,6.7,7.2,14.1,12,22s10.1,15.1,16,21.4c5.5,5.9,11.6,10.6,18.3,14.1c6,3.2,12.2,4.7,18.4,4.3
		c6.3-0.4,12-2.1,17.2-5.2c5.2-3.1,9.4-7.3,12.6-12.5c3.2-5.3,4.8-11.2,4.6-17.8C550.4,969.4,549.5,966.2,547.8,963.4z M531.4,879
		l9.5,13.6l-9.5,13.6l-9.5-13.6L531.4,879z M442.2,931.6v-79.1c6.9-0.4,13.8-0.6,20.7-0.4c6.9,0.1,14.1,1.2,21.7,3.2
		c7,1.5,12.9,4.1,17.6,7.6s8.3,7.6,10.6,12.1c2.4,4.6,3.7,9.4,3.9,14.4c0.2,5.1-0.6,10-2.5,14.9c-1.9,4.8-4.8,9.3-8.7,13.3
		c-3.9,4-8.9,7.2-14.8,9.6c-3,1.3-6.5,2.3-10.6,3.2c-4.1,0.8-8.5,1.4-13,1.8c-4.5,0.4-8.9,0.5-13.3,0.4
		C449.5,932.4,445.6,932.1,442.2,931.6z"/>
	<path class="st0" d="M1084.9,556c-2.9-4.8-6.4-8.4-10.5-11.1c-4.2-2.6-8.6-3.8-13.4-3.6s-9,2.3-12.8,6.1c3.3,0,6.7,0.4,10,1.1
		c3.3,0.7,5.7,3.1,7.1,7.1c1.7,3.6,2.3,7.1,1.8,10.7c-0.5,3.6-1.7,6.9-3.6,10s-4.4,5.8-7.5,8.2s-6.4,4.2-10,5.4
		c-10,2.1-19.7,1.4-29.3-2.1c-9.5-3.6-18.8-8.6-27.8-15.2c-9-6.5-17.7-14-25.9-22.3s-15.9-16.2-23-23.5c9.3-0.2,19-0.7,29.3-1.4
		c10.2-0.7,20.4-2,30.5-3.9s19.9-4.6,29.4-8c9.5-3.4,18.1-8.1,25.9-14.1c7.7-5.9,14.3-13.3,19.8-22.1c5.5-8.8,9.2-19.4,11.1-31.8
		c1.4-10.9,0.2-21.1-3.7-30.5c-3.9-9.4-9.4-17.8-16.4-25.3s-15.1-14-24.3-19.4c-9.2-5.5-18.5-9.6-28-12.5
		c-10.7-3.8-22.1-6.5-34.3-8.2c-12.1-1.7-24.7-2.7-37.6-3c-13-0.4-26.2-0.4-39.6-0.2c-13.4,0.2-26.7,0.2-39.8,0
		c-2.6,0-5.2-0.1-7.7-0.4c-2.5-0.2-5.1-0.2-7.7,0c-1.9,0-3.3,0.4-4.1,1.2c-0.8,0.8-1.2,1.8-1.1,2.9c0.1,1.1,0.5,2.3,1.2,3.6
		c0.7,1.3,1.7,2.3,2.9,3c3.1,2.6,5.7,5.7,7.9,9.3c2.1,3.6,3.3,7.6,3.6,12.1l-0.4,192.3c0.2,5-0.2,9.6-1.4,13.9
		c-1.2,4.3-4,7.9-8.6,10.7l-1.4,1.1c-1.2,2.6-1.9,4.8-2.1,6.4c-0.2,1.7,1.5,3,5.4,3.9c2.9,0.7,7.4,1.2,13.7,1.6
		c6.3,0.4,13,0.5,20,0.5s13.8-0.1,20.3-0.4c6.5-0.2,11.5-0.6,14.8-1.1c1.9,0,3.4-0.5,4.5-1.6s1.7-2.4,2-3.9c0.2-1.5,0.1-3.1-0.5-4.6
		s-1.5-2.8-2.7-3.7c-3.3-1.9-5.8-4.3-7.5-7.1c-1.7-2.9-2.9-5.9-3.6-9.3c-1.9-8.1-2.7-16.2-2.5-24.3s0.2-16.3,0-24.6
		c6.7-0.2,10.7-0.4,12.1-0.4c1,0,1.6,0,1.8,0c5.5,11.4,12.2,23.9,20.3,37.3c8.1,13.4,17.1,25.5,27.1,36.2c9.3,10,19.6,18,31,23.9
		c10.2,5.5,20.6,7.9,31.2,7.3c10.6-0.6,20.3-3.5,29.1-8.7c8.8-5.2,15.9-12.3,21.4-21.2s8.1-19,7.9-30.2
		C1089.2,566.1,1087.8,560.8,1084.9,556z M1056.6,411.5l16.8,24.1l-16.8,24.1l-16.8-24.1L1056.6,411.5z M925.8,503.8
		c-7.4-0.1-13.9-0.7-19.6-1.6V368.3c11.7-0.7,23.3-0.9,35-0.7c11.7,0.2,23.9,2,36.8,5.4c11.9,2.6,21.8,6.9,29.8,12.8
		s14,12.8,18,20.5c4,7.7,6.2,15.9,6.6,24.4c0.4,8.6-1.1,16.9-4.3,25.2c-3.2,8.2-8.2,15.7-14.8,22.5c-6.7,6.8-15,12.2-25,16.2
		c-5,2.1-11,3.9-18,5.4c-7,1.4-14.3,2.4-21.9,3C940.6,503.6,933.1,503.9,925.8,503.8z"/>
</g>
</svg>
