<?xml version="1.0" encoding="utf-8"?>
<!-- Generator: Adobe Illustrator 26.0.3, SVG Export Plug-In . SVG Version: 6.00 Build 0)  -->
<svg version="1.1" xmlns="http://www.w3.org/2000/svg" xmlns:xlink="http://www.w3.org/1999/xlink" x="0px" y="0px"
	 viewBox="0 0 1920 1312" style="enable-background:new 0 0 1920 1312;" xml:space="preserve">
<style type="text/css">
	.st0{display:none;}
	.st1{display:inline;opacity:0.3;}
	.st2{fill:#FF31C0;}
	.st3{display:inline;fill:#783BFF;}
	.st4{display:inline;}
	.st5{fill:#783BFF;}
	.st6{display:inline;opacity:0.3;fill:#783BFF;enable-background:new    ;}
	.st7{display:inline;fill:#FF31C0;}
	.st8{fill:#FFFFFF;}
	.st9{opacity:0.5;fill:#FFFFFF;}
	.st10{opacity:0.3;fill:#FFFFFF;}
	.st11{opacity:0.6;fill:#FFFFFF;}
	.st12{display:inline;opacity:0.5;fill:#783BFF;}
	.st13{display:inline;fill:#FFFFFF;}
	.st14{display:inline;opacity:0.3;fill:#FF31C0;}
</style>
<g id="Galaxy_Smurfs_C" class="st0">
</g>
<g id="Layer_2">
	<path class="st8" d="M1571.7,372.9v220.2h-87.2l25.7-16V372.9h-77.4v233.9c0,26.8,21.7,48.5,48.5,48.5h90.3V674H1432v69.9h139.7h10
		c37.2,0,67.3-30.1,67.3-67.3V372.9H1571.7z"/>
	<polygon class="st8" points="925.3,674.1 807.8,674.1 832.7,658.5 832.7,372.9 756.6,372.9 756.6,743.9 925.3,743.9 	"/>
	<polygon class="st8" points="562.5,989.1 588.4,976.4 601.1,950.4 613.9,976.4 639.8,989.1 613.9,1001.8 601.1,1027.8 
		588.4,1001.8 	"/>
	<polygon class="st8" points="1268.8,322.1 1294.7,309.4 1307.4,283.5 1320.2,309.4 1346.1,322.1 1320.2,334.9 1307.4,360.8 
		1294.7,334.9 	"/>
	<polygon class="st9" points="867.4,583.1 880.4,576.7 886.7,563.8 893.1,576.7 906.1,583.1 893.1,589.5 886.7,602.4 880.4,589.5 	
		"/>
	<polygon class="st9" points="940.2,801.4 953.1,795 959.5,782.1 965.9,795 978.8,801.4 965.9,807.8 959.5,820.7 953.1,807.8 	"/>
	<path class="st8" d="M496.3,433.1v-60.2H340.6c-39,0-70.7,31.6-70.7,70.7v229.6c0,39,31.6,70.7,70.7,70.7h155.7V603h-18.5h-58.8
		h-38.7v51.9h38.7V674h-96.3l24.7-15.5V443.2h63.1v43.5L496.3,433.1z"/>
	<path class="st8" d="M587.1,372.9l-67.5,371H595l11.5-89.1h39.8l11.5,89.1h75.5l-68-371H587.1z M590.3,603l25.8-16.1l10.3-79.8
		L640,603H590.3z"/>
	<path class="st8" d="M1015.8,372.9l-67.5,371h75.5l11.5-89.1h39.8l11.5,89.1h75.5l-68-371H1015.8z M1019.1,603l25.8-16.1l10.3-79.8
		l13.6,95.9H1019.1z"/>
	<path class="st8" d="M578.4,848.3h-16.3l12.4-7.8l-31.8-61.7h-16.4v159.5h31.8v-73.9l15.5,30.3c2,4,7.8,4,9.8,0l15.5-30.3v73.9
		h31.8V778.8h-17.7L578.4,848.3z"/>
	<path class="st8" d="M829.2,902.7c0,3.3-2.7,6-6,6H814h-5.4h-10.3l10.3-7.9v-122h-30v133c0,14.6,11.8,26.4,26.4,26.4h27.8
		c14.6,0,26.4-11.8,26.4-26.4v-133h-30V902.7z"/>
	<path class="st8" d="M332.3,778.8h-28.7c-16.5,0-29.8,13.3-29.8,29.8v7.8v19.3c0,15.2,13.9,27.3,34.9,36.3
		c21.1,9,18.8,18.4,18.8,18.4v18.4h-17.9h-5.4H294l10.3-6v-12.3h-30.5v10.7v7.4c0,16.5,13.3,29.8,29.8,29.8h28.7
		c16.5,0,29.8-13.3,29.8-29.8v-18.1c0-26.9-11.6-35.4-26.9-40.8c-15.2-5.4-26.4-12.5-26.4-24.2v-9.2V816v-3.4c0-3.1,2.5-5.6,5.6-5.6
		h12.1c3.1,0,5.6,2.5,5.6,5.6v12.8h30v-16.8C362.1,792.2,348.8,778.8,332.3,778.8z"/>
	<path class="st8" d="M1097.1,888.6h-4.9c11.6,0,21.1-9.4,21.1-21.1v-67.6c0-11.6-9.4-21.1-21.1-21.1H1031v159.5h31.6v-45.2
		c0,0,21.9-1.7,23.2,45.2h32.3C1118.1,893.9,1097.1,888.6,1097.1,888.6z M1085.9,854.8c0,4.3-3.5,7.8-7.8,7.8h-8.3h-7.2h-11.2
		l11.2-5.9v-52.7h15.5c4.3,0,7.8,3.5,7.8,7.8V854.8z"/>
	<polygon class="st8" points="1283.4,938.3 1315.2,938.3 1315.2,873.3 1333.9,873.3 1333.9,844.9 1326.2,844.9 1315.2,844.9 
		1303.8,844.9 1315.2,837.9 1315.2,809.3 1349.5,809.3 1349.5,778.8 1283.4,778.8 	"/>
	<path class="st8" d="M1594.2,778.8h-28.7c-16.5,0-29.8,13.3-29.8,29.8v7.8v19.3c0,15.2,13.9,27.3,34.9,36.3
		c21.1,9,18.8,18.4,18.8,18.4v18.4h-17.9h-5.4h-10.3l10.3-6v-12.3h-30.5v10.7v7.4c0,16.5,13.3,29.8,29.8,29.8h28.7
		c16.5,0,29.8-13.3,29.8-29.8v-18.1c0-26.9-11.6-35.4-26.9-40.8c-15.2-5.4-26.4-12.5-26.4-24.2v-9.2V816v-3.4c0-3.1,2.5-5.6,5.6-5.6
		h12.1c3.1,0,5.6,2.5,5.6,5.6v12.8h30v-16.8C1624,792.2,1610.7,778.8,1594.2,778.8z"/>
	<g>
		<path class="st8" d="M1530.8,719.4C1530.8,719.4,1530.8,719.4,1530.8,719.4C1530.8,719.4,1530.8,719.4,1530.8,719.4
			C1530.8,719.4,1530.8,719.4,1530.8,719.4z"/>
	</g>
	<path class="st10" d="M1433.3,200.1c-85.4-89.6-371.7,39.5-636,291.6s-406.6,531.9-321.2,621.4c35.3,37,104.4,36.2,192,4.8
		c-53.9,11.4-96.1,5.8-120.5-19.8c-77.4-81.2,55.8-330.3,295.4-558.8c239.5-228.5,494.6-349.7,572-268.6c24.4,25.6,28,68,14.1,121.3
		C1464.6,306,1468.6,237.1,1433.3,200.1z"/>
	<path class="st11" d="M1377,589.3c-0.6-0.8-1.2-1.6-1.8-2.4c-1.1-1.4-2.2-2.9-3.3-4.3c-8.5-10.6-18.8-21.5-29.2-31.6
		c105.8-157.4,145.4-294.1,90.3-351.8c-35.3-37-104.4-36.2-192-4.8c53.9-11.4,96.1-5.8,120.5,19.8c47.1,49.4,16.1,161-69.2,292.3
		c-0.6-0.5-0.7-0.5-1.2-0.9l-1.3,0c-26.4,0-40.4,0-40.4,0l30.3-18.9c0,0-22.4-36.3-22.4-113.7h-72.8c0,0-15.9,115.1,54.9,178.2
		c4.3,3.8,8.8,7.6,13.8,11.6c-7.7,10.5-15.8,21.1-24.1,31.7l0,0c0,0-28.8,38.8-84.5,98.8c0,0,0,0,0.1,0
		c-15,16.2-30.6,32.4-46.7,48.5c-3.6,3.6-7.2,7.2-10.9,10.9l0,0c-6.9,6.8-13.9,13.6-21,20.3c-239.5,228.5-494.6,349.7-572,268.6
		c-24.4-25.6-28-68-14.1-121.3c-35.5,86-39.6,155-4.3,192c85.4,89.6,371.7-39.5,636-291.6c7.7-7.4,15.3-14.8,22.9-22.2
		c17.7-17.4,34.7-34.9,51.2-52.5c0,0.1,0,0.1,0.1,0.2c18.3-19.6,33.8-37,46.6-51.8c0,0,0-0.1-0.1-0.1c7.9-9.2,15.7-18.3,23.3-27.5
		c16.3-19.7,31.7-39.2,46.3-58.6c1,1.3,2,2.5,2.8,3.6c0.1-0.1,33.3,29.7,33.3,132.2h72.8C1410.8,743.9,1423.3,653.8,1377,589.3
		C1377,589.3,1377,589.3,1377,589.3z M1307.1,567.8l-9.4,19.1l-9.4-19.1l-19.1-9.4l19.1-9.4l9.4-19.1l9.4,19.1l19.1,9.4
		L1307.1,567.8z"/>
</g>
<g id="Layer_3" class="st0">
	<path class="st3" d="M1571.7,372.7v220.2h-87.2l25.7-16V372.7h-77.4v233.9c0,26.8,21.7,48.5,48.5,48.5h90.3v18.6H1432v69.9h139.7
		h10c37.2,0,67.3-30.1,67.3-67.3V372.7H1571.7z"/>
	<polygon class="st3" points="925.3,673.8 807.8,673.8 832.7,658.2 832.7,372.7 756.6,372.7 756.6,743.7 925.3,743.7 	"/>
	<polygon class="st7" points="562.5,988.8 588.4,976.1 601.1,950.2 613.9,976.1 639.8,988.8 613.9,1001.6 601.1,1027.5 
		588.4,1001.6 	"/>
	<polygon class="st7" points="1268.8,321.9 1294.7,309.1 1307.4,283.2 1320.2,309.1 1346.1,321.9 1320.2,334.6 1307.4,360.5 
		1294.7,334.6 	"/>
	<polygon class="st12" points="867.4,582.8 880.4,576.4 886.7,563.5 893.1,576.4 906.1,582.8 893.1,589.2 886.7,602.1 880.4,589.2 	
		"/>
	<polygon class="st12" points="940.2,801.1 953.1,794.7 959.5,781.8 965.9,794.7 978.8,801.1 965.9,807.5 959.5,820.4 953.1,807.5 	
		"/>
	<path class="st3" d="M496.3,432.8v-60.2H340.6c-39,0-70.7,31.6-70.7,70.7V673c0,39,31.6,70.7,70.7,70.7h155.7v-141h-18.5h-58.8
		h-38.7v51.9h38.7v19.2h-96.3l24.7-15.5V442.9h63.1v43.5L496.3,432.8z"/>
	<path class="st3" d="M587.1,372.7l-67.5,371H595l11.5-89.1h39.8l11.5,89.1h75.5l-68-371H587.1z M590.3,602.7l25.8-16.1l10.3-79.8
		l13.6,95.9H590.3z"/>
	<path class="st3" d="M1015.8,372.7l-67.5,371h75.5l11.5-89.1h39.8l11.5,89.1h75.5l-68-371H1015.8z M1019.1,602.7l25.8-16.1
		l10.3-79.8l13.6,95.9H1019.1z"/>
	<path class="st13" d="M578.4,848h-16.3l12.4-7.8l-31.8-61.7h-16.4V938h31.8v-73.9l15.5,30.3c2,4,7.8,4,9.8,0l15.5-30.3V938h31.8
		V778.6h-17.7L578.4,848z"/>
	<path class="st13" d="M829.2,902.4c0,3.3-2.7,6-6,6H814h-5.4h-10.3l10.3-7.9v-122h-30v133c0,14.6,11.8,26.4,26.4,26.4h27.8
		c14.6,0,26.4-11.8,26.4-26.4v-133h-30V902.4z"/>
	<path class="st13" d="M332.3,778.6h-28.7c-16.5,0-29.8,13.3-29.8,29.8v7.8v19.3c0,15.2,13.9,27.3,34.9,36.3
		c21.1,9,18.8,18.4,18.8,18.4v18.4h-17.9h-5.4H294l10.3-6v-12.3h-30.5v10.7v7.4c0,16.5,13.3,29.8,29.8,29.8h28.7
		c16.5,0,29.8-13.3,29.8-29.8v-18.1c0-26.9-11.6-35.4-26.9-40.8c-15.2-5.4-26.4-12.5-26.4-24.2V816v-0.2v-3.4c0-3.1,2.5-5.6,5.6-5.6
		h12.1c3.1,0,5.6,2.5,5.6,5.6v12.8h30v-16.8C362.1,791.9,348.8,778.6,332.3,778.6z"/>
	<path class="st13" d="M1097.1,888.3h-4.9c11.6,0,21.1-9.4,21.1-21.1v-67.6c0-11.6-9.4-21.1-21.1-21.1H1031V938h31.6v-45.2
		c0,0,21.9-1.7,23.2,45.2h32.3C1118.1,893.7,1097.1,888.3,1097.1,888.3z M1085.9,854.5c0,4.3-3.5,7.8-7.8,7.8h-8.3h-7.2h-11.2
		l11.2-5.9v-52.7h15.5c4.3,0,7.8,3.5,7.8,7.8V854.5z"/>
	<polygon class="st13" points="1283.4,938 1315.2,938 1315.2,873.1 1333.9,873.1 1333.9,844.6 1326.2,844.6 1315.2,844.6 
		1303.8,844.6 1315.2,837.7 1315.2,809 1349.5,809 1349.5,778.6 1283.4,778.6 	"/>
	<path class="st13" d="M1594.2,778.6h-28.7c-16.5,0-29.8,13.3-29.8,29.8v7.8v19.3c0,15.2,13.9,27.3,34.9,36.3
		c21.1,9,18.8,18.4,18.8,18.4v18.4h-17.9h-5.4h-10.3l10.3-6v-12.3h-30.5v10.7v7.4c0,16.5,13.3,29.8,29.8,29.8h28.7
		c16.5,0,29.8-13.3,29.8-29.8v-18.1c0-26.9-11.6-35.4-26.9-40.8c-15.2-5.4-26.4-12.5-26.4-24.2V816v-0.2v-3.4c0-3.1,2.5-5.6,5.6-5.6
		h12.1c3.1,0,5.6,2.5,5.6,5.6v12.8h30v-16.8C1624,791.9,1610.7,778.6,1594.2,778.6z"/>
	<g class="st4">
		<path class="st8" d="M1530.8,719.1C1530.8,719.1,1530.8,719.1,1530.8,719.1C1530.8,719.1,1530.8,719.1,1530.8,719.1
			C1530.8,719.1,1530.8,719.1,1530.8,719.1z"/>
	</g>
	<path class="st14" d="M1433.3,199.8c-85.4-89.6-371.7,39.5-636,291.6s-406.6,531.9-321.2,621.4c35.3,37,104.4,36.2,192,4.8
		c-53.9,11.4-96.1,5.8-120.5-19.8c-77.4-81.2,55.8-330.3,295.4-558.8c239.5-228.5,494.6-349.7,572-268.6c24.4,25.6,28,68,14.1,121.3
		C1464.6,305.8,1468.6,236.8,1433.3,199.8z"/>
	<path class="st7" d="M1377,589c-0.6-0.8-1.2-1.6-1.8-2.4c-1.1-1.4-2.2-2.9-3.3-4.3c-8.5-10.6-18.8-21.5-29.2-31.6
		c105.8-157.4,145.4-294.1,90.3-351.8c-35.3-37-104.4-36.2-192-4.8c53.9-11.4,96.1-5.8,120.5,19.8c47.1,49.4,16.1,161-69.2,292.3
		c-0.6-0.5-0.7-0.5-1.2-0.9l-1.3,0c-26.4,0-40.4,0-40.4,0l30.3-18.9c0,0-22.4-36.3-22.4-113.7h-72.8c0,0-15.9,115.1,54.9,178.2
		c4.3,3.8,8.8,7.6,13.8,11.6c-7.7,10.5-15.8,21.1-24.1,31.7l0,0c0,0-28.8,38.8-84.5,98.8c0,0,0,0,0.1,0
		c-15,16.2-30.6,32.4-46.7,48.5c-3.6,3.6-7.2,7.2-10.9,10.9l0,0c-6.9,6.8-13.9,13.6-21,20.3c-239.5,228.5-494.6,349.7-572,268.6
		c-24.4-25.6-28-68-14.1-121.3c-35.5,86-39.6,155-4.3,192c85.4,89.6,371.7-39.5,636-291.6c7.7-7.4,15.3-14.8,22.9-22.2
		c17.7-17.4,34.7-34.9,51.2-52.5c0,0.1,0,0.1,0.1,0.2c18.3-19.6,33.8-37,46.6-51.8c0,0,0-0.1-0.1-0.1c7.9-9.2,15.7-18.3,23.3-27.5
		c16.3-19.7,31.7-39.2,46.3-58.6c1,1.3,2,2.5,2.8,3.6c0.1-0.1,33.3,29.7,33.3,132.2h72.8C1410.8,743.7,1423.3,653.5,1377,589
		C1377,589,1377,589,1377,589z M1307.1,567.6l-9.4,19.1l-9.4-19.1l-19.1-9.4l19.1-9.4l9.4-19.1l9.4,19.1l19.1,9.4L1307.1,567.6z"/>
</g>
</svg>
