<?xml version="1.0" encoding="utf-8"?>
<!-- Generator: Adobe Illustrator 26.0.3, SVG Export Plug-In . SVG Version: 6.00 Build 0)  -->
<svg version="1.1" id="Galaxy_Smurfs" xmlns="http://www.w3.org/2000/svg" xmlns:xlink="http://www.w3.org/1999/xlink" x="0px"
	 y="0px" viewBox="0 0 1920 1312" style="enable-background:new 0 0 1920 1312;" xml:space="preserve">
<style type="text/css">
	.st0{opacity:0.3;}
	.st1{fill:#FFFFFF;}
	.st2{opacity:0.3;fill:#FFFFFF;}
</style>
<g class="st0">
	<path class="st1" d="M758.1,1127.4c-57.7,12.2-102.9,6.2-129-21.2c-82.9-86.9,59.8-353.6,316.2-598.1s529.4-374.4,612.3-287.5
		c26.1,27.4,30,72.8,15.1,129.9c38-92.1,42.3-165.9,4.6-205.5c-91.4-95.9-397.9,42.3-680.8,312.1s-435.2,569.3-343.8,665.2
		C590.4,1161.9,664.3,1161,758.1,1127.4z"/>
</g>
<polygon class="st1" points="943,781.4 822.4,781.4 847.9,765.4 847.9,472.2 769.8,472.2 769.8,853.1 943,853.1 "/>
<g>
	<path class="st1" d="M1448.2,905.9h-6.6v22.6l-4.8,2.5h4.8h3.1h3.5c1.9,0,3.4-1.5,3.4-3.4v-18.4
		C1451.5,907.4,1450,905.9,1448.2,905.9z"/>
	<path class="st1" d="M1570.5,472.2v226.1H1481l26.4-16.5V472.2H1428v229.7c0,38.2,31,69.1,69.1,69.1h73.4v118H1263v79.5h307.5h10.3
		c38.2,0,69.1-31,69.1-69.1V472.2H1570.5z M1324.3,915.1h-12.8v-5.5c0-1.3-1.1-2.4-2.4-2.4h-5.2c-1.3,0-2.4,1.1-2.4,2.4v1.4v0.1v3.9
		c0,5,4.8,8,11.3,10.3c6.5,2.3,11.5,5.9,11.5,17.4v7.8c0,7-5.7,12.7-12.7,12.7h-12.3c-7,0-12.7-5.7-12.7-12.7v-3.2v-4.6h13v5.3
		l-4.4,2.6h4.4h2.3h7.7v-7.9c0,0,1-4-8-7.9c-9-3.8-14.9-9-14.9-15.5v-8.2v-3.4c0-7,5.7-12.7,12.7-12.7h12.3c7,0,12.7,5.7,12.7,12.7
		V915.1z M1376.6,963.4H1363v-31.6l-6.6,13c-0.9,1.7-3.3,1.7-4.2,0l-6.6-13v31.6H1332v-68.2h7l13.6,26.4l-5.3,3.3h7l14.8-29.7h7.6
		V963.4z M1419.5,952.1c0,6.2-5.1,11.3-11.3,11.3h-11.9c-6.2,0-11.3-5.1-11.3-11.3v-56.9h12.8v52.2l-4.4,3.4h4.4h2.3h3.9
		c1.4,0,2.6-1.2,2.6-2.6v-53h12.8V952.1z M1451.5,963.4c-0.6-20.1-9.9-19.4-9.9-19.4v19.4h-13.5v-68.2h26.2c5,0,9,4,9,9v28.9
		c0,5-4,9-9,9h2.1c0,0,9,2.3,9,21.3H1451.5z M1500.4,908.2h-14.7v12.3l-4.9,3h4.9h4.7h3.3v12.2h-8v27.8h-13.6v-68.2h28.3V908.2z
		 M1545.2,915.1h-12.8v-5.5c0-1.3-1.1-2.4-2.4-2.4h-5.2c-1.3,0-2.4,1.1-2.4,2.4v1.4v0.1v3.9c0,5,4.8,8,11.3,10.3
		c6.5,2.3,11.5,5.9,11.5,17.4v7.8c0,7-5.7,12.7-12.7,12.7h-12.3c-7,0-12.7-5.7-12.7-12.7v-3.2v-4.6h13v5.3l-4.4,2.6h4.4h2.3h7.7
		v-7.9c0,0,1-4-8-7.9c-9-3.8-14.9-9-14.9-15.5v-8.2v-3.4c0-7,5.7-12.7,12.7-12.7h12.3c7,0,12.7,5.7,12.7,12.7V915.1z"/>
</g>
<path class="st1" d="M1577.4,145.1c-37.8-39.6-111.7-38.8-205.5-5.1c57.7-12.2,102.9-6.2,129,21.2c67.4,70.6-14.4,260.3-185.2,460.2
	c-7.2-6.1-13.1-10.2-17.2-13.4c-0.1,0.1-0.2,0.3-0.3,0.4c-27.4,0-42,0-42,0l31.1-19.4c0,0-23-37.3-23-116.8h-71.6
	c0,0-22.6,109.5,53.3,182.9c6.4,6.2,14,11.6,22.8,18.8c-26.4,28.5-54.5,57.1-84.1,85.3c-256.4,244.6-529.4,374.4-612.3,287.5
	c-26.1-27.4-30-72.8-15.1-129.9c-38,92.1-42.3,165.9-4.6,205.5c91.4,95.9,397.9-42.3,680.8-312.1c27.7-26.4,54.2-53.2,79.3-80
	c21.5,53.1,18.2,125,18.2,125h72.6c0,0,7.4-103.1-40.9-180.3C1560.2,446.9,1653.7,225.1,1577.4,145.1z M1324.2,677.6l-6.5,13.2
	l-6.5-13.2l-13.2-6.5l13.2-6.5l6.5-13.2l6.5,13.2l13.2,6.5L1324.2,677.6z"/>
<polygon class="st1" points="1354.5,292.9 1381.1,279.8 1394.2,253.2 1407.3,279.8 1433.9,292.9 1407.3,306 1394.2,332.6 
	1381.1,306 "/>
<polygon class="st1" points="662.5,945.8 689.1,932.7 702.1,906.1 715.2,932.7 741.8,945.8 715.2,958.9 702.1,985.5 689.1,958.9 "/>
<polygon class="st1" points="1357.1,425.3 1370.4,418.7 1377,405.4 1383.5,418.7 1396.8,425.3 1383.5,431.8 1377,445.1 
	1370.4,431.8 "/>
<polygon class="st1" points="1131.4,405.4 1144.7,398.9 1151.2,385.6 1157.8,398.9 1171.1,405.4 1157.8,412 1151.2,425.3 
	1144.7,412 "/>
<polygon class="st1" points="903.3,671.1 916.6,664.6 923.2,651.3 929.7,664.6 943,671.1 929.7,677.7 923.2,691 916.6,677.7 "/>
<polygon class="st2" points="1241.4,352.4 1254.7,345.9 1261.3,332.6 1267.8,345.9 1281.1,352.4 1267.8,359 1261.3,372.3 
	1254.7,359 "/>
<polygon class="st2" points="1297.9,506.1 1311.2,499.6 1317.7,486.3 1324.3,499.6 1337.6,506.1 1324.3,512.7 1317.7,526 
	1311.2,512.7 "/>
<polygon class="st2" points="775.6,897.8 788.9,891.3 795.5,878 802,891.3 815.3,897.8 802,904.4 795.5,917.7 788.9,904.4 "/>
<polygon class="st2" points="795.5,972.9 808.8,966.4 815.3,953.1 821.9,966.4 835.2,972.9 821.9,979.5 815.3,992.8 808.8,979.5 "/>
<path class="st1" d="M502.5,534v-61.8H342.6c-40.1,0-72.6,32.5-72.6,72.6V896c0,40.1,32.5,72.6,72.6,72.6h159.9V708.4h-19H423h-39.7
	v53.3H423v127.8H319.6l30-20.4V544.3h64.7V589L502.5,534z"/>
<path class="st1" d="M595.7,472.2l-69.3,380.9h77.5l11.8-91.5h40.9l11.8,91.5h77.5L676,472.2H595.7z M599,708.4l26.5-16.5l10.6-81.9
	l14,98.5H599z"/>
<path class="st1" d="M1036,472.2l-69.3,380.9h77.5l11.8-91.5h40.9l11.8,91.5h77.5l-69.9-380.9H1036z M1039.3,708.4l26.5-16.5
	l10.6-81.9l14,98.5H1039.3z"/>
</svg>
