<?xml version="1.0" encoding="utf-8"?>
<!-- Generator: Adobe Illustrator 22.0.1, SVG Export Plug-In . SVG Version: 6.00 Build 0)  -->
<svg version="1.1" xmlns="http://www.w3.org/2000/svg" xmlns:xlink="http://www.w3.org/1999/xlink" x="0px" y="0px"
	 viewBox="0 0 500 500" style="enable-background:new 0 0 500 500;" xml:space="preserve">
<style type="text/css">
	.st0{display:none;}
	.st1{display:inline;fill:#C1C1C1;}
	.st2{fill:#FFFFFF;}
	.st3{fill:#E02B38;}
	.st4{fill:#1F272C;}
	.st5{fill:url(#SVGID_1_);}
	.st6{fill:#E02F32;}
	.st7{fill:#E44F2C;}
	.st8{fill:#FCCF00;}
	.st9{fill:#87B81C;}
	.st10{clip-path:url(#SVGID_3_);fill:url(#SVGID_4_);}
	.st11{fill:url(#SVGID_5_);}
	.st12{fill:url(#SVGID_6_);}
	.st13{fill:url(#SVGID_7_);}
	.st14{fill:url(#SVGID_8_);}
	.st15{fill:url(#SVGID_9_);}
	.st16{fill:url(#SVGID_10_);}
	.st17{fill:#173A8F;}
	.st18{fill:url(#SVGID_11_);}
	.st19{fill:url(#SVGID_12_);}
	.st20{fill:url(#SVGID_13_);}
	.st21{fill:url(#SVGID_14_);}
	.st22{fill:url(#SVGID_15_);}
	.st23{fill:url(#SVGID_16_);}
	.st24{fill:url(#SVGID_17_);}
	.st25{fill:url(#SVGID_18_);}
	.st26{fill:url(#SVGID_19_);}
	.st27{clip-path:url(#SVGID_21_);fill:url(#SVGID_22_);}
	.st28{fill:url(#SVGID_23_);}
	.st29{fill:url(#SVGID_24_);}
	.st30{fill:url(#SVGID_25_);}
	.st31{fill:url(#SVGID_26_);}
	.st32{fill:url(#SVGID_27_);}
	.st33{fill:url(#SVGID_28_);}
	.st34{fill:url(#SVGID_29_);}
	.st35{fill:url(#SVGID_30_);}
	.st36{clip-path:url(#SVGID_32_);fill:url(#SVGID_33_);}
	.st37{fill:url(#SVGID_34_);}
	.st38{fill:url(#SVGID_35_);}
	.st39{fill:url(#SVGID_36_);}
	.st40{fill:url(#SVGID_37_);}
	.st41{fill:url(#SVGID_38_);}
	.st42{fill:url(#SVGID_39_);}
	.st43{fill:url(#SVGID_40_);}
	.st44{fill:url(#SVGID_41_);}
	.st45{fill:url(#SVGID_42_);}
	.st46{fill:url(#SVGID_43_);}
	.st47{fill:url(#SVGID_44_);}
	.st48{fill:url(#SVGID_45_);}
	.st49{fill:url(#SVGID_46_);}
	.st50{fill:url(#SVGID_47_);}
	.st51{fill:url(#SVGID_48_);}
	.st52{fill:url(#SVGID_49_);}
	.st53{fill:url(#SVGID_50_);}
	.st54{fill:url(#SVGID_51_);}
	.st55{fill:url(#SVGID_52_);}
	.st56{fill:url(#SVGID_53_);}
	.st57{fill:url(#SVGID_54_);}
	.st58{fill:url(#SVGID_55_);}
	.st59{fill:url(#SVGID_56_);}
	.st60{fill:url(#SVGID_57_);}
	.st61{clip-path:url(#SVGID_59_);fill:url(#SVGID_60_);}
	.st62{fill:url(#SVGID_61_);}
	.st63{fill:url(#SVGID_62_);}
	.st64{fill:url(#SVGID_63_);}
	.st65{fill:url(#SVGID_64_);}
	.st66{fill:url(#SVGID_65_);}
	.st67{fill:url(#SVGID_66_);}
	.st68{fill:url(#SVGID_67_);}
	.st69{fill:url(#SVGID_68_);}
	.st70{fill:url(#SVGID_69_);}
	.st71{fill:url(#SVGID_70_);}
	.st72{clip-path:url(#SVGID_72_);fill:url(#SVGID_73_);}
	.st73{fill:url(#SVGID_74_);}
	.st74{clip-path:url(#SVGID_76_);fill:url(#SVGID_77_);}
	.st75{fill:url(#SVGID_78_);}
	.st76{fill:url(#SVGID_79_);}
	.st77{fill:url(#SVGID_80_);}
	.st78{fill:url(#SVGID_81_);}
	.st79{fill:url(#SVGID_82_);}
	.st80{fill:url(#SVGID_83_);}
	.st81{fill:url(#SVGID_84_);}
	.st82{fill:url(#SVGID_85_);}
	.st83{fill:url(#SVGID_86_);}
	.st84{fill:url(#SVGID_87_);}
	.st85{fill:url(#SVGID_88_);}
	.st86{fill:url(#SVGID_89_);}
	.st87{fill:url(#SVGID_90_);}
	.st88{fill:url(#SVGID_91_);}
	.st89{fill:url(#SVGID_92_);}
	.st90{fill:url(#SVGID_93_);}
	.st91{fill:url(#SVGID_94_);}
	.st92{fill:url(#SVGID_95_);}
	.st93{fill:url(#SVGID_96_);}
	.st94{fill:url(#SVGID_97_);}
	.st95{fill:url(#SVGID_98_);}
	.st96{clip-path:url(#SVGID_100_);fill:url(#SVGID_101_);}
	.st97{clip-path:url(#SVGID_103_);fill:url(#SVGID_104_);}
	.st98{clip-path:url(#SVGID_106_);fill:url(#SVGID_107_);}
	.st99{fill:url(#SVGID_108_);}
	.st100{fill:url(#SVGID_109_);}
	.st101{fill:url(#SVGID_110_);}
	.st102{clip-path:url(#SVGID_112_);fill:url(#SVGID_113_);}
	.st103{clip-path:url(#SVGID_115_);fill:url(#SVGID_116_);}
	.st104{clip-path:url(#SVGID_118_);fill:url(#SVGID_119_);}
	.st105{fill:url(#SVGID_120_);}
	.st106{clip-path:url(#SVGID_122_);fill:url(#SVGID_123_);}
	.st107{clip-path:url(#SVGID_125_);fill:url(#SVGID_126_);}
	.st108{clip-path:url(#SVGID_128_);fill:url(#SVGID_129_);}
	.st109{display:inline;}
	.st110{fill:url(#SVGID_130_);}
	.st111{fill:url(#SVGID_131_);}
	.st112{fill:url(#SVGID_132_);}
	.st113{clip-path:url(#SVGID_134_);fill:url(#SVGID_135_);}
	.st114{display:inline;fill:url(#SVGID_136_);}
	.st115{display:inline;fill:#FFFFFF;}
	.st116{clip-path:url(#SVGID_138_);fill:url(#SVGID_139_);}
	.st117{fill:url(#SVGID_140_);}
	.st118{display:inline;fill:url(#SVGID_141_);}
	.st119{display:inline;fill:#87B81C;}
	.st120{fill:url(#SVGID_142_);}
	.st121{clip-path:url(#SVGID_144_);fill:url(#SVGID_145_);}
	.st122{fill:url(#SVGID_146_);}
</style>
<g id="Camada_2" class="st0">
	<rect class="st1" width="500" height="500"/>
</g>
<g id="Camada_1">
	<g>
		<g>
			<path class="st7" d="M438.2,224.1c0-3.4-1.6-5.2-4.6-5.2h-6.1c-3,0-4.6,1.8-4.6,5.2v2.4h15.2V224.1z"/>
			<path class="st7" d="M423.3,185.2c0,0,3.1,0,5.9,0.8l5,1.3v-4l-4.9,1.2C426.3,185.3,423.3,185.2,423.3,185.2z"/>
			<path class="st7" d="M411.2,99.8v299.7H450V99.8H411.2z M445.6,335.4c0,1.3-0.5,1.8-1.8,1.8h-9.7v8h9.7c1.3,0,1.8,0.4,1.8,1.8
				v4.4c0,1.4-0.5,1.8-1.8,1.8h-26.4c-1.3,0-1.8-0.5-1.8-1.8V347c0-1.4,0.5-1.8,1.8-1.8h9.3v-8h-9.3c-1.3,0-1.8-0.5-1.8-1.8v-4.5
				c0-1.3,0.5-1.8,1.8-1.8h26.4c1.3,0,1.8,0.5,1.8,1.8V335.4z M434.4,327.2h-7.6c-7.3,0-11.9-3.7-11.9-12.1c0-8.3,4.9-12,12.2-12
				h7.6c7.3,0,11.4,3.7,11.4,12C446.2,323.5,441.7,327.2,434.4,327.2z M416.9,255.2c-1.1-0.6-1.4-1-1.4-2.4v-4.1
				c0-1.4,0.4-1.8,1.8-1.8h26.5c1.3,0,1.7,0.5,1.7,1.8v4.5c0,1.4-0.4,1.8-1.7,1.8h-6c-2.8,0-5.4,0.2-11.1-1.4c1.4,0.4,5.2,1.9,7,2.8
				l4.8,2.4c0.9,0.5,1.2,0.9,1.2,2v1.9c0,1.2-0.3,1.6-1.2,2l-4.8,2.8c-1.6,0.9-5.5,2-7,2.5c6.1-1.5,8.2-1.3,11.1-1.3h6
				c1.3,0,1.7,0.5,1.7,1.8v4.5c0,1.4-0.4,1.8-1.7,1.8h-26.5c-1.4,0-1.8-0.5-1.8-1.8v-4.1c0-1.5,0.3-1.9,1.3-2.5l13.7-6.6
				L416.9,255.2z M443.8,190.2c1.3,0.4,1.8,1,1.8,3.1v4.7c0,1.3-0.6,1.6-1.7,1.1l-26.7-9.7c-1.2-0.4-1.5-1-1.5-2.2v-3.9
				c0-1.2,0.3-1.8,1.4-2.2l26.8-9.8c1.1-0.4,1.7,0,1.7,1.2v4.4c0,2.2-0.5,2.8-1.8,3.2l-3,1v8.1L443.8,190.2z M417.3,200.7h26.6
				c1.3,0,1.7,0.4,1.7,1.7v4.6c0,1.3-0.4,1.7-1.7,1.7h-26.6c-1.3,0-1.7-0.4-1.7-1.7v-4.6C415.6,201.2,416,200.7,417.3,200.7z
				 M427.4,210.8h6.3c7.3,0,11.8,4.6,11.8,13v9.3c0,1.4-0.5,1.8-1.8,1.8h-26.4c-1.3,0-1.8-0.5-1.8-1.8v-9.3
				C415.6,215.5,420.1,210.8,427.4,210.8z M417.3,236.8h26.6c1.3,0,1.7,0.4,1.7,1.7v4.6c0,1.3-0.4,1.7-1.7,1.7h-26.6
				c-1.3,0-1.7-0.4-1.7-1.7v-4.6C415.6,237.3,416,236.8,417.3,236.8z M417.3,278.9h3.8c1.3,0,1.8,0.5,1.8,1.8v6.2h20.8
				c1.3,0,1.8,0.5,1.8,1.8v4.5c0,1.3-0.5,1.8-1.8,1.8H423v6.3c0,1.4-0.5,1.8-1.8,1.8h-3.8c-1.3,0-1.8-0.4-1.8-1.8v-20.5
				C415.6,279.3,416,278.9,417.3,278.9z M439.7,171.4c-1.3,0.5-1.9,0.1-2.3-1.1l-1.4-4c-0.4-1.3-0.3-1.9,0.9-2.5
				c1.5-0.7,2.2-2.4,2.2-4.8c0-2.8-0.6-4.5-2.4-4.5c-1.7,0-2.1,2.1-2.5,4.9c-0.7,4.9-1.6,11.9-9.7,11.9c-5.6,0-9.4-4.5-9.4-12.5
				c0-6.3,1.8-9.8,5.9-11.8c1.2-0.6,1.9-0.3,2.4,1l1.8,4.2c0.5,1.1,0.3,1.6-0.9,2.3c-1.6,0.8-2.2,2.3-2.2,4.3c0,2.9,0.7,4,2.2,4
				c1.8,0,2.2-2.5,2.6-5.5c0.7-4.9,1.9-11.2,9.8-11.2c6.2,0,9.6,5.6,9.6,13.1C446.2,165.5,444.1,169.8,439.7,171.4z"/>
			<path class="st7" d="M435.1,311.1h-8.4c-2.7,0-4.4,1.1-4.4,4c0,3,1.4,4,4.1,4h8.4c2.7,0,4.1-1.1,4.1-4
				C438.8,312.3,437.8,311.1,435.1,311.1z"/>
		</g>
	</g>
	<g>
		<linearGradient id="SVGID_1_" gradientUnits="userSpaceOnUse" x1="430.6061" y1="249.7189" x2="430.6061" y2="99.8142">
			<stop  offset="0" style="stop-color:#000000;stop-opacity:0"/>
			<stop  offset="1" style="stop-color:#FFFFFF;stop-opacity:0.3"/>
		</linearGradient>
		<rect x="411.2" y="99.8" class="st5" width="38.8" height="149.9"/>
	</g>
	<g>
		<path class="st7" d="M250.1,181.7c-38,0-68.9,30.9-68.9,68.9c0,38.1,30.9,68.9,68.9,68.9s68.9-30.9,68.9-68.9
			C319,212.5,288.2,181.7,250.1,181.7z M276.4,253.8l-33.3,33.3c-2.4,2.4-4,2.4-6.5-0.1l0.1-73c2.3-2.3,4-2.3,6.5,0.1l33.2,33.2
			C278.8,249.7,278.8,251.4,276.4,253.8z"/>
		<path class="st7" d="M329.6,196.9c-8.1-9.4-19.7-18.2-24.8-23.1c-4.8-4.5-10.1-11.4-10.1-17.7c-6.5-2.7-13.6-5.3-21.3-7.1
			c6.2-13.1,18.3-51.7-21.4-100.5c0,0,4.1,11.2,4.1,36.8c0,22.2-22,49.7-35.8,64.5c8.1-14.8,9.4-42.3-21.2-68.8
			c0,0,9.8,9.8,9.8,35.2c0,20.3-40.1,52.2-56.4,97.4c-3.6,9.6-5.9,19.9-6.6,30.6c0,0.2,0,0.4-0.1,0.5c-0.1,2-0.2,3.9-0.2,5.9
			c0,57.7,46.7,104.4,104.4,104.4c56.3,0,102.2-44.6,104.3-100.4C354.4,229.6,335.9,203.2,329.6,196.9z M250.1,334.1
			c-46.1,0-83.6-37.4-83.6-83.6c0-46.1,37.4-83.6,83.6-83.6s83.6,37.4,83.6,83.6C333.7,296.7,296.3,334.1,250.1,334.1z"/>
		<path class="st7" d="M348.7,216.4c0,0-5.7-23.2-19.3-38.6c-13.6-15.4-12.5-35.2-12.5-35.2c0.3-8.3,7-15.4,15.4-15.4
			c8.5,0,15.4,6.9,15.4,15.4c0,1.3-0.2,2.5-0.5,3.7c2.3-3.7,3.6-8.1,3.6-12.8c0-13.6-11-24.7-24.7-24.7c-1,0-2,0.1-3,0.2
			c-19.9,2-24.5,23.8-24.5,30.3c0,13,3.6,20.5,28.3,45C337.5,194.7,341.6,200.1,348.7,216.4z"/>
	</g>
	<g>
		<g>
			<defs>
				<path id="SVGID_121_" d="M250,181.7c-38.1,0-68.9,30.9-68.9,68.9c0,38.1,30.8,68.9,68.9,68.9c38.1,0,68.9-30.9,68.9-68.9
					C318.9,212.5,288.1,181.7,250,181.7z M276.3,253.8L243,287.1c-2.4,2.4-4,2.4-6.5-0.1l0.1-73c2.3-2.3,4-2.3,6.5,0.1l33.2,33.2
					C278.7,249.7,278.6,251.4,276.3,253.8z"/>
			</defs>
			<clipPath id="SVGID_3_">
				<use xlink:href="#SVGID_121_"  style="overflow:visible;"/>
			</clipPath>
			<radialGradient id="SVGID_4_" cx="190.4186" cy="171.5809" r="142.6398" gradientUnits="userSpaceOnUse">
				<stop  offset="0.2562" style="stop-color:#FFFFFF;stop-opacity:0.3"/>
				<stop  offset="0.8966" style="stop-color:#000000;stop-opacity:0"/>
			</radialGradient>
			<path class="st10" d="M333.1,171.6c0-78.8-63.9-142.6-142.6-142.6c-78.8,0-142.6,63.9-142.6,142.6s63.9,142.7,142.6,142.7
				C269.2,314.2,333.1,250.4,333.1,171.6z"/>
		</g>
		<g>
			<defs>
				<path id="SVGID_124_" d="M329.5,196.9c-8.1-9.4-19.7-18.2-24.8-23.1c-4.8-4.5-10.1-11.4-10.1-17.7c-6.5-2.7-13.6-5.3-21.3-7.1
					c6.2-13.1,18.3-51.7-21.4-100.5c0,0,4.2,11.2,4.2,36.8c0,22.2-22,49.7-35.8,64.5c8.1-14.8,9.4-42.3-21.2-68.8
					c0,0,9.8,9.8,9.8,35.2c0,20.3-40.1,52.2-56.4,97.4c-3.6,9.6-5.9,19.9-6.6,30.6c0,0.2,0,0.4,0,0.5c-0.1,2-0.2,3.9-0.2,5.9
					c0,57.7,46.7,104.4,104.4,104.4c56.3,0,102.2-44.6,104.3-100.4C354.3,229.6,335.8,203.2,329.5,196.9z M250,334.1
					c-46.2,0-83.6-37.4-83.6-83.6c0-46.1,37.4-83.6,83.6-83.6c46.1,0,83.6,37.4,83.6,83.6C333.5,296.7,296.1,334.1,250,334.1z"/>
			</defs>
			<clipPath id="SVGID_5_">
				<use xlink:href="#SVGID_124_"  style="overflow:visible;"/>
			</clipPath>
			<radialGradient id="SVGID_6_" cx="190.4186" cy="171.5809" r="142.6398" gradientUnits="userSpaceOnUse">
				<stop  offset="0.2562" style="stop-color:#FFFFFF;stop-opacity:0.3"/>
				<stop  offset="0.8966" style="stop-color:#000000;stop-opacity:0"/>
			</radialGradient>
			<path style="clip-path:url(#SVGID_5_);fill:url(#SVGID_6_);" d="M333.1,171.6c0-78.8-63.9-142.6-142.6-142.6
				c-78.8,0-142.6,63.9-142.6,142.6s63.9,142.7,142.6,142.7C269.2,314.2,333.1,250.4,333.1,171.6z"/>
		</g>
		<g>
			<defs>
				<path id="SVGID_127_" d="M348.6,216.4c0,0-5.8-23.2-19.3-38.6c-13.6-15.4-12.5-35.2-12.5-35.2c0.3-8.3,7-15.4,15.4-15.4
					c8.5,0,15.4,6.9,15.4,15.4c0,1.3-0.2,2.5-0.5,3.7c2.3-3.7,3.6-8.1,3.6-12.8c0-13.6-11-24.7-24.7-24.7c-1,0-2,0.1-3,0.2
					c-19.9,2-24.5,23.8-24.5,30.3c0,13,3.6,20.5,28.3,45C337.3,194.7,341.4,200.1,348.6,216.4z"/>
			</defs>
			<clipPath id="SVGID_7_">
				<use xlink:href="#SVGID_127_"  style="overflow:visible;"/>
			</clipPath>
			<radialGradient id="SVGID_8_" cx="190.4186" cy="171.5809" r="142.6398" gradientUnits="userSpaceOnUse">
				<stop  offset="0.2562" style="stop-color:#FFFFFF;stop-opacity:0.3"/>
				<stop  offset="0.8966" style="stop-color:#000000;stop-opacity:0"/>
			</radialGradient>
			<path style="clip-path:url(#SVGID_7_);fill:url(#SVGID_8_);" d="M333.1,171.6c0-78.8-63.9-142.6-142.6-142.6
				c-78.8,0-142.6,63.9-142.6,142.6s63.9,142.7,142.6,142.7C269.2,314.2,333.1,250.4,333.1,171.6z"/>
		</g>
	</g>
</g>
<g id="Bareback_Icon_Tag_White" class="st0">
	<g class="st109">
		<path class="st8" d="M427,237.1c0-1.7-0.6-2.6-2.3-2.6c-1.7,0-2.4,0.9-2.4,2.6v3.7h4.7V237.1z"/>
		<path class="st8" d="M423.1,316.1c0,0,3.6,0,6.4,0.8l4.6,1.7v-5.3l-4.6,1.9C426.7,316.1,423.1,316.1,423.1,316.1z"/>
		<path class="st8" d="M438.8,236.2c0-1.8-0.7-2.7-2.5-2.7c-1.7,0-2.5,0.9-2.5,2.7v4.5h5V236.2z"/>
		<path class="st8" d="M423.1,210.8c0,0,3.6,0,6.4,0.8l4.6,1.7V208l-4.6,1.9C426.7,210.8,423.1,210.8,423.1,210.8z"/>
		<path class="st8" d="M424.7,339.8c-1.7,0-2.4,0.9-2.4,2.6v3.7h4.7v-3.7C427,340.7,426.3,339.8,424.7,339.8z"/>
		<path class="st8" d="M411.1,98.8v300.7H450V98.8H411.1z M415.5,161.6c0-1.4,0.5-1.8,1.8-1.8h9.4v-0.9l-9.7-6.1
			c-1.3-0.8-1.6-1.2-1.6-3.4v-4.9c0-1.3,0.8-1.7,1.9-1l12.3,7.7c0.8-1.1,1.8-1.9,3.3-2.6l10.6-5.6c1.1-0.6,2.1-0.3,2.1,1.1v4.6
			c0,2.2-0.3,3-1.8,3.8l-7.6,3.7c-1.4,0.7-2.1,1.3-2.1,2.9v0.8h9.7c1.3,0,1.8,0.4,1.8,1.8v4.8c0,1.3-0.5,1.8-1.8,1.8h-26.6
			c-1.3,0-1.8-0.5-1.8-1.8V161.6z M443.9,216.2c1.3,0.4,1.8,1,1.8,3.1v4.5c0,1.3-0.6,1.6-1.7,1.1l-27-9.8c-1.2-0.4-1.5-1-1.5-2.2
			v-4.8c0-1.2,0.3-1.8,1.4-2.2l27-9.8c1.1-0.4,1.7,0,1.7,1.2v4.6c0,2.2-0.5,2.9-1.8,3.2l-3.1,1v9.2L443.9,216.2z M423.5,225.9
			c2.9,0,4.8,0.9,6.3,3.1h0.2c1.2-2.7,3.6-4.3,7.3-4.3c5.5,0,8.4,4.5,8.4,10.5v12.2c0,1.4-0.5,1.8-1.8,1.8h-26.6
			c-1.3,0-1.8-0.5-1.8-1.8v-12C415.4,229.4,418.3,225.9,423.5,225.9z M417.2,251.3h3.8c1.4,0,1.8,0.5,1.8,1.8v11.9h3.8v-7.9
			c0-1.4,0.5-1.8,1.8-1.8h3.8c1.4,0,1.8,0.5,1.8,1.8v7.9h4.1v-12c0-1.3,0.4-1.8,1.8-1.8h3.9c1.3,0,1.8,0.5,1.8,1.8v18.6
			c0,1.4-0.5,1.8-1.8,1.8h-26.7c-1.3,0-1.8-0.5-1.8-1.8v-18.6C415.4,251.8,415.9,251.3,417.2,251.3z M443.9,321.5
			c1.3,0.4,1.8,1,1.8,3.1v4.5c0,1.3-0.6,1.6-1.7,1.1l-27-9.8c-1.2-0.4-1.5-1-1.5-2.2v-4.9c0-1.2,0.3-1.8,1.4-2.2l27-9.8
			c1.1-0.4,1.7,0,1.7,1.2v4.6c0,2.2-0.5,2.9-1.8,3.2l-3.1,1v9.2L443.9,321.5z M445.7,352.7c0,1.4-0.5,1.8-1.8,1.8h-26.6
			c-1.3,0-1.8-0.5-1.8-1.8v-12c0-5.9,2.9-9.4,8.1-9.4c2.9,0,4.8,0.9,6.3,3.1h0.2c1.2-2.7,3.6-4.3,7.3-4.3c5.5,0,8.4,4.5,8.4,10.5
			V352.7z M445.7,280.7c0,2.2-0.5,3.2-2,3.9l-5.8,2.7c-1.5,0.7-2.2,1.4-2.2,3.2v1h8.2c1.3,0,1.8,0.4,1.8,1.8v4.8
			c0,1.4-0.5,1.8-1.8,1.8h-26.6c-1.3,0-1.8-0.5-1.8-1.8V286c0-6.4,3.7-10.6,10.2-10.6c4.2,0,7.1,1.7,8.8,4.6
			c0.6-0.4,1.1-0.8,1.8-1.1l7.3-3.8c1.2-0.6,2.1-0.3,2.1,1.1V280.7z M434.4,196.6h-7.6c-7.4,0-11.9-4.7-11.9-13.1
			c0-6.5,2.7-10.6,7.4-12.4c1.2-0.4,1.9-0.1,2.3,1.1l1.6,4.6c0.4,1.3,0.2,1.8-1.1,2.3c-1.9,0.8-2.8,2-2.8,4.4c0,3.4,1.5,4.7,4.4,4.7
			h7.7c3,0,4.4-1.3,4.4-4.7c0-2.4-0.9-3.7-2.8-4.4c-1.3-0.5-1.6-1-1.1-2.3l1.6-4.6c0.4-1.3,1.1-1.6,2.3-1.1
			c4.8,1.8,7.4,5.9,7.4,12.4C446.3,191.9,441.7,196.6,434.4,196.6z"/>
		<path class="st8" d="M436.3,338.8c-1.7,0-2.5,0.9-2.5,2.7v4.5h5v-4.5C438.8,339.7,438.1,338.8,436.3,338.8z"/>
		<path class="st8" d="M425.7,284.1c-1.7,0-2.8,1-2.8,2.8v4.6h5.6v-4.6C428.6,285.1,427.5,284.1,425.7,284.1z"/>
	</g>
	<g class="st109">
		<linearGradient id="SVGID_9_" gradientUnits="userSpaceOnUse" x1="430.5425" y1="249.163" x2="430.5425" y2="98.7802">
			<stop  offset="0" style="stop-color:#000000;stop-opacity:0"/>
			<stop  offset="1" style="stop-color:#FFFFFF;stop-opacity:0.3"/>
		</linearGradient>
		<rect x="411.1" y="98.8" class="st15" width="38.9" height="150.4"/>
	</g>
	<g class="st109">
		<path class="st2" d="M269.5,175.4c0.4-1.6,0.6-3.2,0.6-4.9c0-10.9-8.8-19.7-19.7-19.7s-19.7,8.8-19.7,19.7c0,1.7,0.2,3.3,0.6,4.9
			c-12.1,6.7-20.3,19.6-20.3,34.4v100.3c0,5.5,17.6,10,39.4,10c21.7,0,39.3-4.5,39.3-10V209.9C289.8,195,281.6,182.1,269.5,175.4z"
			/>
		<path class="st2" d="M291.2,308.3c1.3,1.5,2.1,3.1,2.1,4.7c0,8.5-19.2,15.4-42.8,15.4c-23.7,0-42.9-6.9-42.9-15.4
			c0-1.7,0.8-3.3,2.1-4.7c-7.8,3.7-12.5,8.5-12.5,13.7c0,11.8,23.8,21.3,53.2,21.3c29.4,0,53.2-9.6,53.2-21.3
			C303.7,316.8,299,312,291.2,308.3z"/>
		<linearGradient id="SVGID_10_" gradientUnits="userSpaceOnUse" x1="234.298" y1="293.9594" x2="266.7049" y2="350.0898">
			<stop  offset="0" style="stop-color:#FFFFFF;stop-opacity:0.3"/>
			<stop  offset="1" style="stop-color:#000000;stop-opacity:0"/>
		</linearGradient>
		<path class="st16" d="M291.2,308.3c1.3,1.5,2.1,3.1,2.1,4.7c0,8.5-19.2,15.4-42.8,15.4c-23.7,0-42.9-6.9-42.9-15.4
			c0-1.7,0.8-3.3,2.1-4.7c-7.8,3.7-12.5,8.5-12.5,13.7c0,11.8,23.8,21.3,53.2,21.3c29.4,0,53.2-9.6,53.2-21.3
			C303.7,316.8,299,312,291.2,308.3z"/>
		<g>
			<linearGradient id="SVGID_11_" gradientUnits="userSpaceOnUse" x1="206.926" y1="172.9516" x2="261.9281" y2="268.2181">
				<stop  offset="0" style="stop-color:#FFFFFF;stop-opacity:0.3"/>
				<stop  offset="1" style="stop-color:#000000;stop-opacity:0"/>
			</linearGradient>
			<path class="st18" d="M289.8,209.9c0-14.8-8.2-27.7-20.3-34.4c0.4-1.6,0.6-3.2,0.6-4.9c0-10.9-8.8-19.7-19.7-19.7
				s-19.7,8.8-19.7,19.7c0,1.7,0.2,3.3,0.6,4.9c-12.1,6.7-20.3,19.6-20.3,34.4v87.7l78.7-78.7V209.9z"/>
		</g>
		<path class="st8" d="M250.5,100.1c-82.6,0-149.6,67-149.6,149.6s67,149.6,149.6,149.6c82.6,0,149.6-67,149.6-149.6
			S333.1,100.1,250.5,100.1z M127.1,249.7c0-29.4,10.3-56.3,27.4-77.5L328,345.7c-21.2,17.1-48.2,27.4-77.5,27.4
			C182.3,373.1,127.1,317.9,127.1,249.7z M346.5,327.2L173,153.7c21.2-17.1,48.2-27.4,77.5-27.4c68.2,0,123.4,55.3,123.4,123.4
			C373.9,279.1,363.7,306,346.5,327.2z"/>
		<g>
			<defs>
				<path id="SVGID_133_" d="M250.5,100.1c-82.6,0-149.6,67-149.6,149.6s67,149.6,149.6,149.6c82.6,0,149.6-67,149.6-149.6
					S333.1,100.1,250.5,100.1z M127.1,249.7c0-29.4,10.3-56.3,27.4-77.5L328,345.7c-21.2,17.1-48.2,27.4-77.5,27.4
					C182.3,373.1,127.1,317.9,127.1,249.7z M346.5,327.2L173,153.7c21.2-17.1,48.2-27.4,77.5-27.4c68.2,0,123.4,55.3,123.4,123.4
					C373.9,279.1,363.7,306,346.5,327.2z"/>
			</defs>
			<clipPath id="SVGID_12_">
				<use xlink:href="#SVGID_133_"  style="overflow:visible;"/>
			</clipPath>
			<radialGradient id="SVGID_13_" cx="154.1488" cy="153.6597" r="149.6117" gradientUnits="userSpaceOnUse">
				<stop  offset="0" style="stop-color:#FFFFFF;stop-opacity:0.3"/>
				<stop  offset="1" style="stop-color:#000000;stop-opacity:0"/>
			</radialGradient>
			<path style="clip-path:url(#SVGID_12_);fill:url(#SVGID_13_);" d="M154.1,4C71.5,4,4.5,71,4.5,153.7c0,82.6,67,149.6,149.6,149.6
				c82.6,0,149.6-67,149.6-149.6C303.8,71,236.8,4,154.1,4z"/>
		</g>
	</g>
</g>
<g id="HOTv_Icon_Tag_White" class="st0">
	<linearGradient id="SVGID_14_" gradientUnits="userSpaceOnUse" x1="250" y1="256.6111" x2="250" y2="118.6118">
		<stop  offset="0" style="stop-color:#000000;stop-opacity:0"/>
		<stop  offset="1" style="stop-color:#FFFFFF;stop-opacity:0.3"/>
	</linearGradient>
	<path style="display:inline;fill:url(#SVGID_14_);" d="M138.9,239.2c0-29.6,14-80.8,40.6-80.8h140.1c26.6,0,40.6,51.2,40.6,80.8
		c0,5.2-0.6,11.2-1.7,17.4h41.1c0.5-5.6,0.7-11.3,0.7-17.4c0-83.7-45.2-120.6-118.4-120.6h-64.2c-73,0-118.2,36.9-118.2,120.6
		c0,6,0.3,11.8,0.8,17.4H140C139.3,250.4,138.9,244.4,138.9,239.2z"/>
	<path class="st115" d="M282,118.6h-64.2c-73,0-118.2,36.9-118.2,120.6c0,83.2,45.1,119.8,118.2,119.8H282
		c73.1,0,118.4-36.6,118.4-119.8C400.4,155.5,355.2,118.6,282,118.6z M250,350.5c-6.6,0-11.9-5.3-11.9-12c0-6.5,5.3-11.9,11.9-11.9
		c6.6,0,11.9,5.3,11.9,11.9C261.9,345.2,256.6,350.5,250,350.5z M315.9,319.2H175.8c-26.6,0-36.9-50.8-36.9-80
		c0-29.6,14-80.8,40.6-80.8h140.1c26.6,0,40.6,51.2,40.6,80.8C360.2,268.4,342.6,319.2,315.9,319.2z"/>
	<rect x="159.2" y="378.8" class="st115" width="181.6" height="20.8"/>
	<g class="st109">
		<path class="st2" d="M411.1,98.8v300.3H450V98.8H411.1z M427.8,216.9c0-1.3,0.3-1.7,1.1-1.9l6.2-1.8c1.5-0.4,5.7-1.2,5.7-1.2
			s-4.2-0.8-5.7-1.3l-6.2-1.8c-0.8-0.2-1.1-0.6-1.1-1.9v-2.9c0-0.8,0.3-0.9,1-0.7l16.3,5.6c0.7,0.3,0.9,0.6,0.9,1.3v2.9
			c0,0.7-0.2,1.1-0.8,1.3l-16.3,5.7c-0.7,0.2-1,0-1-0.8V216.9z M415.7,218.2c0-1.4,0.5-1.8,1.8-1.8h3.8c1.4,0,1.8,0.5,1.8,1.8v6.3
			h21c1.3,0,1.8,0.5,1.8,1.8v4.5c0,1.4-0.5,1.8-1.8,1.8h-21v6.3c0,1.4-0.5,1.8-1.8,1.8h-3.8c-1.3,0-1.8-0.4-1.8-1.8V218.2z
			 M446,276.4c0,1.3-0.5,1.8-1.8,1.8h-9.8v8.1h9.8c1.3,0,1.8,0.4,1.8,1.8v4.5c0,1.4-0.5,1.8-1.8,1.8h-26.7c-1.4,0-1.8-0.5-1.8-1.8
			v-4.5c0-1.4,0.5-1.8,1.8-1.8h9.4v-8.1h-9.4c-1.4,0-1.8-0.5-1.8-1.8v-4.5c0-1.3,0.5-1.8,1.8-1.8h26.7c1.3,0,1.8,0.5,1.8,1.8V276.4z
			 M434.7,266H427c-7.4,0-11.9-3.7-11.9-12.2c0-8.4,4.9-12.1,12.3-12.1h7.7c7.4,0,11.6,3.7,11.6,12.1
			C446.6,262.2,442.1,266,434.7,266z"/>
		<path class="st2" d="M435.4,249.7H427c-2.7,0-4.5,1.1-4.5,4.1c0,3,1.4,4.1,4.1,4.1h8.4c2.7,0,4.1-1.1,4.1-4.1
			C439.2,250.9,438.1,249.7,435.4,249.7z"/>
	</g>
	<g class="st109">
		<path class="st9" d="M293.4,182.8c0,0,1.7-0.9,3.8-0.9c2,0,8.8,1.8,8.8,8.6c0,6.7,5.9,9,8.8,9c0,0-11.8,13.4-25.3,0
			c0,0,8.8-1,8.8-8.8C298.5,185,293.4,182.8,293.4,182.8z"/>
		<path class="st6" d="M289.8,202c-2.9,2.9-5.3,8.2-5.3,13.4c-0.2,16.7-6.7,33.4-19.5,46.1c-24.3,24.3-62.7,25.9-88.8,4.7
			c1.6,1.9,3.3,3.9,5.2,5.7c31.7,31.8,83.2,31.8,114.9,0c16.3-16.3,24.3-37.9,23.8-59.3c-0.4-3.9-2.1-7.7-5.1-10.7
			c-3.5-3.5-8.1-1.4-12.7-1.4C297.8,200.6,293.2,198.5,289.8,202z"/>
		<g>
			<defs>
				<path id="SVGID_137_" d="M289.8,202c-2.9,2.9-5.3,8.2-5.3,13.4c-0.2,16.7-6.7,33.4-19.5,46.1c-24.3,24.3-62.7,25.9-88.8,4.7
					c1.6,1.9,3.3,3.9,5.2,5.7c31.7,31.8,83.2,31.8,114.9,0c16.3-16.3,24.3-37.9,23.8-59.3c-0.4-3.9-2.1-7.7-5.1-10.7
					c-3.5-3.5-8.1-1.4-12.7-1.4C297.8,200.6,293.2,198.5,289.8,202z"/>
			</defs>
			<clipPath id="SVGID_15_">
				<use xlink:href="#SVGID_137_"  style="overflow:visible;"/>
			</clipPath>
			<radialGradient id="SVGID_16_" cx="238.6249" cy="214.3343" r="81.4011" gradientUnits="userSpaceOnUse">
				<stop  offset="0.2562" style="stop-color:#FFFFFF;stop-opacity:0.3"/>
				<stop  offset="0.8966" style="stop-color:#000000;stop-opacity:0"/>
			</radialGradient>
			<path style="clip-path:url(#SVGID_15_);fill:url(#SVGID_16_);" d="M320,214.3c0-44.9-36.4-81.4-81.4-81.4
				c-45,0-81.4,36.4-81.4,81.4c0,45,36.4,81.4,81.4,81.4C283.6,295.7,320,259.3,320,214.3z"/>
		</g>
	</g>
	<g class="st109">
		<linearGradient id="SVGID_17_" gradientUnits="userSpaceOnUse" x1="430.565" y1="249.0321" x2="430.565" y2="98.8585">
			<stop  offset="0" style="stop-color:#000000;stop-opacity:0"/>
			<stop  offset="1" style="stop-color:#FFFFFF;stop-opacity:0.3"/>
		</linearGradient>
		<rect x="411.1" y="98.9" class="st24" width="38.9" height="150.2"/>
	</g>
	<linearGradient id="SVGID_18_" gradientUnits="userSpaceOnUse" x1="250" y1="256.6111" x2="250" y2="118.6118">
		<stop  offset="0" style="stop-color:#000000;stop-opacity:0"/>
		<stop  offset="1" style="stop-color:#FFFFFF;stop-opacity:0.3"/>
	</linearGradient>
	<path style="display:inline;fill:url(#SVGID_18_);" d="M138.9,239.2c0-29.6,14-80.8,40.6-80.8h140.1c26.6,0,40.6,51.2,40.6,80.8
		c0,5.2-0.6,11.2-1.7,17.4h41.1c0.5-5.6,0.7-11.3,0.7-17.4c0-83.7-45.2-120.6-118.4-120.6h-64.2c-73,0-118.2,36.9-118.2,120.6
		c0,6,0.3,11.8,0.8,17.4H140C139.3,250.4,138.9,244.4,138.9,239.2z"/>
</g>
<g id="SOLOHOT_Icon_Tag" class="st0">
	<g class="st109">
		<g>
			<path class="st9" d="M426.5,198.8h8.4c2.7,0,4.1-1.1,4.1-4c0-2.9-1-4-3.7-4h-8.4c-2.7,0-4.4,1.1-4.4,4
				C422.4,197.8,423.8,198.8,426.5,198.8z"/>
			<path class="st9" d="M426.5,305.9h8.4c2.7,0,4.1-1.1,4.1-4c0-2.9-1-4-3.7-4h-8.4c-2.7,0-4.4,1.1-4.4,4
				C422.4,304.9,423.8,305.9,426.5,305.9z"/>
			<path class="st9" d="M426.5,255.1h8.4c2.7,0,4.1-1.1,4.1-4c0-2.9-1-4-3.7-4h-8.4c-2.7,0-4.4,1.1-4.4,4
				C422.4,254,423.8,255.1,426.5,255.1z"/>
			<path class="st9" d="M411.3,98.8v300.9h38.9V98.8H411.3z M415.9,158.3c0-1.4,0.5-1.8,1.8-1.8h3.8c1.3,0,1.8,0.5,1.8,1.8v6.2h20.9
				c1.3,0,1.8,0.5,1.8,1.8v4.5c0,1.4-0.5,1.8-1.8,1.8h-20.9v6.3c0,1.4-0.5,1.8-1.8,1.8h-3.8c-1.3,0-1.8-0.4-1.8-1.8V158.3z
				 M427.3,182.8h7.6c7.3,0,11.5,3.7,11.5,12c0,8.4-4.5,12.1-11.8,12.1h-7.6c-7.3,0-11.9-3.7-11.9-12.1
				C415,186.5,419.9,182.8,427.3,182.8z M444.1,227c1.3,0,1.8,0.4,1.8,1.8v4.5c0,1.4-0.5,1.8-1.8,1.8h-26.5c-1.4,0-1.8-0.5-1.8-1.8
				v-4.5c0-1.3,0.5-1.8,1.8-1.8h9.4v-8.1h-9.4c-1.4,0-1.8-0.5-1.8-1.8v-4.5c0-1.3,0.5-1.8,1.8-1.8h26.5c1.3,0,1.8,0.5,1.8,1.8v4.5
				c0,1.3-0.5,1.8-1.8,1.8h-9.7v8.1H444.1z M427.3,239.1h7.6c7.3,0,11.5,3.7,11.5,12c0,8.4-4.5,12.1-11.8,12.1h-7.6
				c-7.3,0-11.9-3.7-11.9-12.1C415,242.7,419.9,239.1,427.3,239.1z M445.8,268.1v17.5c0,1.4-0.5,1.8-1.8,1.8h-26.6
				c-1.3,0-1.8-0.5-1.8-1.8v-4.5c0-1.4,0.5-1.8,1.8-1.8h20.3v-11.2c0-1.3,0.4-1.8,1.8-1.8h4.5C445.3,266.3,445.8,266.8,445.8,268.1z
				 M427.3,289.9h7.6c7.3,0,11.5,3.7,11.5,12c0,8.4-4.5,12.1-11.8,12.1h-7.6c-7.3,0-11.9-3.7-11.9-12.1
				C415,293.6,419.9,289.9,427.3,289.9z M439.9,341.8c-1.3,0.5-1.9,0.1-2.3-1.1l-1.4-4c-0.4-1.3-0.3-1.9,0.9-2.5
				c1.5-0.8,2.2-2.4,2.2-4.8c0-2.9-0.6-4.6-2.4-4.6c-1.7,0-2.1,2.2-2.5,5c-0.7,5-1.6,11.9-9.8,11.9c-5.6,0-9.5-4.5-9.5-12.6
				c0-6.3,1.9-9.9,6-11.9c1.2-0.6,1.9-0.3,2.4,1l1.8,4.3c0.5,1.1,0.3,1.6-0.9,2.3c-1.6,0.8-2.2,2.3-2.2,4.3c0,2.9,0.7,4,2.2,4
				c1.8,0,2.2-2.5,2.6-5.6c0.7-4.9,1.9-11.3,9.9-11.3c6.3,0,9.7,5.7,9.7,13.2C446.4,335.8,444.3,340.2,439.9,341.8z"/>
		</g>
	</g>
	<g class="st109">
		<path class="st6" d="M382,173c-5.3-0.1-7.2-3.1-11.3-3.6c-8.8-1.1-16.1,4.6-23.9,6.8c-6.8,5.4-11.6,13.5-12.7,23
			c-1.1,8.9,0.8,11.1-2.1,35.2c-9.6,82.2-117.4,87.1-150.9,82.8c-33.5-4.2-38.1,18.2-38.1,18.2s-0.6,7.2,5.9,1.9
			c20.4-16.6,66.9,10.9,75,14.2c49.5,19.6,109.3-10.1,121.9-19.3c43.4-31.4,51.9-110.2,52.5-115.2c0.6-5.1,1.1-9.5,1.1-9.5
			C401.2,193,393.9,179.5,382,173z"/>
		<path class="st9" d="M345.5,177.7c0,0-1-0.1-2.9-1.7c-1.9-1.6,4.4,0.5,11.7-3.2c0,0-0.5-5,0.3-11.1c1-6-5.4-18.9-7.9-23.3
			c-2.5-4.5-7.8-11.6-15.2-11.9c-3.5-0.1,1.7-6.9,12.4-6.5c2.4,0.1,7.3,6.7,10,9.7c2.7,2.9,14.9,25.8,14.8,30.6
			c0,0,5.2,4.6,8.2,10.1c0.4,1.1,1,1.6,2.7,1.6c1.6,0.1,4.1-1.3,4.1-1.3s1.1,0.3,1.3,1.3c0.3,1-0.6,1.9-1.3,2.4
			C383.6,174.4,362.9,171.5,345.5,177.7z"/>
	</g>
	<path class="st119" d="M301.3,168c-17.2,0-31.2,13.9-31.2,31.1c0,10.3,4.9,19.3,12.5,25L213,293.8h-55c-1.3-0.7-2.8-1.1-4.3-1.1
		c-4,0-7.4,2.5-8.7,6l-0.1-0.1l-44.5,44.6l11.5,11.5l44.5-44.5l-0.1-0.1c0,0,0.1,0,0.1-0.1v0.1h63v0l0.2,0.2l16.2-16.2h38.5h16.3
		v-16.2v-38.6l9.1-9.1c0.6,0,1.1,0.1,1.7,0.1c17.2,0,31.1-13.9,31.1-31.2C332.4,181.9,318.5,168,301.3,168z M274.2,277.9l-22.3,0
		l22.3-22.3L274.2,277.9z"/>
	<g class="st109">
		<linearGradient id="SVGID_19_" gradientUnits="userSpaceOnUse" x1="430.7833" y1="249.233" x2="430.7833" y2="98.7802">
			<stop  offset="0" style="stop-color:#000000;stop-opacity:0"/>
			<stop  offset="1" style="stop-color:#FFFFFF;stop-opacity:0.3"/>
		</linearGradient>
		<rect x="411.3" y="98.8" class="st26" width="38.9" height="150.5"/>
	</g>
</g>
<g id="HotBoys_Ico_Tag_White" class="st0">
	<g class="st109">
		<path class="st6" d="M425.1,244.5c-1.7,0-2.4,0.9-2.4,2.6v3.7h4.7v-3.7C427.4,245.4,426.8,244.5,425.1,244.5z"/>
		<path class="st6" d="M436.7,243.6c-1.7,0-2.5,0.9-2.5,2.7v4.5h5v-4.5C439.3,244.5,438.5,243.6,436.7,243.6z"/>
		<path class="st6" d="M435.6,295.7h-8.4c-2.7,0-4.5,1.1-4.5,4.1c0,3,1.4,4,4.1,4h8.4c2.7,0,4.1-1.1,4.1-4
			C439.3,296.8,438.3,295.7,435.6,295.7z"/>
		<path class="st6" d="M435.6,216.8h-8.4c-2.7,0-4.5,1.1-4.5,4c0,3,1.4,4.1,4.1,4.1h8.4c2.7,0,4.1-1.1,4.1-4.1
			C439.3,217.9,438.3,216.8,435.6,216.8z"/>
		<path class="st6" d="M411.6,98.8v300h38.8v-300H411.6z M446.1,322.3c0,1.3-0.5,1.8-1.8,1.8h-9.8v8.1h9.8c1.3,0,1.8,0.4,1.8,1.8
			v4.5c0,1.4-0.5,1.8-1.8,1.8h-26.7c-1.4,0-1.8-0.5-1.8-1.8V334c0-1.4,0.5-1.8,1.8-1.8h9.4v-8.1h-9.4c-1.4,0-1.8-0.5-1.8-1.8v-4.5
			c0-1.3,0.5-1.8,1.8-1.8h26.7c1.3,0,1.8,0.5,1.8,1.8V322.3z M434.9,311.9h-7.7c-7.4,0-11.9-3.7-11.9-12.2c0-8.4,4.9-12.1,12.3-12.1
			h7.7c7.4,0,11.5,3.7,11.5,12.1C446.8,308.2,442.2,311.9,434.9,311.9z M444.4,270.4c1.3,0,1.8,0.5,1.8,1.8v4.5
			c0,1.4-0.5,1.8-1.8,1.8h-21v6.3c0,1.4-0.5,1.8-1.8,1.8h-3.8c-1.3,0-1.8-0.4-1.8-1.8v-20.7c0-1.4,0.5-1.8,1.8-1.8h3.8
			c1.4,0,1.8,0.5,1.8,1.8v6.3H444.4z M444.4,259.3h-26.7c-1.4,0-1.8-0.5-1.8-1.8v-12.1c0-5.9,2.9-9.4,8.1-9.4c2.9,0,4.8,0.9,6.3,3.1
			h0.2c1.2-2.7,3.6-4.3,7.3-4.3c5.5,0,8.4,4.5,8.4,10.5v12.2C446.1,258.8,445.7,259.3,444.4,259.3z M434.9,233h-7.7
			c-7.4,0-11.9-3.7-11.9-12.2c0-8.4,4.9-12.1,12.3-12.1h7.7c7.4,0,11.5,3.7,11.5,12.1C446.8,229.3,442.2,233,434.9,233z
			 M417.5,191.4c-1.5-0.8-1.6-1.4-1.6-3.5v-4.9c0-1.3,0.8-1.4,1.8-0.9l16.3,9.9h10.4c1.3,0,1.8,0.4,1.8,1.8v4.4
			c0,1.4-0.5,1.8-1.8,1.8H434l-16.3,9.8c-1,0.6-1.8,0.4-1.8-0.9v-5.1c0-2.1,0.1-2.7,1.6-3.5l8.4-4.3L417.5,191.4z M440.2,182.8
			c-1.3,0.5-1.9,0.1-2.3-1.2l-1.5-4c-0.4-1.3-0.3-1.9,0.9-2.5c1.5-0.8,2.3-2.4,2.3-4.8c0-2.8-0.6-4.6-2.4-4.6c-1.7,0-2.1,2.2-2.5,5
			c-0.7,5-1.6,12-9.8,12c-5.6,0-9.5-4.5-9.5-12.6c0-6.3,1.9-9.9,6-11.9c1.2-0.6,1.9-0.3,2.4,1l1.8,4.3c0.5,1.2,0.3,1.6-0.9,2.3
			c-1.6,0.8-2.2,2.3-2.2,4.3c0,2.9,0.7,4,2.2,4c1.8,0,2.2-2.5,2.6-5.6c0.7-4.9,1.9-11.3,9.9-11.3c6.3,0,9.7,5.7,9.7,13.2
			C446.8,176.8,444.6,181.2,440.2,182.8z"/>
	</g>
	<g class="st109">
		<path class="st9" d="M344.4,132.7c0,0,3.6-1.8,7.9-1.8c4.2,0,18.3,3.8,18.3,17.8c0,14,12.2,18.7,18.3,18.7c0,0-24.4,27.8-52.3,0
			c0,0,18.3-2,18.3-18.3C354.8,137.4,344.4,132.7,344.4,132.7z"/>
		<path class="st6" d="M336.8,172.5c-6.1,6.1-11,17-11,27.8c-0.5,34.6-13.9,69.1-40.3,95.5c-50.3,50.3-129.9,53.6-184,9.8
			c3.4,4,6.9,8,10.7,11.8c65.7,65.7,172.3,65.7,238,0c33.9-33.8,50.2-78.5,49.2-122.8c-0.8-8.1-4.3-16-10.5-22.1
			c-7.2-7.3-16.8-2.9-26.3-2.8C353.3,169.7,344,165.3,336.8,172.5z"/>
		<g>
			<defs>
				<path id="SVGID_143_" d="M336.8,172.5c-6.1,6.1-11,17-11,27.8c-0.5,34.6-13.9,69.1-40.3,95.5c-50.3,50.3-129.9,53.6-184,9.8
					c3.4,4,6.9,8,10.7,11.8c65.7,65.7,172.3,65.7,238,0c33.9-33.8,50.2-78.5,49.2-122.8c-0.8-8.1-4.3-16-10.5-22.1
					c-7.2-7.3-16.8-2.9-26.3-2.8C353.3,169.7,344,165.3,336.8,172.5z"/>
			</defs>
			<clipPath id="SVGID_21_">
				<use xlink:href="#SVGID_143_"  style="overflow:visible;"/>
			</clipPath>
			<radialGradient id="SVGID_22_" cx="230.8752" cy="198.0885" r="168.599" gradientUnits="userSpaceOnUse">
				<stop  offset="0.2562" style="stop-color:#FFFFFF;stop-opacity:0.3"/>
				<stop  offset="0.8966" style="stop-color:#000000;stop-opacity:0"/>
			</radialGradient>
			<path class="st27" d="M399.5,198.1c0-93.1-75.5-168.6-168.6-168.6S62.3,105,62.3,198.1s75.5,168.6,168.6,168.6
				S399.5,291.2,399.5,198.1z"/>
		</g>
	</g>
	<g class="st109">
		<linearGradient id="SVGID_23_" gradientUnits="userSpaceOnUse" x1="431.0239" y1="248.7778" x2="431.0239" y2="98.7802">
			<stop  offset="0" style="stop-color:#000000;stop-opacity:0"/>
			<stop  offset="1" style="stop-color:#FFFFFF;stop-opacity:0.3"/>
		</linearGradient>
		<rect x="411.6" y="98.8" class="st28" width="38.8" height="150"/>
	</g>
</g>
<g id="Camada_6">
</g>
</svg>
