<?xml version="1.0" encoding="utf-8"?>
<!-- Generator: Adobe Illustrator 22.0.1, SVG Export Plug-In . SVG Version: 6.00 Build 0)  -->
<svg version="1.1" xmlns="http://www.w3.org/2000/svg" xmlns:xlink="http://www.w3.org/1999/xlink" x="0px" y="0px"
	 viewBox="0 0 500 500" style="enable-background:new 0 0 500 500;" xml:space="preserve">
<style type="text/css">
	.st0{display:none;}
	.st1{display:inline;fill:#C1C1C1;}
	.st2{display:inline;fill:#E02B38;}
	.st3{display:inline;fill:#FFFFFF;}
	.st4{display:inline;fill:url(#SVGID_1_);}
	.st5{display:inline;fill:#E02F32;}
	.st6{display:inline;fill:#1F272C;}
	.st7{display:inline;fill:#E44F2C;}
	.st8{display:inline;fill:#FCCF00;}
	.st9{display:inline;}
	.st10{fill:#173A8F;}
	.st11{display:inline;fill:#173A8F;}
	.st12{fill:url(#SVGID_2_);}
	.st13{fill:url(#SVGID_3_);}
	.st14{fill:url(#SVGID_4_);}
	.st15{fill:url(#SVGID_5_);}
	.st16{fill:url(#SVGID_6_);}
	.st17{fill:url(#SVGID_7_);}
	.st18{fill:url(#SVGID_8_);}
	.st19{fill:url(#SVGID_9_);}
	.st20{fill:url(#SVGID_10_);}
	.st21{fill:#87B81C;}
	.st22{fill:#E02F32;}
	.st23{clip-path:url(#SVGID_12_);fill:url(#SVGID_13_);}
	.st24{fill:url(#SVGID_14_);}
	.st25{fill:url(#SVGID_15_);}
	.st26{fill:url(#SVGID_16_);}
	.st27{fill:url(#SVGID_17_);}
	.st28{fill:url(#SVGID_18_);}
	.st29{fill:url(#SVGID_19_);}
	.st30{fill:url(#SVGID_20_);}
	.st31{fill:url(#SVGID_21_);}
	.st32{clip-path:url(#SVGID_23_);fill:url(#SVGID_24_);}
	.st33{fill:url(#SVGID_25_);}
	.st34{fill:url(#SVGID_26_);}
	.st35{fill:url(#SVGID_27_);}
	.st36{fill:url(#SVGID_28_);}
	.st37{fill:url(#SVGID_29_);}
	.st38{fill:url(#SVGID_30_);}
	.st39{display:inline;fill:#87B81C;}
	.st40{fill:url(#SVGID_31_);}
	.st41{fill:url(#SVGID_32_);}
	.st42{fill:url(#SVGID_33_);}
	.st43{fill:url(#SVGID_34_);}
	.st44{fill:url(#SVGID_35_);}
	.st45{fill:url(#SVGID_36_);}
	.st46{fill:url(#SVGID_37_);}
	.st47{fill:url(#SVGID_38_);}
	.st48{fill:url(#SVGID_39_);}
	.st49{fill:url(#SVGID_40_);}
	.st50{fill:#FCCF00;}
	.st51{fill:#FFFFFF;}
	.st52{fill:url(#SVGID_41_);}
	.st53{fill:url(#SVGID_42_);}
	.st54{fill:url(#SVGID_43_);}
	.st55{fill:url(#SVGID_44_);}
	.st56{fill:url(#SVGID_45_);}
	.st57{fill:url(#SVGID_46_);}
	.st58{fill:url(#SVGID_47_);}
	.st59{fill:url(#SVGID_48_);}
	.st60{fill:url(#SVGID_49_);}
	.st61{fill:#1F272C;}
	.st62{fill:url(#SVGID_50_);}
	.st63{clip-path:url(#SVGID_52_);fill:url(#SVGID_53_);}
	.st64{fill:#E44F2C;}
	.st65{fill:url(#SVGID_54_);}
	.st66{fill:url(#SVGID_55_);}
	.st67{fill:url(#SVGID_56_);}
	.st68{fill:url(#SVGID_57_);}
	.st69{fill:url(#SVGID_58_);}
	.st70{fill:url(#SVGID_59_);}
	.st71{fill:url(#SVGID_60_);}
	.st72{fill:url(#SVGID_61_);}
	.st73{fill:url(#SVGID_62_);}
	.st74{fill:url(#SVGID_63_);}
	.st75{fill:url(#SVGID_64_);}
	.st76{clip-path:url(#SVGID_66_);fill:url(#SVGID_67_);}
	.st77{clip-path:url(#SVGID_69_);fill:url(#SVGID_70_);}
	.st78{clip-path:url(#SVGID_72_);fill:url(#SVGID_73_);}
	.st79{fill:url(#SVGID_74_);}
	.st80{fill:url(#SVGID_75_);}
	.st81{fill:url(#SVGID_76_);}
	.st82{clip-path:url(#SVGID_78_);fill:url(#SVGID_79_);}
	.st83{display:inline;fill:url(#SVGID_80_);}
	.st84{display:inline;fill:url(#SVGID_81_);}
	.st85{display:inline;fill:url(#SVGID_82_);}
	.st86{clip-path:url(#SVGID_84_);fill:url(#SVGID_85_);}
	.st87{display:inline;fill:url(#SVGID_86_);}
	.st88{display:inline;fill:url(#SVGID_87_);}
	.st89{fill:url(#SVGID_88_);}
	.st90{fill:url(#SVGID_89_);}
	.st91{fill:url(#SVGID_90_);}
	.st92{fill:url(#SVGID_91_);}
	.st93{fill:url(#SVGID_92_);}
	.st94{clip-path:url(#SVGID_94_);fill:url(#SVGID_95_);}
	.st95{fill:url(#SVGID_96_);}
	.st96{fill:url(#SVGID_97_);}
	.st97{fill:url(#SVGID_98_);}
	.st98{clip-path:url(#SVGID_100_);fill:url(#SVGID_101_);}
	.st99{fill:url(#SVGID_102_);}
	.st100{clip-path:url(#SVGID_104_);fill:url(#SVGID_105_);}
	.st101{fill:url(#SVGID_106_);}
	.st102{fill:url(#SVGID_107_);}
	.st103{fill:url(#SVGID_108_);}
	.st104{fill:url(#SVGID_109_);}
	.st105{fill:url(#SVGID_110_);}
	.st106{display:inline;fill:url(#SVGID_111_);}
	.st107{clip-path:url(#SVGID_113_);fill:url(#SVGID_114_);}
	.st108{fill:url(#SVGID_115_);}
	.st109{fill:url(#SVGID_116_);}
	.st110{fill:url(#SVGID_117_);}
	.st111{fill:url(#SVGID_118_);}
	.st112{display:inline;fill:url(#SVGID_119_);}
	.st113{display:inline;fill:url(#SVGID_120_);}
	.st114{clip-path:url(#SVGID_122_);fill:url(#SVGID_123_);}
	.st115{fill:url(#SVGID_124_);}
	.st116{display:inline;fill:url(#SVGID_125_);}
	.st117{display:inline;fill:url(#SVGID_126_);}
	.st118{display:inline;fill:url(#SVGID_127_);}
	.st119{fill:url(#SVGID_128_);}
	.st120{fill:url(#SVGID_129_);}
	.st121{clip-path:url(#SVGID_131_);fill:#E02F32;}
	.st122{clip-path:url(#SVGID_131_);fill:url(#SVGID_132_);}
	.st123{fill:url(#SVGID_133_);}
	.st124{fill:url(#SVGID_134_);}
	.st125{fill:url(#SVGID_135_);}
	.st126{clip-path:url(#SVGID_137_);fill:#E02F32;}
	.st127{clip-path:url(#SVGID_137_);fill:url(#SVGID_138_);}
	.st128{fill:url(#SVGID_139_);}
	.st129{fill:url(#SVGID_140_);}
	.st130{fill:url(#SVGID_141_);}
	.st131{clip-path:url(#SVGID_143_);fill:url(#SVGID_144_);}
	.st132{fill:url(#SVGID_145_);}
	.st133{fill:url(#SVGID_146_);}
	.st134{fill:url(#SVGID_147_);}
	.st135{fill:url(#SVGID_148_);}
	.st136{clip-path:url(#SVGID_150_);fill:url(#SVGID_151_);}
	.st137{clip-path:url(#SVGID_153_);fill:url(#SVGID_154_);}
	.st138{clip-path:url(#SVGID_156_);fill:url(#SVGID_157_);}
	.st139{fill:url(#SVGID_158_);}
	.st140{clip-path:url(#SVGID_160_);fill:url(#SVGID_161_);}
	.st141{clip-path:url(#SVGID_163_);fill:url(#SVGID_164_);}
	.st142{clip-path:url(#SVGID_166_);fill:url(#SVGID_167_);}
</style>
<g id="Camada_2" class="st0">
	<rect class="st1" width="500" height="500"/>
</g>
<g id="Camada_1" class="st0">
</g>
<g id="CH_Abrev" class="st0">
	<path class="st5" d="M429.4,194.2v113c0,5.6-2,7.6-7.6,7.6h-19.2c-5.6,0-7.6-2-7.6-7.6v-41.5h-34.3v41.5c0,5.6-1.8,7.6-7.6,7.6h-19
		c-5.8,0-7.8-2-7.8-7.6v-113c0-5.8,2-7.8,7.8-7.8h19c5.8,0,7.6,2,7.6,7.8v39.9h34.3v-39.9c0-5.8,2-7.8,7.6-7.8h19.2
		C427.4,186.4,429.4,188.4,429.4,194.2z"/>
	<g class="st9">
		<g>
			<g>
				<g>
					<path class="st10" d="M269.2,183.7c27.8,0,45.1,11.4,52.7,31.6c1.8,5.2,0.6,7.9-4.9,9.7l-19.3,6.9c-5.6,1.6-7.8,0.7-9.7-4.9
						c-3.3-8.1-8.7-11.7-18.8-11.7c-14.3,0-19.8,6.1-19.8,18.8v32.9c0,12.6,5.6,18.8,19.8,18.8c10.1,0,15.9-4,18.8-11.8
						c2.2-5.6,4.3-6.9,9.7-4.9L317,276c5.4,1.8,6.7,4.5,4.9,9.8c-7.6,20.2-24.9,31.6-52.7,31.6c-35.6,0-55.6-19.3-55.6-50.6v-32.5
						C213.5,203,233.6,183.7,269.2,183.7z"/>
				</g>
			</g>
		</g>
	</g>
	<rect x="180.5" y="186.5" class="st11" width="16.6" height="128.3"/>
	<g class="st9">
		<linearGradient id="SVGID_1_" gradientUnits="userSpaceOnUse" x1="377.9934" y1="250.5195" x2="377.9934" y2="186.4251">
			<stop  offset="0" style="stop-color:#000000;stop-opacity:0"/>
			<stop  offset="1" style="stop-color:#FFFFFF;stop-opacity:0.3"/>
		</linearGradient>
		<path style="fill:url(#SVGID_1_);" d="M429.5,194.2c0-5.8-2-7.8-7.6-7.8h-19.2c-5.6,0-7.6,2-7.6,7.8v39.9h-34.3v-39.9
			c0-5.8-1.8-7.8-7.6-7.8h-19c-5.8,0-7.8,2-7.8,7.8v56.3h103V194.2z"/>
		<linearGradient id="SVGID_2_" gradientUnits="userSpaceOnUse" x1="268.1998" y1="250.5195" x2="268.1998" y2="183.6848">
			<stop  offset="0" style="stop-color:#000000;stop-opacity:0"/>
			<stop  offset="1" style="stop-color:#FFFFFF;stop-opacity:0.3"/>
		</linearGradient>
		<path class="st12" d="M249.4,234.1c0-12.6,5.6-18.8,19.8-18.8c10.1,0,15.5,3.6,18.8,11.7c2,5.6,4.1,6.5,9.7,4.9l19.3-6.9
			c5.4-1.8,6.7-4.5,4.9-9.7c-7.6-20.2-24.9-31.6-52.7-31.6c-35.6,0-55.6,19.3-55.6,50.6v16.2h35.8V234.1z"/>
	</g>
	<g class="st9">
		<linearGradient id="SVGID_3_" gradientUnits="userSpaceOnUse" x1="188.8072" y1="250.6494" x2="188.8072" y2="186.4943">
			<stop  offset="0" style="stop-color:#000000;stop-opacity:0"/>
			<stop  offset="1" style="stop-color:#FFFFFF;stop-opacity:0.3"/>
		</linearGradient>
		<rect x="180.5" y="186.5" class="st13" width="16.6" height="64.2"/>
	</g>
	<path class="st11" d="M65.9,236.8l7.6-2.3l7.6-2.3l7.3-2.3l7.6-2.3l7.3-2.2l7.6-2.3l7.4-2.3l7.6-2.3l7.3-2.2l7.6-2.3l7.6-2.4
		l7.6-2.3l0.5-0.2l4.8-1.4l0-0.2l-1.6-5.1l-1.5-4.8c0,0-0.4-1.3-1.1-2.4c-1.2-1.8-2.9-2.3-5.4-1.8c-0.9,0.1-2,0.4-2,0.4l-5.5,1.7
		l-7.2,2.3l-7.6,2.3l-7.4,2.3l-7.6,2.3l-7.3,2.2l-7.6,2.3l-7.3,2.2l-7.6,2.3l-7.6,2.3l-7.7,2.4l-7.3,2.2l-7.6,2.3l-0.9,0.3l-0.6,0.2
		c-4.8,1.5-6,3.7-4.4,8.6l0,0l0.4,1.4l2.3,7.6l0,0.1l0.1,0.2l6.9-2.1L65.9,236.8z M156.9,195.3c0.4,0.5,0.9,2.1,0.9,2.1l1.6,5.2
		l-3.1,5.9l-7.6,2.4L156.9,195.3z M143.9,195.7l5.9-1.8c0,0,1.2-0.3,1.7-0.3l-10.4,19.7l-7.6,2.3L143.9,195.7z M129.1,200.3l7.6-2.4
		l-10.5,19.9l-7.6,2.4L129.1,200.3z M114.1,204.9l7.6-2.4l-10.5,19.9l-7.6,2.4L114.1,204.9z M99.2,209.5l7.6-2.3L96.3,227l-7.6,2.4
		L99.2,209.5z M84.3,214.1l7.6-2.4l-10.5,19.9l-7.6,2.4L84.3,214.1z M69.1,218.7l7.6-2.4l-10.5,19.9l-7.7,2.4L69.1,218.7z M53,237.7
		l-1.5,2.8l-2.4-7.6l5-9.5l7.6-2.3l-8.4,15.9c0,0,0,0.1,0,0.1C53.4,237.3,53.2,237.6,53,237.7z"/>
	<path class="st11" d="M51.3,241.6v59.6c0,5.1,1.8,6.9,6.7,6.9h100.1c5,0,6.7-1.7,6.7-6.9v-59.6H51.3z M52.7,245.2
		c-0.4,0-0.7-0.3-0.7-0.7c0-0.4,0.3-0.7,0.7-0.7c0.4,0,0.7,0.3,0.7,0.7C53.4,244.9,53.1,245.2,52.7,245.2z M63.2,245.2
		c-0.4,0-0.7-0.3-0.7-0.7c0-0.4,0.3-0.7,0.7-0.7c0.4,0,0.7,0.3,0.7,0.7C63.9,244.9,63.6,245.2,63.2,245.2z"/>
	<g class="st9">
		<path class="st21" d="M118.2,251.1c0,0,0.7-0.4,1.5-0.4c0.8,0,3.6,0.8,3.6,3.6c0,2.8,2.4,3.8,3.6,3.8c0,0-4.8,5.6-10.2,0
			c0,0,3.6-0.4,3.6-3.7C120.2,252,118.2,251.1,118.2,251.1z"/>
		<path class="st22" d="M116.7,259.1c-1.2,1.2-2.1,3.4-2.1,5.6c-0.1,7-2.7,13.9-7.9,19.2c-9.8,10.1-25.4,10.8-36,2
			c0.7,0.8,1.4,1.6,2.1,2.4c12.8,13.2,33.7,13.2,46.5,0c6.6-6.8,9.8-15.8,9.6-24.7c-0.2-1.6-0.8-3.2-2.1-4.4
			c-1.4-1.5-3.3-0.6-5.1-0.6C119.9,258.5,118.1,257.6,116.7,259.1z"/>
		<g>
			<defs>
				<path id="SVGID_77_" d="M116.7,259.1c-1.2,1.2-2.1,3.4-2.1,5.6c-0.1,7-2.7,13.9-7.9,19.2c-9.8,10.1-25.4,10.8-36,2
					c0.7,0.8,1.4,1.6,2.1,2.4c12.8,13.2,33.7,13.2,46.5,0c6.6-6.8,9.8-15.8,9.6-24.7c-0.2-1.6-0.8-3.2-2.1-4.4
					c-1.4-1.5-3.3-0.6-5.1-0.6C119.9,258.5,118.1,257.6,116.7,259.1z"/>
			</defs>
			<clipPath id="SVGID_4_">
				<use xlink:href="#SVGID_77_"  style="overflow:visible;"/>
			</clipPath>
			
				<radialGradient id="SVGID_5_" cx="90.3045" cy="264.232" r="33.855" gradientTransform="matrix(0.9735 0 0 1 8.0714 0)" gradientUnits="userSpaceOnUse">
				<stop  offset="0.2562" style="stop-color:#FFFFFF;stop-opacity:0.3"/>
				<stop  offset="0.8966" style="stop-color:#000000;stop-opacity:0"/>
			</radialGradient>
			<path style="clip-path:url(#SVGID_4_);fill:url(#SVGID_5_);" d="M128.9,264.2c0-18.7-14.8-33.9-33-33.9c-18.2,0-33,15.2-33,33.9
				c0,18.7,14.8,33.9,33,33.9C114.2,298.1,128.9,282.9,128.9,264.2z"/>
		</g>
	</g>
	<linearGradient id="SVGID_6_" gradientUnits="userSpaceOnUse" x1="104.5373" y1="241.2702" x2="104.5373" y2="192.9518">
		<stop  offset="0" style="stop-color:#000000;stop-opacity:0"/>
		<stop  offset="1" style="stop-color:#FFFFFF;stop-opacity:0.3"/>
	</linearGradient>
	<path style="display:inline;fill:url(#SVGID_6_);" d="M48.4,232l0.4,1.4l2.3,7.6l0,0.1l0.1,0.2l6.9-2.1l7.6-2.4l7.6-2.3l7.6-2.3
		l7.3-2.3l7.6-2.3l7.3-2.2l7.6-2.3l7.4-2.3l7.6-2.3l7.3-2.2l7.6-2.3l7.6-2.4l7.6-2.3l0.5-0.2l4.8-1.4l0-0.2l-1.6-5.1l-1.5-4.8
		c0,0-0.4-1.3-1.1-2.4c-1.2-1.8-2.9-2.3-5.4-1.8c-0.9,0.1-2,0.4-2,0.4l-5.5,1.7l-7.2,2.3l-7.6,2.3l-7.4,2.3l-7.6,2.3l-7.3,2.2
		l-7.6,2.3l-7.3,2.2l-7.6,2.3l-7.6,2.3l-7.7,2.4l-7.3,2.2l-7.6,2.3l-0.9,0.3l-0.6,0.2C48.1,224.8,46.9,227,48.4,232L48.4,232z
		 M156.8,195.3c0.4,0.5,0.9,2.1,0.9,2.1l1.6,5.2l-3.1,5.9l-7.6,2.4L156.8,195.3z M143.9,195.7l5.9-1.8c0,0,1.2-0.3,1.7-0.3
		L141,213.2l-7.6,2.3L143.9,195.7z M129,200.3l7.6-2.4l-10.5,19.9l-7.6,2.4L129,200.3z M114,204.9l7.6-2.4l-10.5,19.9l-7.6,2.4
		L114,204.9z M99.2,209.5l7.6-2.3L96.2,227l-7.6,2.4L99.2,209.5z M84.2,214.1l7.6-2.4l-10.5,19.9l-7.6,2.4L84.2,214.1z M69,218.7
		l7.6-2.4l-10.5,19.9l-7.7,2.4L69,218.7z M54.1,223.3l7.6-2.3l-8.4,15.9c0,0,0,0.1,0,0.1c0,0.3-0.2,0.5-0.4,0.6l-1.5,2.8l-2.4-7.6
		L54.1,223.3z"/>
	<linearGradient id="SVGID_7_" gradientUnits="userSpaceOnUse" x1="108.0796" y1="275.3961" x2="108.0796" y2="241.6021">
		<stop  offset="0" style="stop-color:#000000;stop-opacity:0"/>
		<stop  offset="1" style="stop-color:#FFFFFF;stop-opacity:0.3"/>
	</linearGradient>
	<path style="display:inline;fill:url(#SVGID_7_);" d="M164.8,275.4v-33.8H51.3v33.8H164.8z M52.7,245.2c-0.4,0-0.7-0.3-0.7-0.7
		c0-0.4,0.3-0.7,0.7-0.7c0.4,0,0.7,0.3,0.7,0.7C53.4,244.9,53.1,245.2,52.7,245.2z M63.2,245.2c-0.4,0-0.7-0.3-0.7-0.7
		c0-0.4,0.3-0.7,0.7-0.7c0.4,0,0.7,0.3,0.7,0.7C63.9,244.9,63.6,245.2,63.2,245.2z"/>
</g>
<g id="CineHot_Icon_Tag" class="st0">
	<g class="st9">
		<path class="st10" d="M436.2,196.2h-8.4c-2.7,0-4.5,1.1-4.5,4.1c0,3,1.4,4.1,4.1,4.1h8.5c2.7,0,4.1-1.1,4.1-4.1
			C439.9,197.3,438.9,196.2,436.2,196.2z"/>
		<path class="st10" d="M411.4,98.8v300.8h38.9V98.8H411.4z M416.4,163.6c0-1.4,0.5-1.8,1.8-1.8h3.9c1.4,0,1.8,0.5,1.8,1.8v6.3H445
			c1.3,0,1.8,0.5,1.8,1.8v4.5c0,1.4-0.5,1.8-1.8,1.8h-21.1v6.3c0,1.4-0.5,1.8-1.8,1.8h-3.9c-1.3,0-1.8-0.4-1.8-1.8V163.6z
			 M435.4,336.5h-7.7c-7.4,0-12-4.8-12-13.2c0-6.6,2.7-10.7,7.5-12.5c1.2-0.4,1.9-0.1,2.3,1.2l1.6,4.6c0.4,1.3,0.2,1.8-1.2,2.3
			c-1.9,0.8-2.8,2.1-2.8,4.5c0,3.4,1.5,4.7,4.4,4.7h7.8c3,0,4.5-1.3,4.5-4.7c0-2.4-0.9-3.8-2.8-4.5c-1.3-0.5-1.6-1-1.1-2.3l1.6-4.6
			c0.4-1.3,1.1-1.6,2.3-1.2c4.8,1.8,7.5,5.9,7.5,12.5C447.4,331.8,442.8,336.5,435.4,336.5z M425.2,279.4h-7c-1.3,0-1.8-0.4-1.8-1.8
			v-4.4c0-1.3,0.5-1.8,1.8-1.8H445c1.3,0,1.8,0.5,1.8,1.8v4.8c0,0.9-0.3,1.4-0.9,1.8l-10.1,5.3c-3,1.9-5,2.6-8.8,3.8
			c4.1-0.9,6.3-1.2,11-1.2h7c1.3,0,1.8,0.5,1.8,1.8v4.4c0,1.4-0.5,1.8-1.8,1.8h-26.8c-1.3,0-1.8-0.5-1.8-1.8v-5c0-1,0.3-1.4,0.8-1.8
			l11-5.7c2.9-1.9,4.6-2.2,7.8-3.6C431.6,279.2,429.6,279.4,425.2,279.4z M418.2,224.6c-1.4,0-1.8-0.5-1.8-1.8v-4.5
			c0-1.3,0.5-1.8,1.8-1.8H445c1.3,0,1.8,0.5,1.8,1.8v4.5c0,1.3-0.5,1.8-1.8,1.8h-9.8v8.1h9.8c1.3,0,1.8,0.4,1.8,1.8v4.5
			c0,1.4-0.5,1.8-1.8,1.8h-26.7c-1.4,0-1.8-0.5-1.8-1.8v-4.5c0-1.4,0.5-1.8,1.8-1.8h9.4v-8.1H418.2z M418.2,245.1h3.9
			c1.4,0,1.8,0.5,1.8,1.8v12h3.8V251c0-1.4,0.5-1.8,1.8-1.8h3.8c1.4,0,1.9,0.5,1.9,1.8v7.9h4.1v-12c0-1.3,0.4-1.8,1.8-1.8h3.9
			c1.3,0,1.8,0.5,1.8,1.8v18.7c0,1.4-0.5,1.8-1.8,1.8h-26.8c-1.3,0-1.8-0.5-1.8-1.8v-18.6C416.4,245.5,416.9,245.1,418.2,245.1z
			 M418.1,299.9h26.9c1.3,0,1.7,0.4,1.7,1.7v4.7c0,1.3-0.4,1.7-1.7,1.7h-26.9c-1.3,0-1.7-0.4-1.7-1.7v-4.7
			C416.4,300.4,416.8,299.9,418.1,299.9z M435.5,212.4h-7.7c-7.4,0-12-3.7-12-12.2c0-8.4,5-12.1,12.3-12.1h7.7
			c7.4,0,11.6,3.7,11.6,12.1C447.4,208.7,442.8,212.4,435.5,212.4z"/>
	</g>
	<path class="st11" d="M154.1,216.9l18-5.5l18.1-5.6l17.4-5.4l18.1-5.6l17.3-5.3l18.1-5.6l17.6-5.5l18.1-5.5l17.3-5.4l18.1-5.6
		l18.1-5.6l18.1-5.6l1.3-0.4l11.4-3.4l-0.1-0.4l-3.8-12.2l-3.5-11.5c0,0-1-3.1-2.7-5.6c-2.8-4.2-6.9-5.4-12.8-4.4
		c-2.2,0.2-4.7,0.9-4.7,0.9l-13.1,4.1l-17.2,5.4l-18.2,5.6l-17.6,5.4l-18.1,5.6l-17.3,5.3l-18.1,5.6l-17.3,5.4l-18.1,5.6l-18,5.6
		l-18.3,5.6l-17.3,5.3l-18.1,5.6l-2.2,0.7l-1.5,0.5c-11.4,3.5-14.2,8.8-10.6,20.6l0,0l1,3.3l5.6,18.1l0.1,0.3l0.2,0.4l16.5-5.1
		L154.1,216.9z M370.5,118.2c0.9,1.3,2.2,5,2.2,5l3.8,12.3l-7.5,14.2l-18.2,5.7L370.5,118.2z M339.7,119.1l14-4.3
		c0,0,2.8-0.8,3.9-0.8l-24.8,46.9l-18.2,5.6L339.7,119.1z M304.3,130l18.1-5.6l-25,47.3l-18.2,5.6L304.3,130z M268.7,141l18.1-5.6
		l-25.1,47.4l-18.2,5.7L268.7,141z M233.3,151.9l18.1-5.5l-25,47.3l-18.1,5.6L233.3,151.9z M197.8,162.8l18.1-5.6l-25,47.4
		l-18.1,5.6L197.8,162.8z M161.6,174l18.1-5.6l-25,47.4l-18.2,5.6L161.6,174z M123.3,219l-3.6,6.7l-5.6-18.2l12-22.7l18.2-5.6
		l-20.1,37.9c0,0.1,0.1,0.2,0.1,0.3C124.3,218.2,123.9,218.8,123.3,219z"/>
	<path class="st11" d="M119.4,228.4v141.8c0,12.3,4.2,16.4,15.9,16.4h238.3c11.9,0,16-4.1,16-16.4V228.4H119.4z M122.7,236.9
		c-0.9,0-1.7-0.8-1.7-1.7c0-0.9,0.8-1.7,1.7-1.7c0.9,0,1.7,0.8,1.7,1.7C124.4,236.1,123.6,236.9,122.7,236.9z M147.6,236.9
		c-0.9,0-1.7-0.7-1.7-1.7c0-0.9,0.7-1.7,1.7-1.7c0.9,0,1.7,0.7,1.7,1.7C149.3,236.2,148.5,236.9,147.6,236.9z"/>
	<linearGradient id="SVGID_8_" gradientUnits="userSpaceOnUse" x1="430.8304" y1="249.2342" x2="430.8304" y2="98.8586">
		<stop  offset="0" style="stop-color:#000000;stop-opacity:0"/>
		<stop  offset="1" style="stop-color:#FFFFFF;stop-opacity:0.3"/>
	</linearGradient>
	<rect x="411.4" y="98.9" style="display:inline;fill:url(#SVGID_8_);" width="38.9" height="150.4"/>
	<g class="st9">
		<path class="st21" d="M278.4,251c0,0,1.7-0.9,3.7-0.9c2,0,8.5,1.8,8.5,8.5c0,6.7,5.7,9,8.5,9c0,0-11.4,13.3-24.3,0
			c0,0,8.5-1,8.5-8.7C283.3,253.2,278.4,251,278.4,251z"/>
		<path class="st22" d="M274.9,270c-2.8,2.9-5.1,8.1-5.1,13.3c-0.2,16.5-6.5,33-18.8,45.6c-23.4,24-60.4,25.6-85.6,4.7
			c1.6,1.9,3.2,3.8,5,5.6c30.6,31.4,80.1,31.4,110.7,0c15.7-16.2,23.4-37.5,22.9-58.7c-0.4-3.9-2-7.6-4.9-10.6
			c-3.4-3.5-7.8-1.4-12.2-1.4C282.6,268.7,278.3,266.6,274.9,270z"/>
		<g>
			<defs>
				<path id="SVGID_83_" d="M274.9,270c-2.8,2.9-5.1,8.1-5.1,13.3c-0.2,16.5-6.5,33-18.8,45.6c-23.4,24-60.4,25.6-85.6,4.7
					c1.6,1.9,3.2,3.8,5,5.6c30.6,31.4,80.1,31.4,110.7,0c15.7-16.2,23.4-37.5,22.9-58.7c-0.4-3.9-2-7.6-4.9-10.6
					c-3.4-3.5-7.8-1.4-12.2-1.4C282.6,268.7,278.3,266.6,274.9,270z"/>
			</defs>
			<clipPath id="SVGID_9_">
				<use xlink:href="#SVGID_83_"  style="overflow:visible;"/>
			</clipPath>
			
				<radialGradient id="SVGID_10_" cx="223.4981" cy="282.2437" r="80.5581" gradientTransform="matrix(0.9735 0 0 1 8.0714 0)" gradientUnits="userSpaceOnUse">
				<stop  offset="0.2562" style="stop-color:#FFFFFF;stop-opacity:0.3"/>
				<stop  offset="0.8966" style="stop-color:#000000;stop-opacity:0"/>
			</radialGradient>
			<path style="clip-path:url(#SVGID_9_);fill:url(#SVGID_10_);" d="M304.1,282.2c0-44.5-35.1-80.6-78.4-80.6
				c-43.3,0-78.4,36.1-78.4,80.6c0,44.5,35.1,80.6,78.4,80.6C268.9,362.8,304.1,326.7,304.1,282.2z"/>
		</g>
	</g>
	<linearGradient id="SVGID_12_" gradientUnits="userSpaceOnUse" x1="246.0021" y1="227.6059" x2="246.0021" y2="112.632">
		<stop  offset="0" style="stop-color:#000000;stop-opacity:0"/>
		<stop  offset="1" style="stop-color:#FFFFFF;stop-opacity:0.3"/>
	</linearGradient>
	<path style="display:inline;fill:url(#SVGID_12_);" d="M112.5,205.5l1,3.3l5.6,18.1l0.1,0.3l0.2,0.4l16.5-5.1l18.2-5.6l18-5.5
		l18.1-5.6l17.4-5.4l18.1-5.6l17.3-5.3L261,184l17.6-5.5l18.1-5.5l17.3-5.4l18.1-5.6l18.1-5.6l18.1-5.6l1.3-0.4l11.4-3.4l-0.1-0.4
		l-3.8-12.2l-3.5-11.5c0,0-1-3.1-2.7-5.6c-2.8-4.2-6.9-5.4-12.8-4.4c-2.2,0.2-4.7,0.9-4.7,0.9l-13.1,4.1l-17.2,5.4l-18.2,5.6
		l-17.6,5.4l-18.1,5.6l-17.3,5.3l-18.1,5.6l-17.3,5.4l-18.1,5.6l-18,5.6l-18.3,5.6l-17.3,5.3l-18.1,5.6l-2.2,0.7l-1.5,0.5
		C111.7,188.4,108.9,193.7,112.5,205.5L112.5,205.5z M370.5,118.2c0.9,1.3,2.2,5,2.2,5l3.8,12.3l-7.5,14.2l-18.2,5.7L370.5,118.2z
		 M339.6,119.1l14.1-4.3c0,0,2.8-0.8,3.9-0.8l-24.8,46.9l-18.2,5.6L339.6,119.1z M304.3,130l18.1-5.6l-25,47.3l-18.2,5.6L304.3,130z
		 M268.6,141l18.1-5.6l-25.1,47.4l-18.2,5.7L268.6,141z M233.2,151.9l18.1-5.5l-25,47.3l-18.1,5.6L233.2,151.9z M197.7,162.8
		l18.1-5.6l-25,47.4l-18.1,5.6L197.7,162.8z M161.5,174l18.1-5.6l-25,47.4l-18.2,5.6L161.5,174z M126.1,184.9l18.2-5.6l-20.1,37.9
		c0,0.1,0.1,0.2,0.1,0.3c0,0.7-0.4,1.2-1,1.5l-3.6,6.7l-5.6-18.2L126.1,184.9z"/>
	<linearGradient id="SVGID_13_" gradientUnits="userSpaceOnUse" x1="254.431" y1="308.8088" x2="254.431" y2="228.3956">
		<stop  offset="0" style="stop-color:#000000;stop-opacity:0"/>
		<stop  offset="1" style="stop-color:#FFFFFF;stop-opacity:0.3"/>
	</linearGradient>
	<path style="display:inline;fill:url(#SVGID_13_);" d="M389.5,308.8v-80.4H119.4v80.4H389.5z M122.6,236.9c-0.9,0-1.7-0.8-1.7-1.7
		c0-0.9,0.8-1.7,1.7-1.7c0.9,0,1.7,0.8,1.7,1.7C124.3,236.1,123.6,236.9,122.6,236.9z M147.6,236.9c-0.9,0-1.7-0.7-1.7-1.7
		c0-0.9,0.7-1.7,1.7-1.7c0.9,0,1.7,0.7,1.7,1.7C149.2,236.2,148.5,236.9,147.6,236.9z"/>
</g>
<g id="BB_Abrev_W" class="st0">
	<g class="st9">
		<rect x="181.2" y="188.6" class="st50" width="16" height="123.9"/>
		<g>
			<g>
				<path class="st50" d="M308.4,221c0,11.7-3.6,19.5-12.5,25.6v0.7c11.2,4.9,17.6,14.8,17.6,30c0,22.5-18.3,34.5-42.9,34.5h-50.1
					c-5.6,0-7.5-1.9-7.5-7.3V195.4c0-5.6,1.9-7.5,7.5-7.5h49.3C293.9,187.9,308.4,199.7,308.4,221z M262.7,215.9h-15.2v19.2h15.2
					c7,0,10.6-2.6,10.6-9.4C273.3,218.9,269.7,215.9,262.7,215.9z M266,263.2h-18.5v20.4H266c7.5,0,11.2-3,11.2-10.3
					C277.2,266.3,273.5,263.2,266,263.2z"/>
			</g>
		</g>
		<g>
			<linearGradient id="SVGID_14_" gradientUnits="userSpaceOnUse" x1="260.6892" y1="250.0195" x2="260.6892" y2="187.8645">
				<stop  offset="0" style="stop-color:#000000;stop-opacity:0"/>
				<stop  offset="1" style="stop-color:#FFFFFF;stop-opacity:0.3"/>
			</linearGradient>
			<path class="st24" d="M295.8,247.3v-0.7c8.9-6.1,12.5-13.9,12.5-25.6c0-21.2-14.5-33.1-38.5-33.1h-49.3c-5.6,0-7.5,1.9-7.5,7.5
				V250h87.8C299.3,249,297.6,248,295.8,247.3z M262.7,235.1h-15.2v-19.2h15.2c7,0,10.6,2.9,10.6,9.8
				C273.3,232.5,269.7,235.1,262.7,235.1z"/>
			<path class="st51" d="M415.1,221.7c0,11.7-3.7,19.5-12.5,25.6v0.7c11.2,4.9,17.6,14.8,17.6,30c0,22.5-18.3,34.5-42.9,34.5h-50.1
				c-5.6,0-7.5-1.9-7.5-7.3V196.1c0-5.6,1.9-7.5,7.5-7.5h49.3C400.7,188.6,415.1,200.4,415.1,221.7z M369.5,216.6h-15.2v19.2h15.2
				c7,0,10.6-2.6,10.6-9.4C380.1,219.6,376.4,216.6,369.5,216.6z M372.8,263.8h-18.5v20.4h18.5c7.5,0,11.2-3,11.2-10.3
				C383.9,267,380.3,263.8,372.8,263.8z"/>
			<linearGradient id="SVGID_15_" gradientUnits="userSpaceOnUse" x1="367.4427" y1="250.7057" x2="367.4427" y2="188.5507">
				<stop  offset="0" style="stop-color:#000000;stop-opacity:0"/>
				<stop  offset="1" style="stop-color:#FFFFFF;stop-opacity:0.3"/>
			</linearGradient>
			<path class="st25" d="M402.6,248v-0.7c8.9-6.1,12.5-13.9,12.5-25.6c0-21.2-14.4-33.1-38.5-33.1h-49.3c-5.6,0-7.5,1.9-7.5,7.5
				v54.7h87.8C406,249.7,404.4,248.7,402.6,248z M369.5,235.8h-15.2v-19.2h15.2c7,0,10.6,2.9,10.6,9.8
				C380.1,233.2,376.4,235.8,369.5,235.8z"/>
		</g>
		<g>
			<linearGradient id="SVGID_16_" gradientUnits="userSpaceOnUse" x1="189.2314" y1="250.5022" x2="189.2314" y2="188.5507">
				<stop  offset="0" style="stop-color:#000000;stop-opacity:0"/>
				<stop  offset="1" style="stop-color:#FFFFFF;stop-opacity:0.3"/>
			</linearGradient>
			<rect x="181.2" y="188.6" class="st26" width="16" height="62"/>
		</g>
		<g>
			<path class="st51" d="M116,222c0.2-0.6,0.3-1.2,0.3-1.9c0-4.2-3.4-7.6-7.6-7.6c-4.2,0-7.6,3.4-7.6,7.6c0,0.7,0.1,1.3,0.2,1.9
				c-4.7,2.6-7.8,7.5-7.8,13.3v38.6c0,2.1,6.8,3.9,15.2,3.9c8.4,0,15.1-1.7,15.1-3.9v-38.6C123.9,229.5,120.7,224.6,116,222z"/>
			<path class="st51" d="M124.4,273.2c0.5,0.6,0.8,1.2,0.8,1.8c0,3.3-7.4,5.9-16.5,5.9c-9.1,0-16.5-2.7-16.5-5.9
				c0-0.6,0.3-1.3,0.8-1.8c-3,1.4-4.8,3.3-4.8,5.3c0,4.5,9.2,8.2,20.5,8.2c11.3,0,20.5-3.7,20.5-8.2
				C129.2,276.4,127.4,274.6,124.4,273.2z"/>
			<linearGradient id="SVGID_17_" gradientUnits="userSpaceOnUse" x1="102.4671" y1="267.6347" x2="114.9455" y2="289.2479">
				<stop  offset="0" style="stop-color:#FFFFFF;stop-opacity:0.3"/>
				<stop  offset="1" style="stop-color:#000000;stop-opacity:0"/>
			</linearGradient>
			<path class="st27" d="M124.4,273.2c0.5,0.6,0.8,1.2,0.8,1.8c0,3.3-7.4,5.9-16.5,5.9c-9.1,0-16.5-2.7-16.5-5.9
				c0-0.6,0.3-1.3,0.8-1.8c-3,1.4-4.8,3.3-4.8,5.3c0,4.5,9.2,8.2,20.5,8.2c11.3,0,20.5-3.7,20.5-8.2
				C129.2,276.4,127.4,274.6,124.4,273.2z"/>
			<g>
				<linearGradient id="SVGID_18_" gradientUnits="userSpaceOnUse" x1="91.9261" y1="221.0373" x2="113.1079" y2="257.7251">
					<stop  offset="0" style="stop-color:#FFFFFF;stop-opacity:0.3"/>
					<stop  offset="1" style="stop-color:#000000;stop-opacity:0"/>
				</linearGradient>
				<path class="st28" d="M123.9,235.3c0-5.7-3.2-10.7-7.8-13.3c0.2-0.6,0.3-1.2,0.3-1.9c0-4.2-3.4-7.6-7.6-7.6
					c-4.2,0-7.6,3.4-7.6,7.6c0,0.7,0.1,1.3,0.2,1.9c-4.7,2.6-7.8,7.5-7.8,13.3V269l30.3-30.3V235.3z"/>
			</g>
			<path class="st50" d="M108.7,193c-31.8,0-57.6,25.8-57.6,57.6c0,31.8,25.8,57.6,57.6,57.6s57.6-25.8,57.6-57.6
				C166.3,218.8,140.5,193,108.7,193z M61.2,250.6c0-11.3,4-21.7,10.6-29.9l66.8,66.8c-8.2,6.6-18.5,10.6-29.9,10.6
				C82.5,298.1,61.2,276.8,61.2,250.6z M145.7,280.4l-66.8-66.8c8.2-6.6,18.5-10.6,29.9-10.6c26.2,0,47.5,21.3,47.5,47.5
				C156.2,261.9,152.3,272.3,145.7,280.4z"/>
			<g>
				<defs>
					<path id="SVGID_93_" d="M108.7,193c-31.8,0-57.6,25.8-57.6,57.6c0,31.8,25.8,57.6,57.6,57.6s57.6-25.8,57.6-57.6
						C166.3,218.8,140.5,193,108.7,193z M61.2,250.6c0-11.3,4-21.7,10.6-29.9l66.8,66.8c-8.2,6.6-18.5,10.6-29.9,10.6
						C82.5,298.1,61.2,276.8,61.2,250.6z M145.7,280.4l-66.8-66.8c8.2-6.6,18.5-10.6,29.9-10.6c26.2,0,47.5,21.3,47.5,47.5
						C156.2,261.9,152.3,272.3,145.7,280.4z"/>
				</defs>
				<clipPath id="SVGID_19_">
					<use xlink:href="#SVGID_93_"  style="overflow:visible;"/>
				</clipPath>
				<radialGradient id="SVGID_20_" cx="71.6065" cy="213.61" r="57.61" gradientUnits="userSpaceOnUse">
					<stop  offset="0" style="stop-color:#FFFFFF;stop-opacity:0.3"/>
					<stop  offset="1" style="stop-color:#000000;stop-opacity:0"/>
				</radialGradient>
				<path style="clip-path:url(#SVGID_19_);fill:url(#SVGID_20_);" d="M71.6,156C39.8,156,14,181.8,14,213.6
					c0,31.8,25.8,57.6,57.6,57.6c31.8,0,57.6-25.8,57.6-57.6C129.2,181.8,103.4,156,71.6,156z"/>
			</g>
		</g>
	</g>
</g>
<g id="Bareback_Icon_Tag_White" class="st0">
	<g class="st9">
		<path class="st50" d="M427,237.1c0-1.7-0.6-2.6-2.3-2.6c-1.7,0-2.4,0.9-2.4,2.6v3.7h4.7V237.1z"/>
		<path class="st50" d="M423.1,316.1c0,0,3.6,0,6.4,0.8l4.6,1.7v-5.3l-4.6,1.9C426.7,316.1,423.1,316.1,423.1,316.1z"/>
		<path class="st50" d="M438.8,236.2c0-1.8-0.7-2.7-2.5-2.7c-1.7,0-2.5,0.9-2.5,2.7v4.5h5V236.2z"/>
		<path class="st50" d="M423.1,210.8c0,0,3.6,0,6.4,0.8l4.6,1.7V208l-4.6,1.9C426.7,210.8,423.1,210.8,423.1,210.8z"/>
		<path class="st50" d="M424.7,339.8c-1.7,0-2.4,0.9-2.4,2.6v3.7h4.7v-3.7C427,340.7,426.3,339.8,424.7,339.8z"/>
		<path class="st50" d="M411.1,98.8v300.7H450V98.8H411.1z M415.5,161.6c0-1.4,0.5-1.8,1.8-1.8h9.4v-0.9l-9.7-6.1
			c-1.3-0.8-1.6-1.2-1.6-3.4v-4.9c0-1.3,0.8-1.7,1.9-1l12.3,7.7c0.8-1.1,1.8-1.9,3.3-2.6l10.6-5.6c1.1-0.6,2.1-0.3,2.1,1.1v4.6
			c0,2.2-0.3,3-1.8,3.8l-7.6,3.7c-1.4,0.7-2.1,1.3-2.1,2.9v0.8h9.7c1.3,0,1.8,0.4,1.8,1.8v4.8c0,1.3-0.5,1.8-1.8,1.8h-26.6
			c-1.3,0-1.8-0.5-1.8-1.8V161.6z M443.9,216.2c1.3,0.4,1.8,1,1.8,3.1v4.5c0,1.3-0.6,1.6-1.7,1.1l-27-9.8c-1.2-0.4-1.5-1-1.5-2.2
			v-4.8c0-1.2,0.3-1.8,1.4-2.2l27-9.8c1.1-0.4,1.7,0,1.7,1.2v4.6c0,2.2-0.5,2.9-1.8,3.2l-3.1,1v9.2L443.9,216.2z M423.5,225.9
			c2.9,0,4.8,0.9,6.3,3.1h0.2c1.2-2.7,3.6-4.3,7.3-4.3c5.5,0,8.4,4.5,8.4,10.5v12.2c0,1.4-0.5,1.8-1.8,1.8h-26.6
			c-1.3,0-1.8-0.5-1.8-1.8v-12C415.4,229.4,418.3,225.9,423.5,225.9z M417.2,251.3h3.8c1.4,0,1.8,0.5,1.8,1.8v11.9h3.8v-7.9
			c0-1.4,0.5-1.8,1.8-1.8h3.8c1.4,0,1.8,0.5,1.8,1.8v7.9h4.1v-12c0-1.3,0.4-1.8,1.8-1.8h3.9c1.3,0,1.8,0.5,1.8,1.8v18.6
			c0,1.4-0.5,1.8-1.8,1.8h-26.7c-1.3,0-1.8-0.5-1.8-1.8v-18.6C415.4,251.8,415.9,251.3,417.2,251.3z M443.9,321.5
			c1.3,0.4,1.8,1,1.8,3.1v4.5c0,1.3-0.6,1.6-1.7,1.1l-27-9.8c-1.2-0.4-1.5-1-1.5-2.2v-4.9c0-1.2,0.3-1.8,1.4-2.2l27-9.8
			c1.1-0.4,1.7,0,1.7,1.2v4.6c0,2.2-0.5,2.9-1.8,3.2l-3.1,1v9.2L443.9,321.5z M445.7,352.7c0,1.4-0.5,1.8-1.8,1.8h-26.6
			c-1.3,0-1.8-0.5-1.8-1.8v-12c0-5.9,2.9-9.4,8.1-9.4c2.9,0,4.8,0.9,6.3,3.1h0.2c1.2-2.7,3.6-4.3,7.3-4.3c5.5,0,8.4,4.5,8.4,10.5
			V352.7z M445.7,280.7c0,2.2-0.5,3.2-2,3.9l-5.8,2.7c-1.5,0.7-2.2,1.4-2.2,3.2v1h8.2c1.3,0,1.8,0.4,1.8,1.8v4.8
			c0,1.4-0.5,1.8-1.8,1.8h-26.6c-1.3,0-1.8-0.5-1.8-1.8V286c0-6.4,3.7-10.6,10.2-10.6c4.2,0,7.1,1.7,8.8,4.6
			c0.6-0.4,1.1-0.8,1.8-1.1l7.3-3.8c1.2-0.6,2.1-0.3,2.1,1.1V280.7z M434.4,196.6h-7.6c-7.4,0-11.9-4.7-11.9-13.1
			c0-6.5,2.7-10.6,7.4-12.4c1.2-0.4,1.9-0.1,2.3,1.1l1.6,4.6c0.4,1.3,0.2,1.8-1.1,2.3c-1.9,0.8-2.8,2-2.8,4.4c0,3.4,1.5,4.7,4.4,4.7
			h7.7c3,0,4.4-1.3,4.4-4.7c0-2.4-0.9-3.7-2.8-4.4c-1.3-0.5-1.6-1-1.1-2.3l1.6-4.6c0.4-1.3,1.1-1.6,2.3-1.1
			c4.8,1.8,7.4,5.9,7.4,12.4C446.3,191.9,441.7,196.6,434.4,196.6z"/>
		<path class="st50" d="M436.3,338.8c-1.7,0-2.5,0.9-2.5,2.7v4.5h5v-4.5C438.8,339.7,438.1,338.8,436.3,338.8z"/>
		<path class="st50" d="M425.7,284.1c-1.7,0-2.8,1-2.8,2.8v4.6h5.6v-4.6C428.6,285.1,427.5,284.1,425.7,284.1z"/>
	</g>
	<g class="st9">
		<linearGradient id="SVGID_21_" gradientUnits="userSpaceOnUse" x1="430.5425" y1="249.163" x2="430.5425" y2="98.7802">
			<stop  offset="0" style="stop-color:#000000;stop-opacity:0"/>
			<stop  offset="1" style="stop-color:#FFFFFF;stop-opacity:0.3"/>
		</linearGradient>
		<rect x="411.1" y="98.8" class="st31" width="38.9" height="150.4"/>
	</g>
	<g class="st9">
		<path class="st51" d="M269.5,175.4c0.4-1.6,0.6-3.2,0.6-4.9c0-10.9-8.8-19.7-19.7-19.7s-19.7,8.8-19.7,19.7c0,1.7,0.2,3.3,0.6,4.9
			c-12.1,6.7-20.3,19.6-20.3,34.4v100.3c0,5.5,17.6,10,39.4,10c21.7,0,39.3-4.5,39.3-10V209.9C289.8,195,281.6,182.1,269.5,175.4z"
			/>
		<path class="st51" d="M291.2,308.3c1.3,1.5,2.1,3.1,2.1,4.7c0,8.5-19.2,15.4-42.8,15.4c-23.7,0-42.9-6.9-42.9-15.4
			c0-1.7,0.8-3.3,2.1-4.7c-7.8,3.7-12.5,8.5-12.5,13.7c0,11.8,23.8,21.3,53.2,21.3c29.4,0,53.2-9.6,53.2-21.3
			C303.7,316.8,299,312,291.2,308.3z"/>
		<linearGradient id="SVGID_23_" gradientUnits="userSpaceOnUse" x1="234.298" y1="293.9594" x2="266.7049" y2="350.0898">
			<stop  offset="0" style="stop-color:#FFFFFF;stop-opacity:0.3"/>
			<stop  offset="1" style="stop-color:#000000;stop-opacity:0"/>
		</linearGradient>
		<path style="fill:url(#SVGID_23_);" d="M291.2,308.3c1.3,1.5,2.1,3.1,2.1,4.7c0,8.5-19.2,15.4-42.8,15.4
			c-23.7,0-42.9-6.9-42.9-15.4c0-1.7,0.8-3.3,2.1-4.7c-7.8,3.7-12.5,8.5-12.5,13.7c0,11.8,23.8,21.3,53.2,21.3
			c29.4,0,53.2-9.6,53.2-21.3C303.7,316.8,299,312,291.2,308.3z"/>
		<g>
			<linearGradient id="SVGID_24_" gradientUnits="userSpaceOnUse" x1="206.926" y1="172.9516" x2="261.9281" y2="268.2181">
				<stop  offset="0" style="stop-color:#FFFFFF;stop-opacity:0.3"/>
				<stop  offset="1" style="stop-color:#000000;stop-opacity:0"/>
			</linearGradient>
			<path style="fill:url(#SVGID_24_);" d="M289.8,209.9c0-14.8-8.2-27.7-20.3-34.4c0.4-1.6,0.6-3.2,0.6-4.9
				c0-10.9-8.8-19.7-19.7-19.7s-19.7,8.8-19.7,19.7c0,1.7,0.2,3.3,0.6,4.9c-12.1,6.7-20.3,19.6-20.3,34.4v87.7l78.7-78.7V209.9z"/>
		</g>
		<path class="st50" d="M250.5,100.1c-82.6,0-149.6,67-149.6,149.6s67,149.6,149.6,149.6c82.6,0,149.6-67,149.6-149.6
			S333.1,100.1,250.5,100.1z M127.1,249.7c0-29.4,10.3-56.3,27.4-77.5L328,345.7c-21.2,17.1-48.2,27.4-77.5,27.4
			C182.3,373.1,127.1,317.9,127.1,249.7z M346.5,327.2L173,153.7c21.2-17.1,48.2-27.4,77.5-27.4c68.2,0,123.4,55.3,123.4,123.4
			C373.9,279.1,363.7,306,346.5,327.2z"/>
		<g>
			<defs>
				<path id="SVGID_99_" d="M250.5,100.1c-82.6,0-149.6,67-149.6,149.6s67,149.6,149.6,149.6c82.6,0,149.6-67,149.6-149.6
					S333.1,100.1,250.5,100.1z M127.1,249.7c0-29.4,10.3-56.3,27.4-77.5L328,345.7c-21.2,17.1-48.2,27.4-77.5,27.4
					C182.3,373.1,127.1,317.9,127.1,249.7z M346.5,327.2L173,153.7c21.2-17.1,48.2-27.4,77.5-27.4c68.2,0,123.4,55.3,123.4,123.4
					C373.9,279.1,363.7,306,346.5,327.2z"/>
			</defs>
			<clipPath id="SVGID_25_">
				<use xlink:href="#SVGID_99_"  style="overflow:visible;"/>
			</clipPath>
			<radialGradient id="SVGID_26_" cx="154.1488" cy="153.6597" r="149.6117" gradientUnits="userSpaceOnUse">
				<stop  offset="0" style="stop-color:#FFFFFF;stop-opacity:0.3"/>
				<stop  offset="1" style="stop-color:#000000;stop-opacity:0"/>
			</radialGradient>
			<path style="clip-path:url(#SVGID_25_);fill:url(#SVGID_26_);" d="M154.1,4C71.5,4,4.5,71,4.5,153.7c0,82.6,67,149.6,149.6,149.6
				c82.6,0,149.6-67,149.6-149.6C303.8,71,236.8,4,154.1,4z"/>
		</g>
	</g>
</g>
<g id="HOTv_Abrev_W">
	<linearGradient id="SVGID_27_" gradientUnits="userSpaceOnUse" x1="108.0059" y1="249.7606" x2="108.0059" y2="197.1814">
		<stop  offset="0" style="stop-color:#000000;stop-opacity:0"/>
		<stop  offset="1" style="stop-color:#FFFFFF;stop-opacity:0.3"/>
	</linearGradient>
	<path class="st35" d="M65.7,243.1c0-11.3,5.3-30.8,15.5-30.8h53.4c10.1,0,15.5,19.5,15.5,30.8c0,2-0.2,4.3-0.6,6.6H165
		c0.2-2.1,0.3-4.3,0.3-6.6c0-31.9-17.2-46-45.1-46H95.8c-27.8,0-45.1,14.1-45.1,46c0,2.3,0.1,4.5,0.3,6.6h15.1
		C65.8,247.4,65.7,245.1,65.7,243.1z"/>
	<g>
		<path class="st51" d="M120.2,197.2H95.8c-27.8,0-45.1,14.1-45.1,46c0,31.7,17.2,45.7,45.1,45.7h24.5c27.8,0,45.1-14,45.1-45.7
			C165.3,211.3,148.1,197.2,120.2,197.2z M108,285.5c-2.5,0-4.5-2-4.5-4.6c0-2.5,2-4.5,4.5-4.5c2.5,0,4.5,2,4.5,4.5
			C112.5,283.5,110.5,285.5,108,285.5z M133.1,273.6H79.7c-10.1,0-14-19.4-14-30.5c0-11.3,5.3-30.8,15.5-30.8h53.4
			c10.2,0,15.5,19.5,15.5,30.8C150,254.2,143.3,273.6,133.1,273.6z"/>
		<rect x="73.4" y="296.3" class="st51" width="69.2" height="7.9"/>
		<path class="st22" d="M315.3,194.5v16.2c0,5.8-2,7.7-7.7,7.7h-26.5v88.6c0,5.6-2,7.5-7.7,7.5h-18.9c-5.8,0-7.5-2-7.5-7.5v-88.6
			h-26.6c-5.8,0-7.5-2-7.5-7.7v-16.2c0-5.6,1.8-7.5,7.5-7.5h87.3C313.4,186.9,315.3,188.9,315.3,194.5z"/>
		<g>
			<path class="st51" d="M355.2,242.2l-23.7,68.5c-1.1,3.1-2.5,3.7-5.6,3.7h-12.2c-3.1,0-4.6-0.8-5.6-3.5l-23.8-68.7
				c-1.1-2.9-0.1-4.4,3.1-4.4h11.6c5.5,0,7.2,1.2,8.1,4.5l7.5,26.1c1.7,6.4,5,24.1,5,24.1l0,0c0,0,3.5-17.7,5.3-24.1l7.5-26.1
				c0.9-3.3,2.5-4.5,7.7-4.5h12.1C355.5,237.8,356.3,239.3,355.2,242.2z"/>
		</g>
		<rect x="180.7" y="186.7" class="st51" width="16.5" height="127.7"/>
	</g>
	<g>
		<path class="st21" d="M124.6,221.6c0,0,0.7-0.3,1.5-0.3c0.8,0,3.4,0.7,3.4,3.3c0,2.6,2.2,3.4,3.4,3.4c0,0-4.5,5.1-9.6,0
			c0,0,3.4-0.4,3.4-3.4C126.5,222.5,124.6,221.6,124.6,221.6z"/>
		<path class="st22" d="M123.2,228.9c-1.1,1.1-2,3.1-2,5.1c-0.1,6.4-2.6,12.7-7.4,17.6c-9.3,9.3-23.9,9.9-33.9,1.8
			c0.6,0.7,1.3,1.5,2,2.2c12.1,12.1,31.7,12.1,43.8,0c6.2-6.2,9.2-14.4,9.1-22.6c-0.1-1.5-0.8-2.9-1.9-4.1c-1.3-1.3-3.1-0.5-4.8-0.5
			C126.2,228.4,124.5,227.6,123.2,228.9z"/>
		<g>
			<defs>
				<path id="SVGID_103_" d="M123.2,228.9c-1.1,1.1-2,3.1-2,5.1c-0.1,6.4-2.6,12.7-7.4,17.6c-9.3,9.3-23.9,9.9-33.9,1.8
					c0.6,0.7,1.3,1.5,2,2.2c12.1,12.1,31.7,12.1,43.8,0c6.2-6.2,9.2-14.4,9.1-22.6c-0.1-1.5-0.8-2.9-1.9-4.1
					c-1.3-1.3-3.1-0.5-4.8-0.5C126.2,228.4,124.5,227.6,123.2,228.9z"/>
			</defs>
			<clipPath id="SVGID_28_">
				<use xlink:href="#SVGID_103_"  style="overflow:visible;"/>
			</clipPath>
			<radialGradient id="SVGID_29_" cx="103.6719" cy="233.6557" r="31.0175" gradientUnits="userSpaceOnUse">
				<stop  offset="0.2562" style="stop-color:#FFFFFF;stop-opacity:0.3"/>
				<stop  offset="0.8966" style="stop-color:#000000;stop-opacity:0"/>
			</radialGradient>
			<path style="clip-path:url(#SVGID_28_);fill:url(#SVGID_29_);" d="M134.7,233.7c0-17.1-13.9-31-31-31c-17.1,0-31,13.9-31,31
				c0,17.1,13.9,31,31,31C120.8,264.7,134.7,250.8,134.7,233.7z"/>
		</g>
	</g>
	<g>
		<linearGradient id="SVGID_30_" gradientUnits="userSpaceOnUse" x1="188.9825" y1="250.6432" x2="188.9825" y2="186.774">
			<stop  offset="0" style="stop-color:#000000;stop-opacity:0"/>
			<stop  offset="1" style="stop-color:#FFFFFF;stop-opacity:0.3"/>
		</linearGradient>
		<rect x="180.7" y="186.8" class="st38" width="16.5" height="63.9"/>
	</g>
	<g>
		<linearGradient id="SVGID_31_" gradientUnits="userSpaceOnUse" x1="264.0708" y1="250.6862" x2="264.0708" y2="186.9296">
			<stop  offset="0" style="stop-color:#000000;stop-opacity:0"/>
			<stop  offset="1" style="stop-color:#FFFFFF;stop-opacity:0.3"/>
		</linearGradient>
		<path class="st40" d="M307.6,186.9h-87.3c-5.8,0-7.5,2-7.5,7.5v16.2c0,5.8,1.8,7.7,7.5,7.7H247v32.3h34.2v-32.3h26.5
			c5.7,0,7.7-2,7.7-7.7v-16.2C315.3,188.9,313.4,186.9,307.6,186.9z"/>
	</g>
	<g>
		<linearGradient id="SVGID_32_" gradientUnits="userSpaceOnUse" x1="339.3439" y1="276.1364" x2="339.3439" y2="237.8296">
			<stop  offset="0" style="stop-color:#000000;stop-opacity:0"/>
			<stop  offset="1" style="stop-color:#FFFFFF;stop-opacity:0.3"/>
		</linearGradient>
		<path class="st41" d="M355.2,242.2c1.1-2.9,0.4-4.4-2.9-4.4h-12.1c-5.2,0-6.9,1.2-7.7,4.5l-7.5,26.1c-0.5,1.8-1.2,4.6-1.9,7.7
			h20.4L355.2,242.2z"/>
		<linearGradient id="SVGID_33_" gradientUnits="userSpaceOnUse" x1="300.139" y1="276.1364" x2="300.139" y2="237.8296">
			<stop  offset="0" style="stop-color:#000000;stop-opacity:0"/>
			<stop  offset="1" style="stop-color:#FFFFFF;stop-opacity:0.3"/>
		</linearGradient>
		<path class="st42" d="M314.6,268.5l-7.5-26.1c-0.9-3.3-2.6-4.5-8.1-4.5h-11.6c-3.2,0-4.2,1.5-3.1,4.4l11.8,33.9h20.3
			C315.8,273.1,315.1,270.3,314.6,268.5z"/>
	</g>
	<linearGradient id="SVGID_34_" gradientUnits="userSpaceOnUse" x1="108.0059" y1="249.7606" x2="108.0059" y2="197.1814">
		<stop  offset="0" style="stop-color:#000000;stop-opacity:0"/>
		<stop  offset="1" style="stop-color:#FFFFFF;stop-opacity:0.3"/>
	</linearGradient>
	<path class="st43" d="M65.7,243.1c0-11.3,5.3-30.8,15.5-30.8h53.4c10.1,0,15.5,19.5,15.5,30.8c0,2-0.2,4.3-0.6,6.6H165
		c0.2-2.1,0.3-4.3,0.3-6.6c0-31.9-17.2-46-45.1-46H95.8c-27.8,0-45.1,14.1-45.1,46c0,2.3,0.1,4.5,0.3,6.6h15.1
		C65.8,247.4,65.7,245.1,65.7,243.1z"/>
</g>
<g id="HOTv_Abrev" class="st0">
	<linearGradient id="SVGID_35_" gradientUnits="userSpaceOnUse" x1="108.0059" y1="249.6609" x2="108.0059" y2="197.0817">
		<stop  offset="0" style="stop-color:#000000;stop-opacity:0"/>
		<stop  offset="1" style="stop-color:#FFFFFF;stop-opacity:0.3"/>
	</linearGradient>
	<path style="display:inline;fill:url(#SVGID_35_);" d="M65.7,243c0-11.3,5.3-30.8,15.5-30.8h53.4c10.1,0,15.5,19.5,15.5,30.8
		c0,2-0.2,4.3-0.6,6.6H165c0.2-2.1,0.3-4.3,0.3-6.6c0-31.9-17.2-46-45.1-46H95.8c-27.8,0-45.1,14.1-45.1,46c0,2.3,0.1,4.5,0.3,6.6
		h15.1C65.8,247.3,65.7,245,65.7,243z"/>
	<g class="st9">
		<path class="st61" d="M120.2,197.1H95.8c-27.8,0-45.1,14.1-45.1,46c0,31.7,17.2,45.7,45.1,45.7h24.5c27.8,0,45.1-14,45.1-45.7
			C165.3,211.2,148.1,197.1,120.2,197.1z M108,285.4c-2.5,0-4.5-2-4.5-4.6c0-2.5,2-4.5,4.5-4.5c2.5,0,4.5,2,4.5,4.5
			C112.5,283.4,110.5,285.4,108,285.4z M133.1,273.5H79.7c-10.1,0-14-19.4-14-30.5c0-11.3,5.3-30.8,15.5-30.8h53.4
			c10.2,0,15.5,19.5,15.5,30.8C150,254.1,143.3,273.5,133.1,273.5z"/>
		<rect x="73.4" y="296.2" class="st61" width="69.2" height="7.9"/>
		<path class="st22" d="M315.3,194.4v16.2c0,5.8-2,7.7-7.7,7.7h-26.5v88.6c0,5.6-2,7.5-7.7,7.5h-18.9c-5.8,0-7.5-2-7.5-7.5v-88.6
			h-26.6c-5.8,0-7.5-2-7.5-7.7v-16.2c0-5.6,1.8-7.5,7.5-7.5h87.3C313.4,186.8,315.3,188.8,315.3,194.4z"/>
		<g>
			<path class="st61" d="M354.9,242.1l-23.7,68.5c-1.1,3.1-2.5,3.7-5.6,3.7h-12.2c-3.1,0-4.6-0.8-5.6-3.5L284,242.1
				c-1.1-2.9-0.1-4.4,3.1-4.4h11.6c5.5,0,7.2,1.2,8.1,4.5l7.5,26.1c1.7,6.4,5,24.1,5,24.1l0,0c0,0,3.5-17.7,5.3-24.1l7.5-26.1
				c0.9-3.3,2.5-4.5,7.7-4.5H352C355.3,237.7,356,239.2,354.9,242.1z"/>
		</g>
		<rect x="180.7" y="186.9" class="st61" width="16.5" height="127.7"/>
	</g>
	<g class="st9">
		<path class="st21" d="M124.6,221.5c0,0,0.7-0.3,1.5-0.3c0.8,0,3.4,0.7,3.4,3.3c0,2.6,2.2,3.4,3.4,3.4c0,0-4.5,5.1-9.6,0
			c0,0,3.4-0.4,3.4-3.4C126.5,222.4,124.6,221.5,124.6,221.5z"/>
		<path class="st22" d="M123.2,228.8c-1.1,1.1-2,3.1-2,5.1c-0.1,6.4-2.6,12.7-7.4,17.6c-9.3,9.3-23.9,9.9-33.9,1.8
			c0.6,0.7,1.3,1.5,2,2.2c12.1,12.1,31.7,12.1,43.8,0c6.2-6.2,9.2-14.4,9.1-22.6c-0.1-1.5-0.8-2.9-1.9-4.1c-1.3-1.3-3.1-0.5-4.8-0.5
			C126.2,228.3,124.5,227.5,123.2,228.8z"/>
		<g>
			<defs>
				<path id="SVGID_112_" d="M123.2,228.8c-1.1,1.1-2,3.1-2,5.1c-0.1,6.4-2.6,12.7-7.4,17.6c-9.3,9.3-23.9,9.9-33.9,1.8
					c0.6,0.7,1.3,1.5,2,2.2c12.1,12.1,31.7,12.1,43.8,0c6.2-6.2,9.2-14.4,9.1-22.6c-0.1-1.5-0.8-2.9-1.9-4.1
					c-1.3-1.3-3.1-0.5-4.8-0.5C126.2,228.3,124.5,227.5,123.2,228.8z"/>
			</defs>
			<clipPath id="SVGID_36_">
				<use xlink:href="#SVGID_112_"  style="overflow:visible;"/>
			</clipPath>
			<radialGradient id="SVGID_37_" cx="103.6719" cy="233.5559" r="31.0175" gradientUnits="userSpaceOnUse">
				<stop  offset="0.2562" style="stop-color:#FFFFFF;stop-opacity:0.3"/>
				<stop  offset="0.8966" style="stop-color:#000000;stop-opacity:0"/>
			</radialGradient>
			<path style="clip-path:url(#SVGID_36_);fill:url(#SVGID_37_);" d="M134.7,233.6c0-17.1-13.9-31-31-31c-17.1,0-31,13.9-31,31
				c0,17.1,13.9,31,31,31C120.8,264.6,134.7,250.7,134.7,233.6z"/>
		</g>
	</g>
	<g class="st9">
		<linearGradient id="SVGID_38_" gradientUnits="userSpaceOnUse" x1="188.9825" y1="250.7934" x2="188.9825" y2="186.9243">
			<stop  offset="0" style="stop-color:#000000;stop-opacity:0"/>
			<stop  offset="1" style="stop-color:#FFFFFF;stop-opacity:0.3"/>
		</linearGradient>
		<rect x="180.7" y="186.9" class="st47" width="16.5" height="63.9"/>
	</g>
	<g class="st9">
		<linearGradient id="SVGID_39_" gradientUnits="userSpaceOnUse" x1="264.0708" y1="250.5864" x2="264.0708" y2="186.8299">
			<stop  offset="0" style="stop-color:#000000;stop-opacity:0"/>
			<stop  offset="1" style="stop-color:#FFFFFF;stop-opacity:0.3"/>
		</linearGradient>
		<path class="st48" d="M307.6,186.8h-87.3c-5.8,0-7.5,2-7.5,7.5v16.2c0,5.8,1.8,7.7,7.5,7.7H247v32.3h34.2v-32.3h26.5
			c5.7,0,7.7-2,7.7-7.7v-16.2C315.3,188.8,313.4,186.8,307.6,186.8z"/>
	</g>
	<g class="st9">
		<linearGradient id="SVGID_40_" gradientUnits="userSpaceOnUse" x1="339.0682" y1="276.0367" x2="339.0682" y2="237.7299">
			<stop  offset="0" style="stop-color:#000000;stop-opacity:0"/>
			<stop  offset="1" style="stop-color:#FFFFFF;stop-opacity:0.3"/>
		</linearGradient>
		<path class="st49" d="M354.9,242.1c1.1-2.9,0.4-4.4-2.9-4.4h-12.1c-5.2,0-6.9,1.2-7.7,4.5l-7.5,26.1c-0.5,1.8-1.2,4.6-1.9,7.7
			h20.4L354.9,242.1z"/>
		<linearGradient id="SVGID_41_" gradientUnits="userSpaceOnUse" x1="299.8634" y1="276.0367" x2="299.8634" y2="237.7299">
			<stop  offset="0" style="stop-color:#000000;stop-opacity:0"/>
			<stop  offset="1" style="stop-color:#FFFFFF;stop-opacity:0.3"/>
		</linearGradient>
		<path class="st52" d="M314.4,268.4l-7.5-26.1c-0.9-3.3-2.6-4.5-8.1-4.5h-11.6c-3.2,0-4.2,1.5-3.1,4.4l11.8,33.9h20.3
			C315.5,273,314.9,270.2,314.4,268.4z"/>
	</g>
	<linearGradient id="SVGID_42_" gradientUnits="userSpaceOnUse" x1="108.0059" y1="249.6609" x2="108.0059" y2="197.0817">
		<stop  offset="0" style="stop-color:#000000;stop-opacity:0"/>
		<stop  offset="1" style="stop-color:#FFFFFF;stop-opacity:0.3"/>
	</linearGradient>
	<path style="display:inline;fill:url(#SVGID_42_);" d="M65.7,243c0-11.3,5.3-30.8,15.5-30.8h53.4c10.1,0,15.5,19.5,15.5,30.8
		c0,2-0.2,4.3-0.6,6.6H165c0.2-2.1,0.3-4.3,0.3-6.6c0-31.9-17.2-46-45.1-46H95.8c-27.8,0-45.1,14.1-45.1,46c0,2.3,0.1,4.5,0.3,6.6
		h15.1C65.8,247.3,65.7,245,65.7,243z"/>
</g>
<g id="HOTv_Icon_Tag_White" class="st0">
	<linearGradient id="SVGID_43_" gradientUnits="userSpaceOnUse" x1="250" y1="256.6111" x2="250" y2="118.6118">
		<stop  offset="0" style="stop-color:#000000;stop-opacity:0"/>
		<stop  offset="1" style="stop-color:#FFFFFF;stop-opacity:0.3"/>
	</linearGradient>
	<path style="display:inline;fill:url(#SVGID_43_);" d="M138.9,239.2c0-29.6,14-80.8,40.6-80.8h140.1c26.6,0,40.6,51.2,40.6,80.8
		c0,5.2-0.6,11.2-1.7,17.4h41.1c0.5-5.6,0.7-11.3,0.7-17.4c0-83.7-45.2-120.6-118.4-120.6h-64.2c-73,0-118.2,36.9-118.2,120.6
		c0,6,0.3,11.8,0.8,17.4H140C139.3,250.4,138.9,244.4,138.9,239.2z"/>
	<path class="st3" d="M282,118.6h-64.2c-73,0-118.2,36.9-118.2,120.6c0,83.2,45.1,119.8,118.2,119.8H282
		c73.1,0,118.4-36.6,118.4-119.8C400.4,155.5,355.2,118.6,282,118.6z M250,350.5c-6.6,0-11.9-5.3-11.9-12c0-6.5,5.3-11.9,11.9-11.9
		c6.6,0,11.9,5.3,11.9,11.9C261.9,345.2,256.6,350.5,250,350.5z M315.9,319.2H175.8c-26.6,0-36.9-50.8-36.9-80
		c0-29.6,14-80.8,40.6-80.8h140.1c26.6,0,40.6,51.2,40.6,80.8C360.2,268.4,342.6,319.2,315.9,319.2z"/>
	<rect x="159.2" y="378.8" class="st3" width="181.6" height="20.8"/>
	<g class="st9">
		<path class="st51" d="M411.1,98.8v300.3H450V98.8H411.1z M427.8,216.9c0-1.3,0.3-1.7,1.1-1.9l6.2-1.8c1.5-0.4,5.7-1.2,5.7-1.2
			s-4.2-0.8-5.7-1.3l-6.2-1.8c-0.8-0.2-1.1-0.6-1.1-1.9v-2.9c0-0.8,0.3-0.9,1-0.7l16.3,5.6c0.7,0.3,0.9,0.6,0.9,1.3v2.9
			c0,0.7-0.2,1.1-0.8,1.3l-16.3,5.7c-0.7,0.2-1,0-1-0.8V216.9z M415.7,218.2c0-1.4,0.5-1.8,1.8-1.8h3.8c1.4,0,1.8,0.5,1.8,1.8v6.3
			h21c1.3,0,1.8,0.5,1.8,1.8v4.5c0,1.4-0.5,1.8-1.8,1.8h-21v6.3c0,1.4-0.5,1.8-1.8,1.8h-3.8c-1.3,0-1.8-0.4-1.8-1.8V218.2z
			 M446,276.4c0,1.3-0.5,1.8-1.8,1.8h-9.8v8.1h9.8c1.3,0,1.8,0.4,1.8,1.8v4.5c0,1.4-0.5,1.8-1.8,1.8h-26.7c-1.4,0-1.8-0.5-1.8-1.8
			v-4.5c0-1.4,0.5-1.8,1.8-1.8h9.4v-8.1h-9.4c-1.4,0-1.8-0.5-1.8-1.8v-4.5c0-1.3,0.5-1.8,1.8-1.8h26.7c1.3,0,1.8,0.5,1.8,1.8V276.4z
			 M434.7,266H427c-7.4,0-11.9-3.7-11.9-12.2c0-8.4,4.9-12.1,12.3-12.1h7.7c7.4,0,11.6,3.7,11.6,12.1
			C446.6,262.2,442.1,266,434.7,266z"/>
		<path class="st51" d="M435.4,249.7H427c-2.7,0-4.5,1.1-4.5,4.1c0,3,1.4,4.1,4.1,4.1h8.4c2.7,0,4.1-1.1,4.1-4.1
			C439.2,250.9,438.1,249.7,435.4,249.7z"/>
	</g>
	<g class="st9">
		<path class="st21" d="M293.4,182.8c0,0,1.7-0.9,3.8-0.9c2,0,8.8,1.8,8.8,8.6c0,6.7,5.9,9,8.8,9c0,0-11.8,13.4-25.3,0
			c0,0,8.8-1,8.8-8.8C298.5,185,293.4,182.8,293.4,182.8z"/>
		<path class="st22" d="M289.8,202c-2.9,2.9-5.3,8.2-5.3,13.4c-0.2,16.7-6.7,33.4-19.5,46.1c-24.3,24.3-62.7,25.9-88.8,4.7
			c1.6,1.9,3.3,3.9,5.2,5.7c31.7,31.8,83.2,31.8,114.9,0c16.3-16.3,24.3-37.9,23.8-59.3c-0.4-3.9-2.1-7.7-5.1-10.7
			c-3.5-3.5-8.1-1.4-12.7-1.4C297.8,200.6,293.2,198.5,289.8,202z"/>
		<g>
			<defs>
				<path id="SVGID_121_" d="M289.8,202c-2.9,2.9-5.3,8.2-5.3,13.4c-0.2,16.7-6.7,33.4-19.5,46.1c-24.3,24.3-62.7,25.9-88.8,4.7
					c1.6,1.9,3.3,3.9,5.2,5.7c31.7,31.8,83.2,31.8,114.9,0c16.3-16.3,24.3-37.9,23.8-59.3c-0.4-3.9-2.1-7.7-5.1-10.7
					c-3.5-3.5-8.1-1.4-12.7-1.4C297.8,200.6,293.2,198.5,289.8,202z"/>
			</defs>
			<clipPath id="SVGID_44_">
				<use xlink:href="#SVGID_121_"  style="overflow:visible;"/>
			</clipPath>
			<radialGradient id="SVGID_45_" cx="238.6249" cy="214.3343" r="81.4011" gradientUnits="userSpaceOnUse">
				<stop  offset="0.2562" style="stop-color:#FFFFFF;stop-opacity:0.3"/>
				<stop  offset="0.8966" style="stop-color:#000000;stop-opacity:0"/>
			</radialGradient>
			<path style="clip-path:url(#SVGID_44_);fill:url(#SVGID_45_);" d="M320,214.3c0-44.9-36.4-81.4-81.4-81.4
				c-45,0-81.4,36.4-81.4,81.4c0,45,36.4,81.4,81.4,81.4C283.6,295.7,320,259.3,320,214.3z"/>
		</g>
	</g>
	<g class="st9">
		<linearGradient id="SVGID_46_" gradientUnits="userSpaceOnUse" x1="430.565" y1="249.0321" x2="430.565" y2="98.8585">
			<stop  offset="0" style="stop-color:#000000;stop-opacity:0"/>
			<stop  offset="1" style="stop-color:#FFFFFF;stop-opacity:0.3"/>
		</linearGradient>
		<rect x="411.1" y="98.9" class="st57" width="38.9" height="150.2"/>
	</g>
	<linearGradient id="SVGID_47_" gradientUnits="userSpaceOnUse" x1="250" y1="256.6111" x2="250" y2="118.6118">
		<stop  offset="0" style="stop-color:#000000;stop-opacity:0"/>
		<stop  offset="1" style="stop-color:#FFFFFF;stop-opacity:0.3"/>
	</linearGradient>
	<path style="display:inline;fill:url(#SVGID_47_);" d="M138.9,239.2c0-29.6,14-80.8,40.6-80.8h140.1c26.6,0,40.6,51.2,40.6,80.8
		c0,5.2-0.6,11.2-1.7,17.4h41.1c0.5-5.6,0.7-11.3,0.7-17.4c0-83.7-45.2-120.6-118.4-120.6h-64.2c-73,0-118.2,36.9-118.2,120.6
		c0,6,0.3,11.8,0.8,17.4H140C139.3,250.4,138.9,244.4,138.9,239.2z"/>
</g>
<g id="AH_Abrev" class="st0">
	<g class="st9">
		<g>
			<path class="st22" d="M157.9,224.8c-2,0-2.7-1.2-4.3-1.4c-3.4-0.4-6.1,1.7-9.1,2.6c-2.6,2.1-4.4,5.1-4.8,8.8
				c-0.4,3.4,0.3,4.2-0.8,13.4c-3.7,31.3-44.7,33.2-57.4,31.5C68.7,278,67,286.6,67,286.6s-0.2,2.7,2.2,0.7
				c7.8-6.3,25.4,4.2,28.6,5.4c18.8,7.5,41.6-3.9,46.4-7.3c16.5-11.9,19.7-41.9,20-43.8c0.2-1.9,0.4-3.6,0.4-3.6
				C165.2,232.4,162.4,227.2,157.9,224.8z"/>
			<path class="st21" d="M144,226.5c0,0-0.4,0-1.1-0.6c-0.7-0.6,1.7,0.2,4.5-1.2c0,0-0.2-1.9,0.1-4.2c0.4-2.3-2-7.2-3-8.9
				c-1-1.7-3-4.4-5.8-4.5c-1.3,0,0.6-2.6,4.7-2.5c0.9,0,2.8,2.6,3.8,3.7c1,1.1,5.7,9.8,5.6,11.6c0,0,2,1.7,3.1,3.8
				c0.1,0.4,0.4,0.6,1,0.6c0.6,0.1,1.6-0.5,1.6-0.5s0.4,0.1,0.5,0.5c0.1,0.4-0.2,0.7-0.5,0.9C158.5,225.3,150.6,224.2,144,226.5z"/>
		</g>
	</g>
	<path class="st5" d="M425.2,195.2v111c0,5.5-1.9,7.5-7.4,7.5h-18.8c-5.5,0-7.4-1.9-7.4-7.5v-40.8h-33.7v40.8c0,5.5-1.8,7.5-7.4,7.5
		h-18.7c-5.7,0-7.6-1.9-7.6-7.5v-111c0-5.7,1.9-7.6,7.6-7.6h18.7c5.7,0,7.4,2,7.4,7.6v39.2h33.7v-39.2c0-5.7,2-7.6,7.4-7.6h18.8
		C423.2,187.6,425.2,189.5,425.2,195.2z"/>
	<path class="st39" d="M266.6,184c26.4,0,41.3,7.8,49.7,25c2.5,5.2,1.1,7.8-4.3,10l-17.8,7.7c-4.8,2.1-6.8,1.4-9.6-3.7
		c-3.4-6.8-9.8-9.3-18-9.3c-12.1,0-16.9,3-16.9,9.3c0,7.7,10.5,9.2,23.3,10.9c20.7,2.8,47.4,7.8,47.4,41.5
		c0,26.2-23.7,38.7-55.2,38.7c-26.5,0-45.1-7.2-51.9-25.7c-2-5.4-0.3-7.8,4.8-9.8l16.7-6.1c5.3-1.8,7.8-1.2,10.5,3.9
		c3.2,6.2,10.2,9.4,20.1,9.4c11.9,0,19.1-2.5,19.1-10.2c0-7-9.1-8.9-20.8-10.5c-20.9-2.9-50.1-6.6-50.1-41.1
		C213.7,200.4,232.6,184,266.6,184z"/>
	<rect x="181" y="186.8" class="st39" width="16.3" height="126.1"/>
	<path class="st39" d="M127.2,222.9c-6.6,0-11.9,5.3-11.9,11.8c0,3.9,1.9,7.3,4.8,9.5l-26.5,26.5H72.7c-0.5-0.3-1.1-0.4-1.7-0.4
		c-1.5,0-2.8,0.9-3.3,2.3l0,0l-16.9,17l4.4,4.4L72,276.9l0,0c0,0,0,0,0,0v0.1h24v0l0.1,0.1l6.1-6.2h14.7h6.2v-6.2V250l3.5-3.5
		c0.2,0,0.4,0,0.7,0c6.5,0,11.8-5.3,11.8-11.9C139.1,228.2,133.8,222.9,127.2,222.9z M116.9,264.7l-8.5,0l8.5-8.5L116.9,264.7z"/>
	<linearGradient id="SVGID_48_" gradientUnits="userSpaceOnUse" x1="374.5908" y1="250.5909" x2="374.5908" y2="187.5618">
		<stop  offset="0" style="stop-color:#000000;stop-opacity:0"/>
		<stop  offset="1" style="stop-color:#FFFFFF;stop-opacity:0.3"/>
	</linearGradient>
	<path style="display:inline;fill:url(#SVGID_48_);" d="M425.2,195.2c0-5.7-1.9-7.6-7.5-7.6h-18.8c-5.5,0-7.4,2-7.4,7.6v39.2h-33.7
		v-39.2c0-5.7-1.8-7.6-7.4-7.6h-18.7c-5.7,0-7.6,2-7.6,7.6v55.4h101.2V195.2z"/>
	<linearGradient id="SVGID_49_" gradientUnits="userSpaceOnUse" x1="265.6013" y1="250.5909" x2="265.6013" y2="184.0377">
		<stop  offset="0" style="stop-color:#000000;stop-opacity:0"/>
		<stop  offset="1" style="stop-color:#FFFFFF;stop-opacity:0.3"/>
	</linearGradient>
	<path style="display:inline;fill:url(#SVGID_49_);" d="M273,233.8c-12.8-1.6-23.3-3.2-23.3-10.9c0-6.2,4.8-9.3,16.9-9.3
		c8.2,0,14.6,2.5,18,9.3c2.8,5.2,4.8,5.9,9.6,3.7L312,219c5.3-2.1,6.8-4.8,4.3-10c-8.4-17.1-23.3-25-49.7-25
		c-34,0-52.9,16.4-52.9,39.9c0,12.4,3.7,20.8,9.5,26.6H313C303.6,238.6,287,235.7,273,233.8z"/>
	<g class="st9">
		<linearGradient id="SVGID_50_" gradientUnits="userSpaceOnUse" x1="189.1924" y1="249.8724" x2="189.1924" y2="186.8432">
			<stop  offset="0" style="stop-color:#000000;stop-opacity:0"/>
			<stop  offset="1" style="stop-color:#FFFFFF;stop-opacity:0.3"/>
		</linearGradient>
		<rect x="181" y="186.8" class="st62" width="16.3" height="63"/>
	</g>
</g>
<g id="SOLOHOT_Icon_Tag" class="st0">
	<g class="st9">
		<g>
			<path class="st21" d="M426.5,198.8h8.4c2.7,0,4.1-1.1,4.1-4c0-2.9-1-4-3.7-4h-8.4c-2.7,0-4.4,1.1-4.4,4
				C422.4,197.8,423.8,198.8,426.5,198.8z"/>
			<path class="st21" d="M426.5,305.9h8.4c2.7,0,4.1-1.1,4.1-4c0-2.9-1-4-3.7-4h-8.4c-2.7,0-4.4,1.1-4.4,4
				C422.4,304.9,423.8,305.9,426.5,305.9z"/>
			<path class="st21" d="M426.5,255.1h8.4c2.7,0,4.1-1.1,4.1-4c0-2.9-1-4-3.7-4h-8.4c-2.7,0-4.4,1.1-4.4,4
				C422.4,254,423.8,255.1,426.5,255.1z"/>
			<path class="st21" d="M411.3,98.8v300.9h38.9V98.8H411.3z M415.9,158.3c0-1.4,0.5-1.8,1.8-1.8h3.8c1.3,0,1.8,0.5,1.8,1.8v6.2
				h20.9c1.3,0,1.8,0.5,1.8,1.8v4.5c0,1.4-0.5,1.8-1.8,1.8h-20.9v6.3c0,1.4-0.5,1.8-1.8,1.8h-3.8c-1.3,0-1.8-0.4-1.8-1.8V158.3z
				 M427.3,182.8h7.6c7.3,0,11.5,3.7,11.5,12c0,8.4-4.5,12.1-11.8,12.1h-7.6c-7.3,0-11.9-3.7-11.9-12.1
				C415,186.5,419.9,182.8,427.3,182.8z M444.1,227c1.3,0,1.8,0.4,1.8,1.8v4.5c0,1.4-0.5,1.8-1.8,1.8h-26.5c-1.4,0-1.8-0.5-1.8-1.8
				v-4.5c0-1.3,0.5-1.8,1.8-1.8h9.4v-8.1h-9.4c-1.4,0-1.8-0.5-1.8-1.8v-4.5c0-1.3,0.5-1.8,1.8-1.8h26.5c1.3,0,1.8,0.5,1.8,1.8v4.5
				c0,1.3-0.5,1.8-1.8,1.8h-9.7v8.1H444.1z M427.3,239.1h7.6c7.3,0,11.5,3.7,11.5,12c0,8.4-4.5,12.1-11.8,12.1h-7.6
				c-7.3,0-11.9-3.7-11.9-12.1C415,242.7,419.9,239.1,427.3,239.1z M445.8,268.1v17.5c0,1.4-0.5,1.8-1.8,1.8h-26.6
				c-1.3,0-1.8-0.5-1.8-1.8v-4.5c0-1.4,0.5-1.8,1.8-1.8h20.3v-11.2c0-1.3,0.4-1.8,1.8-1.8h4.5C445.3,266.3,445.8,266.8,445.8,268.1z
				 M427.3,289.9h7.6c7.3,0,11.5,3.7,11.5,12c0,8.4-4.5,12.1-11.8,12.1h-7.6c-7.3,0-11.9-3.7-11.9-12.1
				C415,293.6,419.9,289.9,427.3,289.9z M439.9,341.8c-1.3,0.5-1.9,0.1-2.3-1.1l-1.4-4c-0.4-1.3-0.3-1.9,0.9-2.5
				c1.5-0.8,2.2-2.4,2.2-4.8c0-2.9-0.6-4.6-2.4-4.6c-1.7,0-2.1,2.2-2.5,5c-0.7,5-1.6,11.9-9.8,11.9c-5.6,0-9.5-4.5-9.5-12.6
				c0-6.3,1.9-9.9,6-11.9c1.2-0.6,1.9-0.3,2.4,1l1.8,4.3c0.5,1.1,0.3,1.6-0.9,2.3c-1.6,0.8-2.2,2.3-2.2,4.3c0,2.9,0.7,4,2.2,4
				c1.8,0,2.2-2.5,2.6-5.6c0.7-4.9,1.9-11.3,9.9-11.3c6.3,0,9.7,5.7,9.7,13.2C446.4,335.8,444.3,340.2,439.9,341.8z"/>
		</g>
	</g>
	<g class="st9">
		<path class="st22" d="M382,173c-5.3-0.1-7.2-3.1-11.3-3.6c-8.8-1.1-16.1,4.6-23.9,6.8c-6.8,5.4-11.6,13.5-12.7,23
			c-1.1,8.9,0.8,11.1-2.1,35.2c-9.6,82.2-117.4,87.1-150.9,82.8c-33.5-4.2-38.1,18.2-38.1,18.2s-0.6,7.2,5.9,1.9
			c20.4-16.6,66.9,10.9,75,14.2c49.5,19.6,109.3-10.1,121.9-19.3c43.4-31.4,51.9-110.2,52.5-115.2c0.6-5.1,1.1-9.5,1.1-9.5
			C401.2,193,393.9,179.5,382,173z"/>
		<path class="st21" d="M345.5,177.7c0,0-1-0.1-2.9-1.7c-1.9-1.6,4.4,0.5,11.7-3.2c0,0-0.5-5,0.3-11.1c1-6-5.4-18.9-7.9-23.3
			c-2.5-4.5-7.8-11.6-15.2-11.9c-3.5-0.1,1.7-6.9,12.4-6.5c2.4,0.1,7.3,6.7,10,9.7c2.7,2.9,14.9,25.8,14.8,30.6
			c0,0,5.2,4.6,8.2,10.1c0.4,1.1,1,1.6,2.7,1.6c1.6,0.1,4.1-1.3,4.1-1.3s1.1,0.3,1.3,1.3c0.3,1-0.6,1.9-1.3,2.4
			C383.6,174.4,362.9,171.5,345.5,177.7z"/>
	</g>
	<path class="st39" d="M301.3,168c-17.2,0-31.2,13.9-31.2,31.1c0,10.3,4.9,19.3,12.5,25L213,293.8h-55c-1.3-0.7-2.8-1.1-4.3-1.1
		c-4,0-7.4,2.5-8.7,6l-0.1-0.1l-44.5,44.6l11.5,11.5l44.5-44.5l-0.1-0.1c0,0,0.1,0,0.1-0.1v0.1h63v0l0.2,0.2l16.2-16.2h38.5h16.3
		v-16.2v-38.6l9.1-9.1c0.6,0,1.1,0.1,1.7,0.1c17.2,0,31.1-13.9,31.1-31.2C332.4,181.9,318.5,168,301.3,168z M274.2,277.9l-22.3,0
		l22.3-22.3L274.2,277.9z"/>
	<g class="st9">
		<linearGradient id="SVGID_52_" gradientUnits="userSpaceOnUse" x1="430.7833" y1="249.233" x2="430.7833" y2="98.7802">
			<stop  offset="0" style="stop-color:#000000;stop-opacity:0"/>
			<stop  offset="1" style="stop-color:#FFFFFF;stop-opacity:0.3"/>
		</linearGradient>
		<rect x="411.3" y="98.8" style="fill:url(#SVGID_52_);" width="38.9" height="150.5"/>
	</g>
</g>
<g id="HB_Abrev_W" class="st0">
	<path class="st5" d="M315.5,194.5v112.3c0,5.6-2,7.5-7.5,7.5h-19.1c-5.5,0-7.5-2-7.5-7.5v-41.2h-34.1v41.2c0,5.6-1.8,7.5-7.5,7.5
		h-18.9c-5.7,0-7.7-2-7.7-7.5V194.5c0-5.7,2-7.7,7.7-7.7h18.9c5.7,0,7.5,2,7.5,7.7v39.6h34.1v-39.6c0-5.7,2-7.7,7.5-7.7H308
		C313.6,186.7,315.5,188.7,315.5,194.5z"/>
	<path class="st3" d="M418.3,220.8c0,12-3.8,20.1-12.9,26.4v0.7c11.5,5,18.1,15.2,18.1,30.9c0,23.1-18.8,35.5-44.1,35.5h-51.5
		c-5.7,0-7.7-2-7.7-7.5V194.5c0-5.7,2-7.7,7.7-7.7h50.8C403.4,186.7,418.3,198.9,418.3,220.8z M371.3,215.6h-15.6v19.7h15.6
		c7.2,0,10.9-2.7,10.9-9.7C382.3,218.7,378.5,215.6,371.3,215.6z M374.7,264.2h-19v21h19c7.7,0,11.5-3.1,11.5-10.6
		C386.2,267.5,382.4,264.2,374.7,264.2z"/>
	<rect x="180.6" y="186.7" class="st5" width="16.5" height="127.5"/>
	<path class="st39" d="M143.1,201.1c0,0,1.5-0.8,3.4-0.8c1.8,0,7.8,1.6,7.8,7.6c0,5.9,5.2,8,7.8,8c0,0-10.4,11.8-22.2,0
		c0,0,7.8-0.9,7.8-7.8C147.5,203.2,143.1,201.1,143.1,201.1z"/>
	<g class="st9">
		<defs>
			<path id="SVGID_130_" d="M139.8,218.1c-2.6,2.6-4.7,7.2-4.7,11.8c-0.2,14.7-5.9,29.4-17.1,40.6c-21.4,21.4-55.2,22.8-78.2,4.2
				c1.4,1.7,3,3.4,4.6,5c27.9,27.9,73.2,27.9,101.2,0c14.4-14.4,21.4-33.3,20.9-52.2c-0.4-3.4-1.8-6.8-4.5-9.4
				c-3.1-3.1-7.1-1.2-11.2-1.2C146.9,216.9,142.9,215,139.8,218.1z"/>
		</defs>
		<clipPath id="SVGID_53_">
			<use xlink:href="#SVGID_130_"  style="overflow:visible;"/>
		</clipPath>
		<path style="clip-path:url(#SVGID_53_);fill:#E02F32;" d="M139.8,218.1c-2.6,2.6-4.7,7.2-4.7,11.8c-0.2,14.7-5.9,29.4-17.1,40.6
			c-21.4,21.4-55.2,22.8-78.2,4.2c1.4,1.7,3,3.4,4.6,5c27.9,27.9,73.2,27.9,101.2,0c14.4-14.4,21.4-33.3,20.9-52.2
			c-0.4-3.4-1.8-6.8-4.5-9.4c-3.1-3.1-7.1-1.2-11.2-1.2C146.9,216.9,142.9,215,139.8,218.1z"/>
		<radialGradient id="SVGID_54_" cx="94.8098" cy="228.9569" r="71.6667" gradientUnits="userSpaceOnUse">
			<stop  offset="0.2562" style="stop-color:#FFFFFF;stop-opacity:0.3"/>
			<stop  offset="0.8966" style="stop-color:#000000;stop-opacity:0"/>
		</radialGradient>
		<path style="clip-path:url(#SVGID_53_);fill:url(#SVGID_54_);" d="M166.5,229c0-39.6-32.1-71.7-71.7-71.7
			c-39.6,0-71.7,32.1-71.7,71.7c0,39.6,32.1,71.7,71.7,71.7C134.4,300.6,166.5,268.5,166.5,229z"/>
	</g>
	<g class="st9">
		<linearGradient id="SVGID_55_" gradientUnits="userSpaceOnUse" x1="188.8072" y1="250.5018" x2="188.8072" y2="186.7412">
			<stop  offset="0" style="stop-color:#000000;stop-opacity:0"/>
			<stop  offset="1" style="stop-color:#FFFFFF;stop-opacity:0.3"/>
		</linearGradient>
		<rect x="180.6" y="186.7" class="st66" width="16.5" height="63.8"/>
	</g>
	<g class="st9">
		<linearGradient id="SVGID_56_" gradientUnits="userSpaceOnUse" x1="264.3405" y1="250.5062" x2="264.3405" y2="186.7496">
			<stop  offset="0" style="stop-color:#000000;stop-opacity:0"/>
			<stop  offset="1" style="stop-color:#FFFFFF;stop-opacity:0.3"/>
		</linearGradient>
		<path class="st67" d="M315.5,194.5c0-5.7-2-7.7-7.5-7.7h-19.1c-5.5,0-7.5,2-7.5,7.7v39.6h-34.1v-39.6c0-5.7-1.8-7.7-7.5-7.7h-18.9
			c-5.7,0-7.7,2-7.7,7.7v56h102.4V194.5z"/>
		<linearGradient id="SVGID_57_" gradientUnits="userSpaceOnUse" x1="369.2591" y1="250.5062" x2="369.2591" y2="186.7496">
			<stop  offset="0" style="stop-color:#000000;stop-opacity:0"/>
			<stop  offset="1" style="stop-color:#FFFFFF;stop-opacity:0.3"/>
		</linearGradient>
		<path class="st68" d="M405.4,247.9v-0.7c9.1-6.3,12.9-14.4,12.9-26.4c0-21.9-14.9-34.1-39.6-34.1h-50.8c-5.7,0-7.7,2-7.7,7.7v56
			h90C408.7,249.5,407.1,248.7,405.4,247.9z M371.3,235.3h-15.6v-19.7h15.6c7.2,0,10.9,3,10.9,10
			C382.3,232.7,378.5,235.3,371.3,235.3z"/>
	</g>
</g>
<g id="HB_Avrev" class="st0">
	<path class="st5" d="M315.5,194.5v112.3c0,5.6-2,7.6-7.5,7.6h-19.1c-5.5,0-7.5-2-7.5-7.6v-41.2h-34.1v41.2c0,5.6-1.8,7.6-7.5,7.6
		h-18.9c-5.7,0-7.7-2-7.7-7.6V194.5c0-5.7,2-7.7,7.7-7.7h18.9c5.7,0,7.5,2,7.5,7.7v39.6h34.1v-39.6c0-5.7,2-7.7,7.5-7.7H308
		C313.6,186.7,315.5,188.7,315.5,194.5z"/>
	<path class="st6" d="M418.3,220.8c0,12-3.8,20.1-12.9,26.4v0.7c11.5,5,18.1,15.2,18.1,30.9c0,23.1-18.8,35.5-44.1,35.5h-51.5
		c-5.7,0-7.7-2-7.7-7.6V194.5c0-5.7,2-7.7,7.7-7.7h50.8C403.4,186.7,418.3,199,418.3,220.8z M371.3,215.6h-15.6v19.7h15.6
		c7.2,0,10.9-2.7,10.9-9.7C382.3,218.7,378.5,215.6,371.3,215.6z M374.7,264.2h-19v21h19c7.7,0,11.5-3.1,11.5-10.6
		C386.2,267.5,382.4,264.2,374.7,264.2z"/>
	<rect x="180.6" y="186.7" class="st5" width="16.5" height="127.5"/>
	<path class="st39" d="M143.1,201.2c0,0,1.5-0.8,3.4-0.8c1.8,0,7.8,1.6,7.8,7.6c0,5.9,5.2,8,7.8,8c0,0-10.4,11.8-22.2,0
		c0,0,7.8-0.9,7.8-7.8C147.5,203.2,143.1,201.2,143.1,201.2z"/>
	<g class="st9">
		<defs>
			<path id="SVGID_136_" d="M139.8,218.1c-2.6,2.6-4.7,7.2-4.7,11.8c-0.2,14.7-5.9,29.4-17.1,40.6c-21.4,21.4-55.2,22.8-78.2,4.2
				c1.4,1.7,3,3.4,4.6,5c27.9,27.9,73.2,27.9,101.2,0c14.4-14.4,21.4-33.3,20.9-52.2c-0.4-3.4-1.8-6.8-4.5-9.4
				c-3.1-3.1-7.1-1.2-11.2-1.2C146.9,216.9,142.9,215,139.8,218.1z"/>
		</defs>
		<clipPath id="SVGID_58_">
			<use xlink:href="#SVGID_136_"  style="overflow:visible;"/>
		</clipPath>
		<path style="clip-path:url(#SVGID_58_);fill:#E02F32;" d="M139.8,218.1c-2.6,2.6-4.7,7.2-4.7,11.8c-0.2,14.7-5.9,29.4-17.1,40.6
			c-21.4,21.4-55.2,22.8-78.2,4.2c1.4,1.7,3,3.4,4.6,5c27.9,27.9,73.2,27.9,101.2,0c14.4-14.4,21.4-33.3,20.9-52.2
			c-0.4-3.4-1.8-6.8-4.5-9.4c-3.1-3.1-7.1-1.2-11.2-1.2C146.9,216.9,142.9,215,139.8,218.1z"/>
		<radialGradient id="SVGID_59_" cx="94.8098" cy="228.9631" r="71.6667" gradientUnits="userSpaceOnUse">
			<stop  offset="0.2562" style="stop-color:#FFFFFF;stop-opacity:0.3"/>
			<stop  offset="0.8966" style="stop-color:#000000;stop-opacity:0"/>
		</radialGradient>
		<path style="clip-path:url(#SVGID_58_);fill:url(#SVGID_59_);" d="M166.5,229c0-39.6-32.1-71.7-71.7-71.7
			c-39.6,0-71.7,32.1-71.7,71.7c0,39.6,32.1,71.7,71.7,71.7C134.4,300.6,166.5,268.5,166.5,229z"/>
	</g>
	<g class="st9">
		<linearGradient id="SVGID_60_" gradientUnits="userSpaceOnUse" x1="188.8072" y1="250.508" x2="188.8072" y2="186.7474">
			<stop  offset="0" style="stop-color:#000000;stop-opacity:0"/>
			<stop  offset="1" style="stop-color:#FFFFFF;stop-opacity:0.3"/>
		</linearGradient>
		<rect x="180.6" y="186.7" class="st71" width="16.5" height="63.8"/>
	</g>
	<g class="st9">
		<linearGradient id="SVGID_61_" gradientUnits="userSpaceOnUse" x1="264.3405" y1="250.5124" x2="264.3405" y2="186.7558">
			<stop  offset="0" style="stop-color:#000000;stop-opacity:0"/>
			<stop  offset="1" style="stop-color:#FFFFFF;stop-opacity:0.3"/>
		</linearGradient>
		<path class="st72" d="M315.5,194.5c0-5.7-2-7.7-7.5-7.7h-19.1c-5.5,0-7.5,2-7.5,7.7v39.6h-34.1v-39.6c0-5.7-1.8-7.7-7.5-7.7h-18.9
			c-5.7,0-7.7,2-7.7,7.7v56h102.4V194.5z"/>
		<linearGradient id="SVGID_62_" gradientUnits="userSpaceOnUse" x1="369.2591" y1="250.5124" x2="369.2591" y2="186.7558">
			<stop  offset="0" style="stop-color:#000000;stop-opacity:0"/>
			<stop  offset="1" style="stop-color:#FFFFFF;stop-opacity:0.3"/>
		</linearGradient>
		<path class="st73" d="M405.4,247.9v-0.7c9.1-6.3,12.9-14.4,12.9-26.4c0-21.9-14.9-34.1-39.6-34.1h-50.8c-5.7,0-7.7,2-7.7,7.7v56
			h90C408.7,249.5,407.1,248.7,405.4,247.9z M371.3,235.3h-15.6v-19.7h15.6c7.2,0,10.9,3,10.9,10
			C382.3,232.7,378.5,235.3,371.3,235.3z"/>
	</g>
</g>
<g id="HotBoys_Ico_Tag_White" class="st0">
	<g class="st9">
		<path class="st22" d="M425.1,244.5c-1.7,0-2.4,0.9-2.4,2.6v3.7h4.7v-3.7C427.4,245.4,426.8,244.5,425.1,244.5z"/>
		<path class="st22" d="M436.7,243.6c-1.7,0-2.5,0.9-2.5,2.7v4.5h5v-4.5C439.3,244.5,438.5,243.6,436.7,243.6z"/>
		<path class="st22" d="M435.6,295.7h-8.4c-2.7,0-4.5,1.1-4.5,4.1c0,3,1.4,4,4.1,4h8.4c2.7,0,4.1-1.1,4.1-4
			C439.3,296.8,438.3,295.7,435.6,295.7z"/>
		<path class="st22" d="M435.6,216.8h-8.4c-2.7,0-4.5,1.1-4.5,4c0,3,1.4,4.1,4.1,4.1h8.4c2.7,0,4.1-1.1,4.1-4.1
			C439.3,217.9,438.3,216.8,435.6,216.8z"/>
		<path class="st22" d="M411.6,98.8v300h38.8v-300H411.6z M446.1,322.3c0,1.3-0.5,1.8-1.8,1.8h-9.8v8.1h9.8c1.3,0,1.8,0.4,1.8,1.8
			v4.5c0,1.4-0.5,1.8-1.8,1.8h-26.7c-1.4,0-1.8-0.5-1.8-1.8V334c0-1.4,0.5-1.8,1.8-1.8h9.4v-8.1h-9.4c-1.4,0-1.8-0.5-1.8-1.8v-4.5
			c0-1.3,0.5-1.8,1.8-1.8h26.7c1.3,0,1.8,0.5,1.8,1.8V322.3z M434.9,311.9h-7.7c-7.4,0-11.9-3.7-11.9-12.2c0-8.4,4.9-12.1,12.3-12.1
			h7.7c7.4,0,11.5,3.7,11.5,12.1C446.8,308.2,442.2,311.9,434.9,311.9z M444.4,270.4c1.3,0,1.8,0.5,1.8,1.8v4.5
			c0,1.4-0.5,1.8-1.8,1.8h-21v6.3c0,1.4-0.5,1.8-1.8,1.8h-3.8c-1.3,0-1.8-0.4-1.8-1.8v-20.7c0-1.4,0.5-1.8,1.8-1.8h3.8
			c1.4,0,1.8,0.5,1.8,1.8v6.3H444.4z M444.4,259.3h-26.7c-1.4,0-1.8-0.5-1.8-1.8v-12.1c0-5.9,2.9-9.4,8.1-9.4c2.9,0,4.8,0.9,6.3,3.1
			h0.2c1.2-2.7,3.6-4.3,7.3-4.3c5.5,0,8.4,4.5,8.4,10.5v12.2C446.1,258.8,445.7,259.3,444.4,259.3z M434.9,233h-7.7
			c-7.4,0-11.9-3.7-11.9-12.2c0-8.4,4.9-12.1,12.3-12.1h7.7c7.4,0,11.5,3.7,11.5,12.1C446.8,229.3,442.2,233,434.9,233z
			 M417.5,191.4c-1.5-0.8-1.6-1.4-1.6-3.5v-4.9c0-1.3,0.8-1.4,1.8-0.9l16.3,9.9h10.4c1.3,0,1.8,0.4,1.8,1.8v4.4
			c0,1.4-0.5,1.8-1.8,1.8H434l-16.3,9.8c-1,0.6-1.8,0.4-1.8-0.9v-5.1c0-2.1,0.1-2.7,1.6-3.5l8.4-4.3L417.5,191.4z M440.2,182.8
			c-1.3,0.5-1.9,0.1-2.3-1.2l-1.5-4c-0.4-1.3-0.3-1.9,0.9-2.5c1.5-0.8,2.3-2.4,2.3-4.8c0-2.8-0.6-4.6-2.4-4.6c-1.7,0-2.1,2.2-2.5,5
			c-0.7,5-1.6,12-9.8,12c-5.6,0-9.5-4.5-9.5-12.6c0-6.3,1.9-9.9,6-11.9c1.2-0.6,1.9-0.3,2.4,1l1.8,4.3c0.5,1.2,0.3,1.6-0.9,2.3
			c-1.6,0.8-2.2,2.3-2.2,4.3c0,2.9,0.7,4,2.2,4c1.8,0,2.2-2.5,2.6-5.6c0.7-4.9,1.9-11.3,9.9-11.3c6.3,0,9.7,5.7,9.7,13.2
			C446.8,176.8,444.6,181.2,440.2,182.8z"/>
	</g>
	<g class="st9">
		<path class="st21" d="M344.4,132.7c0,0,3.6-1.8,7.9-1.8c4.2,0,18.3,3.8,18.3,17.8c0,14,12.2,18.7,18.3,18.7c0,0-24.4,27.8-52.3,0
			c0,0,18.3-2,18.3-18.3C354.8,137.4,344.4,132.7,344.4,132.7z"/>
		<path class="st22" d="M336.8,172.5c-6.1,6.1-11,17-11,27.8c-0.5,34.6-13.9,69.1-40.3,95.5c-50.3,50.3-129.9,53.6-184,9.8
			c3.4,4,6.9,8,10.7,11.8c65.7,65.7,172.3,65.7,238,0c33.9-33.8,50.2-78.5,49.2-122.8c-0.8-8.1-4.3-16-10.5-22.1
			c-7.2-7.3-16.8-2.9-26.3-2.8C353.3,169.7,344,165.3,336.8,172.5z"/>
		<g>
			<defs>
				<path id="SVGID_142_" d="M336.8,172.5c-6.1,6.1-11,17-11,27.8c-0.5,34.6-13.9,69.1-40.3,95.5c-50.3,50.3-129.9,53.6-184,9.8
					c3.4,4,6.9,8,10.7,11.8c65.7,65.7,172.3,65.7,238,0c33.9-33.8,50.2-78.5,49.2-122.8c-0.8-8.1-4.3-16-10.5-22.1
					c-7.2-7.3-16.8-2.9-26.3-2.8C353.3,169.7,344,165.3,336.8,172.5z"/>
			</defs>
			<clipPath id="SVGID_63_">
				<use xlink:href="#SVGID_142_"  style="overflow:visible;"/>
			</clipPath>
			<radialGradient id="SVGID_64_" cx="230.8752" cy="198.0885" r="168.599" gradientUnits="userSpaceOnUse">
				<stop  offset="0.2562" style="stop-color:#FFFFFF;stop-opacity:0.3"/>
				<stop  offset="0.8966" style="stop-color:#000000;stop-opacity:0"/>
			</radialGradient>
			<path style="clip-path:url(#SVGID_63_);fill:url(#SVGID_64_);" d="M399.5,198.1c0-93.1-75.5-168.6-168.6-168.6
				S62.3,105,62.3,198.1s75.5,168.6,168.6,168.6S399.5,291.2,399.5,198.1z"/>
		</g>
	</g>
	<g class="st9">
		<linearGradient id="SVGID_66_" gradientUnits="userSpaceOnUse" x1="431.0239" y1="248.7778" x2="431.0239" y2="98.7802">
			<stop  offset="0" style="stop-color:#000000;stop-opacity:0"/>
			<stop  offset="1" style="stop-color:#FFFFFF;stop-opacity:0.3"/>
		</linearGradient>
		<rect x="411.6" y="98.8" style="fill:url(#SVGID_66_);" width="38.8" height="150"/>
	</g>
</g>
<g id="HM_Abrev_W" class="st0">
	<g class="st9">
		<path class="st51" d="M446.7,194.2v112.1c0,5.5-2,7.3-7.7,7.3H420c-5.7,0-7.5-1.8-7.5-7.3v-25.5c0-11.8-0.9-23,5.9-46.8l0,0
			c-1.8,5.9-8.2,22.1-12,29.4l-10.1,20.2c-2,3.6-3.7,5.2-8.6,5.2h-8.2c-4.8,0-6.6-1.2-8.5-5.2l-12-20.2c-3.8-6.8-8.6-23.2-10.4-29.4
			l0,0c6.4,25.7,5.6,34.6,5.6,47v25.4c0,5.5-2,7.3-7.7,7.3h-19c-5.7,0-7.6-1.8-7.6-7.3V194.2c0-5.8,2-7.5,7.6-7.5h17.5
			c6.3,0,8.1,1.1,10.6,5.5l27.8,58l28.3-57.9c2.5-4.8,4.1-5.7,10-5.7h17.5C444.8,186.7,446.7,188.5,446.7,194.2z"/>
		<rect x="180.8" y="186.6" class="st64" width="16.5" height="127.1"/>
		<path class="st64" d="M315.8,194.2v112c0,5.6-2,7.5-7.5,7.5h-19c-5.5,0-7.5-2-7.5-7.5V265h-34v41.1c0,5.6-1.8,7.5-7.5,7.5h-18.8
			c-5.7,0-7.7-2-7.7-7.5v-112c0-5.7,2-7.7,7.7-7.7h18.8c5.7,0,7.5,2,7.5,7.7v39.5h34v-39.5c0-5.7,2-7.7,7.5-7.7h19
			C313.8,186.5,315.8,188.5,315.8,194.2z"/>
	</g>
	<g class="st9">
		<linearGradient id="SVGID_67_" gradientUnits="userSpaceOnUse" x1="383.2562" y1="250.2778" x2="383.2562" y2="186.6857">
			<stop  offset="0" style="stop-color:#000000;stop-opacity:0"/>
			<stop  offset="1" style="stop-color:#FFFFFF;stop-opacity:0.3"/>
		</linearGradient>
		<path style="fill:url(#SVGID_67_);" d="M348.5,234c1,3.5,2.9,10,5,16.3h58.7c2.6-6.4,5.1-12.9,6.1-16.3c-1.8,6.2-3,11.5-3.9,16.3
			h32.3v-56c0-5.8-2-7.5-7.7-7.5h-17.5c-5.9,0-7.5,0.9-10,5.7l-28.3,57.9l-27.8-58c-2.5-4.4-4.3-5.5-10.6-5.5h-17.5
			c-5.7,0-7.6,1.8-7.6,7.5v56h32.3C351.2,245.7,350.1,240.4,348.5,234z"/>
		<linearGradient id="SVGID_69_" gradientUnits="userSpaceOnUse" x1="264.7541" y1="250.2778" x2="264.7541" y2="186.4822">
			<stop  offset="0" style="stop-color:#000000;stop-opacity:0"/>
			<stop  offset="1" style="stop-color:#FFFFFF;stop-opacity:0.3"/>
		</linearGradient>
		<path style="fill:url(#SVGID_69_);" d="M315.8,194.2c0-5.7-2-7.7-7.5-7.7h-19c-5.5,0-7.5,2-7.5,7.7v39.5h-34v-39.5
			c0-5.7-1.8-7.7-7.5-7.7h-18.8c-5.7,0-7.7,2-7.7,7.7v56.1h102.1V194.2z"/>
	</g>
	<g class="st9">
		<linearGradient id="SVGID_70_" gradientUnits="userSpaceOnUse" x1="189.0193" y1="250.178" x2="189.0193" y2="186.5859">
			<stop  offset="0" style="stop-color:#000000;stop-opacity:0"/>
			<stop  offset="1" style="stop-color:#FFFFFF;stop-opacity:0.3"/>
		</linearGradient>
		<rect x="180.8" y="186.6" style="fill:url(#SVGID_70_);" width="16.5" height="63.6"/>
	</g>
	<g class="st9">
		<path class="st64" d="M107.8,219.1c-20.8,0-37.6,16.9-37.6,37.6c0,20.8,16.9,37.6,37.6,37.6s37.6-16.9,37.6-37.6
			C145.4,235.9,128.6,219.1,107.8,219.1z M122.2,258.5L104,276.7c-1.3,1.3-2.2,1.3-3.6,0l0.1-39.9c1.3-1.3,2.2-1.3,3.5,0.1
			l18.1,18.1C123.5,256.3,123.4,257.2,122.2,258.5z"/>
		<path class="st64" d="M151.2,227.4c-4.4-5.1-10.7-9.9-13.6-12.6c-2.6-2.5-5.5-6.2-5.5-9.7c-3.5-1.5-7.4-2.9-11.6-3.9
			c3.4-7.2,10-28.2-11.7-54.9c0,0,2.3,6.1,2.3,20.1c0,12.1-12,27.1-19.5,35.2c4.4-8.1,5.1-23.1-11.6-37.6c0,0,5.3,5.3,5.3,19.2
			c0,11.1-21.9,28.5-30.8,53.2c-2,5.2-3.2,10.8-3.6,16.7c0,0.1,0,0.2,0,0.3c-0.1,1.1-0.1,2.1-0.1,3.2c0,31.5,25.5,57,57,57
			c30.8,0,55.8-24.3,57-54.8C164.8,245.3,154.6,230.8,151.2,227.4z M107.8,302.3c-25.2,0-45.6-20.4-45.6-45.6
			c0-25.2,20.4-45.6,45.6-45.6s45.6,20.4,45.6,45.6C153.4,281.9,133,302.3,107.8,302.3z"/>
		<path class="st64" d="M161.6,238.1c0,0-3.1-12.7-10.5-21.1c-7.4-8.4-6.8-19.2-6.8-19.2c0.1-4.5,3.8-8.4,8.4-8.4
			c4.6,0,8.4,3.8,8.4,8.4c0,0.7-0.1,1.4-0.3,2c1.2-2,2-4.4,2-7c0-7.4-6-13.5-13.5-13.5c-0.6,0-1.1,0-1.6,0.1
			c-10.9,1.1-13.4,13-13.4,16.5c0,7.1,2,11.2,15.5,24.6C155.5,226.2,157.7,229.1,161.6,238.1z"/>
	</g>
	<g class="st9">
		<g>
			<defs>
				<path id="SVGID_149_" d="M107.7,219.1c-20.8,0-37.6,16.9-37.6,37.6c0,20.8,16.8,37.6,37.6,37.6s37.6-16.9,37.6-37.6
					C145.4,235.9,128.5,219.1,107.7,219.1z M122.1,258.5l-18.2,18.2c-1.3,1.3-2.2,1.3-3.5,0l0.1-39.9c1.3-1.3,2.2-1.3,3.5,0.1
					l18.1,18.1C123.4,256.3,123.4,257.2,122.1,258.5z"/>
			</defs>
			<clipPath id="SVGID_72_">
				<use xlink:href="#SVGID_149_"  style="overflow:visible;"/>
			</clipPath>
			<radialGradient id="SVGID_73_" cx="75.1963" cy="213.5726" r="77.8907" gradientUnits="userSpaceOnUse">
				<stop  offset="0.2562" style="stop-color:#FFFFFF;stop-opacity:0.3"/>
				<stop  offset="0.8966" style="stop-color:#000000;stop-opacity:0"/>
			</radialGradient>
			<path class="st78" d="M153.1,213.6c0-43-34.9-77.9-77.9-77.9c-43,0-77.9,34.9-77.9,77.9c0,43,34.9,77.9,77.9,77.9
				C118.2,291.5,153.1,256.6,153.1,213.6z"/>
		</g>
		<g>
			<defs>
				<path id="SVGID_152_" d="M151.1,227.4c-4.4-5.1-10.7-9.9-13.6-12.6c-2.6-2.5-5.5-6.2-5.5-9.7c-3.5-1.5-7.4-2.9-11.6-3.9
					c3.4-7.2,10-28.2-11.7-54.9c0,0,2.3,6.1,2.3,20.1c0,12.1-12,27.1-19.6,35.2c4.4-8.1,5.1-23.1-11.6-37.6c0,0,5.3,5.3,5.3,19.2
					c0,11.1-21.9,28.5-30.8,53.2c-2,5.2-3.2,10.8-3.6,16.7c0,0.1,0,0.2,0,0.3c-0.1,1.1-0.1,2.1-0.1,3.2c0,31.5,25.5,57,57,57
					c30.7,0,55.8-24.3,57-54.8C164.7,245.3,154.6,230.8,151.1,227.4z M107.7,302.3c-25.2,0-45.6-20.4-45.6-45.6
					c0-25.2,20.4-45.6,45.6-45.6c25.2,0,45.6,20.4,45.6,45.6C153.4,281.9,132.9,302.3,107.7,302.3z"/>
			</defs>
			<clipPath id="SVGID_74_">
				<use xlink:href="#SVGID_152_"  style="overflow:visible;"/>
			</clipPath>
			<radialGradient id="SVGID_75_" cx="75.1963" cy="213.5726" r="77.8907" gradientUnits="userSpaceOnUse">
				<stop  offset="0.2562" style="stop-color:#FFFFFF;stop-opacity:0.3"/>
				<stop  offset="0.8966" style="stop-color:#000000;stop-opacity:0"/>
			</radialGradient>
			<path style="clip-path:url(#SVGID_74_);fill:url(#SVGID_75_);" d="M153.1,213.6c0-43-34.9-77.9-77.9-77.9
				c-43,0-77.9,34.9-77.9,77.9c0,43,34.9,77.9,77.9,77.9C118.2,291.5,153.1,256.6,153.1,213.6z"/>
		</g>
		<g>
			<defs>
				<path id="SVGID_155_" d="M161.6,238.1c0,0-3.1-12.7-10.5-21.1c-7.4-8.4-6.8-19.2-6.8-19.2c0.1-4.5,3.8-8.4,8.4-8.4
					c4.6,0,8.4,3.8,8.4,8.4c0,0.7-0.1,1.4-0.3,2c1.3-2,2-4.4,2-7c0-7.4-6-13.5-13.5-13.5c-0.6,0-1.1,0-1.6,0.1
					c-10.9,1.1-13.4,13-13.4,16.5c0,7.1,1.9,11.2,15.5,24.6C155.4,226.2,157.7,229.1,161.6,238.1z"/>
			</defs>
			<clipPath id="SVGID_76_">
				<use xlink:href="#SVGID_155_"  style="overflow:visible;"/>
			</clipPath>
			<radialGradient id="SVGID_78_" cx="75.1963" cy="213.5726" r="77.8907" gradientUnits="userSpaceOnUse">
				<stop  offset="0.2562" style="stop-color:#FFFFFF;stop-opacity:0.3"/>
				<stop  offset="0.8966" style="stop-color:#000000;stop-opacity:0"/>
			</radialGradient>
			<path style="clip-path:url(#SVGID_76_);fill:url(#SVGID_78_);" d="M153.1,213.6c0-43-34.9-77.9-77.9-77.9
				c-43,0-77.9,34.9-77.9,77.9c0,43,34.9,77.9,77.9,77.9C118.2,291.5,153.1,256.6,153.1,213.6z"/>
		</g>
	</g>
</g>
<g id="HotMdias_Ico_Tag" class="st0">
	<g class="st9">
		<g>
			<path class="st64" d="M438.2,224.1c0-3.4-1.6-5.2-4.6-5.2h-6.1c-3,0-4.6,1.8-4.6,5.2v2.4h15.2V224.1z"/>
			<path class="st64" d="M423.3,185.2c0,0,3.1,0,5.9,0.8l5,1.3v-4l-4.9,1.2C426.3,185.3,423.3,185.2,423.3,185.2z"/>
			<path class="st64" d="M411.2,99.8v299.7H450V99.8H411.2z M445.6,335.4c0,1.3-0.5,1.8-1.8,1.8h-9.7v8h9.7c1.3,0,1.8,0.4,1.8,1.8
				v4.4c0,1.4-0.5,1.8-1.8,1.8h-26.4c-1.3,0-1.8-0.5-1.8-1.8V347c0-1.4,0.5-1.8,1.8-1.8h9.3v-8h-9.3c-1.3,0-1.8-0.5-1.8-1.8v-4.5
				c0-1.3,0.5-1.8,1.8-1.8h26.4c1.3,0,1.8,0.5,1.8,1.8V335.4z M434.4,327.2h-7.6c-7.3,0-11.9-3.7-11.9-12.1c0-8.3,4.9-12,12.2-12
				h7.6c7.3,0,11.4,3.7,11.4,12C446.2,323.5,441.7,327.2,434.4,327.2z M416.9,255.2c-1.1-0.6-1.4-1-1.4-2.4v-4.1
				c0-1.4,0.4-1.8,1.8-1.8h26.5c1.3,0,1.7,0.5,1.7,1.8v4.5c0,1.4-0.4,1.8-1.7,1.8h-6c-2.8,0-5.4,0.2-11.1-1.4c1.4,0.4,5.2,1.9,7,2.8
				l4.8,2.4c0.9,0.5,1.2,0.9,1.2,2v1.9c0,1.2-0.3,1.6-1.2,2l-4.8,2.8c-1.6,0.9-5.5,2-7,2.5c6.1-1.5,8.2-1.3,11.1-1.3h6
				c1.3,0,1.7,0.5,1.7,1.8v4.5c0,1.4-0.4,1.8-1.7,1.8h-26.5c-1.4,0-1.8-0.5-1.8-1.8v-4.1c0-1.5,0.3-1.9,1.3-2.5l13.7-6.6
				L416.9,255.2z M443.8,190.2c1.3,0.4,1.8,1,1.8,3.1v4.7c0,1.3-0.6,1.6-1.7,1.1l-26.7-9.7c-1.2-0.4-1.5-1-1.5-2.2v-3.9
				c0-1.2,0.3-1.8,1.4-2.2l26.8-9.8c1.1-0.4,1.7,0,1.7,1.2v4.4c0,2.2-0.5,2.8-1.8,3.2l-3,1v8.1L443.8,190.2z M417.3,200.7h26.6
				c1.3,0,1.7,0.4,1.7,1.7v4.6c0,1.3-0.4,1.7-1.7,1.7h-26.6c-1.3,0-1.7-0.4-1.7-1.7v-4.6C415.6,201.2,416,200.7,417.3,200.7z
				 M427.4,210.8h6.3c7.3,0,11.8,4.6,11.8,13v9.3c0,1.4-0.5,1.8-1.8,1.8h-26.4c-1.3,0-1.8-0.5-1.8-1.8v-9.3
				C415.6,215.5,420.1,210.8,427.4,210.8z M417.3,236.8h26.6c1.3,0,1.7,0.4,1.7,1.7v4.6c0,1.3-0.4,1.7-1.7,1.7h-26.6
				c-1.3,0-1.7-0.4-1.7-1.7v-4.6C415.6,237.3,416,236.8,417.3,236.8z M417.3,278.9h3.8c1.3,0,1.8,0.5,1.8,1.8v6.2h20.8
				c1.3,0,1.8,0.5,1.8,1.8v4.5c0,1.3-0.5,1.8-1.8,1.8H423v6.3c0,1.4-0.5,1.8-1.8,1.8h-3.8c-1.3,0-1.8-0.4-1.8-1.8v-20.5
				C415.6,279.3,416,278.9,417.3,278.9z M439.7,171.4c-1.3,0.5-1.9,0.1-2.3-1.1l-1.4-4c-0.4-1.3-0.3-1.9,0.9-2.5
				c1.5-0.7,2.2-2.4,2.2-4.8c0-2.8-0.6-4.5-2.4-4.5c-1.7,0-2.1,2.1-2.5,4.9c-0.7,4.9-1.6,11.9-9.7,11.9c-5.6,0-9.4-4.5-9.4-12.5
				c0-6.3,1.8-9.8,5.9-11.8c1.2-0.6,1.9-0.3,2.4,1l1.8,4.2c0.5,1.1,0.3,1.6-0.9,2.3c-1.6,0.8-2.2,2.3-2.2,4.3c0,2.9,0.7,4,2.2,4
				c1.8,0,2.2-2.5,2.6-5.5c0.7-4.9,1.9-11.2,9.8-11.2c6.2,0,9.6,5.6,9.6,13.1C446.2,165.5,444.1,169.8,439.7,171.4z"/>
			<path class="st64" d="M435.1,311.1h-8.4c-2.7,0-4.4,1.1-4.4,4c0,3,1.4,4,4.1,4h8.4c2.7,0,4.1-1.1,4.1-4
				C438.8,312.3,437.8,311.1,435.1,311.1z"/>
		</g>
	</g>
	<g class="st9">
		<linearGradient id="SVGID_79_" gradientUnits="userSpaceOnUse" x1="430.6061" y1="249.7189" x2="430.6061" y2="99.8142">
			<stop  offset="0" style="stop-color:#000000;stop-opacity:0"/>
			<stop  offset="1" style="stop-color:#FFFFFF;stop-opacity:0.3"/>
		</linearGradient>
		<rect x="411.2" y="99.8" style="fill:url(#SVGID_79_);" width="38.8" height="149.9"/>
	</g>
	<g class="st9">
		<path class="st64" d="M250.1,181.7c-38,0-68.9,30.9-68.9,68.9c0,38.1,30.9,68.9,68.9,68.9s68.9-30.9,68.9-68.9
			C319,212.5,288.2,181.7,250.1,181.7z M276.4,253.8l-33.3,33.3c-2.4,2.4-4,2.4-6.5-0.1l0.1-73c2.3-2.3,4-2.3,6.5,0.1l33.2,33.2
			C278.8,249.7,278.8,251.4,276.4,253.8z"/>
		<path class="st64" d="M329.6,196.9c-8.1-9.4-19.7-18.2-24.8-23.1c-4.8-4.5-10.1-11.4-10.1-17.7c-6.5-2.7-13.6-5.3-21.3-7.1
			c6.2-13.1,18.3-51.7-21.4-100.5c0,0,4.1,11.2,4.1,36.8c0,22.2-22,49.7-35.8,64.5c8.1-14.8,9.4-42.3-21.2-68.8
			c0,0,9.8,9.8,9.8,35.2c0,20.3-40.1,52.2-56.4,97.4c-3.6,9.6-5.9,19.9-6.6,30.6c0,0.2,0,0.4-0.1,0.5c-0.1,2-0.2,3.9-0.2,5.9
			c0,57.7,46.7,104.4,104.4,104.4c56.3,0,102.2-44.6,104.3-100.4C354.4,229.6,335.9,203.2,329.6,196.9z M250.1,334.1
			c-46.1,0-83.6-37.4-83.6-83.6c0-46.1,37.4-83.6,83.6-83.6s83.6,37.4,83.6,83.6C333.7,296.7,296.3,334.1,250.1,334.1z"/>
		<path class="st64" d="M348.7,216.4c0,0-5.7-23.2-19.3-38.6c-13.6-15.4-12.5-35.2-12.5-35.2c0.3-8.3,7-15.4,15.4-15.4
			c8.5,0,15.4,6.9,15.4,15.4c0,1.3-0.2,2.5-0.5,3.7c2.3-3.7,3.6-8.1,3.6-12.8c0-13.6-11-24.7-24.7-24.7c-1,0-2,0.1-3,0.2
			c-19.9,2-24.5,23.8-24.5,30.3c0,13,3.6,20.5,28.3,45C337.5,194.7,341.6,200.1,348.7,216.4z"/>
	</g>
	<g class="st9">
		<g>
			<defs>
				<path id="SVGID_159_" d="M250,181.7c-38.1,0-68.9,30.9-68.9,68.9c0,38.1,30.8,68.9,68.9,68.9c38.1,0,68.9-30.9,68.9-68.9
					C318.9,212.5,288.1,181.7,250,181.7z M276.3,253.8L243,287.1c-2.4,2.4-4,2.4-6.5-0.1l0.1-73c2.3-2.3,4-2.3,6.5,0.1l33.2,33.2
					C278.7,249.7,278.6,251.4,276.3,253.8z"/>
			</defs>
			<clipPath id="SVGID_80_">
				<use xlink:href="#SVGID_159_"  style="overflow:visible;"/>
			</clipPath>
			<radialGradient id="SVGID_81_" cx="190.4186" cy="171.5809" r="142.6398" gradientUnits="userSpaceOnUse">
				<stop  offset="0.2562" style="stop-color:#FFFFFF;stop-opacity:0.3"/>
				<stop  offset="0.8966" style="stop-color:#000000;stop-opacity:0"/>
			</radialGradient>
			<path style="clip-path:url(#SVGID_80_);fill:url(#SVGID_81_);" d="M333.1,171.6c0-78.8-63.9-142.6-142.6-142.6
				c-78.8,0-142.6,63.9-142.6,142.6s63.9,142.7,142.6,142.7C269.2,314.2,333.1,250.4,333.1,171.6z"/>
		</g>
		<g>
			<defs>
				<path id="SVGID_162_" d="M329.5,196.9c-8.1-9.4-19.7-18.2-24.8-23.1c-4.8-4.5-10.1-11.4-10.1-17.7c-6.5-2.7-13.6-5.3-21.3-7.1
					c6.2-13.1,18.3-51.7-21.4-100.5c0,0,4.2,11.2,4.2,36.8c0,22.2-22,49.7-35.8,64.5c8.1-14.8,9.4-42.3-21.2-68.8
					c0,0,9.8,9.8,9.8,35.2c0,20.3-40.1,52.2-56.4,97.4c-3.6,9.6-5.9,19.9-6.6,30.6c0,0.2,0,0.4,0,0.5c-0.1,2-0.2,3.9-0.2,5.9
					c0,57.7,46.7,104.4,104.4,104.4c56.3,0,102.2-44.6,104.3-100.4C354.3,229.6,335.8,203.2,329.5,196.9z M250,334.1
					c-46.2,0-83.6-37.4-83.6-83.6c0-46.1,37.4-83.6,83.6-83.6c46.1,0,83.6,37.4,83.6,83.6C333.5,296.7,296.1,334.1,250,334.1z"/>
			</defs>
			<clipPath id="SVGID_82_">
				<use xlink:href="#SVGID_162_"  style="overflow:visible;"/>
			</clipPath>
			<radialGradient id="SVGID_84_" cx="190.4186" cy="171.5809" r="142.6398" gradientUnits="userSpaceOnUse">
				<stop  offset="0.2562" style="stop-color:#FFFFFF;stop-opacity:0.3"/>
				<stop  offset="0.8966" style="stop-color:#000000;stop-opacity:0"/>
			</radialGradient>
			<path style="clip-path:url(#SVGID_82_);fill:url(#SVGID_84_);" d="M333.1,171.6c0-78.8-63.9-142.6-142.6-142.6
				c-78.8,0-142.6,63.9-142.6,142.6s63.9,142.7,142.6,142.7C269.2,314.2,333.1,250.4,333.1,171.6z"/>
		</g>
		<g>
			<defs>
				<path id="SVGID_165_" d="M348.6,216.4c0,0-5.8-23.2-19.3-38.6c-13.6-15.4-12.5-35.2-12.5-35.2c0.3-8.3,7-15.4,15.4-15.4
					c8.5,0,15.4,6.9,15.4,15.4c0,1.3-0.2,2.5-0.5,3.7c2.3-3.7,3.6-8.1,3.6-12.8c0-13.6-11-24.7-24.7-24.7c-1,0-2,0.1-3,0.2
					c-19.9,2-24.5,23.8-24.5,30.3c0,13,3.6,20.5,28.3,45C337.3,194.7,341.4,200.1,348.6,216.4z"/>
			</defs>
			<clipPath id="SVGID_85_">
				<use xlink:href="#SVGID_165_"  style="overflow:visible;"/>
			</clipPath>
			<radialGradient id="SVGID_86_" cx="190.4186" cy="171.5809" r="142.6398" gradientUnits="userSpaceOnUse">
				<stop  offset="0.2562" style="stop-color:#FFFFFF;stop-opacity:0.3"/>
				<stop  offset="0.8966" style="stop-color:#000000;stop-opacity:0"/>
			</radialGradient>
			<path style="clip-path:url(#SVGID_85_);fill:url(#SVGID_86_);" d="M333.1,171.6c0-78.8-63.9-142.6-142.6-142.6
				c-78.8,0-142.6,63.9-142.6,142.6s63.9,142.7,142.6,142.7C269.2,314.2,333.1,250.4,333.1,171.6z"/>
		</g>
	</g>
</g>
</svg>
