<?xml version="1.0" encoding="utf-8"?>
<!-- Generator: Adobe Illustrator 22.0.1, SVG Export Plug-In . SVG Version: 6.00 Build 0)  -->
<svg version="1.1" xmlns="http://www.w3.org/2000/svg" xmlns:xlink="http://www.w3.org/1999/xlink" x="0px" y="0px"
	 viewBox="0 0 500 500" style="enable-background:new 0 0 500 500;" xml:space="preserve">
<style type="text/css">
	.st0{display:none;}
	.st1{display:inline;fill:#C1C1C1;}
	.st2{fill:#FFFFFF;}
	.st3{fill:#E02F32;}
	.st4{fill:#87B81C;}
	.st5{fill:#E02B38;}
	.st6{fill:#1F272C;}
	.st7{fill:url(#SVGID_1_);}
	.st8{clip-path:url(#SVGID_3_);fill:url(#SVGID_4_);}
	.st9{fill:url(#SVGID_5_);}
	.st10{fill:#E44F2C;}
	.st11{fill:#FCCF00;}
	.st12{clip-path:url(#SVGID_7_);fill:url(#SVGID_8_);}
	.st13{fill:url(#SVGID_9_);}
	.st14{fill:url(#SVGID_10_);}
	.st15{fill:url(#SVGID_11_);}
	.st16{fill:url(#SVGID_12_);}
	.st17{fill:url(#SVGID_13_);}
	.st18{fill:url(#SVGID_14_);}
	.st19{fill:url(#SVGID_15_);}
	.st20{fill:#173A8F;}
	.st21{fill:url(#SVGID_16_);}
	.st22{fill:url(#SVGID_17_);}
	.st23{fill:url(#SVGID_18_);}
	.st24{fill:url(#SVGID_19_);}
	.st25{fill:url(#SVGID_20_);}
	.st26{fill:url(#SVGID_21_);}
	.st27{fill:url(#SVGID_22_);}
	.st28{fill:url(#SVGID_23_);}
	.st29{fill:url(#SVGID_24_);}
	.st30{clip-path:url(#SVGID_26_);fill:url(#SVGID_27_);}
	.st31{fill:url(#SVGID_28_);}
	.st32{fill:url(#SVGID_29_);}
	.st33{fill:url(#SVGID_30_);}
	.st34{fill:url(#SVGID_31_);}
	.st35{fill:url(#SVGID_32_);}
	.st36{fill:url(#SVGID_33_);}
	.st37{fill:url(#SVGID_34_);}
	.st38{fill:url(#SVGID_35_);}
	.st39{clip-path:url(#SVGID_37_);fill:url(#SVGID_38_);}
	.st40{fill:url(#SVGID_39_);}
	.st41{fill:url(#SVGID_40_);}
	.st42{fill:url(#SVGID_41_);}
	.st43{fill:url(#SVGID_42_);}
	.st44{fill:url(#SVGID_43_);}
	.st45{fill:url(#SVGID_44_);}
	.st46{fill:url(#SVGID_45_);}
	.st47{fill:url(#SVGID_46_);}
	.st48{fill:url(#SVGID_47_);}
	.st49{fill:url(#SVGID_48_);}
	.st50{fill:url(#SVGID_49_);}
	.st51{fill:url(#SVGID_50_);}
	.st52{fill:url(#SVGID_51_);}
	.st53{fill:url(#SVGID_52_);}
	.st54{fill:url(#SVGID_53_);}
	.st55{fill:url(#SVGID_54_);}
	.st56{fill:url(#SVGID_55_);}
	.st57{fill:url(#SVGID_56_);}
	.st58{fill:url(#SVGID_57_);}
	.st59{fill:url(#SVGID_58_);}
	.st60{fill:url(#SVGID_59_);}
	.st61{fill:url(#SVGID_60_);}
	.st62{fill:url(#SVGID_61_);}
	.st63{fill:url(#SVGID_62_);}
	.st64{clip-path:url(#SVGID_64_);fill:url(#SVGID_65_);}
	.st65{fill:url(#SVGID_66_);}
	.st66{fill:url(#SVGID_67_);}
	.st67{fill:url(#SVGID_68_);}
	.st68{fill:url(#SVGID_69_);}
	.st69{fill:url(#SVGID_70_);}
	.st70{fill:url(#SVGID_71_);}
	.st71{fill:url(#SVGID_72_);}
	.st72{fill:url(#SVGID_73_);}
	.st73{fill:url(#SVGID_74_);}
	.st74{fill:url(#SVGID_75_);}
	.st75{clip-path:url(#SVGID_77_);fill:url(#SVGID_78_);}
	.st76{fill:url(#SVGID_79_);}
	.st77{clip-path:url(#SVGID_81_);fill:url(#SVGID_82_);}
	.st78{fill:url(#SVGID_83_);}
	.st79{fill:url(#SVGID_84_);}
	.st80{fill:url(#SVGID_85_);}
	.st81{fill:url(#SVGID_86_);}
	.st82{fill:url(#SVGID_87_);}
	.st83{fill:url(#SVGID_88_);}
	.st84{fill:url(#SVGID_89_);}
	.st85{fill:url(#SVGID_90_);}
	.st86{fill:url(#SVGID_91_);}
	.st87{fill:url(#SVGID_92_);}
	.st88{fill:url(#SVGID_93_);}
	.st89{fill:url(#SVGID_94_);}
	.st90{fill:url(#SVGID_95_);}
	.st91{fill:url(#SVGID_96_);}
	.st92{fill:url(#SVGID_97_);}
	.st93{fill:url(#SVGID_98_);}
	.st94{fill:url(#SVGID_99_);}
	.st95{fill:url(#SVGID_100_);}
	.st96{fill:url(#SVGID_101_);}
	.st97{fill:url(#SVGID_102_);}
	.st98{fill:url(#SVGID_103_);}
	.st99{clip-path:url(#SVGID_105_);fill:url(#SVGID_106_);}
	.st100{clip-path:url(#SVGID_108_);fill:url(#SVGID_109_);}
	.st101{clip-path:url(#SVGID_111_);fill:url(#SVGID_112_);}
	.st102{fill:url(#SVGID_113_);}
	.st103{fill:url(#SVGID_114_);}
	.st104{fill:url(#SVGID_115_);}
	.st105{clip-path:url(#SVGID_117_);fill:url(#SVGID_118_);}
	.st106{clip-path:url(#SVGID_120_);fill:url(#SVGID_121_);}
	.st107{clip-path:url(#SVGID_123_);fill:url(#SVGID_124_);}
	.st108{fill:url(#SVGID_125_);}
	.st109{clip-path:url(#SVGID_127_);fill:url(#SVGID_128_);}
	.st110{clip-path:url(#SVGID_130_);fill:url(#SVGID_131_);}
	.st111{clip-path:url(#SVGID_133_);fill:url(#SVGID_134_);}
	.st112{display:inline;}
	.st113{fill:url(#SVGID_135_);}
	.st114{fill:url(#SVGID_136_);}
	.st115{fill:url(#SVGID_137_);}
	.st116{clip-path:url(#SVGID_139_);fill:url(#SVGID_140_);}
	.st117{fill:url(#SVGID_141_);}
	.st118{clip-path:url(#SVGID_143_);fill:url(#SVGID_144_);}
	.st119{fill:url(#SVGID_145_);}
	.st120{fill:url(#SVGID_146_);}
</style>
<g id="Camada_2" class="st0">
	<rect class="st1" width="500" height="500"/>
</g>
<g id="Camada_1">
</g>
<g id="Bareback_Icon_Tag_White" class="st0">
	<g class="st112">
		<path class="st11" d="M427,237.1c0-1.7-0.6-2.6-2.3-2.6c-1.7,0-2.4,0.9-2.4,2.6v3.7h4.7V237.1z"/>
		<path class="st11" d="M423.1,316.1c0,0,3.6,0,6.4,0.8l4.6,1.7v-5.3l-4.6,1.9C426.7,316.1,423.1,316.1,423.1,316.1z"/>
		<path class="st11" d="M438.8,236.2c0-1.8-0.7-2.7-2.5-2.7c-1.7,0-2.5,0.9-2.5,2.7v4.5h5V236.2z"/>
		<path class="st11" d="M423.1,210.8c0,0,3.6,0,6.4,0.8l4.6,1.7V208l-4.6,1.9C426.7,210.8,423.1,210.8,423.1,210.8z"/>
		<path class="st11" d="M424.7,339.8c-1.7,0-2.4,0.9-2.4,2.6v3.7h4.7v-3.7C427,340.7,426.3,339.8,424.7,339.8z"/>
		<path class="st11" d="M411.1,98.8v300.7H450V98.8H411.1z M415.5,161.6c0-1.4,0.5-1.8,1.8-1.8h9.4v-0.9l-9.7-6.1
			c-1.3-0.8-1.6-1.2-1.6-3.4v-4.9c0-1.3,0.8-1.7,1.9-1l12.3,7.7c0.8-1.1,1.8-1.9,3.3-2.6l10.6-5.6c1.1-0.6,2.1-0.3,2.1,1.1v4.6
			c0,2.2-0.3,3-1.8,3.8l-7.6,3.7c-1.4,0.7-2.1,1.3-2.1,2.9v0.8h9.7c1.3,0,1.8,0.4,1.8,1.8v4.8c0,1.3-0.5,1.8-1.8,1.8h-26.6
			c-1.3,0-1.8-0.5-1.8-1.8V161.6z M443.9,216.2c1.3,0.4,1.8,1,1.8,3.1v4.5c0,1.3-0.6,1.6-1.7,1.1l-27-9.8c-1.2-0.4-1.5-1-1.5-2.2
			v-4.8c0-1.2,0.3-1.8,1.4-2.2l27-9.8c1.1-0.4,1.7,0,1.7,1.2v4.6c0,2.2-0.5,2.9-1.8,3.2l-3.1,1v9.2L443.9,216.2z M423.5,225.9
			c2.9,0,4.8,0.9,6.3,3.1h0.2c1.2-2.7,3.6-4.3,7.3-4.3c5.5,0,8.4,4.5,8.4,10.5v12.2c0,1.4-0.5,1.8-1.8,1.8h-26.6
			c-1.3,0-1.8-0.5-1.8-1.8v-12C415.4,229.4,418.3,225.9,423.5,225.9z M417.2,251.3h3.8c1.4,0,1.8,0.5,1.8,1.8v11.9h3.8v-7.9
			c0-1.4,0.5-1.8,1.8-1.8h3.8c1.4,0,1.8,0.5,1.8,1.8v7.9h4.1v-12c0-1.3,0.4-1.8,1.8-1.8h3.9c1.3,0,1.8,0.5,1.8,1.8v18.6
			c0,1.4-0.5,1.8-1.8,1.8h-26.7c-1.3,0-1.8-0.5-1.8-1.8v-18.6C415.4,251.8,415.9,251.3,417.2,251.3z M443.9,321.5
			c1.3,0.4,1.8,1,1.8,3.1v4.5c0,1.3-0.6,1.6-1.7,1.1l-27-9.8c-1.2-0.4-1.5-1-1.5-2.2v-4.9c0-1.2,0.3-1.8,1.4-2.2l27-9.8
			c1.1-0.4,1.7,0,1.7,1.2v4.6c0,2.2-0.5,2.9-1.8,3.2l-3.1,1v9.2L443.9,321.5z M445.7,352.7c0,1.4-0.5,1.8-1.8,1.8h-26.6
			c-1.3,0-1.8-0.5-1.8-1.8v-12c0-5.9,2.9-9.4,8.1-9.4c2.9,0,4.8,0.9,6.3,3.1h0.2c1.2-2.7,3.6-4.3,7.3-4.3c5.5,0,8.4,4.5,8.4,10.5
			V352.7z M445.7,280.7c0,2.2-0.5,3.2-2,3.9l-5.8,2.7c-1.5,0.7-2.2,1.4-2.2,3.2v1h8.2c1.3,0,1.8,0.4,1.8,1.8v4.8
			c0,1.4-0.5,1.8-1.8,1.8h-26.6c-1.3,0-1.8-0.5-1.8-1.8V286c0-6.4,3.7-10.6,10.2-10.6c4.2,0,7.1,1.7,8.8,4.6
			c0.6-0.4,1.1-0.8,1.8-1.1l7.3-3.8c1.2-0.6,2.1-0.3,2.1,1.1V280.7z M434.4,196.6h-7.6c-7.4,0-11.9-4.7-11.9-13.1
			c0-6.5,2.7-10.6,7.4-12.4c1.2-0.4,1.9-0.1,2.3,1.1l1.6,4.6c0.4,1.3,0.2,1.8-1.1,2.3c-1.9,0.8-2.8,2-2.8,4.4c0,3.4,1.5,4.7,4.4,4.7
			h7.7c3,0,4.4-1.3,4.4-4.7c0-2.4-0.9-3.7-2.8-4.4c-1.3-0.5-1.6-1-1.1-2.3l1.6-4.6c0.4-1.3,1.1-1.6,2.3-1.1
			c4.8,1.8,7.4,5.9,7.4,12.4C446.3,191.9,441.7,196.6,434.4,196.6z"/>
		<path class="st11" d="M436.3,338.8c-1.7,0-2.5,0.9-2.5,2.7v4.5h5v-4.5C438.8,339.7,438.1,338.8,436.3,338.8z"/>
		<path class="st11" d="M425.7,284.1c-1.7,0-2.8,1-2.8,2.8v4.6h5.6v-4.6C428.6,285.1,427.5,284.1,425.7,284.1z"/>
	</g>
	<g class="st112">
		<linearGradient id="SVGID_1_" gradientUnits="userSpaceOnUse" x1="430.5425" y1="249.163" x2="430.5425" y2="98.7802">
			<stop  offset="0" style="stop-color:#000000;stop-opacity:0"/>
			<stop  offset="1" style="stop-color:#FFFFFF;stop-opacity:0.3"/>
		</linearGradient>
		<rect x="411.1" y="98.8" class="st7" width="38.9" height="150.4"/>
	</g>
	<g class="st112">
		<path class="st2" d="M269.5,175.4c0.4-1.6,0.6-3.2,0.6-4.9c0-10.9-8.8-19.7-19.7-19.7s-19.7,8.8-19.7,19.7c0,1.7,0.2,3.3,0.6,4.9
			c-12.1,6.7-20.3,19.6-20.3,34.4v100.3c0,5.5,17.6,10,39.4,10c21.7,0,39.3-4.5,39.3-10V209.9C289.8,195,281.6,182.1,269.5,175.4z"
			/>
		<path class="st2" d="M291.2,308.3c1.3,1.5,2.1,3.1,2.1,4.7c0,8.5-19.2,15.4-42.8,15.4c-23.7,0-42.9-6.9-42.9-15.4
			c0-1.7,0.8-3.3,2.1-4.7c-7.8,3.7-12.5,8.5-12.5,13.7c0,11.8,23.8,21.3,53.2,21.3c29.4,0,53.2-9.6,53.2-21.3
			C303.7,316.8,299,312,291.2,308.3z"/>
		<linearGradient id="SVGID_3_" gradientUnits="userSpaceOnUse" x1="234.298" y1="293.9594" x2="266.7049" y2="350.0898">
			<stop  offset="0" style="stop-color:#FFFFFF;stop-opacity:0.3"/>
			<stop  offset="1" style="stop-color:#000000;stop-opacity:0"/>
		</linearGradient>
		<path style="fill:url(#SVGID_3_);" d="M291.2,308.3c1.3,1.5,2.1,3.1,2.1,4.7c0,8.5-19.2,15.4-42.8,15.4
			c-23.7,0-42.9-6.9-42.9-15.4c0-1.7,0.8-3.3,2.1-4.7c-7.8,3.7-12.5,8.5-12.5,13.7c0,11.8,23.8,21.3,53.2,21.3
			c29.4,0,53.2-9.6,53.2-21.3C303.7,316.8,299,312,291.2,308.3z"/>
		<g>
			<linearGradient id="SVGID_4_" gradientUnits="userSpaceOnUse" x1="206.926" y1="172.9516" x2="261.9281" y2="268.2181">
				<stop  offset="0" style="stop-color:#FFFFFF;stop-opacity:0.3"/>
				<stop  offset="1" style="stop-color:#000000;stop-opacity:0"/>
			</linearGradient>
			<path style="fill:url(#SVGID_4_);" d="M289.8,209.9c0-14.8-8.2-27.7-20.3-34.4c0.4-1.6,0.6-3.2,0.6-4.9
				c0-10.9-8.8-19.7-19.7-19.7s-19.7,8.8-19.7,19.7c0,1.7,0.2,3.3,0.6,4.9c-12.1,6.7-20.3,19.6-20.3,34.4v87.7l78.7-78.7V209.9z"/>
		</g>
		<path class="st11" d="M250.5,100.1c-82.6,0-149.6,67-149.6,149.6s67,149.6,149.6,149.6c82.6,0,149.6-67,149.6-149.6
			S333.1,100.1,250.5,100.1z M127.1,249.7c0-29.4,10.3-56.3,27.4-77.5L328,345.7c-21.2,17.1-48.2,27.4-77.5,27.4
			C182.3,373.1,127.1,317.9,127.1,249.7z M346.5,327.2L173,153.7c21.2-17.1,48.2-27.4,77.5-27.4c68.2,0,123.4,55.3,123.4,123.4
			C373.9,279.1,363.7,306,346.5,327.2z"/>
		<g>
			<defs>
				<path id="SVGID_138_" d="M250.5,100.1c-82.6,0-149.6,67-149.6,149.6s67,149.6,149.6,149.6c82.6,0,149.6-67,149.6-149.6
					S333.1,100.1,250.5,100.1z M127.1,249.7c0-29.4,10.3-56.3,27.4-77.5L328,345.7c-21.2,17.1-48.2,27.4-77.5,27.4
					C182.3,373.1,127.1,317.9,127.1,249.7z M346.5,327.2L173,153.7c21.2-17.1,48.2-27.4,77.5-27.4c68.2,0,123.4,55.3,123.4,123.4
					C373.9,279.1,363.7,306,346.5,327.2z"/>
			</defs>
			<clipPath id="SVGID_5_">
				<use xlink:href="#SVGID_138_"  style="overflow:visible;"/>
			</clipPath>
			<radialGradient id="SVGID_7_" cx="154.1488" cy="153.6597" r="149.6117" gradientUnits="userSpaceOnUse">
				<stop  offset="0" style="stop-color:#FFFFFF;stop-opacity:0.3"/>
				<stop  offset="1" style="stop-color:#000000;stop-opacity:0"/>
			</radialGradient>
			<path style="clip-path:url(#SVGID_5_);fill:url(#SVGID_7_);" d="M154.1,4C71.5,4,4.5,71,4.5,153.7c0,82.6,67,149.6,149.6,149.6
				c82.6,0,149.6-67,149.6-149.6C303.8,71,236.8,4,154.1,4z"/>
		</g>
	</g>
</g>
<g id="HOTv_Icon_Tag_White">
	<linearGradient id="SVGID_8_" gradientUnits="userSpaceOnUse" x1="250" y1="256.6111" x2="250" y2="118.6118">
		<stop  offset="0" style="stop-color:#000000;stop-opacity:0"/>
		<stop  offset="1" style="stop-color:#FFFFFF;stop-opacity:0.3"/>
	</linearGradient>
	<path style="fill:url(#SVGID_8_);" d="M138.9,239.2c0-29.6,14-80.8,40.6-80.8h140.1c26.6,0,40.6,51.2,40.6,80.8
		c0,5.2-0.6,11.2-1.7,17.4h41.1c0.5-5.6,0.7-11.3,0.7-17.4c0-83.7-45.2-120.6-118.4-120.6h-64.2c-73,0-118.2,36.9-118.2,120.6
		c0,6,0.3,11.8,0.8,17.4H140C139.3,250.4,138.9,244.4,138.9,239.2z"/>
	<path class="st2" d="M282,118.6h-64.2c-73,0-118.2,36.9-118.2,120.6c0,83.2,45.1,119.8,118.2,119.8H282
		c73.1,0,118.4-36.6,118.4-119.8C400.4,155.5,355.2,118.6,282,118.6z M250,350.5c-6.6,0-11.9-5.3-11.9-12c0-6.5,5.3-11.9,11.9-11.9
		c6.6,0,11.9,5.3,11.9,11.9C261.9,345.2,256.6,350.5,250,350.5z M315.9,319.2H175.8c-26.6,0-36.9-50.8-36.9-80
		c0-29.6,14-80.8,40.6-80.8h140.1c26.6,0,40.6,51.2,40.6,80.8C360.2,268.4,342.6,319.2,315.9,319.2z"/>
	<rect x="159.2" y="378.8" class="st2" width="181.6" height="20.8"/>
	<g>
		<path class="st2" d="M411.1,98.8v300.3H450V98.8H411.1z M427.8,216.9c0-1.3,0.3-1.7,1.1-1.9l6.2-1.8c1.5-0.4,5.7-1.2,5.7-1.2
			s-4.2-0.8-5.7-1.3l-6.2-1.8c-0.8-0.2-1.1-0.6-1.1-1.9v-2.9c0-0.8,0.3-0.9,1-0.7l16.3,5.6c0.7,0.3,0.9,0.6,0.9,1.3v2.9
			c0,0.7-0.2,1.1-0.8,1.3l-16.3,5.7c-0.7,0.2-1,0-1-0.8V216.9z M415.7,218.2c0-1.4,0.5-1.8,1.8-1.8h3.8c1.4,0,1.8,0.5,1.8,1.8v6.3
			h21c1.3,0,1.8,0.5,1.8,1.8v4.5c0,1.4-0.5,1.8-1.8,1.8h-21v6.3c0,1.4-0.5,1.8-1.8,1.8h-3.8c-1.3,0-1.8-0.4-1.8-1.8V218.2z
			 M446,276.4c0,1.3-0.5,1.8-1.8,1.8h-9.8v8.1h9.8c1.3,0,1.8,0.4,1.8,1.8v4.5c0,1.4-0.5,1.8-1.8,1.8h-26.7c-1.4,0-1.8-0.5-1.8-1.8
			v-4.5c0-1.4,0.5-1.8,1.8-1.8h9.4v-8.1h-9.4c-1.4,0-1.8-0.5-1.8-1.8v-4.5c0-1.3,0.5-1.8,1.8-1.8h26.7c1.3,0,1.8,0.5,1.8,1.8V276.4z
			 M434.7,266H427c-7.4,0-11.9-3.7-11.9-12.2c0-8.4,4.9-12.1,12.3-12.1h7.7c7.4,0,11.6,3.7,11.6,12.1
			C446.6,262.2,442.1,266,434.7,266z"/>
		<path class="st2" d="M435.4,249.7H427c-2.7,0-4.5,1.1-4.5,4.1c0,3,1.4,4.1,4.1,4.1h8.4c2.7,0,4.1-1.1,4.1-4.1
			C439.2,250.9,438.1,249.7,435.4,249.7z"/>
	</g>
	<g>
		<path class="st4" d="M293.4,182.8c0,0,1.7-0.9,3.8-0.9c2,0,8.8,1.8,8.8,8.6c0,6.7,5.9,9,8.8,9c0,0-11.8,13.4-25.3,0
			c0,0,8.8-1,8.8-8.8C298.5,185,293.4,182.8,293.4,182.8z"/>
		<path class="st3" d="M289.8,202c-2.9,2.9-5.3,8.2-5.3,13.4c-0.2,16.7-6.7,33.4-19.5,46.1c-24.3,24.3-62.7,25.9-88.8,4.7
			c1.6,1.9,3.3,3.9,5.2,5.7c31.7,31.8,83.2,31.8,114.9,0c16.3-16.3,24.3-37.9,23.8-59.3c-0.4-3.9-2.1-7.7-5.1-10.7
			c-3.5-3.5-8.1-1.4-12.7-1.4C297.8,200.6,293.2,198.5,289.8,202z"/>
		<g>
			<defs>
				<path id="SVGID_142_" d="M289.8,202c-2.9,2.9-5.3,8.2-5.3,13.4c-0.2,16.7-6.7,33.4-19.5,46.1c-24.3,24.3-62.7,25.9-88.8,4.7
					c1.6,1.9,3.3,3.9,5.2,5.7c31.7,31.8,83.2,31.8,114.9,0c16.3-16.3,24.3-37.9,23.8-59.3c-0.4-3.9-2.1-7.7-5.1-10.7
					c-3.5-3.5-8.1-1.4-12.7-1.4C297.8,200.6,293.2,198.5,289.8,202z"/>
			</defs>
			<clipPath id="SVGID_9_">
				<use xlink:href="#SVGID_142_"  style="overflow:visible;"/>
			</clipPath>
			<radialGradient id="SVGID_10_" cx="238.6249" cy="214.3343" r="81.4011" gradientUnits="userSpaceOnUse">
				<stop  offset="0.2562" style="stop-color:#FFFFFF;stop-opacity:0.3"/>
				<stop  offset="0.8966" style="stop-color:#000000;stop-opacity:0"/>
			</radialGradient>
			<path style="clip-path:url(#SVGID_9_);fill:url(#SVGID_10_);" d="M320,214.3c0-44.9-36.4-81.4-81.4-81.4
				c-45,0-81.4,36.4-81.4,81.4c0,45,36.4,81.4,81.4,81.4C283.6,295.7,320,259.3,320,214.3z"/>
		</g>
	</g>
	<g>
		<linearGradient id="SVGID_11_" gradientUnits="userSpaceOnUse" x1="430.565" y1="249.0321" x2="430.565" y2="98.8585">
			<stop  offset="0" style="stop-color:#000000;stop-opacity:0"/>
			<stop  offset="1" style="stop-color:#FFFFFF;stop-opacity:0.3"/>
		</linearGradient>
		<rect x="411.1" y="98.9" class="st15" width="38.9" height="150.2"/>
	</g>
	<linearGradient id="SVGID_12_" gradientUnits="userSpaceOnUse" x1="250" y1="256.6111" x2="250" y2="118.6118">
		<stop  offset="0" style="stop-color:#000000;stop-opacity:0"/>
		<stop  offset="1" style="stop-color:#FFFFFF;stop-opacity:0.3"/>
	</linearGradient>
	<path class="st16" d="M138.9,239.2c0-29.6,14-80.8,40.6-80.8h140.1c26.6,0,40.6,51.2,40.6,80.8c0,5.2-0.6,11.2-1.7,17.4h41.1
		c0.5-5.6,0.7-11.3,0.7-17.4c0-83.7-45.2-120.6-118.4-120.6h-64.2c-73,0-118.2,36.9-118.2,120.6c0,6,0.3,11.8,0.8,17.4H140
		C139.3,250.4,138.9,244.4,138.9,239.2z"/>
</g>
</svg>
