<?xml version="1.0" encoding="utf-8"?>
<!-- Generator: Adobe Illustrator 22.0.1, SVG Export Plug-In . SVG Version: 6.00 Build 0)  -->
<svg version="1.1" id="Camada_1" xmlns="http://www.w3.org/2000/svg" xmlns:xlink="http://www.w3.org/1999/xlink" x="0px" y="0px"
	 viewBox="0 0 500 500" style="enable-background:new 0 0 500 500;" xml:space="preserve">
<style type="text/css">
	.st0{fill:#FFCC00;}
	.st1{fill:#D60D47;}
	.st2{fill:#56B7E0;}
	.st3{opacity:0.5;fill:#FFFFFF;enable-background:new    ;}
</style>
<g id="Arte_Vetorial">
	<polygon class="st0" points="250,250 0,0 500,0 	"/>
	<polygon class="st1" points="250,250 0,0 0,500 	"/>
	<g>
		<path class="st2" d="M127.5,459.3l-0.9-2.9h-8.8l-0.9,2.9h-8.4l9-24.5h9.3l9,24.5H127.5z M122.2,442.1l-2.4,7.9h4.8L122.2,442.1z"
			/>
		<path class="st2" d="M150.7,459.3l-3.4-7.7h-2.7v7.7h-7.4v-24.5h13.1c5.7,0,8.8,3.8,8.8,8.4c0,4.2-2.5,6.5-4.4,7.4l4.4,8.7H150.7z
			 M151.6,443.2c0-1.3-1.2-1.9-2.4-1.9h-4.5v3.9h4.5C150.4,445.1,151.6,444.5,151.6,443.2z"/>
		<path class="st2" d="M167,459.3v-18h-6.6v-6.5h20.5v6.5h-6.5v18H167z"/>
		<path class="st2" d="M183.6,459.3v-24.5h18.6v6.5H191v2.4h10.9v6.5H191v2.7h11.2v6.5h-18.6V459.3z"/>
		<path class="st2" d="M221.2,459.3l-9-24.5h8.4l5.3,16.5l5.3-16.5h8.4l-9,24.5H221.2z"/>
		<path class="st2" d="M240.8,459.3v-24.5h18.6v6.5h-11.2v2.4h10.9v6.5h-10.9v2.7h11.2v6.5h-18.6V459.3z"/>
		<path class="st2" d="M268,459.3v-18h-6.6v-6.5h20.5v6.5h-6.5v18H268z"/>
		<path class="st2" d="M282.5,447.1c0-7.5,5.8-12.7,13.4-12.7s13.4,5.1,13.4,12.7s-5.8,12.7-13.4,12.7S282.5,454.6,282.5,447.1z
			 M301.7,447.1c0-3.4-2.3-6.1-5.9-6.1s-5.9,2.7-5.9,6.1s2.3,6.1,5.9,6.1C299.4,453.2,301.7,450.5,301.7,447.1z"/>
		<path class="st2" d="M325.4,459.3l-3.4-7.7h-2.7v7.7h-7.4v-24.5H325c5.7,0,8.8,3.8,8.8,8.4c0,4.2-2.5,6.5-4.4,7.4l4.4,8.7H325.4z
			 M326.2,443.2c0-1.3-1.2-1.9-2.4-1.9h-4.5v3.9h4.5C325.1,445.1,326.2,444.5,326.2,443.2z"/>
		<path class="st2" d="M336.8,459.3v-24.5h7.4v24.5H336.8z"/>
		<path class="st2" d="M364.5,459.3l-0.9-2.9h-8.8l-0.9,2.9h-8.4l9-24.5h9.3l9,24.5H364.5z M359.2,442.1l-2.4,7.9h4.8L359.2,442.1z"
			/>
		<path class="st2" d="M374.2,459.3v-24.5h7.4v18h9.3v6.5H374.2z"/>
	</g>
</g>
<g id="Camada_3">
	<path class="st3" d="M0,0v500h500V0H0z M479.5,479.5h-459v-459h459V479.5z"/>
</g>
</svg>
