<?xml version="1.0" encoding="utf-8"?>
<!-- Generator: Adobe Illustrator 22.0.1, SVG Export Plug-In . SVG Version: 6.00 Build 0)  -->
<svg version="1.1" id="Camada_1" xmlns="http://www.w3.org/2000/svg" xmlns:xlink="http://www.w3.org/1999/xlink" x="0px" y="0px"
	 viewBox="0 0 500 500" style="enable-background:new 0 0 500 500;" xml:space="preserve">
<style type="text/css">
	.st0{fill:#56B7E0;}
	.st1{fill:#FFCC00;}
	.st2{fill:#D60D47;}
	.st3{opacity:0.5;fill:#FFFFFF;enable-background:new    ;}
</style>
<g id="Arte_de_Personagens">
	<polygon class="st0" points="0,0 500,500 0,500 	"/>
	<polygon class="st1" points="250,250 500,0 0,0 	"/>
	<g>
		<path class="st2" d="M58.5,458.7l-0.9-2.9h-8.8l-0.9,2.9h-8.4l9-24.5h9.3l9,24.5H58.5z M53.2,441.5l-2.4,7.9h4.8L53.2,441.5z"/>
		<path class="st2" d="M81.7,458.7l-3.4-7.7h-2.7v7.7h-7.4v-24.5h13.1c5.7,0,8.8,3.8,8.8,8.4c0,4.2-2.5,6.5-4.4,7.4l4.4,8.7H81.7z
			 M82.6,442.6c0-1.3-1.2-1.9-2.4-1.9h-4.5v3.9h4.5C81.4,444.5,82.6,443.9,82.6,442.6z"/>
		<path class="st2" d="M98,458.7v-18h-6.6v-6.5h20.5v6.5h-6.5v18H98z"/>
		<path class="st2" d="M114.6,458.7v-24.5h18.6v6.5H122v2.4h10.9v6.5H122v2.7h11.2v6.5h-18.6V458.7z"/>
		<path class="st2" d="M145.8,458.7v-24.5h10.9c7.7,0,13.4,4.4,13.4,12.2c0,7.8-5.7,12.3-13.4,12.3H145.8z M162.6,446.4
			c0-3.3-1.9-5.8-5.9-5.8h-3.6v11.6h3.5C160.4,452.2,162.6,449.5,162.6,446.4z"/>
		<path class="st2" d="M172.8,458.7v-24.5h18.6v6.5h-11.2v2.4h10.9v6.5h-10.9v2.7h11.2v6.5h-18.6V458.7z"/>
		<path class="st2" d="M204,458.7v-24.5h13.1c5.7,0,8.8,3.8,8.8,8.4c0,4.5-3.1,8.4-8.8,8.4h-5.6v7.7H204z M218.4,442.6
			c0-1.3-1-1.9-2.2-1.9h-4.7v3.9h4.7C217.4,444.5,218.4,443.9,218.4,442.6z"/>
		<path class="st2" d="M228.3,458.7v-24.5h18.6v6.5h-11.2v2.4h10.9v6.5h-10.9v2.7h11.2v6.5h-18.6V458.7z"/>
		<path class="st2" d="M263.6,458.7l-3.4-7.7h-2.7v7.7h-7.4v-24.5h13.1c5.7,0,8.8,3.8,8.8,8.4c0,4.2-2.5,6.5-4.4,7.4l4.4,8.7H263.6z
			 M264.5,442.6c0-1.3-1.2-1.9-2.4-1.9h-4.5v3.9h4.5C263.3,444.5,264.5,443.9,264.5,442.6z"/>
		<path class="st2" d="M273.2,455.2l3.9-5.5c1.8,1.8,4.6,3.2,7.9,3.2c1.4,0,2.7-0.4,2.7-1.3c0-2.3-13.6,0-13.6-9.6
			c0-4.1,3.4-8.1,10.2-8.1c4,0,7.6,1.1,10.4,3.4l-4,5.2c-2.1-1.6-4.9-2.4-7.2-2.4c-1.5,0-1.9,0.5-1.9,1.1c0,2.3,13.6,0.3,13.6,9.4
			c0,5.4-4,8.5-10.6,8.5C279.3,459.1,275.8,457.6,273.2,455.2z"/>
		<path class="st2" d="M296.2,446.4c0-7.5,5.8-12.7,13.4-12.7s13.4,5.1,13.4,12.7s-5.8,12.7-13.4,12.7S296.2,454,296.2,446.4z
			 M315.5,446.4c0-3.4-2.3-6.1-5.9-6.1s-5.9,2.7-5.9,6.1s2.3,6.1,5.9,6.1C313.2,452.6,315.5,449.9,315.5,446.4z"/>
		<path class="st2" d="M342.1,458.7l-9-12.4v12.4h-7.4v-24.5h7.6l8.5,11.6v-11.6h7.4v24.5H342.1z"/>
		<path class="st2" d="M369.5,458.7l-0.9-2.9h-8.8l-0.9,2.9h-8.4l9-24.5h9.3l9,24.5H369.5z M364.2,441.5l-2.4,7.9h4.8L364.2,441.5z"
			/>
		<path class="st2" d="M376.8,446.4c0-7.8,6.1-12.7,13.5-12.7c5.8,0,9.2,3.2,10.7,6.4l-6.2,3.2c-0.7-1.5-2.3-3-4.5-3
			c-3.6,0-5.9,2.7-5.9,6.1s2.4,6.1,5.9,6.1c1.4,0,3-0.5,3.8-1.1v-0.9h-4.5V444h11.9v10c-2.7,3-6.4,5-11.2,5
			C382.8,459.1,376.8,454.3,376.8,446.4z"/>
		<path class="st2" d="M404.7,458.7v-24.5h18.6v6.5h-11.2v2.4H423v6.5h-10.9v2.7h11.2v6.5h-18.6V458.7z"/>
		<path class="st2" d="M448.2,458.7V444l-5.5,14.7h-3.3l-5.5-14.7v14.7h-7.4v-24.5h10.2l4.3,11.7l4.3-11.7h10.2v24.5H448.2z"/>
	</g>
</g>
<g id="Camada_3">
	<path class="st3" d="M0,0v500h500V0H0z M479.5,479.5h-459v-459h459V479.5z"/>
</g>
</svg>
