<?xml version="1.0" encoding="utf-8"?>
<!-- Generator: Adobe Illustrator 22.0.1, SVG Export Plug-In . SVG Version: 6.00 Build 0)  -->
<svg version="1.1" xmlns="http://www.w3.org/2000/svg" xmlns:xlink="http://www.w3.org/1999/xlink" x="0px" y="0px"
	 viewBox="0 0 500 500" style="enable-background:new 0 0 500 500;" xml:space="preserve">
<style type="text/css">
	.st0{display:none;}
	.st1{display:inline;fill:#1D1D1B;}
	.st2{display:inline;fill:#D60D47;}
	.st3{display:inline;fill:#56B7E0;}
	.st4{display:inline;fill:#FFCC00;}
	.st5{display:inline;}
	.st6{fill:#FFCC00;}
	.st7{display:inline;fill:#358334;}
	.st8{display:inline;fill:#E84A3C;}
	.st9{display:inline;fill:#A62D25;}
	.st10{display:inline;fill:#8A99A2;}
	.st11{display:inline;fill:#449D4C;}
	.st12{display:inline;fill:#A8B6BE;}
	.st13{display:inline;fill:#D8DDDE;}
	.st14{display:inline;fill:#EF8260;}
	.st15{display:inline;fill:#6EB552;}
	.st16{display:inline;fill:#F8C297;}
	.st17{display:inline;fill:#F1E52B;}
	.st18{display:inline;fill:#B3A833;}
	.st19{display:inline;fill:#B76848;}
	.st20{display:inline;fill:#EDECEC;}
	.st21{fill:#56B7E0;}
	.st22{fill:#D1D1D1;}
	.st23{display:inline;fill:#EBC400;}
	.st24{fill:#D60D47;}
	.st25{opacity:0.5;fill:#FFFFFF;}
</style>
<g id="Camada_1" class="st0">
	<rect class="st1" width="500" height="500"/>
</g>
<g id="Editorial" class="st0">
	<polygon class="st2" points="500,500 0,0 500,0 	"/>
	<polygon class="st3" points="250,250 500,500 0,500 	"/>
</g>
<g id="Marcas" class="st0">
	<polygon class="st4" points="0,500 500,0 0,0 	"/>
	<polygon class="st3" points="250,250 500,0 500,500 	"/>
</g>
<g id="Arte_de_Personagens" class="st0">
	<polygon class="st3" points="0,0 500,500 0,500 	"/>
	<polygon class="st4" points="250,250 500,0 0,0 	"/>
	<g class="st5">
		<path class="st6" d="M58.5,458.7l-0.9-2.9h-8.8l-0.9,2.9h-8.4l9-24.5h9.3l9,24.5H58.5z M53.2,441.5l-2.4,7.9h4.8L53.2,441.5z"/>
		<path class="st6" d="M81.7,458.7l-3.4-7.7h-2.7v7.7h-7.4v-24.5h13.1c5.7,0,8.8,3.8,8.8,8.4c0,4.2-2.5,6.5-4.4,7.4l4.4,8.7H81.7z
			 M82.6,442.6c0-1.3-1.2-1.9-2.4-1.9h-4.5v3.9h4.5C81.4,444.5,82.6,443.9,82.6,442.6z"/>
		<path class="st6" d="M98,458.7v-18h-6.6v-6.5h20.5v6.5h-6.5v18H98z"/>
		<path class="st6" d="M114.6,458.7v-24.5h18.6v6.5H122v2.4h10.9v6.5H122v2.7h11.2v6.5H114.6z"/>
		<path class="st6" d="M145.8,458.7v-24.5h10.9c7.7,0,13.4,4.4,13.4,12.2c0,7.8-5.7,12.3-13.4,12.3H145.8z M162.6,446.4
			c0-3.3-1.9-5.8-5.9-5.8h-3.6v11.6h3.5C160.4,452.2,162.6,449.5,162.6,446.4z"/>
		<path class="st6" d="M172.8,458.7v-24.5h18.6v6.5h-11.2v2.4h10.9v6.5h-10.9v2.7h11.2v6.5H172.8z"/>
		<path class="st6" d="M204,458.7v-24.5h13.1c5.7,0,8.8,3.8,8.8,8.4c0,4.5-3.1,8.4-8.8,8.4h-5.6v7.7H204z M218.4,442.6
			c0-1.3-1-1.9-2.2-1.9h-4.7v3.9h4.7C217.4,444.5,218.4,443.9,218.4,442.6z"/>
		<path class="st6" d="M228.3,458.7v-24.5h18.6v6.5h-11.2v2.4h10.9v6.5h-10.9v2.7h11.2v6.5H228.3z"/>
		<path class="st6" d="M263.6,458.7l-3.4-7.7h-2.7v7.7h-7.4v-24.5h13.1c5.7,0,8.8,3.8,8.8,8.4c0,4.2-2.5,6.5-4.4,7.4l4.4,8.7H263.6z
			 M264.5,442.6c0-1.3-1.2-1.9-2.4-1.9h-4.5v3.9h4.5C263.3,444.5,264.5,443.9,264.5,442.6z"/>
		<path class="st6" d="M273.2,455.2l3.9-5.5c1.8,1.8,4.6,3.2,7.9,3.2c1.4,0,2.7-0.4,2.7-1.3c0-2.3-13.6,0-13.6-9.6
			c0-4.1,3.4-8.1,10.2-8.1c4,0,7.6,1.1,10.4,3.4l-4,5.2c-2.1-1.6-4.9-2.4-7.2-2.4c-1.5,0-1.9,0.5-1.9,1.1c0,2.3,13.6,0.3,13.6,9.4
			c0,5.4-4,8.5-10.6,8.5C279.3,459.1,275.8,457.6,273.2,455.2z"/>
		<path class="st6" d="M296.2,446.4c0-7.5,5.8-12.7,13.4-12.7c7.6,0,13.4,5.1,13.4,12.7s-5.8,12.7-13.4,12.7
			C302,459.1,296.2,454,296.2,446.4z M315.5,446.4c0-3.4-2.3-6.1-5.9-6.1c-3.6,0-5.9,2.7-5.9,6.1s2.3,6.1,5.9,6.1
			C313.2,452.6,315.5,449.9,315.5,446.4z"/>
		<path class="st6" d="M342.1,458.7l-9-12.4v12.4h-7.4v-24.5h7.6l8.5,11.6v-11.6h7.4v24.5H342.1z"/>
		<path class="st6" d="M369.5,458.7l-0.9-2.9h-8.8l-0.9,2.9h-8.4l9-24.5h9.3l9,24.5H369.5z M364.2,441.5l-2.4,7.9h4.8L364.2,441.5z"
			/>
		<path class="st6" d="M376.8,446.4c0-7.8,6.1-12.7,13.5-12.7c5.8,0,9.2,3.2,10.7,6.4l-6.2,3.2c-0.7-1.5-2.3-3-4.5-3
			c-3.6,0-5.9,2.7-5.9,6.1s2.4,6.1,5.9,6.1c1.4,0,3-0.5,3.8-1.1v-0.9h-4.5v-6.5h11.9v10c-2.7,3-6.4,5-11.2,5
			C382.8,459.1,376.8,454.3,376.8,446.4z"/>
		<path class="st6" d="M404.7,458.7v-24.5h18.6v6.5h-11.2v2.4H423v6.5h-10.9v2.7h11.2v6.5H404.7z"/>
		<path class="st6" d="M448.2,458.7v-14.7l-5.5,14.7h-3.3l-5.5-14.7v14.7h-7.4v-24.5h10.2l4.3,11.7l4.3-11.7h10.2v24.5H448.2z"/>
	</g>
</g>
<g id="Camada_9" class="st0">
	<rect x="271.6" y="61.5" class="st7" width="9.5" height="9.4"/>
	<rect x="271.6" y="70.9" class="st7" width="9.5" height="9.4"/>
	<rect x="281.1" y="70.9" class="st7" width="9.5" height="9.4"/>
	<rect x="309.4" y="70.9" class="st8" width="9.5" height="9.4"/>
	<rect x="262.1" y="80.3" class="st7" width="9.5" height="9.4"/>
	<rect x="271.6" y="80.3" class="st7" width="9.5" height="9.4"/>
	<rect x="309.4" y="80.3" class="st8" width="9.5" height="9.4"/>
	<rect x="252.7" y="89.7" class="st7" width="9.5" height="9.4"/>
	<rect x="262.1" y="89.7" class="st7" width="9.5" height="9.4"/>
	<rect x="195.9" y="99.1" class="st7" width="9.5" height="9.4"/>
	<rect x="243.2" y="99.1" class="st7" width="9.5" height="9.4"/>
	<rect x="252.7" y="99.1" class="st7" width="9.5" height="9.4"/>
	<rect x="309.4" y="99.1" class="st8" width="9.5" height="9.4"/>
	<rect x="205.4" y="108.5" class="st7" width="9.5" height="9.4"/>
	<rect x="214.8" y="108.5" class="st7" width="9.5" height="9.4"/>
	<rect x="224.3" y="108.5" class="st7" width="9.5" height="9.4"/>
	<rect x="233.8" y="108.5" class="st7" width="9.5" height="9.4"/>
	<rect x="243.2" y="108.5" class="st9" width="9.5" height="9.4"/>
	<rect x="252.7" y="108.5" class="st8" width="9.5" height="9.4"/>
	<rect x="309.4" y="108.5" class="st8" width="9.5" height="9.4"/>
	<rect x="233.8" y="117.8" class="st5" width="9.5" height="9.4"/>
	<rect x="243.2" y="117.8" class="st8" width="9.5" height="9.4"/>
	<rect x="252.7" y="117.8" class="st9" width="9.5" height="9.4"/>
	<rect x="262.1" y="117.8" class="st10" width="9.5" height="9.4"/>
	<rect x="300" y="117.8" class="st10" width="9.5" height="9.4"/>
	<rect x="205.4" y="127.2" class="st7" width="9.5" height="9.4"/>
	<rect x="243.2" y="127.2" class="st10" width="9.5" height="9.4"/>
	<rect x="252.7" y="127.2" class="st10" width="9.5" height="9.4"/>
	<rect x="262.1" y="127.2" class="st10" width="9.5" height="9.4"/>
	<rect x="271.6" y="127.2" class="st10" width="9.5" height="9.4"/>
	<rect x="281.1" y="127.2" class="st10" width="9.5" height="9.4"/>
	<rect x="290.5" y="127.2" class="st10" width="9.5" height="9.4"/>
	<rect x="300" y="127.2" class="st8" width="9.5" height="9.4"/>
	<rect x="252.7" y="136.6" class="st10" width="9.5" height="9.4"/>
	<rect x="262.1" y="136.6" class="st11" width="9.5" height="9.4"/>
	<rect x="271.6" y="136.6" class="st11" width="9.5" height="9.4"/>
	<rect x="205.4" y="146" class="st7" width="9.5" height="9.4"/>
	<rect x="214.8" y="146" class="st11" width="9.5" height="9.4"/>
	<rect x="224.3" y="146" class="st7" width="9.5" height="9.4"/>
	<rect x="252.7" y="146" class="st12" width="9.5" height="9.4"/>
	<rect x="214.8" y="155.4" class="st7" width="9.5" height="9.4"/>
	<rect x="347.3" y="155.4" class="st7" width="9.5" height="9.4"/>
	<rect x="243.2" y="164.8" class="st10" width="9.5" height="9.4"/>
	<rect x="271.6" y="164.8" class="st10" width="9.5" height="9.4"/>
	<rect x="281.1" y="164.8" class="st8" width="9.5" height="9.4"/>
	<rect x="290.5" y="164.8" class="st8" width="9.5" height="9.4"/>
	<rect x="347.3" y="164.8" class="st7" width="9.5" height="9.4"/>
	<rect x="224.3" y="174.2" class="st12" width="9.5" height="9.4"/>
	<rect x="233.8" y="174.2" class="st10" width="9.5" height="9.4"/>
	<rect x="243.2" y="174.2" class="st11" width="9.5" height="9.4"/>
	<rect x="252.7" y="174.2" class="st11" width="9.5" height="9.4"/>
	<rect x="271.6" y="174.2" class="st7" width="9.5" height="9.4"/>
	<rect x="281.1" y="174.2" class="st13" width="9.5" height="9.4"/>
	<rect x="290.5" y="174.2" class="st8" width="9.5" height="9.4"/>
	<rect x="318.9" y="174.2" class="st7" width="9.5" height="9.4"/>
	<rect x="328.4" y="174.2" class="st7" width="9.5" height="9.4"/>
	<rect x="347.3" y="174.2" class="st7" width="9.5" height="9.4"/>
	<rect x="214.8" y="183.5" class="st12" width="9.5" height="9.4"/>
	<rect x="224.3" y="183.5" class="st10" width="9.5" height="9.4"/>
	<rect x="262.1" y="183.5" class="st11" width="9.5" height="9.4"/>
	<rect x="281.1" y="183.5" class="st7" width="9.5" height="9.4"/>
	<rect x="290.5" y="183.5" class="st10" width="9.5" height="9.4"/>
	<rect x="318.9" y="183.5" class="st7" width="9.5" height="9.4"/>
	<rect x="328.4" y="183.5" class="st7" width="9.5" height="9.4"/>
	<rect x="186.5" y="192.9" class="st14" width="9.5" height="9.4"/>
	<rect x="195.9" y="192.9" class="st14" width="9.5" height="9.4"/>
	<rect x="205.4" y="192.9" class="st14" width="9.5" height="9.4"/>
	<rect x="214.8" y="192.9" class="st14" width="9.5" height="9.4"/>
	<rect x="224.3" y="192.9" class="st10" width="9.5" height="9.4"/>
	<rect x="262.1" y="192.9" class="st15" width="9.5" height="9.4"/>
	<rect x="177" y="202.3" class="st14" width="9.5" height="9.4"/>
	<rect x="186.5" y="202.3" class="st14" width="9.5" height="9.4"/>
	<rect x="195.9" y="202.3" class="st14" width="9.5" height="9.4"/>
	<rect x="205.4" y="202.3" class="st16" width="9.5" height="9.4"/>
	<rect x="214.8" y="202.3" class="st14" width="9.5" height="9.4"/>
	<rect x="224.3" y="202.3" class="st14" width="9.5" height="9.4"/>
	<rect x="177" y="211.7" class="st17" width="9.5" height="9.4"/>
	<rect x="186.5" y="211.7" class="st17" width="9.5" height="9.4"/>
	<rect x="195.9" y="211.7" class="st17" width="9.5" height="9.4"/>
	<rect x="205.4" y="211.7" class="st14" width="9.5" height="9.4"/>
	<rect x="214.8" y="211.7" class="st14" width="9.5" height="9.4"/>
	<rect x="224.3" y="211.7" class="st14" width="9.5" height="9.4"/>
	<rect x="233.8" y="211.7" class="st14" width="9.5" height="9.4"/>
	<rect x="243.2" y="211.7" class="st14" width="9.5" height="9.4"/>
	<rect x="177" y="221.1" class="st18" width="9.5" height="9.4"/>
	<rect x="186.5" y="221.1" class="st18" width="9.5" height="9.4"/>
	<rect x="195.9" y="221.1" class="st18" width="9.5" height="9.4"/>
	<rect x="205.4" y="221.1" class="st17" width="9.5" height="9.4"/>
	<rect x="214.8" y="221.1" class="st14" width="9.5" height="9.4"/>
	<rect x="224.3" y="221.1" class="st14" width="9.5" height="9.4"/>
	<rect x="233.8" y="221.1" class="st19" width="9.5" height="9.4"/>
	<rect x="243.2" y="221.1" class="st14" width="9.5" height="9.4"/>
	<rect x="252.7" y="221.1" class="st19" width="9.5" height="9.4"/>
	<rect x="281.1" y="221.1" class="st7" width="9.5" height="9.4"/>
	<rect x="186.5" y="230.5" class="st18" width="9.5" height="9.4"/>
	<rect x="195.9" y="230.5" class="st18" width="9.5" height="9.4"/>
	<rect x="205.4" y="230.5" class="st18" width="9.5" height="9.4"/>
	<rect x="214.8" y="230.5" class="st17" width="9.5" height="9.4"/>
	<rect x="224.3" y="230.5" class="st19" width="9.5" height="9.4"/>
	<rect x="233.8" y="230.5" class="st14" width="9.5" height="9.4"/>
	<rect x="243.2" y="230.5" class="st19" width="9.5" height="9.4"/>
	<rect x="252.7" y="230.5" class="st19" width="9.5" height="9.4"/>
	<rect x="262.1" y="230.5" class="st7" width="9.5" height="9.4"/>
	<rect x="271.6" y="230.5" class="st10" width="9.5" height="9.4"/>
	<rect x="281.1" y="230.5" class="st10" width="9.5" height="9.4"/>
	<rect x="195.9" y="239.9" class="st18" width="9.5" height="9.4"/>
	<rect x="205.4" y="239.9" class="st18" width="9.5" height="9.4"/>
	<rect x="214.8" y="239.9" class="st18" width="9.5" height="9.4"/>
	<rect x="224.3" y="239.9" class="st17" width="9.5" height="9.4"/>
	<rect x="233.8" y="239.9" class="st14" width="9.5" height="9.4"/>
	<rect x="243.2" y="239.9" class="st19" width="9.5" height="9.4"/>
	<rect x="252.7" y="239.9" class="st10" width="9.5" height="9.4"/>
	<rect x="262.1" y="239.9" class="st10" width="9.5" height="9.4"/>
	<rect x="271.6" y="239.9" class="st7" width="9.5" height="9.4"/>
	<rect x="290.5" y="239.9" class="st14" width="9.5" height="9.4"/>
	<rect x="300" y="239.9" class="st19" width="9.5" height="9.4"/>
	<rect x="205.4" y="249.3" class="st18" width="9.5" height="9.4"/>
	<rect x="214.8" y="249.3" class="st18" width="9.5" height="9.4"/>
	<rect x="224.3" y="249.3" class="st18" width="9.5" height="9.4"/>
	<rect x="233.8" y="249.3" class="st17" width="9.5" height="9.4"/>
	<rect x="243.2" y="249.3" class="st19" width="9.5" height="9.4"/>
	<rect x="262.1" y="249.3" class="st7" width="9.5" height="9.4"/>
	<rect x="290.5" y="249.3" class="st14" width="9.5" height="9.4"/>
	<rect x="300" y="249.3" class="st19" width="9.5" height="9.4"/>
	<rect x="309.4" y="249.3" class="st17" width="9.5" height="9.4"/>
	<rect x="214.8" y="258.6" class="st18" width="9.5" height="9.4"/>
	<rect x="224.3" y="258.6" class="st18" width="9.5" height="9.4"/>
	<rect x="233.8" y="258.6" class="st18" width="9.5" height="9.4"/>
	<rect x="271.6" y="258.6" class="st19" width="9.5" height="9.4"/>
	<rect x="281.1" y="258.6" class="st19" width="9.5" height="9.4"/>
	<rect x="290.5" y="258.6" class="st14" width="9.5" height="9.4"/>
	<rect x="300" y="258.6" class="st14" width="9.5" height="9.4"/>
	<rect x="309.4" y="258.6" class="st17" width="9.5" height="9.4"/>
	<rect x="262.1" y="268" class="st14" width="9.5" height="9.4"/>
	<rect x="271.6" y="268" class="st14" width="9.5" height="9.4"/>
	<rect x="281.1" y="268" class="st14" width="9.5" height="9.4"/>
	<rect x="290.5" y="268" class="st19" width="9.5" height="9.4"/>
	<rect x="300" y="268" class="st14" width="9.5" height="9.4"/>
	<rect x="309.4" y="268" class="st17" width="9.5" height="9.4"/>
	<rect x="252.7" y="277.4" class="st14" width="9.5" height="9.4"/>
	<rect x="262.1" y="277.4" class="st14" width="9.5" height="9.4"/>
	<rect x="271.6" y="277.4" class="st16" width="9.5" height="9.4"/>
	<rect x="281.1" y="277.4" class="st14" width="9.5" height="9.4"/>
	<rect x="290.5" y="277.4" class="st14" width="9.5" height="9.4"/>
	<rect x="300" y="277.4" class="st17" width="9.5" height="9.4"/>
	<rect x="252.7" y="286.8" class="st14" width="9.5" height="9.4"/>
	<rect x="262.1" y="286.8" class="st14" width="9.5" height="9.4"/>
	<rect x="271.6" y="286.8" class="st14" width="9.5" height="9.4"/>
	<rect x="281.1" y="286.8" class="st14" width="9.5" height="9.4"/>
	<rect x="290.5" y="286.8" class="st14" width="9.5" height="9.4"/>
	<rect x="300" y="286.8" class="st17" width="9.5" height="9.4"/>
	<rect x="262.1" y="296.2" class="st17" width="9.5" height="9.4"/>
	<rect x="271.6" y="296.2" class="st17" width="9.5" height="9.4"/>
	<rect x="281.1" y="296.2" class="st17" width="9.5" height="9.4"/>
	<rect x="290.5" y="296.2" class="st17" width="9.5" height="9.4"/>
	<rect x="281.1" y="80.3" class="st12" width="9.5" height="9.4"/>
	<rect x="271.6" y="89.7" class="st12" width="9.5" height="9.4"/>
	<rect x="262.1" y="99.1" class="st12" width="9.5" height="9.4"/>
	<rect x="271.6" y="99.1" class="st12" width="9.5" height="9.4"/>
	<rect x="262.1" y="108.5" class="st12" width="9.5" height="9.4"/>
	<rect x="300" y="108.5" class="st12" width="9.5" height="9.4"/>
	<rect x="224.3" y="117.8" class="st12" width="9.5" height="9.4"/>
	<rect x="290.5" y="117.8" class="st12" width="9.5" height="9.4"/>
	<rect x="233.8" y="127.2" class="st12" width="9.5" height="9.4"/>
	<rect x="233.8" y="164.8" class="st12" width="9.5" height="9.4"/>
	<rect x="262.1" y="33.4" class="st13" width="9.5" height="9.4"/>
	<rect x="271.6" y="33.4" class="st13" width="9.5" height="9.4"/>
	<rect x="281.1" y="42.7" class="st20" width="9.5" height="9.4"/>
	<rect x="290.5" y="42.7" class="st13" width="9.5" height="9.4"/>
	<rect x="281.1" y="52.1" class="st13" width="9.5" height="9.4"/>
	<rect x="281.1" y="61.5" class="st13" width="9.5" height="9.4"/>
	<rect x="281.1" y="89.7" class="st13" width="9.5" height="9.4"/>
	<rect x="290.5" y="89.7" class="st13" width="9.5" height="9.4"/>
	<rect x="300" y="89.7" class="st13" width="9.5" height="9.4"/>
	<rect x="281.1" y="99.1" class="st13" width="9.5" height="9.4"/>
	<rect x="290.5" y="99.1" class="st20" width="9.5" height="9.4"/>
	<rect x="300" y="99.1" class="st13" width="9.5" height="9.4"/>
	<rect x="271.6" y="108.5" class="st13" width="9.5" height="9.4"/>
	<rect x="281.1" y="108.5" class="st13" width="9.5" height="9.4"/>
	<rect x="290.5" y="108.5" class="st13" width="9.5" height="9.4"/>
	<rect x="271.6" y="117.8" class="st13" width="9.5" height="9.4"/>
	<rect x="281.1" y="117.8" class="st13" width="9.5" height="9.4"/>
	<rect x="243.2" y="136.6" class="st13" width="9.5" height="9.4"/>
	<rect x="233.8" y="146" class="st13" width="9.5" height="9.4"/>
	<rect x="243.2" y="146" class="st13" width="9.5" height="9.4"/>
	<rect x="224.3" y="155.4" class="st13" width="9.5" height="9.4"/>
	<rect x="233.8" y="155.4" class="st13" width="9.5" height="9.4"/>
	<rect x="243.2" y="155.4" class="st12" width="9.5" height="9.4"/>
	<rect x="214.8" y="164.8" class="st13" width="9.5" height="9.4"/>
	<rect x="224.3" y="164.8" class="st13" width="9.5" height="9.4"/>
	<rect x="205.4" y="174.2" class="st13" width="9.5" height="9.4"/>
	<rect x="214.8" y="174.2" class="st13" width="9.5" height="9.4"/>
	<rect x="205.4" y="183.5" class="st13" width="9.5" height="9.4"/>
	<rect x="271.6" y="42.7" class="st5" width="9.5" height="9.4"/>
	<rect x="271.6" y="52.1" class="st5" width="9.5" height="9.4"/>
	<rect x="290.5" y="52.1" class="st5" width="9.5" height="9.4"/>
	<rect x="290.5" y="61.5" class="st5" width="9.5" height="9.4"/>
	<rect x="205.4" y="33.4" class="st11" width="9.5" height="9.4"/>
	<rect x="224.3" y="33.4" class="st11" width="9.5" height="9.4"/>
	<rect x="281.1" y="33.4" class="st11" width="9.5" height="9.4"/>
	<rect x="262.1" y="70.9" class="st11" width="9.5" height="9.4"/>
	<rect x="186.5" y="80.3" class="st11" width="9.5" height="9.4"/>
	<rect x="252.7" y="80.3" class="st11" width="9.5" height="9.4"/>
	<rect x="300" y="80.3" class="st11" width="9.5" height="9.4"/>
	<rect x="186.5" y="89.7" class="st11" width="9.5" height="9.4"/>
	<rect x="195.9" y="89.7" class="st11" width="9.5" height="9.4"/>
	<rect x="243.2" y="89.7" class="st11" width="9.5" height="9.4"/>
	<rect x="205.4" y="99.1" class="st11" width="9.5" height="9.4"/>
	<rect x="214.8" y="99.1" class="st11" width="9.5" height="9.4"/>
	<rect x="224.3" y="99.1" class="st11" width="9.5" height="9.4"/>
	<rect x="233.8" y="99.1" class="st11" width="9.5" height="9.4"/>
	<rect x="195.9" y="108.5" class="st11" width="9.5" height="9.4"/>
	<rect x="195.9" y="117.8" class="st11" width="9.5" height="9.4"/>
	<rect x="205.4" y="117.8" class="st11" width="9.5" height="9.4"/>
	<rect x="195.9" y="127.2" class="st11" width="9.5" height="9.4"/>
	<rect x="167.5" y="136.6" class="st11" width="9.5" height="9.4"/>
	<rect x="177" y="146" class="st11" width="9.5" height="9.4"/>
	<rect x="186.5" y="146" class="st11" width="9.5" height="9.4"/>
	<rect x="337.8" y="146" class="st11" width="9.5" height="9.4"/>
	<rect x="195.9" y="155.4" class="st11" width="9.5" height="9.4"/>
	<rect x="205.4" y="155.4" class="st11" width="9.5" height="9.4"/>
	<rect x="281.1" y="155.4" class="st11" width="9.5" height="9.4"/>
	<rect x="290.5" y="155.4" class="st11" width="9.5" height="9.4"/>
	<rect x="300" y="155.4" class="st11" width="9.5" height="9.4"/>
	<rect x="309.4" y="164.8" class="st11" width="9.5" height="9.4"/>
	<rect x="318.9" y="164.8" class="st11" width="9.5" height="9.4"/>
	<rect x="309.4" y="174.2" class="st11" width="9.5" height="9.4"/>
	<rect x="300" y="183.5" class="st11" width="9.5" height="9.4"/>
	<rect x="337.8" y="183.5" class="st11" width="9.5" height="9.4"/>
	<rect x="300" y="192.9" class="st11" width="9.5" height="9.4"/>
	<rect x="252.7" y="211.7" class="st11" width="9.5" height="9.4"/>
	<rect x="281.1" y="211.7" class="st11" width="9.5" height="9.4"/>
	<rect x="300" y="211.7" class="st11" width="9.5" height="9.4"/>
	<rect x="262.1" y="221.1" class="st11" width="9.5" height="9.4"/>
	<rect x="271.6" y="221.1" class="st11" width="9.5" height="9.4"/>
	<rect x="290.5" y="221.1" class="st11" width="9.5" height="9.4"/>
	<rect x="281.1" y="239.9" class="st11" width="9.5" height="9.4"/>
	<rect x="271.6" y="249.3" class="st11" width="9.5" height="9.4"/>
	<rect x="281.1" y="249.3" class="st11" width="9.5" height="9.4"/>
	<rect x="214.8" y="24" class="st15" width="9.5" height="9.4"/>
	<rect x="224.3" y="24" class="st15" width="9.5" height="9.4"/>
	<rect x="233.8" y="24" class="st15" width="9.5" height="9.4"/>
	<rect x="271.6" y="24" class="st15" width="9.5" height="9.4"/>
	<rect x="281.1" y="24" class="st15" width="9.5" height="9.4"/>
	<rect x="214.8" y="33.4" class="st15" width="9.5" height="9.4"/>
	<rect x="233.8" y="33.4" class="st15" width="9.5" height="9.4"/>
	<rect x="243.2" y="33.4" class="st15" width="9.5" height="9.4"/>
	<rect x="252.7" y="33.4" class="st15" width="9.5" height="9.4"/>
	<rect x="290.5" y="33.4" class="st15" width="9.5" height="9.4"/>
	<rect x="300" y="33.4" class="st15" width="9.5" height="9.4"/>
	<rect x="195.9" y="42.7" class="st15" width="9.5" height="9.4"/>
	<rect x="205.4" y="42.7" class="st15" width="9.5" height="9.4"/>
	<rect x="214.8" y="42.7" class="st15" width="9.5" height="9.4"/>
	<rect x="224.3" y="42.7" class="st15" width="9.5" height="9.4"/>
	<rect x="233.8" y="42.7" class="st15" width="9.5" height="9.4"/>
	<rect x="243.2" y="42.7" class="st15" width="9.5" height="9.4"/>
	<rect x="252.7" y="42.7" class="st15" width="9.5" height="9.4"/>
	<rect x="262.1" y="42.7" class="st15" width="9.5" height="9.4"/>
	<rect x="300" y="42.7" class="st15" width="9.5" height="9.4"/>
	<rect x="309.4" y="42.7" class="st15" width="9.5" height="9.4"/>
	<rect x="186.5" y="52.1" class="st15" width="9.5" height="9.4"/>
	<rect x="195.9" y="52.1" class="st15" width="9.5" height="9.4"/>
	<rect x="205.4" y="52.1" class="st15" width="9.5" height="9.4"/>
	<rect x="214.8" y="52.1" class="st15" width="9.5" height="9.4"/>
	<rect x="224.3" y="52.1" class="st15" width="9.5" height="9.4"/>
	<rect x="233.8" y="52.1" class="st15" width="9.5" height="9.4"/>
	<rect x="243.2" y="52.1" class="st15" width="9.5" height="9.4"/>
	<rect x="252.7" y="52.1" class="st15" width="9.5" height="9.4"/>
	<rect x="262.1" y="52.1" class="st15" width="9.5" height="9.4"/>
	<rect x="300" y="52.1" class="st15" width="9.5" height="9.4"/>
	<rect x="309.4" y="52.1" class="st15" width="9.5" height="9.4"/>
	<rect x="186.5" y="61.5" class="st15" width="9.5" height="9.4"/>
	<rect x="195.9" y="61.5" class="st15" width="9.5" height="9.4"/>
	<rect x="205.4" y="61.5" class="st15" width="9.5" height="9.4"/>
	<rect x="214.8" y="61.5" class="st15" width="9.5" height="9.4"/>
	<rect x="224.3" y="61.5" class="st15" width="9.5" height="9.4"/>
	<rect x="233.8" y="61.5" class="st15" width="9.5" height="9.4"/>
	<rect x="243.2" y="61.5" class="st15" width="9.5" height="9.4"/>
	<rect x="252.7" y="61.5" class="st15" width="9.5" height="9.4"/>
	<rect x="262.1" y="61.5" class="st15" width="9.5" height="9.4"/>
	<rect x="300" y="61.5" class="st15" width="9.5" height="9.4"/>
	<rect x="309.4" y="61.5" class="st15" width="9.5" height="9.4"/>
	<rect x="186.5" y="70.9" class="st15" width="9.5" height="9.4"/>
	<rect x="195.9" y="70.9" class="st15" width="9.5" height="9.4"/>
	<rect x="205.4" y="70.9" class="st15" width="9.5" height="9.4"/>
	<rect x="214.8" y="70.9" class="st15" width="9.5" height="9.4"/>
	<rect x="224.3" y="70.9" class="st15" width="9.5" height="9.4"/>
	<rect x="233.8" y="70.9" class="st15" width="9.5" height="9.4"/>
	<rect x="243.2" y="70.9" class="st15" width="9.5" height="9.4"/>
	<rect x="252.7" y="70.9" class="st15" width="9.5" height="9.4"/>
	<rect x="290.5" y="70.9" class="st15" width="9.5" height="9.4"/>
	<rect x="300" y="70.9" class="st15" width="9.5" height="9.4"/>
	<rect x="195.9" y="80.3" class="st15" width="9.5" height="9.4"/>
	<rect x="205.4" y="80.3" class="st15" width="9.5" height="9.4"/>
	<rect x="214.8" y="80.3" class="st15" width="9.5" height="9.4"/>
	<rect x="224.3" y="80.3" class="st15" width="9.5" height="9.4"/>
	<rect x="233.8" y="80.3" class="st15" width="9.5" height="9.4"/>
	<rect x="243.2" y="80.3" class="st15" width="9.5" height="9.4"/>
	<rect x="290.5" y="80.3" class="st15" width="9.5" height="9.4"/>
	<rect x="205.4" y="89.7" class="st15" width="9.5" height="9.4"/>
	<rect x="214.8" y="89.7" class="st15" width="9.5" height="9.4"/>
	<rect x="224.3" y="89.7" class="st15" width="9.5" height="9.4"/>
	<rect x="233.8" y="89.7" class="st15" width="9.5" height="9.4"/>
	<rect x="177" y="108.5" class="st15" width="9.5" height="9.4"/>
	<rect x="186.5" y="108.5" class="st15" width="9.5" height="9.4"/>
	<rect x="167.5" y="117.8" class="st15" width="9.5" height="9.4"/>
	<rect x="177" y="117.8" class="st15" width="9.5" height="9.4"/>
	<rect x="186.5" y="117.8" class="st15" width="9.5" height="9.4"/>
	<rect x="167.5" y="127.2" class="st15" width="9.5" height="9.4"/>
	<rect x="177" y="127.2" class="st15" width="9.5" height="9.4"/>
	<rect x="186.5" y="127.2" class="st15" width="9.5" height="9.4"/>
	<rect x="177" y="136.6" class="st15" width="9.5" height="9.4"/>
	<rect x="186.5" y="136.6" class="st15" width="9.5" height="9.4"/>
	<rect x="195.9" y="136.6" class="st15" width="9.5" height="9.4"/>
	<rect x="195.9" y="146" class="st15" width="9.5" height="9.4"/>
	<rect x="262.1" y="146" class="st15" width="9.5" height="9.4"/>
	<rect x="271.6" y="146" class="st15" width="9.5" height="9.4"/>
	<rect x="281.1" y="146" class="st15" width="9.5" height="9.4"/>
	<rect x="290.5" y="146" class="st15" width="9.5" height="9.4"/>
	<rect x="300" y="146" class="st15" width="9.5" height="9.4"/>
	<rect x="309.4" y="146" class="st15" width="9.5" height="9.4"/>
	<rect x="318.9" y="146" class="st15" width="9.5" height="9.4"/>
	<rect x="328.4" y="146" class="st15" width="9.5" height="9.4"/>
	<rect x="252.7" y="155.4" class="st15" width="9.5" height="9.4"/>
	<rect x="262.1" y="155.4" class="st15" width="9.5" height="9.4"/>
	<rect x="271.6" y="155.4" class="st15" width="9.5" height="9.4"/>
	<rect x="309.4" y="155.4" class="st15" width="9.5" height="9.4"/>
	<rect x="318.9" y="155.4" class="st15" width="9.5" height="9.4"/>
	<rect x="328.4" y="155.4" class="st15" width="9.5" height="9.4"/>
	<rect x="337.8" y="155.4" class="st15" width="9.5" height="9.4"/>
	<rect x="252.7" y="164.8" class="st15" width="9.5" height="9.4"/>
	<rect x="262.1" y="164.8" class="st15" width="9.5" height="9.4"/>
	<rect x="328.4" y="164.8" class="st15" width="9.5" height="9.4"/>
	<rect x="337.8" y="164.8" class="st15" width="9.5" height="9.4"/>
	<rect x="262.1" y="174.2" class="st15" width="9.5" height="9.4"/>
	<rect x="337.8" y="174.2" class="st15" width="9.5" height="9.4"/>
	<rect x="233.8" y="183.5" class="st15" width="9.5" height="9.4"/>
	<rect x="243.2" y="183.5" class="st15" width="9.5" height="9.4"/>
	<rect x="252.7" y="183.5" class="st15" width="9.5" height="9.4"/>
	<rect x="271.6" y="183.5" class="st15" width="9.5" height="9.4"/>
	<rect x="233.8" y="192.9" class="st15" width="9.5" height="9.4"/>
	<rect x="243.2" y="192.9" class="st15" width="9.5" height="9.4"/>
	<rect x="252.7" y="192.9" class="st15" width="9.5" height="9.4"/>
	<rect x="271.6" y="192.9" class="st15" width="9.5" height="9.4"/>
	<rect x="281.1" y="192.9" class="st15" width="9.5" height="9.4"/>
	<rect x="290.5" y="192.9" class="st15" width="9.5" height="9.4"/>
	<rect x="233.8" y="202.3" class="st15" width="9.5" height="9.4"/>
	<rect x="243.2" y="202.3" class="st15" width="9.5" height="9.4"/>
	<rect x="252.7" y="202.3" class="st15" width="9.5" height="9.4"/>
	<rect x="262.1" y="202.3" class="st15" width="9.5" height="9.4"/>
	<rect x="271.6" y="202.3" class="st15" width="9.5" height="9.4"/>
	<rect x="281.1" y="202.3" class="st15" width="9.5" height="9.4"/>
	<rect x="290.5" y="202.3" class="st15" width="9.5" height="9.4"/>
	<rect x="300" y="202.3" class="st15" width="9.5" height="9.4"/>
	<rect x="262.1" y="211.7" class="st15" width="9.5" height="9.4"/>
	<rect x="271.6" y="211.7" class="st15" width="9.5" height="9.4"/>
	<rect x="290.5" y="211.7" class="st15" width="9.5" height="9.4"/>
</g>
<g id="Fanarts" class="st0">
	<polygon class="st4" points="500,0 250,250 500,500 	"/>
	<polygon class="st2" points="0,0 500,500 0.1,500 	"/>
	<g class="st5">
		<path class="st21" d="M168.2,458.1v-24.5h18.6v6.5h-11.2v2.4h10.9v6.5h-10.9v9.1H168.2z"/>
		<path class="st21" d="M204.4,458.1l-0.9-2.9h-8.8l-0.9,2.9h-8.4l9-24.5h9.3l9,24.5H204.4z M199.1,440.9l-2.4,7.9h4.8L199.1,440.9z
			"/>
		<path class="st21" d="M230.6,458.1l-9-12.4v12.4h-7.4v-24.5h7.6l8.5,11.6v-11.6h7.4v24.5H230.6z"/>
		<path class="st21" d="M258,458.1l-0.9-2.9h-8.8l-0.9,2.9H239l9-24.5h9.3l9,24.5H258z M252.7,440.9l-2.4,7.9h4.8L252.7,440.9z"/>
		<path class="st21" d="M281.1,458.1l-3.4-7.7h-2.7v7.7h-7.4v-24.5h13.1c5.7,0,8.8,3.8,8.8,8.4c0,4.2-2.5,6.5-4.4,7.4l4.4,8.7H281.1
			z M282,442c0-1.3-1.2-1.9-2.4-1.9h-4.5v3.9h4.5C280.9,443.9,282,443.3,282,442z"/>
		<path class="st21" d="M297.4,458.1v-18h-6.6v-6.5h20.5v6.5h-6.5v18H297.4z"/>
		<path class="st21" d="M311.8,454.6l3.9-5.5c1.8,1.8,4.6,3.2,7.9,3.2c1.4,0,2.7-0.4,2.7-1.3c0-2.3-13.6,0-13.6-9.6
			c0-4.1,3.4-8.1,10.2-8.1c4,0,7.6,1.1,10.4,3.4l-4,5.2c-2.1-1.6-4.9-2.4-7.2-2.4c-1.5,0-1.9,0.5-1.9,1.1c0,2.3,13.6,0.3,13.6,9.4
			c0,5.4-4,8.5-10.6,8.5C317.9,458.5,314.4,457,311.8,454.6z"/>
	</g>
</g>
<g id="Camada_10" class="st0">
	<g class="st5">
		<path class="st22" d="M301.5,369.9c0.4-1-0.3-2.3-1.6-3.4c-1.3-1.1-1.5-3.7-1.5-3.7c-0.3,0.6,0.2,2.8,0.8,3.7
			c0.6,0.9,1.9,2.5,1.5,2.9c-0.3,0.5-0.6,3,1.1,3.5C301,372.4,301.1,371,301.5,369.9z"/>
		<path class="st22" d="M300.8,373.5c-0.6-0.7-0.6-1.4-1-1.9c-0.5-0.6-0.1-2.5-0.1-2.5s-0.7,2.1-0.7,2.7c0,0.6,1.4,3.2,2.9,3.7
			C301.6,375.2,301.4,374.2,300.8,373.5z"/>
		<path class="st22" d="M306.6,382c-0.3,2.3,2.1,4.3,3.9,4.3C310.5,386.4,306.9,383.9,306.6,382z"/>
		<path class="st22" d="M308.2,383.6c0,0,0.6-2.5,0.1-3.4c-0.5-1-2.7-1.4-3.5-1.3C306.3,379.5,307.9,380.9,308.2,383.6z"/>
		<path class="st22" d="M303.1,377.6c-0.2-0.7,0.9-2.6-0.7-3.7c1,2.2-0.3,3.3,0.2,4.3s3,2.2,3,2.2
			C304.6,379.5,303.3,378.3,303.1,377.6z"/>
		<path class="st22" d="M330.1,365.3c0-0.2,0-1.4,1.5-2.5c-1.1,0.5-1.2,0.7-1.7,0.8C329.9,364,330,363.8,330.1,365.3z"/>
		<path class="st22" d="M330.7,360.8c-0.5,0.6-1.2,0.9-1.6,0.9c0.1,0.3,0.1,0.7,0,1.1c0,0,0.4-0.7,0.7-0.8
			C329.9,361.9,330.6,361.1,330.7,360.8z"/>
		<path class="st22" d="M331.3,359c-0.3-0.1-0.8,0.1-1.2,0.2c-0.2,0.1-0.2,0.3-0.6-0.1c-0.1,0.5-0.4,0.6-0.6,0.8
			c0.8-0.1,1.2-0.3,1.6-0.6C330.9,359.1,331.3,359,331.3,359z"/>
		<path class="st22" d="M337.9,352c0-0.9-0.7-1.6-1.6-1.6c-0.9,0-1.6,0.7-1.6,1.6c0,0.9,0.7,1.6,1.6,1.6
			C337.1,353.7,337.9,352.9,337.9,352z"/>
		<path class="st22" d="M329.2,353.2c-0.2,1.2,0.6,2,1.8,2C329.9,354.8,329.2,353.2,329.2,353.2z"/>
		<path class="st22" d="M348.9,404.4c0-0.1,0.1-0.1,0.1-0.1C349,404.3,349,404.3,348.9,404.4z"/>
		<path class="st22" d="M336,415.9c0,0.1,0,0.1,0,0.2C336,416,336,415.9,336,415.9z"/>
		<path class="st22" d="M339.5,303.3c0,0.1,0.1,0.1,0.1,0.2C339.6,303.4,339.5,303.3,339.5,303.3z"/>
		<path class="st22" d="M379.6,360.8c-1.1-1.1-1.5-3.7-0.3-6.8c-0.1-0.3-0.3-0.9-0.7-1.7c0.5-0.5,1.9-2.5-2.4-5.4
			c-0.6-0.4-1.1-0.8-1.5-1.1c-0.4-0.5-0.7-1.1-1.1-1.7c0.1-0.5,0.3-1.4,0.1-1.9c-0.3-0.6-1.7-1.6,0.5-2.3c2.2-0.7,0.4-4.6-3-6.9
			c0,0,2.9,2.3,2.6,4.2c-0.2,1.7-2.9,1.5-2.1,4.3c-0.7-1-1.5-1.9-2.2-2.9c1.4-4.8-1.2-6.6-2.1-7.4c-0.9-0.8-2.8-2.9-3.6-3.7
			c-0.8-0.7-1.1-0.3-1.4-0.9c-0.3-0.6-0.4-1,0.1-1.6c-4.2-0.3-6.2-4.6-6.8-5.3c-0.5-0.7-1.4-1.1-2-1.6c-0.6-0.5-1-1.7-1-1.7
			c-0.1,0.5-0.3,1-0.4,1.4c-0.2-0.6-0.5-1.5-0.2-2c0.4-0.8-2.2-2-3.9-3.8c0,0,2.4,2.5,1.5,5.8c-5.1-3.8-7.3-7-7.3-7
			c0,1.1,1,1.7,0.7,2.4c-0.6-0.9-1.9-1.6-2.1-1.7c-0.3-0.2-0.5-0.8-0.3-0.8c0.2-0.1,0.5,0.1,1.1,0.7c-0.6-0.7-1.9-3.4-1.8-4.5
			c0-0.5,0.1-1,0.1-1.4c0-0.6-0.3-1.2-0.5-1.8c0.1,0.3,0.2,0.7,0,1.2c-0.2,0.8-1.1,2-0.8,4.1c0.4,2.1,0.8,2.5,1.1,3
			c0.4,0.5,1.1,1.5,1,1.9c-0.1,0.3-0.5,0.2-0.8,0.1c-0.8-0.6-1.5-2.4-1.5-2.4c-0.1,2,1.2,3.3,3.4,5.7c1.1,1.3,1.9,2,2.4,2.3
			c0,0.4-0.1,0.7-0.1,1.1c-0.1,0.6-0.6,1.8-0.5,3c-1.6,0.2-1.9-1.2-1.5-2.7c-0.9-0.9-1.1-1.9-2.1-3.2c1.9,6.4-1.1,8.9-2.5,10.2
			c-1.4,1.2-0.7,3.3-0.5,3.9c0.2,0.6,0.3,1.1-0.1,1.5c0.1-0.3-0.3-1.3-0.6-1.9c-0.2-0.7,0-1.1,0-1.1s-1,1.4-0.4,2.9
			c0.6,1.5,2.7,1.8,4.2,3.1c1.6,1.3,1.1,5,0.8,6.2c0.1-0.3,0.2-2.7-0.5-3.9c-0.8-1.2-2.8-3.2-4.4-3.8c0.7,0.8,2.5,2.4,2.7,3.1
			c0.2,0.7,0.3,0.8,0.8,1.5c-1.1-0.1-2.9-1.4-3.1-1.7c-0.2,0.2-1.6,1.3-2,1.2c-0.3-0.2-0.1-1.1-0.2-2.2c0.3-0.2,0.8-0.1,0.8-0.1
			s-0.8-0.7-1.2-4.8c-0.4-4.1,3-4.9,2.7-5.7c-0.3-0.8,0.5-0.7,1-1.1c2.3-1.5,2.7-4,2.1-5.6c0.1,0.6-0.6,1.7-0.7,1
			c-0.1-0.7,0.3-1.3,0.9-1.4c0.2-0.7-0.9-2.5-1.4-2.9c-0.4-0.4-0.6-1.7-0.8-2.8c0,2.3-0.1,1.5-0.4,1.5c0,0.3,0.4,0.5,0.4,0.9
			c0,0.4-0.4,0.4-0.2,1.4c1.4,0.2,0.6,2.3,0.1,3.2c-0.5-1.5-0.2-2.9-0.2-2.9s-0.6,1.3-0.4,3.2c0.2,1.9-2.7,2-2.7,2s-0.2,3.4-1.8,3.4
			c1.5-2,2.3-6.6,2.3-6.6s-2.9-1-2.4-2.9c0.7-3.9,2.5-6,4.6-8c-0.4-2.8,1.4-4.9,1.6-5.5c0.2-0.5,0.4-2.7,0.1-6.6
			c-0.6,5.5-4.1,11.1-8.5,12.1c0.3,2.3,0.1,2.7,0,3.6c0.6,1,0.9,2.3,0.4,2.9c0.1-2.1-2.1-3.5-2.2-3.3c4.5,3.6-2.5,6.2-0.8,7.9
			c4.2,4.5,4.3,5.3,1.3,8.3c-3,3-2.1,3.5-1.8,5c0.3,1.6,1.8,1,0.7,2.8c-1.5,2.4-0.6,2-1,3.3c-0.4,1.2-1.7,1.9-1.9,2
			c0.1,0.3,0,0.6-0.2,0.8c0.2-0.1,1.2,0.1,0.7,0.7c-0.4,0.7-0.3,1,0.1,1.1c-0.6,0.9-0.1,0.9,0,1.2c0.1,0.3,0.3,1.2-0.4,2.5
			c0.4-0.3,0.6-0.3,1-0.5c0.3-0.2,1.7-0.5,2.5-1.4c0-0.4,0.1-1.3,1.2-2.2c1.1-0.9,2-3.6,1.6-2.7c-0.4,0.9-1.8,1.7-2.4,1.8
			c3.3-2.7,2.8-4.3,2.8-7.4c0.6,1.3,0.8,1.4,0.9,0.7c0.4,1.6,0,3-1,4.8c0.9-0.6,1.8-1.9,1.7-3c0.9,1.1-0.3,2.4-1.2,3.3
			c-0.9,0.9-2.1,3.4-2.1,3.4c0,0,0,0,0,0c-0.3,0.6-0.3,1.2-0.6,1.7c-0.3,0.5-2.2,2.1-5,2.9c-0.8,0.2-1.1-0.5-1.2-0.7
			c0,0,0,0-0.1,0.1c-0.2-0.5-0.7-1.9-0.4-2.5c0.4-0.6,1.1-0.7,1-2.5c-0.7,1-1.1,0.5-1.8-0.2c-0.6-0.7,0.4-1.6,1.1-2.1
			c0.7-0.5,0.9-0.7,0.9-1.3c0-0.5-0.3-1.2,0.8-1.4c1.1-0.2,0.5,1.4-0.1,1.2c0.9,0.4,1.3-0.2,1.4-0.7c0.1-0.5-0.4-3.8-1.4-4.8
			c-0.8-0.6-0.9-1,0.2-1c-1-0.8-1.1-0.6,0-1.9c1.1-1.3,3.7-4.5,2.8-7.3c0.3,1.7-1,4.9-4.1,6.2c0.7,2.4-2.4,1.3-1.1-0.3
			c-0.3,0-1.2,0.6-0.2,2.3c0.3,0.6,0.2,1.1,0.4,1.6c0.2,0.5,1.2,1.2,0.6,1.8c-0.5,0.6-1.1-0.3-2,0.5c0.9-0.1,1-0.2,1.2,0.2
			c0.3,0.4,0.7,1.3,0,1.9c-0.2-0.3-0.3-0.9,0-1.1c-1.1,0.4,0.4,2.4-0.8,3.3c-0.6,0.1-1.3-0.9-0.5-1.3c-0.7,0.3-1.8,1-1.1,3.2
			c-0.4-0.8-0.4-0.5-0.8-0.8c-0.4-0.3,0-1.3,0-1.3s-2.2-0.9-2.2-2.7c0.1-1.8,2,0,1.1,0.5c1.2-0.7,0.5-2.5,0.4-3.3
			c-0.1-0.8,0.5-1,1-2.9c0.5-1.9,1-4.3,2.6-5.1c-1.5,0.6-3.3,4.5-4,6.5c-0.7,2-1.5,0.3-0.8-1.6c0.7-1.8,0.5-2.9,0.4-3
			c0-0.1-0.2,1.8-0.9,3c-0.7,1.2-0.3,2.4-0.8,3.7c-0.5,1.4-2.6,1.8-0.6,5.4c2,3.5,1.8,3.8,1.7,4.6c-0.1,0.7-0.3,1.2,0.8,2
			c1.1,0.8,0.6,1.7,0,2.6c-1.3,1.9-1.4,0-0.6-0.2c0.5-0.7,0-0.4-1.2-1.5c-1.2-1.1-4.3-3.7-3.5-6.3c0-0.9-0.4-0.9-0.5-1.2
			c0.3,1.3,0.1,4.4-0.6,5.6c1.7-0.2,3.4,1.1,1.8,3.1c2.1,0.1,1.5,0.9,0.5,1.4c-1,0.5-2-1.9-1-2.8c-1.5,0.6-1,3.7-2.2,3.9
			c-1.1,0.1-0.5-3.1,0.1-3.9c-1.5,1.5-2.2,4-1.7,4.9c-0.5,0.5-3.4,2.5-3.8,2.5c-0.5,0-0.5-0.6,0.3-1.1c0.7-0.5,1.1-1.3,1.4-1.5
			c0.3-0.2,0.7,0.2,1,0.1c-0.3-0.4-0.9-1,0.1-1.6c1-0.6,1.2-2.3,0.8-3c0,1-0.7,2.2-1.2,2.2c-0.5,0,0.5-1.1,0.8-1.8
			c0.4-2.3,0.4-6-3.3-7.6c1.7,1.7,2.1,2.2,1.2,3.2c2,0.4,1.5,4.1,1.2,4.6c-0.3,0.5-1,1.5-1.9,2.3c0.3,0.3-1,3.3-2.8,1.7
			c0.3,0.5,0.4,1.2,0.3,1.7c-0.3,0.1-4.9,2.4-6.3,4.5c0.7-0.6,1.5-0.9,2.2-0.9c0.7,0,2.5,0.1,0.2,0.7c-2.2,0.6-1.7,1.5-3.9,2.1
			c0,0,1,0.5,1.8,1.2c0.8,0.7,2.9,3,5.6,3.5c2.7,0.4,1.6,2.5,3.3,3.6c1.7,1.1,4,0.3,4.9,2.5c-0.9-0.5-1.4-0.7-2.3-0.7
			c1.3,0.6,1.7,1,2.6,2.1c0.9,1.1,0.9,0.9,2,1.3c1.1,0.3,1,1.2,2,1c0.1,0.6-0.1,1-0.1,1s4.2,3.2,6.6,4c-1.1-0.6-1.9-1.1-2.5-1.7
			c-0.6-0.6-0.7-2.7-3.6-4.9c-2.9-2.2-4.4-3.1-5.1-3.7c-0.7-0.6-2.8-0.4-2.7-2.1c0.6,0.7,1.9,0.5,2.9,1.3c1.1,0.8,1.7,2.4,2.9,1.1
			c-0.4-0.6-0.1-1,0.4-1.3c0.3-0.2,0-1.3,0.1-1.4c0.1-0.1,1.1,2-0.2,3.2c0.7,0,1,0.5,1.3,1.1c0.3,0.6,0.9,2.2,3.2,3.1
			c2.3,0.9,2.2,1.8,2.2,1.8s0.5-1.5-1.6-2.1c2.6,0,4.1,0.8,3.4,3.2c0.5-0.3,1.6,0.9,2.5,2c-0.9-1.4-0.9-2.5-1-3.9
			c-0.1-1.4-0.9-4-3.6-3.6c0.9,0.2,1.2,0.8,0.7,1.4c-0.4,0.6-3.4-0.8-3-4.5c0,0,0.1,0,0.1,0.1c0.3,1.4,0.9,2.4,2,2.4
			c1.3,0,1.4-0.9,1.6-0.8c1.7,0.7,3.7,3.7,4.7,7.5c2-0.9,2.5,2,4.8,1.8c-1.7-1.2-0.5-1.1,0.6-1.2c1.5,0.4,1.1,2,1,4.6
			c0,2.1-3-2.8-6.8-4.2c0,0,1.3,1,0.2,2.7c1-0.7,2.2,0.2,1.2,0.8c0.6,0.4,1.3,0.2,1.5,0c0.3,1,0.8,1.4,1.2,1.7
			c0.6,0.5,2.3,0.9,2.3,1.5c-0.2-0.1-0.5-0.1-1,0.1c1.2-0.2,1,2.5,3.1,2.2c0.3,0.4,0.1,0.8,0.5,1.6c0.2-0.8,0.1-0.9,0.1-1.1
			c0-0.2-0.4-0.7,0.5-2.1c-0.6,0.6-1.4,0.5-1.7,0.8c-0.1-0.1-0.2-0.7-0.5-0.8c0.7-0.2,1.5-0.5,1.9-1.4c0.3-0.9,0.2-1.7,0.5-2.3
			c0.7-0.5,2-1.7,2.2-1.7c0-0.3-0.5-1.2,0-1.6c0.6-0.4,0.9,0.1,1.6-0.6c-0.8,0.2-2-0.2-3.1,0.9c-0.3-0.5-0.2-0.7-0.2-1
			c1.4-0.2,5.5-1.3,6.2-2.7c0,0,0,0,0,0c-0.1,0.4-0.6,1.1-2,1.9c0.9,0,1-0.3,1.4-0.4c-0.8,0.6-2.3,2-2.6,2.5
			c0.1,0.3,0.2,0.5,0.1,0.7c-0.2,0.5-1.5,1.3-2.7,3c-0.2,1.8,0.5,3.9-1,4.1c0,1.7,0.4,3.1-1.7,3.4c0.6,0.3,1,0.4,1,1.4
			c0,1-1.3,1.4-1.3,3.2c-9.1-0.1-15.8-2-21-6.3c5.2,5.2,13.1,8.5,21.3,9.2c0.2,0.6,0.5,1.3,1,2.1c1,1.5,1.8,2.8,1.3,3.8
			c-0.2-0.7-1-2.1-1.7-2.6c1.3,2.6,2.2,4.4,2.5,6.6c0.3,0,0.5,0.2,0.8,0.5c-0.2-1.3-0.5-2.2,0-2.4c0.4-0.2,0.5,2.1,0.4,2.4
			c0.5,0.2,1.3,0.7,0.2,1.2c0.8,0.7,1.4,1.6,1.3,2.7c-0.1,1.1-1.2,1.9-1.4,2.6c-0.2-1-0.8-2.6-1.2-3.2c0.2-0.1,0.9-0.1,0.9-0.1
			s-1.7-0.3-1.6-3.5c-0.9-1-1.6-1.3-1.6-1.3s0.4-1,0.2-2.7c-0.3,0.5-0.6,1.2-2.2-2.4c0.1,2.1,0.6,3.2-0.3,3.4c0.8,0.3,1,1.7,0.5,2.5
			c-0.5-0.2-1.1-0.5-1.1-0.9c-0.1,1.3,1,1.8,1.5,2.3c0.5,0.5,2.6,4.1,0.2,2.5c0.8,1.4,1.8,2.3,2.1,1.1c1,0.9,0.6,2.2,0.5,2.4
			c-0.3-0.5-0.8-0.6-0.8-1.1c-0.1,1,1,1.9,1.4,2.3c0.4,0.4,1,1.1,0.4,1.1c-0.6,0-1.3-0.7-1.4-1.3c0.4,1.9,1.4,2.3,2.1,3.2
			c0.7,1-0.1,1.4,1.3,2.4c-0.7-1.5-0.8-2.4,0.1-3.8c0.4-0.5,1.4-0.2,2.2-2.3c0.8-2.1,0.2,1,3.4-3.5c3.1-4.5,9-10.1,8.4-13.9
			c-0.6,3-2.8,4.8-2.8,4.8s-0.8,1.2-1,1.8c-0.2,0.6-1,0.9-1.1,1.7c0-0.7-0.2-1.6,0.3-2.3c-0.9,1-0.8,2.1-1.1,2.7
			c-0.3,0.6-2.3,2.7-3.4,1.8c0.8,0.7,1.5,1.5,0.6,1.5c-1.3,0-2,0.9-2,0.9l0-1.1c0,0-1.2,2.4-2.4,3.3c0.1-1,0.2-2.6-0.2-3.4
			c-0.1-0.2-0.6-0.7-0.6-0.7s0.4-1.6,0.5-2.2c0-0.3-0.6-0.8,0-1.1c0.6-0.3,1.5,0.9,1.5,0.9c-0.7-1.7-1.5-1.7-1.9-2.3
			c-0.4-0.6,0.3-0.5-1.5-2.4c-0.4-0.4,0.1-0.7-0.2-1c-0.8-1-1.7-2.2-2.1-3c0.4,0,0.8,0,1.3,0c7.7,0,14.9-2.2,21-6
			c1.2-0.8,1.4-1.7,3.8-1.9c0.4,0-0.1-1.2,0.7-1.9c0.4-0.3,1.1,0,1.5-0.3c0.5-0.5,1.1-1.9,1.8-2.6c0.3-0.3,0.8,0.1,1.2-0.4
			c0.3-0.4,0.8-2.9,1.5-2.8c0.3,0,0,1.1,0,1.1c1.1-1.2,0.1-2.5,0.8-3.2c2.6-3.1,2.8-1.8,3-2.4c0.2-0.6-0.4-1.5-0.1-2
			c1.1-1.5,3.3-3.2,4.3-5.8c0.3-0.8-0.3-2.9-0.2-3.3c0.1-0.4,1.4-1.6,1.5-2c0-0.2-1.3-0.4-1.3-0.6c0-0.3,1.3-0.5,1.4-0.8
			c0-0.3-0.8-0.4-0.8-0.7C377.3,362.2,379.1,361.4,379.6,360.8z M339.9,310.5c-0.2-1-0.7-3.1-0.2-4.1c-0.1,1.1,0.6,3,1.1,3.8
			C340.4,310.2,340,310.3,339.9,310.5z M332.8,312.9c-0.2-1,0.1-2.3,2-3.9C334.9,309.1,333,311.9,332.8,312.9z M331,329.6
			c0.2,0.3-1.4,2.4-2,2.7c-0.5-1-0.9-3.3,2.4-5.7c0,0-1,1.2-1.5,2.2C329.4,329.8,330.8,329.3,331,329.6z M331.9,313.2
			c-0.5-0.9-0.5-2.3-0.3-3.5c0.4,1.2,4.1-3.3,4.1-3.3c0.1,0.7-1.2,2.4-1.7,2.9C333.5,309.8,332.1,311.5,331.9,313.2z M312.7,351.1
			c-0.3,0.9-0.7,1.6-0.7,2.3c-0.2-0.9-0.5-1.1-1-1.6C311,351.9,312.3,351.2,312.7,351.1z M309.9,352.8c0,0-0.2,0.9,0.2,1.2
			c-0.7,0.3-1,0.5-1.4,1s-0.9,0.5-1.2,0.9C307.4,354.9,308.6,353.5,309.9,352.8z M305.7,352.7c0,0-0.8,2.5-2.5,3.1
			c-0.3-0.2-0.9-0.4-1.3-0.4C302.8,355,304.6,354.5,305.7,352.7z M308.5,361.9c-0.7-1.8-0.9-0.8-1.2-0.8c-0.3,0-0.5-1-1-0.9
			c-1.1,0.3-0.7,0.2-1.5-0.2c-0.9-0.4-1.7-0.4-4.9,0.7c2.7-1.4,5.9-2.2,6.8-1.5c1.7,1.3,2.5-1.1,2.5-1.7c0.4,4.3,3.2,7.2,3.2,7.2
			C309.4,362.2,309,361.6,308.5,361.9z M318.4,366.1c0,0.1,0,0.1,0,0.2c0-0.2,0-0.3,0-0.3s-5.8,1.4-6.3-5.1c0.9,2.9,1.7,2.5,1.7,2.5
			s0.4-1.9,0.8,0.3c0.7,0,1.1,0.3,1.3,0.5c-0.1-0.8,0-1.4,0.2-1.6c-0.5-0.4-1-1.7-1-2.1c2.2,0.8,1.4-0.6,1.8-1.3
			c0,0.1,0.1,0.3,0.7,0.6c0.5,0.3,0.3-0.7,0.7-1.5c-0.1,0.8-0.2,1.5-0.2,2.3c0,2.8,0.6,5.4,1.8,7.7
			C319.6,368.6,318.9,368.4,318.4,366.1z M356.3,340.5c0.1,0.9,0.7,1.4,0.7,1.4s2.5-0.4,3.7,3.1c0-2.9-1.7-3.2-2.3-3.7
			c-0.6-0.5-0.8-1.3-0.9-1.9c1.3,1.6,4.8,3.5,6,5.1c0.3,0.5-0.1,1.1-0.1,1.1s3.8,1.5,3,6.5c-0.3-2.5-2.1-5.3-4.4-6.3
			c2.2,2.4,2.7,5.7,2.3,5.9c-0.4,0.2-4.9-3-5.6-4.4c-0.8-1.4-1.9-2.8-1.9-2.8s0.5-1.5-1.7-3.1c-1.6-1.2-2.5-2.4-5.2-3.3
			c-0.7-0.3-0.5-0.8-1.9-1.5c-1.1-0.6-2.2-2.2-2.2-2.2s1.7,1.1,4,1.5C351.1,337.9,354.3,340.6,356.3,340.5z M352.4,342.9
			c-0.8-0.6-1.2-1.5-1.5-2.1c-0.3-0.6-1-1.3-1-1.3c1,0,1.9,1.7,2.5,2.3c0.7,0.6,1.7,1.1,2.6,2.2c-0.8,0.7,0.5,2.5,1.7,3.3
			C353.4,345.8,353.2,343.5,352.4,342.9z M354.9,348.5c0,0-0.1,0-0.1,0C354.8,348.5,354.9,348.5,354.9,348.5z M354.9,356
			c0.9,0.3,2.5,1,3.6,2.9c1.5,2.7-0.6,8.4-3,8.9c-1.5,0.3-1.7-1.2-1.7-1.8c0.5-1.1,0.8-2.3,0.9-3.5c-0.6,2.9-2.3,5.9-3.1,5.3
			c1.8-2.9,2.3-4.5,2.3-7.1c0-2.1-0.4-4.1-1-5.9c0.7,0.7,1.5,2,1.6,4.3C354.8,357.9,354.9,356.9,354.9,356z M344.4,345.3
			c-0.7-0.4-0.8-0.7-0.3-0.6c1.9,0.5-0.9-1.1-1.6-1.4c0.8-1.9-1-5.6-1-5.6c1.3,1,1.9,3.1,1.8,5.4c0.6-3.1,0.4-2.8-0.4-4
			c1.6,0.3,1.5,3.8,1.9,4.9c0.5,1.1,1.4,1.4,2.6,2.9C346.7,346.3,345.2,345.7,344.4,345.3z M347.2,352.7c-0.1,0.7-0.3,1.7-0.7,2.8
			c-0.6-1.3-1.4-2.6-2.5-3.6c-0.1-1.7-0.3-2.4-0.6-3.1C345,349.9,346.2,351.2,347.2,352.7z M348.8,356.2c0.1,0.4,0.2,0.7,0.3,1.1
			c-0.2,0.5-0.7,1.3-1.5,2.2c0-0.5-0.1-0.9-0.2-1.4C348,357.5,348.6,356.8,348.8,356.2z M347.6,360.8c0.6-0.4,1.2-0.8,1.8-1.4
			c0,0.3,0,0.7,0,1c0,0.8-0.1,1.6-0.2,2.4c0-0.1,0-0.1,0-0.1c-0.3,0.4-1,1-2.1,1.6C347.4,363.2,347.6,362,347.6,360.8z M349.3,341.3
			c2.2,1.5,1.6,4.4,2.5,5.1c0.5,0.4,0,0.6,0,1s0.2,0.8,0,2.2c-1.1-1.2-1.9-6.5-1.9-7.1C349.8,342,349.3,341.3,349.3,341.3z M342,315
			c-0.1-0.2-0.2-0.3-0.4-0.5c-0.4-0.7-0.5-1.8-0.9-2.4c1.2,0.9,3.7,4.2,4.3,5C343.8,316.1,342.8,315.5,342,315z M340.9,334.8
			c-0.7-1.1-0.5-2.5-0.5-3.2c0,1.5,1.4,2.8,1.4,2.8s-2.2-3.2,0.1-6.8c1.6-1.5,3.7-2.4,5.4-2.8c-4.4,1.5-4.4,3-4.3,4.5
			c-0.1,0-1.2,0.5-0.9,1.6c0.7-0.9,2-0.3,2-0.3s-1.9,0.2-1.8,2.9c0.1,2.7,2.4,4.7,2.9,4.4c0.5-0.2,1.4-1.4,1.7-0.4
			c0.3,0.9,1.3,2.3,1.2,3.1c0,0.8,0.1,1.8,0.1,1.8s-0.4-0.3-0.6-0.3c0.1-1.1-1.2-1.9-1.7-2.1c0.5,0.3,0.6,1.2,0,1.3
			c-0.3-0.5-0.5-0.4-0.7-0.5c0.6-0.9-2.4-2.8-3.2-4.2C341.9,336.4,341.6,335.9,340.9,334.8z M329.4,347.1c0.3-0.1,0.7-0.3,1.1-0.4
			c-0.1,0.4-0.2,1-0.2,1.8c0.2-0.9,0.4-1.5,0.5-1.9c1.3-0.4,2.7-0.6,4.1-0.6c1.3,0,2.6,0.2,3.9,0.5c0.2,0.3,0.5,0.8,0.8,1.5
			c0,0,0-0.7,0-1.3c1,0.3,2,0.8,2.8,1.3c1.1,1.9,0.6,2.4,0.3,2.6c-2.1-1.6-4.7-2.5-7.6-2.5c-2.2,0-4.3,0.6-6.2,1.6
			C328.8,348.4,329.2,347.5,329.4,347.1z M328.1,347.6c0,0,0.1,0,0.1-0.1c0.2,0.1,0.5,0.1,0.5,0.4c0,0.2-0.1,1.2-0.1,1.9
			c-0.3,0.2-0.6,0.4-0.8,0.6C327.7,349.1,328,348.1,328.1,347.6z M325,349.8C325,349.8,325,349.8,325,349.8c0.3-0.3,0.6-0.5,0.9-0.8
			c0.8,0.4,0.9,1.2,1.1,2c-0.1,0.1-0.2,0.2-0.3,0.2C326.2,351.1,324.8,350.2,325,349.8z M322.6,352.6c0.5,0.4,1.4,1.1,1.6,1.3
			c0.1,0.1,0.1,0.2,0.1,0.3c0,0.1-0.1,0.1-0.1,0.2c-0.8-0.1-1.5-1-1.8-1.4C322.4,352.9,322.5,352.8,322.6,352.6z M322,353.4
			c0,0,0.5,0.6,0.9,0.8c1,0.5,1.2,0.9-0.1,0.6C321.7,354.4,321.7,353.9,322,353.4z M321,355.8c0.2,0.1,0.3,0.2,0.5,0.4
			c0.6,0.7,1.4,0.5,1.6,0.5c-0.1,0.2-0.1,0.3-0.1,0.5c-0.6,0.2-1.5,0-2.3-0.4C320.8,356.5,320.9,356.1,321,355.8z M320.4,361.8
			C320.4,361.9,320.4,361.9,320.4,361.8c-0.1-0.4-0.1-0.9-0.1-1.4c0-0.3,0-0.6,0-0.9c0.5-0.2,1.7-0.6,2.3-0.3
			c-0.1,0.5-0.1,1-0.1,1.5c0,0,0,0.1,0,0.1C321.8,361.8,321.3,361.7,320.4,361.8z M321.7,366.8c-0.2-0.4-0.4-0.8-0.5-1.2
			c0.3-0.8,1-1.4,1.6-2c0.1,0.6,0.3,1.1,0.5,1.7C323,365.9,322.2,366.7,321.7,366.8z M323.9,370c-0.3-0.3-0.5-0.6-0.8-1
			c0.4-0.8,0.8-1.4,1.2-1.9c0.2,0.4,0.5,0.7,0.8,1.1C324.5,369.1,323.9,370,323.9,370C323.9,370,323.9,370,323.9,370z M323.1,351.9
			c0.3-0.4,0.7-0.9,1-1.3c0.1,0.3,1.1,1.4,1.5,1.7c-0.2,0.2-0.4,0.4-0.5,0.7C324.4,352.9,323.6,352.4,323.1,351.9z M327.3,372.7
			c0,0-0.1,0.1-0.1,0.1c-0.4-0.3-0.9-0.6-1.3-0.9c0,0,0,0,0,0c0-1.1,0.2-1.7,0.4-2.2c0.5,0.5,1,0.9,1.6,1.3
			C327.8,371.7,327.6,372.3,327.3,372.7z M331,374.4C331,374.4,331,374.4,331,374.4c0-0.1-0.6-1-0.4-2c0.7,0.3,1.4,0.5,2.1,0.6
			c0.2,0.7,0.4,1.3,0.6,1.9C332.6,374.8,331.8,374.7,331,374.4z M334.2,368.8c-0.6-0.8-0.4-1.6,0.2-3.4c0,0-1.2,1.9-0.8,3.2
			c-0.5,0.3-0.4,1.4-0.4,1.9c-0.1,0.1-0.1,0.2-0.3,0.3c-0.6-0.2-1.1-0.4-1.7-0.7c-0.1-0.6-0.2-1.2,0.1-2.1c-0.2-0.1-0.8-0.4-0.8-0.4
			s0.2-0.8,0.9-1c-0.4-0.9,0.6,0,0.6,0s-0.1-2.3,0.7-3.2c-1,0.9-1.5,1.6-1.5,2.6c-0.6,0.6-1.1,1.2-1.1,2.1c-0.3,0.2-0.6,0.2-1,0.5
			c-0.3-0.3-0.6-0.6-0.9-0.9c0.3-1.3,0.9-1.7,1.3-2.1c0-0.2,0-0.8-0.4-1.1c-0.1,0.3-1.2,1-2.1,1.7c-0.2-0.3-0.4-0.7-0.6-1
			c0.4-1.1,2.2-1.7,2.2-1.9c0-0.3-0.1-0.8-0.1-0.8c-0.7,0.6-1.9,0.6-2.7,1.2c-0.2-0.6-0.3-1.2-0.4-1.8c1.1-1.5,2.7-1.9,2.7-1.9
			c-1.1-0.1-2.1,0.2-2.8,0.6c0-0.1,0-0.2,0-0.3c0-0.7,0.1-1.3,0.2-2c0.8-0.2,1.7-0.3,2.3-0.4c0,0,0.1-0.2,0.2-0.4
			c0.3,0,1,0.1,1.2,0.8c0,0,1.2,0.3,3.5-0.5c0,0-2.7,0.2-3.4-1.6c0,0-0.1,0.2-0.2,0.9c-0.2-0.1-0.5-0.3-1-0.4c0-0.2,0-0.4,0-0.6
			c-0.4-0.5-1.2-0.6-1.4-1.3c0.3-0.5,0.7-1.1,1.1-1.5c0.3,0.3,0.7,0.6,1.2,0.8c-0.3-0.5-0.5-1-0.7-1.5c2-2.1,4.9-3.5,8.1-3.5
			c3.1,0,5.8,1.2,7.9,3c0.1,0.6,0.5,3.9-1.7,7c2.5-1.6,3-4.2,2.9-5.3c0.4,0.6,0.8,1.2,1.1,1.9c-0.8,2.1-2.5,4.6-5.9,5.5
			c1.7,0,3.9-1,4.5-1.5c-0.3,0.6-0.5,0.9-1,1.3c0.7-0.1,1.5-1,1.8-1.6c0.4-0.2,0.9-0.6,1.4-1c0.1,0.5,0.1,1,0.2,1.4
			c-0.9,0.9-2.3,1.9-4.2,2.4c0.7-0.6,0.6-0.8,0.6-1c0,0-1.9,1.8-4.7,2.1c3.1-0.1,5.9-0.8,8.3-2.3c-0.1,1.3-0.4,2.5-0.9,3.7
			c-0.2,0.1-0.4,0.2-0.5,0.2c-1.7,0.7-3.2,1-4.1,2.1c-0.4-0.6-0.1-1,0.1-1.1c-0.6,0-2,0-4.2-1c0,0,2.5,2.8,6.7,2.9
			c-1.2,1.3-2.6,2.2-4.2,2.9c-1.4-0.9-2.9-2.6-4.1-5.4c0,0,0.2,3.4,2.6,5.9c-0.8,0.2-1.6,0.3-2.4,0.3c-0.7,0-1.5-0.1-2.2-0.2
			C333.8,370.1,333.8,369.2,334.2,368.8z M335.5,374.9c0.1,0,0.1-0.1,0.1-0.1s-0.4-0.7-0.8-1.6c0.1,0,0.1,0,0.2,0c1.8,0,3.5-0.4,5-1
			c0.6,0.4,1.2,0.7,1.9,0.9c0,0,0,0,0,0C340.1,374.2,337.9,374.8,335.5,374.9z M341.7,371.4c1.5-0.9,2.8-2.2,3.8-3.6
			c0.7-0.1,1.5-0.2,2.3-0.5c-0.9,1.8-2.2,3.3-3.8,4.6c0-0.1,0-0.1,0.1-0.2C343.6,371.7,342.7,371.7,341.7,371.4z M364.3,372.8
			c-0.4,0.4,0.3,2-0.5,1.5c0.2,2.1-1.4,8.4-4.4,7.9c-0.1,0-0.3-0.1-0.4-0.1c0,0-0.1,0-0.1,0c0,0-0.4,6.3-11.5,11
			c-3.3,1.3-6.9,2.2-10.7,2.4c0.3-0.5,0.5-0.9,2.2-1.2c-0.2-1.7,1.2-4.2,2.4-1.5c0-1.4-0.2-1.4-0.2-2.3c0.1-0.9,0.9-0.8,0.9-2.8
			c-0.3,1.1-0.4,1.6-2.2,2.3c-0.9,0.3-0.5-1.6-0.2-2.3c0.3-0.7,1.4-2.6,2.7-1c0.9-0.7,0.8-2.6,2.2-2.1c-0.2-1-0.5-1.9-0.2-2.3
			c0.3-0.3,0.9-0.6,1.1-1.2c0.2-0.7-0.7-1.4,0.1-2.5c0.8-1.1,1.2,0.2,3.8-2.9c-1.1,0.7-0.9,0.7-1.9,0.7c-1-0.1-0.9,1.1-1.8,1.7
			c-0.9,0.6-1.1,0.9-1,1.3c0.1,0.4-0.6-0.2-0.8-0.3c-0.1-0.1,0.2,1-0.3,1.5c-0.6,0.5-1,0.7-0.8,2.1c0.1,1.3-0.8,2.3-1.2,2.3
			c-0.4,0-1.4-0.7-1.2-2c0.2-1.3,0.9-1.2,1-1.7c0.1-0.5-1.2-0.5,2.3-2.5c2.1-3.5,4-2.8,4.2-4.1c-1,0.3-2,0.7-2.5,0.5
			c-0.5-0.2,0.8-0.2,1.1-0.7c0.3-0.5,1.5,0.7,3.1-0.9c0.4-0.4,3.2-0.8,3.5-4c0.1,0.4,0.2,2.3-2.8,4.5c-3.9,2.6,0.3,0.8,1-0.1
			c-0.1,0.6-0.1,0.9,0,1.2c-0.6,0.6-2.7,2.6-5.3,3.5c1.8,0.3,4.6-0.5,5.3-1.6c-1.3,0.6-2.7,0.7,0-0.9c2-1.2,2.4,0.6-1,2.2
			c2.9-0.5,4.5-2.5,5.2-3.1c0.7-0.6,1.9-2.5,2.9-2.2c-0.7,1.1-1.8,2.1-2.6,2.5c2.3-0.1,2.8-2.2,4.4-3.3c1.6-1.1,3.8-2.3,4.6-1.8
			c0.3,0.3-3.7,3-4.4,3c0.6,0.1,2.8-0.8,3.7-1.8c0.3,0.3,0.6,0,0.9-0.2C365.5,371.2,364.7,372.4,364.3,372.8z M366.6,363.2
			c-0.6,1.2-1.6,2.2-2.5,3.8c0.1-0.8-0.2-1.2-0.2-1.2c-0.7,0.5-3.7,5.3-4.9,6.4c-0.5-0.1-0.9,0-0.9,0s2.2-2,2.7-5.9
			c-1.8,4.3-4.2,6.6-6.9,7.6c1-1,1.3-2,1.3-2.8c-0.3,0,0,0.1-0.7,0.3c0-1-0.5-2,3.2-3.8c-0.4-0.3,0-1,1.2-1.5c1.2-0.5,2-4.4,1.2-6.5
			c-0.8-2.1-3.2-3.5-4.2-4.9c0,0,0,0,0,0c0.1-1.4,0.2-3.8-1.3-6.2c1.8,0.3,2,2.1,5.7,3.9c0.7,1.1,0.9,2.4,0.9,2.4s2.5-3.4,6.3,5.4
			C366.2,361.8,367,362.6,366.6,363.2z M368.9,334.5c-0.2,0.9-1,1.5-1.4,1.2c-0.4-0.3-0.5-1.5-0.5-2.8c0-1.3-0.2-1.3-0.2-1.3
			C367.7,331.5,369.1,333.6,368.9,334.5z M375.4,346.8c0.6,0.5,1.2,1,1.6,1.4c0.7,0.9,2,2.1,1.3,3.4
			C377.6,350.3,376.6,348.6,375.4,346.8z"/>
		<path class="st22" d="M311.3,347.4c0,0,0.1-0.1,0.1-0.1C311.4,347.3,311.3,347.3,311.3,347.4z"/>
		<path class="st22" d="M312.6,340.1c0,0,0-0.1,0-0.1C312.6,340.1,312.6,340.1,312.6,340.1z"/>
		<path class="st22" d="M322.7,323c1.9,1.9,3-0.3,3.3-0.8c0.2-0.5,0.5-0.4,0.5-1.2c-0.4,0.6-0.7,0.9-1.2,0.9
			C324.8,323.9,322.7,323,322.7,323z"/>
		<path class="st22" d="M319.3,323.1C319.2,323.1,319.2,323.1,319.3,323.1C319.2,323.1,319.2,323.1,319.3,323.1z"/>
		<path class="st22" d="M320.8,322.2c0.4-0.2,1.1-0.7,1.5-0.7s1.4,0.8,1.4,0.8c-0.7-1.9-2.9-1.2-3.3-0.7c-0.4,0.5-0.8,0.9-1.2,1.5
			C319.5,322.8,320.4,322.4,320.8,322.2z"/>
		<path class="st22" d="M318.5,326.2c1.5-0.7,1.8-3.1,1.8-3.1c-0.6,0.6-1.4,1.1-1.9,1.8s-1.1,0.9-2.4,1
			C317,326.2,317.6,326.7,318.5,326.2z"/>
		<path class="st22" d="M314.1,325.6c0.3-1.1,1.5-0.8,3.1-0.5c0,0-1.2-1.2-2.3-0.9c-1.1,0.2-2.4,1.5-2.9,3.3
			C312.8,327.3,313.7,326.8,314.1,325.6z"/>
		<path class="st22" d="M310,330.9c0.6,0.3,1.5,0.3,2.6-0.4c1.2-0.7,0.7-3,0.7-3C313.2,329.4,311.5,330.1,310,330.9z"/>
		<path class="st22" d="M310.1,330.1c-0.7,0.2-1.6-0.3-2.1,0.1c-0.5,0.4-1.4,0.8-1.6,1.2c-0.2,0.4-0.1,1.3-0.3,2.3
			C307.1,331.2,310.1,330.1,310.1,330.1z"/>
		<path class="st22" d="M306.6,336.7c0.9-1.6,0.9-1.3,1-1.1c0.1-0.2,0-0.5-0.2-0.9c-0.2-0.4-0.1-1,0-1.5c0.1-0.5-0.1-0.8-0.1-0.8
			c-0.2,2.9-1.7,4.5-3.1,5.1C304.9,337.6,306.1,337.1,306.6,336.7z"/>
		<path class="st22" d="M304.2,336.6c-0.6,0.2-1.3,0.6-2.6,1.5c-1.3,0.9-1.1,1.8-1.2,2.2c-0.2,0.5-0.6,1,0.4,3.2
			C300.2,339.4,304.2,336.6,304.2,336.6z"/>
		<path class="st22" d="M299.9,348.1c3-1.7,3.3-5.1,1.5-6.1C301.4,342,303.1,345.3,299.9,348.1z"/>
		<path class="st22" d="M297.9,354c-0.2-0.4-0.6-2.9-0.5-3.4c0.1-0.5,0.4-1.4,0.7-1.9c0.2-0.5,0.6-1.2,1.4-1.7c0.8-0.6,1-1.8,1-1.8
			c-0.2,0.6-0.6,0.9-0.8,1.2c-0.2,0.3-1,1-2.4,2.1c-1.4,1.1-0.4,2.1-0.1,2.7C297.4,351.8,297.3,353.3,297.9,354z"/>
		<path class="st22" d="M298.5,350.5c0.5,3.8-0.6,5.3-1.6,6.4C300.3,356.2,298.5,350.5,298.5,350.5z"/>
	</g>
	<path class="st23" d="M262.6,395.4c10.7,0,16.7-10,16.7-17.2c0-1.8-0.3-3.7-0.8-5.6c-2.1,3.5-4.5,4.6-4.5,4.6c0-0.5-0.5-1-0.5-1
		c2-2.2,3.4-4.8,4.2-6.4c-0.6-1.9-1.3-4-2-6.2c-0.8,1.6-2,3.9-2.6,4.8c-0.8,1.4-2.3,3.4-2.3,3.4s-0.4-0.4-1.2-1.2
		c0,0,2.8-4.4,5.1-9.8c-0.9-3.1-1.7-6.5-2.2-10.2c0-0.2-0.1-0.5-0.1-0.7c-0.7,3.2-2.4,9.6-6.4,18.9l-1.8-0.3c0,0,8.2-19.8,5.4-29.7
		c-2.1-6.4-4.6-10.8-4.6-10.8c0,28.8-6.3,45.3-6.3,45.3s5.3,0.6,5.3,8.4c0,7.8-7.2,9.7-7.2,9.7c-1.7-2.6-2.4-7.8-2.4-11
		c0-3.2,0-49.9,0-59.7c0-9.8-4.4-13-4.4-13s-4.4,3.2-4.4,13c0,9.8,0,56.6,0,59.7c0,3.2-0.8,8.4-2.4,11c0,0-7.2-1.8-7.2-9.7
		c0-7.8,5.3-8.4,5.3-8.4s-6.3-16.4-6.3-45.3c0,0-2.5,4.4-4.6,10.8c-2.8,9.8,5.4,29.7,5.4,29.7l-1.8,0.3c-4-9.3-5.7-15.7-6.4-18.9
		c0,0.2-0.1,0.5-0.1,0.7c-0.5,3.8-1.3,7.1-2.2,10.2c2.3,5.4,5.1,9.8,5.1,9.8c-0.8,0.8-1.2,1.2-1.2,1.2s-1.5-2-2.3-3.4
		c-0.5-0.9-1.7-3.3-2.6-4.8c-0.7,2.2-1.4,4.2-2,6.2c0.7,1.5,2.1,4.1,4.2,6.4c0,0-0.5,0.5-0.5,1c0,0-2.3-1.1-4.5-4.6
		c-0.5,2-0.8,3.8-0.8,5.6c0,7.2,5.9,17.2,16.7,17.2c2.3,0,2.3,4.2-4.4,4.2c-5.3,0-6.7,3.2-1.9,3.9c7.8,0,11.3-4.6,12.3-6.9
		c-2.8-3.5-10-6.8-10-13.1c0-3,1-4.7,2-6.1c0,0-3.6,7.4,3.6,13.5c5.4,4.6,7.8,6.3,7.8,10.6c0,4.2,0,14,0,14l-2,2
		c0,0,2.2,4.9,5.2,4.9c3,0,5.2-4.9,5.2-4.9l-2-2c0,0,0-9.8,0-14c0-4.2,2.5-5.9,7.8-10.6c7.1-6.1,3.6-13.5,3.6-13.5
		c1,1.4,2,3.1,2,6.1c0,6.3-7.2,9.5-10,13.1c0.9,2.2,4.5,6.9,12.3,6.9c4.8-0.8,3.3-3.9-1.9-3.9C260.3,399.6,260.3,395.4,262.6,395.4z
		 M250,420c-1.8,0-1.8-1.8-1.8-1.8s1.5-1.6,1.8-2.2c0.4,0.6,1.8,2.2,1.8,2.2S251.8,420,250,420z M250,399.3c0-3.3-3.7-6.2-3.7-6.2
		s2.9-5,2.9-12.4c0-5.4,0-55.4,0-58.4c0-1.4,0.4-2.5,0.8-3.2c0.4,0.8,0.8,1.8,0.8,3.2c0,3,0,53,0,58.4c0,7.4,2.9,12.4,2.9,12.4
		S250,396,250,399.3z"/>
</g>
<g id="Arte_Vetorial">
	<polygon class="st6" points="250,250 0,0 500,0 	"/>
	<polygon class="st24" points="250,250 0,0 0,500 	"/>
	<g>
		<path class="st21" d="M127.5,459.3l-0.9-2.9h-8.8l-0.9,2.9h-8.4l9-24.5h9.3l9,24.5H127.5z M122.2,442.1l-2.4,7.9h4.8L122.2,442.1z
			"/>
		<path class="st21" d="M150.7,459.3l-3.4-7.7h-2.7v7.7h-7.4v-24.5h13.1c5.7,0,8.8,3.8,8.8,8.4c0,4.2-2.5,6.5-4.4,7.4l4.4,8.7H150.7
			z M151.6,443.2c0-1.3-1.2-1.9-2.4-1.9h-4.5v3.9h4.5C150.4,445.1,151.6,444.5,151.6,443.2z"/>
		<path class="st21" d="M167,459.3v-18h-6.6v-6.5h20.5v6.5h-6.5v18H167z"/>
		<path class="st21" d="M183.6,459.3v-24.5h18.6v6.5H191v2.4h10.9v6.5H191v2.7h11.2v6.5H183.6z"/>
		<path class="st21" d="M221.2,459.3l-9-24.5h8.4l5.3,16.5l5.3-16.5h8.4l-9,24.5H221.2z"/>
		<path class="st21" d="M240.8,459.3v-24.5h18.6v6.5h-11.2v2.4h10.9v6.5h-10.9v2.7h11.2v6.5H240.8z"/>
		<path class="st21" d="M268,459.3v-18h-6.6v-6.5h20.5v6.5h-6.5v18H268z"/>
		<path class="st21" d="M282.5,447.1c0-7.5,5.8-12.7,13.4-12.7s13.4,5.1,13.4,12.7s-5.8,12.7-13.4,12.7S282.5,454.6,282.5,447.1z
			 M301.7,447.1c0-3.4-2.3-6.1-5.9-6.1c-3.6,0-5.9,2.7-5.9,6.1s2.3,6.1,5.9,6.1C299.4,453.2,301.7,450.5,301.7,447.1z"/>
		<path class="st21" d="M325.4,459.3l-3.4-7.7h-2.7v7.7h-7.4v-24.5H325c5.7,0,8.8,3.8,8.8,8.4c0,4.2-2.5,6.5-4.4,7.4l4.4,8.7H325.4z
			 M326.2,443.2c0-1.3-1.2-1.9-2.4-1.9h-4.5v3.9h4.5C325.1,445.1,326.2,444.5,326.2,443.2z"/>
		<path class="st21" d="M336.8,459.3v-24.5h7.4v24.5H336.8z"/>
		<path class="st21" d="M364.5,459.3l-0.9-2.9h-8.8l-0.9,2.9h-8.4l9-24.5h9.3l9,24.5H364.5z M359.2,442.1l-2.4,7.9h4.8L359.2,442.1z
			"/>
		<path class="st21" d="M374.2,459.3v-24.5h7.4v18h9.3v6.5H374.2z"/>
	</g>
</g>
<g id="Capas_de_Livros" class="st0">
	<polygon class="st2" points="250,250 500,500 0,500 	"/>
	<polygon class="st3" points="250,250 500,500 500,0 	"/>
	<g class="st5">
		<path class="st6" d="M89.9,446.4c0-7.6,5.8-12.7,13.5-12.7c6.4,0,9.6,3.7,11.1,7.1l-6.4,3c-0.6-1.9-2.5-3.6-4.7-3.6
			c-3.6,0-5.9,2.7-5.9,6.1s2.4,6.1,5.9,6.1c2.2,0,4.1-1.7,4.7-3.6l6.4,2.9c-1.4,3.3-4.7,7.2-11.1,7.2
			C95.7,459.1,89.9,454,89.9,446.4z"/>
		<path class="st6" d="M132.7,458.7l-0.9-2.9H123l-0.9,2.9h-8.4l9-24.5h9.3l9,24.5H132.7z M127.4,441.5l-2.4,7.9h4.8L127.4,441.5z"
			/>
		<path class="st6" d="M142.4,458.7v-24.5h13.1c5.7,0,8.8,3.8,8.8,8.4c0,4.5-3.1,8.4-8.8,8.4h-5.6v7.7H142.4z M156.8,442.6
			c0-1.3-1-1.9-2.2-1.9h-4.7v3.9h4.7C155.8,444.5,156.8,443.9,156.8,442.6z"/>
		<path class="st6" d="M180.5,458.7l-0.9-2.9h-8.8l-0.9,2.9h-8.4l9-24.5h9.3l9,24.5H180.5z M175.2,441.5l-2.4,7.9h4.8L175.2,441.5z"
			/>
		<path class="st6" d="M188.3,455.2l3.9-5.5c1.8,1.8,4.6,3.2,7.9,3.2c1.4,0,2.7-0.4,2.7-1.3c0-2.3-13.6,0-13.6-9.6
			c0-4.1,3.4-8.1,10.2-8.1c4,0,7.6,1.1,10.4,3.4l-4,5.2c-2.1-1.6-4.9-2.4-7.2-2.4c-1.5,0-1.9,0.5-1.9,1.1c0,2.3,13.6,0.3,13.6,9.4
			c0,5.4-4,8.5-10.6,8.5C194.5,459.1,190.9,457.6,188.3,455.2z"/>
		<path class="st6" d="M222.1,458.7v-24.5H233c7.7,0,13.4,4.4,13.4,12.2c0,7.8-5.7,12.3-13.4,12.3H222.1z M238.9,446.4
			c0-3.3-1.9-5.8-5.9-5.8h-3.6v11.6h3.5C236.7,452.2,238.9,449.5,238.9,446.4z"/>
		<path class="st6" d="M249.1,458.7v-24.5h18.6v6.5h-11.2v2.4h10.9v6.5h-10.9v2.7h11.2v6.5H249.1z"/>
		<path class="st6" d="M280.3,458.7v-24.5h7.4v18h9.3v6.5H280.3z"/>
		<path class="st6" d="M299.9,458.7v-24.5h7.4v24.5H299.9z"/>
		<path class="st6" d="M317.7,458.7l-9-24.5h8.4l5.3,16.5l5.3-16.5h8.4l-9,24.5H317.7z"/>
		<path class="st6" d="M350.8,458.7l-3.4-7.7h-2.7v7.7h-7.4v-24.5h13.1c5.7,0,8.8,3.8,8.8,8.4c0,4.2-2.5,6.5-4.4,7.4l4.4,8.7H350.8z
			 M351.7,442.6c0-1.3-1.2-1.9-2.4-1.9h-4.5v3.9h4.5C350.5,444.5,351.7,443.9,351.7,442.6z"/>
		<path class="st6" d="M360.9,446.4c0-7.5,5.8-12.7,13.4-12.7c7.6,0,13.4,5.1,13.4,12.7s-5.8,12.7-13.4,12.7
			C366.7,459.1,360.9,454,360.9,446.4z M380.2,446.4c0-3.4-2.3-6.1-5.9-6.1c-3.6,0-5.9,2.7-5.9,6.1s2.3,6.1,5.9,6.1
			C377.9,452.6,380.2,449.9,380.2,446.4z"/>
		<path class="st6" d="M388.5,455.2l3.9-5.5c1.8,1.8,4.6,3.2,7.9,3.2c1.4,0,2.7-0.4,2.7-1.3c0-2.3-13.6,0-13.6-9.6
			c0-4.1,3.4-8.1,10.2-8.1c4,0,7.6,1.1,10.4,3.4l-4,5.2c-2.1-1.6-4.9-2.4-7.2-2.4c-1.5,0-1.9,0.5-1.9,1.1c0,2.3,13.6,0.3,13.6,9.4
			c0,5.4-4,8.5-10.6,8.5C394.6,459.1,391.1,457.6,388.5,455.2z"/>
	</g>
</g>
<g id="Camada_3">
	<path class="st25" d="M0,0v500h500V0H0z M479.5,479.5h-459v-459h459V479.5z"/>
</g>
</svg>
