<?xml version="1.0" encoding="utf-8"?>
<!-- Generator: Adobe Illustrator 22.0.1, SVG Export Plug-In . SVG Version: 6.00 Build 0)  -->
<svg version="1.1" id="Camada_1" xmlns="http://www.w3.org/2000/svg" xmlns:xlink="http://www.w3.org/1999/xlink" x="0px" y="0px"
	 viewBox="0 0 500 500" style="enable-background:new 0 0 500 500;" xml:space="preserve">
<style type="text/css">
	.st0{fill:#D60D47;}
	.st1{fill:#56B7E0;}
	.st2{fill:#FFCC00;}
	.st3{opacity:0.5;fill:#FFFFFF;enable-background:new    ;}
</style>
<g id="Capas_de_Livros">
	<polygon class="st0" points="250,250 500,500 0,500 	"/>
	<polygon class="st1" points="250,250 500,500 500,0 	"/>
	<g>
		<path class="st2" d="M89.9,446.4c0-7.6,5.8-12.7,13.5-12.7c6.4,0,9.6,3.7,11.1,7.1l-6.4,3c-0.6-1.9-2.5-3.6-4.7-3.6
			c-3.6,0-5.9,2.7-5.9,6.1s2.4,6.1,5.9,6.1c2.2,0,4.1-1.7,4.7-3.6l6.4,2.9c-1.4,3.3-4.7,7.2-11.1,7.2
			C95.7,459.1,89.9,454,89.9,446.4z"/>
		<path class="st2" d="M132.7,458.7l-0.9-2.9H123l-0.9,2.9h-8.4l9-24.5h9.3l9,24.5H132.7z M127.4,441.5l-2.4,7.9h4.8L127.4,441.5z"
			/>
		<path class="st2" d="M142.4,458.7v-24.5h13.1c5.7,0,8.8,3.8,8.8,8.4c0,4.5-3.1,8.4-8.8,8.4h-5.6v7.7H142.4z M156.8,442.6
			c0-1.3-1-1.9-2.2-1.9h-4.7v3.9h4.7C155.8,444.5,156.8,443.9,156.8,442.6z"/>
		<path class="st2" d="M180.5,458.7l-0.9-2.9h-8.8l-0.9,2.9h-8.4l9-24.5h9.3l9,24.5H180.5z M175.2,441.5l-2.4,7.9h4.8L175.2,441.5z"
			/>
		<path class="st2" d="M188.3,455.2l3.9-5.5c1.8,1.8,4.6,3.2,7.9,3.2c1.4,0,2.7-0.4,2.7-1.3c0-2.3-13.6,0-13.6-9.6
			c0-4.1,3.4-8.1,10.2-8.1c4,0,7.6,1.1,10.4,3.4l-4,5.2c-2.1-1.6-4.9-2.4-7.2-2.4c-1.5,0-1.9,0.5-1.9,1.1c0,2.3,13.6,0.3,13.6,9.4
			c0,5.4-4,8.5-10.6,8.5C194.5,459.1,190.9,457.6,188.3,455.2z"/>
		<path class="st2" d="M222.1,458.7v-24.5H233c7.7,0,13.4,4.4,13.4,12.2c0,7.8-5.7,12.3-13.4,12.3H222.1z M238.9,446.4
			c0-3.3-1.9-5.8-5.9-5.8h-3.6v11.6h3.5C236.7,452.2,238.9,449.5,238.9,446.4z"/>
		<path class="st2" d="M249.1,458.7v-24.5h18.6v6.5h-11.2v2.4h10.9v6.5h-10.9v2.7h11.2v6.5h-18.6V458.7z"/>
		<path class="st2" d="M280.3,458.7v-24.5h7.4v18h9.3v6.5H280.3z"/>
		<path class="st2" d="M299.9,458.7v-24.5h7.4v24.5H299.9z"/>
		<path class="st2" d="M317.7,458.7l-9-24.5h8.4l5.3,16.5l5.3-16.5h8.4l-9,24.5H317.7z"/>
		<path class="st2" d="M350.8,458.7l-3.4-7.7h-2.7v7.7h-7.4v-24.5h13.1c5.7,0,8.8,3.8,8.8,8.4c0,4.2-2.5,6.5-4.4,7.4l4.4,8.7H350.8z
			 M351.7,442.6c0-1.3-1.2-1.9-2.4-1.9h-4.5v3.9h4.5C350.5,444.5,351.7,443.9,351.7,442.6z"/>
		<path class="st2" d="M360.9,446.4c0-7.5,5.8-12.7,13.4-12.7s13.4,5.1,13.4,12.7s-5.8,12.7-13.4,12.7
			C366.7,459.1,360.9,454,360.9,446.4z M380.2,446.4c0-3.4-2.3-6.1-5.9-6.1s-5.9,2.7-5.9,6.1s2.3,6.1,5.9,6.1
			C377.9,452.6,380.2,449.9,380.2,446.4z"/>
		<path class="st2" d="M388.5,455.2l3.9-5.5c1.8,1.8,4.6,3.2,7.9,3.2c1.4,0,2.7-0.4,2.7-1.3c0-2.3-13.6,0-13.6-9.6
			c0-4.1,3.4-8.1,10.2-8.1c4,0,7.6,1.1,10.4,3.4l-4,5.2c-2.1-1.6-4.9-2.4-7.2-2.4c-1.5,0-1.9,0.5-1.9,1.1c0,2.3,13.6,0.3,13.6,9.4
			c0,5.4-4,8.5-10.6,8.5C394.6,459.1,391.1,457.6,388.5,455.2z"/>
	</g>
</g>
<g id="Camada_3">
	<path class="st3" d="M0,0v500h500V0H0z M479.5,479.5h-459v-459h459V479.5z"/>
</g>
</svg>
