<?xml version="1.0" encoding="utf-8"?>
<!-- Generator: Adobe Illustrator 22.0.1, SVG Export Plug-In . SVG Version: 6.00 Build 0)  -->
<svg version="1.1" id="Camada_1" xmlns="http://www.w3.org/2000/svg" xmlns:xlink="http://www.w3.org/1999/xlink" x="0px" y="0px"
	 viewBox="0 0 500 500" style="enable-background:new 0 0 500 500;" xml:space="preserve">
<style type="text/css">
	.st0{fill:#FFCC00;}
	.st1{fill:#D60D47;}
	.st2{fill:#56B7E0;}
	.st3{opacity:0.5;fill:#FFFFFF;enable-background:new    ;}
</style>
<g id="Fanarts">
	<polygon class="st0" points="500,0 250,250 500,500 	"/>
	<polygon class="st1" points="0,0 500,500 0.1,500 	"/>
	<g>
		<path class="st2" d="M168.2,458.1v-24.5h18.6v6.5h-11.2v2.4h10.9v6.5h-10.9v9.1H168.2z"/>
		<path class="st2" d="M204.4,458.1l-0.9-2.9h-8.8l-0.9,2.9h-8.4l9-24.5h9.3l9,24.5H204.4z M199.1,440.9l-2.4,7.9h4.8L199.1,440.9z"
			/>
		<path class="st2" d="M230.6,458.1l-9-12.4v12.4h-7.4v-24.5h7.6l8.5,11.6v-11.6h7.4v24.5H230.6z"/>
		<path class="st2" d="M258,458.1l-0.9-2.9h-8.8l-0.9,2.9H239l9-24.5h9.3l9,24.5H258z M252.7,440.9l-2.4,7.9h4.8L252.7,440.9z"/>
		<path class="st2" d="M281.1,458.1l-3.4-7.7H275v7.7h-7.4v-24.5h13.1c5.7,0,8.8,3.8,8.8,8.4c0,4.2-2.5,6.5-4.4,7.4l4.4,8.7H281.1z
			 M282,442c0-1.3-1.2-1.9-2.4-1.9h-4.5v3.9h4.5C280.9,443.9,282,443.3,282,442z"/>
		<path class="st2" d="M297.4,458.1v-18h-6.6v-6.5h20.5v6.5h-6.5v18H297.4z"/>
		<path class="st2" d="M311.8,454.6l3.9-5.5c1.8,1.8,4.6,3.2,7.9,3.2c1.4,0,2.7-0.4,2.7-1.3c0-2.3-13.6,0-13.6-9.6
			c0-4.1,3.4-8.1,10.2-8.1c4,0,7.6,1.1,10.4,3.4l-4,5.2c-2.1-1.6-4.9-2.4-7.2-2.4c-1.5,0-1.9,0.5-1.9,1.1c0,2.3,13.6,0.3,13.6,9.4
			c0,5.4-4,8.5-10.6,8.5C317.9,458.5,314.4,457,311.8,454.6z"/>
	</g>
</g>
<g id="Camada_3">
	<path class="st3" d="M0,0v500h500V0H0z M479.5,479.5h-459v-459h459V479.5z"/>
</g>
</svg>
