<?xml version="1.0" encoding="utf-8"?>
<!-- Generator: Adobe Illustrator 22.0.1, SVG Export Plug-In . SVG Version: 6.00 Build 0)  -->
<svg version="1.1" xmlns="http://www.w3.org/2000/svg" xmlns:xlink="http://www.w3.org/1999/xlink" x="0px" y="0px"
	 viewBox="0 0 500 500" style="enable-background:new 0 0 500 500;" xml:space="preserve">
<style type="text/css">
	.st0{display:none;}
	.st1{display:inline;fill:#1D1D1B;}
	.st2{display:inline;fill:#D60D47;}
	.st3{display:inline;fill:#56B7E0;}
	.st4{display:inline;fill:#FFCC00;}
	.st5{display:inline;}
	.st6{fill:#FFCC00;}
	.st7{fill:#358334;}
	.st8{fill:#E84A3C;}
	.st9{fill:#A62D25;}
	.st10{fill:#8A99A2;}
	.st11{fill:#449D4C;}
	.st12{fill:#A8B6BE;}
	.st13{fill:#D8DDDE;}
	.st14{fill:#EF8260;}
	.st15{fill:#6EB552;}
	.st16{fill:#F8C297;}
	.st17{fill:#F1E52B;}
	.st18{fill:#B3A833;}
	.st19{fill:#B76848;}
	.st20{fill:#EDECEC;}
	.st21{fill:#D60D47;}
	.st22{fill:#56B7E0;}
	.st23{fill:#D1D1D1;}
	.st24{opacity:0.5;fill:#FFFFFF;}
</style>
<g id="Camada_1" class="st0">
	<rect class="st1" width="500" height="500"/>
</g>
<g id="Editorial" class="st0">
	<polygon class="st2" points="500,500 0,0 500,0 	"/>
	<polygon class="st3" points="250,250 500,500 0,500 	"/>
</g>
<g id="Marcas" class="st0">
	<polygon class="st4" points="0,500 500,0 0,0 	"/>
	<polygon class="st3" points="250,250 500,0 500,500 	"/>
</g>
<g id="Arte_de_Personagens" class="st0">
	<polygon class="st3" points="0,0 500,500 0,500 	"/>
	<polygon class="st4" points="250,250 500,0 0,0 	"/>
	<g class="st5">
		<path class="st6" d="M58.5,458.7l-0.9-2.9h-8.8l-0.9,2.9h-8.4l9-24.5h9.3l9,24.5H58.5z M53.2,441.5l-2.4,7.9h4.8L53.2,441.5z"/>
		<path class="st6" d="M81.7,458.7l-3.4-7.7h-2.7v7.7h-7.4v-24.5h13.1c5.7,0,8.8,3.8,8.8,8.4c0,4.2-2.5,6.5-4.4,7.4l4.4,8.7H81.7z
			 M82.6,442.6c0-1.3-1.2-1.9-2.4-1.9h-4.5v3.9h4.5C81.4,444.5,82.6,443.9,82.6,442.6z"/>
		<path class="st6" d="M98,458.7v-18h-6.6v-6.5h20.5v6.5h-6.5v18H98z"/>
		<path class="st6" d="M114.6,458.7v-24.5h18.6v6.5H122v2.4h10.9v6.5H122v2.7h11.2v6.5H114.6z"/>
		<path class="st6" d="M145.8,458.7v-24.5h10.9c7.7,0,13.4,4.4,13.4,12.2c0,7.8-5.7,12.3-13.4,12.3H145.8z M162.6,446.4
			c0-3.3-1.9-5.8-5.9-5.8h-3.6v11.6h3.5C160.4,452.2,162.6,449.5,162.6,446.4z"/>
		<path class="st6" d="M172.8,458.7v-24.5h18.6v6.5h-11.2v2.4h10.9v6.5h-10.9v2.7h11.2v6.5H172.8z"/>
		<path class="st6" d="M204,458.7v-24.5h13.1c5.7,0,8.8,3.8,8.8,8.4c0,4.5-3.1,8.4-8.8,8.4h-5.6v7.7H204z M218.4,442.6
			c0-1.3-1-1.9-2.2-1.9h-4.7v3.9h4.7C217.4,444.5,218.4,443.9,218.4,442.6z"/>
		<path class="st6" d="M228.3,458.7v-24.5h18.6v6.5h-11.2v2.4h10.9v6.5h-10.9v2.7h11.2v6.5H228.3z"/>
		<path class="st6" d="M263.6,458.7l-3.4-7.7h-2.7v7.7h-7.4v-24.5h13.1c5.7,0,8.8,3.8,8.8,8.4c0,4.2-2.5,6.5-4.4,7.4l4.4,8.7H263.6z
			 M264.5,442.6c0-1.3-1.2-1.9-2.4-1.9h-4.5v3.9h4.5C263.3,444.5,264.5,443.9,264.5,442.6z"/>
		<path class="st6" d="M273.2,455.2l3.9-5.5c1.8,1.8,4.6,3.2,7.9,3.2c1.4,0,2.7-0.4,2.7-1.3c0-2.3-13.6,0-13.6-9.6
			c0-4.1,3.4-8.1,10.2-8.1c4,0,7.6,1.1,10.4,3.4l-4,5.2c-2.1-1.6-4.9-2.4-7.2-2.4c-1.5,0-1.9,0.5-1.9,1.1c0,2.3,13.6,0.3,13.6,9.4
			c0,5.4-4,8.5-10.6,8.5C279.3,459.1,275.8,457.6,273.2,455.2z"/>
		<path class="st6" d="M296.2,446.4c0-7.5,5.8-12.7,13.4-12.7c7.6,0,13.4,5.1,13.4,12.7s-5.8,12.7-13.4,12.7
			C302,459.1,296.2,454,296.2,446.4z M315.5,446.4c0-3.4-2.3-6.1-5.9-6.1c-3.6,0-5.9,2.7-5.9,6.1s2.3,6.1,5.9,6.1
			C313.2,452.6,315.5,449.9,315.5,446.4z"/>
		<path class="st6" d="M342.1,458.7l-9-12.4v12.4h-7.4v-24.5h7.6l8.5,11.6v-11.6h7.4v24.5H342.1z"/>
		<path class="st6" d="M369.5,458.7l-0.9-2.9h-8.8l-0.9,2.9h-8.4l9-24.5h9.3l9,24.5H369.5z M364.2,441.5l-2.4,7.9h4.8L364.2,441.5z"
			/>
		<path class="st6" d="M376.8,446.4c0-7.8,6.1-12.7,13.5-12.7c5.8,0,9.2,3.2,10.7,6.4l-6.2,3.2c-0.7-1.5-2.3-3-4.5-3
			c-3.6,0-5.9,2.7-5.9,6.1s2.4,6.1,5.9,6.1c1.4,0,3-0.5,3.8-1.1v-0.9h-4.5v-6.5h11.9v10c-2.7,3-6.4,5-11.2,5
			C382.8,459.1,376.8,454.3,376.8,446.4z"/>
		<path class="st6" d="M404.7,458.7v-24.5h18.6v6.5h-11.2v2.4H423v6.5h-10.9v2.7h11.2v6.5H404.7z"/>
		<path class="st6" d="M448.2,458.7v-14.7l-5.5,14.7h-3.3l-5.5-14.7v14.7h-7.4v-24.5h10.2l4.3,11.7l4.3-11.7h10.2v24.5H448.2z"/>
	</g>
</g>
<g id="Camada_9">
	<rect x="271.6" y="61.5" class="st7" width="9.5" height="9.4"/>
	<rect x="271.6" y="70.9" class="st7" width="9.5" height="9.4"/>
	<rect x="281.1" y="70.9" class="st7" width="9.5" height="9.4"/>
	<rect x="309.4" y="70.9" class="st8" width="9.5" height="9.4"/>
	<rect x="262.1" y="80.3" class="st7" width="9.5" height="9.4"/>
	<rect x="271.6" y="80.3" class="st7" width="9.5" height="9.4"/>
	<rect x="309.4" y="80.3" class="st8" width="9.5" height="9.4"/>
	<rect x="252.7" y="89.7" class="st7" width="9.5" height="9.4"/>
	<rect x="262.1" y="89.7" class="st7" width="9.5" height="9.4"/>
	<rect x="195.9" y="99.1" class="st7" width="9.5" height="9.4"/>
	<rect x="243.2" y="99.1" class="st7" width="9.5" height="9.4"/>
	<rect x="252.7" y="99.1" class="st7" width="9.5" height="9.4"/>
	<rect x="309.4" y="99.1" class="st8" width="9.5" height="9.4"/>
	<rect x="205.4" y="108.5" class="st7" width="9.5" height="9.4"/>
	<rect x="214.8" y="108.5" class="st7" width="9.5" height="9.4"/>
	<rect x="224.3" y="108.5" class="st7" width="9.5" height="9.4"/>
	<rect x="233.8" y="108.5" class="st7" width="9.5" height="9.4"/>
	<rect x="243.2" y="108.5" class="st9" width="9.5" height="9.4"/>
	<rect x="252.7" y="108.5" class="st8" width="9.5" height="9.4"/>
	<rect x="309.4" y="108.5" class="st8" width="9.5" height="9.4"/>
	<rect x="233.8" y="117.8" width="9.5" height="9.4"/>
	<rect x="243.2" y="117.8" class="st8" width="9.5" height="9.4"/>
	<rect x="252.7" y="117.8" class="st9" width="9.5" height="9.4"/>
	<rect x="262.1" y="117.8" class="st10" width="9.5" height="9.4"/>
	<rect x="300" y="117.8" class="st10" width="9.5" height="9.4"/>
	<rect x="205.4" y="127.2" class="st7" width="9.5" height="9.4"/>
	<rect x="243.2" y="127.2" class="st10" width="9.5" height="9.4"/>
	<rect x="252.7" y="127.2" class="st10" width="9.5" height="9.4"/>
	<rect x="262.1" y="127.2" class="st10" width="9.5" height="9.4"/>
	<rect x="271.6" y="127.2" class="st10" width="9.5" height="9.4"/>
	<rect x="281.1" y="127.2" class="st10" width="9.5" height="9.4"/>
	<rect x="290.5" y="127.2" class="st10" width="9.5" height="9.4"/>
	<rect x="300" y="127.2" class="st8" width="9.5" height="9.4"/>
	<rect x="252.7" y="136.6" class="st10" width="9.5" height="9.4"/>
	<rect x="262.1" y="136.6" class="st11" width="9.5" height="9.4"/>
	<rect x="271.6" y="136.6" class="st11" width="9.5" height="9.4"/>
	<rect x="205.4" y="146" class="st7" width="9.5" height="9.4"/>
	<rect x="214.8" y="146" class="st11" width="9.5" height="9.4"/>
	<rect x="224.3" y="146" class="st7" width="9.5" height="9.4"/>
	<rect x="252.7" y="146" class="st12" width="9.5" height="9.4"/>
	<rect x="214.8" y="155.4" class="st7" width="9.5" height="9.4"/>
	<rect x="347.3" y="155.4" class="st7" width="9.5" height="9.4"/>
	<rect x="243.2" y="164.8" class="st10" width="9.5" height="9.4"/>
	<rect x="271.6" y="164.8" class="st10" width="9.5" height="9.4"/>
	<rect x="281.1" y="164.8" class="st8" width="9.5" height="9.4"/>
	<rect x="290.5" y="164.8" class="st8" width="9.5" height="9.4"/>
	<rect x="347.3" y="164.8" class="st7" width="9.5" height="9.4"/>
	<rect x="224.3" y="174.2" class="st12" width="9.5" height="9.4"/>
	<rect x="233.8" y="174.2" class="st10" width="9.5" height="9.4"/>
	<rect x="243.2" y="174.2" class="st11" width="9.5" height="9.4"/>
	<rect x="252.7" y="174.2" class="st11" width="9.5" height="9.4"/>
	<rect x="271.6" y="174.2" class="st7" width="9.5" height="9.4"/>
	<rect x="281.1" y="174.2" class="st13" width="9.5" height="9.4"/>
	<rect x="290.5" y="174.2" class="st8" width="9.5" height="9.4"/>
	<rect x="318.9" y="174.2" class="st7" width="9.5" height="9.4"/>
	<rect x="328.4" y="174.2" class="st7" width="9.5" height="9.4"/>
	<rect x="347.3" y="174.2" class="st7" width="9.5" height="9.4"/>
	<rect x="214.8" y="183.5" class="st12" width="9.5" height="9.4"/>
	<rect x="224.3" y="183.5" class="st10" width="9.5" height="9.4"/>
	<rect x="262.1" y="183.5" class="st11" width="9.5" height="9.4"/>
	<rect x="281.1" y="183.5" class="st7" width="9.5" height="9.4"/>
	<rect x="290.5" y="183.5" class="st10" width="9.5" height="9.4"/>
	<rect x="318.9" y="183.5" class="st7" width="9.5" height="9.4"/>
	<rect x="328.4" y="183.5" class="st7" width="9.5" height="9.4"/>
	<rect x="186.5" y="192.9" class="st14" width="9.5" height="9.4"/>
	<rect x="195.9" y="192.9" class="st14" width="9.5" height="9.4"/>
	<rect x="205.4" y="192.9" class="st14" width="9.5" height="9.4"/>
	<rect x="214.8" y="192.9" class="st14" width="9.5" height="9.4"/>
	<rect x="224.3" y="192.9" class="st10" width="9.5" height="9.4"/>
	<rect x="262.1" y="192.9" class="st15" width="9.5" height="9.4"/>
	<rect x="177" y="202.3" class="st14" width="9.5" height="9.4"/>
	<rect x="186.5" y="202.3" class="st14" width="9.5" height="9.4"/>
	<rect x="195.9" y="202.3" class="st14" width="9.5" height="9.4"/>
	<rect x="205.4" y="202.3" class="st16" width="9.5" height="9.4"/>
	<rect x="214.8" y="202.3" class="st14" width="9.5" height="9.4"/>
	<rect x="224.3" y="202.3" class="st14" width="9.5" height="9.4"/>
	<rect x="177" y="211.7" class="st17" width="9.5" height="9.4"/>
	<rect x="186.5" y="211.7" class="st17" width="9.5" height="9.4"/>
	<rect x="195.9" y="211.7" class="st17" width="9.5" height="9.4"/>
	<rect x="205.4" y="211.7" class="st14" width="9.5" height="9.4"/>
	<rect x="214.8" y="211.7" class="st14" width="9.5" height="9.4"/>
	<rect x="224.3" y="211.7" class="st14" width="9.5" height="9.4"/>
	<rect x="233.8" y="211.7" class="st14" width="9.5" height="9.4"/>
	<rect x="243.2" y="211.7" class="st14" width="9.5" height="9.4"/>
	<rect x="177" y="221.1" class="st18" width="9.5" height="9.4"/>
	<rect x="186.5" y="221.1" class="st18" width="9.5" height="9.4"/>
	<rect x="195.9" y="221.1" class="st18" width="9.5" height="9.4"/>
	<rect x="205.4" y="221.1" class="st17" width="9.5" height="9.4"/>
	<rect x="214.8" y="221.1" class="st14" width="9.5" height="9.4"/>
	<rect x="224.3" y="221.1" class="st14" width="9.5" height="9.4"/>
	<rect x="233.8" y="221.1" class="st19" width="9.5" height="9.4"/>
	<rect x="243.2" y="221.1" class="st14" width="9.5" height="9.4"/>
	<rect x="252.7" y="221.1" class="st19" width="9.5" height="9.4"/>
	<rect x="281.1" y="221.1" class="st7" width="9.5" height="9.4"/>
	<rect x="186.5" y="230.5" class="st18" width="9.5" height="9.4"/>
	<rect x="195.9" y="230.5" class="st18" width="9.5" height="9.4"/>
	<rect x="205.4" y="230.5" class="st18" width="9.5" height="9.4"/>
	<rect x="214.8" y="230.5" class="st17" width="9.5" height="9.4"/>
	<rect x="224.3" y="230.5" class="st19" width="9.5" height="9.4"/>
	<rect x="233.8" y="230.5" class="st14" width="9.5" height="9.4"/>
	<rect x="243.2" y="230.5" class="st19" width="9.5" height="9.4"/>
	<rect x="252.7" y="230.5" class="st19" width="9.5" height="9.4"/>
	<rect x="262.1" y="230.5" class="st7" width="9.5" height="9.4"/>
	<rect x="271.6" y="230.5" class="st10" width="9.5" height="9.4"/>
	<rect x="281.1" y="230.5" class="st10" width="9.5" height="9.4"/>
	<rect x="195.9" y="239.9" class="st18" width="9.5" height="9.4"/>
	<rect x="205.4" y="239.9" class="st18" width="9.5" height="9.4"/>
	<rect x="214.8" y="239.9" class="st18" width="9.5" height="9.4"/>
	<rect x="224.3" y="239.9" class="st17" width="9.5" height="9.4"/>
	<rect x="233.8" y="239.9" class="st14" width="9.5" height="9.4"/>
	<rect x="243.2" y="239.9" class="st19" width="9.5" height="9.4"/>
	<rect x="252.7" y="239.9" class="st10" width="9.5" height="9.4"/>
	<rect x="262.1" y="239.9" class="st10" width="9.5" height="9.4"/>
	<rect x="271.6" y="239.9" class="st7" width="9.5" height="9.4"/>
	<rect x="290.5" y="239.9" class="st14" width="9.5" height="9.4"/>
	<rect x="300" y="239.9" class="st19" width="9.5" height="9.4"/>
	<rect x="205.4" y="249.3" class="st18" width="9.5" height="9.4"/>
	<rect x="214.8" y="249.3" class="st18" width="9.5" height="9.4"/>
	<rect x="224.3" y="249.3" class="st18" width="9.5" height="9.4"/>
	<rect x="233.8" y="249.3" class="st17" width="9.5" height="9.4"/>
	<rect x="243.2" y="249.3" class="st19" width="9.5" height="9.4"/>
	<rect x="262.1" y="249.3" class="st7" width="9.5" height="9.4"/>
	<rect x="290.5" y="249.3" class="st14" width="9.5" height="9.4"/>
	<rect x="300" y="249.3" class="st19" width="9.5" height="9.4"/>
	<rect x="309.4" y="249.3" class="st17" width="9.5" height="9.4"/>
	<rect x="214.8" y="258.6" class="st18" width="9.5" height="9.4"/>
	<rect x="224.3" y="258.6" class="st18" width="9.5" height="9.4"/>
	<rect x="233.8" y="258.6" class="st18" width="9.5" height="9.4"/>
	<rect x="271.6" y="258.6" class="st19" width="9.5" height="9.4"/>
	<rect x="281.1" y="258.6" class="st19" width="9.5" height="9.4"/>
	<rect x="290.5" y="258.6" class="st14" width="9.5" height="9.4"/>
	<rect x="300" y="258.6" class="st14" width="9.5" height="9.4"/>
	<rect x="309.4" y="258.6" class="st17" width="9.5" height="9.4"/>
	<rect x="262.1" y="268" class="st14" width="9.5" height="9.4"/>
	<rect x="271.6" y="268" class="st14" width="9.5" height="9.4"/>
	<rect x="281.1" y="268" class="st14" width="9.5" height="9.4"/>
	<rect x="290.5" y="268" class="st19" width="9.5" height="9.4"/>
	<rect x="300" y="268" class="st14" width="9.5" height="9.4"/>
	<rect x="309.4" y="268" class="st17" width="9.5" height="9.4"/>
	<rect x="252.7" y="277.4" class="st14" width="9.5" height="9.4"/>
	<rect x="262.1" y="277.4" class="st14" width="9.5" height="9.4"/>
	<rect x="271.6" y="277.4" class="st16" width="9.5" height="9.4"/>
	<rect x="281.1" y="277.4" class="st14" width="9.5" height="9.4"/>
	<rect x="290.5" y="277.4" class="st14" width="9.5" height="9.4"/>
	<rect x="300" y="277.4" class="st17" width="9.5" height="9.4"/>
	<rect x="252.7" y="286.8" class="st14" width="9.5" height="9.4"/>
	<rect x="262.1" y="286.8" class="st14" width="9.5" height="9.4"/>
	<rect x="271.6" y="286.8" class="st14" width="9.5" height="9.4"/>
	<rect x="281.1" y="286.8" class="st14" width="9.5" height="9.4"/>
	<rect x="290.5" y="286.8" class="st14" width="9.5" height="9.4"/>
	<rect x="300" y="286.8" class="st17" width="9.5" height="9.4"/>
	<rect x="262.1" y="296.2" class="st17" width="9.5" height="9.4"/>
	<rect x="271.6" y="296.2" class="st17" width="9.5" height="9.4"/>
	<rect x="281.1" y="296.2" class="st17" width="9.5" height="9.4"/>
	<rect x="290.5" y="296.2" class="st17" width="9.5" height="9.4"/>
	<rect x="281.1" y="80.3" class="st12" width="9.5" height="9.4"/>
	<rect x="271.6" y="89.7" class="st12" width="9.5" height="9.4"/>
	<rect x="262.1" y="99.1" class="st12" width="9.5" height="9.4"/>
	<rect x="271.6" y="99.1" class="st12" width="9.5" height="9.4"/>
	<rect x="262.1" y="108.5" class="st12" width="9.5" height="9.4"/>
	<rect x="300" y="108.5" class="st12" width="9.5" height="9.4"/>
	<rect x="224.3" y="117.8" class="st12" width="9.5" height="9.4"/>
	<rect x="290.5" y="117.8" class="st12" width="9.5" height="9.4"/>
	<rect x="233.8" y="127.2" class="st12" width="9.5" height="9.4"/>
	<rect x="233.8" y="164.8" class="st12" width="9.5" height="9.4"/>
	<rect x="262.1" y="33.4" class="st13" width="9.5" height="9.4"/>
	<rect x="271.6" y="33.4" class="st13" width="9.5" height="9.4"/>
	<rect x="281.1" y="42.7" class="st20" width="9.5" height="9.4"/>
	<rect x="290.5" y="42.7" class="st13" width="9.5" height="9.4"/>
	<rect x="281.1" y="52.1" class="st13" width="9.5" height="9.4"/>
	<rect x="281.1" y="61.5" class="st13" width="9.5" height="9.4"/>
	<rect x="281.1" y="89.7" class="st13" width="9.5" height="9.4"/>
	<rect x="290.5" y="89.7" class="st13" width="9.5" height="9.4"/>
	<rect x="300" y="89.7" class="st13" width="9.5" height="9.4"/>
	<rect x="281.1" y="99.1" class="st13" width="9.5" height="9.4"/>
	<rect x="290.5" y="99.1" class="st20" width="9.5" height="9.4"/>
	<rect x="300" y="99.1" class="st13" width="9.5" height="9.4"/>
	<rect x="271.6" y="108.5" class="st13" width="9.5" height="9.4"/>
	<rect x="281.1" y="108.5" class="st13" width="9.5" height="9.4"/>
	<rect x="290.5" y="108.5" class="st13" width="9.5" height="9.4"/>
	<rect x="271.6" y="117.8" class="st13" width="9.5" height="9.4"/>
	<rect x="281.1" y="117.8" class="st13" width="9.5" height="9.4"/>
	<rect x="243.2" y="136.6" class="st13" width="9.5" height="9.4"/>
	<rect x="233.8" y="146" class="st13" width="9.5" height="9.4"/>
	<rect x="243.2" y="146" class="st13" width="9.5" height="9.4"/>
	<rect x="224.3" y="155.4" class="st13" width="9.5" height="9.4"/>
	<rect x="233.8" y="155.4" class="st13" width="9.5" height="9.4"/>
	<rect x="243.2" y="155.4" class="st12" width="9.5" height="9.4"/>
	<rect x="214.8" y="164.8" class="st13" width="9.5" height="9.4"/>
	<rect x="224.3" y="164.8" class="st13" width="9.5" height="9.4"/>
	<rect x="205.4" y="174.2" class="st13" width="9.5" height="9.4"/>
	<rect x="214.8" y="174.2" class="st13" width="9.5" height="9.4"/>
	<rect x="205.4" y="183.5" class="st13" width="9.5" height="9.4"/>
	<rect x="271.6" y="42.7" width="9.5" height="9.4"/>
	<rect x="271.6" y="52.1" width="9.5" height="9.4"/>
	<rect x="290.5" y="52.1" width="9.5" height="9.4"/>
	<rect x="290.5" y="61.5" width="9.5" height="9.4"/>
	<rect x="205.4" y="33.4" class="st11" width="9.5" height="9.4"/>
	<rect x="224.3" y="33.4" class="st11" width="9.5" height="9.4"/>
	<rect x="281.1" y="33.4" class="st11" width="9.5" height="9.4"/>
	<rect x="262.1" y="70.9" class="st11" width="9.5" height="9.4"/>
	<rect x="186.5" y="80.3" class="st11" width="9.5" height="9.4"/>
	<rect x="252.7" y="80.3" class="st11" width="9.5" height="9.4"/>
	<rect x="300" y="80.3" class="st11" width="9.5" height="9.4"/>
	<rect x="186.5" y="89.7" class="st11" width="9.5" height="9.4"/>
	<rect x="195.9" y="89.7" class="st11" width="9.5" height="9.4"/>
	<rect x="243.2" y="89.7" class="st11" width="9.5" height="9.4"/>
	<rect x="205.4" y="99.1" class="st11" width="9.5" height="9.4"/>
	<rect x="214.8" y="99.1" class="st11" width="9.5" height="9.4"/>
	<rect x="224.3" y="99.1" class="st11" width="9.5" height="9.4"/>
	<rect x="233.8" y="99.1" class="st11" width="9.5" height="9.4"/>
	<rect x="195.9" y="108.5" class="st11" width="9.5" height="9.4"/>
	<rect x="195.9" y="117.8" class="st11" width="9.5" height="9.4"/>
	<rect x="205.4" y="117.8" class="st11" width="9.5" height="9.4"/>
	<rect x="195.9" y="127.2" class="st11" width="9.5" height="9.4"/>
	<rect x="167.5" y="136.6" class="st11" width="9.5" height="9.4"/>
	<rect x="177" y="146" class="st11" width="9.5" height="9.4"/>
	<rect x="186.5" y="146" class="st11" width="9.5" height="9.4"/>
	<rect x="337.8" y="146" class="st11" width="9.5" height="9.4"/>
	<rect x="195.9" y="155.4" class="st11" width="9.5" height="9.4"/>
	<rect x="205.4" y="155.4" class="st11" width="9.5" height="9.4"/>
	<rect x="281.1" y="155.4" class="st11" width="9.5" height="9.4"/>
	<rect x="290.5" y="155.4" class="st11" width="9.5" height="9.4"/>
	<rect x="300" y="155.4" class="st11" width="9.5" height="9.4"/>
	<rect x="309.4" y="164.8" class="st11" width="9.5" height="9.4"/>
	<rect x="318.9" y="164.8" class="st11" width="9.5" height="9.4"/>
	<rect x="309.4" y="174.2" class="st11" width="9.5" height="9.4"/>
	<rect x="300" y="183.5" class="st11" width="9.5" height="9.4"/>
	<rect x="337.8" y="183.5" class="st11" width="9.5" height="9.4"/>
	<rect x="300" y="192.9" class="st11" width="9.5" height="9.4"/>
	<rect x="252.7" y="211.7" class="st11" width="9.5" height="9.4"/>
	<rect x="281.1" y="211.7" class="st11" width="9.5" height="9.4"/>
	<rect x="300" y="211.7" class="st11" width="9.5" height="9.4"/>
	<rect x="262.1" y="221.1" class="st11" width="9.5" height="9.4"/>
	<rect x="271.6" y="221.1" class="st11" width="9.5" height="9.4"/>
	<rect x="290.5" y="221.1" class="st11" width="9.5" height="9.4"/>
	<rect x="281.1" y="239.9" class="st11" width="9.5" height="9.4"/>
	<rect x="271.6" y="249.3" class="st11" width="9.5" height="9.4"/>
	<rect x="281.1" y="249.3" class="st11" width="9.5" height="9.4"/>
	<rect x="214.8" y="24" class="st15" width="9.5" height="9.4"/>
	<rect x="224.3" y="24" class="st15" width="9.5" height="9.4"/>
	<rect x="233.8" y="24" class="st15" width="9.5" height="9.4"/>
	<rect x="271.6" y="24" class="st15" width="9.5" height="9.4"/>
	<rect x="281.1" y="24" class="st15" width="9.5" height="9.4"/>
	<rect x="214.8" y="33.4" class="st15" width="9.5" height="9.4"/>
	<rect x="233.8" y="33.4" class="st15" width="9.5" height="9.4"/>
	<rect x="243.2" y="33.4" class="st15" width="9.5" height="9.4"/>
	<rect x="252.7" y="33.4" class="st15" width="9.5" height="9.4"/>
	<rect x="290.5" y="33.4" class="st15" width="9.5" height="9.4"/>
	<rect x="300" y="33.4" class="st15" width="9.5" height="9.4"/>
	<rect x="195.9" y="42.7" class="st15" width="9.5" height="9.4"/>
	<rect x="205.4" y="42.7" class="st15" width="9.5" height="9.4"/>
	<rect x="214.8" y="42.7" class="st15" width="9.5" height="9.4"/>
	<rect x="224.3" y="42.7" class="st15" width="9.5" height="9.4"/>
	<rect x="233.8" y="42.7" class="st15" width="9.5" height="9.4"/>
	<rect x="243.2" y="42.7" class="st15" width="9.5" height="9.4"/>
	<rect x="252.7" y="42.7" class="st15" width="9.5" height="9.4"/>
	<rect x="262.1" y="42.7" class="st15" width="9.5" height="9.4"/>
	<rect x="300" y="42.7" class="st15" width="9.5" height="9.4"/>
	<rect x="309.4" y="42.7" class="st15" width="9.5" height="9.4"/>
	<rect x="186.5" y="52.1" class="st15" width="9.5" height="9.4"/>
	<rect x="195.9" y="52.1" class="st15" width="9.5" height="9.4"/>
	<rect x="205.4" y="52.1" class="st15" width="9.5" height="9.4"/>
	<rect x="214.8" y="52.1" class="st15" width="9.5" height="9.4"/>
	<rect x="224.3" y="52.1" class="st15" width="9.5" height="9.4"/>
	<rect x="233.8" y="52.1" class="st15" width="9.5" height="9.4"/>
	<rect x="243.2" y="52.1" class="st15" width="9.5" height="9.4"/>
	<rect x="252.7" y="52.1" class="st15" width="9.5" height="9.4"/>
	<rect x="262.1" y="52.1" class="st15" width="9.5" height="9.4"/>
	<rect x="300" y="52.1" class="st15" width="9.5" height="9.4"/>
	<rect x="309.4" y="52.1" class="st15" width="9.5" height="9.4"/>
	<rect x="186.5" y="61.5" class="st15" width="9.5" height="9.4"/>
	<rect x="195.9" y="61.5" class="st15" width="9.5" height="9.4"/>
	<rect x="205.4" y="61.5" class="st15" width="9.5" height="9.4"/>
	<rect x="214.8" y="61.5" class="st15" width="9.5" height="9.4"/>
	<rect x="224.3" y="61.5" class="st15" width="9.5" height="9.4"/>
	<rect x="233.8" y="61.5" class="st15" width="9.5" height="9.4"/>
	<rect x="243.2" y="61.5" class="st15" width="9.5" height="9.4"/>
	<rect x="252.7" y="61.5" class="st15" width="9.5" height="9.4"/>
	<rect x="262.1" y="61.5" class="st15" width="9.5" height="9.4"/>
	<rect x="300" y="61.5" class="st15" width="9.5" height="9.4"/>
	<rect x="309.4" y="61.5" class="st15" width="9.5" height="9.4"/>
	<rect x="186.5" y="70.9" class="st15" width="9.5" height="9.4"/>
	<rect x="195.9" y="70.9" class="st15" width="9.5" height="9.4"/>
	<rect x="205.4" y="70.9" class="st15" width="9.5" height="9.4"/>
	<rect x="214.8" y="70.9" class="st15" width="9.5" height="9.4"/>
	<rect x="224.3" y="70.9" class="st15" width="9.5" height="9.4"/>
	<rect x="233.8" y="70.9" class="st15" width="9.5" height="9.4"/>
	<rect x="243.2" y="70.9" class="st15" width="9.5" height="9.4"/>
	<rect x="252.7" y="70.9" class="st15" width="9.5" height="9.4"/>
	<rect x="290.5" y="70.9" class="st15" width="9.5" height="9.4"/>
	<rect x="300" y="70.9" class="st15" width="9.5" height="9.4"/>
	<rect x="195.9" y="80.3" class="st15" width="9.5" height="9.4"/>
	<rect x="205.4" y="80.3" class="st15" width="9.5" height="9.4"/>
	<rect x="214.8" y="80.3" class="st15" width="9.5" height="9.4"/>
	<rect x="224.3" y="80.3" class="st15" width="9.5" height="9.4"/>
	<rect x="233.8" y="80.3" class="st15" width="9.5" height="9.4"/>
	<rect x="243.2" y="80.3" class="st15" width="9.5" height="9.4"/>
	<rect x="290.5" y="80.3" class="st15" width="9.5" height="9.4"/>
	<rect x="205.4" y="89.7" class="st15" width="9.5" height="9.4"/>
	<rect x="214.8" y="89.7" class="st15" width="9.5" height="9.4"/>
	<rect x="224.3" y="89.7" class="st15" width="9.5" height="9.4"/>
	<rect x="233.8" y="89.7" class="st15" width="9.5" height="9.4"/>
	<rect x="177" y="108.5" class="st15" width="9.5" height="9.4"/>
	<rect x="186.5" y="108.5" class="st15" width="9.5" height="9.4"/>
	<rect x="167.5" y="117.8" class="st15" width="9.5" height="9.4"/>
	<rect x="177" y="117.8" class="st15" width="9.5" height="9.4"/>
	<rect x="186.5" y="117.8" class="st15" width="9.5" height="9.4"/>
	<rect x="167.5" y="127.2" class="st15" width="9.5" height="9.4"/>
	<rect x="177" y="127.2" class="st15" width="9.5" height="9.4"/>
	<rect x="186.5" y="127.2" class="st15" width="9.5" height="9.4"/>
	<rect x="177" y="136.6" class="st15" width="9.5" height="9.4"/>
	<rect x="186.5" y="136.6" class="st15" width="9.5" height="9.4"/>
	<rect x="195.9" y="136.6" class="st15" width="9.5" height="9.4"/>
	<rect x="195.9" y="146" class="st15" width="9.5" height="9.4"/>
	<rect x="262.1" y="146" class="st15" width="9.5" height="9.4"/>
	<rect x="271.6" y="146" class="st15" width="9.5" height="9.4"/>
	<rect x="281.1" y="146" class="st15" width="9.5" height="9.4"/>
	<rect x="290.5" y="146" class="st15" width="9.5" height="9.4"/>
	<rect x="300" y="146" class="st15" width="9.5" height="9.4"/>
	<rect x="309.4" y="146" class="st15" width="9.5" height="9.4"/>
	<rect x="318.9" y="146" class="st15" width="9.5" height="9.4"/>
	<rect x="328.4" y="146" class="st15" width="9.5" height="9.4"/>
	<rect x="252.7" y="155.4" class="st15" width="9.5" height="9.4"/>
	<rect x="262.1" y="155.4" class="st15" width="9.5" height="9.4"/>
	<rect x="271.6" y="155.4" class="st15" width="9.5" height="9.4"/>
	<rect x="309.4" y="155.4" class="st15" width="9.5" height="9.4"/>
	<rect x="318.9" y="155.4" class="st15" width="9.5" height="9.4"/>
	<rect x="328.4" y="155.4" class="st15" width="9.5" height="9.4"/>
	<rect x="337.8" y="155.4" class="st15" width="9.5" height="9.4"/>
	<rect x="252.7" y="164.8" class="st15" width="9.5" height="9.4"/>
	<rect x="262.1" y="164.8" class="st15" width="9.5" height="9.4"/>
	<rect x="328.4" y="164.8" class="st15" width="9.5" height="9.4"/>
	<rect x="337.8" y="164.8" class="st15" width="9.5" height="9.4"/>
	<rect x="262.1" y="174.2" class="st15" width="9.5" height="9.4"/>
	<rect x="337.8" y="174.2" class="st15" width="9.5" height="9.4"/>
	<rect x="233.8" y="183.5" class="st15" width="9.5" height="9.4"/>
	<rect x="243.2" y="183.5" class="st15" width="9.5" height="9.4"/>
	<rect x="252.7" y="183.5" class="st15" width="9.5" height="9.4"/>
	<rect x="271.6" y="183.5" class="st15" width="9.5" height="9.4"/>
	<rect x="233.8" y="192.9" class="st15" width="9.5" height="9.4"/>
	<rect x="243.2" y="192.9" class="st15" width="9.5" height="9.4"/>
	<rect x="252.7" y="192.9" class="st15" width="9.5" height="9.4"/>
	<rect x="271.6" y="192.9" class="st15" width="9.5" height="9.4"/>
	<rect x="281.1" y="192.9" class="st15" width="9.5" height="9.4"/>
	<rect x="290.5" y="192.9" class="st15" width="9.5" height="9.4"/>
	<rect x="233.8" y="202.3" class="st15" width="9.5" height="9.4"/>
	<rect x="243.2" y="202.3" class="st15" width="9.5" height="9.4"/>
	<rect x="252.7" y="202.3" class="st15" width="9.5" height="9.4"/>
	<rect x="262.1" y="202.3" class="st15" width="9.5" height="9.4"/>
	<rect x="271.6" y="202.3" class="st15" width="9.5" height="9.4"/>
	<rect x="281.1" y="202.3" class="st15" width="9.5" height="9.4"/>
	<rect x="290.5" y="202.3" class="st15" width="9.5" height="9.4"/>
	<rect x="300" y="202.3" class="st15" width="9.5" height="9.4"/>
	<rect x="262.1" y="211.7" class="st15" width="9.5" height="9.4"/>
	<rect x="271.6" y="211.7" class="st15" width="9.5" height="9.4"/>
	<rect x="290.5" y="211.7" class="st15" width="9.5" height="9.4"/>
</g>
<g id="Fanarts">
	<polygon class="st6" points="500,0 250,250 500,500 	"/>
	<polygon class="st21" points="0,0 500,500 0.1,500 	"/>
	<g>
		<path class="st22" d="M168.2,458.1v-24.5h18.6v6.5h-11.2v2.4h10.9v6.5h-10.9v9.1H168.2z"/>
		<path class="st22" d="M204.4,458.1l-0.9-2.9h-8.8l-0.9,2.9h-8.4l9-24.5h9.3l9,24.5H204.4z M199.1,440.9l-2.4,7.9h4.8L199.1,440.9z
			"/>
		<path class="st22" d="M230.6,458.1l-9-12.4v12.4h-7.4v-24.5h7.6l8.5,11.6v-11.6h7.4v24.5H230.6z"/>
		<path class="st22" d="M258,458.1l-0.9-2.9h-8.8l-0.9,2.9H239l9-24.5h9.3l9,24.5H258z M252.7,440.9l-2.4,7.9h4.8L252.7,440.9z"/>
		<path class="st22" d="M281.1,458.1l-3.4-7.7h-2.7v7.7h-7.4v-24.5h13.1c5.7,0,8.8,3.8,8.8,8.4c0,4.2-2.5,6.5-4.4,7.4l4.4,8.7H281.1
			z M282,442c0-1.3-1.2-1.9-2.4-1.9h-4.5v3.9h4.5C280.9,443.9,282,443.3,282,442z"/>
		<path class="st22" d="M297.4,458.1v-18h-6.6v-6.5h20.5v6.5h-6.5v18H297.4z"/>
		<path class="st22" d="M311.8,454.6l3.9-5.5c1.8,1.8,4.6,3.2,7.9,3.2c1.4,0,2.7-0.4,2.7-1.3c0-2.3-13.6,0-13.6-9.6
			c0-4.1,3.4-8.1,10.2-8.1c4,0,7.6,1.1,10.4,3.4l-4,5.2c-2.1-1.6-4.9-2.4-7.2-2.4c-1.5,0-1.9,0.5-1.9,1.1c0,2.3,13.6,0.3,13.6,9.4
			c0,5.4-4,8.5-10.6,8.5C317.9,458.5,314.4,457,311.8,454.6z"/>
	</g>
</g>
<g id="Camada_10" class="st0">
	<g class="st5">
		<path class="st23" d="M251.4,297.6c1.1-2.7-0.9-6.2-4.2-9.1c-3.3-2.9-3.9-9.8-3.9-9.8c-0.9,1.5,0.5,7.4,2.1,9.7
			c1.7,2.3,5,6.5,4.1,7.7c-0.9,1.2-1.7,8,2.9,9.4C249.9,304.1,250.3,300.3,251.4,297.6z"/>
		<path class="st23" d="M249.4,307c-1.5-2-1.5-3.6-2.7-5.1c-1.2-1.5-0.3-6.6-0.3-6.6s-1.8,5.6-1.8,7.1c0,1.5,3.8,8.5,7.7,9.8
			C251.5,311.5,250.9,308.9,249.4,307z"/>
		<path class="st23" d="M264.7,329.6c-0.9,6,5.6,11.3,10.4,11.5C275.1,341.1,265.6,334.6,264.7,329.6z"/>
		<path class="st23" d="M269.1,333.7c0,0,1.5-6.5,0.2-9.1c-1.4-2.6-7.2-3.6-9.4-3.3C263.9,322.8,268.3,326.8,269.1,333.7z"/>
		<path class="st23" d="M255.5,318c-0.5-1.8,2.3-6.8-2-9.7c2.7,5.9-0.8,8.6,0.6,11.3s8,5.9,8,5.9C259.5,323,256,319.8,255.5,318z"/>
		<path class="st23" d="M327.1,285.5c0-0.4-0.1-3.7,3.8-6.5c-2.8,1.3-3.2,1.9-4.6,2.1C326.5,281.9,326.7,281.4,327.1,285.5z"/>
		<path class="st23" d="M328.5,273.4c-1.3,1.5-3.2,2.4-4.4,2.4c0.3,0.8,0.3,1.9-0.1,2.9c0,0,1-1.7,1.7-2.1
			C326.4,276.3,328.2,274.4,328.5,273.4z"/>
		<path class="st23" d="M330.1,268.6c-0.9-0.3-2.1,0.1-3.1,0.6c-0.6,0.3-0.4,0.8-1.6-0.3c-0.4,1.2-1,1.5-1.7,2
			c2-0.2,3.3-0.9,4.4-1.5C329.2,268.9,330.1,268.6,330.1,268.6z"/>
		<path class="st23" d="M347.5,250.2c0-2.4-1.9-4.4-4.4-4.4c-2.4,0-4.4,1.9-4.4,4.4c0,2.4,2,4.4,4.4,4.4
			C345.5,254.6,347.5,252.6,347.5,250.2z"/>
		<path class="st23" d="M324.5,253.3c-0.5,3.2,1.5,5.3,4.7,5.4C326.5,257.6,324.5,253.3,324.5,253.3z"/>
		<path class="st23" d="M376.8,388.7c0.1-0.1,0.2-0.3,0.4-0.4C377,388.4,376.9,388.6,376.8,388.7z"/>
		<path class="st23" d="M342.5,419.1c0,0.1,0,0.3,0.1,0.4C342.5,419.4,342.5,419.3,342.5,419.1z"/>
		<path class="st23" d="M351.9,121.5c0.1,0.2,0.1,0.4,0.2,0.6C352,121.7,351.9,121.5,351.9,121.5z"/>
		<path class="st23" d="M458,273.5c-2.8-2.8-4-9.9-0.8-18c-0.2-0.9-0.8-2.4-1.8-4.4c1.3-1.3,4.9-6.6-6.4-14.4c-1.6-1.1-2.9-2-4-2.8
			c-1-1.4-1.9-2.9-3-4.4c0.4-1.4,0.9-3.8,0.4-4.9c-0.7-1.7-4.5-4.2,1.4-6c5.9-1.8,1.1-12.2-7.9-18.2c0,0,7.6,6.2,6.9,11.1
			c-0.7,4.6-7.8,3.9-5.7,11.3c-1.9-2.6-3.9-5.2-5.9-7.8c3.6-12.7-3.1-17.5-5.6-19.5c-2.5-2.1-7.4-7.8-9.4-9.7
			c-2.1-1.9-2.9-0.8-3.6-2.4c-0.7-1.5-1-2.6,0.1-4.3c-11.1-0.7-16.5-12.2-17.9-14c-1.4-1.8-3.6-2.9-5.3-4.2
			c-1.7-1.2-2.6-4.4-2.6-4.4c-0.4,1.3-0.7,2.6-1,3.8c-0.6-1.5-1.3-4-0.6-5.4c1-2.1-5.8-5.2-10.3-10c0,0,6.2,6.6,4,15.3
			c-13.4-10.1-19.4-18.5-19.4-18.5c-0.1,2.9,2.6,4.4,1.8,6.3c-1.5-2.3-4.9-4.2-5.6-4.5c-0.8-0.4-1.3-2-0.8-2.2
			c0.5-0.2,1.3,0.2,3,1.8c-1.5-1.7-5-9-4.8-11.9c0.1-1.3,0.2-2.6,0.1-3.6c0-1.7-0.7-3.2-1.3-4.8c0.2,0.7,0.5,1.9,0,3.3
			c-0.6,2-2.9,5.4-2,10.9c1,5.5,2,6.7,3,7.9c1,1.3,2.8,3.8,2.6,5.1c-0.1,0.7-1.3,0.5-2.2,0.2c-2.2-1.5-4-6.4-4-6.4
			c-0.3,5.3,3.3,8.6,8.9,15.2c2.9,3.4,5.1,5.2,6.5,6.2c0,1-0.2,1.9-0.3,2.9c-0.3,1.7-1.7,4.7-1.4,8.1c-4.2,0.5-5-3.2-4-7
			c-2.5-2.4-2.9-5-5.6-8.6c5.1,16.8-2.9,23.6-6.6,26.9c-3.7,3.2-1.9,8.6-1.3,10.2c0.6,1.6,0.7,2.9-0.4,4c0.3-0.8-0.9-3.3-1.5-5.1
			c-0.6-1.8-0.1-2.8-0.1-2.8s-2.7,3.8-1.2,7.7c1.5,3.9,7,4.8,11.2,8.2c4.2,3.4,2.9,13.2,2.1,16.3c0.2-0.9,0.6-7.1-1.4-10.3
			c-2-3.2-7.4-8.5-11.6-9.9c1.9,2,6.6,6.2,7.1,8.2c0.5,1.9,0.7,2.1,2.2,4c-2.9-0.2-7.7-3.8-8.2-4.5c-0.5,0.5-4.4,3.5-5.2,3.1
			c-0.8-0.5-0.3-2.8-0.5-5.8c0.8-0.5,2.2-0.4,2.2-0.4s-2.2-1.8-3.2-12.7c-1-10.9,8-12.9,7.1-15.1c-0.8-2.2,1.3-1.9,2.6-2.9
			c6.1-4,7-10.6,5.5-14.9c0.3,1.6-1.6,4.5-1.9,2.7c-0.3-1.8,0.8-3.4,2.4-3.8c0.6-1.8-2.5-6.6-3.6-7.7c-1.1-1-1.6-4.5-2-7.5
			c-0.1,6-0.4,3.9-1.1,4.1c0.1,0.8,1,1.4,1.1,2.3c0.1,1-1.2,1-0.5,3.6c3.7,0.5,1.7,6,0.3,8.4c-1.4-4-0.6-7.8-0.6-7.8s-1.6,3.4-1,8.4
			c0.5,5.1-7.2,5.3-7.2,5.3s-0.6,8.9-4.9,8.9c4.1-5.3,6.2-17.5,6.2-17.5s-7.6-2.7-6.2-7.8c1.8-10.3,6.7-16,12.3-21.1
			c-1.2-7.5,3.8-13.1,4.4-14.4c0.6-1.4,1-7.3,0.3-17.5c-1.6,14.5-10.9,29.5-22.6,32c0.7,6,0.3,7,0.1,9.4c1.5,2.5,2.3,6,1,7.6
			c0.4-5.5-5.5-9.3-5.9-8.7c11.9,9.6-6.5,16.4-2.2,20.9c11.2,11.8,11.3,14.1,3.4,22c-7.9,7.9-5.5,9.2-4.7,13.3
			c0.8,4.2,4.8,2.5,1.8,7.5c-4,6.4-1.6,5.4-2.5,8.6c-1,3.2-4.5,5.1-5.1,5.3c0.2,0.9,0,1.5-0.5,2.1c0.5-0.3,3.1,0.2,1.9,1.9
			c-1.2,1.8-0.8,2.7,0.2,2.9c-1.5,2.3-0.4,2.3-0.1,3.1c0.3,0.8,0.7,3.2-1.2,6.6c1-0.7,1.6-0.8,2.5-1.2c0.9-0.5,4.5-1.4,6.6-3.6
			c0.1-1,0.2-3.4,3.1-5.8c2.9-2.4,5.3-9.6,4.2-7.1c-1.1,2.5-4.7,4.6-6.3,4.7c8.6-7.1,7.5-11.4,7.4-19.7c1.5,3.3,2,3.8,2.4,1.8
			c1.2,4.4,0,7.9-2.6,12.8c2.4-1.7,4.9-4.9,4.5-8c2.3,2.9-0.8,6.4-3.2,8.7c-2.4,2.3-5.5,8.9-5.5,8.9c0,0,0,0,0,0
			c-0.7,1.5-0.9,3.1-1.6,4.6c-0.7,1.4-5.8,5.4-13.1,7.7c-2,0.6-2.9-1.2-3.1-1.9c0,0-0.1,0.1-0.1,0.1c-0.5-1.2-1.9-5.1-1-6.6
			c1-1.7,2.8-1.9,2.7-6.7c-2,2.6-3,1.4-4.7-0.5c-1.7-1.9,1-4.3,2.9-5.5c1.9-1.3,2.3-2,2.3-3.3c0-1.4-0.8-3.2,2.2-3.7
			c3-0.5,1.2,3.7-0.2,3.2c2.3,1.1,3.4-0.4,3.8-1.9c0.3-1.5-1-10.2-3.8-12.8c-2-1.5-2.5-2.6,0.4-2.6c-2.6-2.1-3-1.7-0.1-5
			c2.9-3.3,9.8-11.8,7.4-19.2c0.7,4.5-2.6,13-10.9,16.3c1.9,6.3-6.2,3.4-2.8-0.9c-0.7-0.1-3.2,1.6-0.4,6c0.9,1.5,0.4,2.8,1,4.2
			c0.6,1.4,3.2,3.2,1.7,4.9c-1.5,1.6-3-0.9-5.4,1.5c2.5-0.2,2.6-0.5,3.2,0.6c0.7,1.1,2,3.4-0.1,4.9c-0.6-0.9-0.7-2.3,0-2.8
			c-2.8,1.1,1,6.4-2,8.7c-1.5,0.3-3.3-2.4-1.2-3.5c-1.9,0.8-4.9,2.7-2.9,8.4c-1.1-2-0.9-1.4-2-2c-1.1-0.7-0.1-3.3-0.1-3.3
			s-5.9-2.4-5.7-7.3c0.2-4.9,5.3-0.1,3,1.3c3.2-2,1.2-6.7,0.9-8.8c-0.3-2,1.4-2.6,2.6-7.6c1.2-5,2.7-11.4,7-13.5
			c-4.1,1.5-8.6,11.9-10.5,17.2c-1.9,5.3-4,0.7-2-4.2c2-4.9,1.2-7.8,1.1-8c-0.1-0.3-0.6,4.8-2.5,7.9c-1.9,3.1-0.7,6.2-2.1,9.8
			c-1.5,3.6-6.8,4.9-1.6,14.2c5.2,9.3,4.8,10.2,4.4,12.1c-0.3,2-0.7,3.1,2.1,5.3c2.8,2.2,1.7,4.5,0,7c-3.3,5-3.8,0.1-1.7-0.4
			c1.2-2,0-1.1-3.1-4.1c-3.1-3-11.4-9.9-9.3-16.7c0.1-2.3-1-2.3-1.4-3.2c0.8,3.5,0.2,11.6-1.6,14.8c4.6-0.5,8.9,3,4.8,8.3
			c5.5,0.3,3.9,2.3,1.3,3.6c-2.6,1.3-5.3-5.1-2.6-7.3c-3.9,1.7-2.6,9.9-5.7,10.2c-2.9,0.3-1.4-8.3,0.4-10.4c-4,3.9-5.7,10.5-4.4,13
			c-1.5,1.5-9,6.5-10.2,6.5c-1.2,0-1.2-1.5,0.8-2.9c2-1.4,2.8-3.5,3.7-3.9c0.9-0.4,1.9,0.4,2.7,0.3c-0.8-1-2.4-2.6,0.3-4.4
			c2.6-1.7,3.2-6,2.2-8c0,2.7-1.9,5.8-3.2,5.8c-1.4,0,1.4-3,2.2-4.7c1.1-6.1,1.1-16-8.8-20.2c4.6,4.6,5.5,5.7,3.1,8.5
			c5.2,1.1,3.9,10.8,3.1,12.2c-0.9,1.5-2.7,4.1-5,6.1c0.7,0.9-2.7,8.6-7.5,4.4c0.7,1.4,1,3.2,0.7,4.5c-0.9,0.3-13,6.3-16.6,12
			c2-1.6,3.9-2.4,5.8-2.5c1.9-0.1,6.5,0.2,0.6,1.8c-5.8,1.6-4.6,4-10.3,5.5c0,0,2.6,1.3,4.8,3.2c2.1,1.9,7.7,8,14.9,9.1
			c7.3,1.1,4.2,6.6,8.6,9.6c4.4,3,10.5,0.9,12.9,6.7c-2.4-1.4-3.6-1.9-6.1-1.9c3.5,1.6,4.5,2.7,7,5.5c2.5,2.8,2.4,2.5,5.3,3.3
			c2.9,0.9,2.6,3.2,5.3,2.6c0.2,1.6-0.3,2.7-0.3,2.7s11.1,8.5,17.3,10.6c-2.8-1.5-5-2.9-6.6-4.6c-1.5-1.7-1.9-7.3-9.5-13.1
			c-7.6-5.8-11.7-8.2-13.5-9.9c-1.8-1.7-7.5-1.1-7.2-5.5c1.5,1.8,5,1.4,7.8,3.4c2.8,2,4.4,6.4,7.6,2.8c-1-1.5-0.3-2.6,0.9-3.4
			c0.7-0.6,0-3.3,0.3-3.6c0.3-0.3,3,5.2-0.6,8.4c1.8,0,2.6,1.2,3.4,2.9c0.8,1.7,2.4,5.9,8.4,8.2c6,2.3,5.9,4.7,5.9,4.7
			s1.4-3.8-4.3-5.5c6.9,0,10.8,2,9,8.5c1.3-0.8,4.3,2.4,6.7,5.2c-2.3-3.7-2.5-6.5-2.7-10.2c-0.3-3.8-2.4-10.6-9.5-9.6
			c2.5,0.6,3.1,2,2,3.6c-1.1,1.5-9-2.2-8-11.8c0.1,0,0.2,0.1,0.3,0.1c0.7,3.6,2.3,6.4,5.4,6.4c3.5,0,3.7-2.4,4.2-2.2
			c4.6,1.8,9.7,9.9,12.5,19.7c5.3-2.3,6.5,5.3,12.7,4.9c-4.4-3.1-1.3-2.9,1.5-3.3c4.1,1.1,2.8,5.3,2.8,12.1
			c-0.1,5.6-7.9-7.4-18.1-11.1c0,0,3.4,2.7,0.6,7.1c2.6-1.9,5.8,0.4,3.1,2c1.5,1,3.4,0.5,4,0.1c0.8,2.8,2.2,3.7,3.1,4.4
			c1.7,1.3,6,2.4,6,4.1c-0.4-0.2-1.3-0.3-2.6,0.4c3.1-0.5,2.8,6.7,8.1,5.9c0.8,1.2,0.3,2.2,1.3,4.2c0.6-2,0.3-2.4,0.3-3
			c0-0.6-1-1.8,1.2-5.5c-1.5,1.6-3.7,1.3-4.6,2.1c-0.2-0.4-0.6-1.8-1.2-2c1.7-0.6,4-1.2,5-3.7c0.7-2.3,0.5-4.5,1.2-6.1
			c1.7-1.3,5.2-4.5,5.7-4.6c-0.1-0.8-1.3-3.3,0.1-4.3c1.5-1,2.3,0.3,4.2-1.6c-2.2,0.6-5.3-0.4-8.1,2.4c-0.7-1.4-0.6-1.7-0.5-2.6
			c3.6-0.5,14.5-3.4,16.4-7c0,0,0.1,0,0.1,0c-0.3,1.1-1.5,2.9-5.3,5c2.3,0,2.7-0.9,3.7-1c-2.1,1.7-6.1,5.2-6.9,6.6
			c0.3,0.8,0.4,1.4,0.2,1.9c-0.6,1.2-3.9,3.5-7.1,8.1c-0.6,4.7,1.3,10.3-2.7,11c0.1,4.6,1.1,8.1-4.4,9c1.5,0.8,2.7,1,2.7,3.6
			c0,2.6-3.5,3.8-3.5,8.3c-24-0.2-41.7-5.3-55.5-16.7c13.7,13.7,34.7,22.6,56.3,24.4c0.5,1.5,1.3,3.5,2.6,5.5
			c2.5,3.9,4.7,7.5,3.4,10c-0.6-1.8-2.5-5.5-4.5-7c3.4,6.9,5.9,11.6,6.5,17.5c0.8,0.1,1.4,0.5,2.2,1.3c-0.6-3.4-1.2-5.9-0.1-6.4
			c1.1-0.5,1.2,5.7,1.1,6.4c1.4,0.5,3.5,1.9,0.5,3.1c2.2,1.8,3.6,4.2,3.4,7.2c-0.2,3-3.3,4.9-3.6,7c-0.6-2.8-2-7-3.2-8.5
			c0.6-0.2,2.3-0.2,2.3-0.2s-4.6-0.8-4.3-9.3c-2.3-2.8-4.3-3.5-4.3-3.5s1-2.6,0.5-7.2c-0.8,1.3-1.7,3.3-5.8-6.3
			c0.2,5.7,1.6,8.5-0.7,8.9c2,0.8,2.8,4.5,1.3,6.5c-1.3-0.6-2.9-1.2-3-2.4c-0.2,3.4,2.6,4.8,4.1,6c1.4,1.2,6.9,11,0.6,6.6
			c2,3.6,4.7,6.1,5.5,3c2.6,2.3,1.6,5.9,1.3,6.4c-0.8-1.2-2-1.6-2.2-2.9c-0.4,2.5,2.5,4.9,3.6,6s2.6,3,1,3c-1.5,0-3.4-1.9-3.8-3.5
			c0.9,5.2,3.8,6,5.6,8.5c1.8,2.5-0.4,3.6,3.5,6.4c-1.9-4-2.2-6.3,0.4-10c1.1-1.3,3.7-0.5,5.9-6c2.2-5.5,0.6,2.8,8.9-9.1
			c8.3-11.9,23.8-26.7,22.1-36.7c-1.7,7.9-7.3,12.8-7.3,12.8s-2,3.1-2.6,4.8c-0.6,1.7-2.6,2.4-3,4.6c0-1.8-0.6-4.2,0.8-6
			c-2.3,2.6-2.1,5.6-2.9,7.1c-0.8,1.6-6,7.2-9,4.7c2,1.9,4.1,4,1.7,4c-3.5,0-5.4,2.4-5.4,2.4l0.1-2.9c0,0-3.1,6.3-6.3,8.7
			c0.4-2.6,0.5-6.9-0.5-8.9c-0.3-0.6-1.7-1.8-1.7-1.8s1.1-4.3,1.2-5.8c0.1-0.7-1.5-2.1-0.1-2.9c1.6-0.8,4,2.4,4,2.4
			c-1.8-4.6-3.9-4.5-5.1-6.1c-1.1-1.5,0.7-1.2-3.9-6.4c-1-1.1,0.2-1.8-0.5-2.6c-2.2-2.6-4.5-5.7-5.5-7.9c1.1,0,2.2,0.1,3.4,0.1
			c20.4,0,39.4-5.8,55.5-15.9c3.2-2,3.6-4.4,10-4.9c0.9-0.1-0.3-3.2,2-5c1-0.8,3,0.1,3.9-0.8c1.5-1.3,3-5,4.8-6.9
			c0.8-0.8,2.2,0.3,3.2-1c0.7-1,2.2-7.6,4-7.4c0.9,0.1-0.1,2.9-0.1,2.9c2.8-3.2,0.4-6.6,2-8.6c6.9-8.2,7.3-4.8,7.9-6.4
			c0.6-1.6-1.2-4-0.2-5.2c3-4,8.7-8.4,11.3-15.3c0.7-2-0.8-7.6-0.6-8.8c0.2-1,3.7-4.3,3.8-5.3c0.1-0.7-3.5-1-3.4-1.7
			c0.1-0.8,3.5-1.3,3.6-2c0.1-0.9-2.1-1.1-2-2C451.8,277,456.5,275,458,273.5z M352.9,140.4c-0.6-2.6-2-8.1-0.4-10.8
			c-0.3,3,1.7,7.9,2.8,9.9C354.2,139.7,353.3,139.9,352.9,140.4z M334.2,146.9c-0.6-2.6,0.3-6,5.4-10.3
			C339.6,136.6,334.5,144.1,334.2,146.9z M329.4,190.8c0.6,0.8-3.6,6.5-5.3,7.1c-1.3-2.5-2.3-8.8,6.3-15.1c0,0-2.6,3.2-3.9,5.9
			C325.1,191.5,328.8,190,329.4,190.8z M331.7,147.5c-1.3-2.3-1.2-6.1-0.7-9.2c1.1,3.1,10.8-8.7,10.8-8.7c0.2,1.7-3.1,6.4-4.4,7.7
			C336,138.5,332.2,143,331.7,147.5z M280.9,247.9c-0.7,2.4-2,4.3-2,6.1c-0.5-2.3-1.2-2.9-2.6-4.2
			C276.4,249.8,279.9,248.1,280.9,247.9z M273.4,252.2c0,0-0.4,2.3,0.4,3.2c-1.9,0.7-2.7,1.5-3.7,2.6c-0.9,1.1-2.3,1.5-3.2,2.3
			C267,257.8,270.1,254.3,273.4,252.2z M262.3,252.1c0,0-2.1,6.5-6.6,8.3c-0.8-0.6-2.3-1-3.5-0.9C254.8,258,259.6,256.7,262.3,252.1
			z M269.9,276.4c-1.8-4.9-2.3-2-3.2-2.1c-0.9-0.1-1.3-2.6-2.6-2.3c-2.9,0.9-1.8,0.5-4.1-0.6c-2.3-1.1-4.6-1.1-13.1,1.8
			c7.2-3.8,15.7-5.8,18-4.1c4.6,3.3,6.7-2.8,6.7-4.5c0.9,11.4,8.5,19,8.5,19C272.3,277,271.1,275.7,269.9,276.4z M296,287.4
			c0,0.2,0,0.3,0,0.5c-0.1-0.5-0.1-0.9-0.1-0.9s-15.4,3.8-16.7-13.5c2.3,7.6,4.5,6.7,4.5,6.7s0.9-5.1,2.1,0.9c1.8,0,2.9,0.9,3.5,1.4
			c-0.2-2-0.1-3.7,0.6-4.2c-1.2-1.1-2.6-4.5-2.6-5.6c5.9,2,3.8-1.6,4.8-3.4c0,0.3,0.2,0.8,1.9,1.7c1.3,0.7,0.8-1.8,1.9-4.1
			c-0.3,2-0.4,4.1-0.4,6.2c0,7.3,1.7,14.3,4.7,20.5C299.1,294,297.3,293.6,296,287.4z M396.2,219.9c0.4,2.3,2,3.7,2,3.7
			s6.6-1.1,9.7,8.3c-0.1-7.7-4.4-8.4-6-9.8c-1.6-1.3-2.1-3.6-2.3-4.9c3.6,4.3,12.6,9.2,15.8,13.6c0.7,1.3-0.2,2.8-0.2,2.8
			s9.9,4,7.8,17.1c-0.7-6.6-5.6-14-11.8-16.8c5.9,6.2,7.1,15.1,6,15.7c-1.1,0.6-12.9-7.8-14.9-11.5c-2.1-3.7-5.1-7.5-5.1-7.5
			s1.2-4-4.4-8.2c-4.3-3.2-6.7-6.2-13.7-8.8c-1.9-0.7-1.3-2.1-4.9-3.9c-3-1.6-5.8-5.8-5.8-5.8s4.4,2.8,10.5,3.9
			C382.6,212.8,390.9,220,396.2,219.9z M385.9,226.1c-2.1-1.5-3.2-4-3.9-5.6c-0.7-1.6-2.6-3.6-2.6-3.6c2.7,0.1,4.9,4.4,6.7,6.1
			c1.8,1.7,4.4,2.8,7,5.8c-2.1,2,1.2,6.6,4.4,8.8C388.7,233.7,388,227.6,385.9,226.1z M392.6,241.1c-0.1,0-0.2,0-0.3,0
			C392.4,241,392.5,241,392.6,241.1z M392.6,260.9c2.4,0.7,6.7,2.6,9.5,7.5c4,7-1.5,22.3-8.1,23.6c-3.9,0.7-4.4-3.1-4.5-4.8
			c1.4-3,2.2-6.1,2.4-9.2c-1.5,7.6-6,15.6-8.3,13.9c4.7-7.6,6.2-12,6.2-18.8c0-5.5-0.9-10.8-2.6-15.7c1.8,1.9,3.8,5.3,4.3,11.4
			C392.3,265.9,392.6,263.1,392.6,260.9z M364.7,232.5c-1.9-1-2.1-2-0.7-1.6c4.9,1.3-2.5-2.9-4.3-3.7c2.1-5-2.7-14.9-2.7-14.9
			c3.6,2.6,5,8.1,4.8,14.2c1.6-8.1,1-7.5-1.1-10.5c4.3,0.7,3.9,9.9,5.1,12.9c1.2,2.9,3.7,3.7,7,7.7
			C370.9,235,366.8,233.6,364.7,232.5z M372.2,252.1c-0.2,1.7-0.7,4.4-1.7,7.3c-1.6-3.5-3.8-6.7-6.5-9.5c-0.1-4.5-0.9-6.5-1.5-8.1
			C366.3,244.6,369.6,248.1,372.2,252.1z M376.4,261.4c0.3,0.9,0.5,1.9,0.7,2.8c-0.6,1.2-1.8,3.5-4,5.9c-0.1-1.2-0.3-2.5-0.5-3.6
			C374.4,264.8,375.9,262.9,376.4,261.4z M373.3,273.5c1.6-1.1,3.2-2.2,4.7-3.6c0.1,0.9,0.1,1.7,0.1,2.6c0,2.2-0.2,4.3-0.5,6.3
			c0-0.2-0.1-0.3-0.1-0.4c-0.9,1-2.6,2.7-5.5,4.3C372.8,279.9,373.3,276.7,373.3,273.5z M377.8,222c5.9,3.9,4.2,11.6,6.7,13.6
			c1.4,1.1-0.1,1.6-0.1,2.7c0,1.1,0.6,2.1,0,5.8c-2.9-3.3-4.9-17.1-5.1-18.7C379,223.7,377.8,222,377.8,222z M358.3,152.4
			c-0.3-0.4-0.7-0.9-1-1.4c-1-1.7-1.5-4.7-2.3-6.3c3.3,2.5,9.7,11,11.5,13.3C363.3,155.4,360.5,153.6,358.3,152.4z M355.6,204.8
			c-1.9-2.9-1.2-6.6-1.2-8.4c0,4,3.8,7.5,3.8,7.5s-5.9-8.5,0.3-17.9c4.3-4.1,9.7-6.2,14.2-7.4c-11.7,3.9-11.8,7.9-11.4,12
			c-0.3,0.1-3.1,1.4-2.4,4.2c1.8-2.5,5.4-0.7,5.4-0.7s-5.1,0.6-4.7,7.8c0.4,7.2,6.4,12.3,7.6,11.8c1.2-0.6,3.8-3.6,4.6-1.1
			c0.8,2.5,3.3,6,3.2,8.1c-0.1,2.1,0.3,4.8,0.3,4.8s-1-0.8-1.5-0.7c0.3-2.8-3.2-4.9-4.5-5.6c1.3,0.9,1.5,3.1,0.1,3.5
			c-0.8-1.2-1.2-1-1.9-1.3c1.6-2.3-6.4-7.5-8.4-11.2C358.1,208.9,357.5,207.6,355.6,204.8z M325.1,237.1c0.9-0.4,1.8-0.7,2.8-1
			c-0.4,1.1-0.6,2.6-0.5,4.7c0.4-2.5,0.9-4,1.4-5c3.4-1,7-1.5,10.7-1.5c3.6,0,7,0.5,10.3,1.4c0.6,0.9,1.4,2.2,2,4
			c0,0,0.1-1.9-0.1-3.5c2.6,0.9,5.2,2,7.5,3.4c2.9,4.9,1.6,6.4,0.8,6.8c-5.6-4.2-12.5-6.7-20-6.7c-5.9,0-11.5,1.6-16.3,4.3
			C323.6,240.6,324.5,238.3,325.1,237.1z M321.7,238.7c0.1-0.1,0.2-0.1,0.3-0.2c0.4,0.2,1.3,0.3,1.2,1.1c-0.1,0.6-0.2,3.2-0.2,5
			c-0.8,0.5-1.5,1-2.2,1.5C320.5,242.4,321.3,239.8,321.7,238.7z M313.5,244.4C313.5,244.3,313.5,244.3,313.5,244.4
			c0.8-0.7,1.6-1.4,2.4-2c2,1.2,2.5,3.2,2.8,5.4c-0.2,0.2-0.5,0.4-0.7,0.6C316.7,247.8,313,245.3,313.5,244.4z M307.1,251.9
			c1.5,1,3.8,2.9,4.2,3.4c0.2,0.2,0.3,0.6,0.3,0.9c-0.1,0.2-0.2,0.3-0.3,0.5c-2.2-0.2-4.1-2.6-4.8-3.7
			C306.7,252.6,306.9,252.2,307.1,251.9z M305.6,254c0,0,1.3,1.5,2.3,2c2.6,1.4,3.1,2.4-0.2,1.6C304.8,256.5,304.7,255.2,305.6,254z
			 M303,260.3c0.4,0.2,0.8,0.5,1.3,1.1c1.6,1.8,3.8,1.4,4.3,1.2c-0.1,0.4-0.3,0.8-0.4,1.2c-1.6,0.4-3.9,0-6-1
			C302.5,262,302.7,261.2,303,260.3z M301.3,276.2C301.2,276.3,301.2,276.3,301.3,276.2c-0.2-1.2-0.3-2.4-0.3-3.7
			c0-0.8,0-1.7,0.1-2.5c1.3-0.5,4.4-1.5,6-0.8c-0.2,1.3-0.2,2.6-0.2,3.9c0,0.1,0,0.2,0,0.2C305,276,303.6,275.9,301.3,276.2z
			 M304.8,289.2c-0.5-1.1-1-2.2-1.4-3.3c0.8-2,2.7-3.8,4.3-5.3c0.3,1.5,0.8,3,1.4,4.4C308.2,286.9,306.1,289.1,304.8,289.2z
			 M310.6,297.9c-0.7-0.8-1.4-1.7-2.1-2.6c1.1-2.1,2.2-3.7,3.2-4.9c0.6,1,1.3,2,2,2.9c-1.5,2.2-3.2,4.4-3.2,4.4
			C310.6,297.7,310.6,297.8,310.6,297.9z M308.5,249.8c0.9-1.2,1.8-2.3,2.8-3.3c0.4,0.9,3,3.7,4.1,4.4c-0.5,0.6-1,1.1-1.5,1.7
			C312,252.7,309.8,251.3,308.5,249.8z M319.4,304.9c-0.1,0.1-0.1,0.2-0.2,0.3c-1.2-0.7-2.3-1.5-3.3-2.3c0,0,0,0,0.1-0.1
			c0.1-2.8,0.5-4.6,1.2-5.7c1.3,1.3,2.8,2.4,4.3,3.5C320.9,302.2,320.2,303.8,319.4,304.9z M329.3,309.6c0-0.1,0-0.1,0-0.2
			c0,0-1.7-2.4-0.9-5.2c1.8,0.7,3.7,1.2,5.6,1.6c0.5,1.7,1,3.5,1.6,5C333.5,310.5,331.4,310.1,329.3,309.6z M337.8,294.7
			c-1.6-2.2-1.2-4.3,0.4-9c0,0-3.1,5.1-2,8.6c-1.2,0.8-1,3.7-1.1,4.9c-0.3,0.2-0.3,0.5-0.7,0.7c-1.5-0.5-3-1.1-4.4-1.8
			c-0.2-1.5-0.5-3.1,0.3-5.6c-0.5-0.3-2.1-1-2.1-1s0.5-2.2,2.4-2.8c-1-2.3,1.5-0.1,1.5-0.1s-0.3-6.1,1.7-8.5c-2.7,2.3-3.9,4.2-4.1,7
			c-1.6,1.5-3,3.1-3,5.6c-0.9,0.5-1.7,0.6-2.7,1.3c-0.8-0.7-1.6-1.5-2.4-2.3c0.7-3.3,2.5-4.4,3.4-5.6c0-0.5,0-2.2-1.2-3
			c-0.2,0.7-3.2,2.6-5.5,4.4c-0.6-0.9-1.1-1.8-1.5-2.7c1-3,5.8-4.4,5.8-5.1c0.1-0.7-0.4-2.2-0.4-2.2c-1.9,1.5-5.1,1.5-7,3.3
			c-0.5-1.5-0.8-3.1-1.1-4.7c2.9-4,7.1-4.9,7.1-4.9c-3-0.3-5.6,0.6-7.4,1.6c0-0.3,0-0.6,0-0.8c0-1.8,0.2-3.5,0.5-5.2
			c2.2-0.4,4.5-0.7,6.2-1c0,0,0.2-0.4,0.4-1c0.9,0.1,2.7,0.4,3.3,2c0,0,3.2,0.8,9.1-1.3c0,0-7.1,0.5-8.9-4.3c0,0-0.3,0.5-0.4,2.4
			c-0.5-0.4-1.3-0.9-2.6-1c0.1-0.5,0-1.1-0.1-1.6c-1-1.4-3.1-1.7-3.8-3.5c0.8-1.4,1.8-2.8,2.8-4.1c0.7,0.9,1.7,1.6,3.2,2.2
			c-0.7-1.3-1.3-2.6-1.7-3.8c5.4-5.6,12.9-9.2,21.3-9.2c8.2,0,15.4,3.1,20.9,8c0.3,1.6,1.4,10.3-4.6,18.4c6.5-4.2,7.9-11.2,7.7-14
			c1.1,1.6,2.1,3.3,2.9,5.1c-2.2,5.6-6.6,12.1-15.6,14.7c4.5,0.1,10.4-2.8,11.8-4c-0.8,1.7-1.2,2.4-2.7,3.3c1.8-0.3,4.1-2.8,4.9-4.4
			c1.1-0.5,2.4-1.5,3.7-2.7c0.2,1.2,0.3,2.5,0.4,3.8c-2.5,2.5-6,5-11.1,6.4c1.7-1.5,1.6-2.1,1.5-2.8c0,0-5.1,4.8-12.5,5.5
			c8.1-0.2,15.7-2.1,22.1-6c-0.2,3.4-1,6.7-2.3,9.7c-0.5,0.2-0.9,0.4-1.4,0.6c-4.5,1.8-8.5,2.6-10.9,5.5c-1-1.5-0.3-2.8,0.3-2.9
			c-1.6,0-5.4,0.1-11.2-2.6c0,0,6.6,7.5,17.8,7.6c-3.1,3.3-6.9,5.9-11.2,7.5c-3.6-2.4-7.6-6.8-10.9-14.3c0,0,0.6,9,6.9,15.5
			c-2.1,0.5-4.2,0.7-6.4,0.7c-2,0-3.9-0.2-5.8-0.6C336.8,298.1,336.6,295.7,337.8,294.7z M341.3,310.9c0.2-0.1,0.3-0.2,0.3-0.2
			s-1-1.9-2-4.4c0.2,0,0.4,0,0.6,0c4.7,0,9.2-1,13.2-2.7c1.5,1,3.1,1.8,5,2.4c0,0,0.1,0,0.1,0C353.3,308.9,347.5,310.6,341.3,310.9z
			 M357.6,301.4c4-2.5,7.4-5.8,10.1-9.6c1.9-0.2,3.9-0.6,6-1.3c-2.5,4.7-5.9,8.8-10.1,12.1c0-0.1,0.1-0.3,0.2-0.5
			C362.6,302.4,360.3,302.4,357.6,301.4z M417.5,305.3c-0.9,1.2,0.8,5.3-1.2,3.9c0.4,5.5-3.8,22.1-11.6,20.9
			c-0.4-0.1-0.7-0.1-0.9-0.2c-0.1,0-0.2-0.1-0.3-0.1c0,0-1.2,16.7-30.3,29c-8.8,3.5-18.3,5.7-28.4,6.4c0.7-1.3,1.3-2.4,5.8-3.1
			c-0.6-4.5,3.2-11.2,6.3-4c0.1-3.6-0.6-3.7-0.5-6.1c0.2-2.4,2.5-2.2,2.3-7.4c-0.8,3-1.1,4.1-5.9,6c-2.3,0.9-1.4-4.1-0.6-6
			c0.8-1.9,3.6-6.9,7-2.7c2.4-1.9,2.2-6.8,5.9-5.4c-0.5-2.7-1.3-5.1-0.6-6c0.8-0.9,2.5-1.5,3-3.2c0.5-1.7-1.9-3.7,0.3-6.5
			c2.2-2.8,3.3,0.4,10-7.7c-3,1.9-2.4,2-5.2,1.7c-2.7-0.2-2.4,2.9-4.7,4.5c-2.3,1.6-2.8,2.3-2.6,3.5c0.2,1.2-1.7-0.6-2-0.8
			c-0.3-0.2,0.6,2.7-0.9,4.1c-1.5,1.4-2.5,2-2.2,5.5c0.3,3.5-2.2,6-3.1,6c-1,0-3.7-1.9-3.3-5.3c0.4-3.4,2.5-3.2,2.7-4.5
			c0.2-1.3-3.1-1.3,6-6.5c5.6-9.2,10.7-7.5,11-10.8c-2.7,0.9-5.3,1.7-6.7,1.3c-1.3-0.5,2.1-0.6,3-2c0.9-1.3,4,1.7,8.3-2.5
			c1.2-1.1,8.6-2.1,9.4-10.5c0.2,1,0.6,6-7.3,12c-10.4,7,0.8,2,2.7-0.2c-0.3,1.6-0.3,2.4,0.1,3.2c-1.7,1.5-7.1,6.9-13.9,9.2
			c4.9,0.7,12.2-1.3,14.1-4.2c-3.4,1.6-7,1.9-0.1-2.3c5.3-3.2,6.3,1.6-2.7,5.9c7.6-1.3,11.9-6.6,13.7-8.1c1.8-1.5,5-6.6,7.6-5.9
			c-1.7,2.9-4.6,5.6-7,6.7c6.1-0.3,7.4-5.9,11.6-8.8c4.2-2.9,10-6,12.1-4.8c0.8,0.7-9.7,8-11.7,7.9c1.7,0.2,7.5-2.1,9.9-4.7
			c0.9,0.8,1.5,0.1,2.5-0.6C420.5,301,418.5,304.1,417.5,305.3z M423.4,279.9c-1.7,3.1-4.2,5.9-6.7,10.1c0.4-2.2-0.5-3.1-0.5-3.1
			c-1.8,1.4-9.7,14-12.9,16.9c-1.4-0.3-2.4,0-2.4,0s5.9-5.2,7-15.6c-4.7,11.4-11.1,17.5-18.3,20.1c2.7-2.7,3.5-5.2,3.5-7.3
			c-0.8,0-0.1,0.3-1.8,0.9c-0.1-2.7-1.3-5.4,8.6-10.1c-1.2-0.9,0-2.6,3.1-3.8c3.1-1.3,5.2-11.7,3.2-17.2c-2-5.5-8.6-9.2-11.1-12.9
			c0,0-0.1,0-0.1,0c0.3-3.7,0.6-10.1-3.4-16.3c4.8,0.9,5.3,5.6,15,10.3c1.9,2.8,2.3,6.4,2.3,6.4s6.5-9,16.6,14.2
			C422.4,276.2,424.4,278.1,423.4,279.9z M429.7,204c-0.4,2.5-2.6,4-3.7,3.2c-1.1-0.8-1.4-3.9-1.2-7.5c0.1-3.3-0.4-3.5-0.5-3.5
			C426.5,196,430.1,201.5,429.7,204z M446.7,236.3c1.5,1.3,3.1,2.6,4.1,3.8c2,2.3,5.4,5.7,3.6,8.9
			C452.6,245.7,449.9,241.3,446.7,236.3z"/>
		<path class="st23" d="M277.2,238c0.1-0.1,0.3-0.2,0.4-0.4C277.4,237.7,277.3,237.8,277.2,238z"/>
		<path class="st23" d="M280.6,218.8c0-0.1-0.1-0.2-0.1-0.4C280.5,218.6,280.6,218.7,280.6,218.8z"/>
		<path class="st23" d="M307.4,173.6c5,5,8-0.8,8.7-2.2c0.7-1.4,1.2-1,1.4-3.1c-1.1,1.5-2,2.3-3.2,2.3
			C312.8,175.9,307.4,173.6,307.4,173.6z"/>
		<path class="st23" d="M298.3,173.6c-0.1,0.1-0.1,0.2-0.2,0.2C298.2,173.8,298.2,173.7,298.3,173.6z"/>
		<path class="st23" d="M302.4,171.3c1.1-0.7,3-1.8,4-1.9c1.1-0.1,3.8,2.2,3.8,2.2c-1.9-4.9-7.6-3.2-8.7-1.8c-1.1,1.3-2,2.4-3.2,4
			C299,172.9,301.4,171.9,302.4,171.3z"/>
		<path class="st23" d="M296.4,182c3.9-1.8,4.9-8.1,4.9-8.1c-1.6,1.5-3.6,2.9-5,4.7c-1.5,1.8-2.9,2.3-6.4,2.7
			C292.3,181.9,293.8,183.2,296.4,182z"/>
		<path class="st23" d="M284.6,180.4c0.9-2.9,4-2.1,8.3-1.3c0,0-3.1-3.1-6-2.5c-2.8,0.6-6.3,3.9-7.7,8.6
			C281.2,184.9,283.6,183.5,284.6,180.4z"/>
		<path class="st23" d="M273.8,194.3c1.7,0.8,3.9,0.8,7-1.1c3.1-1.9,1.9-7.8,1.9-7.8C282.2,190.3,277.7,192.3,273.8,194.3z"/>
		<path class="st23" d="M274,192.3c-2,0.5-4.3-0.7-5.7,0.4c-1.4,1.1-3.8,2.1-4.3,3.2c-0.6,1.2-0.3,3.3-0.7,6.1
			C266,195.2,274,192.3,274,192.3z"/>
		<path class="st23" d="M264.8,209.8c2.3-4.2,2.4-3.4,2.6-2.9c0.2-0.6,0-1.2-0.6-2.4c-0.5-1.2-0.2-2.5,0-3.9
			c0.2-1.4-0.3-2.1-0.3-2.1c-0.7,7.6-4.6,11.8-8.3,13.6C260.3,212,263.4,210.8,264.8,209.8z"/>
		<path class="st23" d="M258.5,209.4c-1.5,0.6-3.4,1.6-6.8,3.9c-3.4,2.3-2.8,4.7-3.2,5.9c-0.4,1.2-1.5,2.6,1.2,8.5
			C248,216.8,258.5,209.4,258.5,209.4z"/>
		<path class="st23" d="M247,239.9c7.9-4.5,8.6-13.5,3.9-16.1C251,223.8,255.6,232.4,247,239.9z"/>
		<path class="st23" d="M241.9,255.5c-0.5-1.2-1.5-7.6-1.2-8.9c0.2-1.4,1.2-3.6,1.8-5c0.7-1.4,1.6-3.1,3.6-4.6
			c2-1.5,2.6-4.7,2.6-4.7c-0.6,1.5-1.6,2.3-2.2,3.2c-0.6,0.8-2.5,2.6-6.3,5.5c-3.8,2.9-0.9,5.6-0.3,7.1
			C240.5,249.5,240.2,253.5,241.9,255.5z"/>
		<path class="st23" d="M243.3,246.2c1.3,10.1-1.6,14.1-4.2,17.1C248.2,261.2,243.3,246.2,243.3,246.2z"/>
	</g>
</g>
<g id="Arte_Vetorial" class="st0">
	<polygon class="st4" points="250,250 0,0 500,0 	"/>
	<polygon class="st2" points="250,250 0,0 0,500 	"/>
	<g class="st5">
		<path class="st22" d="M127.5,459.3l-0.9-2.9h-8.8l-0.9,2.9h-8.4l9-24.5h9.3l9,24.5H127.5z M122.2,442.1l-2.4,7.9h4.8L122.2,442.1z
			"/>
		<path class="st22" d="M150.7,459.3l-3.4-7.7h-2.7v7.7h-7.4v-24.5h13.1c5.7,0,8.8,3.8,8.8,8.4c0,4.2-2.5,6.5-4.4,7.4l4.4,8.7H150.7
			z M151.6,443.2c0-1.3-1.2-1.9-2.4-1.9h-4.5v3.9h4.5C150.4,445.1,151.6,444.5,151.6,443.2z"/>
		<path class="st22" d="M167,459.3v-18h-6.6v-6.5h20.5v6.5h-6.5v18H167z"/>
		<path class="st22" d="M183.6,459.3v-24.5h18.6v6.5H191v2.4h10.9v6.5H191v2.7h11.2v6.5H183.6z"/>
		<path class="st22" d="M221.2,459.3l-9-24.5h8.4l5.3,16.5l5.3-16.5h8.4l-9,24.5H221.2z"/>
		<path class="st22" d="M240.8,459.3v-24.5h18.6v6.5h-11.2v2.4h10.9v6.5h-10.9v2.7h11.2v6.5H240.8z"/>
		<path class="st22" d="M268,459.3v-18h-6.6v-6.5h20.5v6.5h-6.5v18H268z"/>
		<path class="st22" d="M282.5,447.1c0-7.5,5.8-12.7,13.4-12.7s13.4,5.1,13.4,12.7s-5.8,12.7-13.4,12.7S282.5,454.6,282.5,447.1z
			 M301.7,447.1c0-3.4-2.3-6.1-5.9-6.1c-3.6,0-5.9,2.7-5.9,6.1s2.3,6.1,5.9,6.1C299.4,453.2,301.7,450.5,301.7,447.1z"/>
		<path class="st22" d="M325.4,459.3l-3.4-7.7h-2.7v7.7h-7.4v-24.5H325c5.7,0,8.8,3.8,8.8,8.4c0,4.2-2.5,6.5-4.4,7.4l4.4,8.7H325.4z
			 M326.2,443.2c0-1.3-1.2-1.9-2.4-1.9h-4.5v3.9h4.5C325.1,445.1,326.2,444.5,326.2,443.2z"/>
		<path class="st22" d="M336.8,459.3v-24.5h7.4v24.5H336.8z"/>
		<path class="st22" d="M364.5,459.3l-0.9-2.9h-8.8l-0.9,2.9h-8.4l9-24.5h9.3l9,24.5H364.5z M359.2,442.1l-2.4,7.9h4.8L359.2,442.1z
			"/>
		<path class="st22" d="M374.2,459.3v-24.5h7.4v18h9.3v6.5H374.2z"/>
	</g>
</g>
<g id="Capas_de_Livros" class="st0">
	<polygon class="st2" points="250,250 500,500 0,500 	"/>
	<polygon class="st3" points="250,250 500,500 500,0 	"/>
	<g class="st5">
		<path class="st6" d="M89.9,446.4c0-7.6,5.8-12.7,13.5-12.7c6.4,0,9.6,3.7,11.1,7.1l-6.4,3c-0.6-1.9-2.5-3.6-4.7-3.6
			c-3.6,0-5.9,2.7-5.9,6.1s2.4,6.1,5.9,6.1c2.2,0,4.1-1.7,4.7-3.6l6.4,2.9c-1.4,3.3-4.7,7.2-11.1,7.2
			C95.7,459.1,89.9,454,89.9,446.4z"/>
		<path class="st6" d="M132.7,458.7l-0.9-2.9H123l-0.9,2.9h-8.4l9-24.5h9.3l9,24.5H132.7z M127.4,441.5l-2.4,7.9h4.8L127.4,441.5z"
			/>
		<path class="st6" d="M142.4,458.7v-24.5h13.1c5.7,0,8.8,3.8,8.8,8.4c0,4.5-3.1,8.4-8.8,8.4h-5.6v7.7H142.4z M156.8,442.6
			c0-1.3-1-1.9-2.2-1.9h-4.7v3.9h4.7C155.8,444.5,156.8,443.9,156.8,442.6z"/>
		<path class="st6" d="M180.5,458.7l-0.9-2.9h-8.8l-0.9,2.9h-8.4l9-24.5h9.3l9,24.5H180.5z M175.2,441.5l-2.4,7.9h4.8L175.2,441.5z"
			/>
		<path class="st6" d="M188.3,455.2l3.9-5.5c1.8,1.8,4.6,3.2,7.9,3.2c1.4,0,2.7-0.4,2.7-1.3c0-2.3-13.6,0-13.6-9.6
			c0-4.1,3.4-8.1,10.2-8.1c4,0,7.6,1.1,10.4,3.4l-4,5.2c-2.1-1.6-4.9-2.4-7.2-2.4c-1.5,0-1.9,0.5-1.9,1.1c0,2.3,13.6,0.3,13.6,9.4
			c0,5.4-4,8.5-10.6,8.5C194.5,459.1,190.9,457.6,188.3,455.2z"/>
		<path class="st6" d="M222.1,458.7v-24.5H233c7.7,0,13.4,4.4,13.4,12.2c0,7.8-5.7,12.3-13.4,12.3H222.1z M238.9,446.4
			c0-3.3-1.9-5.8-5.9-5.8h-3.6v11.6h3.5C236.7,452.2,238.9,449.5,238.9,446.4z"/>
		<path class="st6" d="M249.1,458.7v-24.5h18.6v6.5h-11.2v2.4h10.9v6.5h-10.9v2.7h11.2v6.5H249.1z"/>
		<path class="st6" d="M280.3,458.7v-24.5h7.4v18h9.3v6.5H280.3z"/>
		<path class="st6" d="M299.9,458.7v-24.5h7.4v24.5H299.9z"/>
		<path class="st6" d="M317.7,458.7l-9-24.5h8.4l5.3,16.5l5.3-16.5h8.4l-9,24.5H317.7z"/>
		<path class="st6" d="M350.8,458.7l-3.4-7.7h-2.7v7.7h-7.4v-24.5h13.1c5.7,0,8.8,3.8,8.8,8.4c0,4.2-2.5,6.5-4.4,7.4l4.4,8.7H350.8z
			 M351.7,442.6c0-1.3-1.2-1.9-2.4-1.9h-4.5v3.9h4.5C350.5,444.5,351.7,443.9,351.7,442.6z"/>
		<path class="st6" d="M360.9,446.4c0-7.5,5.8-12.7,13.4-12.7c7.6,0,13.4,5.1,13.4,12.7s-5.8,12.7-13.4,12.7
			C366.7,459.1,360.9,454,360.9,446.4z M380.2,446.4c0-3.4-2.3-6.1-5.9-6.1c-3.6,0-5.9,2.7-5.9,6.1s2.3,6.1,5.9,6.1
			C377.9,452.6,380.2,449.9,380.2,446.4z"/>
		<path class="st6" d="M388.5,455.2l3.9-5.5c1.8,1.8,4.6,3.2,7.9,3.2c1.4,0,2.7-0.4,2.7-1.3c0-2.3-13.6,0-13.6-9.6
			c0-4.1,3.4-8.1,10.2-8.1c4,0,7.6,1.1,10.4,3.4l-4,5.2c-2.1-1.6-4.9-2.4-7.2-2.4c-1.5,0-1.9,0.5-1.9,1.1c0,2.3,13.6,0.3,13.6,9.4
			c0,5.4-4,8.5-10.6,8.5C394.6,459.1,391.1,457.6,388.5,455.2z"/>
	</g>
</g>
<g id="Camada_3">
	<path class="st24" d="M0,0v500h500V0H0z M479.5,479.5h-459v-459h459V479.5z"/>
</g>
</svg>
