<?xml version="1.0" encoding="utf-8"?>
<!-- Generator: Adobe Illustrator 22.0.1, SVG Export Plug-In . SVG Version: 6.00 Build 0)  -->
<svg version="1.1" id="Camada_1" xmlns="http://www.w3.org/2000/svg" xmlns:xlink="http://www.w3.org/1999/xlink" x="0px" y="0px"
	 viewBox="0 0 1920 1312" style="enable-background:new 0 0 1920 1312;" xml:space="preserve">
<style type="text/css">
	.st0{fill:#FFFFFF;}
</style>
<g id="ImaginE">
	<g>
		<path class="st0" d="M544.1,597.4c-41.3,0-71.1,23.5-88.9,64.9c-2.4-40.8-27.4-64.9-66.3-64.9c-40.8,0-68.2,19.7-88.4,63.4v-57.6
			c-1.9-1.4-4.8-1.4-6.7,0V854c1.9,1.4,4.8,1.4,6.7,0V676.2c21.1-54.8,51.9-72.1,87.9-72.1c37.9,0,60,24,60,64.4v185.4
			c1.9,1.4,4.8,1.4,6.7,0V677.6c21.1-56.2,52.4-73.5,88.4-73.5c37.9,0,60,24,60,64.4v185.4c1.9,1.4,4.8,1.4,6.7,0V668
			C610.4,623.8,584.9,597.4,544.1,597.4z"/>
		<path class="st0" d="M778.5,597.4c-39.4,0-76.9,13-76.9,13c0,2.4,1,5.8,2.9,6.7c0,0,33.1-13,73-13c53.8,0,71.6,23.5,71.6,74.5
			v43.2c-18.7-2.4-50.4-5.3-79.3-5.3c-57.6,0-87.4,29.8-87.4,72.5c0,44.7,25.5,70.6,74.5,70.6c42.8,0,83.1-27.4,92.7-69.7v64.4
			c1.9,1,4.3,1,6.2,0V678.6C855.9,620.5,831.4,597.4,778.5,597.4z M849.2,754.5c0,62.9-42.3,98.5-94.6,98.5
			c-42.8,0-65.3-24-65.3-63.9c0-41.8,29.8-66.8,82.6-66.8c28.3,0,59.1,2.4,77.3,5.3V754.5z"/>
		<path class="st0" d="M1068.7,609.4c-13-7.7-29.8-12-49.5-12c-52.4,0-83.1,29.8-83.1,80.2c0,35.1,15.4,60,42.3,72.1
			c-16.3,15.4-25.5,32.7-25.5,50.9c0,12,5.3,21.1,14.9,27.4c-15.9,12-42.8,34.1-42.8,75.9c0,38.4,27.4,71.1,90.8,71.1
			c77.8,0,112.4-36.5,112.4-75.4c0-95.6-168.1-36-168.1-99.9c0-21.1,12.5-36,25-47.6c10.1,3.4,21.1,5.3,34.1,5.3
			c52.4,0,83.1-29.8,83.1-79.7c0-27.4-9.1-48.5-25.5-62.5l52.8-9.6c1-3.8,0.5-4.8-1-7.2L1068.7,609.4z M1121,900.1
			c0,39.9-41.3,67.7-105.7,67.7c-52.4,0-83.1-25-83.1-64.4c0-27.4,14.9-53.3,42.3-71.6C1020.2,852,1121,830.9,1121,900.1z
			 M1095.1,677.6c0,45.6-28.3,72.5-75.9,72.5s-75.9-26.9-75.9-72.5c0-46.1,28.3-73,75.9-73C1066.8,604.6,1095.1,631.5,1095.1,677.6z
			"/>
		<path class="st0" d="M1197.9,602.2c-2.9,0-3.4,1-3.4,1V854c0,0,0.5,1,3.4,1s3.4-1,3.4-1V603.2
			C1201.3,603.2,1200.8,602.2,1197.9,602.2z"/>
		<path class="st0" d="M1191.2,521.5v9.6c0,0,2.9,1.9,6.7,1.9c4.3,0,6.7-1.9,6.7-1.9v-9.6c0,0-2.4-1.9-6.7-1.9
			C1194.1,519.6,1191.2,521.5,1191.2,521.5z"/>
		<path class="st0" d="M1396.8,597.4c-40.8,0-74,20.7-94.6,63.9v-58.1c-1.9-1.4-4.8-1.4-6.7,0V854c1.9,1.4,4.8,1.4,6.7,0V676.2
			c22.1-54.3,57.6-72.1,93.7-72.1c41.3,0,66.8,23.1,66.8,64.4v185.4c1.9,1.4,4.8,1.4,6.7,0V668
			C1469.3,624.3,1441.5,597.4,1396.8,597.4z"/>
		<path class="st0" d="M1754.2,847.7h-179.7V682.9h150.8c1-2.4,1-4.8,0-7.2h-150.8V516.2c0,0,173.4,0.1,174.9,0v-50.9h-746.2
			c-2.3-4.7,4.9-23.6,2.1-30.4c-1.9-4.6,4.5-8.7,6.6-12.6s4.2-13.2,4.8-22.5s29.2-60.8,29.2-61c7.2-13,11.3-28,11.3-44
			c0-50.2-40.5-90.9-90.6-91.3l0,0c-0.1,0-0.2,0-0.4,0c-0.1,0-0.2,0-0.4,0l0,0c-50.1,0.4-90.6,41.1-90.6,91.3c0,16,4.1,30.9,11.3,44
			c0,0.2,28.6,51.7,29.2,61c0.6,9.3,2.7,18.6,4.8,22.5s8.5,8,6.6,12.6c-2.8,6.8,4.4,25.7,2.1,30.4H186.7v23.9
			c-11.1,1.1-19,6.3-19,6.3v32.6c0,0,7.9,5.3,19,6.3v319.5c0,0,1,1,3.4,1c2.9,0,3.4-0.5,3.8-1V534.5c12.5-0.9,19.4-6.4,19.4-6.4
			v-32.6c0,0-6.9-5.5-19.4-6.4v-16.9l733.8,0.3c0,0,8,0.3,9.5-2.2c4.9-8.2-4.7-27.9-0.4-35.1c2.7-4.6-6.1-11.7-8.2-15.6
			c-2.1-3.9-3.9-9-5.1-22.5c-0.5-6-25.4-56.4-25.3-56.4c-8.8-13.1-14-28.9-14-45.9c0-45.4,36.7-82.3,82.1-82.5
			c45.4,0.2,82.1,37,82.1,82.5c0,17-5.1,32.8-14,45.9c0.1,0-24.8,50.4-25.3,56.4c-1.2,13.5-3,18.6-5.1,22.5s-10.9,11-8.2,15.6
			c4.3,7.2-5.2,26.9-0.4,35.1c1.5,2.5,9.5,2.2,9.5,2.2h737.2V509h-174.9v345.9h186.9C1755.1,852.5,1755.1,850.1,1754.2,847.7z
			 M207.4,523.8c0,0-6,4.8-16.8,4.8c-9.6,0-16.8-4.8-16.8-4.8v-24c0,0,7.2-4.8,16.8-4.8c10.8,0,16.8,4.8,16.8,4.8V523.8z"/>
	</g>
</g>
</svg>
