<?xml version="1.0" encoding="utf-8"?>
<!-- Generator: Adobe Illustrator 22.0.1, SVG Export Plug-In . SVG Version: 6.00 Build 0)  -->
<svg version="1.1" id="Camada_1" xmlns="http://www.w3.org/2000/svg" xmlns:xlink="http://www.w3.org/1999/xlink" x="0px" y="0px"
	 viewBox="0 0 1920 1312" style="enable-background:new 0 0 1920 1312;" xml:space="preserve">
<style type="text/css">
	.st0{fill:#52AA58;}
	.st1{fill:#9E266E;}
	.st2{fill:#FFD03B;}
</style>
<g id="Ruth_William_C">
	<path class="st0" d="M762.6,637.8c0,0-10.5,12.3-26.7,13.1c-16.2,0.7-17.4-6.1-16.8-11.1c0.6-4.8,8.1-15.2,17.9-7.6
		C751,642.9,762.6,637.8,762.6,637.8z"/>
	<path class="st0" d="M706.2,648.6c0,0,13.5-6,14.4-10.6l1,3.1c0,0-9.5,9.4-14.2,11.3C708,652.9,706.2,648.6,706.2,648.6z"/>
	<g>
		<path class="st0" d="M717.3,638.6c0,0,0.1,0.5,0.2,1.3c-3.8-0.4-11.9-10.1-7.4-18.9c9.4-18.3,9.1-23.9,9.1-23.9
			s11.7,10.2,13.1,26.7c0.1,0.9-0.3,3.4-0.3,4.2C719.4,624.9,717.3,638.6,717.3,638.6z"/>
	</g>
	<path class="st0" d="M1121.2,663.7c0,0-14.5,36.4,16,31.4c1.6,0.8-9.1,20.1-9.1,20.1s-16-7.7-16-22.5s6.6-30.9,6.6-30.9
		L1121.2,663.7z"/>
	<path class="st0" d="M800.8,663.7c0,0,12.9,37.2-17.6,32.2c-1.6,0.8,10.7,19.3,10.7,19.3s16-7.7,16-22.5s-6.6-30.9-6.6-30.9
		L800.8,663.7z"/>
	<path class="st1" d="M1135.4,663.7c17.6,26.5-11,64.9-63.9,64.9c-28.2,0-50.7-8.1-65.6-15.7c-2.1,1.4-4.4,2.6-6.9,3.6
		c18.1,10.8,44,20.6,78.7,20.6C1154.4,737,1166.2,670.2,1135.4,663.7z"/>
	<path class="st1" d="M784.6,663.7c-17.6,26.5,11,64.9,63.9,64.9c28.2,0,50.7-8.1,65.6-15.7c2.1,1.4,4.4,2.6,6.9,3.6
		c-18.1,10.8-44,20.6-78.7,20.6C765.6,737,753.8,670.2,784.6,663.7z"/>
	<path class="st1" d="M638.1,648.7c0-24.2,2.8-82.6,36.9-82.6c34.1,0,33.6,45.7,2.2,45.7c-21.5,0-12.1-22.6-12.1-22.6
		s-0.6,10.5,11.6,10.5c12.1,0,8.8-19.8-3.3-19.8s-30.8,9.9-30.8,67.2c0,36.7,12.7,58.2,26.7,72.8c5.6-5,13.3-8.2,20-11.7
		c-13.4-15.5-19.1-31.9-19.1-44.4c0-33.5,47.4-34.2,47.4,12c0,19.1-7.5,28.1-16.4,34.3c20.3,20.3,63.9,40.6,126.5,40.6
		c55.2,0,89.2-18.7,105.7-31.1c1.9,0.2,3.8,0.3,5.8,0.3c2.1,0,4.2-0.1,6.2-0.4c0.1,0,0.3,0.1,0.4,0.1
		c-21.2,18.7-57.8,38.2-118.1,38.2c-67.1,0-109.1-20.2-132.8-43.7c-6.7,4-13.3,7.5-17.4,13.4c21.2,18.2,40.7,24.4,20.8,45.7
		c-7.7,8.3-36.9,2.1-36.9-36.2c0-5.3,1.6-9.6,4.1-13C643.8,698.1,638.1,668.2,638.1,648.7z M695.9,704.2c4.9-3.3,8.3-7.3,8.3-13.1
		c0-24.2-22-24.2-15.4,0C689.9,695.2,692.3,699.7,695.9,704.2z M683.8,741.8c-3.4-2.6-6.4-5.4-9.4-8.2c-0.7,2.4-1.1,5.1-1.1,8.2
		C673.4,776.4,710.8,762.7,683.8,741.8z"/>
	<path class="st0" d="M1213.8,648.6c0,0-13.5-6-14.4-10.6l-1,3.1c0,0,9.5,9.4,14.2,11.3C1212,652.9,1213.8,648.6,1213.8,648.6z"/>
	<path class="st0" d="M1157.4,637.8c0,0,10.5,12.3,26.7,13.1c16.2,0.7,17.4-6.1,16.8-11.1c-0.6-4.8-8.1-15.2-17.9-7.6
		C1169,642.9,1157.4,637.8,1157.4,637.8z"/>
	<path class="st1" d="M1281.9,648.7c0-24.2-2.8-82.6-36.9-82.6s-33.6,45.7-2.2,45.7c21.5,0,12.1-22.6,12.1-22.6s0.6,10.5-11.6,10.5
		s-8.8-19.8,3.3-19.8c12.1,0,30.8,9.9,30.8,67.2c0,36.7-12.7,58.2-26.7,72.8c-5.6-5-13.3-8.2-20-11.7c13.4-15.5,19.1-31.9,19.1-44.4
		c0-33.5-47.4-34.2-47.4,12c0,19.1,7.5,28.1,16.4,34.3c-20.3,20.3-63.9,40.6-126.5,40.6c-55.2,0-89.2-18.7-105.7-31.1
		c-1.9,0.2-3.8,0.3-5.8,0.3c-2.1,0-4.2-0.1-6.2-0.4c-0.1,0-0.3,0.1-0.4,0.1c21.2,18.7,57.8,38.2,118.1,38.2
		c67.1,0,109.1-20.2,132.8-43.7c6.7,4,13.3,7.5,17.4,13.4c-21.2,18.2-40.7,24.4-20.8,45.7c7.7,8.3,36.9,2.1,36.9-36.2
		c0-5.3-1.6-9.6-4.1-13C1276.2,698.1,1281.9,668.2,1281.9,648.7z M1224.1,704.2c-4.9-3.3-8.3-7.3-8.3-13.1c0-24.2,22-24.2,15.4,0
		C1230.1,695.2,1227.7,699.7,1224.1,704.2z M1236.2,741.8c3.4-2.6,6.4-5.4,9.4-8.2c0.7,2.4,1.1,5.1,1.1,8.2
		C1246.6,776.4,1209.2,762.7,1236.2,741.8z"/>
	<g>
		<path class="st1" d="M960.8,260.2c-124.6,0-225.6,101-225.6,225.6s101,225.6,225.6,225.6s225.6-101,225.6-225.6
			S1085.4,260.2,960.8,260.2z M960.8,701.1c-118.9,0-215.2-96.4-215.2-215.2S842,270.7,960.8,270.7S1176,367,1176,485.8
			S1079.7,701.1,960.8,701.1z"/>
		<path class="st0" d="M960.8,246.4c-132.3,0-239.5,107.2-239.5,239.5s107.2,239.5,239.5,239.5s239.5-107.2,239.5-239.5
			S1093.1,246.4,960.8,246.4z M960.8,715.2c-126.7,0-229.3-102.7-229.3-229.3c0-126.7,102.7-229.3,229.3-229.3
			c126.7,0,229.3,102.7,229.3,229.3S1087.5,715.2,960.8,715.2z"/>
	</g>
	<polygon class="st2" points="960,805.4 947.7,770.9 960,736.5 972.3,770.9 	"/>
	<polygon class="st2" points="960,166.3 972.3,200.7 960,235.2 947.7,200.7 	"/>
	<path class="st1" d="M984.5,755.5c0,0,8.7,5.3,8.7,20.9c0,15.6-14.7,18.1-21.7,11.2c2.5,8.7,9.9,12.4,18,12.4
		C1004.7,800,1021.8,770.1,984.5,755.5z"/>
	<path class="st0" d="M981.7,218.6c3.6-3.1,6.5-6.4,8.4-9.7c1.8-3.1,2.9-7.7,2.9-13.8c0-15.6-14.7-18.1-21.7-11.2
		c2.5-8.7,9.9-12.4,18-12.4c12,0,27.5,22.3,1.6,46.3c-32.8,30.5,2.6,31.2,2.6,31.2s-8,7.1-19.2,1.3
		C963.2,244.6,971.6,227.4,981.7,218.6z"/>
	<path class="st0" d="M992.8,209.9c0,0-8.7,12.1,0,18.2c8.7,6.2,30.2,26.2,13.9,24.5s18.5,4.4,18.5,4.4s11.4,1.5-21.9-27.7
		c-19.6-17.2-3.7-28.6-3.7-28.6L992.8,209.9z"/>
	<path class="st0" d="M1011,239.6c0,0,7.2-12.8,11.9-13.4l-3-1.3c0,0-10.3,8.6-12.6,13C1006.9,237.4,1011,239.6,1011,239.6z"/>
	<path class="st0" d="M1027.1,184.4c0,0-13.3,9.2-15.5,25.3s4.5,17.9,9.5,17.7c4.9-0.1,15.9-6.6,9.3-17.1
		C1020.9,195.5,1027.1,184.4,1027.1,184.4z"/>
	<g>
		<path class="st0" d="M1022,229.4c0,0-0.5-0.1-1.2-0.3c0,3.8,9,12.8,18.1,9.2c19.1-7.6,24.6-6.8,24.6-6.8s-9.1-12.6-25.3-15.5
			c-0.9-0.2-3.4-0.1-4.2-0.1C1035.9,228.6,1022,229.4,1022,229.4z"/>
	</g>
	<path class="st0" d="M1124.4,313.1c0,0,12.5-7.8,12.7-12.5l1.4,3c0,0-8.1,10.7-12.4,13.3C1126.8,317.1,1124.4,313.1,1124.4,313.1z"
		/>
	<path class="st0" d="M1165.2,270.6c0,0,1.9,16.1-8.6,28.5s-16.3,8.6-19.6,4.7c-3.1-3.7-5.6-16.2,6.6-18.3
		C1161.1,282.5,1165.2,270.6,1165.2,270.6z"/>
	<g>
		<path class="st0" d="M1202.7,638.6c0,0-0.1,0.5-0.2,1.3c3.8-0.4,11.9-10.1,7.4-18.9c-9.4-18.3-9.1-23.9-9.1-23.9
			s-11.7,10.2-13.1,26.7c-0.1,0.9,0.3,3.4,0.3,4.2C1200.6,624.9,1202.7,638.6,1202.7,638.6z"/>
	</g>
	<path class="st0" d="M1164.1,612.5c0,0,49.5-72.4,90.7-81.5s-42.5-11.9-56.3-53.6c-2.2,2.5,0,16.5,0,16.5s18.2,14.3,41.4,23.5
		c25.4,10.1,13.6,4.6-15.5,23.8s-60.3,64.3-60.3,64.3L1164.1,612.5L1164.1,612.5z"/>
	<path class="st0" d="M1176,580.5c0,0,38.3-45.3,40.1-84.9c1.9-39.6-12.7-92.5-40.1-98.7c-2.9,2.1,4.1,7.4,4.1,7.4
		s31.5,13,31.5,90.1c0,32.8-35.6,77.5-35.6,77.5V580.5z"/>
	<path class="st0" d="M1137.8,306.2c0,0,8.2,9.7,20.7-7c11.6-3.9,11.4,5.8,20.7,4.7C1169.8,311.3,1149.4,323.2,1137.8,306.2z"/>
	<path class="st0" d="M1132,307.5c0,0-0.8-4.1-1.8-6.9c0.2,0.2,1.8-0.9,1.8-0.9s2.2,7.1,1.7,7.8C1133.3,308.2,1132,307.5,1132,307.5
		z"/>
	<path class="st0" d="M1119.9,261.4c0,0,1.4,10.5,0,16.7s-1.5,18.2,10.4,22.5c0.5,1.6,1.8-0.9,1.8-0.9s3.9-5.7,1.5-16.5
		C1131,271.7,1125.1,264.9,1119.9,261.4z"/>
	<path class="st0" d="M1070.3,279.4c0,0-7.3-4.5-6.7-16.5c0.5-12.1,14.8-34,36.4-26.4c23.4,8.2,6.8,37.1-7.2,24.9
		c-10.7-8.7,3.1-20.7,10.4-16.7c0.3-0.3,1.1-6.8-12.9-6.8s-26.1,24.1-17.4,36.5C1081.5,286.7,1070.3,279.4,1070.3,279.4z"/>
	<path class="st0" d="M1160.6,362.7c0,0,4.5,7.3,16.5,6.7s34-14.8,26.4-36.4c-8.2-23.4-37.1-6.8-24.9,7.2
		c8.7,10.7,20.7-3.1,16.7-10.4c0.3-0.3,6.8-1.1,6.8,12.9c0,14.1-24.1,26.1-36.5,17.4S1160.6,362.7,1160.6,362.7z"/>
	<path class="st0" d="M759.4,362.7c0,0-4.5,7.3-16.5,6.7s-34-14.8-26.4-36.4c8.2-23.4,37.1-6.8,24.9,7.2
		c-8.7,10.7-20.7-3.1-16.7-10.4c-0.3-0.3-6.8-1.1-6.8,12.9c0,14.1,24.1,26.1,36.5,17.4S759.4,362.7,759.4,362.7z"/>
	<path class="st1" d="M935.5,755.5c0,0-8.7,5.3-8.7,20.9c0,15.6,14.7,18.1,21.7,11.2c-2.5,8.7-9.9,12.4-18,12.4
		C915.3,800,898.2,770.1,935.5,755.5z"/>
	<path class="st0" d="M938.3,218.6c-3.6-3.1-6.5-6.4-8.4-9.7c-1.8-3.1-2.9-7.7-2.9-13.8c0-15.6,14.7-18.1,21.7-11.2
		c-2.5-8.7-9.9-12.4-18-12.4c-12,0-27.5,22.3-1.6,46.3c32.8,30.5-2.6,31.2-2.6,31.2s8,7.1,19.2,1.3
		C956.9,244.6,948.4,227.4,938.3,218.6z"/>
	<path class="st0" d="M927.2,209.9c0,0,8.7,12.1,0,18.2c-8.7,6.2-30.2,26.2-13.9,24.5s-18.5,4.4-18.5,4.4s-11.4,1.5,21.9-27.7
		c19.6-17.2,3.7-28.6,3.7-28.6L927.2,209.9z"/>
	<path class="st0" d="M909,239.6c0,0-7.2-12.8-11.9-13.4l3-1.3c0,0,10.3,8.6,12.6,13C913.1,237.4,909,239.6,909,239.6z"/>
	<path class="st0" d="M892.9,184.4c0,0,13.3,9.2,15.5,25.3s-4.5,17.9-9.5,17.7c-4.9-0.1-15.9-6.6-9.3-17.1
		C899.1,195.5,892.9,184.4,892.9,184.4z"/>
	<g>
		<path class="st0" d="M898,229.4c0,0,0.5-0.1,1.2-0.3c0,3.8-9,12.8-18.1,9.2c-19.1-7.6-24.6-6.8-24.6-6.8s9.1-12.6,25.3-15.5
			c0.9-0.2,3.4-0.1,4.2-0.1C884.1,228.6,898,229.4,898,229.4z"/>
	</g>
	<path class="st0" d="M795.6,313.1c0,0-12.5-7.8-12.7-12.5l-1.4,3c0,0,8.1,10.7,12.4,13.3C793.2,317.1,795.6,313.1,795.6,313.1z"/>
	<path class="st0" d="M754.8,270.6c0,0-1.9,16.1,8.6,28.5s16.3,8.6,19.6,4.7c3.1-3.7,5.6-16.2-6.6-18.3
		C758.9,282.5,754.8,270.6,754.8,270.6z"/>
	<path class="st0" d="M757.9,613.2c0,0-51.5-73.1-92.7-82.2s42.5-11.9,56.3-53.6c2.2,2.5,0,16.5,0,16.5s-18.2,14.3-41.4,23.5
		c-25.4,10.1-13.6,4.6,15.5,23.8s60.3,64.3,60.3,64.3l5.1,5.2L757.9,613.2z"/>
	<path class="st0" d="M744,580.5c0,0-38.3-45.3-40.1-84.9c-1.9-39.6,12.7-92.5,40.1-98.7c2.9,2.1-4.1,7.4-4.1,7.4
		s-31.5,13-31.5,90.1c0,32.8,35.6,77.5,35.6,77.5V580.5z"/>
	<path class="st0" d="M782.2,306.2c0,0-8.2,9.7-20.7-7c-11.6-3.9-11.4,5.8-20.7,4.7C750.2,311.3,770.6,323.2,782.2,306.2z"/>
	<path class="st0" d="M788,307.5c0,0,0.8-4.1,1.8-6.9c-0.2,0.2-1.8-0.9-1.8-0.9s-2.2,7.1-1.7,7.8C786.7,308.2,788,307.5,788,307.5z"
		/>
	<path class="st0" d="M800.2,261.4c0,0-1.4,10.5,0,16.7s1.5,18.2-10.4,22.5c-0.5,1.6-1.8-0.9-1.8-0.9s-3.9-5.7-1.5-16.5
		C789,271.7,794.9,264.9,800.2,261.4z"/>
	<path class="st0" d="M849.7,279.4c0,0,7.3-4.5,6.7-16.5c-0.5-12.1-14.8-34-36.4-26.4c-23.4,8.2-6.8,37.1,7.2,24.9
		c10.7-8.7-3.1-20.7-10.4-16.7c-0.3-0.3-1.1-6.8,12.9-6.8s26.1,24.1,17.4,36.5C838.5,286.7,849.7,279.4,849.7,279.4z"/>
	<g>
		<path class="st1" d="M589.8,1060.9c2.3,6.8,6.8,10.1,13.4,10.1c2.8,0,5.1-0.7,6.9-2c1.8-1.3,2.8-3.1,2.8-5.4c0-1.5-0.3-2.7-1-3.8
			c-0.7-1.1-1.5-2.1-2.5-2.9c-1-0.9-2.2-1.6-3.6-2.3c-1.3-0.7-2.7-1.4-4.1-2.1c-1.4-0.7-2.8-1.4-4.1-2.2c-1.4-0.8-2.6-1.6-3.6-2.6
			s-1.9-2.1-2.5-3.3c-0.7-1.3-1-2.7-1-4.5c0-3.4,1.4-6.1,4.3-8.3c2.9-2.2,6.4-3.3,10.5-3.3c1.9,0,3.8,0.3,5.7,0.8
			c1.9,0.6,3.5,1.3,4.8,2.2v8.7c-0.9-2.8-2.4-4.9-4.3-6.3c-1.9-1.4-4.3-2.1-7.1-2.1c-2.6,0-4.7,0.7-6.4,2.1s-2.5,3.1-2.5,5.1
			c0,1.6,0.6,3.1,1.7,4.4c1.1,1.3,3,2.6,5.6,3.9l4.1,2c3.2,1.6,5.5,3,7,4.2s2.6,2.6,3.3,4.1c0.8,1.5,1.1,3.2,1.1,5.1
			c0,2.3-0.6,4.3-1.9,6.1c-1.2,1.8-3,3.3-5.4,4.3s-5.3,1.5-8.7,1.5c-2.4,0-4.7-0.3-6.8-1c-2.1-0.6-4-1.5-5.7-2.5V1060.9z"/>
		<path class="st1" d="M640.3,1074.4c-3.2,0-6.1-0.7-8.5-2.1s-4.3-3.3-5.6-5.8s-2-5.2-2-8.1c0-3,0.7-5.9,2.1-8.6
			c1.4-2.7,3.4-4.8,6-6.3s5.5-2.3,8.8-2.3c3.2,0,6.1,0.7,8.5,2.1s4.3,3.3,5.7,5.8c1.3,2.5,2,5.2,2,8.2c0,3.1-0.7,6-2.2,8.6
			c-1.5,2.7-3.5,4.7-6,6.2C646.6,1073.7,643.6,1074.4,640.3,1074.4z M641.6,1071.2c2,0,3.8-0.6,5.3-1.7s2.6-2.7,3.5-4.6
			c0.8-1.9,1.2-4,1.2-6.2c0-2.5-0.5-4.9-1.5-7.1s-2.4-3.9-4.1-5.2c-1.8-1.3-3.8-2-6.1-2c-1.9,0-3.6,0.5-5.1,1.5s-2.7,2.5-3.6,4.5
			c-0.9,2-1.4,4.2-1.4,6.4c0,2.5,0.5,4.9,1.5,7.1s2.4,4,4.1,5.3C637.2,1070.6,639.3,1071.2,641.6,1071.2z"/>
		<path class="st1" d="M665.9,1037.1c0-2.3-0.3-3.9-0.8-4.9c-0.6-1-1.5-1.5-2.9-1.5h-0.7l9.9-3.5v19.8c1.1-1.6,2.7-3,4.8-4.1
			s4.2-1.6,6.4-1.6c2.4,0,4.6,0.6,6.5,1.9c1.9,1.2,3.4,3,4.4,5.3s1.6,5,1.6,8c0,3.2-0.7,6.2-2.1,9c-1.4,2.8-3.3,4.9-5.7,6.5
			c-2.4,1.5-5.1,2.3-8.1,2.3c-1.8,0-3.3-0.1-4.4-0.3c-1.1-0.2-1.9-0.4-2.6-0.6c-0.7-0.2-1.2-0.4-1.7-0.6c-0.4-0.2-0.9-0.3-1.5-0.3
			c-0.7,0-1.3,0.2-1.7,0.6c-0.5,0.4-0.9,0.8-1.4,1.3V1037.1z M671.2,1065.5c0,1.8,0.7,3.2,2,4.2s3.3,1.5,5.9,1.5
			c2,0,3.8-0.6,5.3-1.8c1.6-1.2,2.8-2.8,3.6-4.8c0.9-2,1.3-4.3,1.3-6.7c0-3.8-0.8-6.9-2.5-9.2c-1.6-2.4-3.8-3.5-6.5-3.5
			c-1.6,0-3.1,0.4-4.5,1.3s-2.6,2-3.4,3.4c-0.8,1.4-1.3,2.9-1.3,4.4v11.2H671.2z"/>
		<path class="st1" d="M703.3,1049.9c0-1.3-0.1-2.3-0.3-3s-0.5-1.3-0.9-1.6c-0.4-0.3-1.1-0.5-1.9-0.5h-0.7l9-3.6v8.3
			c0.8-2.2,2.3-4.1,4.4-5.7c2.1-1.6,4.3-2.4,6.5-2.4c1,0,2.1,0.2,3.2,0.7v6.9c-0.6-0.8-1.4-1.5-2.3-2.1c-0.9-0.6-1.9-0.8-3.1-0.8
			c-1.5,0-2.9,0.6-4.3,1.7c-1.4,1.1-2.4,2.6-3.2,4.5s-1.1,4-1.1,6.2v9.2c0,1.7,0.3,3,0.8,4.1c0.5,1,1.2,1.6,2.1,1.8h-11.1
			c1-0.2,1.7-0.8,2.2-1.8s0.8-2.4,0.8-4v-17.9L703.3,1049.9L703.3,1049.9z"/>
		<path class="st1" d="M729.2,1053.9c-0.6-1.2-0.9-2.4-0.9-3.6c0-1.6,0.6-3.1,1.7-4.5c1.1-1.4,2.7-2.5,4.8-3.3s4.4-1.2,7.1-1.2
			c3.4,0,6.1,0.8,8,2.5s2.9,3.9,2.9,6.9v14.3c0,1.9,0.5,3.4,1.4,4.5s2.3,1.7,4,1.7c0.3,0,0.7,0,1.2-0.1l-5.5,3.7
			c-1.5-0.2-2.7-0.8-3.8-1.9c-1.1-1-1.7-2.1-1.9-3.1c-0.9,1.5-2.3,2.6-4.3,3.4s-4.2,1.3-6.6,1.3c-2.9,0-5.2-0.7-7-2
			s-2.7-3.1-2.7-5.3c0-2.6,1.7-4.9,5-7s8.3-3.8,14.8-5.1v-3.4c0-2.4-0.6-4.3-1.8-5.5c-1.2-1.3-2.9-1.9-5.1-1.9c-2.2,0-4,0.4-5.3,1.3
			s-2,2-2,3.3c0,0.8,0.2,1.4,0.5,1.9s0.8,0.9,1.3,1.1L729.2,1053.9z M747.4,1057.7c-4.9,1-8.5,2.2-10.9,3.6s-3.5,3-3.5,4.9
			c0,1.5,0.6,2.7,1.7,3.6c1.1,0.9,2.6,1.4,4.3,1.4c2.2,0,4.1-0.6,5.8-1.9s2.5-2.8,2.5-4.6v-7H747.4z"/>
		<path class="st1" d="M763.9,1050.8c0-2.2-0.2-3.8-0.7-4.6c-0.5-0.9-1.4-1.3-2.8-1.3h-0.8l9.6-3.7v6.2c1.2-1.6,3-3,5.4-4.2
			s4.7-1.8,6.9-1.8c2.9,0,5.2,0.9,6.9,2.7c1.7,1.8,2.5,4.3,2.5,7.5v16.2c0,1.6,0.3,3,0.8,4s1.2,1.6,2.1,1.8h-11
			c0.9-0.2,1.6-0.8,2.1-1.8s0.7-2.3,0.7-3.9V1053c0-2.5-0.6-4.4-1.7-5.7c-1.1-1.3-2.7-2-4.7-2c-1.5,0-3,0.4-4.5,1.2
			c-1.6,0.8-2.8,1.9-3.8,3.2c-1,1.3-1.5,2.7-1.5,4.2v14.2c0,1.6,0.3,2.9,0.8,3.9s1.2,1.5,2.1,1.7H761c1-0.2,1.8-0.8,2.3-1.8
			s0.7-2.3,0.7-3.9L763.9,1050.8L763.9,1050.8z"/>
		<path class="st1" d="M819.9,1052.6c0.2-0.5,0.3-1.2,0.3-2.1c0-1.7-0.6-3.1-1.8-4.2s-2.7-1.6-4.5-1.6c-2.9,0-5.2,1.1-7,3.4
			s-2.7,5.3-2.7,8.9c0,2.5,0.5,4.8,1.4,6.9s2.2,3.7,3.9,4.9c1.7,1.2,3.7,1.8,6,1.8c3.8,0,7.4-2.1,10.8-6.2c-0.8,3.1-2.3,5.6-4.5,7.4
			s-4.8,2.7-7.8,2.7s-5.6-0.6-7.9-1.9c-2.2-1.3-3.9-3.1-5.1-5.4c-1.2-2.3-1.8-4.9-1.8-7.9c0-3.4,0.7-6.5,2.1-9.2
			c1.4-2.8,3.4-4.9,5.9-6.4s5.2-2.3,8.3-2.3c3,0,5.4,0.8,7.3,2.5c1.9,1.7,2.9,3.8,3.1,6.5L819.9,1052.6z"/>
		<path class="st1" d="M836.4,1057.3c0,2.5,0.5,4.8,1.5,6.8s2.4,3.5,4.2,4.6s3.8,1.6,5.9,1.6c1.9,0,3.9-0.5,5.9-1.4s3.8-2.4,5.4-4.4
			c-1.1,3.3-2.7,5.8-4.9,7.5s-4.9,2.5-8.2,2.5c-3,0-5.6-0.7-7.9-2c-2.3-1.3-4-3.3-5.3-5.8s-1.9-5.2-1.9-8.3c0-3.2,0.6-6.1,1.9-8.7
			c1.3-2.6,3-4.6,5.3-6.1s4.8-2.2,7.7-2.2c3.8,0,6.9,1.4,9.2,4.3s3.6,6.8,3.8,11.7L836.4,1057.3L836.4,1057.3z M852.9,1054.6
			c0-3.2-0.7-5.7-2.1-7.6c-1.3-1.9-3.1-2.8-5.4-2.8c-1.6,0-3.1,0.5-4.4,1.4c-1.3,0.9-2.4,2.2-3.1,3.8s-1.2,3.4-1.4,5.3h16.4V1054.6z
			"/>
		<path class="st1" d="M866.9,1037.2c0-2.2-0.3-3.8-0.8-4.7c-0.5-0.9-1.5-1.4-2.9-1.4h-0.6l9.7-3.5v40.2c0,1.6,0.3,3,0.8,4
			s1.2,1.6,2.1,1.8H864c0.9-0.2,1.6-0.8,2.1-1.8s0.8-2.3,0.8-4L866.9,1037.2L866.9,1037.2z"/>
		<path class="st1" d="M883.4,1037.3c0-2.3-0.3-3.9-0.8-4.9c-0.6-1-1.5-1.4-2.9-1.4H879l9.7-3.8v20c1.2-1.7,3-3.1,5.3-4.2
			s4.6-1.7,6.8-1.7c3,0,5.3,0.9,6.9,2.7c1.6,1.8,2.4,4.3,2.4,7.5v16.2c0,1.6,0.3,2.9,0.8,4s1.2,1.7,2.2,1.8h-10.9
			c0.8-0.1,1.5-0.7,1.9-1.7c0.5-1,0.7-2.3,0.7-3.9v-15c0-2.5-0.6-4.4-1.7-5.7c-1.1-1.3-2.7-2-4.8-2c-1.5,0-3,0.4-4.6,1.2
			c-1.6,0.8-2.8,1.9-3.7,3.2c-0.9,1.3-1.4,2.7-1.4,4.2v14.2c0,1.6,0.2,2.9,0.7,3.9s1.2,1.6,2.1,1.7h-11.1c1-0.2,1.8-0.8,2.3-1.9
			c0.5-1,0.7-2.3,0.7-3.9L883.4,1037.3L883.4,1037.3z"/>
		<path class="st1" d="M920.6,1053.9c-0.6-1.2-0.9-2.4-0.9-3.6c0-1.6,0.6-3.1,1.7-4.5c1.1-1.4,2.7-2.5,4.8-3.3s4.4-1.2,7.1-1.2
			c3.4,0,6.1,0.8,8,2.5s2.9,3.9,2.9,6.9v14.3c0,1.9,0.5,3.4,1.4,4.5s2.3,1.7,4,1.7c0.3,0,0.7,0,1.2-0.1l-5.5,3.7
			c-1.5-0.2-2.7-0.8-3.8-1.9c-1.1-1-1.7-2.1-1.9-3.1c-0.9,1.5-2.3,2.6-4.3,3.4s-4.2,1.3-6.6,1.3c-2.9,0-5.2-0.7-7-2
			s-2.7-3.1-2.7-5.3c0-2.6,1.7-4.9,5-7s8.3-3.8,14.8-5.1v-3.4c0-2.4-0.6-4.3-1.8-5.5c-1.2-1.3-2.9-1.9-5.1-1.9c-2.2,0-4,0.4-5.3,1.3
			s-2,2-2,3.3c0,0.8,0.2,1.4,0.5,1.9s0.8,0.9,1.3,1.1L920.6,1053.9z M938.8,1057.7c-4.9,1-8.5,2.2-10.9,3.6s-3.5,3-3.5,4.9
			c0,1.5,0.6,2.7,1.7,3.6c1.1,0.9,2.6,1.4,4.3,1.4c2.2,0,4.1-0.6,5.8-1.9s2.5-2.8,2.5-4.6v-7H938.8z"/>
		<path class="st1" d="M952.6,1064.1c1.9,4.9,5.2,7.3,9.7,7.3c2.2,0,3.9-0.4,5.2-1.2c1.3-0.8,2-2,2-3.4c0-1.1-0.4-2.1-1.2-3
			s-2.1-1.8-3.9-2.7l-3.4-1.7c-3.1-1.5-5.2-2.9-6.4-4.2c-1.1-1.3-1.7-2.9-1.7-4.8c0-2.6,1-4.8,3.1-6.5c2-1.7,4.7-2.6,7.9-2.6
			c3.3,0,6.2,0.7,8.6,2.1v6.8c-2.1-3.9-5-5.9-8.7-5.9c-1.8,0-3.3,0.4-4.5,1.3s-1.8,2-1.8,3.3c0,1,0.2,1.8,0.6,2.4
			c0.4,0.6,1.1,1.2,2,1.9c0.9,0.6,2.5,1.5,4.7,2.5c3,1.4,5.1,2.5,6.2,3.4c1.1,0.8,1.9,1.8,2.5,2.8s0.8,2.2,0.8,3.5
			c0,2.7-1.1,4.9-3.2,6.6c-2.2,1.7-5.1,2.5-8.9,2.5c-1.8,0-3.6-0.2-5.4-0.7c-1.8-0.5-3.2-1.1-4.3-1.9v-7.8L952.6,1064.1
			L952.6,1064.1z"/>
		<path class="st1" d="M1000.2,1057.3c0,2.5,0.5,4.8,1.5,6.8s2.4,3.5,4.2,4.6s3.8,1.6,5.9,1.6c1.9,0,3.9-0.5,5.9-1.4
			s3.8-2.4,5.4-4.4c-1.1,3.3-2.7,5.8-4.9,7.5s-4.9,2.5-8.2,2.5c-3,0-5.6-0.7-7.9-2c-2.3-1.3-4-3.3-5.3-5.8s-1.9-5.2-1.9-8.3
			c0-3.2,0.6-6.1,1.9-8.7c1.3-2.6,3-4.6,5.3-6.1s4.8-2.2,7.7-2.2c3.8,0,6.9,1.4,9.2,4.3s3.6,6.8,3.8,11.7L1000.2,1057.3
			L1000.2,1057.3z M1016.7,1054.6c0-3.2-0.7-5.7-2.1-7.6c-1.3-1.9-3.1-2.8-5.4-2.8c-1.6,0-3.1,0.5-4.4,1.4c-1.3,0.9-2.4,2.2-3.1,3.8
			c-0.8,1.6-1.2,3.4-1.4,5.3h16.4V1054.6z"/>
		<path class="st1" d="M1048.1,1035.6c0-1.8-0.3-3.3-0.9-4.3c-0.6-1.1-1.5-1.7-2.6-2h19.3c4.8,0,9.1,0.9,12.8,2.7
			c3.7,1.8,6.6,4.3,8.6,7.6s3,7.1,3,11.4c0,4.4-1,8.3-2.9,11.8c-2,3.4-4.8,6.1-8.6,7.9c-3.8,1.9-8.1,2.8-13.1,2.8h-18.9
			c1.1-0.1,1.9-0.8,2.5-2s0.9-2.8,0.9-4.7v-31.2L1048.1,1035.6L1048.1,1035.6z M1064.3,1070.1c3.4,0,6.4-0.7,9-2.2s4.7-3.7,6.3-6.6
			c1.6-2.9,2.3-6.3,2.3-10c0-6.1-1.7-10.8-5-14s-8.2-4.8-14.5-4.8h-8.4v37.6H1064.3z"/>
		<path class="st1" d="M1100,1057.3c0,2.5,0.5,4.8,1.5,6.8s2.4,3.5,4.2,4.6c1.8,1.1,3.8,1.6,5.9,1.6c1.9,0,3.9-0.5,5.9-1.4
			s3.8-2.4,5.4-4.4c-1.1,3.3-2.7,5.8-4.9,7.5c-2.2,1.7-4.9,2.5-8.2,2.5c-3,0-5.6-0.7-7.9-2s-4-3.3-5.3-5.8s-1.9-5.2-1.9-8.3
			c0-3.2,0.6-6.1,1.9-8.7s3-4.6,5.3-6.1s4.8-2.2,7.7-2.2c3.8,0,6.9,1.4,9.2,4.3c2.3,2.9,3.6,6.8,3.8,11.7L1100,1057.3L1100,1057.3z
			 M1116.5,1054.6c0-3.2-0.7-5.7-2.1-7.6c-1.3-1.9-3.1-2.8-5.4-2.8c-1.6,0-3.1,0.5-4.4,1.4s-2.4,2.2-3.1,3.8
			c-0.8,1.6-1.2,3.4-1.4,5.3h16.4V1054.6z"/>
		<path class="st1" d="M1130.5,1050.3c0-1.9-0.2-3.3-0.7-4.2c-0.5-0.9-1.3-1.3-2.5-1.3h-0.7l9-3.7l0.1,6c1.3-1.9,2.9-3.3,4.8-4.3
			s3.9-1.5,5.9-1.5c2.5,0,4.7,0.7,6.8,2c2.1,1.3,3.6,3.1,4.8,5.4c1.1,2.3,1.7,5,1.7,8.2s-0.7,6.2-2,8.9c-1.4,2.7-3.3,4.8-5.7,6.3
			c-2.4,1.5-5.2,2.3-8.4,2.3c-3.5,0-6.1-0.9-7.8-2.7v8c0,1.6,0.3,3,0.8,4s1.2,1.6,2.1,1.8h-11c0.9-0.2,1.6-0.8,2.1-1.8
			s0.7-2.4,0.7-3.9L1130.5,1050.3L1130.5,1050.3z M1135.7,1064.2c0,2.2,0.6,3.9,1.9,5.2s3.2,1.9,5.7,1.9c3.1,0,5.7-1.2,7.6-3.7
			s2.9-5.6,2.9-9.4c0-4-0.9-7.1-2.6-9.5c-1.7-2.3-4-3.5-6.8-3.5c-1.5,0-2.9,0.4-4.3,1.2c-1.4,0.8-2.5,1.8-3.3,3.1
			c-0.8,1.3-1.2,2.7-1.2,4.2v10.5L1135.7,1064.2L1135.7,1064.2z"/>
		<path class="st1" d="M1168,1050.1c0-1.9-0.3-3.3-0.8-4.1c-0.5-0.8-1.4-1.2-2.7-1.2h-0.8l9.6-3.7v26.6c0,1.7,0.3,3,0.8,4
			s1.3,1.6,2.3,1.8h-11.6c1-0.2,1.8-0.8,2.3-1.8s0.8-2.4,0.8-3.9L1168,1050.1L1168,1050.1z M1166.3,1032.4c0-1,0.4-1.8,1.1-2.4
			s1.6-0.9,2.7-0.9s2,0.3,2.7,0.9s1.1,1.4,1.1,2.4c0,0.9-0.3,1.7-1,2.3c-0.7,0.7-1.6,1-2.8,1c-1.2,0-2.1-0.3-2.8-1
			C1166.7,1034,1166.3,1033.2,1166.3,1032.4z"/>
		<path class="st1" d="M1184.4,1037.2c0-2.2-0.3-3.8-0.8-4.7c-0.5-0.9-1.5-1.4-2.9-1.4h-0.6l9.7-3.5v40.2c0,1.6,0.3,3,0.8,4
			s1.2,1.6,2.1,1.8h-11.2c0.9-0.2,1.6-0.8,2.1-1.8s0.8-2.3,0.8-4V1037.2z"/>
		<path class="st1" d="M1200.1,1053.9c-0.6-1.2-0.9-2.4-0.9-3.6c0-1.6,0.6-3.1,1.7-4.5s2.7-2.5,4.8-3.3c2.1-0.8,4.4-1.2,7.1-1.2
			c3.4,0,6.1,0.8,8,2.5s2.9,3.9,2.9,6.9v14.3c0,1.9,0.5,3.4,1.4,4.5s2.3,1.7,4,1.7c0.3,0,0.7,0,1.2-0.1l-5.5,3.7
			c-1.5-0.2-2.7-0.8-3.8-1.9c-1.1-1-1.7-2.1-1.9-3.1c-0.9,1.5-2.3,2.6-4.3,3.4s-4.2,1.3-6.6,1.3c-2.9,0-5.2-0.7-7-2
			s-2.7-3.1-2.7-5.3c0-2.6,1.7-4.9,5-7s8.3-3.8,14.8-5.1v-3.4c0-2.4-0.6-4.3-1.8-5.5c-1.2-1.3-2.9-1.9-5.1-1.9s-4,0.4-5.3,1.3
			s-2,2-2,3.3c0,0.8,0.2,1.4,0.5,1.9s0.8,0.9,1.3,1.1L1200.1,1053.9z M1218.3,1057.7c-4.9,1-8.5,2.2-10.9,3.6s-3.5,3-3.5,4.9
			c0,1.5,0.6,2.7,1.7,3.6s2.6,1.4,4.3,1.4c2.2,0,4.1-0.6,5.8-1.9c1.7-1.3,2.5-2.8,2.5-4.6L1218.3,1057.7L1218.3,1057.7z"/>
		<path class="st1" d="M1244.3,1074.2c-3.7-0.5-6.7-2.1-8.9-4.8c-2.2-2.7-3.3-6.1-3.3-10.2c0-3.4,0.7-6.5,2.1-9.2
			c1.4-2.8,3.4-4.9,5.9-6.4s5.2-2.3,8.2-2.3s5.4,0.8,7.3,2.5s2.9,3.8,3.1,6.5l-5.7,2.3c0.2-0.5,0.3-1.2,0.3-2.1
			c0-1.7-0.6-3.1-1.8-4.2c-1.2-1.1-2.7-1.6-4.5-1.6c-2.9,0-5.3,1.1-7.1,3.4s-2.7,5.3-2.7,8.9c0,2.5,0.5,4.8,1.4,6.9s2.2,3.7,4,4.9
			c1.7,1.2,3.7,1.8,5.9,1.8c3.9,0,7.5-2.1,10.8-6.2c-0.8,3-2.2,5.3-4.3,7.2c-2.1,1.8-4.6,2.8-7.5,2.9l-1,1.5
			c1.7,0.2,3.1,0.7,4.1,1.5c1.1,0.8,1.6,1.8,1.6,3.1c0,1.3-0.6,2.5-1.9,3.4s-3,1.4-5.1,1.4c-2,0-3.8-0.4-5.3-1.3
			c0.7,0.1,1.5,0.2,2.4,0.2c1.6,0,2.8-0.4,3.9-1.1c1-0.7,1.6-1.6,1.6-2.6c0-0.9-0.5-1.6-1.4-2.2s-2.2-0.9-3.9-1L1244.3,1074.2z"/>
		<path class="st1" d="M1266.1,1053.9c-0.6-1.2-0.9-2.4-0.9-3.6c0-1.6,0.6-3.1,1.7-4.5s2.7-2.5,4.8-3.3c2.1-0.8,4.4-1.2,7.1-1.2
			c3.4,0,6.1,0.8,8,2.5s2.9,3.9,2.9,6.9v14.3c0,1.9,0.5,3.4,1.4,4.5s2.3,1.7,4,1.7c0.3,0,0.7,0,1.2-0.1l-5.5,3.7
			c-1.5-0.2-2.7-0.8-3.8-1.9c-1.1-1-1.7-2.1-1.9-3.1c-0.9,1.5-2.3,2.6-4.3,3.4s-4.2,1.3-6.6,1.3c-2.9,0-5.2-0.7-7-2
			s-2.7-3.1-2.7-5.3c0-2.6,1.7-4.9,5-7s8.3-3.8,14.8-5.1v-3.4c0-2.4-0.6-4.3-1.8-5.5s-2.9-1.9-5.1-1.9s-4,0.4-5.3,1.3s-2,2-2,3.3
			c0,0.8,0.2,1.4,0.5,1.9s0.8,0.9,1.3,1.1L1266.1,1053.9z M1269,1037.7c-0.4-0.5-0.6-1.1-0.6-1.8c0-1.7,0.5-3.2,1.5-4.4
			c1-1.2,2.3-1.9,4-1.9c0.8,0,1.6,0.2,2.6,0.6c0.9,0.4,1.8,0.8,2.7,1.3c0.8,0.5,1.7,0.9,2.5,1.3s1.6,0.6,2.1,0.6
			c1.1,0,1.9-0.4,2.6-1.3s1-2,1.1-3.3c0.4,0.5,0.6,1.1,0.6,1.7c0,1.7-0.5,3.2-1.6,4.5s-2.5,1.9-4.1,1.9c-0.7,0-1.5-0.2-2.4-0.6
			c-0.8-0.4-1.7-0.8-2.5-1.3s-1.7-1-2.5-1.4s-1.5-0.6-2.2-0.6c-1.1,0-2,0.5-2.7,1.4C1269.5,1035.3,1269.1,1036.4,1269,1037.7z
			 M1284.4,1057.7c-4.9,1-8.5,2.2-10.9,3.6s-3.5,3-3.5,4.9c0,1.5,0.6,2.7,1.7,3.6s2.6,1.4,4.3,1.4c2.2,0,4.1-0.6,5.8-1.9
			c1.7-1.3,2.5-2.8,2.5-4.6L1284.4,1057.7L1284.4,1057.7z"/>
		<path class="st1" d="M1314.4,1074.4c-3.2,0-6.1-0.7-8.5-2.1s-4.3-3.3-5.6-5.8c-1.3-2.5-2-5.2-2-8.1c0-3,0.7-5.9,2.1-8.6
			s3.4-4.8,6-6.3s5.5-2.3,8.8-2.3c3.2,0,6.1,0.7,8.5,2.1s4.3,3.3,5.7,5.8c1.3,2.5,2,5.2,2,8.2c0,3.1-0.7,6-2.2,8.6
			c-1.5,2.7-3.5,4.7-6,6.2C1320.7,1073.7,1317.8,1074.4,1314.4,1074.4z M1315.7,1071.2c2,0,3.8-0.6,5.3-1.7s2.6-2.7,3.5-4.6
			c0.8-1.9,1.2-4,1.2-6.2c0-2.5-0.5-4.9-1.5-7.1s-2.4-3.9-4.1-5.2c-1.8-1.3-3.8-2-6.1-2c-1.9,0-3.6,0.5-5.1,1.5s-2.7,2.5-3.6,4.5
			s-1.4,4.2-1.4,6.4c0,2.5,0.5,4.9,1.5,7.1s2.4,4,4.1,5.3C1311.4,1070.6,1313.4,1071.2,1315.7,1071.2z"/>
	</g>
	<g>
		<path class="st1" d="M617.1,920.5c-3.7-0.1-6.5-1.5-8.4-4c-2-2.5-2.5-5.4-1.7-8.6c1.3-5.8,4.8-9.4,10.5-11
			c5.1-1.1,9.9-1.4,14.7-0.8c4.7,0.6,9.4,0.7,14,0.4c4.6,0,7.4,1,8.3,3c0.9,2,0.7,4.6-0.5,7.8c-1.3,4.6-2.1,9.8-2.4,15.4
			c-0.4,5.6-0.5,11.4-0.4,17.2s0.2,11.5,0.4,17.1s0.2,10.6,0.1,15.3c0.1,2.1,0.7,3.9,1.8,5.4s2.4,2.8,3.9,3.9c2,1.7,2.7,3.4,2.1,5.3
			c-0.4,1.1-1.1,1.8-1.9,2.1c-0.8,0.3-1.7,0.5-2.5,0.6c-3.1,0.3-6,0.5-8.9,0.5c-2.8,0.1-5.6,0-8.4-0.3c-2.3-0.3-4.3-0.8-6.1-1.5
			s-3.1-2.2-3.8-4.6c-2.8,0.7-5.5,1.5-8,2.5s-5.1,1.6-7.8,1.9c-3.5,0.4-7.1,0.8-10.8,1.1s-7.3,0.2-11-0.2s-7.2-1.2-10.5-2.4
			c-3.4-1.2-6.5-3-9.3-5.4c-4.6-4.5-7.7-9.3-9.1-14.5c-1.4-5.2-2.1-10.7-2.1-16.4c0-5.8,0.2-11.7,0.6-17.8
			c0.4-6.1,0.1-12.3-0.8-18.7c-0.3-1.5-0.7-3-1.4-4.4c-0.6-1.4-1.7-2.7-3.1-3.8c-0.7-0.6-1.3-1.2-1.9-1.8c-0.6-0.6-0.6-1.4,0-2.2
			c0.3-0.7,0.8-1.2,1.7-1.6c0.8-0.3,1.6-0.7,2.3-0.9c0.8-0.4,2.7-0.8,5.6-1.1c2.9-0.3,6-0.4,9.4-0.4s6.6,0.1,9.6,0.2
			c3,0.1,5.1,0.4,6.2,0.8c1.5,0.7,2.4,1.7,2.6,3c0.2,1.3-0.4,2.3-1.8,3.2c-2.2,1.4-3.6,3.1-4,5.1s-0.6,4-0.6,6.1
			c0,4.1-0.1,8.4-0.4,13.1c-0.3,4.6-0.4,9.2-0.4,13.8s0.2,9,0.6,13.2c0.4,4.2,1.4,8,2.8,11.3c1.5,3.3,3.5,6,6.2,8s6.3,3.1,10.8,3.3
			c4.4,0.7,8.3,0.6,11.7-0.4s7.1-2.5,10.9-4.4c1.3-0.7,1.9-2,1.9-3.8c0.1-10.7,0.3-20.6,0.6-29.7c0.3-9.1-0.1-18.6-1.3-28.5
			c-0.6-3.5-2.7-5.6-6.3-6.3c-1.5-0.3-3-0.1-4.4,0.6c-1.4,0.7-2.5,1.8-3.2,3.2c-1.5,3-1.2,5.9,1.1,8.9c0.3,0.4,0.6,0.8,1.1,1.2
			C615.8,919.3,616.4,919.8,617.1,920.5z"/>
		<path class="st1" d="M679.7,908.1c-0.8,0.1-1.6,0.2-2.2,0.1c-0.6-0.1-1.2-0.2-1.7-0.3s-1-0.2-1.5-0.2s-1.2,0.1-2,0.2
			c-1.4,0.4-2.8,1-4.1,1.8s-2.8,1.5-4.5,2.2c-0.3-2.2-0.5-4.3-0.6-6.2s0-3.8,0.4-5.8c0.3-0.8,0.7-1.4,1.4-1.6c0.6-0.2,1.3-0.3,2-0.3
			c2.8,0,5.2-0.1,7.2-0.3s4.1-0.3,6.5-0.3c0-4.1-0.1-7.8-0.4-11.1c-0.3-3.3-1.2-6.6-2.7-9.8c-0.6-1.8-0.6-3.3-0.2-4.3
			s1.5-1.9,3.4-2.6c3.9-1.4,7.8-2.8,11.5-4.2s7.4-2.8,11.1-4.2c0.7-0.3,1.4-0.5,2.2-0.7s1.4,0.1,2,0.9c0.7,1.3,0.7,2.7,0,4.2
			c-1.5,3.9-2.8,8.8-3.8,14.7c-1,5.8-1.3,11.5-1.1,17c1.7,0,3.5,0,5.5-0.1s3.9-0.3,5.9-0.7s3.8-1.1,5.5-1.9c1.7-0.8,3.2-2,4.4-3.4
			c1.1,0.6,1.7,1.3,1.7,2.1s0,1.7,0,2.5c0.3,3.5-0.3,6.5-1.7,9s-3.8,3.9-7.2,4.3c-2,0.3-4.2,0-6.7-0.9s-4.7-1.3-6.5-1.2
			c-0.4,10.7-0.5,21.4-0.1,32c0.3,10.7,0.7,21.3,0.9,31.8c0.3,2.3,1,3.9,2.1,5.1c1.1,1.1,2.5,1.7,4,1.7c1.5-0.1,3.1-0.9,4.5-2.3
			c1.5-1.4,2.4-3,2.6-4.8c0.1-0.6,0.2-1.1,0.1-1.6c-0.1-0.5-0.1-1-0.1-1.6c-0.6-2.8-1.8-3.9-3.7-3.2s-3.2,2.1-3.9,4.2
			c-0.8-2.1-1.1-3.8-0.8-5.2c0.3-1.3,1.1-2.6,2.3-3.7c1.3-1,2.7-1.4,4.4-1.3c1.7,0.1,3.2,0.8,4.4,1.9c1.8,1.5,3.2,3.7,4,6.4
			s1.1,5.5,0.7,8.3c-0.4,2.8-1.3,5.4-2.7,7.8c-1.5,2.4-3.6,4.1-6.4,5.1c-2,0.6-4.1,1-6.3,1.3c-2.3,0.3-4.5,0.5-6.9,0.5
			c-2.3,0.1-4.5,0.1-6.6,0s-4-0.2-5.7-0.5c-2.1-0.1-3.9-1-5.3-2.5c-1.4-1.5-2.6-3.3-3.5-5.2s-1.6-3.8-2-5.8s-0.6-3.5-0.6-4.6
			L679.7,908.1z"/>
		<path class="st1" d="M781.1,916.7c0.8,2,1.1,3.5,0.6,4.6c-0.4,1.1-1.2,2.1-2.3,3c-4.8,3.5-9.9,3.3-15.2-0.6
			c-0.3,0.7-0.5,1.3-0.6,1.7s-0.2,0.9-0.2,1.5v36.5c0,3.4,0.6,6.8,1.8,10.2s2.8,6.6,4.7,9.4l0.6,1.3c1.7,3.5,0.6,5.5-3.4,5.9
			c-5.9-0.3-11.4-0.5-16.6-0.5c-5.2-0.1-10.5-0.1-15.8-0.1c-3.2-0.3-4.3-2-3.2-5.3l0.8-1.5c2-2.5,3.7-5.3,5.3-8.4
			c1.5-3.1,2.4-6.1,2.5-9.1c0.4-8.1,0.8-15.9,1.2-23.2c0.3-7.3,0.6-14.4,0.7-21.4c0.1-7,0.1-13.8-0.1-20.7c-0.2-6.8-0.7-13.8-1.4-21
			c-0.3-2.5-1.2-5.4-2.6-8.7c-1.5-3.3-3.4-5.7-5.8-7.3c-1.5-1.1-2.2-2.4-1.9-3.7s1.3-2.4,3-3.1l23.9-9.7c5.2-2.1,7.7-0.3,7.7,5.3
			c0,2.3-0.1,4.5-0.4,6.6c-0.3,2.2-0.6,4.3-0.8,6.4c-0.6,5.9-0.8,11.7-0.7,17.4s0.2,11.5,0.3,17.4c2.7-2.8,6.2-5.1,10.7-6.9
			c4.4-1.8,9.1-2.7,14.1-2.8c4.9-0.1,9.9,0.7,14.8,2.4c4.9,1.8,9.3,4.7,13.1,8.9c3.8,4.1,6.8,9.6,9,16.3s3,15,2.4,24.9
			c0.4,4.9,0.7,9.8,0.7,14.5c0.1,4.8,0.1,9.6,0.1,14.5c0,2.5,0.3,4.9,1.1,7c0.7,2.1,2.2,3.8,4.6,5.1c0.1,0,0.2,0,0.2,0.1
			s0.1,0.1,0.2,0.1c0.6,0.6,1.1,1.1,1.7,1.7c0.6,0.6,0.6,1.3,0,2.1c-0.3,0.4-0.7,0.8-1.4,1.1c-0.6,0.3-1.3,0.5-2,0.6
			c-1.8,0.3-4.3,0.5-7.3,0.7s-6.1,0.3-9.4,0.3c-3.2,0-6.4-0.1-9.5-0.4c-3.1-0.3-5.6-0.6-7.4-1.1c-1.1-0.3-1.8-0.8-2-1.6
			s0-1.6,0.7-2.4l1.1-0.8c2.4-1.5,3.9-3.4,4.5-5.7c0.6-2.2,0.9-4.6,0.9-7.2c0-2.8,0.1-6.4,0.4-10.6c0.3-4.3,0.4-8.9,0.3-13.7
			c-0.1-4.8-0.4-9.8-0.9-14.8c-0.6-5-1.7-9.5-3.3-13.6s-3.9-7.5-6.7-10.2c-2.9-2.7-6.6-4.4-11.3-5c-4.5-0.4-8.2,0.8-11.2,3.8
			c-1.8,1.7-2.7,3.7-2.6,6.1c0.1,2.4,1,4.4,2.8,5.9c2.4,2.3,4.9,2.3,7.6,0L781.1,916.7z"/>
		<path class="st1" d="M1036.8,868.3c-1.5,2.3-2.8,3.6-3.9,4.1s-2.4,0.2-4.1-0.7c-2.4-1.3-4.1-3.4-5.3-6.5c-1.1-3.1-1.3-6.4-0.6-9.9
			c1.5-7.7,5.4-12.6,11.6-14.8c4.9-1.5,9.8-2.5,14.8-2.8c4.9-0.3,9.8-0.7,14.8-1.2c5.3-0.6,7.5,2.3,6.5,8.4
			c-2.1,12.6-5.2,25.4-9.3,38.3c-4.1,12.9-8.8,25.5-14.1,38.1c-5.3,12.5-11.1,24.6-17.3,36.4c-6.2,11.7-12.4,22.9-18.8,33.4
			c-1.1,2-2.6,3.1-4.3,3.3c-1.8,0.2-3.2-0.6-4.3-2.4c-4.2-13.8-8.2-27.8-11.9-42.1s-8.3-28.1-13.6-41.6
			c-6.3,14.6-12.3,28.7-17.9,42.2c-5.6,13.5-11.6,27.1-17.9,40.7c-1.3,2.8-3.1,4-5.5,3.5s-4.3-2.1-5.7-4.7
			c-4.1-9.1-7.6-18-10.5-26.5c-3-8.5-5.7-17.1-8.1-25.8c-2.5-8.7-4.7-17.8-6.9-27.3c-2.1-9.5-4.4-19.9-7-31.1
			c-0.6-2.5-1.2-5.2-1.8-8.1c-0.6-2.9-1.4-5.6-2.4-8.2c-1-2.6-2.1-4.9-3.4-7c-1.3-2-2.7-3.4-4.4-4.1c-1.1-1-2-2.1-2.6-3.4
			c-0.6-1.3-0.9-2.5-0.8-3.7c0.1-1.2,0.5-2.2,1.4-3.1c0.8-0.8,2.1-1.5,3.8-1.9c7.4,0,15-0.1,22.6-0.4c7.6-0.3,14.7,0.1,21.3,1.3
			c1.5,0.8,2.5,1.7,3,2.6s0.5,1.9,0.2,3s-0.8,2-1.5,3c-0.7,0.9-1.5,1.8-2.3,2.6c-1.3,0.8-2.4,2-3.3,3.4c-0.9,1.4-1.7,3-2.2,4.7
			c-0.6,1.8-0.9,3.6-0.9,5.5c-0.1,1.9,0.1,3.6,0.5,5.2c0.6,6,1.5,12.6,2.8,19.8s3,14.4,4.9,21.7s4,14.4,6.3,21.2s4.7,12.9,7.3,18.2
			c3.7-7.4,7-15,10-22.6s5.9-15.2,8.7-22.9s5.6-15.3,8.2-23c2.7-7.7,5.5-15.2,8.4-22.7c0.6-1.1,1.4-1.8,2.4-2.1
			c1.1-0.3,2.1-0.3,3.1,0s1.9,0.8,2.6,1.6c0.8,0.8,1.2,1.7,1.4,2.6c2.1,7.7,4.1,15.1,6,22c1.9,7,3.9,13.9,6.1,20.9
			c2.2,7,4.5,14.1,7.1,21.5c2.5,7.4,5.4,15.3,8.6,23.7c2.1-2.7,4.6-6.5,7.6-11.5c3-5,5.8-10.4,8.6-16.3c2.8-5.9,5.3-12,7.6-18.2
			c2.2-6.3,3.7-11.9,4.4-17c0.4-3.1,0.9-6.3,1.4-9.7s0.6-6.6,0.3-9.7c-0.3-3.1-1-5.8-2.2-8.1s-3.3-4-6.2-5.2
			c-1.3-0.6-2.6-0.6-3.9-0.2c-1.3,0.4-2.5,1.1-3.5,2.1s-1.8,2.2-2.3,3.6c-0.6,1.4-0.8,2.7-0.8,4
			C1029.6,868.2,1032,869.5,1036.8,868.3z"/>
		<path class="st1" d="M1077.1,989.3c-2.8-0.7-4.4-1.7-4.7-3.1c-0.4-1.3,0.6-2.8,2.8-4.3c2.7-1.7,4-4.2,4-7.6
			c0-5.3,0.1-10.2,0.2-14.5c0.1-4.4,0.2-8.5,0.3-12.4c0.1-3.9,0.2-7.8,0.3-11.6c0.1-3.8,0.2-7.7,0.2-11.8c-0.1-3-0.6-5.6-1.5-8
			c-0.8-2.4-2.5-4.5-5.1-6.3c-1.5-1.1-2.2-2.4-2-3.7s1.3-2.4,3.3-3.1c4.1-1.8,8-3.7,11.7-5.7s7.6-3.5,11.5-4.6
			c2.7-0.6,4.4,0.1,5.3,2.1c0.8,2,0.9,3.9,0.2,5.9c-0.8,6.3-1.3,12.3-1.5,18c-0.1,5.7-0.2,11.4-0.1,17s0.2,11.3,0.3,17
			c0.1,5.7,0.2,11.7,0.2,18c0.3,2.3,0.8,4.3,1.5,6.1s2,3.4,4,4.8c2.2,1.8,3,3.6,2.1,5.3c-0.8,1.7-2.4,2.5-4.6,2.5
			c-6,0-10.9,0-14.5,0c-3.7,0-6.5,0-8.4,0c-2,0-3.3,0-4.1,0C1077.7,989.3,1077.2,989.3,1077.1,989.3z M1072.6,885.5l8.4-13.5
			c1.1-1.8,2.3-3.7,3.6-5.5c1.3-1.8,2.6-3.6,4-5.3c1.1-1.3,2.4-2.2,3.8-2.8s3-0.6,4.6,0.1c1.7,0.7,2.9,1.7,3.6,3s1.2,2.7,1.5,4.4
			c0.1,1.4,0.1,3-0.2,4.6c-0.3,1.7-0.8,3.3-1.7,5c-0.8,1.6-2,3.1-3.4,4.3c-1.4,1.3-3,2.2-4.9,2.7c-3.2,1.1-6.4,1.8-9.6,2.1
			C1079.3,885,1076,885.3,1072.6,885.5z"/>
		<path class="st1" d="M1150.8,973.9c0,1.5,0.6,3,1.8,4.4c1.2,1.4,2.4,2.7,3.7,4c2,1.8,2.5,3.4,1.6,4.7s-2.3,2.2-4.1,2.6
			c-4.5,0.7-9.6,0.8-15.3,0.4c-5.7-0.4-10.7-0.8-15.1-1.3c-2.2-0.3-3.6-1.3-4.1-3s0.2-3.2,2.2-4.4c3.7-2.5,5.4-6,5.3-10.3l0.2-93.6
			c-0.3-1.1-0.7-1.8-1.4-2.1c-0.6-0.3-1.4-0.3-2.2-0.2c-0.8,0.1-1.7,0.2-2.6,0.3s-1.7-0.2-2.4-0.7c-1.5-1.1-2.3-2.5-2.3-4
			s0.8-2.9,2.3-4c3.7-2.5,7.3-5.1,10.9-7.6s7.2-5,10.9-7.4c2.7-2,5-2.4,7.1-1.2c2,1.2,3.1,3.2,3.1,6L1150.8,973.9z"/>
		<path class="st1" d="M1198.3,973.9c0,1.5,0.6,3,1.8,4.4c1.2,1.4,2.4,2.7,3.7,4c2,1.8,2.5,3.4,1.6,4.7s-2.3,2.2-4.1,2.6
			c-4.5,0.7-9.6,0.8-15.3,0.4c-5.7-0.4-10.7-0.8-15.1-1.3c-2.2-0.3-3.6-1.3-4.1-3s0.2-3.2,2.2-4.4c3.7-2.5,5.4-6,5.3-10.3l0.2-93.6
			c-0.3-1.1-0.7-1.8-1.4-2.1c-0.6-0.3-1.4-0.3-2.2-0.2c-0.8,0.1-1.7,0.2-2.6,0.3s-1.7-0.2-2.4-0.7c-1.5-1.1-2.3-2.5-2.3-4
			s0.8-2.9,2.3-4c3.7-2.5,7.3-5.1,10.9-7.6s7.2-5,10.9-7.4c2.7-2,5-2.4,7.1-1.2c2,1.2,3.1,3.2,3.1,6L1198.3,973.9z"/>
		<path class="st1" d="M1216,989.3c-2.8-0.7-4.4-1.7-4.7-3.1c-0.4-1.3,0.6-2.8,2.8-4.3c2.7-1.7,4-4.2,4-7.6c0-5.3,0.1-10.2,0.2-14.5
			c0.1-4.4,0.2-8.5,0.3-12.4c0.1-3.9,0.2-7.8,0.3-11.6c0.1-3.8,0.2-7.7,0.2-11.8c-0.1-3-0.6-5.6-1.5-8c-0.8-2.4-2.5-4.5-5.1-6.3
			c-1.5-1.1-2.2-2.4-2-3.7s1.3-2.4,3.3-3.1c4.1-1.8,8-3.7,11.7-5.7s7.6-3.5,11.5-4.6c2.7-0.6,4.4,0.1,5.3,2.1c0.8,2,0.9,3.9,0.2,5.9
			c-0.8,6.3-1.3,12.3-1.5,18c-0.1,5.7-0.2,11.4-0.1,17s0.2,11.3,0.3,17c0.1,5.7,0.2,11.7,0.2,18c0.3,2.3,0.8,4.3,1.5,6.1
			s2,3.4,4,4.8c2.2,1.8,3,3.6,2.1,5.3c-0.8,1.7-2.4,2.5-4.6,2.5c-6,0-10.9,0-14.5,0c-3.7,0-6.5,0-8.4,0c-2,0-3.3,0-4.1,0
			C1216.6,989.3,1216.1,989.3,1216,989.3z M1211.6,885.5l8.4-13.5c1.1-1.8,2.3-3.7,3.6-5.5c1.3-1.8,2.6-3.6,4-5.3
			c1.1-1.3,2.4-2.2,3.8-2.8s3-0.6,4.6,0.1c1.7,0.7,2.9,1.7,3.6,3s1.2,2.7,1.5,4.4c0.1,1.4,0.1,3-0.2,4.6c-0.3,1.7-0.8,3.3-1.7,5
			c-0.8,1.6-2,3.1-3.4,4.3c-1.4,1.3-3,2.2-4.9,2.7c-3.2,1.1-6.4,1.8-9.6,2.1C1218.2,885,1214.9,885.3,1211.6,885.5z"/>
		<path class="st1" d="M1317.6,981.7c-5.1,4.9-10.4,8.2-16.1,9.8s-11.3,1.9-16.8,0.7c-5.5-1.1-10.6-3.4-15.4-6.9
			c-4.8-3.4-8.7-7.7-11.9-12.8c-3.2-5.1-5.2-10.8-6.2-17.3s-0.5-13.2,1.5-20.2c4.4-15.5,13.5-26.6,27.4-33.5
			c8-3.8,16.5-5.3,25.5-4.4c4.4,0.4,8.6,1.2,12.9,2.2c4.2,1.1,8.3,2.8,12.2,5.2c0.6,0.3,1.2,0.4,1.8,0.4c0.6,0,1.2-0.1,1.8-0.2
			c2.2-0.6,4.4-1.2,6.3-1.8c2-0.6,4.1-0.9,6.3-0.9c3.2,0.7,4.1,2.4,2.7,5.1c-1.4,3-3.1,5.6-5.2,8c-2,2.4-3.3,5.2-3.9,8.4v47.4
			c-0.1,2.3,0.1,3.8,0.7,4.5c0.6,0.8,1.4,1.1,2.4,0.8c1-0.2,2-0.7,3.2-1.5c1.1-0.8,2.1-1.5,3-2.2c0.4,0.4,1,1.1,1.8,1.9
			c0.8,0.8,0.9,1.9,0.3,3.2c-1.8,3.2-4.6,6.1-8.3,8.6c-3.7,2.5-7.5,4.2-11.4,5.1c-3.9,0.8-7.2,0.6-10.1-0.7
			C1319.2,989.3,1317.7,986.3,1317.6,981.7z M1325,910.2c-4.1-1.1-8.3-1.9-12.5-2.2c-4.3-0.3-8.4-0.1-12.4,0.8
			c-4,0.9-7.8,2.6-11.3,5.1s-6.6,5.9-9.3,10.4c-2.1,4.6-3.4,9.9-4,15.9s-0.1,11.7,1.3,17.1c1.4,5.4,3.9,10.1,7.6,13.9
			c3.7,3.9,8.6,6,15,6.4c3.5,0.7,6.8,0,9.9-2s5-4.9,5.7-8.5c0.6-2.5,0.2-4.4-1.1-5.7c-1.3-1.3-2.8-1.9-4.7-1.9
			c-1.9,0-3.8,0.6-5.6,1.9c-1.8,1.3-3,3.2-3.6,5.7c-0.6-2.8-0.4-5,0.4-6.6s1.9-3.1,3.2-4.5c2-2.4,4.2-3.4,6.7-3.1
			c2.5,0.4,5.1,1.1,7.6,2.2l-0.4-29.9c-0.3-3.2,0-6.1,0.9-8.5c0.9-2.5,2.8-4.2,5.8-5.2l0.2-0.2c0.1-0.1,0.2-0.3,0.2-0.4
			C1324.6,910.7,1324.7,910.5,1325,910.2z"/>
		<path class="st1" d="M1428.5,903.7c8.4-5.3,16.7-8.2,24.9-8.4c8.1-0.3,15.3,1.6,21.4,5.6s10.8,10,14.1,17.9
			c3.3,7.9,4.3,17.6,3.1,29c-0.3,3.1-0.6,7-0.9,11.7c-0.4,4.7-0.6,9.6-0.6,14.5c-0.1,5,0.2,9.8,0.8,14.4c0.6,4.6,1.9,8.3,3.7,11.1
			c1.8,2.7,4.4,4.2,7.7,4.4c3.3,0.2,7.6-1.5,13-5.2c0.1,1.8-0.3,3.5-1.3,5.1c-1,1.5-2.3,2.9-3.8,4s-3.2,2-5,2.7s-3.4,1.1-5,1.3
			c-9.4,0-17-2-22.8-6s-9.1-9.9-10.1-17.8c-0.6-4.1-0.8-8.1-0.8-12s0.1-7.8,0.3-11.7c0.2-3.9,0.4-7.7,0.5-11.5s0.1-7.7,0-11.6
			c0.1-5.5-0.5-10.7-2-15.6c-1.5-4.9-3.6-8.8-6.3-11.7c-2.7-2.9-6.1-4.5-10.1-4.7c-4-0.3-8.5,1.5-13.6,5.3c0.7,3,1.2,6.6,1.4,11
			c0.2,4.4,0.3,9,0.4,14s0.1,10.2,0,15.5s0,10.5,0.3,15.4c0.1,2.1,0.5,4.1,1.2,5.9c0.6,1.8,1.7,3.3,3.3,4.4c1.5,1.1,2.4,2.8,2.5,5
			s-0.8,3.6-2.7,4.3c-0.3,0-0.5,0-0.6,0.1s-0.3,0.1-0.4,0.1c-1.7,0-3.7,0-6,0s-4.7,0-7.1-0.1s-4.7-0.1-7.1-0.2
			c-2.3-0.1-4.3-0.1-6-0.1c-1.1,0-2.1-0.1-3-0.4c-0.8-0.3-1.5-1.2-1.9-2.7c-0.3-1.5-0.1-2.8,0.4-3.8c0.6-1,1.2-1.9,1.9-2.7
			c2.2-2.2,3.4-5.3,3.4-9.1c-0.1-7.3-0.2-14.6-0.3-21.8c-0.1-7.2-0.2-14.5-0.5-21.8c-0.4-7.7-1.9-13.1-4.5-16
			c-2.6-3-6.8-3.9-12.5-2.7c-4.5,1.1-7.5,3.4-9.1,7c-1.5,3.5-2.3,7.6-2.3,12.2c0,8.7-0.2,16.8-0.5,24.3c-0.4,7.5-0.5,15.6-0.5,24.4
			c-0.4,3,0.3,5,2.1,6.1c0.3,0.1,0.5,0.4,0.6,0.6c0.1,0.3,0.3,0.6,0.6,0.8c0.7,1.1,0.9,2.2,0.7,3.2c-0.2,1-0.9,1.7-2,2.1
			c-0.8,0.3-1.5,0.4-2.1,0.4c-1.1,0-2.7,0-4.6,0c-2,0-4,0-6.2,0s-4.3,0-6.2-0.1c-2-0.1-3.5-0.1-4.6-0.1c-0.6,0-1.3-0.1-2.1-0.4
			c-0.7-0.3-1.4-0.5-2-0.7s-1.1-0.9-1.4-2s-0.2-2,0.3-2.5c0.5-0.6,1-1.2,1.6-1.9c0.7-0.7,1.2-1.5,1.4-2.3c0.2-0.8,0.3-1.8,0.3-2.7
			l1.3-63c0-1.7-0.4-3.7-1.2-6c-0.8-2.3-1.7-4.2-2.8-5.6c-1-1.1-1.4-2.3-1.2-3.6c0.2-1.3,0.9-2.2,2.2-2.7c1-0.4,2.5-0.8,4.4-1.2
			c2-0.3,4-0.7,6.2-1.1c2.2-0.3,4.2-0.7,6.2-1.1c2-0.4,3.5-0.7,4.6-0.9c1.1-0.3,2.1,0.1,3,1.1c0.8,1,1.4,2.3,1.7,3.8
			c0.1,0.8,0.2,2.1,0.3,3.8c0.1,1.7,0.2,3,0.5,4c2.5-2.7,5.6-5,9.1-7s7.2-3.2,11-3.6c3.8-0.4,7.6,0.1,11.4,1.5
			C1422.2,896.7,1425.5,899.5,1428.5,903.7z"/>
	</g>
	<path class="st1" d="M546.4,963.1c-1.7-2.8-3.8-5-6.2-6.5c-2.5-1.5-5.1-2.2-7.9-2.1c-2.8,0.1-5.3,1.3-7.6,3.6c2,0,3.9,0.2,5.9,0.6
		c2,0.4,3.4,1.8,4.2,4.2c1,2.1,1.3,4.2,1.1,6.3c-0.3,2.1-1,4.1-2.1,5.9c-1.1,1.8-2.6,3.4-4.4,4.8c-1.8,1.4-3.8,2.5-5.9,3.2
		c-5.9,1.3-11.7,0.8-17.3-1.3c-5.6-2.1-11.1-5.1-16.4-9s-10.4-8.3-15.3-13.2c-4.8-4.9-9.4-9.6-13.6-13.9c5.5-0.1,11.2-0.4,17.3-0.8
		c6-0.4,12-1.2,18-2.3s11.8-2.7,17.4-4.7c5.6-2,10.7-4.8,15.3-8.3s8.5-7.9,11.7-13.1c3.2-5.2,5.4-11.5,6.5-18.8
		c0.8-6.5,0.1-12.5-2.2-18c-2.3-5.6-5.6-10.5-9.7-15c-4.1-4.4-8.9-8.3-14.3-11.5c-5.4-3.2-10.9-5.7-16.6-7.4
		c-6.3-2.2-13.1-3.9-20.2-4.8c-7.2-1-14.6-1.6-22.2-1.8c-7.7-0.2-15.5-0.2-23.4-0.1c-7.9,0.1-15.8,0.1-23.5,0
		c-1.5,0-3.1-0.1-4.5-0.2c-1.5-0.1-3-0.1-4.5,0c-1.1,0-1.9,0.2-2.4,0.7s-0.7,1.1-0.6,1.7c0.1,0.6,0.3,1.3,0.7,2.1
		c0.4,0.8,1,1.4,1.7,1.8c1.8,1.5,3.4,3.4,4.6,5.5c1.3,2.1,2,4.5,2.1,7.2l-0.2,113.6c0.1,3-0.1,5.7-0.8,8.2c-0.7,2.5-2.4,4.6-5.1,6.3
		l-0.8,0.6c-0.7,1.5-1.1,2.8-1.3,3.8c-0.1,1,0.9,1.8,3.2,2.3c1.7,0.4,4.4,0.7,8.1,0.9s7.7,0.3,11.8,0.3c4.1,0,8.2-0.1,12-0.2
		c3.9-0.1,6.8-0.4,8.7-0.6c1.1,0,2-0.3,2.6-0.9c0.6-0.6,1-1.4,1.2-2.3c0.1-0.9,0-1.8-0.3-2.7c-0.4-0.9-0.9-1.6-1.6-2.2
		c-2-1.1-3.4-2.5-4.4-4.2s-1.7-3.5-2.1-5.5c-1.1-4.8-1.6-9.6-1.5-14.3c0.1-4.8,0.1-9.6,0-14.5c3.9-0.1,6.3-0.2,7.2-0.2
		c0.6,0,1,0,1.1,0c3.2,6.7,7.2,14.1,12,22s10.1,15.1,16,21.4c5.5,5.9,11.6,10.6,18.3,14.1c6,3.2,12.2,4.7,18.4,4.3
		c6.3-0.4,12-2.1,17.2-5.2c5.2-3.1,9.4-7.3,12.6-12.5c3.2-5.3,4.8-11.2,4.6-17.8C549,969.1,548.1,965.9,546.4,963.1z M529.9,878.7
		l9.5,13.6l-9.5,13.6l-9.5-13.6L529.9,878.7z M440.8,931.3v-79.1c6.9-0.4,13.8-0.6,20.7-0.4c6.9,0.1,14.1,1.2,21.7,3.2
		c7,1.5,12.9,4.1,17.6,7.6s8.3,7.6,10.6,12.1c2.4,4.6,3.7,9.4,3.9,14.4c0.2,5.1-0.6,10-2.5,14.9c-1.9,4.8-4.8,9.3-8.7,13.3
		c-3.9,4-8.9,7.2-14.8,9.6c-3,1.3-6.5,2.3-10.6,3.2c-4.1,0.8-8.5,1.4-13,1.8c-4.5,0.4-8.9,0.5-13.3,0.4
		C448.1,932.2,444.2,931.9,440.8,931.3z"/>
	<path class="st2" d="M1083.5,555.8c-2.9-4.8-6.4-8.4-10.5-11.1c-4.2-2.6-8.6-3.8-13.4-3.6s-9,2.3-12.8,6.1c3.3,0,6.7,0.4,10,1.1
		c3.3,0.7,5.7,3.1,7.1,7.1c1.7,3.6,2.3,7.1,1.8,10.7c-0.5,3.6-1.7,6.9-3.6,10s-4.4,5.8-7.5,8.2s-6.4,4.2-10,5.4
		c-10,2.1-19.7,1.4-29.3-2.1c-9.5-3.6-18.8-8.6-27.8-15.2c-9-6.5-17.7-14-25.9-22.3s-15.9-16.2-23-23.5c9.3-0.2,19-0.7,29.3-1.4
		c10.2-0.7,20.4-2,30.5-3.9s19.9-4.6,29.4-8c9.5-3.4,18.1-8.1,25.9-14.1c7.7-5.9,14.3-13.3,19.8-22.1c5.5-8.8,9.2-19.4,11.1-31.8
		c1.4-10.9,0.2-21.1-3.7-30.5c-3.9-9.4-9.4-17.8-16.4-25.3s-15.1-14-24.3-19.4c-9.2-5.5-18.5-9.6-28-12.5
		c-10.7-3.8-22.1-6.5-34.3-8.2c-12.1-1.7-24.7-2.7-37.6-3c-13-0.4-26.2-0.4-39.6-0.2c-13.4,0.2-26.7,0.2-39.8,0
		c-2.6,0-5.2-0.1-7.7-0.4c-2.5-0.2-5.1-0.2-7.7,0c-1.9,0-3.3,0.4-4.1,1.2c-0.8,0.8-1.2,1.8-1.1,2.9c0.1,1.1,0.5,2.3,1.2,3.6
		c0.7,1.3,1.7,2.3,2.9,3c3.1,2.6,5.7,5.7,7.9,9.3c2.1,3.6,3.3,7.6,3.6,12.1L855.5,570c0.2,5-0.2,9.6-1.4,13.9
		c-1.2,4.3-4,7.9-8.6,10.7l-1.4,1.1c-1.2,2.6-1.9,4.8-2.1,6.4c-0.2,1.7,1.5,3,5.4,3.9c2.9,0.7,7.4,1.2,13.7,1.6
		c6.3,0.4,13,0.5,20,0.5s13.8-0.1,20.3-0.4c6.5-0.2,11.5-0.6,14.8-1.1c1.9,0,3.4-0.5,4.5-1.6s1.7-2.4,2-3.9c0.2-1.5,0.1-3.1-0.5-4.6
		s-1.5-2.8-2.7-3.7c-3.3-1.9-5.8-4.3-7.5-7.1c-1.7-2.9-2.9-5.9-3.6-9.3c-1.9-8.1-2.7-16.2-2.5-24.3s0.2-16.3,0-24.6
		c6.7-0.2,10.7-0.4,12.1-0.4c1,0,1.6,0,1.8,0c5.5,11.4,12.2,23.9,20.3,37.3c8.1,13.4,17.1,25.5,27.1,36.2c9.3,10,19.6,18,31,23.9
		c10.2,5.5,20.6,7.9,31.2,7.3c10.6-0.6,20.3-3.5,29.1-8.7c8.8-5.2,15.9-12.3,21.4-21.2s8.1-19,7.9-30.2
		C1087.8,565.9,1086.3,560.5,1083.5,555.8z M1055.2,411.3l16.8,24.1l-16.8,24.1l-16.8-24.1L1055.2,411.3z M924.4,503.5
		c-7.4-0.1-13.9-0.7-19.6-1.6V368.1c11.7-0.7,23.3-0.9,35-0.7c11.7,0.2,23.9,2,36.8,5.4c11.9,2.6,21.8,6.9,29.8,12.8
		s14,12.8,18,20.5s6.2,15.9,6.6,24.4c0.4,8.6-1.1,16.9-4.3,25.2c-3.2,8.2-8.2,15.7-14.8,22.5c-6.7,6.8-15,12.2-25,16.2
		c-5,2.1-11,3.9-18,5.4c-7,1.4-14.3,2.4-21.9,3C939.2,503.4,931.7,503.6,924.4,503.5z"/>
	<path class="st1" d="M1049.5,674.6c0,0,26.4-11,26.4,23.1s-71.6,91.5-106.8,27.6c-1.1,0-9.9,0.1-9.9,0.1s11,42.8,58.4,42.8
		c47.4,0,74.9-43,74.9-71.6S1059.4,651.5,1049.5,674.6z"/>
	<path class="st1" d="M870.5,674.6c0,0-26.4-11-26.4,23.1s71.6,91.4,106.8,27.5c1.1,0,9.9,0.2,9.9,0.2s-11,42.8-58.4,42.8
		s-74.9-43-74.9-71.6S860.6,651.5,870.5,674.6z"/>
</g>
</svg>
