<?xml version="1.0" encoding="utf-8"?>
<!-- Generator: Adobe Illustrator 22.0.1, SVG Export Plug-In . SVG Version: 6.00 Build 0)  -->
<svg version="1.1" id="Camada_1" xmlns="http://www.w3.org/2000/svg" xmlns:xlink="http://www.w3.org/1999/xlink" x="0px" y="0px"
	 viewBox="0 0 1920 1312" style="enable-background:new 0 0 1920 1312;" xml:space="preserve">
<style type="text/css">
	.st0{fill:#FFFFFF;}
</style>
<g id="Os_Zodiacos_C">
	<g>
		
			<image style="overflow:visible;opacity:0.8;enable-background:new    ;" width="7883" height="2667" xlink:href="3C7437C4.png"  transform="matrix(0.2396 0 0 0.2396 15.5735 335.8)">
		</image>
		<g>
			<g>
				<path class="st0" d="M189,719.6c-24.5-0.3-42.2-8.4-52.9-24.1c-10.8-15.3-16-34.1-15.9-56.3c0.2-34.3,8-65.4,23.5-93.4
					c7.5-13.3,16.1-24,25.9-32.1c9.6-7.9,20.2-12,31.5-12.2c11.6,0.2,22.3,4.3,32.3,12.2c9.8,8.1,18.3,18.8,25.5,32.1
					c15.2,28,23,59.1,23.3,93.4c0.2,22.2-5.1,41-15.6,56.3c-10.7,15.7-28.5,23.8-53.1,24.1H189z M201.2,674.7
					c27.2,0.7,41-13,41.5-41.1c-0.3-28.4-5.2-50.6-14.5-66.8c-9-16.1-18-24.2-27-24.4c-8.9,0.2-17.8,8.3-26.8,24.4
					c-9.5,16.2-14.4,38.4-14.8,66.8C160,661.6,173.9,675.3,201.2,674.7z"/>
				<path class="st0" d="M413.9,558.3c-0.6,0-1.4-0.4-2.2-1.2c-1-0.7-2-1.5-3-2.5c-2.1-2.4-4.7-5-8-7.9c-3.1-2.9-6.9-5.5-11.5-7.8
					c-4.6-2.2-10.1-3.3-16.5-3.3c-6.5,0-12.6,1.6-18.3,4.8c-6.2,3.5-9.4,8.9-9.6,16.2c0,4.5,1.4,8.4,4.2,11.6c2.5,3.2,5.8,6,9.8,8.4
					c4.1,2.1,8.2,4,12.4,5.6c4.2,1.6,8,3.2,11.2,4.6c25.2,8.9,42,19.2,50.4,31c2.5,2.7,4.4,5.6,5.9,8.7c1.5,3,2.7,6.1,3.5,9.1
					c1,3,1.6,6.1,1.9,9.1c0.2,3,0.2,6.1,0.2,9.3c0.2,15.6-5.3,30.1-16.4,43.6c-11.2,14.2-29.8,21.5-55.6,22
					c-18.1,0-34.1-4.9-47.9-14.7c-14.3-10-21.7-24.9-22-44.9c0-5.5,0.7-10.4,2.2-14.6c1.3-4.4,2.8-8,4.4-10.6
					c3.9-5.9,6.7-8.9,8.3-8.9c1,0.2,2,2.8,3,7.8c0.8,5.1,2.6,11,5.4,17.8c3.1,6.6,8.1,12.4,15,17.4c6.7,5.4,16.5,8.2,29.4,8.4
					c9.7,0,17.8-2.1,24.5-6.3c6.7-4.1,10.1-10,10.3-17.8c0-4.7-1.2-8.8-3.5-12.4c-2.5-3.4-5.6-6.2-9.3-8.4
					c-3.8-2.3-7.6-4.3-11.5-6.1c-4.2-1.5-8.3-2.8-12.1-3.8c-13-4.4-23.5-9.1-31.6-14.3c-8-5.1-14-10.4-18.1-15.9
					c-4.1-5.8-6.7-11.4-7.9-17c-1.3-5.5-1.9-11-1.9-16.4s1-11.4,3.1-18.2c2.2-6.6,5.6-12.8,10.4-18.8c4.9-6,11.4-11,19.5-14.8
					c8.4-3.8,18.6-5.7,30.6-5.7c18.2,0.4,32.8,3.9,43.9,10.4c11.1,6.4,16.7,11.9,16.9,16.5c0,1.8-0.6,4.2-1.9,7.3
					c-1.4,3.4-3.1,6.7-5.1,10.1c-2,3.4-4.1,6.2-6.3,8.5C417.8,556.9,415.7,558.3,413.9,558.3z"/>
				<path class="st0" d="M552.1,715.8c-4.7,0.2-8.6-0.2-11.7-1c-1.5-0.5-2.6-1.5-3.2-3.1c-1-1.5-1.4-3.7-1.4-6.5
					c0.2-15.2,4.4-31.1,12.7-47.8c7.9-16.6,17.1-32.4,27.5-47.6c10.5-15.3,19.7-28.7,27.6-40c8.1-11.3,12.3-19.2,12.4-23.7
					c-0.2-4.5-1.7-7.5-4.5-8.9c-3.1-1.3-6.7-2-10.6-2c-6.3,0-11.5,0.7-15.7,2c-4.1,1.6-7.5,3.3-10.3,5.1c-2.6,1.9-4.6,3.5-6.1,4.8
					c-1.6,1.7-3.1,2.6-4.4,2.6c-0.6,0-1.4-0.7-2.2-2.1c-0.8-1-1.7-2.4-2.8-4.3c-1.9-4-3.8-8.6-5.6-13.8c-3.9-11.7-5.9-18.9-6.1-21.7
					c0-1.1,0.6-1.8,1.7-2.1c0.9-0.3,1.8-0.5,2.8-0.5c2.6,0.2,4.4,0.2,5.4,0.2h112.7c2.3,0,4.5,0.6,6.6,1.9c1.8,1.2,2.8,3.3,3,6.3
					c-0.2,7.9-4.7,18.7-13.8,32.4c-8.8,13.7-19.1,28.4-30.9,44.2c-11.4,15.7-21.5,30.5-30.4,44.4c-4.2,6.9-7.6,13.1-10.1,18.7
					c-2.8,5.9-4.2,10.9-4.2,14.9c0.2,5.6,3,9.5,8.1,11.6c5.1,2.6,10.3,3.8,15.7,3.8c6.4,0,11.8-1,16.4-3.1c4.6-1.8,8.5-3.9,11.6-6.3
					c3-2.4,5.6-4.5,7.8-6.3c2-1.9,3.5-2.8,4.7-2.8c1.3,0.2,3.1,2.5,5.4,6.9c2.2,4.5,4.2,9.8,6.1,15.9c2.3,6,4.2,11.3,5.6,15.9
					c1.4,4.7,2,7.5,2,8.3c0,1.1-0.8,1.9-2.3,2.6c-1.6,0.8-4.5,1.2-8.7,1.2H552.1V715.8z"/>
				<path class="st0" d="M763.8,719.6c-24.5-0.3-42.2-8.4-52.9-24.1c-10.8-15.3-16-34.1-15.9-56.3c0.2-34.3,8-65.4,23.5-93.4
					c7.5-13.3,16.1-24,25.9-32.1c9.6-7.9,20.2-12,31.5-12.2c11.6,0.2,22.3,4.3,32.3,12.2c9.8,8.1,18.3,18.8,25.5,32.1
					c15.2,28,23,59.1,23.3,93.4c0.2,22.2-5.1,41-15.6,56.3c-10.7,15.7-28.5,23.8-53.1,24.1H763.8z M776.1,674.7
					c27.2,0.7,41-13,41.5-41.1c-0.3-28.4-5.2-50.6-14.5-66.8c-9-16.1-18-24.2-27-24.4c-8.9,0.2-17.8,8.3-26.8,24.4
					c-9.5,16.2-14.4,38.4-14.8,66.8C734.9,661.6,748.7,675.3,776.1,674.7z"/>
				<path class="st0" d="M895,715.8c-0.6,0-1.4-0.1-2.2-0.2c-0.7,0-1.5-0.2-2.3-0.7c-0.6-0.5-1.4-1.5-2.2-3.1
					c-0.6-1.2-1.4-3-2.3-5.6c-1.3-5-2.3-13.9-3.1-26.6c-1-12.6-1.6-30.6-1.6-53.9c0-31,0.8-55,2.3-71.9c1.3-16.6,2.9-28.4,4.9-35.3
					c1-3.7,1.9-6.6,2.9-8.6c1-1.6,2-2.8,2.8-3.6c1.8-0.8,3.1-1.2,4.2-1H940c8.1,0,17.2,2.2,27.1,6.5c4.9,2.4,9.8,5.4,14.5,8.9
					c4.7,3.7,9.3,8.3,13.7,13.7c9.2,10.3,16.8,23.7,22.7,40.1c5.9,16.7,8.9,37,9.1,60.8c0.2,22.2-5,41-15.6,56.3
					c-10.7,15.7-28.5,23.8-53.1,24.1H895V715.8z M919.7,619.9c0,14,1,25.2,2.9,33.6c1.8,8.6,4.2,15.1,7.2,19.3s6.2,7,9.6,8.3
					c3.4,1.7,6.9,2.5,10.3,2.3c3.6,0,7.5-1,11.7-3.1c4.2-1.6,8.3-4.7,12.2-9.3c4.2-4.6,7.5-10.6,10.1-18s4-16.8,4-28
					c-0.2-15.7-1.9-29.3-5.2-40.8c-3.3-11.3-7.4-20.5-12.5-27.8c-10.8-14.2-20.7-21.3-29.7-21.3c-4.1,0.2-7.5,1.9-10.3,5.3
					c-2.8,3.4-4.9,7.7-6.4,12.8c-2.8,11.1-4.1,21.3-4,30.4v36.3H919.7z"/>
				<path class="st0" d="M1067.6,715.8c-0.7,0-1.5-0.1-2.3-0.2c-0.6,0-1.4-0.2-2.1-0.7c-0.6-0.5-1.4-1.5-2.3-3.1
					c-0.6-1.2-1.3-3-2.1-5.6c-1.4-5-2.4-13.9-3.2-26.6c-1-12.6-1.4-30.6-1.4-53.9c0-31,0.7-55,2.1-71.9c1.4-16.6,3-28.4,4.9-35.3
					c1-3.7,2-6.6,3-8.6c1-1.6,1.8-2.8,2.6-3.6c1.8-0.8,3.2-1.2,4.2-1h26.4c2,0,4.1,0,6.2,0c1.9,0.3,2.9,1.7,3.1,4.1
					c0,0.5-0.6,3.4-1.7,8.6c-1.3,5-2.9,11.9-4.7,20.8c-4.1,17.5-6.3,38.9-6.6,64.2c0.2,32.7,2.3,58.6,6.4,77.8
					c0.8,4.6,1.5,8.8,2.2,12.5c0.9,3.7,1.6,7,2,9.9c1.1,5.5,1.7,8.8,1.7,9.8c-0.2,2.1-1.4,3-3.7,2.8h-4.9H1067.6z M1087.2,449.2
					c2.1-4.5,4-7.2,5.9-7.9c1.6-0.3,4.9-0.4,10-0.2c2.6-0.2,5.8-0.2,9.6,0c4.1,0.3,6.2,2.3,6.3,5.8c0,0.9-0.5,2.1-1.4,3.6
					c-1,1.7-2.4,3.8-4.2,6.3c-3.6,5.1-8.2,10.5-13.8,16.2c-5.3,5.8-10.8,10.7-16.4,14.7c-5.6,3.9-10.4,5.8-14.5,5.8
					c-1.9,0.2-3-0.4-3.1-1.7c0-1,0.5-2.2,1.4-3.6c0.6-1.3,1.1-2.3,1.4-3L1087.2,449.2z"/>
				<path class="st0" d="M1239.5,715.8c-1.1,0-2.8-0.1-5.1-0.2c-2.6-0.2-4-1.1-4.2-2.8c0-1.8,1.1-4.7,3.2-8.5c1.9-3.9,4-8.5,6.3-14
					c2.6-5.5,4.8-11.6,6.6-18.2c1.8-6.6,2.8-13.4,2.8-20.5c-0.2-5.8-2.3-9.9-6.3-12.4c-4.3-2.2-9.4-3.3-15.2-3.3
					c-5.6,0-11.6,0.3-18.2,1c-6.5,0.7-12.8,2.2-18.9,4.6c-6,2.2-10.8,5.4-14.6,9.6c-4.2,4.5-6.2,10.4-6.2,17.7
					c0,4.9,0.9,9.8,2.8,14.7c1.6,4.9,3.4,9.5,5.4,14c2.2,4,3.9,7.5,5.4,10.3c1.6,3,2.4,5.2,2.4,6.4s-1.5,1.7-4.5,1.7h-35
					c-2.9,0-5.4-1.4-7.4-4.3c-2.1-2.9-3.8-6.7-5.1-11.4c-2.2-10-3.3-23.3-3.3-40c0.2-27.1,4.1-50.6,11.7-70.5
					c7.3-19.9,16.1-36.4,26.2-49.5c10.1-13.2,19.5-22.9,28.1-29.2c8.7-6.3,14.5-9.4,17.5-9.4c1.3,0,3.2,0.5,5.9,1.6
					c2.6,1.2,5.7,3,9.1,5.6c7.3,5.2,15.3,13.7,24,25.6c8.6,11.6,16.1,27.4,22.5,47.3c6.4,19.8,9.6,44.4,9.8,73.6
					c0,16.5-0.5,29-1.4,37.7c-1.2,8.6-2.7,14.5-4.4,17.7c-1.8,3-3.7,4.7-5.6,5.1c-2.3,0.2-4.5,0.2-6.5,0.2h-27.8V715.8z
					 M1214.7,544.7c-3.3,0-7.1,2.1-11.5,6.3s-8.7,9.6-13.1,16c-4.2,6.3-7.7,12.7-10.5,19.2c-3,6.5-4.4,12.2-4.4,17.4
					c0,3.2,1.6,4.8,4.7,4.8c2.6-0.2,8.9-1.4,18.7-3.6c9.5-1.9,19.9-2.9,31.1-3.1c8.3,0.4,12.5-2.4,12.5-8.3c0-4.2-0.9-9.1-2.6-14.5
					c-2-5.4-4.5-10.7-7.4-16c-2.9-5.2-5.9-9.5-9-12.9C1220.2,546.6,1217.4,544.8,1214.7,544.7z"/>
				<path class="st0" d="M1386.4,719.6c-27.6-0.7-48-11.5-61.4-32.6c-13.4-20.4-20.1-44-20.1-70.7c0-29,7.5-55.1,22.6-78.2
					c15-23.7,37.3-35.9,66.9-36.7c11.6,0,23.3,2.6,35.3,7.9c5.5,2.7,10,6.5,13.6,11.3c3.3,4.7,5,10.5,5.1,17.4
					c-0.3,15.2-8.7,22.9-25.3,23.1c-2.2,0-3.5-1.3-3.8-3.8c-0.4-2.4-1-5.2-1.8-8.4c-0.8-3.1-2.7-5.9-5.6-8.3
					c-3.3-2.2-8.8-3.3-16.4-3.3c-17.8,0.5-30.8,8-38.8,22.7c-8.1,14.4-12.2,30-12.2,46.8c0.5,23.8,6.8,41.2,18.9,52
					c5.4,5.4,11.1,9.4,17.4,11.9c6.1,2.7,11.7,4.1,16.9,4.1c10-0.2,18-2.2,24.1-6.1c5.9-3.7,10.3-7.9,13.1-12.6
					c3-4.8,5.2-9,6.4-12.7c1.1-3.5,1.8-5.4,2.2-5.6c1,0.2,1.9,1.2,2.5,3.1c0.6,2,1.2,4.4,1.7,7.3c0.8,6.1,1.2,10.2,1.2,12.5
					c-0.2,18.7-6.2,33.2-18.1,43.5C1418.8,714.2,1404.1,719.4,1386.4,719.6z"/>
				<path class="st0" d="M1537.2,719.6c-24.5-0.3-42.2-8.4-52.9-24.1c-10.8-15.3-16-34.1-15.9-56.3c0.2-34.3,8-65.4,23.5-93.4
					c7.5-13.3,16.1-24,25.9-32.1c9.6-7.9,20.2-12,31.5-12.2c11.6,0.2,22.3,4.3,32.3,12.2c9.8,8.1,18.3,18.8,25.5,32.1
					c15.2,28,23,59.1,23.3,93.4c0.2,22.2-5.1,41-15.6,56.3c-10.7,15.7-28.5,23.8-53.1,24.1H1537.2z M1549.4,674.7
					c27.2,0.7,41-13,41.5-41.1c-0.3-28.4-5.2-50.6-14.5-66.8c-9-16.1-18-24.2-27-24.4c-8.9,0.2-17.8,8.3-26.8,24.4
					c-9.5,16.2-14.4,38.4-14.8,66.8C1508.2,661.6,1522,675.3,1549.4,674.7z"/>
				<path class="st0" d="M1762.1,558.3c-0.6,0-1.4-0.4-2.2-1.2c-1-0.7-2-1.5-3-2.5c-2.1-2.4-4.7-5-8-7.9c-3.1-2.9-6.9-5.5-11.5-7.8
					c-4.6-2.2-10.1-3.3-16.5-3.3c-6.5,0-12.6,1.6-18.3,4.8c-6.2,3.5-9.4,8.9-9.6,16.2c0,4.5,1.4,8.4,4.2,11.6c2.5,3.2,5.8,6,9.8,8.4
					c4.1,2.1,8.2,4,12.4,5.6c4.2,1.6,8,3.2,11.2,4.6c25.2,8.9,42,19.2,50.4,31c2.5,2.7,4.4,5.6,5.9,8.7c1.5,3,2.7,6.1,3.5,9.1
					c1,3,1.6,6.1,1.9,9.1c0.2,3,0.2,6.1,0.2,9.3c0.2,15.6-5.3,30.1-16.4,43.6c-11.2,14.2-29.8,21.5-55.6,22
					c-18.1,0-34.1-4.9-47.9-14.7c-14.3-10-21.7-24.9-22-44.9c0-5.5,0.7-10.4,2.2-14.6c1.3-4.4,2.8-8,4.4-10.6
					c3.9-5.9,6.7-8.9,8.3-8.9c1,0.2,2,2.8,3,7.8c0.8,5.1,2.6,11,5.4,17.8c3.1,6.6,8.1,12.4,15,17.4c6.7,5.4,16.5,8.2,29.4,8.4
					c9.7,0,17.8-2.1,24.5-6.3c6.7-4.1,10.1-10,10.3-17.8c0-4.7-1.2-8.8-3.5-12.4c-2.5-3.4-5.6-6.2-9.3-8.4
					c-3.8-2.3-7.6-4.3-11.5-6.1c-4.2-1.5-8.3-2.8-12.1-3.8c-13-4.4-23.5-9.1-31.6-14.3c-8-5.1-14-10.4-18.1-15.9
					c-4.1-5.8-6.7-11.4-7.9-17c-1.3-5.5-1.9-11-1.9-16.4s1-11.4,3.1-18.2c2.2-6.6,5.6-12.8,10.4-18.8c4.9-6,11.4-11,19.5-14.8
					c8.4-3.8,18.6-5.7,30.6-5.7c18.2,0.4,32.8,3.9,43.9,10.4c11.1,6.4,16.7,11.9,16.9,16.5c0,1.8-0.6,4.2-1.9,7.3
					c-1.4,3.4-3.1,6.7-5.1,10.1c-2,3.4-4.1,6.2-6.3,8.5C1766,556.9,1763.9,558.3,1762.1,558.3z"/>
				<path class="st0" d="M123.7,867.8c-1.4,0.1-2.3-0.3-2.9-1c-0.6-0.6-0.9-1.8-1.2-3.7c-0.2-1.8-0.3-4.5-0.3-8.1
					c0.1-3.4,0-7.8-0.2-13.4c0.1-9.2,1.2-22.1,3.5-38.6c1-7.5,2-13.9,3-19.2c0.5-2.6,1-4.6,1.4-6s0.8-2.1,1.2-2.1h42.3
					c0.8,0,1.8,0,3.1,0c1.3,0.1,2,0.8,2,1.9c0,0.3-0.4,1.2-1.1,2.9c-0.6,1.6-1.4,3.5-2.5,5.7c-1,2.1-1.9,3.8-2.7,5.3
					c-0.9,1.7-1.6,2.5-2,2.5s-1-0.3-1.6-0.9c-0.7-0.5-1.7-1.1-2.9-1.8c-1.2-0.6-2.6-1.3-4.4-1.9c-1.8-0.4-4-0.6-6.6-0.6
					c-3.8,0-7.2,1.2-10.3,3.5c-3.2,2.5-4.9,6.3-4.9,11.6c-0.1,1.2,0.1,2.5,0.6,4s1.4,2.3,2.8,2.3c0.8,0,2-0.3,3.4-0.9
					c1.4-0.5,2.9-1.1,4.6-1.8c1.7-0.6,3.6-1.3,5.7-1.9c1.9-0.4,4-0.6,6.3-0.6c0.8,0,1.8,0.1,3,0.4c1.2,0.3,1.8,0.9,1.8,1.9
					c-0.1,0.7-1.2,3.7-3.1,9.1c-0.8,2.3-1.7,4.3-2.5,6.1c-0.8,1.9-1.3,3-1.7,3c-0.6,0-1.7-0.4-3.5-1.1c-1.7-0.6-3.7-1-5.9-1.1
					c-1.3,0-2.7,0.2-4.3,0.6c-1.5,0.5-3,1.4-4.4,2.6c-1.3,1.2-2.4,2.7-3.3,4.6c-0.9,2-1.4,4.4-1.4,7.1c0,4.5,1.2,8.1,3.5,10.9
					c2.2,3,5.5,4.4,10.1,4.4c2.7,0,5.2-0.5,7.3-1.4c2.1-0.7,4-1.5,5.7-2.4c1.6-0.9,3-1.7,4.2-2.4c1.1-0.7,1.9-1.1,2.6-1.1
					c0.5,0.1,1.3,1,2.3,2.9c0.9,1.8,1.9,4,2.9,6.5s1.8,4.7,2.6,6.8c0.7,2,1,3.2,1,3.6c-0.1,1-0.5,1.5-1.4,1.6s-1.8,0.1-2.6,0.1
					h-49.2V867.8z"/>
				<path class="st0" d="M285.2,867.8c-0.5,0-1.2,0-2.3-0.1c-1.2-0.1-1.8-0.5-1.8-1.2c0-0.8,0.5-2,1.4-3.7c0.8-1.7,1.8-3.7,2.8-6.1
					c1.2-2.4,2.1-5.1,2.9-7.9c0.8-2.9,1.2-5.9,1.2-9c-0.1-2.5-1-4.3-2.8-5.4c-1.9-1-4.1-1.5-6.6-1.5c-2.4,0-5.1,0.1-8,0.4
					c-2.9,0.3-5.6,1-8.3,2c-2.6,1-4.7,2.4-6.4,4.2c-1.8,2-2.7,4.6-2.7,7.7c0,2.1,0.4,4.3,1.2,6.4c0.7,2.1,1.5,4.2,2.4,6.1
					c0.9,1.8,1.7,3.3,2.4,4.5c0.7,1.3,1,2.3,1,2.8s-0.7,0.8-2,0.8h-15.3c-1.3,0-2.4-0.6-3.2-1.9c-0.9-1.3-1.7-2.9-2.2-5
					c-1-4.4-1.5-10.2-1.5-17.5c0.1-11.9,1.8-22.1,5.1-30.9c3.2-8.7,7-15.9,11.5-21.7c4.4-5.8,8.5-10,12.3-12.8
					c3.8-2.7,6.3-4.1,7.6-4.1c0.6,0,1.4,0.2,2.6,0.7s2.5,1.3,4,2.4c3.2,2.3,6.7,6,10.5,11.2c3.8,5.1,7,12,9.8,20.7
					s4.2,19.4,4.3,32.2c0,7.2-0.2,12.7-0.6,16.5c-0.5,3.7-1.2,6.3-1.9,7.7c-0.8,1.3-1.6,2.1-2.5,2.2c-1,0.1-2,0.1-2.8,0.1h-12.1
					V867.8z M274.3,792.9c-1.4,0-3.1,0.9-5,2.8c-1.9,1.8-3.8,4.2-5.7,7c-1.9,2.8-3.4,5.6-4.6,8.4c-1.3,2.8-1.9,5.4-1.9,7.6
					c0,1.4,0.7,2.1,2,2.1c1.2-0.1,3.9-0.6,8.2-1.6c4.2-0.8,8.7-1.3,13.6-1.4c3.6,0.2,5.5-1,5.5-3.6c0-1.8-0.4-4-1.2-6.4
					c-0.9-2.4-2-4.7-3.2-7c-1.3-2.3-2.6-4.2-3.9-5.6C276.7,793.8,275.5,793,274.3,792.9z"/>
				<path class="st0" d="M376.1,867.8c-0.3,0-0.6,0-0.9-0.1c-0.3,0-0.6-0.1-1-0.3c-0.3-0.2-0.6-0.7-0.9-1.4c-0.3-0.5-0.6-1.3-1-2.4
					c-0.6-2.2-1-6.1-1.4-11.6c-0.5-5.5-0.7-13.4-0.7-23.6c0-13.6,0.3-24.1,1-31.5c0.6-7.3,1.3-12.4,2.1-15.5
					c0.4-1.6,0.8-2.9,1.3-3.8c0.5-0.7,0.9-1.2,1.2-1.6c0.8-0.4,1.4-0.5,1.8-0.4h18.2c3.6,0,7.5,1,11.9,2.9c2.2,1,4.3,2.3,6.3,3.9
					c2.1,1.6,4.1,3.6,6,6c4,4.5,7.4,10.4,9.9,17.6c2.6,7.3,3.9,16.2,4,26.6c0.1,9.7-2.2,17.9-6.8,24.6c-4.7,6.9-12.4,10.4-23.2,10.5
					L376.1,867.8L376.1,867.8z M386.9,825.8c0,6.1,0.4,11,1.3,14.7c0.8,3.8,1.9,6.6,3.1,8.4c1.3,1.8,2.7,3,4.2,3.6
					c1.5,0.8,3,1.1,4.5,1c1.6,0,3.3-0.5,5.1-1.4c1.9-0.7,3.6-2.1,5.3-4.1c1.8-2,3.3-4.6,4.4-7.9c1.2-3.2,1.7-7.3,1.7-12.3
					c-0.1-6.9-0.8-12.8-2.3-17.8c-1.4-4.9-3.3-9-5.5-12.2c-4.7-6.2-9.1-9.3-13-9.3c-1.8,0.1-3.3,0.8-4.5,2.3s-2.2,3.4-2.8,5.6
					c-1.2,4.9-1.8,9.3-1.7,13.3v16.1H386.9z"/>
				<path class="st0" d="M459.7,867.8c-1.4,0.1-2.3-0.3-2.9-1c-0.6-0.6-0.9-1.8-1.2-3.7c-0.2-1.8-0.3-4.5-0.3-8.1
					c0.1-3.4,0-7.8-0.2-13.4c0.1-9.2,1.2-22.1,3.5-38.6c1-7.5,2-13.9,3-19.2c0.5-2.6,1-4.6,1.4-6s0.8-2.1,1.2-2.1h42.3
					c0.8,0,1.8,0,3.1,0c1.3,0.1,2,0.8,2,1.9c0,0.3-0.4,1.2-1.1,2.9c-0.6,1.6-1.4,3.5-2.5,5.7c-1,2.1-1.9,3.8-2.7,5.3
					c-0.9,1.7-1.6,2.5-2,2.5s-1-0.3-1.6-0.9c-0.7-0.5-1.7-1.1-2.9-1.8c-1.2-0.6-2.6-1.3-4.4-1.9c-1.8-0.4-4-0.6-6.6-0.6
					c-3.8,0-7.2,1.2-10.3,3.5c-3.2,2.5-4.9,6.3-4.9,11.6c-0.1,1.2,0.1,2.5,0.6,4s1.4,2.3,2.8,2.3c0.8,0,2-0.3,3.4-0.9
					c1.4-0.5,2.9-1.1,4.6-1.8c1.7-0.6,3.6-1.3,5.7-1.9c1.9-0.4,4-0.6,6.3-0.6c0.8,0,1.8,0.1,3,0.4c1.2,0.3,1.8,0.9,1.8,1.9
					c-0.1,0.7-1.2,3.7-3.1,9.1c-0.8,2.3-1.7,4.3-2.5,6.1c-0.8,1.9-1.3,3-1.7,3c-0.6,0-1.7-0.4-3.5-1.1c-1.7-0.6-3.7-1-5.9-1.1
					c-1.3,0-2.7,0.2-4.3,0.6c-1.5,0.5-3,1.4-4.4,2.6c-1.3,1.2-2.4,2.7-3.3,4.6c-0.9,2-1.4,4.4-1.4,7.1c0,4.5,1.2,8.1,3.5,10.9
					c2.2,3,5.5,4.4,10.1,4.4c2.7,0,5.2-0.5,7.3-1.4c2.1-0.7,4-1.5,5.7-2.4c1.6-0.9,3-1.7,4.2-2.4c1.1-0.7,1.9-1.1,2.6-1.1
					c0.5,0.1,1.3,1,2.3,2.9c0.9,1.8,1.9,4,2.9,6.5s1.8,4.7,2.6,6.8c0.7,2,1,3.2,1,3.6c-0.1,1-0.5,1.5-1.4,1.6s-1.8,0.1-2.6,0.1
					h-49.2V867.8z"/>
				<path class="st0" d="M579.1,798.9c-0.3,0-0.6-0.2-0.9-0.5c-0.4-0.3-0.9-0.6-1.3-1.1c-0.9-1-2.1-2.2-3.5-3.5s-3-2.4-5-3.4
					s-4.4-1.5-7.2-1.5c-2.9,0-5.5,0.7-8,2.1c-2.7,1.6-4.1,3.9-4.2,7.1c0,2,0.6,3.7,1.8,5.1c1.1,1.4,2.5,2.6,4.3,3.7
					c1.8,0.9,3.6,1.7,5.4,2.4c1.8,0.7,3.5,1.4,4.9,2c11,3.9,18.4,8.4,22.1,13.6c1.1,1.2,1.9,2.5,2.6,3.8c0.7,1.3,1.2,2.7,1.5,4
					c0.4,1.3,0.7,2.7,0.8,4s0.1,2.7,0.1,4.1c0.1,6.8-2.3,13.2-7.2,19.1c-4.9,6.2-13,9.4-24.3,9.6c-7.9,0-14.9-2.1-21-6.4
					c-6.3-4.4-9.5-10.9-9.6-19.6c0-2.4,0.3-4.5,0.9-6.4c0.6-1.9,1.2-3.5,1.9-4.7c1.7-2.6,2.9-3.9,3.6-3.9c0.5,0.1,0.9,1.2,1.3,3.4
					c0.3,2.2,1.1,4.8,2.4,7.8c1.4,2.9,3.5,5.4,6.5,7.6c2.9,2.4,7.2,3.6,12.9,3.7c4.2,0,7.8-0.9,10.7-2.8c2.9-1.8,4.4-4.4,4.5-7.8
					c0-2.1-0.5-3.9-1.5-5.4c-1.1-1.5-2.4-2.7-4.1-3.7c-1.6-1-3.3-1.9-5-2.6c-1.9-0.6-3.6-1.2-5.3-1.7c-5.7-1.9-10.3-4-13.8-6.3
					c-3.5-2.2-6.1-4.6-7.9-7c-1.8-2.5-2.9-5-3.5-7.5c-0.6-2.4-0.8-4.8-0.8-7.2c0-2.3,0.5-5,1.4-7.9s2.5-5.6,4.6-8.2
					c2.1-2.6,5-4.8,8.5-6.5c3.7-1.7,8.1-2.5,13.4-2.5c8,0.2,14.4,1.7,19.2,4.5s7.3,5.2,7.4,7.2c0,0.8-0.3,1.9-0.8,3.2
					c-0.6,1.5-1.3,2.9-2.2,4.4s-1.8,2.7-2.8,3.7C580.8,798.3,579.9,798.9,579.1,798.9z"/>
				<path class="st0" d="M647.5,869.5c-12.1-0.3-21-5-26.9-14.3c-5.9-8.9-8.8-19.2-8.8-30.9c0-12.7,3.3-24.1,9.9-34.2
					c6.6-10.4,16.3-15.7,29.3-16.1c5.1,0,10.2,1.2,15.4,3.5c2.4,1.2,4.4,2.8,6,5c1.4,2.1,2.2,4.6,2.3,7.6c-0.1,6.7-3.8,10-11.1,10.1
					c-1,0-1.5-0.6-1.7-1.7c-0.2-1-0.4-2.3-0.8-3.7c-0.4-1.4-1.2-2.6-2.5-3.6c-1.4-1-3.8-1.5-7.2-1.5c-7.8,0.2-13.5,3.5-17,9.9
					c-3.6,6.3-5.3,13.1-5.3,20.5c0.2,10.4,3,18,8.3,22.7c2.3,2.4,4.9,4.1,7.6,5.2c2.7,1.2,5.1,1.8,7.4,1.8c4.4-0.1,7.9-1,10.5-2.7
					c2.6-1.6,4.5-3.5,5.7-5.5c1.3-2.1,2.3-4,2.8-5.6s0.8-2.4,0.9-2.4c0.5,0.1,0.8,0.5,1.1,1.4s0.5,1.9,0.7,3.2
					c0.3,2.7,0.5,4.5,0.5,5.5c-0.1,8.2-2.7,14.5-7.9,19C661.7,867.1,655.2,869.4,647.5,869.5z"/>
				<path class="st0" d="M724.2,869.5c-10.7-0.1-18.4-3.7-23.1-10.5c-4.7-6.7-7-14.9-7-24.6c0.1-15,3.5-28.6,10.3-40.9
					c3.3-5.8,7.1-10.5,11.3-14.1c4.2-3.5,8.8-5.2,13.8-5.4c5.1,0.1,9.8,1.9,14.1,5.4s8,8.2,11.1,14.1c6.7,12.3,10.1,25.9,10.2,40.9
					c0.1,9.7-2.2,17.9-6.8,24.6c-4.7,6.9-12.5,10.4-23.3,10.5H724.2z M729.5,849.8c11.9,0.3,18-5.7,18.2-18
					c-0.1-12.4-2.3-22.2-6.4-29.2c-3.9-7-7.9-10.6-11.8-10.7c-3.9,0.1-7.8,3.6-11.7,10.7c-4.2,7.1-6.3,16.8-6.5,29.2
					C711.5,844.1,717.6,850.1,729.5,849.8z"/>
				<path class="st0" d="M792.2,867.8c-0.3,0-0.6,0-0.9-0.1c-0.3,0-0.6-0.1-1-0.3c-0.3-0.2-0.6-0.7-0.9-1.4c-0.3-0.5-0.6-1.3-1-2.4
					c-0.6-2.2-1-6.1-1.4-11.6c-0.5-5.5-0.7-13.4-0.7-23.6c0-13.6,0.3-24.1,1-31.5c0.6-7.3,1.3-12.4,2.1-15.5
					c0.4-1.6,0.8-2.9,1.3-3.8c0.5-0.7,0.9-1.2,1.2-1.6c0.8-0.4,1.4-0.5,1.8-0.4h27.7c2.4,0,4.6,0.1,6.5,0.3s3.6,0.6,5,1.1
					c2.9,1,5,2.3,6.5,3.8c1.6,1.5,2.6,3.3,3.1,5.2c0.4,1.9,0.6,3.8,0.6,5.6c-0.1,3-0.7,5.7-1.9,8.1c-1.3,2.4-2.7,4.5-4.3,6.4
					s-3.1,3.5-4.3,4.8c-1.4,1.4-2.1,2.6-2.1,3.5c0,0.4,0.3,0.9,0.9,1.5c0.6,0.6,1.2,1.4,2,2.3c1.8,1.8,3.8,3.9,6.1,6.4
					s4.3,5.5,6.1,9.1s2.7,7.9,2.8,12.6c0.1,5.6-1.7,10.5-5.2,14.7c-3.7,4.4-9.9,6.6-18.6,6.6h-32.4V867.8z M818.4,807.7
					c1.7-1.3,3.4-3.1,5-5.4c1.6-2.3,2.5-4.6,2.6-6.9c-0.1-2.6-1-4.4-2.7-5.4c-1.8-0.9-3.7-1.3-5.9-1.3c-5.2-0.1-9,1.4-11.5,4.4
					c-2.6,3.2-3.9,9.1-3.9,17.6c-0.1,1.2,0,2.3,0.4,3.4c0.2,1.2,1,1.8,2.5,1.8c0.7,0,1.6-0.3,2.8-0.9c1.1-0.4,2.1-0.9,3-1.5
					L818.4,807.7z M807.3,828.7c-1.4,0.7-2.6,1.4-3.4,2.1c-0.8,0.8-1.3,2.1-1.3,3.9c0,4.1,0.3,7.4,0.8,9.9s1.3,4.4,2.4,5.7
					c1.1,1.3,2.4,2.1,4,2.6c1.6,0.4,3.5,0.6,5.7,0.6c4.1,0.1,7.7-0.8,10.8-2.6s4.8-4.9,4.8-9.1c0-2.1-0.5-4.2-1.4-6.4
					c-1-2.1-2.2-4.2-3.7-6.1c-1.3-1.9-2.6-3.5-4-4.6c-1.4-1.2-2.5-1.7-3.3-1.7c-0.7,0-1.5,0.2-2.3,0.5c-0.9,0.5-1.6,0.9-2.3,1.3
					L807.3,828.7z"/>
				<path class="st0" d="M875,867.8c-1.4,0.1-2.3-0.3-2.9-1c-0.6-0.6-0.9-1.8-1.2-3.7c-0.2-1.8-0.3-4.5-0.3-8.1
					c0.1-3.4,0-7.8-0.2-13.4c0.1-9.2,1.2-22.1,3.5-38.6c1-7.5,2-13.9,3-19.2c0.5-2.6,1-4.6,1.4-6s0.8-2.1,1.2-2.1h42.3
					c0.8,0,1.8,0,3.1,0c1.3,0.1,2,0.8,2,1.9c0,0.3-0.4,1.2-1.1,2.9c-0.6,1.6-1.4,3.5-2.5,5.7c-1,2.1-1.9,3.8-2.7,5.3
					c-0.9,1.7-1.6,2.5-2,2.5s-1-0.3-1.6-0.9c-0.7-0.5-1.7-1.1-2.9-1.8c-1.2-0.6-2.6-1.3-4.4-1.9c-1.8-0.4-4-0.6-6.6-0.6
					c-3.8,0-7.2,1.2-10.3,3.5c-3.2,2.5-4.9,6.3-4.9,11.6c-0.1,1.2,0.1,2.5,0.6,4s1.4,2.3,2.8,2.3c0.8,0,2-0.3,3.4-0.9
					c1.4-0.5,2.9-1.1,4.6-1.8c1.7-0.6,3.6-1.3,5.7-1.9c1.9-0.4,4-0.6,6.3-0.6c0.8,0,1.8,0.1,3,0.4c1.2,0.3,1.8,0.9,1.8,1.9
					c-0.1,0.7-1.2,3.7-3.1,9.1c-0.8,2.3-1.7,4.3-2.5,6.1c-0.8,1.9-1.3,3-1.7,3c-0.6,0-1.7-0.4-3.5-1.1c-1.7-0.6-3.7-1-5.9-1.1
					c-1.3,0-2.7,0.2-4.3,0.6c-1.5,0.5-3,1.4-4.4,2.6c-1.3,1.2-2.4,2.7-3.3,4.6c-0.9,2-1.4,4.4-1.4,7.1c0,4.5,1.2,8.1,3.5,10.9
					c2.2,3,5.5,4.4,10.1,4.4c2.7,0,5.2-0.5,7.3-1.4c2.1-0.7,4-1.5,5.7-2.4c1.6-0.9,3-1.7,4.2-2.4c1.1-0.7,1.9-1.1,2.6-1.1
					c0.5,0.1,1.3,1,2.3,2.9c0.9,1.8,1.9,4,2.9,6.5s1.8,4.7,2.6,6.8c0.7,2,1,3.2,1,3.6c-0.1,1-0.5,1.5-1.4,1.6s-1.8,0.1-2.6,0.1H875
					V867.8z"/>
				<path class="st0" d="M983.2,775.7c5,0,9.1,0.6,12.4,1.8c3.3,1.3,5.8,2.9,7.6,5c1.9,2,3.3,4.2,4,6.5c0.7,2.5,1,4.9,1,7.4
					c-0.1,4.4-0.9,8.1-2.5,11.1s-3.5,5.4-5.7,7.4s-4.1,3.6-5.8,4.8s-2.6,2.2-2.6,3c0,0.4,0.3,0.9,1,1.6c0.6,0.8,1.3,1.7,2.2,2.8
					c2,2.2,4.2,5.2,6.8,8.9c2.6,3.6,5,8,7,13.1c1.9,5.1,2.9,10.9,3,17.5c0,0.5-0.1,0.9-0.4,1.1c-0.3,0.2-1.1,0.3-2.2,0.3h-12.1
					c-1,0-2.1,0-3.3-0.1s-1.9-0.5-1.9-1.3c-0.1-7-1.8-14.4-5-22.2c-1.4-3.8-3-6.8-4.7-9.2c-1.7-2.3-3.4-3.5-5.1-3.6
					c-1.9,0.1-4.1,1.1-6.7,3c-2.8,2-4.2,4.6-4.4,7.7c0.1,4.6,0.8,9.6,2,14.9c1.2,5.4,1.9,8.5,1.9,9.4c-0.1,0.8-0.5,1.3-1.4,1.3
					s-1.7,0-2.4,0h-12.4c-0.3,0-0.6,0-0.9-0.1c-0.3,0-0.6-0.1-1-0.3c-0.3-0.2-0.6-0.7-0.9-1.4c-0.3-0.5-0.6-1.3-1-2.4
					c-0.6-2.2-1-6.1-1.4-11.6c-0.5-5.5-0.7-13.4-0.7-23.6c0-13.6,0.3-24.1,1-31.5c0.6-7.3,1.3-12.4,2.1-15.5
					c0.4-1.6,0.8-2.9,1.2-3.8c0.5-0.7,0.9-1.2,1.2-1.6c0.8-0.4,1.4-0.5,1.8-0.4L983.2,775.7L983.2,775.7z M968.2,818.4
					c1,0,2.8-0.6,5.2-1.8c2.4-1.1,4.9-2.6,7.5-4.5c2.8-1.9,5.1-4.1,7-6.4c2-2.3,3-4.8,3-7.3c-0.1-3.5-1.3-6-3.8-7.5
					c-2.5-1.3-5.3-2-8.4-2c-4.8-0.1-8.3,1.3-10.6,4.1c-2.2,3.1-3.3,9.3-3.3,18.7c0,1.3,0.2,2.7,0.5,4.2
					C965.7,817.4,966.7,818.3,968.2,818.4z"/>
				<path class="st0" d="M1059,867.8c-0.5,0-1.1,0-1.8,0.1c-0.3-0.1-0.6-0.3-1-0.5c-0.4-0.3-0.8-0.8-1.3-1.5c-0.3-0.7-0.6-1.7-1-3.1
					c-0.3-1.3-0.6-2.9-0.8-4.9c-0.6-4-0.8-10-0.8-17.9c0.1-12.5,0.9-22.5,2.4-30c0.7-3.8,1.3-7,1.7-9.4c0.4-2.5,0.6-4.1,0.6-5.1
					c0.1-1.7,0.1-3,0-4c-0.1-0.9-0.9-1.3-2.2-1.3c-1.9,0.1-4,0.7-6.4,1.8c-2.4,1.3-4.8,2.7-7.1,4.4c-2.3,1.6-4.3,3.1-5.9,4.3
					c-1.7,1.4-2.8,2.1-3.4,2.1c-0.5,0.1-0.8,0-1-0.2c-0.4-0.1-0.5-1-0.5-2.4c0-2.2,0.6-5.7,1.8-10.3c1-4.6,2-7.9,2.8-9.9
					c0.3-0.6,1.4-1.2,3.2-2c1.8-0.6,4.1-1.3,6.9-1.9c5.8-1.4,12.5-2.1,19.9-2.2c8.9,0.1,16.6,1.1,22.9,2.9c6.4,2,9.6,4.3,9.7,7.1
					c0,1.3-0.2,2.7-0.7,4.3c-0.5,1.7-1.2,3.4-1.9,5.1c-0.8,1.7-1.5,3.1-2.1,4.2c-0.7,1.2-1.3,1.7-1.6,1.7c-0.4,0-1-0.5-1.7-1.5
					s-1.7-2-2.9-3.1c-1.2-1.2-2.5-2.3-4-3.2c-1.6-0.8-3.4-1.2-5.3-1.4c-1.6,0.1-2.9,1.2-3.9,3.4c-1.1,2.2-1.9,5-2.4,8.4
					c-1,7.3-1.5,13.8-1.4,19.6c0.2,14.1,1.2,24.8,3,32.1c0.8,3.6,1.4,6.4,2,8.4c0.6,2.1,0.8,3.3,0.8,3.8c-0.1,1.1-0.8,1.7-2,1.8
					c-1.3,0.1-2.4,0.1-3.2,0.1H1059V867.8z"/>
				<path class="st0" d="M1153.6,867.8c-0.5,0-1.2,0-2.3-0.1c-1.2-0.1-1.8-0.5-1.8-1.2c0-0.8,0.5-2,1.4-3.7c0.8-1.7,1.8-3.7,2.8-6.1
					c1.2-2.4,2.1-5.1,2.9-7.9c0.8-2.9,1.2-5.9,1.2-9c-0.1-2.5-1-4.3-2.8-5.4c-1.9-1-4.1-1.5-6.6-1.5c-2.4,0-5.1,0.1-8,0.4
					c-2.9,0.3-5.6,1-8.3,2c-2.6,1-4.7,2.4-6.4,4.2c-1.8,2-2.7,4.6-2.7,7.7c0,2.1,0.4,4.3,1.2,6.4c0.7,2.1,1.5,4.2,2.4,6.1
					c0.9,1.8,1.7,3.3,2.4,4.5c0.7,1.3,1,2.3,1,2.8s-0.7,0.8-2,0.8h-15.3c-1.3,0-2.4-0.6-3.2-1.9c-0.9-1.3-1.7-2.9-2.2-5
					c-1-4.4-1.5-10.2-1.5-17.5c0.1-11.9,1.8-22.1,5.1-30.9c3.2-8.7,7-15.9,11.5-21.7c4.4-5.8,8.5-10,12.3-12.8
					c3.8-2.7,6.3-4.1,7.6-4.1c0.6,0,1.4,0.2,2.6,0.7s2.5,1.3,4,2.4c3.2,2.3,6.7,6,10.5,11.2c3.8,5.1,7,12,9.8,20.7
					s4.2,19.4,4.3,32.2c0,7.2-0.2,12.7-0.6,16.5c-0.5,3.7-1.2,6.3-1.9,7.7c-0.8,1.3-1.6,2.1-2.5,2.2c-1,0.1-2,0.1-2.8,0.1h-12.1
					V867.8z M1142.8,792.9c-1.4,0-3.1,0.9-5,2.8c-1.9,1.8-3.8,4.2-5.7,7c-1.9,2.8-3.4,5.6-4.6,8.4c-1.3,2.8-1.9,5.4-1.9,7.6
					c0,1.4,0.7,2.1,2,2.1c1.2-0.1,3.9-0.6,8.2-1.6c4.2-0.8,8.7-1.3,13.6-1.4c3.6,0.2,5.5-1,5.5-3.6c0-1.8-0.4-4-1.2-6.4
					c-0.9-2.4-2-4.7-3.2-7c-1.3-2.3-2.6-4.2-3.9-5.6C1145.2,793.8,1144,793,1142.8,792.9z"/>
				<path class="st0" d="M1244.5,867.8c-0.3,0-0.6,0-0.9-0.1c-0.3,0-0.6-0.1-1-0.3c-0.3-0.2-0.6-0.7-0.9-1.4c-0.3-0.5-0.6-1.3-1-2.4
					c-0.6-2.2-1-6.1-1.4-11.6c-0.5-5.5-0.7-13.4-0.7-23.6c0-13.6,0.3-24.1,1-31.5c0.6-7.3,1.3-12.4,2.1-15.5
					c0.4-1.6,0.8-2.9,1.3-3.8c0.5-0.7,0.9-1.2,1.2-1.6c0.8-0.4,1.4-0.5,1.8-0.4h18.2c3.6,0,7.5,1,11.9,2.9c2.2,1,4.3,2.3,6.3,3.9
					c2.1,1.6,4.1,3.6,6,6c4,4.5,7.4,10.4,9.9,17.6c2.6,7.3,3.9,16.2,4,26.6c0.1,9.7-2.2,17.9-6.8,24.6c-4.7,6.9-12.4,10.4-23.2,10.5
					L1244.5,867.8L1244.5,867.8z M1255.4,825.8c0,6.1,0.4,11,1.3,14.7c0.8,3.8,1.9,6.6,3.1,8.4c1.3,1.8,2.7,3,4.2,3.6
					c1.5,0.8,3,1.1,4.5,1c1.6,0,3.3-0.5,5.1-1.4c1.9-0.7,3.6-2.1,5.3-4.1c1.8-2,3.3-4.6,4.4-7.9c1.2-3.2,1.7-7.3,1.7-12.3
					c-0.1-6.9-0.8-12.8-2.3-17.8c-1.4-4.9-3.3-9-5.5-12.2c-4.7-6.2-9.1-9.3-13-9.3c-1.8,0.1-3.3,0.8-4.5,2.3s-2.2,3.4-2.8,5.6
					c-1.2,4.9-1.8,9.3-1.7,13.3v16.1H1255.4z"/>
				<path class="st0" d="M1328.1,867.8c-1.4,0.1-2.3-0.3-2.9-1c-0.6-0.6-0.9-1.8-1.2-3.7c-0.2-1.8-0.3-4.5-0.3-8.1
					c0.1-3.4,0-7.8-0.2-13.4c0.1-9.2,1.2-22.1,3.5-38.6c1-7.5,2-13.9,3-19.2c0.5-2.6,1-4.6,1.4-6s0.8-2.1,1.2-2.1h42.3
					c0.8,0,1.8,0,3.1,0c1.3,0.1,2,0.8,2,1.9c0,0.3-0.4,1.2-1.1,2.9c-0.6,1.6-1.4,3.5-2.5,5.7c-1,2.1-1.9,3.8-2.7,5.3
					c-0.9,1.7-1.6,2.5-2,2.5s-1-0.3-1.6-0.9c-0.7-0.5-1.7-1.1-2.9-1.8c-1.2-0.6-2.6-1.3-4.4-1.9c-1.8-0.4-4-0.6-6.6-0.6
					c-3.8,0-7.2,1.2-10.3,3.5c-3.2,2.5-4.9,6.3-4.9,11.6c-0.1,1.2,0.1,2.5,0.6,4s1.4,2.3,2.8,2.3c0.8,0,2-0.3,3.4-0.9
					c1.4-0.5,2.9-1.1,4.6-1.8c1.7-0.6,3.6-1.3,5.7-1.9c1.9-0.4,4-0.6,6.3-0.6c0.8,0,1.8,0.1,3,0.4c1.2,0.3,1.8,0.9,1.8,1.9
					c-0.1,0.7-1.2,3.7-3.1,9.1c-0.8,2.3-1.7,4.3-2.5,6.1c-0.8,1.9-1.3,3-1.7,3c-0.6,0-1.7-0.4-3.5-1.1c-1.7-0.6-3.7-1-5.9-1.1
					c-1.3,0-2.7,0.2-4.3,0.6c-1.5,0.5-3,1.4-4.4,2.6c-1.3,1.2-2.4,2.7-3.3,4.6c-0.9,2-1.4,4.4-1.4,7.1c0,4.5,1.2,8.1,3.5,10.9
					c2.2,3,5.5,4.4,10.1,4.4c2.7,0,5.2-0.5,7.3-1.4c2.1-0.7,4-1.5,5.7-2.4c1.6-0.9,3-1.7,4.2-2.4c1.1-0.7,1.9-1.1,2.6-1.1
					c0.5,0.1,1.3,1,2.3,2.9c0.9,1.8,1.9,4,2.9,6.5s1.8,4.7,2.6,6.8c0.7,2,1,3.2,1,3.6c-0.1,1-0.5,1.5-1.4,1.6s-1.8,0.1-2.6,0.1
					h-49.2V867.8z"/>
				<path class="st0" d="M1489.6,867.8c-0.5,0-1.2,0-2.3-0.1c-1.2-0.1-1.8-0.5-1.8-1.2c0-0.8,0.5-2,1.4-3.7c0.8-1.7,1.8-3.7,2.8-6.1
					c1.2-2.4,2.1-5.1,2.9-7.9c0.8-2.9,1.2-5.9,1.2-9c-0.1-2.5-1-4.3-2.8-5.4c-1.9-1-4.1-1.5-6.6-1.5c-2.4,0-5.1,0.1-8,0.4
					c-2.9,0.3-5.6,1-8.3,2c-2.6,1-4.7,2.4-6.4,4.2c-1.8,2-2.7,4.6-2.7,7.7c0,2.1,0.4,4.3,1.2,6.4c0.7,2.1,1.5,4.2,2.4,6.1
					c0.9,1.8,1.7,3.3,2.4,4.5c0.7,1.3,1,2.3,1,2.8s-0.7,0.8-2,0.8h-15.3c-1.3,0-2.4-0.6-3.2-1.9c-0.9-1.3-1.7-2.9-2.2-5
					c-1-4.4-1.5-10.2-1.5-17.5c0.1-11.9,1.8-22.1,5.1-30.9c3.2-8.7,7-15.9,11.5-21.7c4.4-5.8,8.5-10,12.3-12.8
					c3.8-2.7,6.3-4.1,7.6-4.1c0.6,0,1.4,0.2,2.6,0.7s2.5,1.3,4,2.4c3.2,2.3,6.7,6,10.5,11.2c3.8,5.1,7,12,9.8,20.7
					s4.2,19.4,4.3,32.2c0,7.2-0.2,12.7-0.6,16.5c-0.5,3.7-1.2,6.3-1.9,7.7c-0.8,1.3-1.6,2.1-2.5,2.2c-1,0.1-2,0.1-2.8,0.1h-12.1
					V867.8z M1478.8,792.9c-1.4,0-3.1,0.9-5,2.8c-1.9,1.8-3.8,4.2-5.7,7c-1.9,2.8-3.4,5.6-4.6,8.4c-1.3,2.8-1.9,5.4-1.9,7.6
					c0,1.4,0.7,2.1,2,2.1c1.2-0.1,3.9-0.6,8.2-1.6c4.2-0.8,8.7-1.3,13.6-1.4c3.6,0.2,5.5-1,5.5-3.6c0-1.8-0.4-4-1.2-6.4
					c-0.9-2.4-2-4.7-3.2-7c-1.3-2.3-2.6-4.2-3.9-5.6C1481.2,793.8,1479.9,793,1478.8,792.9z M1481.8,751.1c0.9-2,1.8-3.1,2.6-3.5
					c0.7-0.1,2.2-0.2,4.4-0.1c1.2-0.1,2.5-0.1,4.2,0c1.8,0.1,2.7,1,2.8,2.5c0,0.4-0.2,0.9-0.6,1.6c-0.5,0.8-1.1,1.7-1.8,2.8
					c-1.6,2.2-3.6,4.6-6,7.1c-2.3,2.5-4.7,4.7-7.2,6.4c-2.4,1.7-4.6,2.5-6.3,2.5c-0.8,0.1-1.3-0.2-1.4-0.8c0-0.4,0.2-1,0.6-1.6
					c0.3-0.6,0.5-1,0.6-1.3L1481.8,751.1z"/>
				<path class="st0" d="M1567.4,775.7c5,0,9.1,0.6,12.4,1.8c3.3,1.3,5.8,2.9,7.6,5c1.9,2,3.3,4.2,4,6.5c0.7,2.5,1,4.9,1,7.4
					c-0.1,4.4-0.9,8.1-2.5,11.1s-3.5,5.4-5.7,7.4s-4.1,3.6-5.8,4.8c-1.7,1.2-2.6,2.2-2.6,3c0,0.4,0.3,0.9,1,1.6
					c0.6,0.8,1.3,1.7,2.2,2.8c2,2.2,4.2,5.2,6.8,8.9c2.6,3.6,5,8,7,13.1c1.9,5.1,2.9,10.9,3,17.5c0,0.5-0.1,0.9-0.4,1.1
					c-0.3,0.2-1.1,0.3-2.2,0.3h-12.1c-1,0-2.1,0-3.3-0.1c-1.2-0.1-1.9-0.5-1.9-1.3c-0.1-7-1.8-14.4-5-22.2c-1.4-3.8-3-6.8-4.7-9.2
					c-1.7-2.3-3.4-3.5-5.1-3.6c-1.9,0.1-4.1,1.1-6.7,3c-2.8,2-4.2,4.6-4.4,7.7c0.1,4.6,0.8,9.6,2,14.9c1.2,5.4,1.9,8.5,1.9,9.4
					c-0.1,0.8-0.5,1.3-1.4,1.3s-1.7,0-2.4,0h-12.4c-0.3,0-0.6,0-0.9-0.1c-0.3,0-0.6-0.1-1-0.3c-0.3-0.2-0.6-0.7-0.9-1.4
					c-0.3-0.5-0.6-1.3-1-2.4c-0.6-2.2-1-6.1-1.4-11.6c-0.5-5.5-0.7-13.4-0.7-23.6c0-13.6,0.3-24.1,1-31.5c0.6-7.3,1.3-12.4,2.1-15.5
					c0.4-1.6,0.8-2.9,1.3-3.8c0.5-0.7,0.9-1.2,1.2-1.6c0.8-0.4,1.4-0.5,1.8-0.4L1567.4,775.7L1567.4,775.7z M1552.3,818.4
					c1,0,2.8-0.6,5.2-1.8c2.4-1.1,4.9-2.6,7.5-4.5c2.8-1.9,5.1-4.1,7-6.4c2-2.3,3-4.8,3-7.3c-0.1-3.5-1.3-6-3.8-7.5
					c-2.5-1.3-5.3-2-8.4-2c-4.8-0.1-8.3,1.3-10.6,4.1c-2.2,3.1-3.3,9.3-3.3,18.7c0,1.3,0.2,2.7,0.5,4.2
					C1549.9,817.4,1550.8,818.3,1552.3,818.4z"/>
				<path class="st0" d="M1623.2,867.8c-0.3,0-0.6,0-1-0.1c-0.3,0-0.6-0.1-0.9-0.3s-0.6-0.7-1-1.4c-0.3-0.5-0.6-1.3-0.9-2.4
					c-0.6-2.2-1.1-6.1-1.4-11.6c-0.4-5.5-0.6-13.4-0.6-23.6c0-13.6,0.3-24.1,0.9-31.5c0.6-7.3,1.3-12.4,2.1-15.5
					c0.5-1.6,0.9-2.9,1.3-3.8c0.4-0.7,0.8-1.2,1.1-1.6c0.8-0.4,1.4-0.5,1.8-0.4h11.5c0.9,0,1.8,0,2.7,0c0.8,0.1,1.3,0.7,1.4,1.8
					c0,0.2-0.2,1.5-0.7,3.8c-0.6,2.2-1.2,5.2-2.1,9.1c-1.8,7.6-2.8,17-2.9,28.1c0.1,14.3,1,25.7,2.8,34.1c0.4,2,0.7,3.8,1,5.5
					c0.4,1.6,0.7,3.1,0.9,4.3c0.5,2.4,0.7,3.8,0.7,4.3c-0.1,0.9-0.6,1.3-1.6,1.2h-2.1L1623.2,867.8L1623.2,867.8z"/>
				<path class="st0" d="M1667.6,867.8c-1.4,0.1-2.3-0.3-2.9-1c-0.6-0.6-0.9-1.8-1.2-3.7c-0.2-1.8-0.3-4.5-0.3-8.1
					c0.1-3.4,0-7.8-0.2-13.4c0.1-9.2,1.2-22.1,3.5-38.6c1-7.5,2-13.9,3-19.2c0.5-2.6,1-4.6,1.4-6s0.8-2.1,1.2-2.1h42.3
					c0.8,0,1.8,0,3.1,0c1.3,0.1,2,0.8,2,1.9c0,0.3-0.4,1.2-1.1,2.9c-0.6,1.6-1.4,3.5-2.5,5.7c-1,2.1-1.9,3.8-2.7,5.3
					c-0.9,1.7-1.6,2.5-2,2.5s-1-0.3-1.6-0.9c-0.7-0.5-1.7-1.1-2.9-1.8c-1.2-0.6-2.6-1.3-4.4-1.9c-1.8-0.4-4-0.6-6.6-0.6
					c-3.8,0-7.2,1.2-10.3,3.5c-3.2,2.5-4.9,6.3-4.9,11.6c-0.1,1.2,0.1,2.5,0.6,4s1.4,2.3,2.8,2.3c0.8,0,2-0.3,3.4-0.9
					c1.4-0.5,2.9-1.1,4.6-1.8c1.7-0.6,3.6-1.3,5.7-1.9c1.9-0.4,4-0.6,6.3-0.6c0.8,0,1.8,0.1,3,0.4c1.2,0.3,1.8,0.9,1.8,1.9
					c-0.1,0.7-1.2,3.7-3.1,9.1c-0.8,2.3-1.7,4.3-2.5,6.1c-0.8,1.9-1.3,3-1.7,3c-0.6,0-1.7-0.4-3.5-1.1c-1.7-0.6-3.7-1-5.9-1.1
					c-1.3,0-2.7,0.2-4.3,0.6c-1.5,0.5-3,1.4-4.4,2.6c-1.3,1.2-2.4,2.7-3.3,4.6c-0.9,2-1.4,4.4-1.4,7.1c0,4.5,1.2,8.1,3.5,10.9
					c2.2,3,5.5,4.4,10.1,4.4c2.7,0,5.2-0.5,7.3-1.4c2.1-0.7,4-1.5,5.7-2.4c1.6-0.9,3-1.7,4.2-2.4c1.1-0.7,1.9-1.1,2.6-1.1
					c0.5,0.1,1.3,1,2.3,2.9c0.9,1.8,1.9,4,2.9,6.5s1.8,4.7,2.6,6.8c0.7,2,1,3.2,1,3.6c-0.1,1-0.5,1.5-1.4,1.6s-1.8,0.1-2.6,0.1
					h-49.2V867.8z"/>
				<path class="st0" d="M1787,798.9c-0.3,0-0.6-0.2-0.9-0.5c-0.4-0.3-0.9-0.6-1.3-1.1c-0.9-1-2.1-2.2-3.5-3.5s-3-2.4-5-3.4
					s-4.4-1.5-7.2-1.5c-2.9,0-5.5,0.7-8,2.1c-2.7,1.6-4.1,3.9-4.2,7.1c0,2,0.6,3.7,1.8,5.1c1.1,1.4,2.5,2.6,4.3,3.7
					c1.8,0.9,3.6,1.7,5.4,2.4s3.5,1.4,4.9,2c11,3.9,18.4,8.4,22.1,13.6c1.1,1.2,1.9,2.5,2.6,3.8s1.2,2.7,1.5,4
					c0.4,1.3,0.7,2.7,0.8,4c0.1,1.3,0.1,2.7,0.1,4.1c0.1,6.8-2.3,13.2-7.2,19.1c-4.9,6.2-13,9.4-24.3,9.6c-7.9,0-14.9-2.1-21-6.4
					c-6.3-4.4-9.5-10.9-9.6-19.6c0-2.4,0.3-4.5,0.9-6.4s1.2-3.5,1.9-4.7c1.7-2.6,2.9-3.9,3.6-3.9c0.5,0.1,0.9,1.2,1.3,3.4
					c0.3,2.2,1.1,4.8,2.4,7.8c1.4,2.9,3.5,5.4,6.5,7.6c2.9,2.4,7.2,3.6,12.9,3.7c4.2,0,7.8-0.9,10.7-2.8c2.9-1.8,4.4-4.4,4.5-7.8
					c0-2.1-0.5-3.9-1.5-5.4c-1.1-1.5-2.4-2.7-4.1-3.7c-1.6-1-3.3-1.9-5-2.6c-1.9-0.6-3.6-1.2-5.3-1.7c-5.7-1.9-10.3-4-13.8-6.3
					c-3.5-2.2-6.1-4.6-7.9-7c-1.8-2.5-2.9-5-3.5-7.5c-0.6-2.4-0.8-4.8-0.8-7.2c0-2.3,0.5-5,1.4-7.9s2.5-5.6,4.6-8.2
					c2.1-2.6,5-4.8,8.5-6.5c3.7-1.7,8.1-2.5,13.4-2.5c8,0.2,14.4,1.7,19.2,4.5c4.8,2.8,7.3,5.2,7.4,7.2c0,0.8-0.3,1.9-0.8,3.2
					c-0.6,1.5-1.3,2.9-2.2,4.4c-0.9,1.5-1.8,2.7-2.8,3.7C1788.7,798.3,1787.8,798.9,1787,798.9z"/>
			</g>
		</g>
	</g>
</g>
</svg>
