<?xml version="1.0" encoding="utf-8"?>
<!-- Generator: Adobe Illustrator 22.0.1, SVG Export Plug-In . SVG Version: 6.00 Build 0)  -->
<svg version="1.1" id="Camada_1" xmlns="http://www.w3.org/2000/svg" xmlns:xlink="http://www.w3.org/1999/xlink" x="0px" y="0px"
	 viewBox="0 0 1920 1312" style="enable-background:new 0 0 1920 1312;" xml:space="preserve">
<style type="text/css">
	.st0{fill:#FFFFFF;}
</style>
<g>
	<path class="st0" d="M273.9,574.4l-12.4,31.1h-49.4l68.9-179.1h50.8l67.5,179.1h-49.7l-11.6-31.1H273.9z M306.5,481.7H306l-19.2,57
		h38.7L306.5,481.7z"/>
	<path class="st0" d="M542,486.4c-4.8-6.5-10.7-11.4-17.9-14.7c-7.2-3.3-14.8-5-22.9-5c-7.1,0-13.6,1.3-19.5,3.8
		c-5.9,2.5-10.9,6.1-15.1,10.6c-4.2,4.5-7.4,9.8-9.7,15.8c-2.3,6-3.4,12.5-3.4,19.5c0,7.1,1.1,13.7,3.4,19.6
		c2.3,5.9,5.6,11,9.9,15.3s9.4,7.6,15.3,10.1c5.9,2.5,12.6,3.7,19.8,3.7c7.6,0,15-1.7,22.1-5.1c7.1-3.4,13.1-8,18.1-13.9v55.8
		c-7.8,2.4-14.7,4.4-20.9,5.9c-6.2,1.6-12.9,2.4-20.2,2.4c-12.5,0-24.5-2.3-36-6.8c-11.5-4.5-21.9-11-31.2-19.6
		c-10-9-17.3-19.2-21.9-30.5c-4.6-11.3-6.9-23.7-6.9-37.2c0-12.4,2.3-24.2,6.8-35.4c4.5-11.2,11-21.3,19.6-30.2
		c8.9-9,19.3-16.1,31.2-21.3c12-5.1,24.3-7.7,36.9-7.7c7.6,0,14.8,0.8,21.7,2.4c6.9,1.6,13.8,3.8,20.8,6.7V486.4z"/>
	<path class="st0" d="M660.7,420.4c12.8,0,25.2,2.3,37.2,6.8c12,4.5,22.5,10.9,31.7,19c9.2,8.2,16.5,17.9,22,29.2
		c5.5,11.3,8.2,23.7,8.2,37.2c0,14.6-2.5,27.9-7.4,39.9c-4.9,12-11.8,22.5-20.6,31.2c-8.8,8.8-19.2,15.6-31.4,20.4
		c-12.1,4.8-25.4,7.2-39.8,7.2c-14.4,0-27.7-2.4-39.8-7.2c-12.1-4.8-22.6-11.6-31.4-20.4c-8.8-8.8-15.6-19.2-20.6-31.2
		c-4.9-12-7.4-25.3-7.4-39.9c0-13.5,2.7-25.9,8.2-37.2c5.5-11.3,12.8-21.1,22-29.2c9.2-8.2,19.8-14.5,31.7-19
		C635.5,422.7,647.9,420.4,660.7,420.4z M660.7,465.5c-7,0-13.5,1.3-19.6,3.9c-6.1,2.6-11.4,6.1-16,10.5c-4.6,4.4-8.2,9.4-10.9,15.1
		c-2.7,5.7-4,11.6-4,17.8c0,7.8,1.3,14.9,4,21.4c2.7,6.5,6.3,12.1,10.9,16.9c4.6,4.8,9.9,8.5,16,11.2c6.1,2.7,12.6,4,19.6,4
		s13.5-1.3,19.6-4c6.1-2.7,11.4-6.4,16-11.2c4.6-4.8,8.2-10.4,10.9-16.9c2.7-6.5,4-13.6,4-21.4c0-6.2-1.3-12.1-4-17.8
		c-2.7-5.7-6.3-10.7-10.9-15.1c-4.6-4.4-9.9-7.8-16-10.5C674.3,466.8,667.7,465.5,660.7,465.5z"/>
	<path class="st0" d="M781.4,426.3H828l85.3,109.5h0.5V426.3h46.6v179.1h-46.6l-85.3-109.8H828v109.8h-46.6V426.3z"/>
	<path class="st0" d="M1062,605.5h-46.6V465.8H977v-39.4h123.6v39.4H1062V605.5z"/>
	<path class="st0" d="M1164,465.8v29.9h52.5v39.4H1164V566h55.4v39.4h-101.9V426.3h101.9v39.4H1164z"/>
	<path class="st0" d="M1376.1,486.4c-4.8-6.5-10.7-11.4-17.9-14.7c-7.2-3.3-14.8-5-22.9-5c-7.1,0-13.6,1.3-19.5,3.8
		c-5.9,2.5-10.9,6.1-15.1,10.6c-4.2,4.5-7.4,9.8-9.7,15.8c-2.3,6-3.4,12.5-3.4,19.5c0,7.1,1.1,13.7,3.4,19.6
		c2.3,5.9,5.6,11,9.9,15.3c4.3,4.3,9.4,7.6,15.3,10.1c5.9,2.5,12.6,3.7,19.8,3.7c7.6,0,15-1.7,22.1-5.1c7.1-3.4,13.1-8,18.1-13.9
		v55.8c-7.8,2.4-14.7,4.4-20.9,5.9c-6.2,1.6-12.9,2.4-20.2,2.4c-12.5,0-24.5-2.3-36-6.8c-11.5-4.5-21.9-11-31.2-19.6
		c-10-9-17.3-19.2-21.9-30.5c-4.6-11.3-6.9-23.7-6.9-37.2c0-12.4,2.3-24.2,6.8-35.4c4.5-11.2,11-21.3,19.6-30.2
		c8.9-9,19.3-16.1,31.2-21.3c12-5.1,24.3-7.7,36.9-7.7c7.6,0,14.8,0.8,21.7,2.4c6.9,1.6,13.8,3.8,20.8,6.7V486.4z"/>
	<path class="st0" d="M1451.5,465.8v29.9h52.5v39.4h-52.5V566h55.4v39.4h-101.9V426.3h101.9v39.4H1451.5z"/>
	<path class="st0" d="M1691,426.3v100.7c0,5.7-0.2,11.4-0.5,17.1c-0.3,5.7-1.1,11.2-2.3,16.6c-1.2,5.4-3.1,10.6-5.6,15.6
		c-2.5,5-6,9.6-10.5,13.9c-3.8,3.6-8,6.7-12.7,9.3c-4.7,2.5-9.6,4.6-14.7,6.2c-5.1,1.6-10.5,2.7-15.9,3.4c-5.5,0.7-10.8,1.1-16,1.1
		c-5.2,0-10.6-0.4-16-1.1c-5.5-0.7-10.8-1.9-15.9-3.4c-5.1-1.6-10.1-3.6-14.7-6.2c-4.7-2.5-8.9-5.6-12.7-9.3
		c-4.4-4.3-7.9-8.9-10.5-13.9c-2.5-5-4.4-10.2-5.6-15.6c-1.2-5.4-1.9-10.9-2.3-16.6c-0.3-5.7-0.5-11.4-0.5-17.1V426.3h46.6v94.3
		c0,5.9,0.2,11.7,0.7,17.5c0.5,5.8,1.7,11,3.8,15.7c2.1,4.7,5.2,8.4,9.5,11.3c4.3,2.9,10.1,4.3,17.6,4.3c7.4,0,13.3-1.4,17.6-4.3
		c4.3-2.9,7.4-6.6,9.5-11.3c2.1-4.7,3.3-9.9,3.8-15.7c0.5-5.8,0.7-11.6,0.7-17.5v-94.3H1691z"/>
	<path class="st0" d="M203.3,711.5h66.1c12.5,0,24.3,2.3,35.3,6.9c11,4.6,20.6,10.9,28.9,19c8.2,8.1,14.8,17.6,19.6,28.5
		c4.8,10.9,7.2,22.7,7.2,35.2c0,12.7-2.4,24.4-7.2,35.3c-4.8,10.9-11.4,20.3-19.6,28.4c-8.2,8.1-17.9,14.4-29,19
		c-11.1,4.6-22.8,6.9-35.2,6.9h-66.1V711.5z M249.8,851.2h10.5c7,0,13.6-1,19.8-3c6.3-2,11.7-5,16.4-9c4.7-4,8.4-9.2,11.2-15.6
		c2.8-6.3,4.2-13.9,4.2-22.6c0-8.1-1.3-15.2-3.8-21.4c-2.5-6.2-6.1-11.4-10.6-15.7c-4.5-4.3-9.9-7.5-16.2-9.7
		c-6.3-2.2-13.1-3.3-20.6-3.3h-10.9V851.2z"/>
	<path class="st0" d="M440.1,750.9v29.9h52.5v39.4h-52.5v30.9h55.4v39.4H393.6V711.5h101.9v39.4H440.1z"/>
	<path class="st0" d="M778,890.6h-58l-44-68.9h-0.5v68.9H629V711.5h69.6c8.9,0,17.1,1.1,24.7,3.2c7.6,2.1,14.2,5.5,19.7,10
		c5.5,4.5,9.9,10.3,13.1,17.2c3.2,7,4.8,15.2,4.8,24.7c0,6.2-0.8,12.1-2.5,17.7c-1.7,5.6-4.2,10.7-7.5,15.2
		c-3.3,4.5-7.4,8.3-12.4,11.4c-4.9,3.1-10.5,5.2-16.9,6.3L778,890.6z M675.6,791.8h4.5c3.8,0,7.6-0.2,11.4-0.7
		c3.8-0.5,7.2-1.5,10.3-3.1c3.1-1.6,5.6-3.8,7.6-6.8c2-2.9,3-6.9,3-11.8c0-4.9-1-8.8-3-11.8c-2-2.9-4.5-5.2-7.6-6.8
		c-3.1-1.6-6.5-2.6-10.3-3.1c-3.8-0.5-7.6-0.7-11.4-0.7h-4.5V791.8z"/>
	<path class="st0" d="M848.8,750.9v29.9h52.5v39.4h-52.5v30.9h55.4v39.4H802.2V711.5h101.9v39.4H848.8z"/>
	<path class="st0" d="M944.6,711.5h71.3c9.7,0,18.5,1.1,26.5,3.4c8,2.3,14.8,5.8,20.6,10.6s10.1,10.9,13.3,18.3
		c3.2,7.4,4.8,16.3,4.8,26.6c0,21.2-5.5,36.7-16.4,46.3c-10.9,9.7-26.6,14.5-47,14.5h-26.4v59.4h-46.6V711.5z M991.1,793.7h7.8
		c4.3,0,8.4-0.1,12.4-0.4c4-0.2,7.5-1,10.7-2.4c3.2-1.3,5.7-3.5,7.6-6.4c1.9-2.9,2.9-7.2,2.9-12.7c0-5.7-0.9-10.1-2.7-13.2
		c-1.8-3.1-4.2-5.3-7.2-6.8s-6.6-2.3-10.7-2.5c-4.1-0.2-8.4-0.4-12.8-0.4h-7.8V793.7z"/>
	<path class="st0" d="M1159.8,750.9v29.9h52.5v39.4h-52.5v30.9h55.4v39.4h-101.9V711.5h101.9v39.4H1159.8z"/>
	<path class="st0" d="M1255.6,711.5h46.6l85.3,109.5h0.5V711.5h46.6v179.1h-46.6l-85.3-109.8h-0.5v109.8h-46.6V711.5z"/>
	<path class="st0" d="M1547.8,890.6h-46.6V750.9h-38.5v-39.4h123.6v39.4h-38.5V890.6z"/>
	<path class="st0" d="M1661.4,750.9v29.9h52.5v39.4h-52.5v30.9h55.4v39.4h-101.9V711.5h101.9v39.4H1661.4z"/>
</g>
</svg>
