<?xml version="1.0" encoding="utf-8"?>
<!-- Generator: Adobe Illustrator 26.0.3, SVG Export Plug-In . SVG Version: 6.00 Build 0)  -->
<svg version="1.1" id="Camada_37" xmlns="http://www.w3.org/2000/svg" xmlns:xlink="http://www.w3.org/1999/xlink" x="0px" y="0px"
	 viewBox="0 0 1920 1312" style="enable-background:new 0 0 1920 1312;" xml:space="preserve">
<style type="text/css">
	.st0{fill:#FFFFFF;}
</style>
<g>
	<path class="st0" d="M1284.9,160.7H635.1c-94.1,0-170.4,76.3-170.4,170.4v649.8c0,94.1,76.3,170.4,170.4,170.4h649.8
		c94.1,0,170.4-76.3,170.4-170.4V331.1C1455.3,237,1379,160.7,1284.9,160.7z M1369.9,968.6h-0.1c0,53-43,96.2-96.2,96.2H648.5
		c-53,0-96.2-43-96.2-96.2V343.4c0-53,43-96.2,96.2-96.2h625.2c53,0,96.2,43,96.2,96.2V968.6z"/>
	<path class="st0" d="M925.6,349c-169.5,19.6-291.1,173-271.5,342.5C673.7,861,827.1,982.6,996.6,963
		c169.5-19.6,291.1-172.9,271.5-342.5C1248.5,451,1095.2,329.4,925.6,349z M990.3,908.7c-139.5,16.1-265.7-83.9-281.9-223.5
		c-16.2-139.6,83.9-265.7,223.5-281.9c139.6-16.2,265.7,83.9,281.9,223.4C1229.9,766.3,1129.9,892.5,990.3,908.7z"/>
	<circle class="st0" cx="828" cy="633.2" r="47.5"/>
	<path class="st0" d="M1092.5,584.6c-19.7-4.6-40.6-5.9-61.9-3.4c-21.3,2.5-41.2,8.5-59.4,17.5c-9.3,4.1-15.2,13.9-14,24.4
		c1.5,13.1,13.3,22.4,26.3,20.9c1.6-0.2,3.2-0.5,4.6-1c0.1,0,0.1,0,0.1,0c1-0.4,1.9-0.8,2.9-1.2c14.2-5.5,29.3-9.4,45.2-11.2
		c16-1.9,31.8-1.6,46.9,0.6c0.7,0.1,1.5,0.2,2.2,0.3c0.2,0.1,0.3,0.1,0.5,0.1c1.6,0.2,3.2,0.1,4.8-0.1c13-1.5,22.3-13.3,20.8-26.3
		C1110.5,594.5,1102.5,586.4,1092.5,584.6z"/>
	<path class="st0" d="M1045.9,735.2l-205,23.7c-10.5,1.2-17.2,11.6-14.3,21.7c16,56.2,70.8,94.1,130.8,87.2
		c59.9-6.9,104.6-56.3,107.4-114.7C1065.3,742.5,1056.4,734,1045.9,735.2z M1021,785.1c-11.7,26.5-36.6,46.3-67.5,49.9
		c-30.9,3.6-59.7-10-77.1-33.1c-4.2-5.6-0.5-13.8,6.5-14.6l128.5-14.9C1018.3,771.6,1023.8,778.7,1021,785.1z"/>
</g>
</svg>
