<?xml version="1.0" encoding="utf-8"?>
<!-- Generator: Adobe Illustrator 22.0.1, SVG Export Plug-In . SVG Version: 6.00 Build 0)  -->
<svg version="1.1" id="Camada_37" xmlns="http://www.w3.org/2000/svg" xmlns:xlink="http://www.w3.org/1999/xlink" x="0px" y="0px"
	 viewBox="0 0 1920 1312" style="enable-background:new 0 0 1920 1312;" xml:space="preserve">
<style type="text/css">
	.st0{fill:#FFFFFF;}
</style>
<path class="st0" d="M903.1,164C631.4,195.4,436.6,441.2,468,712.9c31.4,271.7,277.1,466.5,548.9,435.1
	c271.7-31.4,466.5-277.1,435.1-548.9C1420.6,327.4,1174.8,132.6,903.1,164z M1006.8,1061C783.2,1086.8,580.9,926.5,555,702.8
	S689.5,276.9,913.2,251s425.9,134.5,451.8,358.1C1390.8,832.8,1230.5,1035.1,1006.8,1061z"/>
<circle class="st0" cx="746.7" cy="619.4" r="76.1"/>
<path class="st0" d="M1201.2,574.5c2.4,20.9-12.5,39.8-33.4,42.2c-2.6,0.3-5.2,0.4-7.7,0.1c-0.3,0-0.5,0-0.8-0.1
	c-1.2-0.2-2.4-0.3-3.6-0.5c-24.3-3.6-49.6-4-75.2-1c-25.4,2.9-49.7,9.1-72.4,17.9c-1.6,0.6-3,1.3-4.6,1.9c0,0-0.1,0-0.2,0
	c-2.3,0.8-4.8,1.3-7.4,1.6c-20.8,2.4-39.7-12.5-42.1-33.5c-2-16.9,7.5-32.6,22.4-39.1c29.1-14.3,61.1-24,95.2-28
	c34.1-3.9,67.6-1.8,99.2,5.5C1186.5,544.5,1199.3,557.5,1201.2,574.5z"/>
<path class="st0" d="M767.2,820.9c-16.8,1.9-27.6,18.6-22.9,34.8c25.7,90,113.5,150.8,209.6,139.7c96-11.1,167.6-90.3,172.2-183.8
	c0.8-16.9-13.5-30.6-30.3-28.7L767.2,820.9z M947.7,942.8c-49.5,5.7-95.7-16-123.6-53.1c-6.8-9-0.8-22.1,10.4-23.4l205.9-23.8
	c11.2-1.3,20.1,10.1,15.5,20.4C1037.2,905.4,997.2,937.1,947.7,942.8z"/>
</svg>
