<?xml version="1.0" encoding="utf-8"?>
<!-- Generator: Adobe Illustrator 26.0.3, SVG Export Plug-In . SVG Version: 6.00 Build 0)  -->
<svg version="1.1" id="Camada_37" xmlns="http://www.w3.org/2000/svg" xmlns:xlink="http://www.w3.org/1999/xlink" x="0px" y="0px"
	 viewBox="0 0 1920 1312" style="enable-background:new 0 0 1920 1312;" xml:space="preserve">
<style type="text/css">
	.st0{fill:#FFFFFF;}
	.st1{clip-path:url(#SVGID_00000027596844234208472560000015146621220028041364_);fill:#FFFFFF;}
	.st2{clip-path:url(#SVGID_00000073708016743082287810000013459736902095416729_);fill:#FFFFFF;}
	.st3{clip-path:url(#SVGID_00000085215929677527850490000006483745889453228707_);}
</style>
<path class="st0" d="M1245.4,220.9H674.6c-82.7,0-149.7,67-149.7,149.7v570.8c0,82.7,67,149.7,149.7,149.7h570.8
	c82.7,0,149.7-67,149.7-149.7V370.6C1395.1,287.9,1328.1,220.9,1245.4,220.9z M1320.1,930.6L1320.1,930.6
	c-0.1,46.6-37.9,84.5-84.6,84.5H686.4c-46.6,0-84.5-37.8-84.5-84.5V381.4c0-46.6,37.8-84.5,84.5-84.5h549.2
	c46.6,0,84.5,37.8,84.5,84.5L1320.1,930.6L1320.1,930.6z"/>
<g>
	<g>
		<g>
			<defs>
				<path id="SVGID_1_" d="M1321.3,930.6c0,46.6-37.8,84.5-84.5,84.5H687.7c-46.6,0-84.5-37.8-84.5-84.5V381.4
					c0-46.6,37.8-84.5,84.5-84.5h549.2c46.6,0,84.5,37.8,84.5,84.5L1321.3,930.6L1321.3,930.6z"/>
			</defs>
			<clipPath id="SVGID_00000083773740981935669810000016238739504598477958_">
				<use xlink:href="#SVGID_1_"  style="overflow:visible;"/>
			</clipPath>
			<path style="clip-path:url(#SVGID_00000083773740981935669810000016238739504598477958_);fill:#FFFFFF;" d="M985.7,871.3
				l-45.6,78h246.8l-45.6-78H985.7z M1139.2,936.4h-151l22.8-52.7h105.4L1139.2,936.4z"/>
		</g>
	</g>
	<g>
		<g>
			<defs>
				<path id="SVGID_00000024718653096010374270000004146759465750548365_" d="M1321.3,930.6c0,46.6-37.8,84.5-84.5,84.5H687.7
					c-46.6,0-84.5-37.8-84.5-84.5V381.4c0-46.6,37.8-84.5,84.5-84.5h549.2c46.6,0,84.5,37.8,84.5,84.5L1321.3,930.6L1321.3,930.6z"
					/>
			</defs>
			<clipPath id="SVGID_00000108297452058232412880000004198745167159897014_">
				<use xlink:href="#SVGID_00000024718653096010374270000004146759465750548365_"  style="overflow:visible;"/>
			</clipPath>
			
				<rect x="1139.2" y="897.4" style="clip-path:url(#SVGID_00000108297452058232412880000004198745167159897014_);fill:#FFFFFF;" width="209.5" height="16.2"/>
		</g>
	</g>
	<g>
		<g>
			<defs>
				<path id="SVGID_00000155827682829832465530000010260789126482076345_" d="M1321.3,930.6c0,46.6-37.8,84.5-84.5,84.5H687.7
					c-46.6,0-84.5-37.8-84.5-84.5V381.4c0-46.6,37.8-84.5,84.5-84.5h549.2c46.6,0,84.5,37.8,84.5,84.5L1321.3,930.6L1321.3,930.6z"
					/>
			</defs>
			<clipPath id="SVGID_00000027590357485218893850000011309493908557137568_">
				<use xlink:href="#SVGID_00000155827682829832465530000010260789126482076345_"  style="overflow:visible;"/>
			</clipPath>
			<g style="clip-path:url(#SVGID_00000027590357485218893850000011309493908557137568_);">
				<path class="st0" d="M1035.5,912.8c2.1,0.8,4.1,0.8,6.6,0.4c3.3-0.8,5.8-2.9,7.5-5.4c1.7-2.9,3.7-8.3-0.4-14.9
					c-14.9-31.5-29.9-62.6-44.4-94.2c-16.6-34.8-32.8-69.7-49.4-104.1c-4.6-9.5-12-10.4-16.2-10.4c-5.4,0.4-14.1-7.5-16.2-15.3
					c-2.1-9.1,1.7-18.2,9.5-23.2c7.9-5,17.8-4.6,25.3,1.7c7.1,5.8,9.5,15.3,6.6,23.6c0,0.4,0,0.4-0.4,0.8c-8.3,10-3.3,20.3-1.7,24.1
					c22,46,44,92.9,65.5,138.1c8.7,18.7,17.8,37.3,26.5,56v0.4c0.8,2.1,2.5,5.8,6.6,8.7c5.4,3.7,12.4,2.1,16.2-2.9
					c3.3-4.6,2.9-9.5,2.9-11.2v-0.4c1.7-84.2,4.1-153.1,8.3-216.9c2.1-29.4,4.6-64.3,9.5-98.7c1.7-12.4-7.1-17.4-11.2-18.7
					c0,0,0,0-0.4,0c-18.7-6.2-36.9-13.7-55.2-22.4c-32.4-14.9-56-31.5-74.7-51.4c-11.6-12.4-21.6-27-29.9-44
					c-4.1-8.7-12.4-11.2-21.2-7.1c-43.6,20.7-83.8,39.8-122.8,58.1c-8.7,4.1-12,12.4-7.9,21.6c17,36.1,21.2,75.1,12.4,119
					c-3.7,18.2-8.7,36.9-15.3,57.2c-0.8,2.1-1.2,4.1-2.1,6.2c-1.7,5.4-3.3,10.4-5.4,15.3c-2.9,8.3-0.4,15.8,7.1,20.3
					c32.4,19.5,63.9,41.9,92.9,62.6c31.1,22.4,63.5,46.5,95.4,71.3c14.9,11.6,30.3,23.6,45.2,35.3c7.9,6.2,15.8,12,23.2,18.2
					c0.8,0.8,2.1,1.2,2.5,2.1c0.4,0,0.4,0.4,0.8,0.8C1033.4,912,1034.2,912.4,1035.5,912.8z M935.5,707.1
					c16.2,34,31.9,67.6,48.1,101.6c8.7,18.7,17.4,37.3,26.5,55.6c-11.6-9.1-23.6-18.2-35.3-27.4c-32.4-24.9-64.7-48.9-96.2-71.8
					c-28.2-20.3-58.1-41.5-89.6-61c1.2-3.7,2.5-7.5,3.7-11.2c0.8-2.1,1.2-4.1,2.1-6.2c7.1-21.2,12.4-41.1,16.2-60.1
					c9.1-46.5,5.4-87.9-11.2-126.9c35.3-16.6,71.3-33.6,109.9-52.3c8.7,16.6,18.7,30.7,30.3,43.1c20.7,22.4,46.9,40.2,82.1,56.8
					c17,7.9,34.8,15.3,52.3,21.6c-4.6,33.6-7.1,67.2-9.1,95.8c-3.3,53.5-5.8,110.3-7.5,176.7c-2.9-6.2-5.8-12.4-8.7-18.7
					c-21.6-45.2-43.6-92.1-65.5-138.1v-0.4c1.7-2.1,2.1-4.1,2.5-5.4v-0.4c6.6-17.4,1.2-37.7-13.3-49.8
					c-14.9-12.4-36.1-13.7-52.7-3.3c-15.8,10-23.6,29.4-19.5,47.7C903.6,688.8,918.5,705,935.5,707.1z M965,669.7L965,669.7
					L965,669.7z"/>
				<path class="st0" d="M749.7,481c0.4,0,1.2,0.4,1.7,0.4c5.4,0.8,9.5-1.2,11.2-2.1h0.4l9.1-4.1c29-13.7,58.9-27.8,88.3-41.9
					c7.9-3.7,15.8-7.5,23.2-11.2c11.2-5.4,22.8-10.8,34-16.2c8.7-4.1,12-12,8.3-21.2c-6.2-16.2-12.9-32.8-19.1-48.9
					c-2.1-5.8-4.6-11.6-6.6-17.4l-12.4-31.9c-7.5-19.5-15.3-39.4-22.8-58.9l-1.7,7.1c-7.5-19.5-15.3,36.2-23.2,15.9
					c-2.1-5.4-5.8-7.9-8.3-9.1c-5.8-2.5-10.8,0-12.9,1.2l-3.7,1.7c-25.3,12-51.4,24.9-77.1,36.9c-18.2,8.7-21.2-53.6-39.5-44.5
					c-13.7,6.6-43.2-2.9-56.8,3.7c-2.1,0.8-3.7,1.7-5.4,2.9c-2.5,1.2-4.6,2.5-7.1,3.3c-5.8,2.5-7.9,6.2-8.7,9.1
					c-1.2,4.1-0.8,8.3,1.7,12.9c4.6,7.9,9.1,16.2,13.7,23.6c2.9,4.6,5.4,9.5,8.3,14.1c17,29.4,34.4,58.9,51.4,88.8
					c5.8,10,11.6,19.9,17,29.4c6.6,11.6,13.7,23.2,20.3,35.3c1.2,2.1,2.5,4.1,3.7,6.2c1.2,2.5,2.9,5,4.1,7.5v0.4
					c0.8,1.7,2.9,5,7.1,7.1C748.9,480.6,749.3,480.6,749.7,481z M902.3,386.9c-9.5,4.6-19.1,9.1-28.6,13.7
					c-7.5,3.7-15.3,7.5-23.2,11.2c-29.4,14.1-59.3,28.2-88.3,41.9l-3.7,1.7c-0.4-0.4-0.4-0.8-0.8-1.2c-1.2-2.1-2.5-4.6-3.7-6.6
					c-6.6-11.6-13.7-23.2-20.3-35.3c-5.8-10-11.6-19.9-17-29.4c-17-29.4-34.4-58.9-51.4-88.8c-2.9-4.6-5.4-9.5-8.3-14.1
					c-3.3-5.4-6.2-11.2-9.5-16.6c0,0,0,0,0.4,0c1.7-0.8,3.3-1.7,5-2.5c13.7-6.6,27.4-12.9,41.1-19.5c18.7-8.7,49.1,57.2,67.8,48.1
					c24.5-11.6,37.2-11.4,61.2-23.1c6.6,17.4,13.3-52,19.9-35l1.7,3.7c7.5,19.5,15.3,39.4,22.8,58.9l12.4,31.9
					c2.1,5.8,4.6,11.6,6.6,17.4C891.1,357.8,896.5,372.3,902.3,386.9z"/>
			</g>
		</g>
	</g>
</g>
</svg>
