<?xml version="1.0" encoding="utf-8"?>
<!-- Generator: Adobe Illustrator 26.0.3, SVG Export Plug-In . SVG Version: 6.00 Build 0)  -->
<svg version="1.1" id="Camada_37" xmlns="http://www.w3.org/2000/svg" xmlns:xlink="http://www.w3.org/1999/xlink" x="0px" y="0px"
	 viewBox="0 0 1920 1312" style="enable-background:new 0 0 1920 1312;" xml:space="preserve">
<style type="text/css">
	.st0{fill:#FFFFFF;}
</style>
<g>
	<path class="st0" d="M1245.4,220.9H674.6c-82.7,0-149.7,67-149.7,149.7v570.8c0,82.7,67,149.7,149.7,149.7h570.8
		c82.7,0,149.7-67,149.7-149.7V370.6C1395.1,287.9,1328.1,220.9,1245.4,220.9z M1320,930.6c0,46.6-37.8,84.5-84.5,84.5H686.4
		c-46.6,0-84.5-37.8-84.5-84.5V381.4c0-46.6,37.8-84.5,84.5-84.5h549.2c46.6,0,84.5,37.8,84.5,84.5V930.6z"/>
</g>
<g>
	<path class="st0" d="M1057.9,746.6H646.1c-8.3,0-15-6.7-15-15V461.9c0-8.3,6.7-15,15-15h453.2c8.3,0,15,6.7,15,15v239.9
		c0,8.3-6.7,15-15,15h-26.4v14.9C1072.9,739.9,1066.2,746.6,1057.9,746.6z M661.1,716.6h381.7v-14.9c0-8.3,6.7-15,15-15h26.4V476.9
		H661.1V716.6z"/>
</g>
<g>
	<path class="st0" d="M1275.8,655.9h-127.1c-8.3,0-15-6.7-15-15V461.9c0-8.3,6.7-15,15-15h127.1c8.3,0,15,6.7,15,15v179.1
		C1290.8,649.2,1284.1,655.9,1275.8,655.9z M1163.7,625.9h97.1V476.9h-97.1V625.9z"/>
</g>
<g>
	<path class="st0" d="M1005.6,865.1H646.1c-8.3,0-15-6.7-15-15v-68.7c0-8.3,6.7-15,15-15h359.5c8.3,0,15,6.7,15,15v68.7
		C1020.6,858.4,1013.9,865.1,1005.6,865.1z M661.1,835.1h329.5v-38.7H661.1V835.1z"/>
</g>
<g>
	<path class="st0" d="M1275.8,865.1h-217.9c-8.3,0-15-6.7-15-15V701.8c0-8.3,6.7-15,15-15h217.9c8.3,0,15,6.7,15,15v148.4
		C1290.8,858.4,1284.1,865.1,1275.8,865.1z M1072.9,835.1h187.9V716.8h-187.9V835.1z"/>
</g>
</svg>
