<?xml version="1.0" encoding="utf-8"?>
<!-- Generator: Adobe Illustrator 26.0.3, SVG Export Plug-In . SVG Version: 6.00 Build 0)  -->
<svg version="1.1" id="Camada_37" xmlns="http://www.w3.org/2000/svg" xmlns:xlink="http://www.w3.org/1999/xlink" x="0px" y="0px"
	 viewBox="0 0 1920 1312" style="enable-background:new 0 0 1920 1312;" xml:space="preserve">
<style type="text/css">
	.st0{fill:#FFFFFF;}
</style>
<g>
	<path class="st0" d="M1395.5,374.2c0.1-37.7-13.6-72.2-36.4-98.7c-27.8-33.5-69.8-54.8-116.7-54.6H676.6
		c-46.9-0.2-89,21.1-116.7,54.6c-22.7,26.5-36.4,61-36.4,98.7v565.5c-0.2,83.4,67.2,151.2,150.6,151.4H1245
		c83.4-0.3,150.7-68,150.6-151.4L1395.5,374.2z M1234.6,1014.1H684.4c-46.5-0.1-84.1-37.9-84-84.5l1.7-547.9
		c0.1-21.8,8.4-41.6,21.9-56.5c0.3-0.3,0.6-0.6,0.9-0.9l0.1-0.1c15.2-15.3,36.2-24.8,59.5-24.8h550c2.8,0,5.6,0.2,8.4,0.4
		c-9.9,53.5-19.7,107-29.6,160.5c-1.8,9.4-3.2,18.7-5.4,28.2c6.3-1.1,12.1-2.8,17.9-2.8c25.2-0.7,49.1,5.1,71.4,17.5
		c6.6,3.2,7.1,0.9,8.2-4.1c6.1-36.4,8.8-73.4,10.9-110.2c0.2-3.2,0.4-6.5,0.5-9.7c0,0.8,0.1,1.7,0.1,2.5l1.7,547.9
		C1318.7,976.2,1281.1,1014,1234.6,1014.1z"/>
	<path class="st0" d="M1299.9,517.3c-18.5-10-38.6-17.2-59.5-20.2c-9.7-1.3-19.1-0.8-28.6,1.3c-11.7,2.7-11.6,2.9-8.8,14.4
		c1.3,5.7,4.7,10.8,2.9,16.6c-1.9,5.8-2.2,11.8-2.8,18c-0.9,17.2-1.6,34.4-2.4,51.6c-1.2,27.7-2.8,55.5-4.6,83
		c-0.4,3.1-0.5,6,4.3,4.5c17.2-3.4,33.3-0.9,48.4,7.2c1.7-5.3,3.3-9.7,4.9-14.5c14-41.1,27.7-81.9,41.2-122.4
		c1.3-3.9,2.7-8.1,0.3-11.5c-2.8-5.1-1.4-8.9,1.9-12.5c1.8-2.2,2.7-4.5,4.8-6.5C1305.8,522.1,1304.4,519.5,1299.9,517.3z
		 M1237.2,551.5c-4.2,35-7.9,69.7-11.9,104.5c-0.4,3.1-1.2,7-3.1,9.4c-1.4,2.7-3.4,4-6.8,3.5c-2.5-0.2-3.5-2-3.9-5.5
		c-0.3-4.2-0.2-8.1,0-12.5c1.7-34.2,7-67.2,9.6-100.7c0-2.8,1-5.2,4.7-7.3c2.2-1,5.6-0.9,8.6,1.1
		C1237.8,545.7,1237.9,548.3,1237.2,551.5z"/>
	<path class="st0" d="M966.1,930.1c-0.3-1.4,0.8-1.5,1.5-1.6c0.3-0.1,0.6-0.2,0.9-0.3c-1.5,0.1-3,0.2-4.4,0.7
		C963.3,928.8,961.9,929.5,966.1,930.1z"/>
	<path class="st0" d="M939,903.2c0.1,0,0.2,0,0.3,0C939.2,903.2,939.1,903.2,939,903.2z"/>
	<path class="st0" d="M1254.4,713.5c-13.7-11.2-29-17.3-46.8-16.1c-23.1,1.3-48.9,18.8-49.3,47.7c-0.2,5.4-0.6,10.3-0.7,15.4
		c-2.9,1.7-6.2,3.2-9,4.9c-10.5,5.5-20.7,11.9-31.8,17c-9.4,4.5-18.9,9.2-28.4,13.5c-7.5,2.8-15,6.4-22.6,8.7
		c-13.2,4.2-25.7,9-38.4,14c-4.7,1.6-8.5,4.7-12.9,6.7c-2.8,0.9-5.4,2-7.5,4c-4.1,3.3-9,5.6-13.9,7.4c-0.7,0.1-1.3,0.5-2,0.9
		c-2.9,1.7-6.9,3.8-10.3,5.4c-1.3,0.5-3.1,0.6-5,1.3c-2.6,1.8-5.6,3.4-8.7,4.5c-12.2,4.5-23.7,10.2-36.3,13.9
		c-5.7,1.3-10.7,3.9-16,6.3c0,0,0.1,0.2,0,0.4c2.4,0,4.5-0.1,7-0.7c-3.5,2.6-7,4.1-10.5,5.5c-0.5,0.4-2.1,0.6-1.6,2
		c0.4,0.8,1.6,0.3,2.2,0.2c2.3-0.2,5.2-1.9,7.6-0.4c-0.2,0.7-1.8,0.2-1.4,1.8c0.1,0.2,0.4,0,0.6,0.2c1.8,0.2,3.7-0.5,5.2-0.4
		c0.8-0.4,2.9,1.1,3.3-1.3c0.2-0.1,1.8-0.2,3.1-0.6c0.4,0.8-1.9,0.8-1,2.2c0.8,0.9,1.3-0.5,1.8-0.2c0.7-0.1,1.4-0.1,2.4,0
		c0.1,0.2,0.4,0,0.5-0.4c-0.4-0.5-1.8-0.2-1.6-1.5c3.1,0.1,7-1.2,10.3,0.9c-0.5,0.4-1,1.1-1.5,1.6c2.9,0.8,6.2,2.3,9.1,0.1
		c0.2-0.1,0.7-0.1,0.7,0.2c1.5,1.3,2.4,0.4,4.2-0.3c-0.4-0.5-1.4,0.1-1.8-0.9c-0.8-0.9-0.8-0.9-1.8-0.9c-1.9,0.8-3.3,1.8-5.2,1.9
		c-1.1,0.2-3.1,0.6-1.3-2.1c0.2-0.6-0.4-0.5-0.4-0.5c-0.4,0-0.8,0.4-1.1-1c0-0.4,0.7-0.8,0.9-0.8c1.1-0.2,3-0.3,2.9,1.7
		c0.1,0.7,0.8,0.7,1.6,0.3c2.6-1.8,5.4-2,8.3-2c1.9-0.1,3.5,1.4,5.2,1c0.8-0.4,1.9-0.1,1.4-1.8c-0.9-2-0.4-3.2,2.8-3.3
		c0.2,0.1,0.5,0.1,0.8,0.1c-0.2,0.1-0.4,0.1-0.5,0.2c-0.7,0.1-1.3,0.5-1.4,1.8c0.4,0.8,1.1-0.2,2.2,0.5c0.4,0.5,1.6,0.3,1.4-0.1
		c0.4-2.4,2.6-1.8,4.1-1.9c0.1,0.7-0.7,1.2-0.2,2.2c1-1.1,1.5-1.6,2.8-0.9c2.8,0.5,5.6-0.6,8.2-1.7c0.8-0.5,3.4-1.1,3.2-3
		c-0.2-2.3,1.7-2.9,1.7-2.9c2.5,1.2,5.3-1.2,7.7,1c0.4,0,1.8,0.2,1.8,0.9c-0.2,0.7-1.3,1.5-2.1,1.3c-5.4,2-10.5,5.5-16.6,6.5
		c-0.8,0.4-1,2.2-2.1,1.3c-3.1-1.1-5.3,0.7-7.8,1.5c-2.6,1.4-5.6,2.8-8.1,2.6c-4.9-0.2-9,2-14,2.4c-0.7-0.2-2.3,1.4-3,0.3
		c-0.4-0.8,1.8,0.2,2.2-1c0,0,0.2-0.1,0-0.4c-1.8-0.9-3.2,0.4-5.2,0.9c1.6,0.5,2.2,1,0.8,2.5c-0.9,0.8-2.4,2.4-3.7,0.4
		c-0.4-0.5-0.7-0.2-1.1,0.2c-0.8,0.5-1.9,0.1-3.2,0.4c-3.1-0.4-6.5,1.7-9.6,3c1.2,0.7,1.9-0.1,3.1-0.6c0.9-0.8,3.2-1,3.7-0.5
		c1.8,1.4,3.1,1.1,4.7,0.8c0.2-0.1,0.7,0.2,1.2,0.7c0.4,0.5-0.2,0.7-0.7,1.2c-0.8,0.5-2.1,1.3-2.9,1.7c-1.8,0.2-3.2,1-3.3,3.2
		c1.6-2,3.7-0.5,5.2-0.4c3.4-1.1,6.8-2.3,10.6-1c0.4,0,1.8,0.2,1.9-0.1c1-1.1,2.1-1.3,3.4-1.1c0.4,0,0.7,0.2,1.2,0.7
		c0.4,0.5-0.2,0.7-0.7,0.8c-3.4,2.4-6.7,2.8-10.7,1.7c-2.8-0.5-2.8,1.4-4.4,2.2c1.2,0.7,1.9,0.5,2.8,0c2.3-0.2,5.2-2.6,7.3,0.6
		c0,0,0.2-0.1,0.7-0.1c-0.1-0.7-1.5-0.8-0.5-1.3c0.2-0.6,1.8,0.2,1.9,0.5c0.5,1.3,1.5,0.8,2.2,0.2c1-1.6,2.3-1.4,3.7,0.7
		c-0.3-3,1.7-2.4,2.9-2.4c1.8-0.2,3.7-0.5,4.4-2.2c0.7-0.8,1.9-0.8,2.6-0.6c1.1-0.2,2.7,1.4,4.2,0.7c2.1-1.3,4.4-0.4,6.8-0.6
		c-0.7,1.2-1.3,1.5-2.1,1.3c-2.5,0.8-5,1.3-7.7,1.8c-0.7,0.1-2,1-2.3,0.2c-0.4-0.8,0.8-1.5,0.5-2.2c-0.8,1.5-2.8,1.4-4.1,2.9
		c0.7,0.2,2.1-0.6,2.4,0.4c-0.2,0.7-1,1.1-1.5,1.6c-2.8,0.9-5.2,1.4-8.2,1.7c-5.1,0.4-9.6,2.9-14,2.7c0.9,0.2,1.6,2.2,3.1,1.7
		c3.6-1.7,8.3-2,12.2-3.1c1.8-0.2,3.4-0.7,5.5-0.3c-0.2,0.7-1.5,1.1-0.8,1.5c2,1.6-0.2,1.8-0.8,1.5c-4.7-0.8-9.1,1.3-13.4,1.9
		c-0.7,0.1-1.1,0.2-1.9,0.8c-1.6,2-3.8,2.5-6.2,2.5c-1.1,0.2-2.1,1.3-1.8,2.7c-0.7,1.2,0.2,1.8,2,1.6c0.7,0.2,0.5,0.8,0.8,1.9
		c0.4,0.8,1.5,1.3,2.2,1c1.4-0.1,4.2,0.7,4.6-1.2c0.9-1.8,1.4-1.8,2.8-1.4c1.8,0.2,3.2,0.7,4.6-1.2c1-1.1,2-1,3-0.3
		c1.1,1,2.2,1,3.2-0.4c0-0.4,0.8-0.5,1.3-0.5c0.4,0,0.1,0.7,0.2,1.1c-0.2,0.6-0.7,1.2,0.1,1.9c0.4,0.5,1.1-0.2,1.9-0.1
		c3.2-1,5.7-1.8,8.5-2.1c4.4-0.4,8.9-1.3,12.8-3.3c0.5-0.4,1.9-0.1,2.9,1.1c-2.8,0.9-5.3,0.7-7.3,3c-2.1-2.3-3.8,3-6.1,0.9
		c-1.2,2.5-3.6,1.7-6.2,2c0.4,0.5,0.6,0.2,1.2,0.7c4.3-0.6,8.4-0.1,13-2c3.4-1.6,8-0.9,11.5-1.3c1.8,0.2,3.1,0.4,4.6-1.2
		c0.7-0.8,1.5-1.6,2.8-0.9c4.8,1.7,8.3-3.3,12.5-4.2c0.1,0.2,0.5-0.4,0.2-0.6c-0.1-1.9,1-1.6,2.3-1.4c0.4,0,1.1-0.2,1.9-0.1
		c3.9-1.6,8.6-1.6,12.7-3c1.3-0.5,2.9-1.2,5-1.3c5.2-0.4,9.6-1.3,14.2-4.1c1.9-0.8,3.4-1.6,5.2-2.6c1.9-0.8,3.7-0.5,5.2-1.4
		c3.4-2.4,7.4-3.6,11.9-4.6c8.5-2.3,16.5-5.6,24.6-8.8c1.3-0.5,2.3-1.4,3.3-1.8c0.8-0.4,2.5,0.7,2.9-1.2c0.2-0.1,0.7-0.1,0.7,0.2
		c0.4,0.5,0.1,0.7,0.2,1.1c-1,1.1-2.3,1.9-3.5,1.9c-4.5,0.1-7,4.1-11.4,3.9c-7.8,5.1-17.3,6.6-25.9,10.3c-2.9,1.2-6,1.9-8.9,3.1
		c-2.2,1-5.2,2.6-6.9,3.1c-6.5,1.9-12.7,4.9-19.4,6.7c-0.7,0.1-1.8,0.2-1.7,1.6c3.4-1.1,6.5-1.9,9.8-3c6.7-2,13.3-4,20.1-6.1
		c1.9-0.8,3-2,5.2-2.6c4.4-0.9,8.6-3,12.8-4.2c3.2-1,5.9-2.1,8.5-3.2c0.5-0.4,1.3-0.5,1.9,0.5c0.4,0.5-0.2,1.3-0.9,1.8
		c-0.5,0.4-0.9,0.8-1.9,0.1c-0.5-0.8-1.5-0.8-2.2-0.2c-2.1,1.3-3.9,1.6-6,2.5c-0.5,0.4-0.8,0.4-1,1.1c0.1,1.4-0.5,1.9-2,1
		c-0.8-0.7-1.9-0.5-2.3,0.2c-0.2,0.1-0.8,0.5-0.7,0.8c1.6,1.5-0.3,1.6-0.9,1.8c-0.8,0.4-2.1,0.6-3.3,1.3c-1.9,0.8-3.4,1.6-5.7,1.3
		c-1.9-0.5-3.1-0.4-4.6,0.4c-2.8,0.9-5.7,1.8-8.1,2.6c-6.2,2.5-13,2.9-18.4,7.9c-2.3,2.1-5.9,2.1-8.8,3.8c-0.2,0.1-0.4,0-0.7-0.2
		c-0.4-0.5-0.1-0.7,0.7-1.2c0.5-0.4,1.3-0.5,1.9-0.8c0.5-0.4,1.3-1.5,0.2-1.8c-1.6-0.3-3.1-0.4-4.3,1.1c-1,2.2-2.8,3.3-4.7,5.1
		c-0.8,0.5-2.8,1.4-3.4,0.7c-1.1-1.5,0.5-2.2,1.8-2.7c0.2-0.1,0.5-0.4,0.7-1.2c-3.2,1-6.7,0-9.8,3.3c2.4,0.4,4.3-1.1,6.1-0.9
		c-1,2.2-3,2-5.2,2.6c-3.7,1.3-7.3,2.1-11.2,3.3c-0.2,0.1-0.8,0.4-1.6-0.3c-0.5-0.8,0.2-0.7,0.7-1.2c0.8-0.5,0.5-1.9,0-2.4
		c-0.4-0.5-1.1,0.2-2.1,0.6c-1,1.1-1.5,1.6-2.8,1.4c-0.7,0.1-1.3,0.5-1.6,2c1.4-0.1,2.6-0.6,4.4-0.9c-2.3,1.7-4.1,3.3-6.2,3.1
		c-3.4,0.4-7.1,1.3-10.6,2.3c2.1-0.1,4.1-0.1,6.2-0.5c9.6-1.3,18.6-3.3,27.8-6.1c7.9-2,15.8-4.4,23.6-6.5
		c12.3-3.4,24.3-8.2,36.8-12.5c10.4-3.5,20.5-7.1,30-11.3c6.7-3,13.7-4.7,20.7-7c4.1-1.7,8.2-4.1,12.6-5.6
		c10.7-3.9,21.4-9,31.8-14.2c6.2-3.1,12.6-5.6,19.2-9.1c8.7-4,16.8-9,25-14.8c4.9-4,9.3-8.6,14.2-11.9c3.8-2.5,7-5.3,10.2-8.1
		c3.6-2.9,7-5.3,10.3-7.8c18.5-16,31-34.8,32.3-60.1C1270.1,737.3,1266.2,723.8,1254.4,713.5z M972.3,863.3
		C972.3,863.3,972.3,863.3,972.3,863.3c-3.1,0.6-5.8,2.1-8.4,2.3c-0.1,0-0.1,0-0.2,0c0,0,0.1,0,0.1,0
		C967,865.2,969.7,863.5,972.3,863.3z M980.3,866c-0.4,0-0.7-0.1-1.1-0.1c0.4,0,0.8,0,1.2,0C980.4,865.9,980.3,865.9,980.3,866z
		 M972.3,863.7c0,0,0-0.1,0-0.1C972.4,863.6,972.4,863.6,972.3,863.7z M946,869.8c-0.2,0.3-0.5,0.5-0.9,0.6c0.3-0.2,0.5-0.3,0.6-0.6
		c1.7-2.4,3.8-3.5,6.6-4.4c-0.2,0-0.4,0-0.6,0c0.4,0,0.8,0,1.2,0C950,866.2,947.6,867.4,946,869.8z M957.5,868.8
		c-0.2,0.3-0.4,0.6-0.6,0.9c0,0-0.1,0-0.1,0C957,869.4,957.3,869.1,957.5,868.8z M971.2,867.7c-2.5-0.7-5.4-0.6-8.2,0.3
		c2.6-0.9,5.4-1.2,8.3-0.3c0.4,0,1-0.2,1.7-0.2C972.5,867.9,971.7,868,971.2,867.7z M976.1,866.9c0,0,0.1,0,0.1,0c0,0,0,0,0.1,0
		C976.2,866.9,976.2,866.9,976.1,866.9C976.1,866.9,976.1,866.9,976.1,866.9z M990.8,859.3c0.2-0.7,1.3-0.5,1.3-1.5
		c-0.8,0.4-2.1,0.6-3.1,0.6c-6.7-0.6-12.2,3.1-18.7,4.5c-0.8,0.4-0.8,0.4-2.9-1.2c6.8-0.3,12.2-3.1,18-5.1c-2.5-0.7-4.4,0.4-6.3,1.1
		c-0.8,0.4-2.1,0.6-2.4,0c-0.5-0.8,0.4-2.4,1.4-2.7c2.3-0.2,3.6-1.7,5.6-3.4c1.8-2.2,5.2-0.9,7.2-2.2c4.2-2.7,8.9-2.2,12.8-5
		c0.8-0.5,2.3-0.2,3.7-1c4.3-1.1,8.3-3.3,12.8-3.3c0.2-0.1,0.7,0.2,1.3-0.5c3.8-3.7,8.9-3.6,13.2-5.4c0.8-0.4,1.3-0.5,2.3-1.4
		c3.2-3,4.3-3.5,8.2-2.2c-2.5,0.8-4.1,2.9-5.8,3.5c-2.9,1.2-6,2.5-8.8,3.8c-0.5,0.4-2.3,0.2-1.8,2.2c0.1,0.2-2.6,1.8-4.3,1.1
		c-2.2-0.5-3.7,0.4-5.6,0.9c-0.8,0.5-2,1-3.2,1c-0.2,0.1-1.1,0.2-0.8,0.5c-0.2,1.8,0.6,1.4,1.3,1.3c1.3-0.5,2.8-0.9,4.6-0.4
		c-3.4,2.4-7.5,4.5-10.3,2.4c0.7-1.2,2.2,0.2,2.8-1.9c-6.7,2.5-12.8,5-19.1,8c5.5,0.4,5.7,0.3,9.1-2.5c1.5-1.6,3.3-1.3,5.5-0.3
		c1.2,0.7,0.8,0.9,0.6,2.1c3.2-3,7-0.7,10.9-2.6c-1.8-0.9-3,0.3-4-0.8c0.9-0.8,2.2-1,3.4-0.7c0.4,0,1.6,0.3,1.5,1.3
		c0.1,0.7-0.7,0.8-1,1.6c-1.5,1.6-2.8,1.9-5,0.8c-1.2-0.7-3,0.3-3.6,1.7c1.2,0.7,2.1-0.6,2.8,0c-0.8,0.5-2.3,0.2-2.9,2.4
		c-0.2,0.7-2.8,1.9-4.3,1.1c-1.8-1.4-2.7-1.4-4.1-1.2C999.4,857.2,995.3,858.6,990.8,859.3z M999.8,897.8c-0.9,0.8-3.4,1.6-5.2,0.9
		c-3.2-0.7-5.8,0.3-8.3,1.4c2.9-1.5,5.8-3.2,9.6-1.9c1.4,0.3,3.1-0.3,4.5-0.7C1000.2,897.6,1000,897.7,999.8,897.8z M990.3,894.4
		c-0.2,0-0.3,0-0.5,0.1c0.1,0,0.1,0,0.2-0.1c0.7-0.2,1.3-0.4,2-0.6C991.4,894,990.9,894.2,990.3,894.4z M1004.4,890.9
		c3.1-0.6,5.7-1.3,8.8-3.3c1.4-1.5,3.8-2.5,6.8-1.8c-2.3-0.2-4.7,0.7-6.5,1.8c-2.8,2.1-5.6,2.8-8.8,3.3c-0.3,0.1-0.7,0.1-1,0.2
		C1003.9,891,1004.2,891,1004.4,890.9z M1021.5,885.6c0.2-0.1,0.5-0.2,0.7-0.3c-0.2,0.1-0.3,0.2-0.4,0.3c-0.1,0.1-0.3,0.2-0.5,0.3
		C1021.4,885.8,1021.5,885.7,1021.5,885.6z M1029.8,882.3c0.7,0.4,1.3,0.5,1.8,0.4c-0.5,0.3-1.1,0.4-2,0
		C1029.7,882.5,1029.7,882.4,1029.8,882.3z M983.4,893c0,0.1,0,0.2,0,0.2c0.1,0.7,0.5,1.3,1.6,1.5c0.5,0,1.2,0.1,1.9,0.1
		c-0.7,0.1-1.5,0.2-2.2,0.2c-0.4,0-1.2-0.7-1.6-1.5C983.2,893.2,983.3,893.1,983.4,893z M982,901.1c0.5,0.4,0.8,0.6,1.1,0.6
		c-0.6,0.5-1.4,1.2-2.4-0.1c-0.2-0.2-0.6-0.3-1.1-0.2c0,0,0,0,0.1-0.1C980.5,900.9,981.7,900.3,982,901.1z M1001.3,902.8
		c0.1-0.1,0.1-0.2,0.2-0.3c-0.4-0.5-1.2-0.7-1.6-0.3c-1.1,0.2-3.1,0.6-4.5,0.1c0.5-0.2,1-0.4,1.4-0.6c1.3,0.1,2.4-0.3,3.3-0.3
		c0.2,0,0.3,0.1,0.5,0.2c0.2,0,0.7,0,1.1-0.1c0.1,0.1,0.2,0.1,0.4,0.3C1002.6,902.3,1002.1,902.5,1001.3,902.8z M1002.6,900.8
		c0-0.1,0.1-0.1,0.1-0.2c0.2-0.7-0.4-0.8-1.5-1.3c-0.1-0.2-0.7-0.2-0.5-0.8c0-0.4,0.4-0.4,0.7-0.5c0.1,0.4,0.4,0.3,0.5,0.6
		c0.4,0,1.2,0.7,1.5,1.3C1003.3,900.2,1003,900.6,1002.6,900.8z M1005.9,897.6c-1.5-0.7-3-1-4.6-0.5c1.9-1.5,4.5-1.1,6.8,0.7
		C1007.5,897.8,1006.7,897.7,1005.9,897.6z M1020.9,897.4c0.6-0.3,1.3-0.6,1.9-0.8c-0.4,0.3-0.8,0.5-1.2,0.7
		C1021.4,897.3,1021.1,897.4,1020.9,897.4z M1035.9,891.7c-1.3-0.1-2.6,0-4-0.1c-2.4-0.4-5,0.8-7.6,1.5c-3.8,0.7-7.5,2.8-11.7,3.8
		c-0.7,0.1-1.1,0.2-1.9,0.1c-0.1,0.1-0.3,0.2-0.5,0.4c-0.2-0.1-0.4-0.3-0.7-0.6c-0.1-0.7,0.2-0.7,1-1.1c0.8-0.4,1.1-0.2,1.9-0.1
		c4.3-0.6,8-3.3,11.7-3.8c2.3-0.2,5.2-1.9,7.6-1.5s5-0.3,7.3-0.4C1038,890.6,1037,891.2,1035.9,891.7z M1045.1,889
		c0.1,0,0.2-0.1,0.3-0.1c5.9-0.2,11.4-2.8,16.1-5.8c0.2,0,0.4-0.1,0.6-0.1C1056.9,886.1,1051,888.8,1045.1,889z M1055.5,884.6
		c1-0.3,2-0.6,3-0.9C1057.5,884,1056.5,884.3,1055.5,884.6z M1076.3,865.2c-13.4,9.1-35.9,9.9-38.7,11.7c3-2,37.2-15.7,38.9-15.7
		L1076.3,865.2z M1215.6,752.3c-0.5,6.3-2.1,12-4,17.8c-0.7,2.5-2.2,5.8-3.4,8.2c-8.8,20-22.6,37.3-37.3,54.3
		c9.8-27,10-54.1,9.1-81.2c-0.1-0.2-0.1-0.7,0.2-0.7c-0.6-5.6-0.8-11.2,0.7-16.6c1.8-7,5.4-12.1,12.5-13.1
		c7.5-1.2,12.7,1.8,17.1,7.7C1215.3,735.8,1216.4,744.2,1215.6,752.3z"/>
	<path class="st0" d="M1090.6,630.4L901.9,519.8c-19.8-11.6-44.4,2.8-44.4,25.4l1,223.3c0,22.8,25,36.8,44.5,25.1l187.9-112.5
		C1110.1,669.6,1109.9,641.8,1090.6,630.4z"/>
</g>
</svg>
