<?xml version="1.0" encoding="utf-8"?>
<!-- Generator: Adobe Illustrator 26.0.3, SVG Export Plug-In . SVG Version: 6.00 Build 0)  -->
<svg version="1.1" id="Camada_37" xmlns="http://www.w3.org/2000/svg" xmlns:xlink="http://www.w3.org/1999/xlink" x="0px" y="0px"
	 viewBox="0 0 1920 1312" style="enable-background:new 0 0 1920 1312;" xml:space="preserve">
<style type="text/css">
	.st0{fill:#FFFFFF;}
	.st1{fill:none;}
</style>
<path class="st0" d="M348.8,357.4l32.7,656.4c1.3,26.4,23.8,46.7,50.2,45.5l1094.1-54.5c26.4-1.3,46.7-23.8,45.5-50.2l-32.7-656.4
	c-1.3-26.4-23.8-46.7-50.2-45.5L394.2,307.3C367.8,308.6,347.5,331,348.8,357.4z M1467,941.1l-993,49.5c-14.6,0.8-27-10.5-27.7-25.1
	L418,399.2c-0.8-14.6,10.5-27,25.1-27.7l993-49.5c14.6-0.8,27,10.5,27.7,25.1l28.2,566.2C1492.8,927.9,1481.6,940.4,1467,941.1z"/>
<path class="st0" d="M857.7,576.7l8.4,168.4c0.8,17.2,20.1,26.9,34.4,17.4l137.9-91.3c14.1-9.3,13-30.3-1.9-38.2L890.3,556
	C875,547.9,856.9,559.6,857.7,576.7z"/>
<g id="Ilustrações2_1_">
	<g>
		<path class="st1" d="M835,918.9c-2.6-1.5-6.1-1.1-9.4-1.4c-4.7-0.8-9.9,0.2-15.2-0.4c-0.8-0.2-1.4-0.2-2.2-0.7
			c-0.3,0-1.1,0.1-1.6,0.9c0,0.3,0.6,0.5,1.1,1.3c2,1,3.9,0.9,5.5,1.4c1.1-0.3,3.6-0.5,3.9,0.6c1.8,3,4,2.3,6.4,1.4
			c-0.8-0.5-2.2-0.7-3.6-0.9c7.7-0.9,15.6,2.8,22.9,1.1C840.7,920.8,837.8,920.1,835,918.9z"/>
		<path class="st1" d="M734.6,854.7c1.2,2.1,7.4,5.2,9,3.6c3-2.1,5.9-2.5,9.5-2.4c-5.6-2.5-11.6-0.8-17.5-2.4
			C735.2,853.6,734.8,853.9,734.6,854.7z"/>
		<path class="st1" d="M873.4,921.1c-7.2-1-14.6-0.7-22.3,0C858.4,923.5,866.4,922.8,873.4,921.1z"/>
		<path class="st1" d="M773.3,912.9c2.8,0.7,7.1-0.1,8.7,4c0.6,0.5,2.1,2.4,2.9,2.4c2.8,0.7,5.5,1.4,8.6,0.7
			c0.8-0.3,1.1-0.3,1.6-0.9c-0.3-0.8-1.1-1.3-1.7-1c-1.4-0.2-3.9-0.6-5.3-1.7c2.7-0.2,4.9,0,6.4,1.4c0.5,0.2,2,1,2.7-0.4
			c0.5-0.8-0.1-1.1-1.2-2.1c0-0.3-0.8-0.5-0.3-1.1c0.2-0.5,0.8-0.3,1.1-0.3c2.2,0.7,4.6,2.5,6.8,3c-2.4-3.2-4.9-4.7-8.7-4
			c-1.4,0.6-4.6,0.5-6.4-1.1c-4.6-2.8-9.2-1.7-13.8-1.5c-1.1,0.1-2.7,1.7-3.6-0.9c-0.3-0.8-2-1-2.8-0.7c-0.3,0-0.8,0.3-1.3,1.1
			c0.1,1.1,1.2,2.1,2.1,2.1C771.6,912.9,772.5,912.9,773.3,912.9z"/>
		<path class="st1" d="M785.1,905.1c6.1,0.2,12.5,1.3,18.2,1.8c3.9,0.6,7.2,0.8,11.6-0.3c2.4-1.2,6-1.4,9.4,1.2
			c0,0.3,0.8,0.2,1.1-0.1c3.3-0.7,7.8,2.7,11-0.5c2.4,2.4,3.9,0.9,4.9-1.4c0.2-0.5,1.1-0.3,1.6-1.4c-0.5-0.2-0.5-0.2-0.8-0.5
			c-11.6,0.8-22.3-0.2-33.7-1.4c-0.8-0.2-1.7-0.5-2.7-0.2c-9,1.8-17.4-1.6-25.7-2.1c-0.8-0.2-1.7-0.5-2.2,0.7
			c-0.2,0.8,0.1,1.7,1.2,2.4C780.6,904,783.1,905.2,785.1,905.1z"/>
		<path class="st1" d="M775.3,863.8c0.5-0.8,1.4-0.6,2.1-2.1c-3.9-0.6-7.7,0.1-10.8-0.8c-3.6-0.9-6.4-1.1-9.8,1.9
			c2.2,0.5,4.2,0.6,6.4,0.5c3.9-0.2,7.8,0.5,11.2,3c0.5,0.2,1.4,0.2,2.2,0.5c1.6-0.9,2.7,0.2,3.9,0.6c1.7,1.3,3.9,0.9,5.5,0.8
			C782.3,866.6,778.9,864.9,775.3,863.8z"/>
		<g>
			<path class="st0" d="M1389.2,304.8c-19-0.6-37.9-2.4-56.9-4.2c-36.6,63.5-72.9,127.2-109.3,190.6c-5.9,10.2-11.4,20.4-17.8,30.6
				c7.8,1.3,15.2,1.7,22,4.1c29.6,9.5,55,26.1,76,49.6c6.4,6.5,7.9,4,11.2-1.4c22-39.9,40.3-81.9,57.8-123.8
				c20.9-49.9,41.4-99.9,61.6-150C1419,303.8,1404.5,305.4,1389.2,304.8z"/>
			<path class="st0" d="M1168.7,777.5c4.1-5.5,7.8-10,11.6-14.9c33.1-42.1,65.8-84,98.1-125.6c3.1-4,6.5-8.3,5.1-13.2
				c-1.2-7.1,2-10.9,7.3-13.8c3-1.8,5-4.1,8.3-5.6c6.2-3.3,5.7-6.9,1.4-11.3c-17.5-19.2-37.9-35.9-61-47.9
				c-10.7-5.5-21.9-8.8-33.8-10.2c-14.7-1.7-14.7-1.4-16.1,13.2c-0.8,7.2,1,14.5-3.4,20.5c-4.6,6-7.4,12.8-10.6,19.8
				c-8.1,19.7-16,39.4-24,59.1c-12.8,31.8-26,63.5-39.4,94.8c-1.7,3.4-3,6.8,3.1,7C1136.7,752.3,1154.4,761.9,1168.7,777.5z
				 M1137.6,726.9c1.4-5,3.1-9.5,5.1-14.6c16-39.1,35.7-75.3,52.4-113.3c1.2-3.3,3.3-5.7,8.5-6.5c3-0.2,6.9,1.3,9.6,4.8
				c3.2,3.4,2.3,6.5,0.2,9.9c-19.2,39-37.7,77.9-56.7,116.8c-1.7,3.4-4.3,7.7-7.5,9.7c-2.7,2.6-5.6,3.3-9.3,1.3
				C1137.1,733.6,1136.7,731.1,1137.6,726.9z"/>
			<path class="st0" d="M740.8,934.6c4.4,0.1,8.4,2.4,12.8,3c11.7,2.4,23,3.8,34.9,4.3c10,0.9,20.2,1.4,30.1,2.1
				c15.7,1.1,31.7,0.4,48,0.6c13.5,0.2,26.8,0.1,39.6-0.8c9-0.8,17.9,0.2,27,0.3c5.5-0.3,11.2-1.4,17-1.4
				c14.1-0.2,28.6-1.7,42.8-3.5c8.5-1,17-1.4,26.1-2.7c11.8-1.1,23.3-3.6,35.2-7c7.3-2.6,14.3-6.2,21.4-8c5.5-1.4,10.3-3.3,15.2-5.2
				c5.4-1.9,10.3-3.3,15.2-4.9c28.1-11,50.4-27.8,62.2-56.8c7.4-17.5,8.4-34.9-1.2-51.7c-11.4-18.7-26.7-32-47.9-37.9
				c-27.4-8-64.6,1.8-77,35.3c-2.4,6.2-4.9,11.8-7.1,17.7c-4.1,0.8-8.5,1.2-12.5,2c-14.5,2.1-29,5.3-44,6.8
				c-12.8,1.4-25.8,3-38.6,4.1c-9.9,0.2-20.1,1.3-29.9,0.9c-17.1-0.5-33.6,0-50.4,0.6c-6.1,0-11.8,2-17.8,2.5
				c-3.6-0.1-7.1,0.1-10.4,1.6c-6.2,2.2-12.8,2.8-19.2,2.9c-0.8-0.2-1.7,0.1-2.7,0.2c-4.1,0.8-9.6,1.6-14.2,2.1
				c-1.7,0.1-3.9-0.6-6.4-0.5c-3.8,1-7.9,1.7-12,1.7c-16,0.2-31.8,2.1-47.9,1.3c-7.2-0.8-14.1,0.2-21.2,0.8c0,0,0,0.3-0.2,0.5
				c2.8,1,5.3,1.7,8.4,2.1c-5.2,1.6-9.8,1.9-14.5,2.1c-0.8,0.3-2.7-0.2-2.7,1.7c0.1,1.1,1.7,1,2.5,1.2c2.8,0.7,6.9-0.1,9,2.6
				c-0.5,0.8-2.2-0.5-2.4,1.5c0,0.3,0.5,0.2,0.6,0.5c2,1,4.5,0.9,6.2,1.6c1.1-0.1,2.9,2.4,4.4-0.2c0.3,0,2.2,0.5,3.9,0.6
				c0.1,1.1-2.5,0.2-2.1,2.1c0.6,1.4,1.7-0.1,2.2,0.5c0.8,0.2,1.7,0.5,2.8,1c0,0.3,0.5,0.2,0.8-0.3c-0.3-0.8-2-1-1.2-2.4
				c3.6,1.4,8.6,1.5,11.6,5.2c-0.8,0.3-1.6,0.9-2.4,1.2c3.1,2.1,6.3,5.2,10.6,3.9c0.3,0,0.8,0.2,0.8,0.5c1.2,2.1,2.6,1.5,5,1.4
				c-0.3-0.8-1.7-0.5-1.7-1.8c-0.6-1.4-0.6-1.4-1.7-1.8c-2.5,0.2-4.6,0.8-6.9,0.1c-1.4-0.2-3.9-0.6-0.7-3c0.5-0.6-0.3-0.8-0.3-0.8
				c-0.5-0.2-1.1,0.1-0.9-1.6c0.2-0.5,1.1-0.6,1.4-0.6c1.4,0.2,3.6,0.9,2.7,3.2c-0.2,0.8,0.6,1.1,1.7,1c3.8-1,7.1-0.1,10.5,1.1
				c2.2,0.7,3.5,3.1,5.7,3.3c1.1-0.1,2.2,0.7,2.4-1.5c-0.2-2.7,0.9-3.9,4.6-2.7c0.8,0.5,2,1,3.9,0.6c-1.7,0.1-2.7-0.2-3.6-0.1
				c-0.8-0.2-1.7,0.1-2.4,1.5c0.1,1.1,1.4,0.2,2.3,1.5c0.3,0.8,1.7,1,1.7,0.5c1.5-2.6,3.8-1,5.5-0.5c-0.2,0.8-1.3,1.1-1.2,2.5
				c1.6-0.9,2.4-1.2,3.6,0.1c3.1,1.7,6.7,1.6,10.3,1.4c1.1-0.3,4.4,0.1,4.9-2.2c0.7-2.8,3.2-2.7,3.2-2.7c2.4,2.4,6.6,0.8,8.5,4.3
				c0.5,0.2,2,1,1.7,1.8c-0.5,0.8-2.1,1.2-3,0.7c-7.1,0.1-14.5,2.1-22,0.8c-1.1,0.1-2.1,2.1-3,0.7c-3.2-2.6-6.4-1.4-9.7-1.4
				c-3.6,0.5-7.7,0.9-10.5-0.3c-5.6-2.2-11.3-1.4-17.3-3c-0.8-0.5-3.3,0.7-3.6-0.9c-0.1-1.1,2,1,3-0.2c0,0,0.3,0,0.2-0.5
				c-1.7-1.8-3.9-0.9-6.4-1.1c1.7,1.3,2.1,2.1-0.1,3.3c-1.4,0.6-3.8,1.8-4.5-1.1c-0.3-0.8-0.8-0.5-1.4-0.2c-1.1,0.3-2.2-0.7-3.9-0.9
				c-3.4-1.7-8.3-0.7-12.4-0.5c1.1,1.3,2.2,0.7,3.9,0.6c1.4-0.6,4.1,0.1,4.5,0.9c1.5,2.4,3.2,2.6,5.1,2.8c0.3,0,0.8,0.5,1.1,1.3
				c0.3,0.8-0.5,0.8-1.3,1.1c-1.1,0.3-3,0.7-4.1,0.8c-2.2-0.5-4.1-0.1-5.1,2.4c2.7-1.7,4.5,0.9,6.2,1.6c4.4,0.1,8.8,0.1,12.8,3.2
				c0.5,0.2,2,1,2.2,0.7c1.6-0.9,3-0.7,4.4,0.1c0.5,0.2,0.8,0.5,1.1,1.3c0.3,0.8-0.5,0.8-1.1,0.6c-4.9,1.4-9,0.5-13.1-2.4
				c-3.1-1.7-3.8,0.5-6,0.8c1.1,1.3,2,1.3,3.3,1.2c2.8,0.7,7.1-0.9,8.2,3.7c0,0,0.3,0,0.8,0.2c0.2-0.8-1.4-1.6-0.1-1.7
				c0.5-0.6,2,1,2,1.3c0.1,1.7,1.4,1.6,2.5,1.2c1.8-1.4,3.3-0.7,4,2.3c0.9-3.6,3-2.1,4.3-1.6c2.2,0.5,4.5,0.9,6-0.8
				c1.1-0.6,2.5-0.2,3.3,0.4c1.4,0.2,2.6,2.7,4.6,2.5c3-0.7,5.3,1.4,8.1,2.1c-1.3,1.1-2.1,1.2-3,0.7c-3.3-0.1-6.4-0.5-9.7-1.1
				c-0.8-0.2-2.7,0.4-2.8-0.7c-0.1-1.1,1.6-1.4,1.5-2.3c-1.6,1.4-3.8,0.5-6,1.7c0.8,0.5,2.7,0.2,2.6,1.5c-0.5,0.8-1.6,0.9-2.4,1.2
				c-3.6-0.1-6.6-0.5-10.3-1.4c-6.2-1.6-12.7-0.5-17.8-2.7c1.4,0.2,1,3.3,3.2,3.4c4.9-0.5,10.5,1.1,15.5,1.4
				c2.2,0.5,4.2,0.6,6.5,1.9c-0.5,0.8-2.2,0.7-1.6,1.4c1.7,2.7-1,2-1.6,1.4c-5.1-2.8-11.1-2.2-16.4-3.3c-0.8-0.2-1.4-0.2-2.5,0.2
				c-2.7,1.7-5.5,1.4-8.2,0.4c-1.4-0.2-3,0.7-3.2,2.4c-1.3,1.1-0.5,2.2,1.7,2.7c0.8,0.5,0.3,1.1,0.2,2.5c0.1,1.1,1.2,2.1,2.1,2.1
				c1.7,0.5,4.6,2.5,5.8,0.5c1.8-1.7,2.4-1.5,3.8-0.5c2,1,3.4,2.1,5.8,0.5c1.6-0.9,2.7-0.4,3.6,0.9c0.9,1.6,2.1,2.1,3.9,0.9
				c0.2-0.5,1.1-0.3,1.7-0.1c0.5,0.2-0.2,0.8-0.2,1.4c-0.5,0.6-1.3,1.1-0.7,2.2c0.3,0.8,1.4,0.2,2.2,0.7c4.1,0.1,7.4,0.2,10.8,1.1
				c5.3,1.4,10.9,2.2,16.3,1.4c0.8-0.3,2.2,0.7,2.9,2.4c-3.6-0.1-6.4-1.4-9.7,0.5c-1.5-3.5-5.7,1.9-7.5-1.5c-2.4,2.4-4.9,0.5-8-0.2
				c0.3,0.8,0.6,0.5,1.1,1.3c5.3,1.1,9.8,3.3,15.9,3c4.6-0.5,9.7,2.3,13.9,3.2c2,1,3.4,1.7,5.8,0.5c1.1-0.6,2.4-1.2,3.6,0.1
				c4.9,3.9,11-0.5,16.3,0.3c0,0.3,0.8-0.3,0.5-0.6c0.7-2.2,1.8-1.4,3.3-0.7c0.5,0.2,1.4,0.2,2.2,0.7c5.2-0.2,10.6,1.7,16,1.7
				c1.7-0.1,3.9-0.2,6.4,0.5c6.2,1.6,11.7,2.4,18.2,1c2.5-0.2,4.6-0.5,7.1-0.9c2.5-0.2,4.5,0.9,6.6,0.5c4.9-1.4,10.1-1.1,15.7-0.5
				c10.8,0.8,21.5,0.3,32.2-0.2c1.7-0.1,3.3-0.7,4.6-0.8c1.1-0.1,2.6,1.8,3.9-0.2c0.3,0,0.8,0.2,0.8,0.5c0.3,0.8-0.2,0.8-0.2,1.4
				c-1.6,0.9-3.5,1.3-4.9,0.8c-5.3-1.7-9.8,1.9-14.9-0.1c-11.2,2.7-22.8,0.6-34.4,1.4c-3.9,0.2-7.8-0.2-11.6,0
				c-3,0.2-7.1,0.9-9.3,0.8c-8.3-0.4-16.8,0.5-25.3-0.2c-0.8-0.2-2.2-0.5-2.7,1.2c4.4,0.1,8.3,0.4,12.7,0.5
				c8.6,0.4,17.1,0.8,25.9,1.2c2.5-0.2,4.3-1.1,7.1-0.9c5.5,0.8,11.3,0,16.6,0.3c4.1,0.1,7.7-0.1,11.2-0.3c0.8-0.3,1.7-0.1,2,1.3
				c0.3,0.8-0.8,1.4-1.8,1.7c-0.8,0.3-1.4,0.6-2.2-0.7c-0.3-1.1-1.4-1.6-2.5-1.2c-3,0.7-5.2,0.2-8,0.4c-0.8,0.3-1.1,0.1-1.6,0.9
				c-0.5,1.7-1.3,2-2.7,0.4c-0.6-1.1-2-1.3-2.8-0.7c-0.3,0-1.1,0.3-1.1,0.6c1.2,2.4-1,1.7-1.8,1.7c-1.1,0.1-2.7-0.2-4.4,0.2
				c-2.5,0.2-4.6,0.5-7.2-0.8c-2-1.3-3.4-1.7-5.5-1.4c-3.6-0.1-7.4-0.2-10.5-0.3c-8.2,0.4-16.3-2-24.7,1.7
				c-3.5,1.5-7.7,0.1-11.8,0.8c-0.3,0-0.5-0.2-0.8-0.5c-0.3-0.8,0.2-0.8,1.3-1.1c0.8-0.3,1.7-0.1,2.5-0.2c0.8-0.3,2.1-1.2,1-2
				c-1.7-1-3.4-1.7-5.5-0.5c-2.1,2.1-4.6,2.7-7.5,4c-1.1,0.3-3.8,0.5-4.2-0.6c-0.7-2.2,1.5-2.3,3.2-2.4c0.3,0,0.8-0.3,1.3-1.1
				c-4.1-0.1-7.8-2.7-12.7-0.2c2.6,1.5,5.5,0.5,7.5,1.5c-2.1,2.1-4.3,1.1-7.1,0.9c-4.9,0-9.4-0.6-14.4-0.7c-0.3,0-1.1,0.1-1.7-1
				c-0.3-1.1,0.5-0.8,1.3-1.1c1.1-0.3,1.3-2,1-2.8c-0.3-0.8-1.4-0.2-2.7-0.2c-1.6,0.9-2.4,1.2-3.8,0.5c-0.8-0.2-1.7,0.1-2.7,1.7
				c1.7,0.5,3.3,0.4,5.5,0.8c-3.3,1-6.2,2.2-8.5,1c-4.5-1.1-9.7-1.4-14.4-1.7c-0.8-0.2-2.2-0.5-2.4,1.2
				C738,934.4,739.9,934.1,740.8,934.6z M1064.9,816.5c0-0.3,0.2-0.8,0.5-0.8c1.6-6.7,3.7-13.4,7.6-19.1
				c4.9-7.4,11.2-11.9,19.9-10.1c9.2,1.7,14.1,7.3,16.8,16c2.7,10.3,0.5,20.4-3.7,29.6c-3.2,7.1-7.4,13.1-12,19.1
				c-1.8,2.6-4.9,5.8-7.3,8.1c-18.5,19.7-41.6,34.1-65.7,47.9C1043.5,879.8,1054.9,848.4,1064.9,816.5z M743.9,858.4
				c-1.6,1.4-8.1-2.1-9-3.6c-0.3-0.8-0.1-1.1,1.3-1.1c5.9,1.7,12.1-0.1,17.5,2.4C750.1,855.8,746.8,856.3,743.9,858.4z M780.2,867.3
				c-1.1-1.3-2-1.3-3.9-0.6c-0.8,0.3-1.7,0.1-2.2-0.5c-3.1-2.1-7.1-3.2-11.2-3c-1.7,0.1-4.4-0.1-6.4-0.5c3.2-2.4,5.9-2.5,9.8-1.9
				c3.9,0.9,7.7-0.1,10.8,0.8c0.1,1.1-1.6,0.9-2.1,2.1c3.3,1.2,6.8,3,10.4,4.2C783.8,868.2,781.6,868.1,780.2,867.3z M897.5,906.4
				c-19.3,5.1-45.9-3.2-49.9-2.2c4.3-1.1,49.7-3,51.7-2.3L897.5,906.4z M804.9,916.5c-2.2-0.7-4.3-2.5-6.8-3
				c-0.5-0.2-0.8-0.5-1.1,0.3c-0.2,0.8,0.3,0.8,0.3,1.1c0.5,0.2,1.1,1.3,1.2,2.1c-0.5,0.8-2.1,1.2-2.7,0.4c-2-1.3-3.6-1.4-6.4-1.4
				c2,1.3,3.9,0.9,5.3,1.7c0.3,0,1.1-0.1,1.7,1c0.3,0.8-0.5,0.8-1.6,0.9c-3,0.2-5.5,0.3-8.6-0.7c-0.8-0.2-2.3-1.5-2.9-2.4
				c-1.8-3.8-5.7-3.3-8.7-4c-0.8-0.5-2.5,0.2-3.3-0.4c-0.8-0.5-1.7-1.3-2.1-2.1c-0.3-0.8,0.5-0.8,1.3-1.1c1.1-0.1,2.7-0.4,2.8,0.7
				c1.2,2.4,2.2,0.7,3.6,0.9c4.6-0.5,9.3-2.1,13.8,1.5c1.7,1,4.5,0.9,6.4,1.1C799.7,911.8,802.8,913.3,804.9,916.5z M820.2,919.6
				c0.8,0.5,2.2,0.7,3.6,0.9c-2.4,1.2-4.9,1.4-6.4-1.4c-0.6-1.1-2.8-1-3.9-0.6c-1.7,0.1-4.1-0.1-5.5-1.4c-0.3,0-0.8-0.5-1.1-1.3
				c0.2-0.8,0.5-0.8,1.6-0.9c1.1-0.1,1.4,0.2,2.2,0.7c5.3,1.1,10.7-0.5,15.2,0.4c2.8,0.7,6.9-0.1,9.4,1.4c2.6,1.5,5.9,1.7,8.7,2.6
				C835.5,922.4,827.9,918.9,820.2,919.6z M825.7,907.8c-0.3,0-1.1,0.1-1.1,0.1c-2.6-1.8-6.5-1.9-9.4-1.2c-4.1,1.3-7.7,0.9-11.6,0.3
				c-6.1-1.1-12.2-1.9-18.2-1.8c-2.2-0.5-4.5-0.9-6.7-1.6c-0.5-0.2-1.1-1.3-1.2-2.4c0.5-0.8,1.1-0.6,2.2-0.7
				c8.6,0.4,17,3.8,25.7,2.1c0.8-0.3,1.7-0.1,2.7,0.2c11.3,1.4,22.4,1.9,33.7,1.4c0.3,0,0.8-0.3,0.8,0.5c-0.2,0.8-1.1,0.6-1.6,1.4
				c-1.3,2-3.1,3.5-4.9,1.4C833.2,909.6,829,906.5,825.7,907.8z M851.5,921.4c7.4-0.6,15.1-1.6,22.3,0
				C866.4,922.8,858.4,923.5,851.5,921.4z M835.9,858.2c1.7-0.1,3.6,0.1,5.5,1.4c-4.9,1.4-10.6,2.2-13-1.5c1.3-1.1,2.5,1.2,4.1-1.1
				c-8.8,0.2-17,0.6-25.5,1.5c6.2,2.7,6.5,2.7,11.6,0.8c2.4-1.2,4.4-0.2,6.5,1.9c1.1,1.3,0.6,1.4-0.2,2.7c4.9-2.2,8.4,2.1,13.8,1.5
				c-1.7-1.8-3.6-0.9-4.3-2.5c1.4-0.6,3-0.2,4.2,0.6c0.5,0.2,1.7,1,1.2,2.1c-0.2,0.8-1.1,0.6-1.8,1.4c-2.4,1.2-4.1,1.1-6.1-1.1
				c-1.1-1.3-3.6-0.9-4.9,0.5c1.1,1.3,2.7,0.2,3.3,1.2c-1.1,0.3-2.8-0.7-4.3,1.6c-0.5,0.8-4.1,1.1-5.5-0.5c-1.5-2.4-2.6-2.7-4.3-3.1
				c-4.9,0-10.2-0.1-15.7-1.1c0.5-0.8,1.7-0.1,2.1-1.2c-1.1,0.1-2.7-0.2-3.9-0.6c-7.6-3.5-15.5-1.4-23.6-2.4
				c-1.1,0.1-1.1,0.1-2.9-2.6c8.1,2.4,15.5,1.4,23,1.4c-2.6-1.8-5.3-1.4-7.8-1.3c-1.1,0.1-2.7-0.2-2.8-1c-0.3-1.1,1.5-2.6,2.7-2.6
				c2.8,0.7,4.9-0.5,7.9-1.7c3-1.8,6.4,1.1,9.3,0.4c6-1.4,11.3,1.1,17-0.6c1.1-0.3,2.8,0.7,4.7,0.3c5.5,0.5,11-0.5,16.3,1.4
				c0.3,0,0.8,0.5,1.7-0.1c5.9-2.7,11.8-0.6,17.6-0.9c1.1-0.1,1.7-0.1,3.3-0.7c4.9-2.2,6.5-2.3,10.5,0.8c-3.3-0.1-6,1.7-8.2,1.7
				c-3.9,0.2-8,0.4-11.8,0.8c-0.8,0.3-2.8-0.7-3,1.8c0,0.3-3.8,1-5.5-0.5c-2.3-1.5-4.5-1.1-6.9-1.3c-1.1,0.3-2.7,0.4-4.1-0.1
				c-0.3,0-1.4-0.2-1.1,0.3C834,858.1,835,858,835.9,858.2z"/>
		</g>
	</g>
</g>
</svg>
