<?xml version="1.0" encoding="utf-8"?>
<!-- Generator: Adobe Illustrator 22.0.1, SVG Export Plug-In . SVG Version: 6.00 Build 0)  -->
<svg version="1.1" xmlns="http://www.w3.org/2000/svg" xmlns:xlink="http://www.w3.org/1999/xlink" x="0px" y="0px"
	 viewBox="0 0 1920 1312" style="enable-background:new 0 0 1920 1312;" xml:space="preserve">
<style type="text/css">
	.st0{display:none;}
	.st1{display:inline;fill:#FFFFFF;}
	.st2{display:inline;}
	.st3{fill:#FFFFFF;}
	.st4{clip-path:url(#SVGID_2_);fill:url(#SVGID_3_);}
</style>
<g id="Camada_1" class="st0">
	<polygon class="st1" points="489.7,414 383.6,685.9 277.4,414 266,414 376.2,699.8 383.6,699.8 390.9,699.8 501.1,414 	"/>
	<path class="st1" d="M1425,699.8h11.4L1326.2,414h-7.3h-7.3l-110.2,285.8h11.4l38.9-99.6h134.5L1425,699.8z M1254.8,592l64.1-164.1
		l64.1,164.1H1254.8z"/>
	<polygon class="st1" points="1503,691.6 1503,414 1494.8,414 1494.8,691.6 1494.8,698 1494.8,699.8 1654,699.8 1654,691.6 	"/>
	<rect x="266" y="736" class="st1" width="1388" height="8.2"/>
	<g class="st2">
		<path class="st3" d="M604.5,440c1.1-0.8,2.2-1.5,3.3-2.2C606.6,438.4,605.5,439.2,604.5,440z"/>
		<path class="st3" d="M611.7,435.2c1.4-0.9,2.8-1.7,4.2-2.5C614.5,433.5,613.1,434.3,611.7,435.2z"/>
		<path class="st3" d="M595.1,447.1c1-0.8,2-1.6,3.1-2.5C597.1,445.5,596.1,446.3,595.1,447.1z"/>
		<path class="st3" d="M544.3,543.2c0.1-0.7,0.2-1.5,0.2-2.2C544.4,541.7,544.3,542.5,544.3,543.2z"/>
		<path class="st3" d="M621.4,429.7c1.5-0.8,3.1-1.6,4.6-2.3C624.4,428.2,622.9,429,621.4,429.7z"/>
		<path class="st3" d="M588.7,452.8c0.8-0.8,1.7-1.6,2.5-2.3C590.3,451.3,589.5,452,588.7,452.8z"/>
		<path class="st3" d="M543.8,550c0-0.6,0.1-1.2,0.1-1.8C543.9,548.8,543.8,549.4,543.8,550z"/>
		<path class="st3" d="M545.1,536.4c0.1-0.7,0.2-1.4,0.3-2.1C545.3,534.9,545.2,535.6,545.1,536.4z"/>
		<path class="st3" d="M546.3,529.3c0.1-0.6,0.2-1.1,0.3-1.7C546.5,528.2,546.4,528.7,546.3,529.3z"/>
		<path class="st3" d="M637.8,422.5c2.5-0.9,5.1-1.7,7.7-2.5C642.9,420.8,640.3,421.6,637.8,422.5z"/>
		<path class="st3" d="M677.2,414.4c2.5-0.2,5-0.3,7.5-0.3C682.1,414.1,679.6,414.2,677.2,414.4z"/>
		<path class="st3" d="M686.5,414c-0.1,0-0.3,0-0.4,0c3,0,6,0.1,9,0.3C692.3,414.1,689.4,414,686.5,414z"/>
		<path class="st3" d="M667.5,415.3c2.3-0.3,4.6-0.6,7-0.8C672.1,414.8,669.8,415,667.5,415.3z"/>
		<path class="st3" d="M696.8,414.4c2.7,0.2,5.3,0.5,8,0.8C702.2,414.9,699.5,414.6,696.8,414.4z"/>
		<path class="st3" d="M543.6,556.9c0,0.2,0,0.4,0,0.6C543.6,557.3,543.6,557.1,543.6,556.9C543.6,556.9,543.6,556.9,543.6,556.9z"
			/>
		<path class="st3" d="M629.5,425.9c2-0.9,4-1.7,6-2.5C633.5,424.2,631.4,425,629.5,425.9z"/>
		<path class="st3" d="M656.8,417.1c2.9-0.6,5.8-1.1,8.7-1.6C662.6,416,659.7,416.5,656.8,417.1z"/>
		<path class="st3" d="M648.1,419.3c2.2-0.6,4.5-1.2,6.7-1.7C652.6,418.1,650.3,418.7,648.1,419.3z"/>
		<path class="st3" d="M666.5,698.4c-1.6-0.2-3.2-0.5-4.8-0.8C663.3,697.9,664.9,698.1,666.5,698.4z"/>
		<path class="st3" d="M672.9,699.1c-1.5-0.1-3.1-0.3-4.6-0.5C669.8,698.8,671.3,699,672.9,699.1z"/>
		<path class="st3" d="M613.6,679.8c-1.1-0.7-2.2-1.4-3.4-2.1C611.3,678.4,612.5,679.1,613.6,679.8z"/>
		<path class="st3" d="M660.2,697.3c-1.6-0.3-3.3-0.6-4.9-1C656.9,696.7,658.5,697,660.2,697.3z"/>
		<path class="st3" d="M608,676.3c-1.1-0.7-2.2-1.5-3.3-2.3C605.8,674.8,606.9,675.6,608,676.3z"/>
		<path class="st3" d="M681.8,699.7c-2.3-0.1-4.6-0.2-7-0.4C677.2,699.5,679.5,699.6,681.8,699.7z"/>
		<path class="st3" d="M706.1,415.4c6.4,0.9,12.7,2.2,18.9,3.9C718.8,417.6,712.5,416.3,706.1,415.4z"/>
		<path class="st3" d="M544,566.7c-0.1-1.1-0.2-2.1-0.2-3.2C543.8,564.5,543.9,565.6,544,566.7z"/>
		<path class="st3" d="M654.1,696.1c-1.7-0.4-3.4-0.8-5.1-1.3C650.7,695.2,652.4,695.7,654.1,696.1z"/>
		<path class="st3" d="M648.2,694.6c-7.6-2.1-15-4.8-22.2-8.2C633.1,689.7,640.6,692.4,648.2,694.6z"/>
		<path class="st3" d="M625.3,686.1c-1.3-0.6-2.7-1.3-4-2C622.6,684.7,624,685.4,625.3,686.1z"/>
		<path class="st3" d="M553.8,610c-3.6-9.1-6.3-18.5-8-28C547.6,591.7,550.2,601.1,553.8,610z"/>
		<path class="st3" d="M556.1,615.4c-0.7-1.6-1.4-3.1-2-4.7C554.8,612.3,555.4,613.9,556.1,615.4z"/>
		<path class="st3" d="M545.6,580.6c-0.2-1.5-0.5-3-0.7-4.4C545.1,577.6,545.3,579.1,545.6,580.6z"/>
		<path class="st3" d="M544.6,573.8c-0.2-1.3-0.3-2.6-0.4-3.9C544.3,571.2,544.5,572.5,544.6,573.8z"/>
		<path class="st3" d="M558.8,621.1c-0.7-1.4-1.4-2.8-2.1-4.3C557.4,618.2,558.1,619.6,558.8,621.1z"/>
		<path class="st3" d="M565.1,632.3c-0.8-1.3-1.6-2.6-2.3-3.9C563.5,629.7,564.3,631,565.1,632.3z"/>
		<path class="st3" d="M568.7,637.8c-0.9-1.3-1.8-2.7-2.6-4C566.9,635.1,567.8,636.5,568.7,637.8z"/>
		<path class="st3" d="M561.8,626.7c-0.7-1.3-1.5-2.7-2.2-4C560.3,624,561.1,625.4,561.8,626.7z"/>
		<path class="st3" d="M619.4,683.1c-1.2-0.6-2.4-1.3-3.5-2C617,681.8,618.2,682.4,619.4,683.1z"/>
		<path class="st3" d="M715.8,696.8c-1,0.2-2,0.4-3,0.6C713.8,697.2,714.8,697,715.8,696.8z"/>
		<path class="st3" d="M823.3,598c-0.7,2.4-1.5,4.8-2.3,7.2C821.8,602.8,822.6,600.4,823.3,598z"/>
		<path class="st3" d="M819.7,608.5c-0.7,1.7-1.4,3.5-2.1,5.2C818.3,612,819,610.3,819.7,608.5z"/>
		<path class="st3" d="M809.7,629.2c-0.4,0.7-0.8,1.4-1.2,2.1C808.9,630.7,809.3,629.9,809.7,629.2z"/>
		<path class="st3" d="M723.2,695c-0.4,0.1-0.8,0.2-1.2,0.3C722.5,695.2,722.8,695.1,723.2,695z"/>
		<path class="st3" d="M828.8,568.8c-0.2,2.4-0.5,4.9-0.8,7.3C828.4,573.7,828.6,571.3,828.8,568.8z"/>
		<path class="st3" d="M827.8,577.8c-0.4,2.9-1,5.9-1.6,8.8C826.9,583.7,827.4,580.8,827.8,577.8z"/>
		<path class="st3" d="M825.8,588.5c-0.5,2.3-1.1,4.5-1.7,6.8C824.7,593,825.3,590.8,825.8,588.5z"/>
		<path class="st3" d="M709.2,698c-1.1,0.2-2.2,0.3-3.3,0.5C707.1,698.3,708.2,698.1,709.2,698z"/>
		<path class="st3" d="M791.2,654.1c0.5-0.5,0.9-1,1.4-1.5C792.2,653.1,791.7,653.6,791.2,654.1z"/>
		<path class="st3" d="M742.4,688.4c-0.2,0.1-0.4,0.2-0.6,0.2C742,688.6,742.2,688.5,742.4,688.4z"/>
		<path class="st3" d="M702.6,698.9c-1.1,0.1-2.2,0.2-3.3,0.3C700.4,699.1,701.5,699,702.6,698.9z"/>
		<path class="st3" d="M730.1,693c-0.5,0.2-1,0.3-1.4,0.5C729.1,693.3,729.6,693.2,730.1,693z"/>
		<path class="st3" d="M805.4,636.2c-0.4,0.6-0.8,1.2-1.3,1.8C804.5,637.4,804.9,636.8,805.4,636.2z"/>
		<path class="st3" d="M797.5,646.8c-0.3,0.4-0.6,0.8-0.9,1.2C796.9,647.6,797.2,647.2,797.5,646.8z"/>
		<path class="st3" d="M736.3,690.8c-0.4,0.1-0.7,0.3-1.1,0.4C735.6,691.1,736,691,736.3,690.8z"/>
		<path class="st3" d="M815.8,617.7c-0.6,1.2-1.1,2.3-1.7,3.5C814.6,620.1,815.2,618.9,815.8,617.7z"/>
		<path class="st3" d="M821.8,511c0.6,1.9,1.3,3.8,1.8,5.8C823,514.8,822.4,512.9,821.8,511z"/>
		<path class="st3" d="M695.8,699.5c-1.1,0.1-2.1,0.1-3.2,0.2C693.7,699.6,694.7,699.5,695.8,699.5z"/>
		<path class="st3" d="M829.4,556.9c0-2.9-0.1-5.7-0.3-8.5c0.2,3,0.3,5.9,0.3,8.9C829.4,557.2,829.4,557,829.4,556.9z"/>
		<path class="st3" d="M828.2,539.1c0.3,2.4,0.5,4.7,0.7,7.1C828.8,543.9,828.5,541.5,828.2,539.1z"/>
		<path class="st3" d="M829.3,558.7c0,2.5-0.1,5.1-0.3,7.6C829.2,563.8,829.3,561.3,829.3,558.7z"/>
		<path class="st3" d="M824.4,519.5c1.5,5.7,2.7,11.6,3.6,17.4C827.1,531,825.9,525.2,824.4,519.5z"/>
		<path class="st3" d="M686.5,699.8c0.8,0,1.5,0,2.3-0.1c-1,0-2,0-3,0C686,699.8,686.2,699.8,686.5,699.8z"/>
		<path class="st3" d="M674.5,414.6c0.9-0.1,1.8-0.1,2.7-0.2C676.3,414.4,675.4,414.5,674.5,414.6z"/>
		<path class="st3" d="M556.7,616.8c-0.2-0.4-0.4-0.9-0.6-1.3C556.3,615.9,556.5,616.3,556.7,616.8z"/>
		<path class="st3" d="M559.6,622.7c-0.3-0.5-0.5-1.1-0.8-1.6C559.1,621.6,559.4,622.1,559.6,622.7z"/>
		<path class="st3" d="M665.5,415.6c0.7-0.1,1.3-0.2,2-0.3C666.8,415.4,666.2,415.5,665.5,415.6z"/>
		<path class="st3" d="M554.1,610.7c-0.1-0.3-0.2-0.5-0.3-0.8C553.9,610.2,554,610.5,554.1,610.7z"/>
		<path class="st3" d="M544.9,576.1c-0.1-0.8-0.2-1.5-0.3-2.3C544.7,574.6,544.8,575.4,544.9,576.1z"/>
		<path class="st3" d="M545.8,582c-0.1-0.5-0.2-0.9-0.2-1.4C545.7,581.1,545.8,581.5,545.8,582z"/>
		<path class="st3" d="M588.7,452.8c-1.1,1-2.2,1.9-3.2,3c-20.4,20.4-33.4,45.5-38.8,71.8C552.7,498.4,567.7,472.5,588.7,452.8z"/>
		<path class="st3" d="M695.1,414.3c0.6,0,1.1,0.1,1.7,0.1C696.3,414.4,695.7,414.4,695.1,414.3z"/>
		<path class="st3" d="M562.8,628.4c-0.3-0.6-0.6-1.1-1-1.7C562.1,627.3,562.4,627.8,562.8,628.4z"/>
		<path class="st3" d="M704.8,415.2c0.4,0.1,0.8,0.1,1.3,0.2C705.7,415.3,705.2,415.3,704.8,415.2z"/>
		<path class="st3" d="M568.8,638L568.8,638c0-0.1-0.1-0.1-0.1-0.2C568.8,637.9,568.8,637.9,568.8,638z"/>
		<path class="st3" d="M684.6,414.1c0.5,0,1,0,1.5,0C685.6,414,685.1,414.1,684.6,414.1z"/>
		<path class="st3" d="M566.1,633.8c-0.3-0.5-0.7-1-1-1.5C565.4,632.8,565.8,633.3,566.1,633.8z"/>
		<path class="st3" d="M544.2,569.9c-0.1-1.1-0.2-2.2-0.2-3.3C544,567.7,544.1,568.8,544.2,569.9z"/>
		<path class="st3" d="M607.7,437.7c1.3-0.9,2.6-1.7,4-2.6C610.4,436,609,436.8,607.7,437.7z"/>
		<path class="st3" d="M635.5,423.4c0.8-0.3,1.5-0.6,2.3-0.9C637,422.8,636.3,423.1,635.5,423.4z"/>
		<path class="st3" d="M545.4,534.2c0.3-1.6,0.6-3.3,0.9-4.9C546,530.9,545.7,532.6,545.4,534.2z"/>
		<path class="st3" d="M544.5,541c0.2-1.6,0.4-3.1,0.6-4.6C544.9,537.9,544.7,539.4,544.5,541z"/>
		<path class="st3" d="M598.1,444.7c2.1-1.6,4.2-3.2,6.3-4.7C602.3,441.5,600.2,443,598.1,444.7z"/>
		<path class="st3" d="M591.2,450.5c1.3-1.1,2.6-2.3,3.9-3.4C593.8,448.2,592.5,449.3,591.2,450.5z"/>
		<path class="st3" d="M615.9,432.7c1.8-1,3.6-2,5.4-2.9C619.5,430.7,617.7,431.7,615.9,432.7z"/>
		<path class="st3" d="M645.5,420c0.9-0.3,1.7-0.5,2.6-0.7C647.2,419.5,646.4,419.8,645.5,420z"/>
		<path class="st3" d="M654.9,417.6c0.7-0.2,1.3-0.3,2-0.5C656.2,417.3,655.5,417.4,654.9,417.6z"/>
		<path class="st3" d="M725,419.3c0.1,0,0.2,0,0.2,0.1C725.1,419.4,725,419.3,725,419.3z"/>
		<path class="st3" d="M543.8,563.5c-0.1-2-0.1-4-0.2-5.9C543.6,559.5,543.7,561.5,543.8,563.5z"/>
		<path class="st3" d="M626,427.5c1.1-0.5,2.3-1.1,3.5-1.6C628.3,426.4,627.1,426.9,626,427.5z"/>
		<path class="st3" d="M543.6,556.9c0-2.3,0.1-4.6,0.2-6.9C543.7,552.3,543.6,554.6,543.6,556.9z"/>
		<path class="st3" d="M543.9,548.2c0.1-1.7,0.2-3.3,0.4-5C544.1,544.9,544,546.5,543.9,548.2z"/>
		<path class="st3" d="M706,698.4c-1.1,0.2-2.3,0.3-3.4,0.4C703.7,698.7,704.8,698.6,706,698.4z"/>
		<path class="st3" d="M668.3,698.6c-0.6-0.1-1.2-0.1-1.8-0.2C667.1,698.5,667.7,698.5,668.3,698.6z"/>
		<path class="st3" d="M661.7,697.6c-0.5-0.1-1-0.2-1.5-0.3C660.7,697.4,661.2,697.5,661.7,697.6z"/>
		<path class="st3" d="M741.8,688.7c-1.8,0.8-3.6,1.5-5.5,2.2C738.2,690.2,740,689.4,741.8,688.7z"/>
		<path class="st3" d="M728.6,693.5c-1.8,0.6-3.6,1.1-5.4,1.5C725,694.5,726.8,694,728.6,693.5z"/>
		<path class="st3" d="M699.3,699.2c-1.2,0.1-2.4,0.2-3.5,0.3C697,699.4,698.1,699.3,699.3,699.2z"/>
		<path class="st3" d="M712.8,697.3c-1.2,0.2-2.4,0.4-3.6,0.6C710.4,697.8,711.6,697.6,712.8,697.3z"/>
		<path class="st3" d="M722.1,695.3c-2.1,0.5-4.2,1-6.3,1.5C717.9,696.3,720,695.9,722.1,695.3z"/>
		<path class="st3" d="M692.6,699.6c-1.3,0.1-2.5,0.1-3.8,0.1C690.1,699.7,691.3,699.7,692.6,699.6z"/>
		<path class="st3" d="M735.2,691.3c-1.7,0.6-3.4,1.2-5.2,1.7C731.8,692.4,733.5,691.9,735.2,691.3z"/>
		<path class="st3" d="M674.9,699.3c-0.7-0.1-1.3-0.1-2-0.2C673.6,699.2,674.2,699.2,674.9,699.3z"/>
		<path class="st3" d="M685.8,699.8c-1.3,0-2.6-0.1-3.9-0.1C683.1,699.7,684.5,699.8,685.8,699.8z"/>
		<path class="st3" d="M829.4,557.3c0,0.5,0,0.9,0,1.4C829.3,558.3,829.4,557.8,829.4,557.3z"/>
		<path class="st3" d="M655.3,696.3c-0.4-0.1-0.8-0.2-1.2-0.3C654.5,696.2,654.9,696.2,655.3,696.3z"/>
		<path class="st3" d="M828,576.1c-0.1,0.6-0.1,1.1-0.2,1.7C827.9,577.3,828,576.7,828,576.1z"/>
		<path class="st3" d="M817.6,613.7c-0.6,1.4-1.2,2.7-1.8,4C816.4,616.4,817,615.1,817.6,613.7z"/>
		<path class="st3" d="M824.1,595.3c-0.2,0.9-0.5,1.8-0.8,2.7C823.6,597.1,823.9,596.2,824.1,595.3z"/>
		<path class="st3" d="M826.3,586.6c-0.1,0.6-0.3,1.3-0.4,1.9C826,587.9,826.1,587.2,826.3,586.6z"/>
		<path class="st3" d="M814.1,621.2c-1.4,2.7-2.8,5.4-4.4,8C811.2,626.6,812.7,623.9,814.1,621.2z"/>
		<path class="st3" d="M742.4,688.4c16.4-7,31.8-17.1,45.2-30.4c1.3-1.3,2.4-2.6,3.6-3.9C777.6,668.7,761.1,680.5,742.4,688.4z"/>
		<path class="st3" d="M796.6,648c-1.3,1.5-2.6,3-3.9,4.5C794,651.1,795.3,649.5,796.6,648z"/>
		<path class="st3" d="M804.1,638c-2.1,3-4.3,6-6.6,8.8C799.8,644,802,641,804.1,638z"/>
		<path class="st3" d="M808.5,631.3c-1,1.6-2,3.2-3.1,4.8C806.4,634.6,807.5,633,808.5,631.3z"/>
		<path class="st3" d="M821,605.1c-0.4,1.2-0.9,2.3-1.3,3.4C820.1,607.4,820.6,606.3,821,605.1z"/>
		<path class="st3" d="M829,566.3c-0.1,0.8-0.1,1.7-0.2,2.5C828.9,568,829,567.2,829,566.3z"/>
		<path class="st3" d="M621.3,684.1c-0.6-0.3-1.3-0.7-1.9-1C620,683.4,620.7,683.7,621.3,684.1z"/>
		<path class="st3" d="M610.2,677.7c-0.7-0.5-1.5-0.9-2.2-1.4C608.7,676.8,609.5,677.3,610.2,677.7z"/>
		<path class="st3" d="M649,694.8c-0.2-0.1-0.5-0.1-0.7-0.2C648.5,694.6,648.7,694.7,649,694.8z"/>
		<path class="st3" d="M626,686.4c-0.2-0.1-0.5-0.2-0.7-0.3C625.6,686.2,625.8,686.3,626,686.4z"/>
		<path class="st3" d="M615.8,681.1c-0.8-0.4-1.5-0.9-2.2-1.3C614.3,680.2,615.1,680.7,615.8,681.1z"/>
		<path class="st3" d="M828.9,546.2c0.1,0.7,0.1,1.4,0.2,2.1C829,547.7,829,547,828.9,546.2z"/>
		<path class="st3" d="M603.5,673.2c0.4,0.3,0.8,0.5,1.1,0.8C604.3,673.8,603.9,673.5,603.5,673.2L603.5,673.2z"/>
		<path class="st3" d="M827.9,536.9c0.1,0.7,0.2,1.5,0.3,2.2C828.1,538.4,828,537.7,827.9,536.9z"/>
		<path class="st3" d="M823.6,516.8c0.3,0.9,0.5,1.8,0.8,2.8C824.1,518.6,823.9,517.7,823.6,516.8z"/>
		<path class="st3" d="M821.1,508.8c0,0.1,0.1,0.3,0.1,0.4c0.2,0.6,0.4,1.2,0.6,1.8C821.5,510.2,821.3,509.5,821.1,508.8z"/>
		<path class="st3" d="M829.1,548.4c0-0.7-0.1-1.4-0.2-2.1c-0.2-2.4-0.4-4.8-0.7-7.1c-0.1-0.7-0.2-1.5-0.3-2.2
			c-0.8-5.9-2-11.7-3.6-17.4c-0.2-0.9-0.5-1.8-0.8-2.8c-0.6-1.9-1.2-3.9-1.8-5.8c-0.2-0.6-0.4-1.2-0.6-1.8
			c-14.3-40.5-46.4-72.5-86.8-86.9c0.1,0,0.2,0,0.2,0.1c-0.2-0.1-0.4-0.1-0.6-0.2c-2.9-1-5.8-2-8.8-2.8c-0.1,0-0.2,0-0.2-0.1
			c-6.2-1.7-12.5-3-18.9-3.9c-0.4-0.1-0.8-0.1-1.3-0.2c-2.6-0.3-5.3-0.6-8-0.8c-0.6,0-1.1-0.1-1.7-0.1c-3-0.2-6-0.3-9-0.3
			c-0.5,0-1,0-1.5,0c-2.5,0-5,0.1-7.5,0.3c-0.9,0.1-1.8,0.1-2.7,0.2c-2.3,0.2-4.6,0.4-7,0.8c-0.7,0.1-1.3,0.2-2,0.3
			c-2.9,0.4-5.8,0.9-8.7,1.6c-0.7,0.1-1.3,0.3-2,0.5c-2.3,0.5-4.5,1.1-6.7,1.7c-0.9,0.2-1.8,0.5-2.6,0.7c-2.6,0.8-5.1,1.6-7.7,2.5
			c-0.8,0.3-1.6,0.6-2.3,0.9c-2,0.8-4,1.6-6,2.5c-1.2,0.5-2.3,1-3.5,1.6c-1.6,0.7-3.1,1.5-4.6,2.3c-1.8,0.9-3.6,1.9-5.4,2.9
			c-1.4,0.8-2.8,1.6-4.2,2.5c-1.3,0.8-2.7,1.7-4,2.6c-1.1,0.7-2.2,1.5-3.3,2.2c-2.2,1.5-4.3,3.1-6.3,4.7c-1,0.8-2.1,1.6-3.1,2.5
			c-1.3,1.1-2.6,2.2-3.9,3.4c-0.9,0.8-1.7,1.6-2.5,2.3c-20.9,19.7-36,45.6-42,74.8c-0.1,0.5-0.2,1.1-0.3,1.7
			c-0.3,1.6-0.6,3.3-0.9,4.9c-0.1,0.7-0.2,1.4-0.3,2.1c-0.2,1.5-0.4,3.1-0.6,4.6c-0.1,0.7-0.2,1.5-0.2,2.2c-0.2,1.7-0.3,3.3-0.4,5
			c0,0.6-0.1,1.2-0.1,1.8c-0.1,2.3-0.2,4.6-0.2,6.9c0,0.2,0,0.5,0,0.7c0,2,0.1,4,0.2,5.9c0,1.1,0.1,2.1,0.2,3.2
			c0.1,1.1,0.2,2.2,0.2,3.3c0.1,1.3,0.3,2.6,0.4,3.9c0.1,0.8,0.2,1.6,0.3,2.3c0.2,1.5,0.4,3,0.7,4.4c0.1,0.5,0.2,0.9,0.2,1.4
			c1.7,9.5,4.4,18.9,8,28c0.1,0.3,0.2,0.5,0.3,0.8c0.6,1.6,1.3,3.1,2,4.7c0.2,0.4,0.4,0.9,0.6,1.3c0.7,1.4,1.4,2.9,2.1,4.3
			c0.3,0.5,0.5,1.1,0.8,1.6c0.7,1.4,1.4,2.7,2.2,4c0.3,0.6,0.6,1.1,1,1.7c0.8,1.3,1.5,2.6,2.3,3.9c0.3,0.5,0.6,1,1,1.5
			c0.9,1.3,1.7,2.7,2.6,4c0,0.1,0.1,0.1,0.1,0.2l10-10l24.2-24.2c-30-46.4-24.5-109.2,16.3-150c7.2-7.2,15.2-13.3,23.6-18.3
			c13.6-4.9,28.3-7.6,43.6-7.6c71.2,0,129,57.8,129,129c0,15.4-2.7,30.2-7.7,43.9c-5,8.3-11,16.1-18.1,23.3
			c-41.3,41.3-105.2,46.3-152.1,15.1l-24.1,24.1l-10,10c0.4,0.3,0.7,0.5,1.1,0.8c1.1,0.8,2.2,1.5,3.3,2.3c0.7,0.5,1.5,1,2.2,1.4
			c1.1,0.7,2.2,1.4,3.4,2.1c0.7,0.4,1.5,0.9,2.2,1.3c1.2,0.7,2.3,1.3,3.5,2c0.6,0.3,1.3,0.7,1.9,1c1.3,0.7,2.7,1.4,4,2
			c0.2,0.1,0.5,0.2,0.7,0.3c7.2,3.4,14.6,6.1,22.2,8.2c0.2,0.1,0.5,0.1,0.7,0.2c1.7,0.5,3.4,0.9,5.1,1.3c0.4,0.1,0.8,0.2,1.2,0.3
			c1.6,0.4,3.3,0.7,4.9,1c0.5,0.1,1,0.2,1.5,0.3c1.6,0.3,3.2,0.5,4.8,0.8c0.6,0.1,1.2,0.2,1.8,0.2c1.5,0.2,3.1,0.4,4.6,0.5
			c0.7,0.1,1.3,0.1,2,0.2c2.3,0.2,4.6,0.3,7,0.4c1.3,0,2.6,0.1,3.9,0.1c1,0,2,0,3,0c1.3,0,2.5,0,3.8-0.1c1.1,0,2.1-0.1,3.2-0.2
			c1.2-0.1,2.4-0.2,3.5-0.3c1.1-0.1,2.2-0.2,3.3-0.3c1.1-0.1,2.3-0.3,3.4-0.4c1.1-0.1,2.2-0.3,3.3-0.5c1.2-0.2,2.4-0.4,3.6-0.6
			c1-0.2,2-0.3,3-0.6c2.1-0.4,4.2-0.9,6.3-1.5c0.4-0.1,0.8-0.2,1.2-0.3c1.8-0.5,3.6-1,5.4-1.5c0.5-0.1,1-0.3,1.4-0.5
			c1.7-0.6,3.5-1.1,5.2-1.7c0.4-0.1,0.7-0.3,1.1-0.4c1.8-0.7,3.7-1.4,5.5-2.2c0.2-0.1,0.4-0.2,0.6-0.2c18.6-7.9,35.2-19.7,48.8-34.4
			c0.5-0.5,0.9-1,1.4-1.5c1.3-1.5,2.7-3,3.9-4.5c0.3-0.4,0.6-0.8,0.9-1.2c2.3-2.9,4.5-5.8,6.6-8.8c0.4-0.6,0.8-1.2,1.3-1.8
			c1.1-1.6,2.1-3.2,3.1-4.8c0.4-0.7,0.8-1.4,1.2-2.1c1.5-2.6,3-5.3,4.4-8c0.6-1.2,1.2-2.3,1.7-3.5c0.6-1.3,1.2-2.7,1.8-4
			c0.7-1.7,1.4-3.4,2.1-5.2c0.4-1.1,0.9-2.3,1.3-3.4c0.8-2.4,1.6-4.8,2.3-7.2c0.3-0.9,0.5-1.8,0.8-2.7c0.6-2.2,1.2-4.5,1.7-6.8
			c0.1-0.6,0.3-1.3,0.4-1.9c0.6-2.9,1.1-5.9,1.6-8.8c0.1-0.6,0.1-1.1,0.2-1.7c0.3-2.4,0.6-4.9,0.8-7.3c0.1-0.8,0.1-1.7,0.2-2.5
			c0.2-2.5,0.3-5.1,0.3-7.6c0-0.5,0-0.9,0-1.4C829.4,554.3,829.3,551.4,829.1,548.4z"/>
	</g>
	<g class="st2">
		<polygon class="st3" points="652.3,600 655.2,550.6 623.8,512.3 661.5,502.5 652,493.1 602.1,506.1 642.6,555.5 638.9,619.2 
			690.4,599.1 690.4,585.1 		"/>
		<polygon class="st3" points="754.1,555.5 794.6,506.1 732.8,490 698.4,436.2 666.9,485.4 675.5,493.9 698.4,458.1 725.1,499.8 
			772.9,512.3 741.5,550.6 744.4,600 706.3,585.1 706.3,599.1 757.8,619.2 		"/>
	</g>
	<g class="st2">
		<path class="st3" d="M1293.3,854.9c0,7.6-1.1,14-3.3,19.5c-2.2,5.4-5.3,9.9-9.4,13.4c-4.1,3.5-9,6.1-14.8,7.7
			c-5.8,1.6-12.3,2.5-19.6,2.5c-2.7,0-5.6-0.2-8.7-0.6c-3.1-0.4-6.3-1.1-9.6-2.2c-3.2-1.1-6.4-2.5-9.6-4.2c-3.1-1.8-6-4.1-8.5-6.9
			c-3.1-3.5-5.3-7.6-6.6-12.2c-1.3-4.6-2.1-9.8-2.3-15.6v-76h24.4v74.4c0,4,0.5,7.5,1.6,10.4c1.1,2.9,2.5,5.2,4.4,7.1
			c1.9,1.9,4,3.2,6.5,4.1c2.5,0.9,5.1,1.4,7.9,1.4c8.3,0,14.2-1.9,17.8-5.7c3.6-3.8,5.3-9.2,5.3-16.2v-75.5h24.4V854.9z"/>
		<path class="st3" d="M1383.6,894.9h-23.9v-94.3h-34.6v-20.3h93.2v20.3h-34.6V894.9z"/>
		<path class="st3" d="M1452.6,894.9h-25.2l40.9-114.6h27.6l40.4,114.6h-26l-7.3-23.6h-42.3L1452.6,894.9z M1467,851.5h29.2
			l-14.2-45.3h-0.3L1467,851.5z"/>
		<path class="st3" d="M1653.5,854.9c0,7.6-1.1,14-3.3,19.5c-2.2,5.4-5.3,9.9-9.4,13.4c-4.1,3.5-9,6.1-14.8,7.7
			c-5.8,1.6-12.3,2.5-19.6,2.5c-2.7,0-5.6-0.2-8.7-0.6c-3.1-0.4-6.3-1.1-9.6-2.2c-3.2-1.1-6.4-2.5-9.6-4.2c-3.1-1.8-6-4.1-8.5-6.9
			c-3.1-3.5-5.3-7.6-6.6-12.2c-1.3-4.6-2.1-9.8-2.3-15.6v-76h24.4v74.4c0,4,0.5,7.5,1.6,10.4c1.1,2.9,2.5,5.2,4.4,7.1
			c1.9,1.9,4,3.2,6.5,4.1c2.5,0.9,5.1,1.4,7.9,1.4c8.3,0,14.2-1.9,17.8-5.7c3.6-3.8,5.3-9.2,5.3-16.2v-75.5h24.4V854.9z"/>
	</g>
	<g class="st2">
		<path class="st3" d="M1024.5,688.4c-72.6,0-131.5-58.9-131.5-131.5s58.9-131.5,131.5-131.5c54.1,0,100.5,32.6,120.7,79.3h12.3
			c-20.9-53.1-72.5-90.6-133-90.6c-78.9,0-142.9,64-142.9,142.9s64,142.9,142.9,142.9c60.5,0,112.1-37.6,133-90.6h-12.3
			C1125,655.8,1078.6,688.4,1024.5,688.4z"/>
	</g>
</g>
<g id="Camada_2">
	<g>
		<g>
			<defs>
				<path id="SVGID_1_" d="M376.2,699.8L266,414h11.4l106.1,271.9L489.7,414h11.4L390.9,699.8h-7.3H376.2z M1212.7,699.8h-11.4
					L1311.5,414h7.3h7.3l110.2,285.8H1425l-38.9-99.6h-134.5L1212.7,699.8z M1254.8,592h128.1l-64.1-164.1L1254.8,592z M1503,691.6
					V414h-8.2v277.6v6.3v1.8H1654v-8.2H1503z M266,744.1h1388v-8.2H266V744.1z M543.8,563.4c0,1.1,0.1,2.1,0.2,3.2
					c0.1,1.1,0.2,2.2,0.2,3.3c0.1,1.3,0.3,2.6,0.4,3.9c0.1,0.8,0.2,1.6,0.3,2.3c0.2,1.5,0.4,3,0.7,4.4c0.1,0.5,0.2,0.9,0.2,1.4
					c1.7,9.7,4.4,19.1,8,28c0.1,0.3,0.2,0.5,0.3,0.8c0.6,1.6,1.3,3.1,2,4.7c0.2,0.4,0.4,0.9,0.6,1.3c0.7,1.4,1.4,2.9,2.1,4.3
					c0.3,0.5,0.5,1.1,0.8,1.6c0.7,1.4,1.4,2.7,2.2,4c0.3,0.6,0.6,1.1,1,1.7c0.8,1.3,1.5,2.6,2.3,3.9c0.3,0.5,0.6,1,1,1.5
					c0.9,1.3,1.7,2.7,2.6,4c0,0.1,0.1,0.1,0.1,0.2l0,0l10-10l24.2-24.2c-30-46.4-24.5-109.2,16.3-150c7.2-7.2,15.2-13.3,23.6-18.3
					c13.6-4.9,28.3-7.6,43.6-7.6c71.2,0,129,57.8,129,129c0,15.4-2.7,30.2-7.7,43.9c-5,8.3-11,16.1-18.1,23.3
					c-41.3,41.3-105.2,46.3-152.1,15.1l-24.1,24.1l-10,10l0,0c0.4,0.3,0.8,0.5,1.1,0.8c1.1,0.8,2.2,1.5,3.3,2.3
					c0.7,0.5,1.5,1,2.2,1.4c1.1,0.7,2.2,1.4,3.4,2.1c0.7,0.4,1.5,0.9,2.2,1.3c1.2,0.7,2.3,1.3,3.5,2c0.6,0.3,1.3,0.7,1.9,1
					c1.3,0.7,2.7,1.4,4,2c0.2,0.1,0.5,0.2,0.7,0.3c4.5,2.1,9.1,3.9,13.8,5.6c0.2,0.1,0.3,0.1,0.5,0.2c0.8,0.3,1.5,0.5,2.3,0.8
					c0.8,0.3,1.6,0.5,2.4,0.8c0.1,0,0.2,0.1,0.4,0.1c1,0.3,1.9,0.6,2.9,0.8c0.2,0.1,0.5,0.1,0.7,0.2c1.7,0.5,3.4,0.9,5.1,1.3
					c0.4,0.1,0.8,0.2,1.2,0.3c1.6,0.4,3.3,0.7,4.9,1c0.5,0.1,1,0.2,1.5,0.3c1.6,0.3,3.2,0.5,4.8,0.8c0.6,0.1,1.2,0.2,1.8,0.2
					c1.5,0.2,3.1,0.4,4.6,0.5c0.7,0.1,1.3,0.1,2,0.2c2.3,0.2,4.6,0.3,7,0.4c1.3,0,2.6,0.1,3.9,0.1c0.2,0,0.5,0,0.7,0
					c0.8,0,1.5,0,2.3-0.1c1.3,0,2.5,0,3.8-0.1c1.1,0,2.1-0.1,3.2-0.2c1.2-0.1,2.4-0.2,3.5-0.3c1.1-0.1,2.2-0.2,3.3-0.3
					c1.1-0.1,2.3-0.3,3.4-0.4c1.1-0.1,2.2-0.3,3.3-0.5c1.2-0.2,2.4-0.4,3.6-0.6c1-0.2,2-0.3,3-0.6c2.1-0.4,4.2-0.9,6.3-1.5
					c0.4-0.1,0.8-0.2,1.2-0.3c1.8-0.5,3.6-1,5.4-1.5c0.5-0.1,1-0.3,1.4-0.5c1.7-0.6,3.5-1.1,5.2-1.7c0.4-0.1,0.7-0.3,1.1-0.4
					c0.9-0.3,1.8-0.7,2.8-1.1c0.9-0.4,1.8-0.7,2.7-1.1c0.2-0.1,0.4-0.2,0.6-0.2c16.4-7,31.8-17.1,45.2-30.4c1.3-1.3,2.4-2.6,3.6-3.9
					c0.5-0.5,0.9-1,1.4-1.5c1.3-1.5,2.7-3,3.9-4.5c0.3-0.4,0.6-0.8,0.9-1.2c2.3-2.9,4.5-5.8,6.6-8.8c0.4-0.6,0.8-1.2,1.3-1.8
					c1.1-1.6,2.1-3.2,3.1-4.8c0.4-0.7,0.8-1.4,1.2-2.1c1.5-2.6,3-5.3,4.4-8c0.6-1.2,1.2-2.3,1.7-3.5c0.6-1.3,1.2-2.7,1.8-4
					c0.7-1.7,1.4-3.4,2.1-5.2c0.4-1.1,0.9-2.3,1.3-3.4c0.8-2.4,1.6-4.7,2.3-7.2c0.3-0.9,0.5-1.8,0.8-2.7c0.6-2.2,1.2-4.5,1.7-6.8
					c0.1-0.6,0.3-1.3,0.4-1.9c0.6-2.9,1.1-5.8,1.6-8.8c0.1-0.6,0.1-1.1,0.2-1.7c0.3-2.4,0.6-4.8,0.8-7.3c0.1-0.8,0.1-1.7,0.2-2.5
					c0.2-2.5,0.3-5.1,0.3-7.6c0-0.5,0-0.9,0-1.4c0-0.1,0-0.3,0-0.4c0-2.9-0.1-5.7-0.3-8.5c0-0.7-0.1-1.4-0.2-2.1
					c-0.2-2.4-0.4-4.8-0.7-7.1c-0.1-0.7-0.2-1.5-0.3-2.2c-0.8-5.9-2-11.7-3.6-17.4c-0.2-0.9-0.5-1.8-0.8-2.8
					c-0.6-1.9-1.2-3.9-1.8-5.8c-0.2-0.7-0.4-1.5-0.7-2.2c0,0.1,0.1,0.3,0.1,0.4c-14.3-40.5-46.4-72.5-86.8-86.9c0.1,0,0.2,0,0.2,0.1
					c-0.2-0.1-0.4-0.1-0.6-0.2c-2.9-1-5.8-2-8.8-2.8c-0.1,0-0.2,0-0.2-0.1c-1.5-0.4-3.1-0.8-4.7-1.2c-0.3-0.1-0.6-0.1-0.9-0.2
					c-4.4-1-8.8-1.9-13.3-2.5c-0.4-0.1-0.8-0.1-1.3-0.2c-1.3-0.2-2.6-0.3-4-0.5c-1.3-0.1-2.7-0.2-4-0.3c-0.6,0-1.1-0.1-1.7-0.1
					c-2.9-0.2-5.7-0.3-8.7-0.3c-0.1,0-0.3,0-0.4,0c-0.5,0-1,0-1.5,0c-2.5,0-5,0.1-7.5,0.3c-0.9,0.1-1.8,0.1-2.7,0.2
					c-1.2,0.1-2.3,0.2-3.5,0.3c-1.2,0.1-2.3,0.3-3.5,0.4c-0.7,0.1-1.3,0.2-2,0.3c-2.9,0.4-5.8,0.9-8.7,1.6c-0.7,0.1-1.3,0.3-2,0.5
					c-2.3,0.5-4.5,1.1-6.7,1.7c-0.9,0.2-1.8,0.5-2.6,0.7c-2.6,0.8-5.2,1.6-7.7,2.5c-0.8,0.3-1.6,0.6-2.3,0.9c-2,0.8-4,1.6-6,2.5
					c-1.2,0.5-2.3,1-3.5,1.6c-1.6,0.7-3.1,1.5-4.6,2.3c-0.9,0.5-1.8,0.9-2.7,1.4c-0.9,0.5-1.8,1-2.7,1.5c-1.4,0.8-2.8,1.6-4.2,2.5
					c-1.3,0.8-2.7,1.7-4,2.6c-1.1,0.7-2.2,1.5-3.3,2.2c-1.1,0.8-2.1,1.5-3.2,2.3c-1.1,0.8-2.1,1.6-3.1,2.4c-1,0.8-2.1,1.6-3.1,2.5
					c-1.3,1.1-2.6,2.2-3.9,3.4c-0.9,0.8-1.7,1.6-2.5,2.3c-1.1,1-2.2,1.9-3.2,3c-17.6,17.6-29.5,38.5-36,60.8c0,0.1-0.1,0.2-0.1,0.3
					c-0.5,1.6-0.9,3.2-1.3,4.7c-0.1,0.2-0.1,0.4-0.2,0.6c-0.4,1.8-0.8,3.5-1.2,5.3c-0.1,0.5-0.2,1.1-0.3,1.7
					c-0.3,1.6-0.6,3.3-0.9,4.9c-0.1,0.7-0.2,1.4-0.3,2.1c-0.2,1.5-0.4,3.1-0.6,4.6c-0.1,0.7-0.2,1.5-0.2,2.2c-0.2,1.7-0.3,3.3-0.4,5
					c0,0.6-0.1,1.2-0.1,1.8c-0.1,2.3-0.2,4.6-0.2,6.9c0,0,0,0,0,0.1c0,0.2,0,0.4,0,0.6C543.6,559.5,543.7,561.5,543.8,563.4z
					 M652,493l-49.9,13l40.5,49.4l-3.7,63.8l51.5-20.1v-14l-38.1,14.9l2.9-49.4l-31.4-38.3l37.7-9.8L652,493z M732.8,489.9
					l-34.4-53.8l-31.5,49.1l8.6,8.6l22.9-35.8l26.7,41.7l47.9,12.5l-31.4,38.3l2.9,49.4L706.3,585v14l51.5,20.1l-3.8-63.8l40.5-49.4
					L732.8,489.9z M1024.5,699.8c60.5,0,112.1-37.6,133-90.6h-12.3c-20.2,46.6-66.7,79.3-120.7,79.3c-72.6,0-131.5-58.9-131.5-131.5
					s58.9-131.5,131.5-131.5c54.1,0,100.5,32.6,120.7,79.3h12.3c-20.9-53.1-72.5-90.6-133-90.6c-78.9,0-142.9,64-142.9,142.9
					S945.6,699.8,1024.5,699.8z"/>
			</defs>
			<clipPath id="SVGID_2_">
				<use xlink:href="#SVGID_1_"  style="overflow:visible;"/>
			</clipPath>
			<linearGradient id="SVGID_3_" gradientUnits="userSpaceOnUse" x1="499.6261" y1="1048.609" x2="1421.5547" y2="126.6804">
				<stop  offset="0.2" style="stop-color:#E8308A"/>
				<stop  offset="0.5" style="stop-color:#E8E900"/>
				<stop  offset="0.8" style="stop-color:#2581C4"/>
			</linearGradient>
			<rect x="260.1" y="366.2" class="st4" width="1400.9" height="442.9"/>
		</g>
		<g>
			<path class="st3" d="M1293.3,854.9c0,7.6-1.1,14-3.3,19.5c-2.2,5.4-5.3,9.9-9.4,13.4c-4.1,3.5-9,6.1-14.8,7.7
				c-5.8,1.6-12.3,2.5-19.6,2.5c-2.7,0-5.6-0.2-8.7-0.6c-3.1-0.4-6.3-1.1-9.6-2.2c-3.2-1.1-6.4-2.5-9.6-4.2c-3.1-1.8-6-4.1-8.5-6.9
				c-3.1-3.5-5.3-7.6-6.6-12.2c-1.3-4.6-2.1-9.8-2.3-15.6v-76h24.4v74.4c0,4,0.5,7.5,1.6,10.4c1.1,2.9,2.5,5.2,4.4,7.1
				c1.9,1.9,4,3.2,6.5,4.1c2.5,0.9,5.1,1.4,7.9,1.4c8.3,0,14.2-1.9,17.8-5.7c3.6-3.8,5.3-9.2,5.3-16.2v-75.5h24.4V854.9z"/>
			<path class="st3" d="M1383.6,894.9h-23.9v-94.3h-34.6v-20.3h93.2v20.3h-34.6V894.9z"/>
			<path class="st3" d="M1452.6,894.9h-25.2l40.9-114.6h27.6l40.4,114.6h-26l-7.3-23.6h-42.3L1452.6,894.9z M1467,851.5h29.2
				l-14.2-45.3h-0.3L1467,851.5z"/>
			<path class="st3" d="M1653.5,854.9c0,7.6-1.1,14-3.3,19.5c-2.2,5.4-5.3,9.9-9.4,13.4c-4.1,3.5-9,6.1-14.8,7.7
				c-5.8,1.6-12.3,2.5-19.6,2.5c-2.7,0-5.6-0.2-8.7-0.6c-3.1-0.4-6.3-1.1-9.6-2.2c-3.2-1.1-6.4-2.5-9.6-4.2c-3.1-1.8-6-4.1-8.5-6.9
				c-3.1-3.5-5.3-7.6-6.6-12.2c-1.3-4.6-2.1-9.8-2.3-15.6v-76h24.4v74.4c0,4,0.5,7.5,1.6,10.4c1.1,2.9,2.5,5.2,4.4,7.1
				c1.9,1.9,4,3.2,6.5,4.1c2.5,0.9,5.1,1.4,7.9,1.4c8.3,0,14.2-1.9,17.8-5.7c3.6-3.8,5.3-9.2,5.3-16.2v-75.5h24.4V854.9z"/>
		</g>
	</g>
</g>
</svg>
